M48
; DRILL file {KiCad 9.0.5} date 2026-01-28T15:10:38+0900
; FORMAT={-:-/ absolute / metric / decimal}
; #@! TF.CreationDate,2026-01-28T15:10:38+09:00
; #@! TF.GenerationSoftware,Kicad,Pcbnew,9.0.5
; #@! TF.FileFunction,Plated,1,2,PTH
FMAT,2
METRIC
; #@! TA.AperFunction,Plated,PTH,ViaDrill
T1C0.300
; #@! TA.AperFunction,Plated,PTH,ComponentDrill
T2C0.800
; #@! TA.AperFunction,Plated,PTH,ComponentDrill
T3C1.000
%
G90
G05
T1
X134.5Y-89.8
X142.0Y-91.0
X142.0Y-98.7
X142.0Y-101.2
X148.5Y-86.0
X157.5Y-91.0
X157.5Y-98.7
X158.1Y-101.1
X159.0Y-88.0
X159.2Y-81.8
X160.0Y-100.0
X160.0Y-108.0
X160.1Y-111.3
X161.0Y-106.5
X161.3Y-115.1
X162.0Y-104.0
X163.0Y-122.0
T2
X127.195Y-76.903
X127.195Y-79.443
X127.195Y-81.983
X127.195Y-84.523
X127.195Y-87.063
X127.195Y-89.603
X127.195Y-92.143
X127.195Y-94.683
X127.195Y-97.223
X127.195Y-99.763
X127.195Y-102.303
X127.195Y-104.843
X127.195Y-107.383
X127.195Y-109.923
X127.195Y-112.463
X127.195Y-115.003
X127.195Y-117.543
X127.195Y-120.083
X127.195Y-122.623
X127.195Y-125.163
X127.195Y-127.703
X127.195Y-130.243
X152.595Y-76.903
X152.595Y-79.443
X152.595Y-81.983
X152.595Y-84.523
X152.595Y-87.063
X152.595Y-89.603
X152.595Y-92.143
X152.595Y-94.683
X152.595Y-97.223
X152.595Y-99.763
X152.595Y-102.303
X152.595Y-104.843
X152.595Y-107.383
X152.595Y-109.923
X152.595Y-112.463
X152.595Y-115.003
X152.595Y-117.543
X152.595Y-120.083
X152.595Y-122.623
X152.595Y-125.163
X152.595Y-127.703
X152.595Y-130.243
T3
X111.252Y-101.17
X113.792Y-101.17
X116.332Y-101.17
X123.8Y-77.1
X123.8Y-79.64
X123.8Y-82.18
X123.8Y-84.72
X123.8Y-87.26
X123.8Y-89.8
X123.8Y-92.34
X123.8Y-94.88
X123.8Y-97.42
X123.8Y-99.96
X123.8Y-102.5
X123.8Y-105.04
X123.8Y-107.58
X123.8Y-110.12
X123.8Y-112.66
X123.8Y-115.2
X123.8Y-117.74
X123.8Y-120.28
X123.8Y-122.82
X123.8Y-125.36
X123.8Y-127.9
X123.8Y-130.44
X155.8Y-77.06
X155.8Y-79.6
X155.8Y-82.14
X155.8Y-84.68
X155.8Y-87.22
X155.8Y-89.76
X155.8Y-92.3
X155.8Y-94.84
X155.8Y-97.38
X155.8Y-99.92
X155.8Y-102.46
X155.8Y-105.0
X155.8Y-107.54
X155.8Y-110.08
X155.8Y-112.62
X155.8Y-115.16
X155.8Y-117.7
X155.8Y-120.24
X155.8Y-122.78
X155.8Y-125.32
X155.8Y-127.86
X155.8Y-130.4
X165.3Y-97.71
X165.3Y-100.25
X165.3Y-102.79
X165.3Y-105.33
X165.3Y-107.87
X165.3Y-110.41
X165.3Y-116.94
X165.3Y-119.48
X165.3Y-122.02
X165.3Y-124.56
X165.3Y-127.1
X165.3Y-129.64
X165.345Y-78.39
X165.345Y-80.93
X165.345Y-83.47
X165.345Y-86.01
X165.345Y-88.55
X165.345Y-91.09
T3
G00X108.343Y-118.1
M15
G01X110.343Y-118.1
M16
G05
G00X108.343Y-124.1
M15
G01X110.343Y-124.1
M16
G05
G00X114.042Y-122.1
M15
G01X114.042Y-120.1
M16
G05
M30
