%TF.GenerationSoftware,KiCad,Pcbnew,9.0.5*%
%TF.CreationDate,2026-01-28T15:10:35+09:00*%
%TF.ProjectId,esp32s3_serial_bridge_pcb,65737033-3273-4335-9f73-657269616c5f,V1.0*%
%TF.SameCoordinates,Original*%
%TF.FileFunction,Copper,L2,Bot*%
%TF.FilePolarity,Positive*%
%FSLAX46Y46*%
G04 Gerber Fmt 4.6, Leading zero omitted, Abs format (unit mm)*
G04 Created by KiCad (PCBNEW 9.0.5) date 2026-01-28 15:10:35*
%MOMM*%
%LPD*%
G01*
G04 APERTURE LIST*
G04 Aperture macros list*
%AMRoundRect*
0 Rectangle with rounded corners*
0 $1 Rounding radius*
0 $2 $3 $4 $5 $6 $7 $8 $9 X,Y pos of 4 corners*
0 Add a 4 corners polygon primitive as box body*
4,1,4,$2,$3,$4,$5,$6,$7,$8,$9,$2,$3,0*
0 Add four circle primitives for the rounded corners*
1,1,$1+$1,$2,$3*
1,1,$1+$1,$4,$5*
1,1,$1+$1,$6,$7*
1,1,$1+$1,$8,$9*
0 Add four rect primitives between the rounded corners*
20,1,$1+$1,$2,$3,$4,$5,0*
20,1,$1+$1,$4,$5,$6,$7,0*
20,1,$1+$1,$6,$7,$8,$9,0*
20,1,$1+$1,$8,$9,$2,$3,0*%
G04 Aperture macros list end*
%TA.AperFunction,ComponentPad*%
%ADD10R,2.000000X1.200000*%
%TD*%
%TA.AperFunction,ComponentPad*%
%ADD11O,2.000000X1.200000*%
%TD*%
%TA.AperFunction,ComponentPad*%
%ADD12R,1.700000X1.700000*%
%TD*%
%TA.AperFunction,ComponentPad*%
%ADD13C,1.700000*%
%TD*%
%TA.AperFunction,ComponentPad*%
%ADD14R,1.500000X2.300000*%
%TD*%
%TA.AperFunction,ComponentPad*%
%ADD15O,1.500000X2.300000*%
%TD*%
%TA.AperFunction,ComponentPad*%
%ADD16R,3.500000X3.500000*%
%TD*%
%TA.AperFunction,ComponentPad*%
%ADD17RoundRect,0.750000X1.000000X-0.750000X1.000000X0.750000X-1.000000X0.750000X-1.000000X-0.750000X0*%
%TD*%
%TA.AperFunction,ComponentPad*%
%ADD18RoundRect,0.875000X0.875000X-0.875000X0.875000X0.875000X-0.875000X0.875000X-0.875000X-0.875000X0*%
%TD*%
%TA.AperFunction,ViaPad*%
%ADD19C,0.600000*%
%TD*%
%TA.AperFunction,Conductor*%
%ADD20C,0.400000*%
%TD*%
%TA.AperFunction,Conductor*%
%ADD21C,1.270000*%
%TD*%
G04 APERTURE END LIST*
D10*
%TO.P,U3,1,3V3*%
%TO.N,+3.3V*%
X127195000Y-76903200D03*
D11*
%TO.P,U3,2,3V3*%
X127195000Y-79443200D03*
%TO.P,U3,3,CHIP_PU*%
%TO.N,RST*%
X127195000Y-81983200D03*
%TO.P,U3,4,GPIO4/ADC1_CH3*%
%TO.N,GPIO4*%
X127195000Y-84523200D03*
%TO.P,U3,5,GPIO5/ADC1_CH4*%
%TO.N,GPIO5*%
X127195000Y-87063200D03*
%TO.P,U3,6,GPIO6/ADC1_CH5*%
%TO.N,GPIO6*%
X127195000Y-89603200D03*
%TO.P,U3,7,GPIO7/ADC1_CH6*%
%TO.N,/GPIO7*%
X127195000Y-92143200D03*
%TO.P,U3,8,GPIO15/ADC2_CH4/32K_P*%
%TO.N,GPIO15_RTS0*%
X127195000Y-94683200D03*
%TO.P,U3,9,GPIO16/ADC2_CH5/32K_N*%
%TO.N,GPIO16_CTS0*%
X127195000Y-97223200D03*
%TO.P,U3,10,GPIO17/ADC2_CH6*%
%TO.N,GPIO17_TX1*%
X127195000Y-99763200D03*
%TO.P,U3,11,GPIO18/ADC2_CH7*%
%TO.N,GPIO18_RX1*%
X127195000Y-102303200D03*
%TO.P,U3,12,GPIO8/ADC1_CH7*%
%TO.N,GPIO8*%
X127195000Y-104843200D03*
%TO.P,U3,13,GPIO3/ADC1_CH2*%
%TO.N,GPIO3*%
X127195000Y-107383200D03*
%TO.P,U3,14,GPIO46*%
%TO.N,GPIO46*%
X127195000Y-109923200D03*
%TO.P,U3,15,GPIO9/ADC1_CH8*%
%TO.N,GPIO9*%
X127195000Y-112463200D03*
%TO.P,U3,16,GPIO10/ADC1_CH9*%
%TO.N,GPIO10*%
X127195000Y-115003200D03*
%TO.P,U3,17,GPIO11/ADC2_CH0*%
%TO.N,GPIO11*%
X127195000Y-117543200D03*
%TO.P,U3,18,GPIO12/ADC2_CH1*%
%TO.N,GPIO12*%
X127195000Y-120083200D03*
%TO.P,U3,19,GPIO13/ADC2_CH2*%
%TO.N,GPIO13*%
X127195000Y-122623200D03*
%TO.P,U3,20,GPIO14/ADC2_CH3*%
%TO.N,GPIO14*%
X127195000Y-125163200D03*
%TO.P,U3,21,5V*%
%TO.N,+5V*%
X127195000Y-127703200D03*
%TO.P,U3,22,GND*%
%TO.N,GND*%
X127195000Y-130243200D03*
%TO.P,U3,23,GND*%
X152595000Y-130243200D03*
%TO.P,U3,24,GND*%
X152595000Y-127703200D03*
%TO.P,U3,25,GPIO19/USB_D-*%
%TO.N,GPIO19_RTS1*%
X152595000Y-125163200D03*
%TO.P,U3,26,GPIO20/USB_D+*%
%TO.N,GPIO20_CTS1*%
X152595000Y-122623200D03*
%TO.P,U3,27,GPIO21*%
%TO.N,GPIO21*%
X152595000Y-120083200D03*
%TO.P,U3,28,GPIO47*%
%TO.N,GPIO47*%
X152595000Y-117543200D03*
%TO.P,U3,29,GPIO48*%
%TO.N,GPIO48*%
X152595000Y-115003200D03*
%TO.P,U3,30,GPIO45*%
%TO.N,GPIO45*%
X152595000Y-112463200D03*
%TO.P,U3,31,GPIO0*%
%TO.N,GPIO0*%
X152595000Y-109923200D03*
%TO.P,U3,32,GPIO35*%
%TO.N,GPIO35_RTS2*%
X152595000Y-107383200D03*
%TO.P,U3,33,GPIO36*%
%TO.N,GPIO36_CTS2*%
X152595000Y-104843200D03*
%TO.P,U3,34,GPIO37*%
%TO.N,GPIO37_TX2*%
X152595000Y-102303200D03*
%TO.P,U3,35,GPIO38*%
%TO.N,GPIO38_RX2*%
X152595000Y-99763200D03*
%TO.P,U3,36,GPIO39/MTCK*%
%TO.N,GPIO39*%
X152595000Y-97223200D03*
%TO.P,U3,37,GPIO40/MTDO*%
%TO.N,GPIO40*%
X152595000Y-94683200D03*
%TO.P,U3,38,GPIO41/MTDI*%
%TO.N,GPIO41*%
X152595000Y-92143200D03*
%TO.P,U3,39,GPIO42/MTMS*%
%TO.N,GPIO42*%
X152595000Y-89603200D03*
%TO.P,U3,40,GPIO2/ADC1_CH1*%
%TO.N,GPIO2*%
X152595000Y-87063200D03*
%TO.P,U3,41,GPIO1/ADC1_CH0*%
%TO.N,GPIO1_RX0*%
X152595000Y-84523200D03*
%TO.P,U3,42,GPIO44/U0RXD*%
%TO.N,GPIO44*%
X152595000Y-81983200D03*
%TO.P,U3,43,GPIO43/U0TXD*%
%TO.N,GPIO43_TX0*%
X152595000Y-79443200D03*
%TO.P,U3,44,GND*%
%TO.N,GND*%
X152595000Y-76903200D03*
%TD*%
D12*
%TO.P,J3,1,Pin_1*%
%TO.N,GPIO16_CTS0*%
X165345000Y-78390000D03*
D13*
%TO.P,J3,2,Pin_2*%
%TO.N,GPIO43_TX0*%
X165345000Y-80930000D03*
%TO.P,J3,3,Pin_3*%
%TO.N,GPIO1_RX0*%
X165345000Y-83470000D03*
%TO.P,J3,4,Pin_4*%
%TO.N,+5V*%
X165345000Y-86010000D03*
%TO.P,J3,5,Pin_5*%
%TO.N,GPIO15_RTS0*%
X165345000Y-88550000D03*
%TO.P,J3,6,Pin_6*%
%TO.N,GND*%
X165345000Y-91090000D03*
%TD*%
D12*
%TO.P,J5,1,Pin_1*%
%TO.N,GPIO36_CTS2*%
X165300000Y-116940000D03*
D13*
%TO.P,J5,2,Pin_2*%
%TO.N,GPIO37_TX2*%
X165300000Y-119480000D03*
%TO.P,J5,3,Pin_3*%
%TO.N,GPIO38_RX2*%
X165300000Y-122020000D03*
%TO.P,J5,4,Pin_4*%
%TO.N,+5V*%
X165300000Y-124560000D03*
%TO.P,J5,5,Pin_5*%
%TO.N,GPIO35_RTS2*%
X165300000Y-127100000D03*
%TO.P,J5,6,Pin_6*%
%TO.N,GND*%
X165300000Y-129640000D03*
%TD*%
D14*
%TO.P,U2,1,IN*%
%TO.N,+12V*%
X111252500Y-101170000D03*
D15*
%TO.P,U2,2,GND*%
%TO.N,GND*%
X113792500Y-101170000D03*
%TO.P,U2,3,OUT*%
%TO.N,+5V*%
X116332500Y-101170000D03*
%TD*%
D12*
%TO.P,J1,1,Pin_1*%
%TO.N,GND*%
X155800000Y-77060000D03*
D13*
%TO.P,J1,2,Pin_2*%
%TO.N,GPIO43_TX0*%
X155800000Y-79600000D03*
%TO.P,J1,3,Pin_3*%
%TO.N,GPIO44*%
X155800000Y-82140000D03*
%TO.P,J1,4,Pin_4*%
%TO.N,GPIO1_RX0*%
X155800000Y-84680000D03*
%TO.P,J1,5,Pin_5*%
%TO.N,GPIO2*%
X155800000Y-87220000D03*
%TO.P,J1,6,Pin_6*%
%TO.N,GPIO42*%
X155800000Y-89760000D03*
%TO.P,J1,7,Pin_7*%
%TO.N,GPIO41*%
X155800000Y-92300000D03*
%TO.P,J1,8,Pin_8*%
%TO.N,GPIO40*%
X155800000Y-94840000D03*
%TO.P,J1,9,Pin_9*%
%TO.N,GPIO39*%
X155800000Y-97380000D03*
%TO.P,J1,10,Pin_10*%
%TO.N,GPIO38_RX2*%
X155800000Y-99920000D03*
%TO.P,J1,11,Pin_11*%
%TO.N,GPIO37_TX2*%
X155800000Y-102460000D03*
%TO.P,J1,12,Pin_12*%
%TO.N,GPIO36_CTS2*%
X155800000Y-105000000D03*
%TO.P,J1,13,Pin_13*%
%TO.N,GPIO35_RTS2*%
X155800000Y-107540000D03*
%TO.P,J1,14,Pin_14*%
%TO.N,GPIO0*%
X155800000Y-110080000D03*
%TO.P,J1,15,Pin_15*%
%TO.N,GPIO45*%
X155800000Y-112620000D03*
%TO.P,J1,16,Pin_16*%
%TO.N,GPIO48*%
X155800000Y-115160000D03*
%TO.P,J1,17,Pin_17*%
%TO.N,GPIO47*%
X155800000Y-117700000D03*
%TO.P,J1,18,Pin_18*%
%TO.N,GPIO21*%
X155800000Y-120240000D03*
%TO.P,J1,19,Pin_19*%
%TO.N,GPIO20_CTS1*%
X155800000Y-122780000D03*
%TO.P,J1,20,Pin_20*%
%TO.N,GPIO19_RTS1*%
X155800000Y-125320000D03*
%TO.P,J1,21,Pin_21*%
%TO.N,GND*%
X155800000Y-127860000D03*
%TO.P,J1,22,Pin_22*%
X155800000Y-130400000D03*
%TD*%
D16*
%TO.P,J6,1*%
%TO.N,+12V*%
X109342500Y-118100000D03*
D17*
%TO.P,J6,2*%
%TO.N,GND*%
X109342500Y-124100000D03*
D18*
%TO.P,J6,3*%
%TO.N,unconnected-(J6-Pad3)*%
X114042500Y-121100000D03*
%TD*%
D12*
%TO.P,J4,1,Pin_1*%
%TO.N,GPIO20_CTS1*%
X165300000Y-97710000D03*
D13*
%TO.P,J4,2,Pin_2*%
%TO.N,GPIO17_TX1*%
X165300000Y-100250000D03*
%TO.P,J4,3,Pin_3*%
%TO.N,GPIO18_RX1*%
X165300000Y-102790000D03*
%TO.P,J4,4,Pin_4*%
%TO.N,+5V*%
X165300000Y-105330000D03*
%TO.P,J4,5,Pin_5*%
%TO.N,GPIO19_RTS1*%
X165300000Y-107870000D03*
%TO.P,J4,6,Pin_6*%
%TO.N,GND*%
X165300000Y-110410000D03*
%TD*%
D12*
%TO.P,J2,1,Pin_1*%
%TO.N,+3.3V*%
X123800000Y-77100000D03*
D13*
%TO.P,J2,2,Pin_2*%
X123800000Y-79640000D03*
%TO.P,J2,3,Pin_3*%
%TO.N,RST*%
X123800000Y-82180000D03*
%TO.P,J2,4,Pin_4*%
%TO.N,GPIO4*%
X123800000Y-84720000D03*
%TO.P,J2,5,Pin_5*%
%TO.N,GPIO5*%
X123800000Y-87260000D03*
%TO.P,J2,6,Pin_6*%
%TO.N,GPIO6*%
X123800000Y-89800000D03*
%TO.P,J2,7,Pin_7*%
%TO.N,/GPIO7*%
X123800000Y-92340000D03*
%TO.P,J2,8,Pin_8*%
%TO.N,GPIO15_RTS0*%
X123800000Y-94880000D03*
%TO.P,J2,9,Pin_9*%
%TO.N,GPIO16_CTS0*%
X123800000Y-97420000D03*
%TO.P,J2,10,Pin_10*%
%TO.N,GPIO17_TX1*%
X123800000Y-99960000D03*
%TO.P,J2,11,Pin_11*%
%TO.N,GPIO18_RX1*%
X123800000Y-102500000D03*
%TO.P,J2,12,Pin_12*%
%TO.N,GPIO8*%
X123800000Y-105040000D03*
%TO.P,J2,13,Pin_13*%
%TO.N,GPIO3*%
X123800000Y-107580000D03*
%TO.P,J2,14,Pin_14*%
%TO.N,GPIO46*%
X123800000Y-110120000D03*
%TO.P,J2,15,Pin_15*%
%TO.N,GPIO9*%
X123800000Y-112660000D03*
%TO.P,J2,16,Pin_16*%
%TO.N,GPIO10*%
X123800000Y-115200000D03*
%TO.P,J2,17,Pin_17*%
%TO.N,GPIO11*%
X123800000Y-117740000D03*
%TO.P,J2,18,Pin_18*%
%TO.N,GPIO12*%
X123800000Y-120280000D03*
%TO.P,J2,19,Pin_19*%
%TO.N,GPIO13*%
X123800000Y-122820000D03*
%TO.P,J2,20,Pin_20*%
%TO.N,GPIO14*%
X123800000Y-125360000D03*
%TO.P,J2,21,Pin_21*%
%TO.N,+5V*%
X123800000Y-127900000D03*
%TO.P,J2,22,Pin_22*%
%TO.N,GND*%
X123800000Y-130440000D03*
%TD*%
D19*
%TO.N,GND*%
X159200000Y-81800000D03*
%TO.N,GPIO16_CTS0*%
X148500000Y-86000000D03*
X134500000Y-89800000D03*
%TO.N,GPIO18_RX1*%
X142000000Y-101200000D03*
%TO.N,GPIO17_TX1*%
X142000000Y-98700000D03*
X157500000Y-98700000D03*
%TO.N,GPIO15_RTS0*%
X142000000Y-91000000D03*
X157500000Y-91000000D03*
%TO.N,GND*%
X161000000Y-106500000D03*
X160000000Y-108000000D03*
X162000000Y-104000000D03*
X163000000Y-122000000D03*
X160000000Y-100000000D03*
X159000000Y-88000000D03*
%TO.N,GPIO18_RX1*%
X158100000Y-101100000D03*
%TO.N,GPIO36_CTS2*%
X160100000Y-111300000D03*
%TO.N,GPIO37_TX2*%
X161300000Y-115100000D03*
%TD*%
D20*
%TO.N,GPIO16_CTS0*%
X127195000Y-97105000D02*
X127195000Y-97223200D01*
X134500000Y-89800000D02*
X127195000Y-97105000D01*
X148569000Y-85931000D02*
X148500000Y-86000000D01*
X157804000Y-85931000D02*
X148569000Y-85931000D01*
%TO.N,GPIO18_RX1*%
X158000000Y-101200000D02*
X142000000Y-101200000D01*
X158100000Y-101100000D02*
X158000000Y-101200000D01*
%TO.N,GPIO17_TX1*%
X157469000Y-98669000D02*
X142031000Y-98669000D01*
X157500000Y-98700000D02*
X157469000Y-98669000D01*
X142031000Y-98669000D02*
X142000000Y-98700000D01*
%TO.N,GPIO15_RTS0*%
X142011000Y-91011000D02*
X142000000Y-91000000D01*
X157500000Y-91000000D02*
X157489000Y-91011000D01*
X157489000Y-91011000D02*
X142011000Y-91011000D01*
D21*
%TO.N,+5V*%
X167031000Y-87696000D02*
X165345000Y-86010000D01*
X167031000Y-103599000D02*
X167031000Y-87696000D01*
X165300000Y-105330000D02*
X167031000Y-103599000D01*
X166986000Y-122874000D02*
X166986000Y-107016000D01*
X165300000Y-124560000D02*
X166986000Y-122874000D01*
X166986000Y-107016000D02*
X165300000Y-105330000D01*
X157774000Y-132086000D02*
X165300000Y-124560000D01*
X131577800Y-132086000D02*
X157774000Y-132086000D01*
X127195000Y-127703200D02*
X131577800Y-132086000D01*
D20*
%TO.N,GPIO19_RTS1*%
X159100000Y-122020000D02*
X155800000Y-125320000D01*
X162538636Y-107870000D02*
X159100000Y-111308636D01*
X159100000Y-111308636D02*
X159100000Y-122020000D01*
X165300000Y-107870000D02*
X162538636Y-107870000D01*
%TO.N,GPIO20_CTS1*%
X158000000Y-120580000D02*
X155800000Y-122780000D01*
X158000000Y-105010000D02*
X158000000Y-120580000D01*
X165300000Y-97710000D02*
X158000000Y-105010000D01*
%TO.N,GPIO36_CTS2*%
X160100000Y-111740000D02*
X160100000Y-111300000D01*
X165300000Y-116940000D02*
X160100000Y-111740000D01*
%TO.N,GPIO37_TX2*%
X161300000Y-115100000D02*
X161300000Y-115480000D01*
X161300000Y-115480000D02*
X165300000Y-119480000D01*
%TO.N,GPIO16_CTS0*%
X165345000Y-78390000D02*
X157804000Y-85931000D01*
%TD*%
%TA.AperFunction,Conductor*%
%TO.N,GND*%
G36*
X154801231Y-75520185D02*
G01*
X154846986Y-75572989D01*
X154856930Y-75642147D01*
X154827905Y-75705703D01*
X154777525Y-75740682D01*
X154707913Y-75766645D01*
X154707906Y-75766649D01*
X154592812Y-75852809D01*
X154592809Y-75852812D01*
X154506649Y-75967906D01*
X154506645Y-75967913D01*
X154456403Y-76102620D01*
X154456401Y-76102627D01*
X154450000Y-76162155D01*
X154450000Y-76810000D01*
X155366988Y-76810000D01*
X155334075Y-76867007D01*
X155300000Y-76994174D01*
X155300000Y-77125826D01*
X155334075Y-77252993D01*
X155366988Y-77310000D01*
X154450000Y-77310000D01*
X154450000Y-77957844D01*
X154456401Y-78017372D01*
X154456403Y-78017379D01*
X154506645Y-78152086D01*
X154506649Y-78152093D01*
X154592809Y-78267187D01*
X154592812Y-78267190D01*
X154707906Y-78353350D01*
X154707913Y-78353354D01*
X154839470Y-78402422D01*
X154895404Y-78444293D01*
X154919821Y-78509758D01*
X154904969Y-78578031D01*
X154883819Y-78606285D01*
X154769889Y-78720215D01*
X154644951Y-78892179D01*
X154548444Y-79081585D01*
X154482753Y-79283760D01*
X154449500Y-79493713D01*
X154449500Y-79706286D01*
X154482753Y-79916239D01*
X154548444Y-80118414D01*
X154644951Y-80307820D01*
X154769890Y-80479786D01*
X154920213Y-80630109D01*
X155092182Y-80755050D01*
X155100946Y-80759516D01*
X155151742Y-80807491D01*
X155168536Y-80875312D01*
X155145998Y-80941447D01*
X155100946Y-80980484D01*
X155092182Y-80984949D01*
X154920213Y-81109890D01*
X154769890Y-81260213D01*
X154644951Y-81432179D01*
X154548444Y-81621585D01*
X154482753Y-81823760D01*
X154449500Y-82033713D01*
X154449500Y-82246286D01*
X154482753Y-82456239D01*
X154548444Y-82658414D01*
X154644951Y-82847820D01*
X154769890Y-83019786D01*
X154920213Y-83170109D01*
X155092182Y-83295050D01*
X155100946Y-83299516D01*
X155151742Y-83347491D01*
X155168536Y-83415312D01*
X155145998Y-83481447D01*
X155100946Y-83520484D01*
X155092182Y-83524949D01*
X154920213Y-83649890D01*
X154769890Y-83800213D01*
X154644951Y-83972179D01*
X154548444Y-84161585D01*
X154482753Y-84363760D01*
X154461158Y-84500109D01*
X154449500Y-84573713D01*
X154449500Y-84786287D01*
X154482754Y-84996243D01*
X154500287Y-85050205D01*
X154506129Y-85068182D01*
X154508124Y-85138023D01*
X154472044Y-85197856D01*
X154409343Y-85228684D01*
X154388198Y-85230500D01*
X154072082Y-85230500D01*
X154005043Y-85210815D01*
X153959288Y-85158011D01*
X153949344Y-85088853D01*
X153961597Y-85050205D01*
X153997424Y-84979890D01*
X154014873Y-84945645D01*
X154068402Y-84780901D01*
X154095500Y-84609811D01*
X154095500Y-84436589D01*
X154068402Y-84265499D01*
X154014873Y-84100755D01*
X153936232Y-83946412D01*
X153834414Y-83806272D01*
X153711928Y-83683786D01*
X153571788Y-83581968D01*
X153417445Y-83503327D01*
X153252701Y-83449798D01*
X153252699Y-83449797D01*
X153252698Y-83449797D01*
X153117871Y-83428443D01*
X153081611Y-83422700D01*
X152108389Y-83422700D01*
X152072129Y-83428443D01*
X151937302Y-83449797D01*
X151772552Y-83503328D01*
X151618211Y-83581968D01*
X151538256Y-83640059D01*
X151478072Y-83683786D01*
X151478070Y-83683788D01*
X151478069Y-83683788D01*
X151355588Y-83806269D01*
X151355588Y-83806270D01*
X151355586Y-83806272D01*
X151311859Y-83866456D01*
X151253768Y-83946411D01*
X151175128Y-84100752D01*
X151121597Y-84265502D01*
X151108248Y-84349786D01*
X151094500Y-84436589D01*
X151094500Y-84609811D01*
X151121598Y-84780901D01*
X151145658Y-84854951D01*
X151175128Y-84945647D01*
X151228403Y-85050205D01*
X151241299Y-85118874D01*
X151215023Y-85183615D01*
X151157916Y-85223872D01*
X151117918Y-85230500D01*
X148746900Y-85230500D01*
X148722708Y-85228117D01*
X148578844Y-85199500D01*
X148578842Y-85199500D01*
X148421158Y-85199500D01*
X148421155Y-85199500D01*
X148266510Y-85230261D01*
X148266498Y-85230264D01*
X148120827Y-85290602D01*
X148120814Y-85290609D01*
X147989711Y-85378210D01*
X147989707Y-85378213D01*
X147878213Y-85489707D01*
X147878210Y-85489711D01*
X147790609Y-85620814D01*
X147790602Y-85620827D01*
X147730264Y-85766498D01*
X147730261Y-85766510D01*
X147699500Y-85921153D01*
X147699500Y-86078846D01*
X147730261Y-86233489D01*
X147730264Y-86233501D01*
X147790602Y-86379172D01*
X147790609Y-86379185D01*
X147878210Y-86510288D01*
X147878213Y-86510292D01*
X147989707Y-86621786D01*
X147989711Y-86621789D01*
X148120814Y-86709390D01*
X148120827Y-86709397D01*
X148256754Y-86765699D01*
X148266503Y-86769737D01*
X148387566Y-86793818D01*
X148421153Y-86800499D01*
X148421156Y-86800500D01*
X148421158Y-86800500D01*
X148578844Y-86800500D01*
X148578845Y-86800499D01*
X148733497Y-86769737D01*
X148879179Y-86709394D01*
X148964480Y-86652397D01*
X149031156Y-86631520D01*
X149033370Y-86631500D01*
X151007463Y-86631500D01*
X151074502Y-86651185D01*
X151120257Y-86703989D01*
X151130201Y-86773147D01*
X151125393Y-86793820D01*
X151121598Y-86805498D01*
X151121597Y-86805501D01*
X151094500Y-86976589D01*
X151094500Y-87149810D01*
X151112109Y-87260993D01*
X151121598Y-87320901D01*
X151175127Y-87485645D01*
X151253768Y-87639988D01*
X151355586Y-87780128D01*
X151478072Y-87902614D01*
X151618212Y-88004432D01*
X151772555Y-88083073D01*
X151937299Y-88136602D01*
X152108389Y-88163700D01*
X152108390Y-88163700D01*
X153081610Y-88163700D01*
X153081611Y-88163700D01*
X153252701Y-88136602D01*
X153417445Y-88083073D01*
X153571788Y-88004432D01*
X153711928Y-87902614D01*
X153834414Y-87780128D01*
X153936232Y-87639988D01*
X154014873Y-87485645D01*
X154068402Y-87320901D01*
X154095500Y-87149811D01*
X154095500Y-86976589D01*
X154068402Y-86805499D01*
X154064607Y-86793818D01*
X154063802Y-86765699D01*
X154059799Y-86737853D01*
X154062817Y-86731242D01*
X154062610Y-86723979D01*
X154077137Y-86699887D01*
X154088824Y-86674297D01*
X154094937Y-86670368D01*
X154098690Y-86664145D01*
X154123938Y-86651730D01*
X154147602Y-86636523D01*
X154157870Y-86635046D01*
X154161390Y-86633316D01*
X154182537Y-86631500D01*
X154400545Y-86631500D01*
X154467584Y-86651185D01*
X154513339Y-86703989D01*
X154523283Y-86773147D01*
X154518477Y-86793812D01*
X154487292Y-86889792D01*
X154482753Y-86903760D01*
X154461158Y-87040109D01*
X154449500Y-87113713D01*
X154449500Y-87326287D01*
X154482754Y-87536243D01*
X154505625Y-87606633D01*
X154548444Y-87738414D01*
X154644951Y-87927820D01*
X154769890Y-88099786D01*
X154920213Y-88250109D01*
X155092182Y-88375050D01*
X155100946Y-88379516D01*
X155151742Y-88427491D01*
X155168536Y-88495312D01*
X155145998Y-88561447D01*
X155100946Y-88600484D01*
X155092182Y-88604949D01*
X154920213Y-88729890D01*
X154769890Y-88880213D01*
X154644951Y-89052179D01*
X154548444Y-89241585D01*
X154482753Y-89443760D01*
X154449500Y-89653713D01*
X154449500Y-89866286D01*
X154475983Y-90033497D01*
X154482754Y-90076243D01*
X154500287Y-90130205D01*
X154506129Y-90148182D01*
X154508124Y-90218023D01*
X154472044Y-90277856D01*
X154409343Y-90308684D01*
X154388198Y-90310500D01*
X154072082Y-90310500D01*
X154005043Y-90290815D01*
X153959288Y-90238011D01*
X153949344Y-90168853D01*
X153961597Y-90130205D01*
X153989094Y-90076239D01*
X154014873Y-90025645D01*
X154068402Y-89860901D01*
X154095500Y-89689811D01*
X154095500Y-89516589D01*
X154068402Y-89345499D01*
X154014873Y-89180755D01*
X153936232Y-89026412D01*
X153834414Y-88886272D01*
X153711928Y-88763786D01*
X153571788Y-88661968D01*
X153417445Y-88583327D01*
X153252701Y-88529798D01*
X153252699Y-88529797D01*
X153252698Y-88529797D01*
X153117871Y-88508443D01*
X153081611Y-88502700D01*
X152108389Y-88502700D01*
X152072129Y-88508443D01*
X151937302Y-88529797D01*
X151772552Y-88583328D01*
X151618211Y-88661968D01*
X151538256Y-88720059D01*
X151478072Y-88763786D01*
X151478070Y-88763788D01*
X151478069Y-88763788D01*
X151355588Y-88886269D01*
X151355588Y-88886270D01*
X151355586Y-88886272D01*
X151311859Y-88946456D01*
X151253768Y-89026411D01*
X151175128Y-89180752D01*
X151121597Y-89345502D01*
X151109669Y-89420814D01*
X151094500Y-89516589D01*
X151094500Y-89689811D01*
X151121598Y-89860901D01*
X151131612Y-89891722D01*
X151175128Y-90025647D01*
X151228403Y-90130205D01*
X151241299Y-90198874D01*
X151215023Y-90263615D01*
X151157916Y-90303872D01*
X151117918Y-90310500D01*
X142446567Y-90310500D01*
X142385094Y-90292449D01*
X142384546Y-90293475D01*
X142379621Y-90290842D01*
X142379528Y-90290815D01*
X142379340Y-90290692D01*
X142379174Y-90290603D01*
X142233501Y-90230264D01*
X142233489Y-90230261D01*
X142078845Y-90199500D01*
X142078842Y-90199500D01*
X141921158Y-90199500D01*
X141921155Y-90199500D01*
X141766510Y-90230261D01*
X141766498Y-90230264D01*
X141620827Y-90290602D01*
X141620814Y-90290609D01*
X141489711Y-90378210D01*
X141489707Y-90378213D01*
X141378213Y-90489707D01*
X141378210Y-90489711D01*
X141290609Y-90620814D01*
X141290602Y-90620827D01*
X141230264Y-90766498D01*
X141230261Y-90766510D01*
X141199500Y-90921153D01*
X141199500Y-91078846D01*
X141230261Y-91233489D01*
X141230264Y-91233501D01*
X141290602Y-91379172D01*
X141290609Y-91379185D01*
X141378210Y-91510288D01*
X141378213Y-91510292D01*
X141489707Y-91621786D01*
X141489711Y-91621789D01*
X141620814Y-91709390D01*
X141620827Y-91709397D01*
X141766498Y-91769735D01*
X141766503Y-91769737D01*
X141921153Y-91800499D01*
X141921156Y-91800500D01*
X141921158Y-91800500D01*
X142078844Y-91800500D01*
X142078845Y-91800499D01*
X142161848Y-91783989D01*
X142233488Y-91769739D01*
X142233490Y-91769738D01*
X142233497Y-91769737D01*
X142351307Y-91720938D01*
X142398759Y-91711500D01*
X151007463Y-91711500D01*
X151074502Y-91731185D01*
X151120257Y-91783989D01*
X151130201Y-91853147D01*
X151125393Y-91873820D01*
X151121598Y-91885498D01*
X151121597Y-91885501D01*
X151094500Y-92056589D01*
X151094500Y-92229810D01*
X151118817Y-92383346D01*
X151121598Y-92400901D01*
X151175127Y-92565645D01*
X151253768Y-92719988D01*
X151355586Y-92860128D01*
X151478072Y-92982614D01*
X151618212Y-93084432D01*
X151772555Y-93163073D01*
X151937299Y-93216602D01*
X152108389Y-93243700D01*
X152108390Y-93243700D01*
X153081610Y-93243700D01*
X153081611Y-93243700D01*
X153252701Y-93216602D01*
X153417445Y-93163073D01*
X153571788Y-93084432D01*
X153711928Y-92982614D01*
X153834414Y-92860128D01*
X153936232Y-92719988D01*
X154014873Y-92565645D01*
X154068402Y-92400901D01*
X154095500Y-92229811D01*
X154095500Y-92056589D01*
X154068402Y-91885499D01*
X154064607Y-91873818D01*
X154063802Y-91845699D01*
X154059799Y-91817853D01*
X154062817Y-91811242D01*
X154062610Y-91803979D01*
X154077137Y-91779887D01*
X154088824Y-91754297D01*
X154094937Y-91750368D01*
X154098690Y-91744145D01*
X154123938Y-91731730D01*
X154147602Y-91716523D01*
X154157870Y-91715046D01*
X154161390Y-91713316D01*
X154182537Y-91711500D01*
X154400545Y-91711500D01*
X154467584Y-91731185D01*
X154513339Y-91783989D01*
X154523283Y-91853147D01*
X154518477Y-91873812D01*
X154503202Y-91920826D01*
X154482753Y-91983760D01*
X154449500Y-92193713D01*
X154449500Y-92406287D01*
X154451265Y-92417429D01*
X154482753Y-92616239D01*
X154548444Y-92818414D01*
X154644951Y-93007820D01*
X154769890Y-93179786D01*
X154920213Y-93330109D01*
X155092182Y-93455050D01*
X155100946Y-93459516D01*
X155151742Y-93507491D01*
X155168536Y-93575312D01*
X155145998Y-93641447D01*
X155100946Y-93680484D01*
X155092182Y-93684949D01*
X154920213Y-93809890D01*
X154769890Y-93960213D01*
X154644951Y-94132179D01*
X154548444Y-94321585D01*
X154482753Y-94523760D01*
X154449500Y-94733713D01*
X154449500Y-94946286D01*
X154482753Y-95156239D01*
X154548444Y-95358414D01*
X154644951Y-95547820D01*
X154769890Y-95719786D01*
X154920213Y-95870109D01*
X155092182Y-95995050D01*
X155100946Y-95999516D01*
X155151742Y-96047491D01*
X155168536Y-96115312D01*
X155145998Y-96181447D01*
X155100946Y-96220484D01*
X155092182Y-96224949D01*
X154920213Y-96349890D01*
X154769890Y-96500213D01*
X154644951Y-96672179D01*
X154548444Y-96861585D01*
X154482753Y-97063760D01*
X154449500Y-97273713D01*
X154449500Y-97486286D01*
X154482753Y-97696239D01*
X154518476Y-97806182D01*
X154520471Y-97876023D01*
X154484391Y-97935856D01*
X154421690Y-97966684D01*
X154400545Y-97968500D01*
X154052721Y-97968500D01*
X153985682Y-97948815D01*
X153939927Y-97896011D01*
X153929983Y-97826853D01*
X153942236Y-97788206D01*
X154014870Y-97645650D01*
X154014873Y-97645645D01*
X154068402Y-97480901D01*
X154095500Y-97309811D01*
X154095500Y-97136589D01*
X154068402Y-96965499D01*
X154014873Y-96800755D01*
X153936232Y-96646412D01*
X153834414Y-96506272D01*
X153711928Y-96383786D01*
X153571788Y-96281968D01*
X153417445Y-96203327D01*
X153252701Y-96149798D01*
X153252699Y-96149797D01*
X153252698Y-96149797D01*
X153117871Y-96128443D01*
X153081611Y-96122700D01*
X152108389Y-96122700D01*
X152072129Y-96128443D01*
X151937302Y-96149797D01*
X151772552Y-96203328D01*
X151618211Y-96281968D01*
X151538256Y-96340059D01*
X151478072Y-96383786D01*
X151478070Y-96383788D01*
X151478069Y-96383788D01*
X151355588Y-96506269D01*
X151355588Y-96506270D01*
X151355586Y-96506272D01*
X151311859Y-96566456D01*
X151253768Y-96646411D01*
X151175128Y-96800752D01*
X151121597Y-96965502D01*
X151094500Y-97136589D01*
X151094500Y-97309810D01*
X151121597Y-97480897D01*
X151175129Y-97645650D01*
X151247764Y-97788206D01*
X151260660Y-97856875D01*
X151234383Y-97921615D01*
X151177277Y-97961872D01*
X151137279Y-97968500D01*
X142350474Y-97968500D01*
X142303023Y-97959061D01*
X142233497Y-97930263D01*
X142233489Y-97930261D01*
X142078845Y-97899500D01*
X142078842Y-97899500D01*
X141921158Y-97899500D01*
X141921155Y-97899500D01*
X141766510Y-97930261D01*
X141766498Y-97930264D01*
X141620827Y-97990602D01*
X141620814Y-97990609D01*
X141489711Y-98078210D01*
X141489707Y-98078213D01*
X141378213Y-98189707D01*
X141378210Y-98189711D01*
X141290609Y-98320814D01*
X141290602Y-98320827D01*
X141230264Y-98466498D01*
X141230261Y-98466510D01*
X141199500Y-98621153D01*
X141199500Y-98778846D01*
X141230261Y-98933489D01*
X141230264Y-98933501D01*
X141290602Y-99079172D01*
X141290609Y-99079185D01*
X141378210Y-99210288D01*
X141378213Y-99210292D01*
X141489707Y-99321786D01*
X141489711Y-99321789D01*
X141620814Y-99409390D01*
X141620827Y-99409397D01*
X141766498Y-99469735D01*
X141766503Y-99469737D01*
X141921153Y-99500499D01*
X141921156Y-99500500D01*
X141921158Y-99500500D01*
X142078844Y-99500500D01*
X142078845Y-99500499D01*
X142233497Y-99469737D01*
X142379179Y-99409394D01*
X142407609Y-99390397D01*
X142474285Y-99369520D01*
X142476499Y-99369500D01*
X150997953Y-99369500D01*
X151064992Y-99389185D01*
X151110747Y-99441989D01*
X151120691Y-99511147D01*
X151120426Y-99512898D01*
X151110400Y-99576202D01*
X151094500Y-99676589D01*
X151094500Y-99849811D01*
X151121598Y-100020901D01*
X151175127Y-100185645D01*
X151241333Y-100315583D01*
X151243179Y-100319205D01*
X151256075Y-100387874D01*
X151229799Y-100452615D01*
X151172692Y-100492872D01*
X151132694Y-100499500D01*
X142425316Y-100499500D01*
X142377864Y-100490061D01*
X142233501Y-100430264D01*
X142233489Y-100430261D01*
X142078845Y-100399500D01*
X142078842Y-100399500D01*
X141921158Y-100399500D01*
X141921155Y-100399500D01*
X141766510Y-100430261D01*
X141766498Y-100430264D01*
X141620827Y-100490602D01*
X141620814Y-100490609D01*
X141489711Y-100578210D01*
X141489707Y-100578213D01*
X141378213Y-100689707D01*
X141378210Y-100689711D01*
X141290609Y-100820814D01*
X141290602Y-100820827D01*
X141230264Y-100966498D01*
X141230261Y-100966510D01*
X141199500Y-101121153D01*
X141199500Y-101278846D01*
X141230261Y-101433489D01*
X141230264Y-101433501D01*
X141290602Y-101579172D01*
X141290609Y-101579185D01*
X141378210Y-101710288D01*
X141378213Y-101710292D01*
X141489707Y-101821786D01*
X141489711Y-101821789D01*
X141620814Y-101909390D01*
X141620827Y-101909397D01*
X141766498Y-101969735D01*
X141766503Y-101969737D01*
X141921153Y-102000499D01*
X141921156Y-102000500D01*
X141921158Y-102000500D01*
X142078844Y-102000500D01*
X142078845Y-102000499D01*
X142233497Y-101969737D01*
X142321841Y-101933144D01*
X142377864Y-101909939D01*
X142425316Y-101900500D01*
X150999378Y-101900500D01*
X151066417Y-101920185D01*
X151112172Y-101972989D01*
X151122116Y-102042147D01*
X151121851Y-102043897D01*
X151094500Y-102216588D01*
X151094500Y-102389810D01*
X151115725Y-102523825D01*
X151121598Y-102560901D01*
X151175127Y-102725645D01*
X151253768Y-102879988D01*
X151355586Y-103020128D01*
X151478072Y-103142614D01*
X151618212Y-103244432D01*
X151772555Y-103323073D01*
X151937299Y-103376602D01*
X152108389Y-103403700D01*
X152108390Y-103403700D01*
X153081610Y-103403700D01*
X153081611Y-103403700D01*
X153252701Y-103376602D01*
X153417445Y-103323073D01*
X153571788Y-103244432D01*
X153711928Y-103142614D01*
X153834414Y-103020128D01*
X153936232Y-102879988D01*
X154014873Y-102725645D01*
X154068402Y-102560901D01*
X154095500Y-102389811D01*
X154095500Y-102216589D01*
X154091387Y-102190621D01*
X154068149Y-102043897D01*
X154070544Y-102025358D01*
X154067884Y-102006853D01*
X154074930Y-101991423D01*
X154077104Y-101974604D01*
X154089142Y-101960302D01*
X154096909Y-101943297D01*
X154111177Y-101934127D01*
X154122100Y-101921152D01*
X154139960Y-101915629D01*
X154155687Y-101905523D01*
X154187392Y-101900964D01*
X154188852Y-101900513D01*
X154190622Y-101900500D01*
X154391122Y-101900500D01*
X154458161Y-101920185D01*
X154503916Y-101972989D01*
X154513860Y-102042147D01*
X154509053Y-102062818D01*
X154482753Y-102143759D01*
X154449500Y-102353713D01*
X154449500Y-102566286D01*
X154480782Y-102763797D01*
X154482754Y-102776243D01*
X154497133Y-102820498D01*
X154548444Y-102978414D01*
X154644951Y-103167820D01*
X154769890Y-103339786D01*
X154920213Y-103490109D01*
X155092182Y-103615050D01*
X155100946Y-103619516D01*
X155151742Y-103667491D01*
X155168536Y-103735312D01*
X155145998Y-103801447D01*
X155100946Y-103840484D01*
X155092182Y-103844949D01*
X154920213Y-103969890D01*
X154769890Y-104120213D01*
X154644951Y-104292179D01*
X154548444Y-104481585D01*
X154482753Y-104683760D01*
X154449500Y-104893713D01*
X154449500Y-105106286D01*
X154474453Y-105263837D01*
X154482754Y-105316243D01*
X154534075Y-105474193D01*
X154548444Y-105518414D01*
X154644951Y-105707820D01*
X154769890Y-105879786D01*
X154920213Y-106030109D01*
X155092182Y-106155050D01*
X155100946Y-106159516D01*
X155151742Y-106207491D01*
X155168536Y-106275312D01*
X155145998Y-106341447D01*
X155100946Y-106380484D01*
X155092182Y-106384949D01*
X154920213Y-106509890D01*
X154769890Y-106660213D01*
X154644951Y-106832179D01*
X154548444Y-107021585D01*
X154482753Y-107223760D01*
X154466578Y-107325886D01*
X154449500Y-107433713D01*
X154449500Y-107646287D01*
X154482754Y-107856243D01*
X154534075Y-108014193D01*
X154548444Y-108058414D01*
X154644951Y-108247820D01*
X154769890Y-108419786D01*
X154920213Y-108570109D01*
X155092182Y-108695050D01*
X155100946Y-108699516D01*
X155151742Y-108747491D01*
X155168536Y-108815312D01*
X155145998Y-108881447D01*
X155100946Y-108920484D01*
X155092182Y-108924949D01*
X154920213Y-109049890D01*
X154769890Y-109200213D01*
X154644951Y-109372179D01*
X154548444Y-109561585D01*
X154482753Y-109763760D01*
X154459591Y-109910000D01*
X154449500Y-109973713D01*
X154449500Y-110186287D01*
X154482754Y-110396243D01*
X154534075Y-110554193D01*
X154548444Y-110598414D01*
X154644951Y-110787820D01*
X154769890Y-110959786D01*
X154920213Y-111110109D01*
X155092182Y-111235050D01*
X155100946Y-111239516D01*
X155151742Y-111287491D01*
X155168536Y-111355312D01*
X155145998Y-111421447D01*
X155100946Y-111460484D01*
X155092182Y-111464949D01*
X154920213Y-111589890D01*
X154769890Y-111740213D01*
X154644951Y-111912179D01*
X154548444Y-112101585D01*
X154482753Y-112303760D01*
X154449500Y-112513713D01*
X154449500Y-112726287D01*
X154482754Y-112936243D01*
X154534075Y-113094193D01*
X154548444Y-113138414D01*
X154644951Y-113327820D01*
X154769890Y-113499786D01*
X154920213Y-113650109D01*
X155092182Y-113775050D01*
X155100946Y-113779516D01*
X155151742Y-113827491D01*
X155168536Y-113895312D01*
X155145998Y-113961447D01*
X155100946Y-114000484D01*
X155092182Y-114004949D01*
X154920213Y-114129890D01*
X154769890Y-114280213D01*
X154644951Y-114452179D01*
X154548444Y-114641585D01*
X154482753Y-114843760D01*
X154454657Y-115021153D01*
X154449500Y-115053713D01*
X154449500Y-115266287D01*
X154482754Y-115476243D01*
X154534075Y-115634193D01*
X154548444Y-115678414D01*
X154644951Y-115867820D01*
X154769890Y-116039786D01*
X154920213Y-116190109D01*
X155092182Y-116315050D01*
X155100946Y-116319516D01*
X155151742Y-116367491D01*
X155168536Y-116435312D01*
X155145998Y-116501447D01*
X155100946Y-116540484D01*
X155092182Y-116544949D01*
X154920213Y-116669890D01*
X154769890Y-116820213D01*
X154644951Y-116992179D01*
X154548444Y-117181585D01*
X154482753Y-117383760D01*
X154449500Y-117593713D01*
X154449500Y-117806287D01*
X154482754Y-118016243D01*
X154534075Y-118174193D01*
X154548444Y-118218414D01*
X154644951Y-118407820D01*
X154769890Y-118579786D01*
X154920213Y-118730109D01*
X155092182Y-118855050D01*
X155100946Y-118859516D01*
X155151742Y-118907491D01*
X155168536Y-118975312D01*
X155145998Y-119041447D01*
X155100946Y-119080484D01*
X155092182Y-119084949D01*
X154920213Y-119209890D01*
X154769890Y-119360213D01*
X154644951Y-119532179D01*
X154548444Y-119721585D01*
X154482753Y-119923760D01*
X154458204Y-120078756D01*
X154449500Y-120133713D01*
X154449500Y-120346287D01*
X154482754Y-120556243D01*
X154539717Y-120731557D01*
X154548444Y-120758414D01*
X154644951Y-120947820D01*
X154769890Y-121119786D01*
X154920213Y-121270109D01*
X155092182Y-121395050D01*
X155100946Y-121399516D01*
X155151742Y-121447491D01*
X155168536Y-121515312D01*
X155145998Y-121581447D01*
X155100946Y-121620484D01*
X155092182Y-121624949D01*
X154920213Y-121749890D01*
X154769890Y-121900213D01*
X154644951Y-122072179D01*
X154548444Y-122261585D01*
X154482753Y-122463760D01*
X154449500Y-122673713D01*
X154449500Y-122886287D01*
X154482754Y-123096243D01*
X154539717Y-123271557D01*
X154548444Y-123298414D01*
X154644951Y-123487820D01*
X154769890Y-123659786D01*
X154920213Y-123810109D01*
X155092182Y-123935050D01*
X155100946Y-123939516D01*
X155151742Y-123987491D01*
X155168536Y-124055312D01*
X155145998Y-124121447D01*
X155100946Y-124160484D01*
X155092182Y-124164949D01*
X154920213Y-124289890D01*
X154769890Y-124440213D01*
X154644951Y-124612179D01*
X154548444Y-124801585D01*
X154482753Y-125003760D01*
X154449500Y-125213713D01*
X154449500Y-125426287D01*
X154482754Y-125636243D01*
X154539717Y-125811557D01*
X154548444Y-125838414D01*
X154644951Y-126027820D01*
X154769890Y-126199786D01*
X154920213Y-126350109D01*
X155092179Y-126475048D01*
X155092181Y-126475049D01*
X155092184Y-126475051D01*
X155101493Y-126479794D01*
X155152290Y-126527766D01*
X155169087Y-126595587D01*
X155146552Y-126661722D01*
X155101505Y-126700760D01*
X155092446Y-126705376D01*
X155092440Y-126705380D01*
X155038282Y-126744727D01*
X155038282Y-126744728D01*
X155670591Y-127377037D01*
X155607007Y-127394075D01*
X155492993Y-127459901D01*
X155399901Y-127552993D01*
X155334075Y-127667007D01*
X155317037Y-127730591D01*
X154684728Y-127098282D01*
X154684727Y-127098282D01*
X154645380Y-127152439D01*
X154548904Y-127341782D01*
X154483242Y-127543869D01*
X154483242Y-127543872D01*
X154450000Y-127753753D01*
X154450000Y-127966246D01*
X154483242Y-128176127D01*
X154483242Y-128176130D01*
X154548904Y-128378217D01*
X154645375Y-128567550D01*
X154684728Y-128621716D01*
X155317037Y-127989408D01*
X155334075Y-128052993D01*
X155399901Y-128167007D01*
X155492993Y-128260099D01*
X155607007Y-128325925D01*
X155670590Y-128342962D01*
X155038282Y-128975269D01*
X155038282Y-128975270D01*
X155092452Y-129014626D01*
X155102048Y-129019516D01*
X155152844Y-129067491D01*
X155169638Y-129135312D01*
X155147100Y-129201447D01*
X155102051Y-129240483D01*
X155092440Y-129245380D01*
X155038282Y-129284727D01*
X155038282Y-129284728D01*
X155670591Y-129917037D01*
X155607007Y-129934075D01*
X155492993Y-129999901D01*
X155399901Y-130092993D01*
X155334075Y-130207007D01*
X155317037Y-130270591D01*
X154684728Y-129638282D01*
X154684727Y-129638282D01*
X154645380Y-129692439D01*
X154548904Y-129881782D01*
X154483242Y-130083869D01*
X154483242Y-130083872D01*
X154450000Y-130293753D01*
X154450000Y-130506246D01*
X154483242Y-130716127D01*
X154483242Y-130716130D01*
X154506654Y-130788182D01*
X154508649Y-130858023D01*
X154472569Y-130917856D01*
X154409868Y-130948684D01*
X154388723Y-130950500D01*
X154071521Y-130950500D01*
X154004482Y-130930815D01*
X153958727Y-130878011D01*
X153948783Y-130808853D01*
X153961036Y-130770205D01*
X154014408Y-130665455D01*
X154067914Y-130500784D01*
X154069115Y-130493200D01*
X152910686Y-130493200D01*
X152915080Y-130488806D01*
X152967741Y-130397594D01*
X152995000Y-130295861D01*
X152995000Y-130190539D01*
X152967741Y-130088806D01*
X152915080Y-129997594D01*
X152910686Y-129993200D01*
X154069115Y-129993200D01*
X154069115Y-129993199D01*
X154067914Y-129985615D01*
X154014408Y-129820944D01*
X153935804Y-129666675D01*
X153834032Y-129526597D01*
X153711602Y-129404167D01*
X153571524Y-129302395D01*
X153417257Y-129223791D01*
X153252584Y-129170285D01*
X153081571Y-129143200D01*
X152845000Y-129143200D01*
X152845000Y-129927514D01*
X152840606Y-129923120D01*
X152749394Y-129870459D01*
X152647661Y-129843200D01*
X152542339Y-129843200D01*
X152440606Y-129870459D01*
X152349394Y-129923120D01*
X152345000Y-129927514D01*
X152345000Y-129143200D01*
X152108429Y-129143200D01*
X151937415Y-129170285D01*
X151772742Y-129223791D01*
X151618475Y-129302395D01*
X151478397Y-129404167D01*
X151355967Y-129526597D01*
X151254195Y-129666675D01*
X151175591Y-129820944D01*
X151122085Y-129985615D01*
X151120884Y-129993199D01*
X151120885Y-129993200D01*
X152279314Y-129993200D01*
X152274920Y-129997594D01*
X152222259Y-130088806D01*
X152195000Y-130190539D01*
X152195000Y-130295861D01*
X152222259Y-130397594D01*
X152274920Y-130488806D01*
X152279314Y-130493200D01*
X151120885Y-130493200D01*
X151122085Y-130500784D01*
X151175591Y-130665455D01*
X151228964Y-130770205D01*
X151241860Y-130838874D01*
X151215584Y-130903615D01*
X151158477Y-130943872D01*
X151118479Y-130950500D01*
X132099502Y-130950500D01*
X132032463Y-130930815D01*
X132011821Y-130914181D01*
X131215586Y-130117946D01*
X130671814Y-129574174D01*
X128720463Y-127622824D01*
X128686979Y-127561502D01*
X128685672Y-127554542D01*
X128685427Y-127552993D01*
X128669622Y-127453199D01*
X151120884Y-127453199D01*
X151120885Y-127453200D01*
X152279314Y-127453200D01*
X152274920Y-127457594D01*
X152222259Y-127548806D01*
X152195000Y-127650539D01*
X152195000Y-127755861D01*
X152222259Y-127857594D01*
X152274920Y-127948806D01*
X152279314Y-127953200D01*
X151120885Y-127953200D01*
X151122085Y-127960784D01*
X151175591Y-128125455D01*
X151254195Y-128279724D01*
X151355967Y-128419802D01*
X151478397Y-128542232D01*
X151618475Y-128644004D01*
X151772742Y-128722608D01*
X151937415Y-128776114D01*
X152108429Y-128803200D01*
X152345000Y-128803200D01*
X152345000Y-128018886D01*
X152349394Y-128023280D01*
X152440606Y-128075941D01*
X152542339Y-128103200D01*
X152647661Y-128103200D01*
X152749394Y-128075941D01*
X152840606Y-128023280D01*
X152845000Y-128018886D01*
X152845000Y-128803200D01*
X153081571Y-128803200D01*
X153252584Y-128776114D01*
X153417257Y-128722608D01*
X153571524Y-128644004D01*
X153711602Y-128542232D01*
X153834032Y-128419802D01*
X153935804Y-128279724D01*
X154014408Y-128125455D01*
X154067914Y-127960784D01*
X154069115Y-127953200D01*
X152910686Y-127953200D01*
X152915080Y-127948806D01*
X152967741Y-127857594D01*
X152995000Y-127755861D01*
X152995000Y-127650539D01*
X152967741Y-127548806D01*
X152915080Y-127457594D01*
X152910686Y-127453200D01*
X154069115Y-127453200D01*
X154069115Y-127453199D01*
X154067914Y-127445615D01*
X154014408Y-127280944D01*
X153935804Y-127126675D01*
X153834032Y-126986597D01*
X153711602Y-126864167D01*
X153571524Y-126762395D01*
X153417257Y-126683791D01*
X153252584Y-126630285D01*
X153081571Y-126603200D01*
X152845000Y-126603200D01*
X152845000Y-127387514D01*
X152840606Y-127383120D01*
X152749394Y-127330459D01*
X152647661Y-127303200D01*
X152542339Y-127303200D01*
X152440606Y-127330459D01*
X152349394Y-127383120D01*
X152345000Y-127387514D01*
X152345000Y-126603200D01*
X152108429Y-126603200D01*
X151937415Y-126630285D01*
X151772742Y-126683791D01*
X151618475Y-126762395D01*
X151478397Y-126864167D01*
X151355967Y-126986597D01*
X151254195Y-127126675D01*
X151175591Y-127280944D01*
X151122085Y-127445615D01*
X151120884Y-127453199D01*
X128669622Y-127453199D01*
X128668402Y-127445499D01*
X128614873Y-127280755D01*
X128614871Y-127280752D01*
X128614871Y-127280750D01*
X128536231Y-127126411D01*
X128515794Y-127098282D01*
X128434414Y-126986272D01*
X128311928Y-126863786D01*
X128171788Y-126761968D01*
X128051665Y-126700763D01*
X128017447Y-126683328D01*
X128017446Y-126683327D01*
X128017445Y-126683327D01*
X127852701Y-126629798D01*
X127852699Y-126629797D01*
X127852698Y-126629797D01*
X127721271Y-126608981D01*
X127681611Y-126602700D01*
X127681610Y-126602700D01*
X127502207Y-126602700D01*
X127463887Y-126596630D01*
X127460903Y-126595660D01*
X127460897Y-126595659D01*
X127284370Y-126567700D01*
X127284366Y-126567700D01*
X127105634Y-126567700D01*
X127105630Y-126567700D01*
X126929102Y-126595659D01*
X126929096Y-126595660D01*
X126926113Y-126596630D01*
X126887793Y-126602700D01*
X126708389Y-126602700D01*
X126668728Y-126608981D01*
X126537302Y-126629797D01*
X126372552Y-126683328D01*
X126218211Y-126761968D01*
X126138256Y-126820059D01*
X126078072Y-126863786D01*
X126078070Y-126863788D01*
X126078069Y-126863788D01*
X125955588Y-126986269D01*
X125955588Y-126986270D01*
X125955586Y-126986272D01*
X125911859Y-127046456D01*
X125853768Y-127126411D01*
X125775128Y-127280752D01*
X125721597Y-127445502D01*
X125694500Y-127616589D01*
X125694500Y-127789810D01*
X125716042Y-127925826D01*
X125721598Y-127960901D01*
X125775065Y-128125455D01*
X125775128Y-128125647D01*
X125796202Y-128167007D01*
X125853768Y-128279988D01*
X125955586Y-128420128D01*
X126078072Y-128542614D01*
X126218212Y-128644432D01*
X126291133Y-128681587D01*
X126372550Y-128723071D01*
X126372552Y-128723071D01*
X126372555Y-128723073D01*
X126460860Y-128751765D01*
X126537298Y-128776602D01*
X126557402Y-128779786D01*
X126646341Y-128793872D01*
X126665572Y-128802988D01*
X126686371Y-128807513D01*
X126705802Y-128822059D01*
X126709476Y-128823801D01*
X126714625Y-128828664D01*
X126817480Y-128931519D01*
X126850965Y-128992842D01*
X126845981Y-129062534D01*
X126804109Y-129118467D01*
X126738645Y-129142884D01*
X126729799Y-129143200D01*
X126708429Y-129143200D01*
X126537415Y-129170285D01*
X126372742Y-129223791D01*
X126218475Y-129302395D01*
X126078397Y-129404167D01*
X125955967Y-129526597D01*
X125854195Y-129666675D01*
X125775591Y-129820944D01*
X125722085Y-129985615D01*
X125720884Y-129993199D01*
X125720885Y-129993200D01*
X126879314Y-129993200D01*
X126874920Y-129997594D01*
X126822259Y-130088806D01*
X126795000Y-130190539D01*
X126795000Y-130295861D01*
X126822259Y-130397594D01*
X126874920Y-130488806D01*
X126879314Y-130493200D01*
X125720885Y-130493200D01*
X125722085Y-130500784D01*
X125775591Y-130665455D01*
X125854195Y-130819724D01*
X125955967Y-130959802D01*
X126078397Y-131082232D01*
X126218475Y-131184004D01*
X126372742Y-131262608D01*
X126537415Y-131316114D01*
X126708429Y-131343200D01*
X126945000Y-131343200D01*
X126945000Y-130558886D01*
X126949394Y-130563280D01*
X127040606Y-130615941D01*
X127142339Y-130643200D01*
X127247661Y-130643200D01*
X127349394Y-130615941D01*
X127440606Y-130563280D01*
X127445000Y-130558886D01*
X127445000Y-131343200D01*
X127681571Y-131343200D01*
X127852584Y-131316114D01*
X128017257Y-131262608D01*
X128171524Y-131184004D01*
X128311602Y-131082232D01*
X128434036Y-130959798D01*
X128521953Y-130838789D01*
X128577283Y-130796122D01*
X128646896Y-130790143D01*
X128708691Y-130822748D01*
X128709918Y-130823958D01*
X130838071Y-132952111D01*
X130898918Y-132996319D01*
X130982668Y-133057167D01*
X131057908Y-133095503D01*
X131141914Y-133138307D01*
X131141916Y-133138307D01*
X131141919Y-133138309D01*
X131311903Y-133193541D01*
X131409975Y-133209073D01*
X131488430Y-133221500D01*
X131488434Y-133221500D01*
X157863370Y-133221500D01*
X157941824Y-133209073D01*
X158039897Y-133193541D01*
X158168193Y-133151853D01*
X158209881Y-133138309D01*
X158369132Y-133057167D01*
X158513728Y-132952111D01*
X158640111Y-132825728D01*
X158698670Y-132767169D01*
X158698683Y-132767154D01*
X163859910Y-127605928D01*
X163921231Y-127572445D01*
X163990923Y-127577429D01*
X164046856Y-127619301D01*
X164058074Y-127637316D01*
X164064812Y-127650539D01*
X164137763Y-127793713D01*
X164144951Y-127807819D01*
X164269890Y-127979786D01*
X164420213Y-128130109D01*
X164592179Y-128255048D01*
X164592181Y-128255049D01*
X164592184Y-128255051D01*
X164601493Y-128259794D01*
X164652290Y-128307766D01*
X164669087Y-128375587D01*
X164646552Y-128441722D01*
X164601505Y-128480760D01*
X164592446Y-128485376D01*
X164592440Y-128485380D01*
X164538282Y-128524727D01*
X164538282Y-128524728D01*
X165170591Y-129157037D01*
X165107007Y-129174075D01*
X164992993Y-129239901D01*
X164899901Y-129332993D01*
X164834075Y-129447007D01*
X164817037Y-129510591D01*
X164184728Y-128878282D01*
X164184727Y-128878282D01*
X164145380Y-128932439D01*
X164048904Y-129121782D01*
X163983242Y-129323869D01*
X163983242Y-129323872D01*
X163950000Y-129533753D01*
X163950000Y-129746246D01*
X163983242Y-129956127D01*
X163983242Y-129956130D01*
X164048904Y-130158217D01*
X164145375Y-130347550D01*
X164184728Y-130401716D01*
X164817037Y-129769408D01*
X164834075Y-129832993D01*
X164899901Y-129947007D01*
X164992993Y-130040099D01*
X165107007Y-130105925D01*
X165170590Y-130122962D01*
X164538282Y-130755269D01*
X164538282Y-130755270D01*
X164592449Y-130794624D01*
X164781782Y-130891095D01*
X164983870Y-130956757D01*
X165193754Y-130990000D01*
X165406246Y-130990000D01*
X165616127Y-130956757D01*
X165616130Y-130956757D01*
X165818217Y-130891095D01*
X166007554Y-130794622D01*
X166061716Y-130755270D01*
X166061717Y-130755270D01*
X165429408Y-130122962D01*
X165492993Y-130105925D01*
X165607007Y-130040099D01*
X165700099Y-129947007D01*
X165765925Y-129832993D01*
X165782962Y-129769408D01*
X166415270Y-130401717D01*
X166415270Y-130401716D01*
X166454622Y-130347554D01*
X166551095Y-130158217D01*
X166616757Y-129956130D01*
X166616757Y-129956127D01*
X166650000Y-129746246D01*
X166650000Y-129533753D01*
X166616757Y-129323872D01*
X166616757Y-129323869D01*
X166551095Y-129121782D01*
X166454624Y-128932449D01*
X166415270Y-128878282D01*
X166415269Y-128878282D01*
X165782962Y-129510590D01*
X165765925Y-129447007D01*
X165700099Y-129332993D01*
X165607007Y-129239901D01*
X165492993Y-129174075D01*
X165429409Y-129157037D01*
X166061716Y-128524728D01*
X166007547Y-128485373D01*
X166007547Y-128485372D01*
X165998500Y-128480763D01*
X165947706Y-128432788D01*
X165930912Y-128364966D01*
X165953451Y-128298832D01*
X165998508Y-128259793D01*
X166007816Y-128255051D01*
X166116442Y-128176130D01*
X166179786Y-128130109D01*
X166179788Y-128130106D01*
X166179792Y-128130104D01*
X166330104Y-127979792D01*
X166330106Y-127979788D01*
X166330109Y-127979786D01*
X166455048Y-127807820D01*
X166455049Y-127807819D01*
X166455051Y-127807816D01*
X166551557Y-127618412D01*
X166617246Y-127416243D01*
X166650500Y-127206287D01*
X166650500Y-126993713D01*
X166617246Y-126783757D01*
X166551557Y-126581588D01*
X166455051Y-126392184D01*
X166455049Y-126392181D01*
X166455048Y-126392179D01*
X166330109Y-126220213D01*
X166179786Y-126069890D01*
X166007820Y-125944951D01*
X166001180Y-125941568D01*
X165999054Y-125940485D01*
X165948259Y-125892512D01*
X165931463Y-125824692D01*
X165953999Y-125758556D01*
X165999054Y-125719515D01*
X166007816Y-125715051D01*
X166116287Y-125636243D01*
X166179786Y-125590109D01*
X166179788Y-125590106D01*
X166179792Y-125590104D01*
X166330104Y-125439792D01*
X166330106Y-125439788D01*
X166330109Y-125439786D01*
X166455048Y-125267820D01*
X166455047Y-125267820D01*
X166455051Y-125267816D01*
X166551557Y-125078412D01*
X166617246Y-124876243D01*
X166617247Y-124876237D01*
X166617817Y-124873866D01*
X166618296Y-124873009D01*
X166618752Y-124871608D01*
X166619030Y-124871698D01*
X166650709Y-124815128D01*
X167852111Y-123613728D01*
X167957167Y-123469132D01*
X167965662Y-123452460D01*
X168019038Y-123347704D01*
X168038307Y-123309885D01*
X168038307Y-123309884D01*
X168038309Y-123309881D01*
X168070925Y-123209500D01*
X168093541Y-123139897D01*
X168107762Y-123050109D01*
X168121500Y-122963370D01*
X168121500Y-106926634D01*
X168107762Y-106839897D01*
X168107762Y-106839893D01*
X168093541Y-106750104D01*
X168093539Y-106750098D01*
X168082118Y-106714949D01*
X168050601Y-106617949D01*
X168038777Y-106581557D01*
X168038309Y-106580118D01*
X167957166Y-106420867D01*
X167956888Y-106420484D01*
X167852111Y-106276272D01*
X167725728Y-106149889D01*
X166993520Y-105417681D01*
X166960035Y-105356358D01*
X166965019Y-105286666D01*
X166993520Y-105242319D01*
X167897103Y-104338736D01*
X167897111Y-104338728D01*
X167903816Y-104329500D01*
X168002167Y-104194132D01*
X168083309Y-104034881D01*
X168104424Y-103969896D01*
X168138541Y-103864897D01*
X168150650Y-103788443D01*
X168166500Y-103688370D01*
X168166500Y-87606633D01*
X168163541Y-87587948D01*
X168163541Y-87587947D01*
X168138541Y-87430106D01*
X168138541Y-87430103D01*
X168084815Y-87264754D01*
X168083754Y-87260993D01*
X168061589Y-87217491D01*
X168002167Y-87100868D01*
X167897111Y-86956272D01*
X167770728Y-86829889D01*
X166695710Y-85754871D01*
X166664032Y-85698300D01*
X166663752Y-85698392D01*
X166663293Y-85696982D01*
X166662815Y-85696127D01*
X166662246Y-85693759D01*
X166662246Y-85693757D01*
X166596557Y-85491588D01*
X166596555Y-85491585D01*
X166596555Y-85491583D01*
X166538788Y-85378210D01*
X166500051Y-85302184D01*
X166500049Y-85302181D01*
X166500048Y-85302179D01*
X166375109Y-85130213D01*
X166224786Y-84979890D01*
X166052820Y-84854951D01*
X166052115Y-84854591D01*
X166044054Y-84850485D01*
X165993259Y-84802512D01*
X165976463Y-84734692D01*
X165998999Y-84668556D01*
X166044054Y-84629515D01*
X166052816Y-84625051D01*
X166123477Y-84573713D01*
X166224786Y-84500109D01*
X166224788Y-84500106D01*
X166224792Y-84500104D01*
X166375104Y-84349792D01*
X166375106Y-84349788D01*
X166375109Y-84349786D01*
X166500048Y-84177820D01*
X166500047Y-84177820D01*
X166500051Y-84177816D01*
X166596557Y-83988412D01*
X166662246Y-83786243D01*
X166695500Y-83576287D01*
X166695500Y-83363713D01*
X166662246Y-83153757D01*
X166596557Y-82951588D01*
X166500051Y-82762184D01*
X166500049Y-82762181D01*
X166500048Y-82762179D01*
X166375109Y-82590213D01*
X166224786Y-82439890D01*
X166052820Y-82314951D01*
X166052115Y-82314591D01*
X166044054Y-82310485D01*
X165993259Y-82262512D01*
X165976463Y-82194692D01*
X165998999Y-82128556D01*
X166044054Y-82089515D01*
X166052816Y-82085051D01*
X166123477Y-82033713D01*
X166224786Y-81960109D01*
X166224788Y-81960106D01*
X166224792Y-81960104D01*
X166375104Y-81809792D01*
X166375106Y-81809788D01*
X166375109Y-81809786D01*
X166500048Y-81637820D01*
X166500047Y-81637820D01*
X166500051Y-81637816D01*
X166596557Y-81448412D01*
X166662246Y-81246243D01*
X166695500Y-81036287D01*
X166695500Y-80823713D01*
X166662246Y-80613757D01*
X166596557Y-80411588D01*
X166500051Y-80222184D01*
X166500049Y-80222181D01*
X166500048Y-80222179D01*
X166375109Y-80050213D01*
X166261569Y-79936673D01*
X166228084Y-79875350D01*
X166233068Y-79805658D01*
X166274940Y-79749725D01*
X166305915Y-79732810D01*
X166437331Y-79683796D01*
X166552546Y-79597546D01*
X166638796Y-79482331D01*
X166689091Y-79347483D01*
X166695500Y-79287873D01*
X166695499Y-77492128D01*
X166689091Y-77432517D01*
X166664657Y-77367007D01*
X166638797Y-77297671D01*
X166638793Y-77297664D01*
X166552547Y-77182455D01*
X166552544Y-77182452D01*
X166437335Y-77096206D01*
X166437328Y-77096202D01*
X166302482Y-77045908D01*
X166302483Y-77045908D01*
X166242883Y-77039501D01*
X166242881Y-77039500D01*
X166242873Y-77039500D01*
X166242864Y-77039500D01*
X164447129Y-77039500D01*
X164447123Y-77039501D01*
X164387516Y-77045908D01*
X164252671Y-77096202D01*
X164252664Y-77096206D01*
X164137455Y-77182452D01*
X164137452Y-77182455D01*
X164051206Y-77297664D01*
X164051202Y-77297671D01*
X164000908Y-77432517D01*
X163994501Y-77492116D01*
X163994501Y-77492123D01*
X163994500Y-77492135D01*
X163994500Y-78698481D01*
X163974815Y-78765520D01*
X163958181Y-78786162D01*
X157550162Y-85194181D01*
X157488839Y-85227666D01*
X157462481Y-85230500D01*
X157211802Y-85230500D01*
X157144763Y-85210815D01*
X157099008Y-85158011D01*
X157089064Y-85088853D01*
X157093871Y-85068182D01*
X157117246Y-84996243D01*
X157150500Y-84786287D01*
X157150500Y-84573713D01*
X157117246Y-84363757D01*
X157051557Y-84161588D01*
X156955051Y-83972184D01*
X156955049Y-83972181D01*
X156955048Y-83972179D01*
X156830109Y-83800213D01*
X156679786Y-83649890D01*
X156507820Y-83524951D01*
X156507115Y-83524591D01*
X156499054Y-83520485D01*
X156448259Y-83472512D01*
X156431463Y-83404692D01*
X156453999Y-83338556D01*
X156499054Y-83299515D01*
X156507816Y-83295051D01*
X156529789Y-83279086D01*
X156679786Y-83170109D01*
X156679788Y-83170106D01*
X156679792Y-83170104D01*
X156830104Y-83019792D01*
X156830106Y-83019788D01*
X156830109Y-83019786D01*
X156955048Y-82847820D01*
X156955047Y-82847820D01*
X156955051Y-82847816D01*
X157051557Y-82658412D01*
X157117246Y-82456243D01*
X157150500Y-82246287D01*
X157150500Y-82033713D01*
X157117246Y-81823757D01*
X157051557Y-81621588D01*
X156955051Y-81432184D01*
X156955049Y-81432181D01*
X156955048Y-81432179D01*
X156830109Y-81260213D01*
X156679786Y-81109890D01*
X156507820Y-80984951D01*
X156507115Y-80984591D01*
X156499054Y-80980485D01*
X156448259Y-80932512D01*
X156431463Y-80864692D01*
X156453999Y-80798556D01*
X156499054Y-80759515D01*
X156507816Y-80755051D01*
X156564680Y-80713737D01*
X156679786Y-80630109D01*
X156679788Y-80630106D01*
X156679792Y-80630104D01*
X156830104Y-80479792D01*
X156830106Y-80479788D01*
X156830109Y-80479786D01*
X156955048Y-80307820D01*
X156955047Y-80307820D01*
X156955051Y-80307816D01*
X157051557Y-80118412D01*
X157117246Y-79916243D01*
X157150500Y-79706287D01*
X157150500Y-79493713D01*
X157117246Y-79283757D01*
X157051557Y-79081588D01*
X156955051Y-78892184D01*
X156955049Y-78892181D01*
X156955048Y-78892179D01*
X156830109Y-78720213D01*
X156716181Y-78606285D01*
X156682696Y-78544962D01*
X156687680Y-78475270D01*
X156729552Y-78419337D01*
X156760529Y-78402422D01*
X156892086Y-78353354D01*
X156892093Y-78353350D01*
X157007187Y-78267190D01*
X157007190Y-78267187D01*
X157093350Y-78152093D01*
X157093354Y-78152086D01*
X157143596Y-78017379D01*
X157143598Y-78017372D01*
X157149999Y-77957844D01*
X157150000Y-77957827D01*
X157150000Y-77310000D01*
X156233012Y-77310000D01*
X156265925Y-77252993D01*
X156300000Y-77125826D01*
X156300000Y-76994174D01*
X156265925Y-76867007D01*
X156233012Y-76810000D01*
X157150000Y-76810000D01*
X157150000Y-76162172D01*
X157149999Y-76162155D01*
X157143598Y-76102627D01*
X157143596Y-76102620D01*
X157093354Y-75967913D01*
X157093350Y-75967906D01*
X157007190Y-75852812D01*
X157007187Y-75852809D01*
X156892093Y-75766649D01*
X156892086Y-75766645D01*
X156822475Y-75740682D01*
X156766541Y-75698811D01*
X156742124Y-75633346D01*
X156756976Y-75565073D01*
X156806381Y-75515668D01*
X156865808Y-75500500D01*
X168375500Y-75500500D01*
X168442539Y-75520185D01*
X168488294Y-75572989D01*
X168499500Y-75624500D01*
X168499500Y-133375500D01*
X168479815Y-133442539D01*
X168427011Y-133488294D01*
X168375500Y-133499500D01*
X104624500Y-133499500D01*
X104557461Y-133479815D01*
X104511706Y-133427011D01*
X104500500Y-133375500D01*
X104500500Y-123285803D01*
X107092500Y-123285803D01*
X107092500Y-123850000D01*
X107909488Y-123850000D01*
X107876575Y-123907007D01*
X107842500Y-124034174D01*
X107842500Y-124165826D01*
X107876575Y-124292993D01*
X107909488Y-124350000D01*
X107092501Y-124350000D01*
X107092501Y-124914197D01*
X107102900Y-125046332D01*
X107157877Y-125264519D01*
X107250928Y-125469374D01*
X107250931Y-125469380D01*
X107379059Y-125654323D01*
X107379069Y-125654335D01*
X107538164Y-125813430D01*
X107538176Y-125813440D01*
X107723119Y-125941568D01*
X107723125Y-125941571D01*
X107927980Y-126034622D01*
X108146167Y-126089599D01*
X108278310Y-126099999D01*
X109092499Y-126099999D01*
X109092500Y-126099998D01*
X109092500Y-124600000D01*
X109592500Y-124600000D01*
X109592500Y-126099999D01*
X110406682Y-126099999D01*
X110406697Y-126099998D01*
X110538832Y-126089599D01*
X110757019Y-126034622D01*
X110961874Y-125941571D01*
X110961880Y-125941568D01*
X111146823Y-125813440D01*
X111146835Y-125813430D01*
X111305930Y-125654335D01*
X111305940Y-125654323D01*
X111434068Y-125469380D01*
X111434071Y-125469374D01*
X111527122Y-125264519D01*
X111582099Y-125046332D01*
X111592499Y-124914196D01*
X111592500Y-124914184D01*
X111592500Y-124350000D01*
X110775512Y-124350000D01*
X110808425Y-124292993D01*
X110842500Y-124165826D01*
X110842500Y-124034174D01*
X110808425Y-123907007D01*
X110775512Y-123850000D01*
X111592499Y-123850000D01*
X111592499Y-123285817D01*
X111592498Y-123285802D01*
X111582099Y-123153667D01*
X111527122Y-122935480D01*
X111434071Y-122730625D01*
X111434068Y-122730619D01*
X111305940Y-122545676D01*
X111305930Y-122545664D01*
X111146835Y-122386569D01*
X111146823Y-122386559D01*
X110961880Y-122258431D01*
X110961874Y-122258428D01*
X110757019Y-122165377D01*
X110538832Y-122110400D01*
X110406696Y-122100000D01*
X109592500Y-122100000D01*
X109592500Y-123600000D01*
X109092500Y-123600000D01*
X109092500Y-122100000D01*
X108278317Y-122100000D01*
X108278302Y-122100001D01*
X108146167Y-122110400D01*
X107927980Y-122165377D01*
X107723125Y-122258428D01*
X107723119Y-122258431D01*
X107538176Y-122386559D01*
X107538164Y-122386569D01*
X107379069Y-122545664D01*
X107379059Y-122545676D01*
X107250931Y-122730619D01*
X107250928Y-122730625D01*
X107157877Y-122935480D01*
X107102900Y-123153667D01*
X107092500Y-123285803D01*
X104500500Y-123285803D01*
X104500500Y-116302135D01*
X107092000Y-116302135D01*
X107092000Y-119897870D01*
X107092001Y-119897876D01*
X107098408Y-119957483D01*
X107148702Y-120092328D01*
X107148706Y-120092335D01*
X107234952Y-120207544D01*
X107234955Y-120207547D01*
X107350164Y-120293793D01*
X107350171Y-120293797D01*
X107485017Y-120344091D01*
X107485016Y-120344091D01*
X107491944Y-120344835D01*
X107544627Y-120350500D01*
X111140372Y-120350499D01*
X111199983Y-120344091D01*
X111334831Y-120293796D01*
X111450046Y-120207546D01*
X111536296Y-120092331D01*
X111553926Y-120045060D01*
X111595796Y-119989128D01*
X111661259Y-119964710D01*
X111729533Y-119979561D01*
X111778939Y-120028965D01*
X111793933Y-120094971D01*
X111792001Y-120131342D01*
X111792000Y-120131386D01*
X111792000Y-122068613D01*
X111792001Y-122068652D01*
X111794795Y-122121243D01*
X111794795Y-122121244D01*
X111821938Y-122261588D01*
X111839255Y-122351126D01*
X111878813Y-122455948D01*
X111921925Y-122570189D01*
X112040429Y-122772131D01*
X112040434Y-122772138D01*
X112191356Y-122951141D01*
X112191358Y-122951143D01*
X112370361Y-123102065D01*
X112370368Y-123102070D01*
X112572310Y-123220574D01*
X112791374Y-123303245D01*
X113021259Y-123347705D01*
X113073878Y-123350500D01*
X113073886Y-123350500D01*
X115011114Y-123350500D01*
X115011122Y-123350500D01*
X115063741Y-123347705D01*
X115293626Y-123303245D01*
X115512690Y-123220574D01*
X115714632Y-123102070D01*
X115893642Y-122951142D01*
X115936943Y-122899785D01*
X116044565Y-122772138D01*
X116044565Y-122772137D01*
X116044570Y-122772132D01*
X116163074Y-122570190D01*
X116245745Y-122351126D01*
X116290205Y-122121241D01*
X116293000Y-122068622D01*
X116293000Y-120131378D01*
X116290205Y-120078759D01*
X116245745Y-119848874D01*
X116163074Y-119629810D01*
X116044570Y-119427868D01*
X116044565Y-119427861D01*
X115893643Y-119248858D01*
X115893641Y-119248856D01*
X115714638Y-119097934D01*
X115714631Y-119097929D01*
X115512689Y-118979425D01*
X115404391Y-118938556D01*
X115293626Y-118896755D01*
X115293621Y-118896754D01*
X115063743Y-118852295D01*
X115011152Y-118849501D01*
X115011129Y-118849500D01*
X115011122Y-118849500D01*
X113073878Y-118849500D01*
X113073870Y-118849500D01*
X113073847Y-118849501D01*
X113021256Y-118852295D01*
X113021255Y-118852295D01*
X112791378Y-118896754D01*
X112791376Y-118896754D01*
X112791374Y-118896755D01*
X112717433Y-118924659D01*
X112572310Y-118979425D01*
X112370368Y-119097929D01*
X112370361Y-119097934D01*
X112191358Y-119248856D01*
X112191356Y-119248858D01*
X112040434Y-119427861D01*
X112040429Y-119427868D01*
X111921925Y-119629810D01*
X111839253Y-119848880D01*
X111838740Y-119851532D01*
X111838212Y-119852552D01*
X111837817Y-119853950D01*
X111837532Y-119853869D01*
X111806675Y-119913609D01*
X111746139Y-119948497D01*
X111676351Y-119945117D01*
X111619468Y-119904544D01*
X111593551Y-119839659D01*
X111592999Y-119827989D01*
X111592999Y-116302128D01*
X111586591Y-116242517D01*
X111581961Y-116230104D01*
X111536297Y-116107671D01*
X111536293Y-116107664D01*
X111450047Y-115992455D01*
X111450044Y-115992452D01*
X111334835Y-115906206D01*
X111334828Y-115906202D01*
X111199982Y-115855908D01*
X111199983Y-115855908D01*
X111140383Y-115849501D01*
X111140381Y-115849500D01*
X111140373Y-115849500D01*
X111140364Y-115849500D01*
X107544629Y-115849500D01*
X107544623Y-115849501D01*
X107485016Y-115855908D01*
X107350171Y-115906202D01*
X107350164Y-115906206D01*
X107234955Y-115992452D01*
X107234952Y-115992455D01*
X107148706Y-116107664D01*
X107148702Y-116107671D01*
X107098408Y-116242517D01*
X107092001Y-116302116D01*
X107092001Y-116302123D01*
X107092000Y-116302135D01*
X104500500Y-116302135D01*
X104500500Y-99972135D01*
X110002000Y-99972135D01*
X110002000Y-102367870D01*
X110002001Y-102367876D01*
X110008408Y-102427483D01*
X110058702Y-102562328D01*
X110058706Y-102562335D01*
X110144952Y-102677544D01*
X110144955Y-102677547D01*
X110260164Y-102763793D01*
X110260171Y-102763797D01*
X110395017Y-102814091D01*
X110395016Y-102814091D01*
X110401944Y-102814835D01*
X110454627Y-102820500D01*
X112050372Y-102820499D01*
X112109983Y-102814091D01*
X112244831Y-102763796D01*
X112360046Y-102677546D01*
X112446296Y-102562331D01*
X112496591Y-102427483D01*
X112503000Y-102367873D01*
X112502999Y-102303413D01*
X112522683Y-102236377D01*
X112575486Y-102190621D01*
X112644644Y-102180677D01*
X112708200Y-102209701D01*
X112727317Y-102230529D01*
X112839055Y-102384321D01*
X112978178Y-102523444D01*
X113137356Y-102639095D01*
X113312662Y-102728418D01*
X113499783Y-102789218D01*
X113542500Y-102795984D01*
X113542500Y-101603012D01*
X113599507Y-101635925D01*
X113726674Y-101670000D01*
X113858326Y-101670000D01*
X113985493Y-101635925D01*
X114042500Y-101603012D01*
X114042500Y-102795983D01*
X114085216Y-102789218D01*
X114272337Y-102728418D01*
X114447643Y-102639095D01*
X114606821Y-102523444D01*
X114745944Y-102384321D01*
X114861597Y-102225141D01*
X114951734Y-102048236D01*
X114999708Y-101997439D01*
X115067529Y-101980644D01*
X115133664Y-102003181D01*
X115172704Y-102048235D01*
X115173615Y-102050024D01*
X115173616Y-102050025D01*
X115262976Y-102225405D01*
X115378672Y-102384646D01*
X115517854Y-102523828D01*
X115677095Y-102639524D01*
X115751714Y-102677544D01*
X115852470Y-102728882D01*
X115852472Y-102728882D01*
X115852475Y-102728884D01*
X115952817Y-102761487D01*
X116039673Y-102789709D01*
X116234078Y-102820500D01*
X116234083Y-102820500D01*
X116430922Y-102820500D01*
X116625326Y-102789709D01*
X116626837Y-102789218D01*
X116812525Y-102728884D01*
X116987905Y-102639524D01*
X117147146Y-102523828D01*
X117286328Y-102384646D01*
X117402024Y-102225405D01*
X117491384Y-102050025D01*
X117552209Y-101862826D01*
X117560672Y-101809394D01*
X117583000Y-101668422D01*
X117583000Y-100671577D01*
X117552209Y-100477173D01*
X117523987Y-100390317D01*
X117491384Y-100289975D01*
X117491382Y-100289972D01*
X117491382Y-100289970D01*
X117438227Y-100185647D01*
X117402024Y-100114595D01*
X117286328Y-99955354D01*
X117147146Y-99816172D01*
X116987905Y-99700476D01*
X116941024Y-99676589D01*
X116812529Y-99611117D01*
X116625326Y-99550290D01*
X116430922Y-99519500D01*
X116430917Y-99519500D01*
X116234083Y-99519500D01*
X116234078Y-99519500D01*
X116039673Y-99550290D01*
X115852470Y-99611117D01*
X115677094Y-99700476D01*
X115586241Y-99766485D01*
X115517854Y-99816172D01*
X115517852Y-99816174D01*
X115517851Y-99816174D01*
X115378674Y-99955351D01*
X115378674Y-99955352D01*
X115378672Y-99955354D01*
X115366480Y-99972135D01*
X115262976Y-100114594D01*
X115172704Y-100291764D01*
X115124729Y-100342560D01*
X115056908Y-100359355D01*
X114990774Y-100336818D01*
X114951734Y-100291764D01*
X114861595Y-100114856D01*
X114745944Y-99955678D01*
X114606821Y-99816555D01*
X114447643Y-99700904D01*
X114272335Y-99611581D01*
X114085205Y-99550778D01*
X114042500Y-99544014D01*
X114042500Y-100736988D01*
X113985493Y-100704075D01*
X113858326Y-100670000D01*
X113726674Y-100670000D01*
X113599507Y-100704075D01*
X113542500Y-100736988D01*
X113542500Y-99544014D01*
X113542499Y-99544014D01*
X113499794Y-99550778D01*
X113312664Y-99611581D01*
X113137356Y-99700904D01*
X112978178Y-99816555D01*
X112839055Y-99955678D01*
X112727317Y-100109471D01*
X112671986Y-100152137D01*
X112602373Y-100158115D01*
X112540578Y-100125509D01*
X112506221Y-100064670D01*
X112502999Y-100036585D01*
X112502999Y-99972129D01*
X112502998Y-99972123D01*
X112502997Y-99972116D01*
X112496591Y-99912517D01*
X112473203Y-99849811D01*
X112446297Y-99777671D01*
X112446293Y-99777664D01*
X112360047Y-99662455D01*
X112360044Y-99662452D01*
X112244835Y-99576206D01*
X112244828Y-99576202D01*
X112109982Y-99525908D01*
X112109983Y-99525908D01*
X112050383Y-99519501D01*
X112050381Y-99519500D01*
X112050373Y-99519500D01*
X112050364Y-99519500D01*
X110454629Y-99519500D01*
X110454623Y-99519501D01*
X110395016Y-99525908D01*
X110260171Y-99576202D01*
X110260164Y-99576206D01*
X110144955Y-99662452D01*
X110144952Y-99662455D01*
X110058706Y-99777664D01*
X110058702Y-99777671D01*
X110008408Y-99912517D01*
X110002001Y-99972116D01*
X110002001Y-99972123D01*
X110002000Y-99972135D01*
X104500500Y-99972135D01*
X104500500Y-76202135D01*
X122449500Y-76202135D01*
X122449500Y-77997870D01*
X122449501Y-77997876D01*
X122455908Y-78057483D01*
X122506202Y-78192328D01*
X122506206Y-78192335D01*
X122592452Y-78307544D01*
X122592455Y-78307547D01*
X122707664Y-78393793D01*
X122707671Y-78393797D01*
X122839082Y-78442810D01*
X122895016Y-78484681D01*
X122919433Y-78550145D01*
X122904582Y-78618418D01*
X122883431Y-78646673D01*
X122769889Y-78760215D01*
X122644951Y-78932179D01*
X122548444Y-79121585D01*
X122482753Y-79323760D01*
X122449500Y-79533713D01*
X122449500Y-79746286D01*
X122476418Y-79916243D01*
X122482754Y-79956243D01*
X122513285Y-80050208D01*
X122548444Y-80158414D01*
X122644951Y-80347820D01*
X122769890Y-80519786D01*
X122920213Y-80670109D01*
X123092182Y-80795050D01*
X123100946Y-80799516D01*
X123151742Y-80847491D01*
X123168536Y-80915312D01*
X123145998Y-80981447D01*
X123100946Y-81020484D01*
X123092182Y-81024949D01*
X122920213Y-81149890D01*
X122769890Y-81300213D01*
X122644951Y-81472179D01*
X122548444Y-81661585D01*
X122482753Y-81863760D01*
X122475253Y-81911115D01*
X122449500Y-82073713D01*
X122449500Y-82286287D01*
X122453333Y-82310486D01*
X122476418Y-82456243D01*
X122482754Y-82496243D01*
X122513285Y-82590208D01*
X122548444Y-82698414D01*
X122644951Y-82887820D01*
X122769890Y-83059786D01*
X122920213Y-83210109D01*
X123092182Y-83335050D01*
X123100946Y-83339516D01*
X123151742Y-83387491D01*
X123168536Y-83455312D01*
X123145998Y-83521447D01*
X123100946Y-83560484D01*
X123092182Y-83564949D01*
X122920213Y-83689890D01*
X122769890Y-83840213D01*
X122644951Y-84012179D01*
X122548444Y-84201585D01*
X122482753Y-84403760D01*
X122475253Y-84451115D01*
X122449500Y-84613713D01*
X122449500Y-84826287D01*
X122453333Y-84850486D01*
X122476418Y-84996243D01*
X122482754Y-85036243D01*
X122545872Y-85230500D01*
X122548444Y-85238414D01*
X122644951Y-85427820D01*
X122769890Y-85599786D01*
X122920213Y-85750109D01*
X123092182Y-85875050D01*
X123100946Y-85879516D01*
X123151742Y-85927491D01*
X123168536Y-85995312D01*
X123145998Y-86061447D01*
X123100946Y-86100484D01*
X123092182Y-86104949D01*
X122920213Y-86229890D01*
X122769890Y-86380213D01*
X122644951Y-86552179D01*
X122548444Y-86741585D01*
X122482753Y-86943760D01*
X122475253Y-86991115D01*
X122449500Y-87153713D01*
X122449500Y-87366287D01*
X122454040Y-87394949D01*
X122476418Y-87536243D01*
X122482754Y-87576243D01*
X122513285Y-87670208D01*
X122548444Y-87778414D01*
X122644951Y-87967820D01*
X122769890Y-88139786D01*
X122920213Y-88290109D01*
X123092182Y-88415050D01*
X123100946Y-88419516D01*
X123151742Y-88467491D01*
X123168536Y-88535312D01*
X123145998Y-88601447D01*
X123100946Y-88640484D01*
X123092182Y-88644949D01*
X122920213Y-88769890D01*
X122769890Y-88920213D01*
X122644951Y-89092179D01*
X122548444Y-89281585D01*
X122482753Y-89483760D01*
X122449500Y-89693713D01*
X122449500Y-89906286D01*
X122476418Y-90076243D01*
X122482754Y-90116243D01*
X122545872Y-90310500D01*
X122548444Y-90318414D01*
X122644951Y-90507820D01*
X122769890Y-90679786D01*
X122920213Y-90830109D01*
X123092182Y-90955050D01*
X123100946Y-90959516D01*
X123151742Y-91007491D01*
X123168536Y-91075312D01*
X123145998Y-91141447D01*
X123100946Y-91180484D01*
X123092182Y-91184949D01*
X122920213Y-91309890D01*
X122769890Y-91460213D01*
X122644951Y-91632179D01*
X122548444Y-91821585D01*
X122482753Y-92023760D01*
X122449500Y-92233713D01*
X122449500Y-92446286D01*
X122482753Y-92656239D01*
X122548444Y-92858414D01*
X122644951Y-93047820D01*
X122769890Y-93219786D01*
X122920213Y-93370109D01*
X123092182Y-93495050D01*
X123100946Y-93499516D01*
X123151742Y-93547491D01*
X123168536Y-93615312D01*
X123145998Y-93681447D01*
X123100946Y-93720484D01*
X123092182Y-93724949D01*
X122920213Y-93849890D01*
X122769890Y-94000213D01*
X122644951Y-94172179D01*
X122548444Y-94361585D01*
X122482753Y-94563760D01*
X122449500Y-94773713D01*
X122449500Y-94986286D01*
X122482753Y-95196239D01*
X122548444Y-95398414D01*
X122644951Y-95587820D01*
X122769890Y-95759786D01*
X122920213Y-95910109D01*
X123092182Y-96035050D01*
X123100946Y-96039516D01*
X123151742Y-96087491D01*
X123168536Y-96155312D01*
X123145998Y-96221447D01*
X123100946Y-96260484D01*
X123092182Y-96264949D01*
X122920213Y-96389890D01*
X122769890Y-96540213D01*
X122644951Y-96712179D01*
X122548444Y-96901585D01*
X122482753Y-97103760D01*
X122449500Y-97313713D01*
X122449500Y-97526286D01*
X122476418Y-97696243D01*
X122482754Y-97736243D01*
X122545795Y-97930263D01*
X122548444Y-97938414D01*
X122644951Y-98127820D01*
X122769890Y-98299786D01*
X122920213Y-98450109D01*
X123092182Y-98575050D01*
X123100946Y-98579516D01*
X123151742Y-98627491D01*
X123168536Y-98695312D01*
X123145998Y-98761447D01*
X123100946Y-98800484D01*
X123092182Y-98804949D01*
X122920213Y-98929890D01*
X122769890Y-99080213D01*
X122644951Y-99252179D01*
X122548444Y-99441585D01*
X122482753Y-99643760D01*
X122449500Y-99853713D01*
X122449500Y-100066286D01*
X122480630Y-100262837D01*
X122482754Y-100276243D01*
X122548378Y-100478213D01*
X122548444Y-100478414D01*
X122644951Y-100667820D01*
X122769890Y-100839786D01*
X122920213Y-100990109D01*
X123092182Y-101115050D01*
X123100946Y-101119516D01*
X123151742Y-101167491D01*
X123168536Y-101235312D01*
X123145998Y-101301447D01*
X123100946Y-101340484D01*
X123092182Y-101344949D01*
X122920213Y-101469890D01*
X122769890Y-101620213D01*
X122644951Y-101792179D01*
X122548444Y-101981585D01*
X122482753Y-102183760D01*
X122449500Y-102393713D01*
X122449500Y-102606286D01*
X122482753Y-102816239D01*
X122548444Y-103018414D01*
X122644951Y-103207820D01*
X122769890Y-103379786D01*
X122920213Y-103530109D01*
X123092182Y-103655050D01*
X123100946Y-103659516D01*
X123151742Y-103707491D01*
X123168536Y-103775312D01*
X123145998Y-103841447D01*
X123100946Y-103880484D01*
X123092182Y-103884949D01*
X122920213Y-104009890D01*
X122769890Y-104160213D01*
X122644951Y-104332179D01*
X122548444Y-104521585D01*
X122482753Y-104723760D01*
X122449500Y-104933713D01*
X122449500Y-105146286D01*
X122482005Y-105351518D01*
X122482754Y-105356243D01*
X122521078Y-105474193D01*
X122548444Y-105558414D01*
X122644951Y-105747820D01*
X122769890Y-105919786D01*
X122920213Y-106070109D01*
X123092182Y-106195050D01*
X123100946Y-106199516D01*
X123151742Y-106247491D01*
X123168536Y-106315312D01*
X123145998Y-106381447D01*
X123100946Y-106420484D01*
X123092182Y-106424949D01*
X122920213Y-106549890D01*
X122769890Y-106700213D01*
X122644951Y-106872179D01*
X122548444Y-107061585D01*
X122482753Y-107263760D01*
X122449500Y-107473713D01*
X122449500Y-107686286D01*
X122476418Y-107856243D01*
X122482754Y-107896243D01*
X122521078Y-108014193D01*
X122548444Y-108098414D01*
X122644951Y-108287820D01*
X122769890Y-108459786D01*
X122920213Y-108610109D01*
X123092182Y-108735050D01*
X123100946Y-108739516D01*
X123151742Y-108787491D01*
X123168536Y-108855312D01*
X123145998Y-108921447D01*
X123100946Y-108960484D01*
X123092182Y-108964949D01*
X122920213Y-109089890D01*
X122769890Y-109240213D01*
X122644951Y-109412179D01*
X122548444Y-109601585D01*
X122482753Y-109803760D01*
X122449500Y-110013713D01*
X122449500Y-110226286D01*
X122476418Y-110396243D01*
X122482754Y-110436243D01*
X122521078Y-110554193D01*
X122548444Y-110638414D01*
X122644951Y-110827820D01*
X122769890Y-110999786D01*
X122920213Y-111150109D01*
X123092182Y-111275050D01*
X123100946Y-111279516D01*
X123151742Y-111327491D01*
X123168536Y-111395312D01*
X123145998Y-111461447D01*
X123100946Y-111500484D01*
X123092182Y-111504949D01*
X122920213Y-111629890D01*
X122769890Y-111780213D01*
X122644951Y-111952179D01*
X122548444Y-112141585D01*
X122482753Y-112343760D01*
X122449500Y-112553713D01*
X122449500Y-112766286D01*
X122476418Y-112936243D01*
X122482754Y-112976243D01*
X122521078Y-113094193D01*
X122548444Y-113178414D01*
X122644951Y-113367820D01*
X122769890Y-113539786D01*
X122920213Y-113690109D01*
X123092182Y-113815050D01*
X123100946Y-113819516D01*
X123151742Y-113867491D01*
X123168536Y-113935312D01*
X123145998Y-114001447D01*
X123100946Y-114040484D01*
X123092182Y-114044949D01*
X122920213Y-114169890D01*
X122769890Y-114320213D01*
X122644951Y-114492179D01*
X122548444Y-114681585D01*
X122482753Y-114883760D01*
X122449500Y-115093713D01*
X122449500Y-115306286D01*
X122478991Y-115492489D01*
X122482754Y-115516243D01*
X122537368Y-115684328D01*
X122548444Y-115718414D01*
X122644951Y-115907820D01*
X122769890Y-116079786D01*
X122920213Y-116230109D01*
X123092182Y-116355050D01*
X123100946Y-116359516D01*
X123151742Y-116407491D01*
X123168536Y-116475312D01*
X123145998Y-116541447D01*
X123100946Y-116580484D01*
X123092182Y-116584949D01*
X122920213Y-116709890D01*
X122769890Y-116860213D01*
X122644951Y-117032179D01*
X122548444Y-117221585D01*
X122482753Y-117423760D01*
X122449500Y-117633713D01*
X122449500Y-117846286D01*
X122476418Y-118016243D01*
X122482754Y-118056243D01*
X122521078Y-118174193D01*
X122548444Y-118258414D01*
X122644951Y-118447820D01*
X122769890Y-118619786D01*
X122920213Y-118770109D01*
X123092182Y-118895050D01*
X123100946Y-118899516D01*
X123151742Y-118947491D01*
X123168536Y-119015312D01*
X123145998Y-119081447D01*
X123100946Y-119120484D01*
X123092182Y-119124949D01*
X122920213Y-119249890D01*
X122769890Y-119400213D01*
X122644951Y-119572179D01*
X122548444Y-119761585D01*
X122482753Y-119963760D01*
X122449500Y-120173713D01*
X122449500Y-120386286D01*
X122476418Y-120556243D01*
X122482754Y-120596243D01*
X122538705Y-120768443D01*
X122548444Y-120798414D01*
X122644951Y-120987820D01*
X122769890Y-121159786D01*
X122920213Y-121310109D01*
X123092182Y-121435050D01*
X123100946Y-121439516D01*
X123151742Y-121487491D01*
X123168536Y-121555312D01*
X123145998Y-121621447D01*
X123100946Y-121660484D01*
X123092182Y-121664949D01*
X122920213Y-121789890D01*
X122769890Y-121940213D01*
X122644951Y-122112179D01*
X122548444Y-122301585D01*
X122482753Y-122503760D01*
X122449500Y-122713713D01*
X122449500Y-122926286D01*
X122477340Y-123102065D01*
X122482754Y-123136243D01*
X122538705Y-123308443D01*
X122548444Y-123338414D01*
X122644951Y-123527820D01*
X122769890Y-123699786D01*
X122920213Y-123850109D01*
X123092182Y-123975050D01*
X123100946Y-123979516D01*
X123151742Y-124027491D01*
X123168536Y-124095312D01*
X123145998Y-124161447D01*
X123100946Y-124200484D01*
X123092182Y-124204949D01*
X122920213Y-124329890D01*
X122769890Y-124480213D01*
X122644951Y-124652179D01*
X122548444Y-124841585D01*
X122482753Y-125043760D01*
X122449500Y-125253713D01*
X122449500Y-125466286D01*
X122476418Y-125636243D01*
X122482754Y-125676243D01*
X122538705Y-125848443D01*
X122548444Y-125878414D01*
X122644951Y-126067820D01*
X122769890Y-126239786D01*
X122920213Y-126390109D01*
X123092182Y-126515050D01*
X123100946Y-126519516D01*
X123151742Y-126567491D01*
X123168536Y-126635312D01*
X123145998Y-126701447D01*
X123100946Y-126740484D01*
X123092182Y-126744949D01*
X122920213Y-126869890D01*
X122769890Y-127020213D01*
X122644951Y-127192179D01*
X122548444Y-127381585D01*
X122482753Y-127583760D01*
X122469568Y-127667007D01*
X122449500Y-127793713D01*
X122449500Y-128006287D01*
X122456898Y-128052993D01*
X122476400Y-128176130D01*
X122482754Y-128216243D01*
X122534528Y-128375587D01*
X122548444Y-128418414D01*
X122644951Y-128607820D01*
X122769890Y-128779786D01*
X122920213Y-128930109D01*
X123092179Y-129055048D01*
X123092181Y-129055049D01*
X123092184Y-129055051D01*
X123101493Y-129059794D01*
X123152290Y-129107766D01*
X123169087Y-129175587D01*
X123146552Y-129241722D01*
X123101505Y-129280760D01*
X123092446Y-129285376D01*
X123092440Y-129285380D01*
X123038282Y-129324727D01*
X123038282Y-129324728D01*
X123670591Y-129957037D01*
X123607007Y-129974075D01*
X123492993Y-130039901D01*
X123399901Y-130132993D01*
X123334075Y-130247007D01*
X123317037Y-130310591D01*
X122684728Y-129678282D01*
X122684727Y-129678282D01*
X122645380Y-129732439D01*
X122548904Y-129921782D01*
X122483242Y-130123869D01*
X122483242Y-130123872D01*
X122450000Y-130333753D01*
X122450000Y-130546246D01*
X122483242Y-130756127D01*
X122483242Y-130756130D01*
X122548904Y-130958217D01*
X122645375Y-131147550D01*
X122684728Y-131201716D01*
X123317037Y-130569408D01*
X123334075Y-130632993D01*
X123399901Y-130747007D01*
X123492993Y-130840099D01*
X123607007Y-130905925D01*
X123670590Y-130922962D01*
X123038282Y-131555269D01*
X123038282Y-131555270D01*
X123092449Y-131594624D01*
X123281782Y-131691095D01*
X123483870Y-131756757D01*
X123693754Y-131790000D01*
X123906246Y-131790000D01*
X124116127Y-131756757D01*
X124116130Y-131756757D01*
X124318217Y-131691095D01*
X124507554Y-131594622D01*
X124561716Y-131555270D01*
X124561717Y-131555270D01*
X123929408Y-130922962D01*
X123992993Y-130905925D01*
X124107007Y-130840099D01*
X124200099Y-130747007D01*
X124265925Y-130632993D01*
X124282962Y-130569408D01*
X124915270Y-131201717D01*
X124915270Y-131201716D01*
X124954622Y-131147554D01*
X125051095Y-130958217D01*
X125116757Y-130756130D01*
X125116757Y-130756127D01*
X125150000Y-130546246D01*
X125150000Y-130333753D01*
X125116757Y-130123872D01*
X125116757Y-130123869D01*
X125051095Y-129921782D01*
X124954624Y-129732449D01*
X124915270Y-129678282D01*
X124915269Y-129678282D01*
X124282962Y-130310590D01*
X124265925Y-130247007D01*
X124200099Y-130132993D01*
X124107007Y-130039901D01*
X123992993Y-129974075D01*
X123929409Y-129957037D01*
X124561716Y-129324728D01*
X124507547Y-129285373D01*
X124507547Y-129285372D01*
X124498500Y-129280763D01*
X124447706Y-129232788D01*
X124430912Y-129164966D01*
X124453451Y-129098832D01*
X124498508Y-129059793D01*
X124507816Y-129055051D01*
X124617626Y-128975270D01*
X124679786Y-128930109D01*
X124679788Y-128930106D01*
X124679792Y-128930104D01*
X124830104Y-128779792D01*
X124830106Y-128779788D01*
X124830109Y-128779786D01*
X124955048Y-128607820D01*
X124955047Y-128607820D01*
X124955051Y-128607816D01*
X125051557Y-128418412D01*
X125117246Y-128216243D01*
X125150500Y-128006287D01*
X125150500Y-127793713D01*
X125117246Y-127583757D01*
X125051557Y-127381588D01*
X124955051Y-127192184D01*
X124955049Y-127192181D01*
X124955048Y-127192179D01*
X124830109Y-127020213D01*
X124679786Y-126869890D01*
X124507820Y-126744951D01*
X124507115Y-126744591D01*
X124499054Y-126740485D01*
X124448259Y-126692512D01*
X124431463Y-126624692D01*
X124453999Y-126558556D01*
X124499054Y-126519515D01*
X124507816Y-126515051D01*
X124562872Y-126475051D01*
X124679786Y-126390109D01*
X124679788Y-126390106D01*
X124679792Y-126390104D01*
X124830104Y-126239792D01*
X124830106Y-126239788D01*
X124830109Y-126239786D01*
X124955048Y-126067820D01*
X124955047Y-126067820D01*
X124955051Y-126067816D01*
X125051557Y-125878412D01*
X125117246Y-125676243D01*
X125150500Y-125466287D01*
X125150500Y-125253713D01*
X125122446Y-125076589D01*
X125694500Y-125076589D01*
X125694500Y-125249810D01*
X125721597Y-125420897D01*
X125775128Y-125585647D01*
X125800906Y-125636239D01*
X125853768Y-125739988D01*
X125955586Y-125880128D01*
X126078072Y-126002614D01*
X126218212Y-126104432D01*
X126372555Y-126183073D01*
X126537299Y-126236602D01*
X126708389Y-126263700D01*
X126708390Y-126263700D01*
X127681610Y-126263700D01*
X127681611Y-126263700D01*
X127852701Y-126236602D01*
X128017445Y-126183073D01*
X128171788Y-126104432D01*
X128311928Y-126002614D01*
X128434414Y-125880128D01*
X128536232Y-125739988D01*
X128614873Y-125585645D01*
X128668402Y-125420901D01*
X128695500Y-125249811D01*
X128695500Y-125076589D01*
X151094500Y-125076589D01*
X151094500Y-125249810D01*
X151121597Y-125420897D01*
X151175128Y-125585647D01*
X151200906Y-125636239D01*
X151253768Y-125739988D01*
X151355586Y-125880128D01*
X151478072Y-126002614D01*
X151618212Y-126104432D01*
X151772555Y-126183073D01*
X151937299Y-126236602D01*
X152108389Y-126263700D01*
X152108390Y-126263700D01*
X153081610Y-126263700D01*
X153081611Y-126263700D01*
X153252701Y-126236602D01*
X153417445Y-126183073D01*
X153571788Y-126104432D01*
X153711928Y-126002614D01*
X153834414Y-125880128D01*
X153936232Y-125739988D01*
X154014873Y-125585645D01*
X154068402Y-125420901D01*
X154095500Y-125249811D01*
X154095500Y-125076589D01*
X154068402Y-124905499D01*
X154014873Y-124740755D01*
X153936232Y-124586412D01*
X153834414Y-124446272D01*
X153711928Y-124323786D01*
X153571788Y-124221968D01*
X153417445Y-124143327D01*
X153252701Y-124089798D01*
X153252699Y-124089797D01*
X153252698Y-124089797D01*
X153117871Y-124068443D01*
X153081611Y-124062700D01*
X152108389Y-124062700D01*
X152072129Y-124068443D01*
X151937302Y-124089797D01*
X151772552Y-124143328D01*
X151618211Y-124221968D01*
X151584931Y-124246148D01*
X151478072Y-124323786D01*
X151478070Y-124323788D01*
X151478069Y-124323788D01*
X151355588Y-124446269D01*
X151355588Y-124446270D01*
X151355586Y-124446272D01*
X151316478Y-124500099D01*
X151253768Y-124586411D01*
X151175128Y-124740752D01*
X151121597Y-124905502D01*
X151094500Y-125076589D01*
X128695500Y-125076589D01*
X128668402Y-124905499D01*
X128614873Y-124740755D01*
X128536232Y-124586412D01*
X128434414Y-124446272D01*
X128311928Y-124323786D01*
X128171788Y-124221968D01*
X128017445Y-124143327D01*
X127852701Y-124089798D01*
X127852699Y-124089797D01*
X127852698Y-124089797D01*
X127717871Y-124068443D01*
X127681611Y-124062700D01*
X126708389Y-124062700D01*
X126672129Y-124068443D01*
X126537302Y-124089797D01*
X126372552Y-124143328D01*
X126218211Y-124221968D01*
X126184931Y-124246148D01*
X126078072Y-124323786D01*
X126078070Y-124323788D01*
X126078069Y-124323788D01*
X125955588Y-124446269D01*
X125955588Y-124446270D01*
X125955586Y-124446272D01*
X125916478Y-124500099D01*
X125853768Y-124586411D01*
X125775128Y-124740752D01*
X125721597Y-124905502D01*
X125694500Y-125076589D01*
X125122446Y-125076589D01*
X125117246Y-125043757D01*
X125051557Y-124841588D01*
X124955051Y-124652184D01*
X124955049Y-124652181D01*
X124955048Y-124652179D01*
X124830109Y-124480213D01*
X124679786Y-124329890D01*
X124507820Y-124204951D01*
X124507115Y-124204591D01*
X124499054Y-124200485D01*
X124448259Y-124152512D01*
X124431463Y-124084692D01*
X124453999Y-124018556D01*
X124499054Y-123979515D01*
X124507816Y-123975051D01*
X124562873Y-123935050D01*
X124679786Y-123850109D01*
X124679788Y-123850106D01*
X124679792Y-123850104D01*
X124830104Y-123699792D01*
X124830106Y-123699788D01*
X124830109Y-123699786D01*
X124955048Y-123527820D01*
X124955047Y-123527820D01*
X124955051Y-123527816D01*
X125051557Y-123338412D01*
X125117246Y-123136243D01*
X125150500Y-122926287D01*
X125150500Y-122713713D01*
X125123883Y-122545664D01*
X125122446Y-122536589D01*
X125694500Y-122536589D01*
X125694500Y-122709810D01*
X125704370Y-122772131D01*
X125721598Y-122880901D01*
X125744421Y-122951143D01*
X125775128Y-123045647D01*
X125800906Y-123096239D01*
X125853768Y-123199988D01*
X125955586Y-123340128D01*
X126078072Y-123462614D01*
X126218212Y-123564432D01*
X126372555Y-123643073D01*
X126537299Y-123696602D01*
X126708389Y-123723700D01*
X126708390Y-123723700D01*
X127681610Y-123723700D01*
X127681611Y-123723700D01*
X127852701Y-123696602D01*
X128017445Y-123643073D01*
X128171788Y-123564432D01*
X128311928Y-123462614D01*
X128434414Y-123340128D01*
X128536232Y-123199988D01*
X128614873Y-123045645D01*
X128668402Y-122880901D01*
X128695500Y-122709811D01*
X128695500Y-122536589D01*
X151094500Y-122536589D01*
X151094500Y-122709810D01*
X151104370Y-122772131D01*
X151121598Y-122880901D01*
X151144421Y-122951143D01*
X151175128Y-123045647D01*
X151200906Y-123096239D01*
X151253768Y-123199988D01*
X151355586Y-123340128D01*
X151478072Y-123462614D01*
X151618212Y-123564432D01*
X151772555Y-123643073D01*
X151937299Y-123696602D01*
X152108389Y-123723700D01*
X152108390Y-123723700D01*
X153081610Y-123723700D01*
X153081611Y-123723700D01*
X153252701Y-123696602D01*
X153417445Y-123643073D01*
X153571788Y-123564432D01*
X153711928Y-123462614D01*
X153834414Y-123340128D01*
X153936232Y-123199988D01*
X154014873Y-123045645D01*
X154068402Y-122880901D01*
X154095500Y-122709811D01*
X154095500Y-122536589D01*
X154068402Y-122365499D01*
X154014873Y-122200755D01*
X153936232Y-122046412D01*
X153834414Y-121906272D01*
X153711928Y-121783786D01*
X153571788Y-121681968D01*
X153417445Y-121603327D01*
X153252701Y-121549798D01*
X153252699Y-121549797D01*
X153252698Y-121549797D01*
X153117871Y-121528443D01*
X153081611Y-121522700D01*
X152108389Y-121522700D01*
X152072129Y-121528443D01*
X151937302Y-121549797D01*
X151772552Y-121603328D01*
X151618211Y-121681968D01*
X151552318Y-121729843D01*
X151478072Y-121783786D01*
X151478070Y-121783788D01*
X151478069Y-121783788D01*
X151355588Y-121906269D01*
X151355588Y-121906270D01*
X151355586Y-121906272D01*
X151323085Y-121951006D01*
X151253768Y-122046411D01*
X151175128Y-122200752D01*
X151121597Y-122365502D01*
X151094500Y-122536589D01*
X128695500Y-122536589D01*
X128668402Y-122365499D01*
X128614873Y-122200755D01*
X128536232Y-122046412D01*
X128434414Y-121906272D01*
X128311928Y-121783786D01*
X128171788Y-121681968D01*
X128017445Y-121603327D01*
X127852701Y-121549798D01*
X127852699Y-121549797D01*
X127852698Y-121549797D01*
X127717871Y-121528443D01*
X127681611Y-121522700D01*
X126708389Y-121522700D01*
X126672129Y-121528443D01*
X126537302Y-121549797D01*
X126372552Y-121603328D01*
X126218211Y-121681968D01*
X126152318Y-121729843D01*
X126078072Y-121783786D01*
X126078070Y-121783788D01*
X126078069Y-121783788D01*
X125955588Y-121906269D01*
X125955588Y-121906270D01*
X125955586Y-121906272D01*
X125923085Y-121951006D01*
X125853768Y-122046411D01*
X125775128Y-122200752D01*
X125721597Y-122365502D01*
X125694500Y-122536589D01*
X125122446Y-122536589D01*
X125117246Y-122503757D01*
X125051557Y-122301588D01*
X124955051Y-122112184D01*
X124955049Y-122112181D01*
X124955048Y-122112179D01*
X124830109Y-121940213D01*
X124679786Y-121789890D01*
X124507820Y-121664951D01*
X124507115Y-121664591D01*
X124499054Y-121660485D01*
X124448259Y-121612512D01*
X124431463Y-121544692D01*
X124453999Y-121478556D01*
X124499054Y-121439515D01*
X124507816Y-121435051D01*
X124579683Y-121382837D01*
X124679786Y-121310109D01*
X124679788Y-121310106D01*
X124679792Y-121310104D01*
X124830104Y-121159792D01*
X124830106Y-121159788D01*
X124830109Y-121159786D01*
X124955048Y-120987820D01*
X124955047Y-120987820D01*
X124955051Y-120987816D01*
X125051557Y-120798412D01*
X125117246Y-120596243D01*
X125150500Y-120386287D01*
X125150500Y-120173713D01*
X125122446Y-119996589D01*
X125694500Y-119996589D01*
X125694500Y-120169811D01*
X125721598Y-120340901D01*
X125724716Y-120350498D01*
X125775128Y-120505647D01*
X125800906Y-120556239D01*
X125853768Y-120659988D01*
X125955586Y-120800128D01*
X126078072Y-120922614D01*
X126218212Y-121024432D01*
X126372555Y-121103073D01*
X126537299Y-121156602D01*
X126708389Y-121183700D01*
X126708390Y-121183700D01*
X127681610Y-121183700D01*
X127681611Y-121183700D01*
X127852701Y-121156602D01*
X128017445Y-121103073D01*
X128171788Y-121024432D01*
X128311928Y-120922614D01*
X128434414Y-120800128D01*
X128536232Y-120659988D01*
X128614873Y-120505645D01*
X128668402Y-120340901D01*
X128695500Y-120169811D01*
X128695500Y-119996589D01*
X151094500Y-119996589D01*
X151094500Y-120169811D01*
X151121598Y-120340901D01*
X151124716Y-120350498D01*
X151175128Y-120505647D01*
X151200906Y-120556239D01*
X151253768Y-120659988D01*
X151355586Y-120800128D01*
X151478072Y-120922614D01*
X151618212Y-121024432D01*
X151772555Y-121103073D01*
X151937299Y-121156602D01*
X152108389Y-121183700D01*
X152108390Y-121183700D01*
X153081610Y-121183700D01*
X153081611Y-121183700D01*
X153252701Y-121156602D01*
X153417445Y-121103073D01*
X153571788Y-121024432D01*
X153711928Y-120922614D01*
X153834414Y-120800128D01*
X153936232Y-120659988D01*
X154014873Y-120505645D01*
X154068402Y-120340901D01*
X154095500Y-120169811D01*
X154095500Y-119996589D01*
X154068402Y-119825499D01*
X154014873Y-119660755D01*
X153936232Y-119506412D01*
X153834414Y-119366272D01*
X153711928Y-119243786D01*
X153571788Y-119141968D01*
X153417445Y-119063327D01*
X153252701Y-119009798D01*
X153252699Y-119009797D01*
X153252698Y-119009797D01*
X153117871Y-118988443D01*
X153081611Y-118982700D01*
X152108389Y-118982700D01*
X152072129Y-118988443D01*
X151937302Y-119009797D01*
X151772552Y-119063328D01*
X151618211Y-119141968D01*
X151577603Y-119171472D01*
X151478072Y-119243786D01*
X151478070Y-119243788D01*
X151478069Y-119243788D01*
X151355588Y-119366269D01*
X151355588Y-119366270D01*
X151355586Y-119366272D01*
X151311859Y-119426456D01*
X151253768Y-119506411D01*
X151175128Y-119660752D01*
X151121597Y-119825502D01*
X151106035Y-119923757D01*
X151094500Y-119996589D01*
X128695500Y-119996589D01*
X128668402Y-119825499D01*
X128614873Y-119660755D01*
X128536232Y-119506412D01*
X128434414Y-119366272D01*
X128311928Y-119243786D01*
X128171788Y-119141968D01*
X128017445Y-119063327D01*
X127852701Y-119009798D01*
X127852699Y-119009797D01*
X127852698Y-119009797D01*
X127717871Y-118988443D01*
X127681611Y-118982700D01*
X126708389Y-118982700D01*
X126672129Y-118988443D01*
X126537302Y-119009797D01*
X126372552Y-119063328D01*
X126218211Y-119141968D01*
X126177603Y-119171472D01*
X126078072Y-119243786D01*
X126078070Y-119243788D01*
X126078069Y-119243788D01*
X125955588Y-119366269D01*
X125955588Y-119366270D01*
X125955586Y-119366272D01*
X125911859Y-119426456D01*
X125853768Y-119506411D01*
X125775128Y-119660752D01*
X125721597Y-119825502D01*
X125706035Y-119923757D01*
X125694500Y-119996589D01*
X125122446Y-119996589D01*
X125117246Y-119963757D01*
X125051557Y-119761588D01*
X124955051Y-119572184D01*
X124955049Y-119572181D01*
X124955048Y-119572179D01*
X124830109Y-119400213D01*
X124679786Y-119249890D01*
X124507820Y-119124951D01*
X124507115Y-119124591D01*
X124499054Y-119120485D01*
X124448259Y-119072512D01*
X124431463Y-119004692D01*
X124453999Y-118938556D01*
X124499054Y-118899515D01*
X124507816Y-118895051D01*
X124570512Y-118849500D01*
X124679786Y-118770109D01*
X124679788Y-118770106D01*
X124679792Y-118770104D01*
X124830104Y-118619792D01*
X124830106Y-118619788D01*
X124830109Y-118619786D01*
X124955048Y-118447820D01*
X124955047Y-118447820D01*
X124955051Y-118447816D01*
X125051557Y-118258412D01*
X125117246Y-118056243D01*
X125150500Y-117846287D01*
X125150500Y-117633713D01*
X125122446Y-117456589D01*
X125694500Y-117456589D01*
X125694500Y-117629811D01*
X125721598Y-117800901D01*
X125775127Y-117965645D01*
X125853768Y-118119988D01*
X125955586Y-118260128D01*
X126078072Y-118382614D01*
X126218212Y-118484432D01*
X126372555Y-118563073D01*
X126537299Y-118616602D01*
X126708389Y-118643700D01*
X126708390Y-118643700D01*
X127681610Y-118643700D01*
X127681611Y-118643700D01*
X127852701Y-118616602D01*
X128017445Y-118563073D01*
X128171788Y-118484432D01*
X128311928Y-118382614D01*
X128434414Y-118260128D01*
X128536232Y-118119988D01*
X128614873Y-117965645D01*
X128668402Y-117800901D01*
X128695500Y-117629811D01*
X128695500Y-117456589D01*
X151094500Y-117456589D01*
X151094500Y-117629811D01*
X151121598Y-117800901D01*
X151175127Y-117965645D01*
X151253768Y-118119988D01*
X151355586Y-118260128D01*
X151478072Y-118382614D01*
X151618212Y-118484432D01*
X151772555Y-118563073D01*
X151937299Y-118616602D01*
X152108389Y-118643700D01*
X152108390Y-118643700D01*
X153081610Y-118643700D01*
X153081611Y-118643700D01*
X153252701Y-118616602D01*
X153417445Y-118563073D01*
X153571788Y-118484432D01*
X153711928Y-118382614D01*
X153834414Y-118260128D01*
X153936232Y-118119988D01*
X154014873Y-117965645D01*
X154068402Y-117800901D01*
X154095500Y-117629811D01*
X154095500Y-117456589D01*
X154068402Y-117285499D01*
X154014873Y-117120755D01*
X153936232Y-116966412D01*
X153834414Y-116826272D01*
X153711928Y-116703786D01*
X153571788Y-116601968D01*
X153417445Y-116523327D01*
X153252701Y-116469798D01*
X153252699Y-116469797D01*
X153252698Y-116469797D01*
X153117871Y-116448443D01*
X153081611Y-116442700D01*
X152108389Y-116442700D01*
X152072129Y-116448443D01*
X151937302Y-116469797D01*
X151772552Y-116523328D01*
X151618211Y-116601968D01*
X151538256Y-116660059D01*
X151478072Y-116703786D01*
X151478070Y-116703788D01*
X151478069Y-116703788D01*
X151355588Y-116826269D01*
X151355588Y-116826270D01*
X151355586Y-116826272D01*
X151311859Y-116886456D01*
X151253768Y-116966411D01*
X151175128Y-117120752D01*
X151121597Y-117285502D01*
X151106035Y-117383757D01*
X151094500Y-117456589D01*
X128695500Y-117456589D01*
X128668402Y-117285499D01*
X128614873Y-117120755D01*
X128536232Y-116966412D01*
X128434414Y-116826272D01*
X128311928Y-116703786D01*
X128171788Y-116601968D01*
X128017445Y-116523327D01*
X127852701Y-116469798D01*
X127852699Y-116469797D01*
X127852698Y-116469797D01*
X127717871Y-116448443D01*
X127681611Y-116442700D01*
X126708389Y-116442700D01*
X126672129Y-116448443D01*
X126537302Y-116469797D01*
X126372552Y-116523328D01*
X126218211Y-116601968D01*
X126138256Y-116660059D01*
X126078072Y-116703786D01*
X126078070Y-116703788D01*
X126078069Y-116703788D01*
X125955588Y-116826269D01*
X125955588Y-116826270D01*
X125955586Y-116826272D01*
X125911859Y-116886456D01*
X125853768Y-116966411D01*
X125775128Y-117120752D01*
X125721597Y-117285502D01*
X125706035Y-117383757D01*
X125694500Y-117456589D01*
X125122446Y-117456589D01*
X125117246Y-117423757D01*
X125051557Y-117221588D01*
X124955051Y-117032184D01*
X124955049Y-117032181D01*
X124955048Y-117032179D01*
X124830109Y-116860213D01*
X124679786Y-116709890D01*
X124507820Y-116584951D01*
X124507115Y-116584591D01*
X124499054Y-116580485D01*
X124448259Y-116532512D01*
X124431463Y-116464692D01*
X124453999Y-116398556D01*
X124499054Y-116359515D01*
X124507816Y-116355051D01*
X124580649Y-116302135D01*
X124679786Y-116230109D01*
X124679788Y-116230106D01*
X124679792Y-116230104D01*
X124830104Y-116079792D01*
X124830106Y-116079788D01*
X124830109Y-116079786D01*
X124955048Y-115907820D01*
X124955047Y-115907820D01*
X124955051Y-115907816D01*
X125051557Y-115718412D01*
X125117246Y-115516243D01*
X125150500Y-115306287D01*
X125150500Y-115093713D01*
X125122446Y-114916589D01*
X125694500Y-114916589D01*
X125694500Y-115089811D01*
X125721598Y-115260901D01*
X125775127Y-115425645D01*
X125853768Y-115579988D01*
X125955586Y-115720128D01*
X126078072Y-115842614D01*
X126218212Y-115944432D01*
X126372555Y-116023073D01*
X126537299Y-116076602D01*
X126708389Y-116103700D01*
X126708390Y-116103700D01*
X127681610Y-116103700D01*
X127681611Y-116103700D01*
X127852701Y-116076602D01*
X128017445Y-116023073D01*
X128171788Y-115944432D01*
X128311928Y-115842614D01*
X128434414Y-115720128D01*
X128536232Y-115579988D01*
X128614873Y-115425645D01*
X128668402Y-115260901D01*
X128695500Y-115089811D01*
X128695500Y-114916589D01*
X151094500Y-114916589D01*
X151094500Y-115089811D01*
X151121598Y-115260901D01*
X151175127Y-115425645D01*
X151253768Y-115579988D01*
X151355586Y-115720128D01*
X151478072Y-115842614D01*
X151618212Y-115944432D01*
X151772555Y-116023073D01*
X151937299Y-116076602D01*
X152108389Y-116103700D01*
X152108390Y-116103700D01*
X153081610Y-116103700D01*
X153081611Y-116103700D01*
X153252701Y-116076602D01*
X153417445Y-116023073D01*
X153571788Y-115944432D01*
X153711928Y-115842614D01*
X153834414Y-115720128D01*
X153936232Y-115579988D01*
X154014873Y-115425645D01*
X154068402Y-115260901D01*
X154095500Y-115089811D01*
X154095500Y-114916589D01*
X154068402Y-114745499D01*
X154014873Y-114580755D01*
X153936232Y-114426412D01*
X153834414Y-114286272D01*
X153711928Y-114163786D01*
X153571788Y-114061968D01*
X153417445Y-113983327D01*
X153252701Y-113929798D01*
X153252699Y-113929797D01*
X153252698Y-113929797D01*
X153117871Y-113908443D01*
X153081611Y-113902700D01*
X152108389Y-113902700D01*
X152072129Y-113908443D01*
X151937302Y-113929797D01*
X151772552Y-113983328D01*
X151618211Y-114061968D01*
X151582631Y-114087819D01*
X151478072Y-114163786D01*
X151478070Y-114163788D01*
X151478069Y-114163788D01*
X151355588Y-114286269D01*
X151355588Y-114286270D01*
X151355586Y-114286272D01*
X151323626Y-114330261D01*
X151253768Y-114426411D01*
X151175128Y-114580752D01*
X151121597Y-114745502D01*
X151102433Y-114866503D01*
X151094500Y-114916589D01*
X128695500Y-114916589D01*
X128668402Y-114745499D01*
X128614873Y-114580755D01*
X128536232Y-114426412D01*
X128434414Y-114286272D01*
X128311928Y-114163786D01*
X128171788Y-114061968D01*
X128017445Y-113983327D01*
X127852701Y-113929798D01*
X127852699Y-113929797D01*
X127852698Y-113929797D01*
X127717871Y-113908443D01*
X127681611Y-113902700D01*
X126708389Y-113902700D01*
X126672129Y-113908443D01*
X126537302Y-113929797D01*
X126372552Y-113983328D01*
X126218211Y-114061968D01*
X126182631Y-114087819D01*
X126078072Y-114163786D01*
X126078070Y-114163788D01*
X126078069Y-114163788D01*
X125955588Y-114286269D01*
X125955588Y-114286270D01*
X125955586Y-114286272D01*
X125923626Y-114330261D01*
X125853768Y-114426411D01*
X125775128Y-114580752D01*
X125721597Y-114745502D01*
X125702433Y-114866503D01*
X125694500Y-114916589D01*
X125122446Y-114916589D01*
X125117246Y-114883757D01*
X125051557Y-114681588D01*
X124955051Y-114492184D01*
X124955049Y-114492181D01*
X124955048Y-114492179D01*
X124830109Y-114320213D01*
X124679786Y-114169890D01*
X124507820Y-114044951D01*
X124507115Y-114044591D01*
X124499054Y-114040485D01*
X124448259Y-113992512D01*
X124431463Y-113924692D01*
X124453999Y-113858556D01*
X124499054Y-113819515D01*
X124507816Y-113815051D01*
X124562876Y-113775048D01*
X124679786Y-113690109D01*
X124679788Y-113690106D01*
X124679792Y-113690104D01*
X124830104Y-113539792D01*
X124830106Y-113539788D01*
X124830109Y-113539786D01*
X124955048Y-113367820D01*
X124955047Y-113367820D01*
X124955051Y-113367816D01*
X125051557Y-113178412D01*
X125117246Y-112976243D01*
X125150500Y-112766287D01*
X125150500Y-112553713D01*
X125122446Y-112376589D01*
X125694500Y-112376589D01*
X125694500Y-112549810D01*
X125705256Y-112617725D01*
X125721598Y-112720901D01*
X125775127Y-112885645D01*
X125853768Y-113039988D01*
X125955586Y-113180128D01*
X126078072Y-113302614D01*
X126218212Y-113404432D01*
X126372555Y-113483073D01*
X126537299Y-113536602D01*
X126708389Y-113563700D01*
X126708390Y-113563700D01*
X127681610Y-113563700D01*
X127681611Y-113563700D01*
X127852701Y-113536602D01*
X128017445Y-113483073D01*
X128171788Y-113404432D01*
X128311928Y-113302614D01*
X128434414Y-113180128D01*
X128536232Y-113039988D01*
X128614873Y-112885645D01*
X128668402Y-112720901D01*
X128695500Y-112549811D01*
X128695500Y-112376589D01*
X151094500Y-112376589D01*
X151094500Y-112549810D01*
X151105256Y-112617725D01*
X151121598Y-112720901D01*
X151175127Y-112885645D01*
X151253768Y-113039988D01*
X151355586Y-113180128D01*
X151478072Y-113302614D01*
X151618212Y-113404432D01*
X151772555Y-113483073D01*
X151937299Y-113536602D01*
X152108389Y-113563700D01*
X152108390Y-113563700D01*
X153081610Y-113563700D01*
X153081611Y-113563700D01*
X153252701Y-113536602D01*
X153417445Y-113483073D01*
X153571788Y-113404432D01*
X153711928Y-113302614D01*
X153834414Y-113180128D01*
X153936232Y-113039988D01*
X154014873Y-112885645D01*
X154068402Y-112720901D01*
X154095500Y-112549811D01*
X154095500Y-112376589D01*
X154068402Y-112205499D01*
X154014873Y-112040755D01*
X153936232Y-111886412D01*
X153834414Y-111746272D01*
X153711928Y-111623786D01*
X153571788Y-111521968D01*
X153417445Y-111443327D01*
X153252701Y-111389798D01*
X153252699Y-111389797D01*
X153252698Y-111389797D01*
X153117871Y-111368443D01*
X153081611Y-111362700D01*
X152108389Y-111362700D01*
X152072129Y-111368443D01*
X151937302Y-111389797D01*
X151772552Y-111443328D01*
X151618211Y-111521968D01*
X151559501Y-111564624D01*
X151478072Y-111623786D01*
X151478070Y-111623788D01*
X151478069Y-111623788D01*
X151355588Y-111746269D01*
X151355588Y-111746270D01*
X151355586Y-111746272D01*
X151311859Y-111806456D01*
X151253768Y-111886411D01*
X151175128Y-112040752D01*
X151121597Y-112205502D01*
X151094500Y-112376589D01*
X128695500Y-112376589D01*
X128668402Y-112205499D01*
X128614873Y-112040755D01*
X128536232Y-111886412D01*
X128434414Y-111746272D01*
X128311928Y-111623786D01*
X128171788Y-111521968D01*
X128017445Y-111443327D01*
X127852701Y-111389798D01*
X127852699Y-111389797D01*
X127852698Y-111389797D01*
X127717871Y-111368443D01*
X127681611Y-111362700D01*
X126708389Y-111362700D01*
X126672129Y-111368443D01*
X126537302Y-111389797D01*
X126372552Y-111443328D01*
X126218211Y-111521968D01*
X126159501Y-111564624D01*
X126078072Y-111623786D01*
X126078070Y-111623788D01*
X126078069Y-111623788D01*
X125955588Y-111746269D01*
X125955588Y-111746270D01*
X125955586Y-111746272D01*
X125911859Y-111806456D01*
X125853768Y-111886411D01*
X125775128Y-112040752D01*
X125721597Y-112205502D01*
X125694500Y-112376589D01*
X125122446Y-112376589D01*
X125117246Y-112343757D01*
X125051557Y-112141588D01*
X124955051Y-111952184D01*
X124955049Y-111952181D01*
X124955048Y-111952179D01*
X124830109Y-111780213D01*
X124679786Y-111629890D01*
X124507820Y-111504951D01*
X124507115Y-111504591D01*
X124499054Y-111500485D01*
X124448259Y-111452512D01*
X124431463Y-111384692D01*
X124453999Y-111318556D01*
X124499054Y-111279515D01*
X124507816Y-111275051D01*
X124582001Y-111221153D01*
X124679786Y-111150109D01*
X124679788Y-111150106D01*
X124679792Y-111150104D01*
X124830104Y-110999792D01*
X124830106Y-110999788D01*
X124830109Y-110999786D01*
X124955048Y-110827820D01*
X124955047Y-110827820D01*
X124955051Y-110827816D01*
X125051557Y-110638412D01*
X125117246Y-110436243D01*
X125150500Y-110226287D01*
X125150500Y-110013713D01*
X125122446Y-109836589D01*
X125694500Y-109836589D01*
X125694500Y-110009810D01*
X125715997Y-110145542D01*
X125721598Y-110180901D01*
X125775127Y-110345645D01*
X125853768Y-110499988D01*
X125955586Y-110640128D01*
X126078072Y-110762614D01*
X126218212Y-110864432D01*
X126372555Y-110943073D01*
X126537299Y-110996602D01*
X126708389Y-111023700D01*
X126708390Y-111023700D01*
X127681610Y-111023700D01*
X127681611Y-111023700D01*
X127852701Y-110996602D01*
X128017445Y-110943073D01*
X128171788Y-110864432D01*
X128311928Y-110762614D01*
X128434414Y-110640128D01*
X128536232Y-110499988D01*
X128614873Y-110345645D01*
X128668402Y-110180901D01*
X128695500Y-110009811D01*
X128695500Y-109836589D01*
X151094500Y-109836589D01*
X151094500Y-110009810D01*
X151115997Y-110145542D01*
X151121598Y-110180901D01*
X151175127Y-110345645D01*
X151253768Y-110499988D01*
X151355586Y-110640128D01*
X151478072Y-110762614D01*
X151618212Y-110864432D01*
X151772555Y-110943073D01*
X151937299Y-110996602D01*
X152108389Y-111023700D01*
X152108390Y-111023700D01*
X153081610Y-111023700D01*
X153081611Y-111023700D01*
X153252701Y-110996602D01*
X153417445Y-110943073D01*
X153571788Y-110864432D01*
X153711928Y-110762614D01*
X153834414Y-110640128D01*
X153936232Y-110499988D01*
X154014873Y-110345645D01*
X154068402Y-110180901D01*
X154095500Y-110009811D01*
X154095500Y-109836589D01*
X154068402Y-109665499D01*
X154014873Y-109500755D01*
X153936232Y-109346412D01*
X153834414Y-109206272D01*
X153711928Y-109083786D01*
X153571788Y-108981968D01*
X153417445Y-108903327D01*
X153252701Y-108849798D01*
X153252699Y-108849797D01*
X153252698Y-108849797D01*
X153117871Y-108828443D01*
X153081611Y-108822700D01*
X152108389Y-108822700D01*
X152072129Y-108828443D01*
X151937302Y-108849797D01*
X151772552Y-108903328D01*
X151618211Y-108981968D01*
X151552387Y-109029793D01*
X151478072Y-109083786D01*
X151478070Y-109083788D01*
X151478069Y-109083788D01*
X151355588Y-109206269D01*
X151355588Y-109206270D01*
X151355586Y-109206272D01*
X151319910Y-109255376D01*
X151253768Y-109346411D01*
X151175128Y-109500752D01*
X151121597Y-109665502D01*
X151094500Y-109836589D01*
X128695500Y-109836589D01*
X128668402Y-109665499D01*
X128614873Y-109500755D01*
X128536232Y-109346412D01*
X128434414Y-109206272D01*
X128311928Y-109083786D01*
X128171788Y-108981968D01*
X128017445Y-108903327D01*
X127852701Y-108849798D01*
X127852699Y-108849797D01*
X127852698Y-108849797D01*
X127717871Y-108828443D01*
X127681611Y-108822700D01*
X126708389Y-108822700D01*
X126672129Y-108828443D01*
X126537302Y-108849797D01*
X126372552Y-108903328D01*
X126218211Y-108981968D01*
X126152387Y-109029793D01*
X126078072Y-109083786D01*
X126078070Y-109083788D01*
X126078069Y-109083788D01*
X125955588Y-109206269D01*
X125955588Y-109206270D01*
X125955586Y-109206272D01*
X125919910Y-109255376D01*
X125853768Y-109346411D01*
X125775128Y-109500752D01*
X125721597Y-109665502D01*
X125694500Y-109836589D01*
X125122446Y-109836589D01*
X125117246Y-109803757D01*
X125051557Y-109601588D01*
X124955051Y-109412184D01*
X124955049Y-109412181D01*
X124955048Y-109412179D01*
X124830109Y-109240213D01*
X124679786Y-109089890D01*
X124507820Y-108964951D01*
X124507115Y-108964591D01*
X124499054Y-108960485D01*
X124448259Y-108912512D01*
X124431463Y-108844692D01*
X124453999Y-108778556D01*
X124499054Y-108739515D01*
X124507816Y-108735051D01*
X124562876Y-108695048D01*
X124679786Y-108610109D01*
X124679788Y-108610106D01*
X124679792Y-108610104D01*
X124830104Y-108459792D01*
X124830106Y-108459788D01*
X124830109Y-108459786D01*
X124955048Y-108287820D01*
X124955047Y-108287820D01*
X124955051Y-108287816D01*
X125051557Y-108098412D01*
X125117246Y-107896243D01*
X125150500Y-107686287D01*
X125150500Y-107473713D01*
X125127087Y-107325888D01*
X125124747Y-107311115D01*
X125122446Y-107296589D01*
X125694500Y-107296589D01*
X125694500Y-107469811D01*
X125721598Y-107640901D01*
X125775127Y-107805645D01*
X125853768Y-107959988D01*
X125955586Y-108100128D01*
X126078072Y-108222614D01*
X126218212Y-108324432D01*
X126372555Y-108403073D01*
X126537299Y-108456602D01*
X126708389Y-108483700D01*
X126708390Y-108483700D01*
X127681610Y-108483700D01*
X127681611Y-108483700D01*
X127852701Y-108456602D01*
X128017445Y-108403073D01*
X128171788Y-108324432D01*
X128311928Y-108222614D01*
X128434414Y-108100128D01*
X128536232Y-107959988D01*
X128614873Y-107805645D01*
X128668402Y-107640901D01*
X128695500Y-107469811D01*
X128695500Y-107296589D01*
X151094500Y-107296589D01*
X151094500Y-107469811D01*
X151121598Y-107640901D01*
X151175127Y-107805645D01*
X151253768Y-107959988D01*
X151355586Y-108100128D01*
X151478072Y-108222614D01*
X151618212Y-108324432D01*
X151772555Y-108403073D01*
X151937299Y-108456602D01*
X152108389Y-108483700D01*
X152108390Y-108483700D01*
X153081610Y-108483700D01*
X153081611Y-108483700D01*
X153252701Y-108456602D01*
X153417445Y-108403073D01*
X153571788Y-108324432D01*
X153711928Y-108222614D01*
X153834414Y-108100128D01*
X153936232Y-107959988D01*
X154014873Y-107805645D01*
X154068402Y-107640901D01*
X154095500Y-107469811D01*
X154095500Y-107296589D01*
X154068402Y-107125499D01*
X154014873Y-106960755D01*
X153936232Y-106806412D01*
X153834414Y-106666272D01*
X153711928Y-106543786D01*
X153571788Y-106441968D01*
X153417445Y-106363327D01*
X153252701Y-106309798D01*
X153252699Y-106309797D01*
X153252698Y-106309797D01*
X153117871Y-106288443D01*
X153081611Y-106282700D01*
X152108389Y-106282700D01*
X152072129Y-106288443D01*
X151937302Y-106309797D01*
X151772552Y-106363328D01*
X151618211Y-106441968D01*
X151552768Y-106489516D01*
X151478072Y-106543786D01*
X151478070Y-106543788D01*
X151478069Y-106543788D01*
X151355588Y-106666269D01*
X151355588Y-106666270D01*
X151355586Y-106666272D01*
X151323464Y-106710484D01*
X151253768Y-106806411D01*
X151175128Y-106960752D01*
X151121597Y-107125502D01*
X151110365Y-107196420D01*
X151094500Y-107296589D01*
X128695500Y-107296589D01*
X128668402Y-107125499D01*
X128614873Y-106960755D01*
X128536232Y-106806412D01*
X128434414Y-106666272D01*
X128311928Y-106543786D01*
X128171788Y-106441968D01*
X128017445Y-106363327D01*
X127852701Y-106309798D01*
X127852699Y-106309797D01*
X127852698Y-106309797D01*
X127717871Y-106288443D01*
X127681611Y-106282700D01*
X126708389Y-106282700D01*
X126672129Y-106288443D01*
X126537302Y-106309797D01*
X126372552Y-106363328D01*
X126218211Y-106441968D01*
X126152768Y-106489516D01*
X126078072Y-106543786D01*
X126078070Y-106543788D01*
X126078069Y-106543788D01*
X125955588Y-106666269D01*
X125955588Y-106666270D01*
X125955586Y-106666272D01*
X125923464Y-106710484D01*
X125853768Y-106806411D01*
X125775128Y-106960752D01*
X125721597Y-107125502D01*
X125710365Y-107196420D01*
X125694500Y-107296589D01*
X125122446Y-107296589D01*
X125117246Y-107263760D01*
X125117246Y-107263757D01*
X125051557Y-107061588D01*
X124955051Y-106872184D01*
X124955049Y-106872181D01*
X124955048Y-106872179D01*
X124830109Y-106700213D01*
X124679786Y-106549890D01*
X124507820Y-106424951D01*
X124507115Y-106424591D01*
X124499054Y-106420485D01*
X124448259Y-106372512D01*
X124431463Y-106304692D01*
X124453999Y-106238556D01*
X124499054Y-106199515D01*
X124507816Y-106195051D01*
X124569977Y-106149889D01*
X124679786Y-106070109D01*
X124679788Y-106070106D01*
X124679792Y-106070104D01*
X124830104Y-105919792D01*
X124830106Y-105919788D01*
X124830109Y-105919786D01*
X124955048Y-105747820D01*
X124955047Y-105747820D01*
X124955051Y-105747816D01*
X125051557Y-105558412D01*
X125117246Y-105356243D01*
X125150500Y-105146287D01*
X125150500Y-104933713D01*
X125127776Y-104790241D01*
X125124747Y-104771115D01*
X125122446Y-104756589D01*
X125694500Y-104756589D01*
X125694500Y-104929811D01*
X125721598Y-105100901D01*
X125775127Y-105265645D01*
X125853768Y-105419988D01*
X125955586Y-105560128D01*
X126078072Y-105682614D01*
X126218212Y-105784432D01*
X126372555Y-105863073D01*
X126537299Y-105916602D01*
X126708389Y-105943700D01*
X126708390Y-105943700D01*
X127681610Y-105943700D01*
X127681611Y-105943700D01*
X127852701Y-105916602D01*
X128017445Y-105863073D01*
X128171788Y-105784432D01*
X128311928Y-105682614D01*
X128434414Y-105560128D01*
X128536232Y-105419988D01*
X128614873Y-105265645D01*
X128668402Y-105100901D01*
X128695500Y-104929811D01*
X128695500Y-104756589D01*
X151094500Y-104756589D01*
X151094500Y-104929811D01*
X151121598Y-105100901D01*
X151175127Y-105265645D01*
X151253768Y-105419988D01*
X151355586Y-105560128D01*
X151478072Y-105682614D01*
X151618212Y-105784432D01*
X151772555Y-105863073D01*
X151937299Y-105916602D01*
X152108389Y-105943700D01*
X152108390Y-105943700D01*
X153081610Y-105943700D01*
X153081611Y-105943700D01*
X153252701Y-105916602D01*
X153417445Y-105863073D01*
X153571788Y-105784432D01*
X153711928Y-105682614D01*
X153834414Y-105560128D01*
X153936232Y-105419988D01*
X154014873Y-105265645D01*
X154068402Y-105100901D01*
X154095500Y-104929811D01*
X154095500Y-104756589D01*
X154068402Y-104585499D01*
X154014873Y-104420755D01*
X153936232Y-104266412D01*
X153834414Y-104126272D01*
X153711928Y-104003786D01*
X153571788Y-103901968D01*
X153417445Y-103823327D01*
X153252701Y-103769798D01*
X153252699Y-103769797D01*
X153252698Y-103769797D01*
X153117871Y-103748443D01*
X153081611Y-103742700D01*
X152108389Y-103742700D01*
X152072129Y-103748443D01*
X151937302Y-103769797D01*
X151772552Y-103823328D01*
X151618211Y-103901968D01*
X151552768Y-103949516D01*
X151478072Y-104003786D01*
X151478070Y-104003788D01*
X151478069Y-104003788D01*
X151355588Y-104126269D01*
X151355588Y-104126270D01*
X151355586Y-104126272D01*
X151323464Y-104170484D01*
X151253768Y-104266411D01*
X151175128Y-104420752D01*
X151121597Y-104585502D01*
X151094500Y-104756589D01*
X128695500Y-104756589D01*
X128668402Y-104585499D01*
X128614873Y-104420755D01*
X128536232Y-104266412D01*
X128434414Y-104126272D01*
X128311928Y-104003786D01*
X128171788Y-103901968D01*
X128017445Y-103823327D01*
X127852701Y-103769798D01*
X127852699Y-103769797D01*
X127852698Y-103769797D01*
X127717871Y-103748443D01*
X127681611Y-103742700D01*
X126708389Y-103742700D01*
X126672129Y-103748443D01*
X126537302Y-103769797D01*
X126372552Y-103823328D01*
X126218211Y-103901968D01*
X126152768Y-103949516D01*
X126078072Y-104003786D01*
X126078070Y-104003788D01*
X126078069Y-104003788D01*
X125955588Y-104126269D01*
X125955588Y-104126270D01*
X125955586Y-104126272D01*
X125923464Y-104170484D01*
X125853768Y-104266411D01*
X125775128Y-104420752D01*
X125721597Y-104585502D01*
X125694500Y-104756589D01*
X125122446Y-104756589D01*
X125117246Y-104723757D01*
X125051557Y-104521588D01*
X124955051Y-104332184D01*
X124955049Y-104332181D01*
X124955048Y-104332179D01*
X124830109Y-104160213D01*
X124679786Y-104009890D01*
X124507820Y-103884951D01*
X124507115Y-103884591D01*
X124499054Y-103880485D01*
X124448259Y-103832512D01*
X124431463Y-103764692D01*
X124453999Y-103698556D01*
X124499054Y-103659515D01*
X124507816Y-103655051D01*
X124562876Y-103615048D01*
X124679786Y-103530109D01*
X124679788Y-103530106D01*
X124679792Y-103530104D01*
X124830104Y-103379792D01*
X124830106Y-103379788D01*
X124830109Y-103379786D01*
X124955048Y-103207820D01*
X124955047Y-103207820D01*
X124955051Y-103207816D01*
X125051557Y-103018412D01*
X125117246Y-102816243D01*
X125150500Y-102606287D01*
X125150500Y-102393713D01*
X125144165Y-102353713D01*
X125124747Y-102231115D01*
X125122446Y-102216589D01*
X125694500Y-102216589D01*
X125694500Y-102389810D01*
X125715725Y-102523825D01*
X125721598Y-102560901D01*
X125775127Y-102725645D01*
X125853768Y-102879988D01*
X125955586Y-103020128D01*
X126078072Y-103142614D01*
X126218212Y-103244432D01*
X126372555Y-103323073D01*
X126537299Y-103376602D01*
X126708389Y-103403700D01*
X126708390Y-103403700D01*
X127681610Y-103403700D01*
X127681611Y-103403700D01*
X127852701Y-103376602D01*
X128017445Y-103323073D01*
X128171788Y-103244432D01*
X128311928Y-103142614D01*
X128434414Y-103020128D01*
X128536232Y-102879988D01*
X128614873Y-102725645D01*
X128668402Y-102560901D01*
X128695500Y-102389811D01*
X128695500Y-102216589D01*
X128668402Y-102045499D01*
X128614873Y-101880755D01*
X128536232Y-101726412D01*
X128434414Y-101586272D01*
X128311928Y-101463786D01*
X128171788Y-101361968D01*
X128017445Y-101283327D01*
X127852701Y-101229798D01*
X127852699Y-101229797D01*
X127852698Y-101229797D01*
X127721271Y-101208981D01*
X127681611Y-101202700D01*
X126708389Y-101202700D01*
X126668728Y-101208981D01*
X126537302Y-101229797D01*
X126372552Y-101283328D01*
X126218211Y-101361968D01*
X126152768Y-101409516D01*
X126078072Y-101463786D01*
X126078070Y-101463788D01*
X126078069Y-101463788D01*
X125955588Y-101586269D01*
X125955588Y-101586270D01*
X125955586Y-101586272D01*
X125923464Y-101630484D01*
X125853768Y-101726411D01*
X125775128Y-101880752D01*
X125721597Y-102045502D01*
X125694500Y-102216589D01*
X125122446Y-102216589D01*
X125117246Y-102183760D01*
X125117246Y-102183757D01*
X125051557Y-101981588D01*
X124955051Y-101792184D01*
X124955049Y-101792181D01*
X124955048Y-101792179D01*
X124830109Y-101620213D01*
X124679786Y-101469890D01*
X124507820Y-101344951D01*
X124507115Y-101344591D01*
X124499054Y-101340485D01*
X124448259Y-101292512D01*
X124431463Y-101224692D01*
X124453999Y-101158556D01*
X124499054Y-101119515D01*
X124507816Y-101115051D01*
X124637054Y-101021155D01*
X124679786Y-100990109D01*
X124679788Y-100990106D01*
X124679792Y-100990104D01*
X124830104Y-100839792D01*
X124830106Y-100839788D01*
X124830109Y-100839786D01*
X124955048Y-100667820D01*
X124955047Y-100667820D01*
X124955051Y-100667816D01*
X125051557Y-100478412D01*
X125117246Y-100276243D01*
X125150500Y-100066287D01*
X125150500Y-99853713D01*
X125126297Y-99700904D01*
X125124747Y-99691115D01*
X125122446Y-99676589D01*
X125694500Y-99676589D01*
X125694500Y-99849811D01*
X125721598Y-100020901D01*
X125775127Y-100185645D01*
X125853768Y-100339988D01*
X125955586Y-100480128D01*
X126078072Y-100602614D01*
X126218212Y-100704432D01*
X126372555Y-100783073D01*
X126537299Y-100836602D01*
X126708389Y-100863700D01*
X126708390Y-100863700D01*
X127681610Y-100863700D01*
X127681611Y-100863700D01*
X127852701Y-100836602D01*
X128017445Y-100783073D01*
X128171788Y-100704432D01*
X128311928Y-100602614D01*
X128434414Y-100480128D01*
X128536232Y-100339988D01*
X128614873Y-100185645D01*
X128668402Y-100020901D01*
X128695500Y-99849811D01*
X128695500Y-99676589D01*
X128668402Y-99505499D01*
X128614873Y-99340755D01*
X128536232Y-99186412D01*
X128434414Y-99046272D01*
X128311928Y-98923786D01*
X128171788Y-98821968D01*
X128017445Y-98743327D01*
X127852701Y-98689798D01*
X127852699Y-98689797D01*
X127852698Y-98689797D01*
X127721271Y-98668981D01*
X127681611Y-98662700D01*
X126708389Y-98662700D01*
X126668728Y-98668981D01*
X126537302Y-98689797D01*
X126372552Y-98743328D01*
X126218211Y-98821968D01*
X126138256Y-98880059D01*
X126078072Y-98923786D01*
X126078070Y-98923788D01*
X126078069Y-98923788D01*
X125955588Y-99046269D01*
X125955588Y-99046270D01*
X125955586Y-99046272D01*
X125911859Y-99106456D01*
X125853768Y-99186411D01*
X125775128Y-99340752D01*
X125721597Y-99505502D01*
X125710399Y-99576204D01*
X125694500Y-99676589D01*
X125122446Y-99676589D01*
X125117246Y-99643760D01*
X125117246Y-99643757D01*
X125051557Y-99441588D01*
X124955051Y-99252184D01*
X124955049Y-99252181D01*
X124955048Y-99252179D01*
X124830109Y-99080213D01*
X124679786Y-98929890D01*
X124507820Y-98804951D01*
X124507115Y-98804591D01*
X124499054Y-98800485D01*
X124448259Y-98752512D01*
X124431463Y-98684692D01*
X124453999Y-98618556D01*
X124499054Y-98579515D01*
X124507816Y-98575051D01*
X124529789Y-98559086D01*
X124679786Y-98450109D01*
X124679788Y-98450106D01*
X124679792Y-98450104D01*
X124830104Y-98299792D01*
X124830106Y-98299788D01*
X124830109Y-98299786D01*
X124955048Y-98127820D01*
X124955047Y-98127820D01*
X124955051Y-98127816D01*
X125051557Y-97938412D01*
X125117246Y-97736243D01*
X125150500Y-97526287D01*
X125150500Y-97313713D01*
X125117246Y-97103757D01*
X125051557Y-96901588D01*
X124955051Y-96712184D01*
X124955049Y-96712181D01*
X124955048Y-96712179D01*
X124830109Y-96540213D01*
X124679786Y-96389890D01*
X124507820Y-96264951D01*
X124507115Y-96264591D01*
X124499054Y-96260485D01*
X124448259Y-96212512D01*
X124431463Y-96144692D01*
X124453999Y-96078556D01*
X124499054Y-96039515D01*
X124507816Y-96035051D01*
X124556729Y-95999514D01*
X124679786Y-95910109D01*
X124679788Y-95910106D01*
X124679792Y-95910104D01*
X124830104Y-95759792D01*
X124830106Y-95759788D01*
X124830109Y-95759786D01*
X124955048Y-95587820D01*
X124955047Y-95587820D01*
X124955051Y-95587816D01*
X125051557Y-95398412D01*
X125117246Y-95196243D01*
X125150500Y-94986287D01*
X125150500Y-94773713D01*
X125122446Y-94596589D01*
X125694500Y-94596589D01*
X125694500Y-94769811D01*
X125721598Y-94940901D01*
X125775127Y-95105645D01*
X125853768Y-95259988D01*
X125955586Y-95400128D01*
X126078072Y-95522614D01*
X126218212Y-95624432D01*
X126372555Y-95703073D01*
X126537299Y-95756602D01*
X126708389Y-95783700D01*
X127226281Y-95783700D01*
X127247526Y-95789938D01*
X127269615Y-95791518D01*
X127280398Y-95799590D01*
X127293320Y-95803385D01*
X127307819Y-95820118D01*
X127325548Y-95833390D01*
X127330255Y-95846010D01*
X127339075Y-95856189D01*
X127342226Y-95878106D01*
X127349965Y-95898854D01*
X127347102Y-95912014D01*
X127349019Y-95925347D01*
X127339819Y-95945490D01*
X127335113Y-95967127D01*
X127321844Y-95984852D01*
X127319994Y-95988903D01*
X127313962Y-95995381D01*
X127222962Y-96086381D01*
X127161639Y-96119866D01*
X127135281Y-96122700D01*
X126708389Y-96122700D01*
X126672129Y-96128443D01*
X126537302Y-96149797D01*
X126372552Y-96203328D01*
X126218211Y-96281968D01*
X126138256Y-96340059D01*
X126078072Y-96383786D01*
X126078070Y-96383788D01*
X126078069Y-96383788D01*
X125955588Y-96506269D01*
X125955588Y-96506270D01*
X125955586Y-96506272D01*
X125911859Y-96566456D01*
X125853768Y-96646411D01*
X125775128Y-96800752D01*
X125721597Y-96965502D01*
X125706035Y-97063757D01*
X125694500Y-97136589D01*
X125694500Y-97309811D01*
X125721598Y-97480901D01*
X125775127Y-97645645D01*
X125853768Y-97799988D01*
X125955586Y-97940128D01*
X126078072Y-98062614D01*
X126218212Y-98164432D01*
X126372555Y-98243073D01*
X126537299Y-98296602D01*
X126708389Y-98323700D01*
X126708390Y-98323700D01*
X127681610Y-98323700D01*
X127681611Y-98323700D01*
X127852701Y-98296602D01*
X128017445Y-98243073D01*
X128171788Y-98164432D01*
X128311928Y-98062614D01*
X128434414Y-97940128D01*
X128536232Y-97799988D01*
X128614873Y-97645645D01*
X128668402Y-97480901D01*
X128695500Y-97309811D01*
X128695500Y-97136589D01*
X128668402Y-96965499D01*
X128614873Y-96800755D01*
X128613590Y-96798238D01*
X128613391Y-96797176D01*
X128613006Y-96796246D01*
X128613201Y-96796165D01*
X128600694Y-96729570D01*
X128626969Y-96664829D01*
X128636385Y-96654270D01*
X130694066Y-94596589D01*
X151094500Y-94596589D01*
X151094500Y-94769811D01*
X151121598Y-94940901D01*
X151175127Y-95105645D01*
X151253768Y-95259988D01*
X151355586Y-95400128D01*
X151478072Y-95522614D01*
X151618212Y-95624432D01*
X151772555Y-95703073D01*
X151937299Y-95756602D01*
X152108389Y-95783700D01*
X152108390Y-95783700D01*
X153081610Y-95783700D01*
X153081611Y-95783700D01*
X153252701Y-95756602D01*
X153417445Y-95703073D01*
X153571788Y-95624432D01*
X153711928Y-95522614D01*
X153834414Y-95400128D01*
X153936232Y-95259988D01*
X154014873Y-95105645D01*
X154068402Y-94940901D01*
X154095500Y-94769811D01*
X154095500Y-94596589D01*
X154068402Y-94425499D01*
X154014873Y-94260755D01*
X153936232Y-94106412D01*
X153834414Y-93966272D01*
X153711928Y-93843786D01*
X153571788Y-93741968D01*
X153417445Y-93663327D01*
X153252701Y-93609798D01*
X153252699Y-93609797D01*
X153252698Y-93609797D01*
X153117871Y-93588443D01*
X153081611Y-93582700D01*
X152108389Y-93582700D01*
X152072129Y-93588443D01*
X151937302Y-93609797D01*
X151772552Y-93663328D01*
X151618211Y-93741968D01*
X151538256Y-93800059D01*
X151478072Y-93843786D01*
X151478070Y-93843788D01*
X151478069Y-93843788D01*
X151355588Y-93966269D01*
X151355588Y-93966270D01*
X151355586Y-93966272D01*
X151311859Y-94026456D01*
X151253768Y-94106411D01*
X151175128Y-94260752D01*
X151121597Y-94425502D01*
X151113991Y-94473525D01*
X151094500Y-94596589D01*
X130694066Y-94596589D01*
X134694586Y-90596069D01*
X134734810Y-90569192D01*
X134794592Y-90544431D01*
X134879173Y-90509397D01*
X134879176Y-90509395D01*
X134879179Y-90509394D01*
X135010289Y-90421789D01*
X135121789Y-90310289D01*
X135209394Y-90179179D01*
X135269737Y-90033497D01*
X135300500Y-89878842D01*
X135300500Y-89721158D01*
X135300500Y-89721155D01*
X135300499Y-89721153D01*
X135297296Y-89705051D01*
X135269737Y-89566503D01*
X135218896Y-89443760D01*
X135209397Y-89420827D01*
X135209390Y-89420814D01*
X135121789Y-89289711D01*
X135121786Y-89289707D01*
X135010292Y-89178213D01*
X135010288Y-89178210D01*
X134879185Y-89090609D01*
X134879172Y-89090602D01*
X134733501Y-89030264D01*
X134733489Y-89030261D01*
X134578845Y-88999500D01*
X134578842Y-88999500D01*
X134421158Y-88999500D01*
X134421155Y-88999500D01*
X134266510Y-89030261D01*
X134266498Y-89030264D01*
X134120827Y-89090602D01*
X134120814Y-89090609D01*
X133989711Y-89178210D01*
X133989707Y-89178213D01*
X133878213Y-89289707D01*
X133878210Y-89289711D01*
X133790609Y-89420814D01*
X133790604Y-89420823D01*
X133730809Y-89565184D01*
X133703929Y-89605412D01*
X128864318Y-94445024D01*
X128802995Y-94478509D01*
X128733303Y-94473525D01*
X128677370Y-94431653D01*
X128658708Y-94395666D01*
X128614873Y-94260755D01*
X128536232Y-94106412D01*
X128434414Y-93966272D01*
X128311928Y-93843786D01*
X128171788Y-93741968D01*
X128017445Y-93663327D01*
X127852701Y-93609798D01*
X127852699Y-93609797D01*
X127852698Y-93609797D01*
X127717871Y-93588443D01*
X127681611Y-93582700D01*
X126708389Y-93582700D01*
X126672129Y-93588443D01*
X126537302Y-93609797D01*
X126372552Y-93663328D01*
X126218211Y-93741968D01*
X126138256Y-93800059D01*
X126078072Y-93843786D01*
X126078070Y-93843788D01*
X126078069Y-93843788D01*
X125955588Y-93966269D01*
X125955588Y-93966270D01*
X125955586Y-93966272D01*
X125911859Y-94026456D01*
X125853768Y-94106411D01*
X125775128Y-94260752D01*
X125721597Y-94425502D01*
X125713991Y-94473525D01*
X125694500Y-94596589D01*
X125122446Y-94596589D01*
X125117246Y-94563757D01*
X125051557Y-94361588D01*
X124955051Y-94172184D01*
X124955049Y-94172181D01*
X124955048Y-94172179D01*
X124830109Y-94000213D01*
X124679786Y-93849890D01*
X124507820Y-93724951D01*
X124507115Y-93724591D01*
X124499054Y-93720485D01*
X124448259Y-93672512D01*
X124431463Y-93604692D01*
X124453999Y-93538556D01*
X124499054Y-93499515D01*
X124507816Y-93495051D01*
X124562876Y-93455048D01*
X124679786Y-93370109D01*
X124679788Y-93370106D01*
X124679792Y-93370104D01*
X124830104Y-93219792D01*
X124830106Y-93219788D01*
X124830109Y-93219786D01*
X124955048Y-93047820D01*
X124955047Y-93047820D01*
X124955051Y-93047816D01*
X125051557Y-92858412D01*
X125117246Y-92656243D01*
X125150500Y-92446287D01*
X125150500Y-92233713D01*
X125122446Y-92056589D01*
X125694500Y-92056589D01*
X125694500Y-92229810D01*
X125718817Y-92383346D01*
X125721598Y-92400901D01*
X125775127Y-92565645D01*
X125853768Y-92719988D01*
X125955586Y-92860128D01*
X126078072Y-92982614D01*
X126218212Y-93084432D01*
X126372555Y-93163073D01*
X126537299Y-93216602D01*
X126708389Y-93243700D01*
X126708390Y-93243700D01*
X127681610Y-93243700D01*
X127681611Y-93243700D01*
X127852701Y-93216602D01*
X128017445Y-93163073D01*
X128171788Y-93084432D01*
X128311928Y-92982614D01*
X128434414Y-92860128D01*
X128536232Y-92719988D01*
X128614873Y-92565645D01*
X128668402Y-92400901D01*
X128695500Y-92229811D01*
X128695500Y-92056589D01*
X128668402Y-91885499D01*
X128614873Y-91720755D01*
X128536232Y-91566412D01*
X128434414Y-91426272D01*
X128311928Y-91303786D01*
X128171788Y-91201968D01*
X128017445Y-91123327D01*
X127852701Y-91069798D01*
X127852699Y-91069797D01*
X127852698Y-91069797D01*
X127721271Y-91048981D01*
X127681611Y-91042700D01*
X126708389Y-91042700D01*
X126668728Y-91048981D01*
X126537302Y-91069797D01*
X126372552Y-91123328D01*
X126218211Y-91201968D01*
X126165290Y-91240418D01*
X126078072Y-91303786D01*
X126078070Y-91303788D01*
X126078069Y-91303788D01*
X125955588Y-91426269D01*
X125955588Y-91426270D01*
X125955586Y-91426272D01*
X125911859Y-91486456D01*
X125853768Y-91566411D01*
X125775128Y-91720752D01*
X125721597Y-91885502D01*
X125694500Y-92056589D01*
X125122446Y-92056589D01*
X125117246Y-92023757D01*
X125051557Y-91821588D01*
X124955051Y-91632184D01*
X124955049Y-91632181D01*
X124955048Y-91632179D01*
X124830109Y-91460213D01*
X124679786Y-91309890D01*
X124507820Y-91184951D01*
X124507115Y-91184591D01*
X124499054Y-91180485D01*
X124448259Y-91132512D01*
X124431463Y-91064692D01*
X124453999Y-90998556D01*
X124499054Y-90959515D01*
X124507816Y-90955051D01*
X124554473Y-90921153D01*
X124679786Y-90830109D01*
X124679788Y-90830106D01*
X124679792Y-90830104D01*
X124830104Y-90679792D01*
X124830106Y-90679788D01*
X124830109Y-90679786D01*
X124953902Y-90509397D01*
X124955051Y-90507816D01*
X125051557Y-90318412D01*
X125117246Y-90116243D01*
X125150500Y-89906287D01*
X125150500Y-89693713D01*
X125122446Y-89516589D01*
X125694500Y-89516589D01*
X125694500Y-89689811D01*
X125721598Y-89860901D01*
X125775127Y-90025645D01*
X125853768Y-90179988D01*
X125955586Y-90320128D01*
X126078072Y-90442614D01*
X126218212Y-90544432D01*
X126372555Y-90623073D01*
X126537299Y-90676602D01*
X126708389Y-90703700D01*
X126708390Y-90703700D01*
X127681610Y-90703700D01*
X127681611Y-90703700D01*
X127852701Y-90676602D01*
X128017445Y-90623073D01*
X128171788Y-90544432D01*
X128311928Y-90442614D01*
X128434414Y-90320128D01*
X128536232Y-90179988D01*
X128614873Y-90025645D01*
X128668402Y-89860901D01*
X128695500Y-89689811D01*
X128695500Y-89516589D01*
X128668402Y-89345499D01*
X128614873Y-89180755D01*
X128536232Y-89026412D01*
X128434414Y-88886272D01*
X128311928Y-88763786D01*
X128171788Y-88661968D01*
X128017445Y-88583327D01*
X127852701Y-88529798D01*
X127852699Y-88529797D01*
X127852698Y-88529797D01*
X127717871Y-88508443D01*
X127681611Y-88502700D01*
X126708389Y-88502700D01*
X126672129Y-88508443D01*
X126537302Y-88529797D01*
X126372552Y-88583328D01*
X126218211Y-88661968D01*
X126138256Y-88720059D01*
X126078072Y-88763786D01*
X126078070Y-88763788D01*
X126078069Y-88763788D01*
X125955588Y-88886269D01*
X125955588Y-88886270D01*
X125955586Y-88886272D01*
X125911859Y-88946456D01*
X125853768Y-89026411D01*
X125775128Y-89180752D01*
X125721597Y-89345502D01*
X125709669Y-89420814D01*
X125694500Y-89516589D01*
X125122446Y-89516589D01*
X125117246Y-89483757D01*
X125051557Y-89281588D01*
X124955051Y-89092184D01*
X124955049Y-89092181D01*
X124955048Y-89092179D01*
X124830109Y-88920213D01*
X124679786Y-88769890D01*
X124507820Y-88644951D01*
X124507115Y-88644591D01*
X124499054Y-88640485D01*
X124448259Y-88592512D01*
X124431463Y-88524692D01*
X124453999Y-88458556D01*
X124499054Y-88419515D01*
X124507816Y-88415051D01*
X124562876Y-88375048D01*
X124679786Y-88290109D01*
X124679788Y-88290106D01*
X124679792Y-88290104D01*
X124830104Y-88139792D01*
X124830106Y-88139788D01*
X124830109Y-88139786D01*
X124955048Y-87967820D01*
X124955047Y-87967820D01*
X124955051Y-87967816D01*
X125051557Y-87778412D01*
X125117246Y-87576243D01*
X125150500Y-87366287D01*
X125150500Y-87153713D01*
X125122446Y-86976589D01*
X125694500Y-86976589D01*
X125694500Y-87149810D01*
X125712109Y-87260993D01*
X125721598Y-87320901D01*
X125775127Y-87485645D01*
X125853768Y-87639988D01*
X125955586Y-87780128D01*
X126078072Y-87902614D01*
X126218212Y-88004432D01*
X126372555Y-88083073D01*
X126537299Y-88136602D01*
X126708389Y-88163700D01*
X126708390Y-88163700D01*
X127681610Y-88163700D01*
X127681611Y-88163700D01*
X127852701Y-88136602D01*
X128017445Y-88083073D01*
X128171788Y-88004432D01*
X128311928Y-87902614D01*
X128434414Y-87780128D01*
X128536232Y-87639988D01*
X128614873Y-87485645D01*
X128668402Y-87320901D01*
X128695500Y-87149811D01*
X128695500Y-86976589D01*
X128668402Y-86805499D01*
X128614873Y-86640755D01*
X128536232Y-86486412D01*
X128434414Y-86346272D01*
X128311928Y-86223786D01*
X128171788Y-86121968D01*
X128017445Y-86043327D01*
X127852701Y-85989798D01*
X127852699Y-85989797D01*
X127852698Y-85989797D01*
X127721271Y-85968981D01*
X127681611Y-85962700D01*
X126708389Y-85962700D01*
X126668728Y-85968981D01*
X126537302Y-85989797D01*
X126372552Y-86043328D01*
X126218211Y-86121968D01*
X126138256Y-86180059D01*
X126078072Y-86223786D01*
X126078070Y-86223788D01*
X126078069Y-86223788D01*
X125955588Y-86346269D01*
X125955588Y-86346270D01*
X125955586Y-86346272D01*
X125911859Y-86406456D01*
X125853768Y-86486411D01*
X125775128Y-86640752D01*
X125721597Y-86805502D01*
X125694500Y-86976589D01*
X125122446Y-86976589D01*
X125117246Y-86943757D01*
X125051557Y-86741588D01*
X124955051Y-86552184D01*
X124955049Y-86552181D01*
X124955048Y-86552179D01*
X124830109Y-86380213D01*
X124679786Y-86229890D01*
X124507820Y-86104951D01*
X124507115Y-86104591D01*
X124499054Y-86100485D01*
X124448259Y-86052512D01*
X124431463Y-85984692D01*
X124453999Y-85918556D01*
X124499054Y-85879515D01*
X124507816Y-85875051D01*
X124529789Y-85859086D01*
X124679786Y-85750109D01*
X124679788Y-85750106D01*
X124679792Y-85750104D01*
X124830104Y-85599792D01*
X124830106Y-85599788D01*
X124830109Y-85599786D01*
X124955048Y-85427820D01*
X124955047Y-85427820D01*
X124955051Y-85427816D01*
X125051557Y-85238412D01*
X125117246Y-85036243D01*
X125150500Y-84826287D01*
X125150500Y-84613713D01*
X125122446Y-84436589D01*
X125694500Y-84436589D01*
X125694500Y-84609811D01*
X125721598Y-84780901D01*
X125775127Y-84945645D01*
X125853768Y-85099988D01*
X125955586Y-85240128D01*
X126078072Y-85362614D01*
X126218212Y-85464432D01*
X126372555Y-85543073D01*
X126537299Y-85596602D01*
X126708389Y-85623700D01*
X126708390Y-85623700D01*
X127681610Y-85623700D01*
X127681611Y-85623700D01*
X127852701Y-85596602D01*
X128017445Y-85543073D01*
X128171788Y-85464432D01*
X128311928Y-85362614D01*
X128434414Y-85240128D01*
X128536232Y-85099988D01*
X128614873Y-84945645D01*
X128668402Y-84780901D01*
X128695500Y-84609811D01*
X128695500Y-84436589D01*
X128668402Y-84265499D01*
X128614873Y-84100755D01*
X128536232Y-83946412D01*
X128434414Y-83806272D01*
X128311928Y-83683786D01*
X128171788Y-83581968D01*
X128017445Y-83503327D01*
X127852701Y-83449798D01*
X127852699Y-83449797D01*
X127852698Y-83449797D01*
X127717871Y-83428443D01*
X127681611Y-83422700D01*
X126708389Y-83422700D01*
X126672129Y-83428443D01*
X126537302Y-83449797D01*
X126372552Y-83503328D01*
X126218211Y-83581968D01*
X126138256Y-83640059D01*
X126078072Y-83683786D01*
X126078070Y-83683788D01*
X126078069Y-83683788D01*
X125955588Y-83806269D01*
X125955588Y-83806270D01*
X125955586Y-83806272D01*
X125911859Y-83866456D01*
X125853768Y-83946411D01*
X125775128Y-84100752D01*
X125721597Y-84265502D01*
X125708248Y-84349786D01*
X125694500Y-84436589D01*
X125122446Y-84436589D01*
X125117246Y-84403757D01*
X125051557Y-84201588D01*
X124955051Y-84012184D01*
X124955049Y-84012181D01*
X124955048Y-84012179D01*
X124830109Y-83840213D01*
X124679786Y-83689890D01*
X124507820Y-83564951D01*
X124507115Y-83564591D01*
X124499054Y-83560485D01*
X124448259Y-83512512D01*
X124431463Y-83444692D01*
X124453999Y-83378556D01*
X124499054Y-83339515D01*
X124507816Y-83335051D01*
X124562876Y-83295048D01*
X124679786Y-83210109D01*
X124679788Y-83210106D01*
X124679792Y-83210104D01*
X124830104Y-83059792D01*
X124830106Y-83059788D01*
X124830109Y-83059786D01*
X124955048Y-82887820D01*
X124955047Y-82887820D01*
X124955051Y-82887816D01*
X125051557Y-82698412D01*
X125117246Y-82496243D01*
X125150500Y-82286287D01*
X125150500Y-82073713D01*
X125122446Y-81896589D01*
X125694500Y-81896589D01*
X125694500Y-82069811D01*
X125721598Y-82240901D01*
X125775127Y-82405645D01*
X125853768Y-82559988D01*
X125955586Y-82700128D01*
X126078072Y-82822614D01*
X126218212Y-82924432D01*
X126372555Y-83003073D01*
X126537299Y-83056602D01*
X126708389Y-83083700D01*
X126708390Y-83083700D01*
X127681610Y-83083700D01*
X127681611Y-83083700D01*
X127852701Y-83056602D01*
X128017445Y-83003073D01*
X128171788Y-82924432D01*
X128311928Y-82822614D01*
X128434414Y-82700128D01*
X128536232Y-82559988D01*
X128614873Y-82405645D01*
X128668402Y-82240901D01*
X128695500Y-82069811D01*
X128695500Y-81896589D01*
X151094500Y-81896589D01*
X151094500Y-82069811D01*
X151121598Y-82240901D01*
X151175127Y-82405645D01*
X151253768Y-82559988D01*
X151355586Y-82700128D01*
X151478072Y-82822614D01*
X151618212Y-82924432D01*
X151772555Y-83003073D01*
X151937299Y-83056602D01*
X152108389Y-83083700D01*
X152108390Y-83083700D01*
X153081610Y-83083700D01*
X153081611Y-83083700D01*
X153252701Y-83056602D01*
X153417445Y-83003073D01*
X153571788Y-82924432D01*
X153711928Y-82822614D01*
X153834414Y-82700128D01*
X153936232Y-82559988D01*
X154014873Y-82405645D01*
X154068402Y-82240901D01*
X154095500Y-82069811D01*
X154095500Y-81896589D01*
X154068402Y-81725499D01*
X154014873Y-81560755D01*
X153936232Y-81406412D01*
X153834414Y-81266272D01*
X153711928Y-81143786D01*
X153571788Y-81041968D01*
X153417445Y-80963327D01*
X153252701Y-80909798D01*
X153252699Y-80909797D01*
X153252698Y-80909797D01*
X153117871Y-80888443D01*
X153081611Y-80882700D01*
X152108389Y-80882700D01*
X152072129Y-80888443D01*
X151937302Y-80909797D01*
X151772552Y-80963328D01*
X151618211Y-81041968D01*
X151538256Y-81100059D01*
X151478072Y-81143786D01*
X151478070Y-81143788D01*
X151478069Y-81143788D01*
X151355588Y-81266269D01*
X151355588Y-81266270D01*
X151355586Y-81266272D01*
X151311859Y-81326456D01*
X151253768Y-81406411D01*
X151175128Y-81560752D01*
X151121597Y-81725502D01*
X151108248Y-81809786D01*
X151094500Y-81896589D01*
X128695500Y-81896589D01*
X128668402Y-81725499D01*
X128614873Y-81560755D01*
X128536232Y-81406412D01*
X128434414Y-81266272D01*
X128311928Y-81143786D01*
X128171788Y-81041968D01*
X128017445Y-80963327D01*
X127852701Y-80909798D01*
X127852699Y-80909797D01*
X127852698Y-80909797D01*
X127717871Y-80888443D01*
X127681611Y-80882700D01*
X126708389Y-80882700D01*
X126672129Y-80888443D01*
X126537302Y-80909797D01*
X126372552Y-80963328D01*
X126218211Y-81041968D01*
X126138256Y-81100059D01*
X126078072Y-81143786D01*
X126078070Y-81143788D01*
X126078069Y-81143788D01*
X125955588Y-81266269D01*
X125955588Y-81266270D01*
X125955586Y-81266272D01*
X125911859Y-81326456D01*
X125853768Y-81406411D01*
X125775128Y-81560752D01*
X125721597Y-81725502D01*
X125708248Y-81809786D01*
X125694500Y-81896589D01*
X125122446Y-81896589D01*
X125117246Y-81863757D01*
X125051557Y-81661588D01*
X124955051Y-81472184D01*
X124955049Y-81472181D01*
X124955048Y-81472179D01*
X124830109Y-81300213D01*
X124679786Y-81149890D01*
X124507820Y-81024951D01*
X124507115Y-81024591D01*
X124499054Y-81020485D01*
X124448259Y-80972512D01*
X124431463Y-80904692D01*
X124453999Y-80838556D01*
X124499054Y-80799515D01*
X124507816Y-80795051D01*
X124619736Y-80713737D01*
X124679786Y-80670109D01*
X124679788Y-80670106D01*
X124679792Y-80670104D01*
X124830104Y-80519792D01*
X124830106Y-80519788D01*
X124830109Y-80519786D01*
X124955048Y-80347820D01*
X124955047Y-80347820D01*
X124955051Y-80347816D01*
X125051557Y-80158412D01*
X125117246Y-79956243D01*
X125150500Y-79746287D01*
X125150500Y-79533713D01*
X125144165Y-79493713D01*
X125124747Y-79371115D01*
X125122446Y-79356589D01*
X125694500Y-79356589D01*
X125694500Y-79529811D01*
X125721598Y-79700901D01*
X125775127Y-79865645D01*
X125853768Y-80019988D01*
X125955586Y-80160128D01*
X126078072Y-80282614D01*
X126218212Y-80384432D01*
X126372555Y-80463073D01*
X126537299Y-80516602D01*
X126708389Y-80543700D01*
X126708390Y-80543700D01*
X127681610Y-80543700D01*
X127681611Y-80543700D01*
X127852701Y-80516602D01*
X128017445Y-80463073D01*
X128171788Y-80384432D01*
X128311928Y-80282614D01*
X128434414Y-80160128D01*
X128536232Y-80019988D01*
X128614873Y-79865645D01*
X128668402Y-79700901D01*
X128695500Y-79529811D01*
X128695500Y-79356589D01*
X151094500Y-79356589D01*
X151094500Y-79529811D01*
X151121598Y-79700901D01*
X151175127Y-79865645D01*
X151253768Y-80019988D01*
X151355586Y-80160128D01*
X151478072Y-80282614D01*
X151618212Y-80384432D01*
X151772555Y-80463073D01*
X151937299Y-80516602D01*
X152108389Y-80543700D01*
X152108390Y-80543700D01*
X153081610Y-80543700D01*
X153081611Y-80543700D01*
X153252701Y-80516602D01*
X153417445Y-80463073D01*
X153571788Y-80384432D01*
X153711928Y-80282614D01*
X153834414Y-80160128D01*
X153936232Y-80019988D01*
X154014873Y-79865645D01*
X154068402Y-79700901D01*
X154095500Y-79529811D01*
X154095500Y-79356589D01*
X154068402Y-79185499D01*
X154014873Y-79020755D01*
X153936232Y-78866412D01*
X153834414Y-78726272D01*
X153711928Y-78603786D01*
X153571788Y-78501968D01*
X153488881Y-78459725D01*
X153417447Y-78423328D01*
X153417446Y-78423327D01*
X153417445Y-78423327D01*
X153252701Y-78369798D01*
X153252699Y-78369797D01*
X153252698Y-78369797D01*
X153117871Y-78348443D01*
X153081611Y-78342700D01*
X152108389Y-78342700D01*
X152072129Y-78348443D01*
X151937302Y-78369797D01*
X151772552Y-78423328D01*
X151618211Y-78501968D01*
X151599369Y-78515658D01*
X151478072Y-78603786D01*
X151478070Y-78603788D01*
X151478069Y-78603788D01*
X151355588Y-78726269D01*
X151355588Y-78726270D01*
X151355586Y-78726272D01*
X151330925Y-78760215D01*
X151253768Y-78866411D01*
X151175128Y-79020752D01*
X151121597Y-79185502D01*
X151105382Y-79287883D01*
X151094500Y-79356589D01*
X128695500Y-79356589D01*
X128668402Y-79185499D01*
X128614873Y-79020755D01*
X128536232Y-78866412D01*
X128434414Y-78726272D01*
X128311928Y-78603786D01*
X128171788Y-78501968D01*
X128088881Y-78459725D01*
X128017447Y-78423328D01*
X128017446Y-78423327D01*
X128017445Y-78423327D01*
X127852701Y-78369798D01*
X127852699Y-78369797D01*
X127852698Y-78369797D01*
X127717871Y-78348443D01*
X127681611Y-78342700D01*
X126708389Y-78342700D01*
X126672129Y-78348443D01*
X126537302Y-78369797D01*
X126372552Y-78423328D01*
X126218211Y-78501968D01*
X126199369Y-78515658D01*
X126078072Y-78603786D01*
X126078070Y-78603788D01*
X126078069Y-78603788D01*
X125955588Y-78726269D01*
X125955588Y-78726270D01*
X125955586Y-78726272D01*
X125930925Y-78760215D01*
X125853768Y-78866411D01*
X125775128Y-79020752D01*
X125721597Y-79185502D01*
X125705382Y-79287883D01*
X125694500Y-79356589D01*
X125122446Y-79356589D01*
X125117246Y-79323760D01*
X125117246Y-79323757D01*
X125051557Y-79121588D01*
X124955051Y-78932184D01*
X124955049Y-78932181D01*
X124955048Y-78932179D01*
X124830109Y-78760213D01*
X124716569Y-78646673D01*
X124683084Y-78585350D01*
X124688068Y-78515658D01*
X124729940Y-78459725D01*
X124760915Y-78442810D01*
X124892331Y-78393796D01*
X125007546Y-78307546D01*
X125093796Y-78192331D01*
X125144091Y-78057483D01*
X125150500Y-77997873D01*
X125150499Y-76255335D01*
X125694500Y-76255335D01*
X125694500Y-77551070D01*
X125694501Y-77551076D01*
X125700908Y-77610683D01*
X125751202Y-77745528D01*
X125751206Y-77745535D01*
X125837452Y-77860744D01*
X125837455Y-77860747D01*
X125952664Y-77946993D01*
X125952671Y-77946997D01*
X126087517Y-77997291D01*
X126087516Y-77997291D01*
X126092846Y-77997864D01*
X126147127Y-78003700D01*
X128242872Y-78003699D01*
X128302483Y-77997291D01*
X128437331Y-77946996D01*
X128552546Y-77860746D01*
X128638796Y-77745531D01*
X128689091Y-77610683D01*
X128695500Y-77551073D01*
X128695499Y-76653199D01*
X151120884Y-76653199D01*
X151120885Y-76653200D01*
X152279314Y-76653200D01*
X152274920Y-76657594D01*
X152222259Y-76748806D01*
X152195000Y-76850539D01*
X152195000Y-76955861D01*
X152222259Y-77057594D01*
X152274920Y-77148806D01*
X152279314Y-77153200D01*
X151120885Y-77153200D01*
X151122085Y-77160784D01*
X151175591Y-77325455D01*
X151254195Y-77479724D01*
X151355967Y-77619802D01*
X151478397Y-77742232D01*
X151618475Y-77844004D01*
X151772742Y-77922608D01*
X151937415Y-77976114D01*
X152108429Y-78003200D01*
X152345000Y-78003200D01*
X152345000Y-77218886D01*
X152349394Y-77223280D01*
X152440606Y-77275941D01*
X152542339Y-77303200D01*
X152647661Y-77303200D01*
X152749394Y-77275941D01*
X152840606Y-77223280D01*
X152845000Y-77218886D01*
X152845000Y-78003200D01*
X153081571Y-78003200D01*
X153252584Y-77976114D01*
X153417257Y-77922608D01*
X153571524Y-77844004D01*
X153711602Y-77742232D01*
X153834032Y-77619802D01*
X153935804Y-77479724D01*
X154014408Y-77325455D01*
X154067914Y-77160784D01*
X154069115Y-77153200D01*
X152910686Y-77153200D01*
X152915080Y-77148806D01*
X152967741Y-77057594D01*
X152995000Y-76955861D01*
X152995000Y-76850539D01*
X152967741Y-76748806D01*
X152915080Y-76657594D01*
X152910686Y-76653200D01*
X154069115Y-76653200D01*
X154069115Y-76653199D01*
X154067914Y-76645615D01*
X154014408Y-76480944D01*
X153935804Y-76326675D01*
X153834032Y-76186597D01*
X153711602Y-76064167D01*
X153571524Y-75962395D01*
X153417257Y-75883791D01*
X153252584Y-75830285D01*
X153081571Y-75803200D01*
X152845000Y-75803200D01*
X152845000Y-76587514D01*
X152840606Y-76583120D01*
X152749394Y-76530459D01*
X152647661Y-76503200D01*
X152542339Y-76503200D01*
X152440606Y-76530459D01*
X152349394Y-76583120D01*
X152345000Y-76587514D01*
X152345000Y-75803200D01*
X152108429Y-75803200D01*
X151937415Y-75830285D01*
X151772742Y-75883791D01*
X151618475Y-75962395D01*
X151478397Y-76064167D01*
X151355967Y-76186597D01*
X151254195Y-76326675D01*
X151175591Y-76480944D01*
X151122085Y-76645615D01*
X151120884Y-76653199D01*
X128695499Y-76653199D01*
X128695499Y-76255328D01*
X128689091Y-76195717D01*
X128685689Y-76186597D01*
X128638797Y-76060871D01*
X128638793Y-76060864D01*
X128552547Y-75945655D01*
X128552544Y-75945652D01*
X128437335Y-75859406D01*
X128437328Y-75859402D01*
X128302482Y-75809108D01*
X128302483Y-75809108D01*
X128242883Y-75802701D01*
X128242881Y-75802700D01*
X128242873Y-75802700D01*
X128242864Y-75802700D01*
X126147129Y-75802700D01*
X126147123Y-75802701D01*
X126087516Y-75809108D01*
X125952671Y-75859402D01*
X125952664Y-75859406D01*
X125837455Y-75945652D01*
X125837452Y-75945655D01*
X125751206Y-76060864D01*
X125751202Y-76060871D01*
X125700908Y-76195717D01*
X125694501Y-76255316D01*
X125694501Y-76255323D01*
X125694500Y-76255335D01*
X125150499Y-76255335D01*
X125150499Y-76202128D01*
X125144091Y-76142517D01*
X125129210Y-76102620D01*
X125093797Y-76007671D01*
X125093793Y-76007664D01*
X125007547Y-75892455D01*
X125007544Y-75892452D01*
X124892335Y-75806206D01*
X124892328Y-75806202D01*
X124757482Y-75755908D01*
X124757483Y-75755908D01*
X124697883Y-75749501D01*
X124697881Y-75749500D01*
X124697873Y-75749500D01*
X124697864Y-75749500D01*
X122902129Y-75749500D01*
X122902123Y-75749501D01*
X122842516Y-75755908D01*
X122707671Y-75806202D01*
X122707664Y-75806206D01*
X122592455Y-75892452D01*
X122592452Y-75892455D01*
X122506206Y-76007664D01*
X122506202Y-76007671D01*
X122455908Y-76142517D01*
X122450189Y-76195716D01*
X122449501Y-76202123D01*
X122449500Y-76202135D01*
X104500500Y-76202135D01*
X104500500Y-75624500D01*
X104520185Y-75557461D01*
X104572989Y-75511706D01*
X104624500Y-75500500D01*
X154734192Y-75500500D01*
X154801231Y-75520185D01*
G37*
%TD.AperFunction*%
%TA.AperFunction,Conductor*%
G36*
X160005703Y-112636806D02*
G01*
X160012181Y-112642838D01*
X161457162Y-114087819D01*
X161490647Y-114149142D01*
X161485663Y-114218834D01*
X161443791Y-114274767D01*
X161378327Y-114299184D01*
X161369481Y-114299500D01*
X161221155Y-114299500D01*
X161066510Y-114330261D01*
X161066498Y-114330264D01*
X160920827Y-114390602D01*
X160920814Y-114390609D01*
X160789711Y-114478210D01*
X160789707Y-114478213D01*
X160678213Y-114589707D01*
X160678210Y-114589711D01*
X160590609Y-114720814D01*
X160590602Y-114720827D01*
X160530264Y-114866498D01*
X160530261Y-114866510D01*
X160499500Y-115021153D01*
X160499500Y-115178846D01*
X160530261Y-115333489D01*
X160530264Y-115333501D01*
X160590061Y-115477864D01*
X160599500Y-115525316D01*
X160599500Y-115548994D01*
X160599500Y-115548996D01*
X160599499Y-115548996D01*
X160626418Y-115684322D01*
X160626421Y-115684332D01*
X160679222Y-115811807D01*
X160755887Y-115926545D01*
X160755888Y-115926546D01*
X163939492Y-119110149D01*
X163972977Y-119171472D01*
X163974284Y-119217227D01*
X163949500Y-119373712D01*
X163949500Y-119586286D01*
X163977264Y-119761585D01*
X163982754Y-119796243D01*
X164045426Y-119989128D01*
X164048444Y-119998414D01*
X164144951Y-120187820D01*
X164269890Y-120359786D01*
X164420213Y-120510109D01*
X164592182Y-120635050D01*
X164600946Y-120639516D01*
X164651742Y-120687491D01*
X164668536Y-120755312D01*
X164645998Y-120821447D01*
X164600946Y-120860484D01*
X164592182Y-120864949D01*
X164420213Y-120989890D01*
X164269890Y-121140213D01*
X164144951Y-121312179D01*
X164048444Y-121501585D01*
X163982753Y-121703760D01*
X163949500Y-121913713D01*
X163949500Y-122126286D01*
X163977264Y-122301585D01*
X163982754Y-122336243D01*
X164030047Y-122481796D01*
X164048444Y-122538414D01*
X164144951Y-122727820D01*
X164269890Y-122899785D01*
X164269894Y-122899790D01*
X164420213Y-123050109D01*
X164592182Y-123175050D01*
X164600946Y-123179516D01*
X164651742Y-123227491D01*
X164668536Y-123295312D01*
X164645998Y-123361447D01*
X164600946Y-123400484D01*
X164592182Y-123404949D01*
X164420213Y-123529890D01*
X164269890Y-123680213D01*
X164144951Y-123852179D01*
X164048444Y-124041585D01*
X163982754Y-124243757D01*
X163982180Y-124246148D01*
X163981697Y-124247009D01*
X163981249Y-124248390D01*
X163980974Y-124248300D01*
X163949290Y-124304868D01*
X157339980Y-130914181D01*
X157313052Y-130928884D01*
X157287234Y-130945477D01*
X157281033Y-130946368D01*
X157278657Y-130947666D01*
X157252299Y-130950500D01*
X157211277Y-130950500D01*
X157144238Y-130930815D01*
X157098483Y-130878011D01*
X157088539Y-130808853D01*
X157093346Y-130788182D01*
X157116757Y-130716130D01*
X157116757Y-130716127D01*
X157150000Y-130506246D01*
X157150000Y-130293753D01*
X157116757Y-130083872D01*
X157116757Y-130083869D01*
X157051095Y-129881782D01*
X156954624Y-129692449D01*
X156915270Y-129638282D01*
X156915269Y-129638282D01*
X156282962Y-130270589D01*
X156265925Y-130207007D01*
X156200099Y-130092993D01*
X156107007Y-129999901D01*
X155992993Y-129934075D01*
X155929409Y-129917037D01*
X156561716Y-129284728D01*
X156507550Y-129245375D01*
X156497954Y-129240486D01*
X156447157Y-129192512D01*
X156430361Y-129124692D01*
X156452897Y-129058556D01*
X156497954Y-129019514D01*
X156507554Y-129014622D01*
X156561716Y-128975270D01*
X156561717Y-128975270D01*
X155929408Y-128342962D01*
X155992993Y-128325925D01*
X156107007Y-128260099D01*
X156200099Y-128167007D01*
X156265925Y-128052993D01*
X156282962Y-127989409D01*
X156915270Y-128621717D01*
X156915270Y-128621716D01*
X156954622Y-128567554D01*
X157051095Y-128378217D01*
X157116757Y-128176130D01*
X157116757Y-128176127D01*
X157150000Y-127966246D01*
X157150000Y-127753753D01*
X157116757Y-127543872D01*
X157116757Y-127543869D01*
X157051095Y-127341782D01*
X156954624Y-127152449D01*
X156915270Y-127098282D01*
X156915269Y-127098282D01*
X156282962Y-127730590D01*
X156265925Y-127667007D01*
X156200099Y-127552993D01*
X156107007Y-127459901D01*
X155992993Y-127394075D01*
X155929409Y-127377037D01*
X156561716Y-126744728D01*
X156507547Y-126705373D01*
X156507547Y-126705372D01*
X156498500Y-126700763D01*
X156447706Y-126652788D01*
X156430912Y-126584966D01*
X156453451Y-126518832D01*
X156498508Y-126479793D01*
X156507816Y-126475051D01*
X156587007Y-126417515D01*
X156679786Y-126350109D01*
X156679788Y-126350106D01*
X156679792Y-126350104D01*
X156830104Y-126199792D01*
X156830106Y-126199788D01*
X156830109Y-126199786D01*
X156955048Y-126027820D01*
X156955047Y-126027820D01*
X156955051Y-126027816D01*
X157051557Y-125838412D01*
X157117246Y-125636243D01*
X157150500Y-125426287D01*
X157150500Y-125213713D01*
X157125715Y-125057227D01*
X157134670Y-124987933D01*
X157160504Y-124950151D01*
X159644114Y-122466543D01*
X159720775Y-122351811D01*
X159727224Y-122336243D01*
X159773578Y-122224332D01*
X159773580Y-122224328D01*
X159800500Y-122088994D01*
X159800500Y-121951006D01*
X159800500Y-112730519D01*
X159820185Y-112663480D01*
X159872989Y-112617725D01*
X159942147Y-112607781D01*
X160005703Y-112636806D01*
G37*
%TD.AperFunction*%
%TA.AperFunction,Conductor*%
G36*
X164081703Y-108572041D02*
G01*
X164087066Y-108570955D01*
X164114870Y-108581780D01*
X164143492Y-108590185D01*
X164148427Y-108594846D01*
X164152174Y-108596305D01*
X164176769Y-108621613D01*
X164211842Y-108669887D01*
X164269892Y-108749788D01*
X164420213Y-108900109D01*
X164592179Y-109025048D01*
X164592181Y-109025049D01*
X164592184Y-109025051D01*
X164601493Y-109029794D01*
X164652290Y-109077766D01*
X164669087Y-109145587D01*
X164646552Y-109211722D01*
X164601505Y-109250760D01*
X164592446Y-109255376D01*
X164592440Y-109255380D01*
X164538282Y-109294727D01*
X164538282Y-109294728D01*
X165170591Y-109927037D01*
X165107007Y-109944075D01*
X164992993Y-110009901D01*
X164899901Y-110102993D01*
X164834075Y-110217007D01*
X164817037Y-110280591D01*
X164184728Y-109648282D01*
X164184727Y-109648282D01*
X164145380Y-109702439D01*
X164048904Y-109891782D01*
X163983242Y-110093869D01*
X163983242Y-110093872D01*
X163950000Y-110303753D01*
X163950000Y-110516246D01*
X163983242Y-110726127D01*
X163983242Y-110726130D01*
X164048904Y-110928217D01*
X164145375Y-111117550D01*
X164184728Y-111171716D01*
X164817037Y-110539408D01*
X164834075Y-110602993D01*
X164899901Y-110717007D01*
X164992993Y-110810099D01*
X165107007Y-110875925D01*
X165170589Y-110892962D01*
X164538282Y-111525269D01*
X164538282Y-111525270D01*
X164592449Y-111564624D01*
X164781782Y-111661095D01*
X164983870Y-111726757D01*
X165193754Y-111760000D01*
X165406246Y-111760000D01*
X165616127Y-111726757D01*
X165616133Y-111726756D01*
X165688180Y-111703346D01*
X165758021Y-111701349D01*
X165817855Y-111737429D01*
X165848684Y-111800129D01*
X165850500Y-111821276D01*
X165850500Y-115465500D01*
X165830815Y-115532539D01*
X165778011Y-115578294D01*
X165726500Y-115589500D01*
X164991519Y-115589500D01*
X164924480Y-115569815D01*
X164903838Y-115553181D01*
X160918995Y-111568338D01*
X160885510Y-111507015D01*
X160885059Y-111456464D01*
X160887673Y-111443327D01*
X160897224Y-111395312D01*
X160900500Y-111378843D01*
X160900500Y-111221155D01*
X160900499Y-111221153D01*
X160869738Y-111066510D01*
X160869737Y-111066503D01*
X160842102Y-110999786D01*
X160809397Y-110920827D01*
X160809390Y-110920814D01*
X160733382Y-110807060D01*
X160712504Y-110740382D01*
X160730989Y-110673002D01*
X160748799Y-110650492D01*
X162792474Y-108606819D01*
X162853797Y-108573334D01*
X162880155Y-108570500D01*
X164076453Y-108570500D01*
X164081703Y-108572041D01*
G37*
%TD.AperFunction*%
%TA.AperFunction,Conductor*%
G36*
X163855398Y-100233375D02*
G01*
X163868834Y-100234336D01*
X163886560Y-100247606D01*
X163906703Y-100256805D01*
X163913985Y-100268136D01*
X163924767Y-100276208D01*
X163932504Y-100296953D01*
X163944477Y-100315583D01*
X163947628Y-100337501D01*
X163949184Y-100341672D01*
X163949500Y-100350518D01*
X163949500Y-100356286D01*
X163970774Y-100490609D01*
X163982754Y-100566243D01*
X164032977Y-100720814D01*
X164048444Y-100768414D01*
X164144951Y-100957820D01*
X164269890Y-101129786D01*
X164420213Y-101280109D01*
X164592182Y-101405050D01*
X164600946Y-101409516D01*
X164651742Y-101457491D01*
X164668536Y-101525312D01*
X164645998Y-101591447D01*
X164600946Y-101630484D01*
X164592182Y-101634949D01*
X164420213Y-101759890D01*
X164269890Y-101910213D01*
X164144951Y-102082179D01*
X164048444Y-102271585D01*
X163982753Y-102473760D01*
X163949500Y-102683713D01*
X163949500Y-102896286D01*
X163969114Y-103020128D01*
X163982754Y-103106243D01*
X164027654Y-103244431D01*
X164048444Y-103308414D01*
X164144951Y-103497820D01*
X164269890Y-103669786D01*
X164420213Y-103820109D01*
X164592182Y-103945050D01*
X164600946Y-103949516D01*
X164651742Y-103997491D01*
X164668536Y-104065312D01*
X164645998Y-104131447D01*
X164600946Y-104170484D01*
X164592182Y-104174949D01*
X164420213Y-104299890D01*
X164269890Y-104450213D01*
X164144951Y-104622179D01*
X164048444Y-104811585D01*
X163982753Y-105013760D01*
X163949500Y-105223713D01*
X163949500Y-105436286D01*
X163969114Y-105560128D01*
X163982754Y-105646243D01*
X164027654Y-105784431D01*
X164048444Y-105848414D01*
X164144951Y-106037820D01*
X164269890Y-106209786D01*
X164420213Y-106360109D01*
X164592182Y-106485050D01*
X164600946Y-106489516D01*
X164651742Y-106537491D01*
X164668536Y-106605312D01*
X164645998Y-106671447D01*
X164600946Y-106710484D01*
X164592182Y-106714949D01*
X164420213Y-106839890D01*
X164269892Y-106990211D01*
X164212787Y-107068812D01*
X164176770Y-107118385D01*
X164121442Y-107161051D01*
X164076453Y-107169500D01*
X162469640Y-107169500D01*
X162334313Y-107196418D01*
X162334303Y-107196421D01*
X162206828Y-107249222D01*
X162092090Y-107325887D01*
X162092089Y-107325888D01*
X158912181Y-110505797D01*
X158850858Y-110539282D01*
X158781166Y-110534298D01*
X158725233Y-110492426D01*
X158700816Y-110426962D01*
X158700500Y-110418116D01*
X158700500Y-105351518D01*
X158720185Y-105284479D01*
X158736814Y-105263842D01*
X163737819Y-100262836D01*
X163757255Y-100252224D01*
X163773989Y-100237724D01*
X163787320Y-100235807D01*
X163799142Y-100229352D01*
X163821228Y-100230931D01*
X163843147Y-100227780D01*
X163855398Y-100233375D01*
G37*
%TD.AperFunction*%
%TA.AperFunction,Conductor*%
G36*
X163900398Y-80913374D02*
G01*
X163913834Y-80914335D01*
X163931560Y-80927605D01*
X163951703Y-80936804D01*
X163958985Y-80948135D01*
X163969767Y-80956207D01*
X163977504Y-80976952D01*
X163989477Y-80995582D01*
X163992628Y-81017500D01*
X163994184Y-81021671D01*
X163994500Y-81030517D01*
X163994500Y-81036286D01*
X164011526Y-81143788D01*
X164027754Y-81246243D01*
X164088170Y-81432184D01*
X164093444Y-81448414D01*
X164189951Y-81637820D01*
X164314890Y-81809786D01*
X164465213Y-81960109D01*
X164637182Y-82085050D01*
X164645946Y-82089516D01*
X164696742Y-82137491D01*
X164713536Y-82205312D01*
X164690998Y-82271447D01*
X164645946Y-82310484D01*
X164637182Y-82314949D01*
X164465213Y-82439890D01*
X164314890Y-82590213D01*
X164189951Y-82762179D01*
X164093444Y-82951585D01*
X164027753Y-83153760D01*
X163994500Y-83363713D01*
X163994500Y-83576286D01*
X164011526Y-83683788D01*
X164027754Y-83786243D01*
X164088170Y-83972184D01*
X164093444Y-83988414D01*
X164189951Y-84177820D01*
X164314890Y-84349786D01*
X164465213Y-84500109D01*
X164637182Y-84625050D01*
X164645946Y-84629516D01*
X164696742Y-84677491D01*
X164713536Y-84745312D01*
X164690998Y-84811447D01*
X164645946Y-84850484D01*
X164637182Y-84854949D01*
X164465213Y-84979890D01*
X164314890Y-85130213D01*
X164189951Y-85302179D01*
X164093444Y-85491585D01*
X164027753Y-85693760D01*
X163994500Y-85903713D01*
X163994500Y-86116286D01*
X164011526Y-86223788D01*
X164027754Y-86326243D01*
X164087555Y-86510292D01*
X164093444Y-86528414D01*
X164189951Y-86717820D01*
X164314890Y-86889786D01*
X164465213Y-87040109D01*
X164637182Y-87165050D01*
X164645946Y-87169516D01*
X164696742Y-87217491D01*
X164713536Y-87285312D01*
X164690998Y-87351447D01*
X164645946Y-87390484D01*
X164637182Y-87394949D01*
X164465213Y-87519890D01*
X164314890Y-87670213D01*
X164189951Y-87842179D01*
X164093444Y-88031585D01*
X164027753Y-88233760D01*
X163994500Y-88443713D01*
X163994500Y-88656286D01*
X164011526Y-88763788D01*
X164027754Y-88866243D01*
X164088170Y-89052184D01*
X164093444Y-89068414D01*
X164189951Y-89257820D01*
X164314890Y-89429786D01*
X164465213Y-89580109D01*
X164637179Y-89705048D01*
X164637181Y-89705049D01*
X164637184Y-89705051D01*
X164646493Y-89709794D01*
X164697290Y-89757766D01*
X164714087Y-89825587D01*
X164691552Y-89891722D01*
X164646505Y-89930760D01*
X164637446Y-89935376D01*
X164637440Y-89935380D01*
X164583282Y-89974727D01*
X164583282Y-89974728D01*
X165215591Y-90607037D01*
X165152007Y-90624075D01*
X165037993Y-90689901D01*
X164944901Y-90782993D01*
X164879075Y-90897007D01*
X164862037Y-90960591D01*
X164229728Y-90328282D01*
X164229727Y-90328282D01*
X164190380Y-90382439D01*
X164093904Y-90571782D01*
X164028242Y-90773869D01*
X164028242Y-90773872D01*
X163995000Y-90983753D01*
X163995000Y-91196246D01*
X164028242Y-91406127D01*
X164028242Y-91406130D01*
X164093904Y-91608217D01*
X164190375Y-91797550D01*
X164229728Y-91851716D01*
X164862037Y-91219408D01*
X164879075Y-91282993D01*
X164944901Y-91397007D01*
X165037993Y-91490099D01*
X165152007Y-91555925D01*
X165215589Y-91572962D01*
X164583282Y-92205269D01*
X164583282Y-92205270D01*
X164637449Y-92244624D01*
X164826782Y-92341095D01*
X165028870Y-92406757D01*
X165238754Y-92440000D01*
X165451246Y-92440000D01*
X165661127Y-92406757D01*
X165661133Y-92406756D01*
X165733180Y-92383346D01*
X165803021Y-92381349D01*
X165862855Y-92417429D01*
X165893684Y-92480129D01*
X165895500Y-92501276D01*
X165895500Y-96235500D01*
X165875815Y-96302539D01*
X165823011Y-96348294D01*
X165771500Y-96359500D01*
X164402129Y-96359500D01*
X164402123Y-96359501D01*
X164342516Y-96365908D01*
X164207671Y-96416202D01*
X164207664Y-96416206D01*
X164092455Y-96502452D01*
X164092452Y-96502455D01*
X164006206Y-96617664D01*
X164006202Y-96617671D01*
X163955908Y-96752517D01*
X163949501Y-96812116D01*
X163949500Y-96812135D01*
X163949500Y-98018480D01*
X163929815Y-98085519D01*
X163913181Y-98106161D01*
X157455890Y-104563451D01*
X157437968Y-104590274D01*
X157379222Y-104678193D01*
X157357326Y-104731054D01*
X157313485Y-104785457D01*
X157247190Y-104807521D01*
X157179491Y-104790241D01*
X157131881Y-104739103D01*
X157120294Y-104703001D01*
X157117246Y-104683757D01*
X157051557Y-104481588D01*
X156955051Y-104292184D01*
X156955049Y-104292181D01*
X156955048Y-104292179D01*
X156830109Y-104120213D01*
X156679786Y-103969890D01*
X156507820Y-103844951D01*
X156507115Y-103844591D01*
X156499054Y-103840485D01*
X156448259Y-103792512D01*
X156431463Y-103724692D01*
X156453999Y-103658556D01*
X156499054Y-103619515D01*
X156507816Y-103615051D01*
X156529789Y-103599086D01*
X156679786Y-103490109D01*
X156679788Y-103490106D01*
X156679792Y-103490104D01*
X156830104Y-103339792D01*
X156830106Y-103339788D01*
X156830109Y-103339786D01*
X156955048Y-103167820D01*
X156955047Y-103167820D01*
X156955051Y-103167816D01*
X157051557Y-102978412D01*
X157117246Y-102776243D01*
X157150500Y-102566287D01*
X157150500Y-102353713D01*
X157117246Y-102143757D01*
X157090946Y-102062817D01*
X157088952Y-101992977D01*
X157125032Y-101933144D01*
X157187733Y-101902316D01*
X157208878Y-101900500D01*
X158178844Y-101900500D01*
X158178845Y-101900499D01*
X158333497Y-101869737D01*
X158479179Y-101809394D01*
X158610289Y-101721789D01*
X158721789Y-101610289D01*
X158809394Y-101479179D01*
X158869737Y-101333497D01*
X158900500Y-101178842D01*
X158900500Y-101021158D01*
X158900500Y-101021155D01*
X158900499Y-101021153D01*
X158869738Y-100866510D01*
X158869737Y-100866503D01*
X158850812Y-100820814D01*
X158809397Y-100720827D01*
X158809390Y-100720814D01*
X158721789Y-100589711D01*
X158721786Y-100589707D01*
X158610292Y-100478213D01*
X158610288Y-100478210D01*
X158479185Y-100390609D01*
X158479172Y-100390602D01*
X158333501Y-100330264D01*
X158333489Y-100330261D01*
X158178845Y-100299500D01*
X158178842Y-100299500D01*
X158021158Y-100299500D01*
X158021155Y-100299500D01*
X157866510Y-100330261D01*
X157866498Y-100330264D01*
X157720827Y-100390602D01*
X157720814Y-100390609D01*
X157589125Y-100478602D01*
X157522447Y-100499480D01*
X157520234Y-100499500D01*
X157202379Y-100499500D01*
X157135340Y-100479815D01*
X157089585Y-100427011D01*
X157079641Y-100357853D01*
X157084445Y-100337192D01*
X157117246Y-100236243D01*
X157150500Y-100026287D01*
X157150500Y-99813713D01*
X157118305Y-99610444D01*
X157127259Y-99541154D01*
X157172255Y-99487702D01*
X157239007Y-99467062D01*
X157264970Y-99469432D01*
X157421155Y-99500500D01*
X157421158Y-99500500D01*
X157578844Y-99500500D01*
X157578845Y-99500499D01*
X157733497Y-99469737D01*
X157846166Y-99423067D01*
X157879172Y-99409397D01*
X157879172Y-99409396D01*
X157879179Y-99409394D01*
X158010289Y-99321789D01*
X158121789Y-99210289D01*
X158209394Y-99079179D01*
X158269737Y-98933497D01*
X158300500Y-98778842D01*
X158300500Y-98621158D01*
X158300500Y-98621155D01*
X158300499Y-98621153D01*
X158269738Y-98466510D01*
X158269737Y-98466503D01*
X158269735Y-98466498D01*
X158209397Y-98320827D01*
X158209390Y-98320814D01*
X158121789Y-98189711D01*
X158121786Y-98189707D01*
X158010292Y-98078213D01*
X158010288Y-98078210D01*
X157879185Y-97990609D01*
X157879172Y-97990602D01*
X157733501Y-97930264D01*
X157733489Y-97930261D01*
X157578845Y-97899500D01*
X157578842Y-97899500D01*
X157421158Y-97899500D01*
X157421155Y-97899500D01*
X157266510Y-97930261D01*
X157266502Y-97930263D01*
X157254671Y-97935164D01*
X157185201Y-97942631D01*
X157122723Y-97911356D01*
X157087071Y-97851266D01*
X157089289Y-97782284D01*
X157117246Y-97696243D01*
X157150500Y-97486287D01*
X157150500Y-97273713D01*
X157117246Y-97063757D01*
X157051557Y-96861588D01*
X156955051Y-96672184D01*
X156955049Y-96672181D01*
X156955048Y-96672179D01*
X156830109Y-96500213D01*
X156679786Y-96349890D01*
X156507820Y-96224951D01*
X156507115Y-96224591D01*
X156499054Y-96220485D01*
X156448259Y-96172512D01*
X156431463Y-96104692D01*
X156453999Y-96038556D01*
X156499054Y-95999515D01*
X156507816Y-95995051D01*
X156546250Y-95967127D01*
X156679786Y-95870109D01*
X156679788Y-95870106D01*
X156679792Y-95870104D01*
X156830104Y-95719792D01*
X156830106Y-95719788D01*
X156830109Y-95719786D01*
X156955048Y-95547820D01*
X156955047Y-95547820D01*
X156955051Y-95547816D01*
X157051557Y-95358412D01*
X157117246Y-95156243D01*
X157150500Y-94946287D01*
X157150500Y-94733713D01*
X157117246Y-94523757D01*
X157051557Y-94321588D01*
X156955051Y-94132184D01*
X156955049Y-94132181D01*
X156955048Y-94132179D01*
X156830109Y-93960213D01*
X156679786Y-93809890D01*
X156507820Y-93684951D01*
X156507115Y-93684591D01*
X156499054Y-93680485D01*
X156448259Y-93632512D01*
X156431463Y-93564692D01*
X156453999Y-93498556D01*
X156499054Y-93459515D01*
X156507816Y-93455051D01*
X156529789Y-93439086D01*
X156679786Y-93330109D01*
X156679788Y-93330106D01*
X156679792Y-93330104D01*
X156830104Y-93179792D01*
X156830106Y-93179788D01*
X156830109Y-93179786D01*
X156955048Y-93007820D01*
X156955047Y-93007820D01*
X156955051Y-93007816D01*
X157051557Y-92818412D01*
X157117246Y-92616243D01*
X157150500Y-92406287D01*
X157150500Y-92193713D01*
X157117246Y-91983757D01*
X157096796Y-91920821D01*
X157094801Y-91850985D01*
X157130881Y-91791152D01*
X157193582Y-91760323D01*
X157262181Y-91767946D01*
X157266503Y-91769737D01*
X157266506Y-91769737D01*
X157266511Y-91769739D01*
X157421153Y-91800499D01*
X157421156Y-91800500D01*
X157421158Y-91800500D01*
X157578844Y-91800500D01*
X157578845Y-91800499D01*
X157733497Y-91769737D01*
X157865534Y-91715046D01*
X157879172Y-91709397D01*
X157879172Y-91709396D01*
X157879179Y-91709394D01*
X158010289Y-91621789D01*
X158121789Y-91510289D01*
X158209394Y-91379179D01*
X158269737Y-91233497D01*
X158300500Y-91078842D01*
X158300500Y-90921158D01*
X158300500Y-90921155D01*
X158300499Y-90921153D01*
X158282388Y-90830104D01*
X158269737Y-90766503D01*
X158269735Y-90766498D01*
X158209397Y-90620827D01*
X158209390Y-90620814D01*
X158121789Y-90489711D01*
X158121786Y-90489707D01*
X158010292Y-90378213D01*
X158010288Y-90378210D01*
X157879185Y-90290609D01*
X157879172Y-90290602D01*
X157733501Y-90230264D01*
X157733489Y-90230261D01*
X157578845Y-90199500D01*
X157578842Y-90199500D01*
X157421158Y-90199500D01*
X157421155Y-90199500D01*
X157260914Y-90231374D01*
X157191323Y-90225147D01*
X157136145Y-90182284D01*
X157112901Y-90116394D01*
X157116150Y-90080806D01*
X157117243Y-90076251D01*
X157117246Y-90076243D01*
X157150500Y-89866287D01*
X157150500Y-89653713D01*
X157117246Y-89443757D01*
X157051557Y-89241588D01*
X156955051Y-89052184D01*
X156955049Y-89052181D01*
X156955048Y-89052179D01*
X156830109Y-88880213D01*
X156679786Y-88729890D01*
X156507820Y-88604951D01*
X156507115Y-88604591D01*
X156499054Y-88600485D01*
X156448259Y-88552512D01*
X156431463Y-88484692D01*
X156453999Y-88418556D01*
X156499054Y-88379515D01*
X156507816Y-88375051D01*
X156529789Y-88359086D01*
X156679786Y-88250109D01*
X156679788Y-88250106D01*
X156679792Y-88250104D01*
X156830104Y-88099792D01*
X156830106Y-88099788D01*
X156830109Y-88099786D01*
X156955048Y-87927820D01*
X156955047Y-87927820D01*
X156955051Y-87927816D01*
X157051557Y-87738412D01*
X157117246Y-87536243D01*
X157150500Y-87326287D01*
X157150500Y-87113713D01*
X157117246Y-86903757D01*
X157081523Y-86793816D01*
X157079529Y-86723977D01*
X157115609Y-86664144D01*
X157178310Y-86633316D01*
X157199455Y-86631500D01*
X157872996Y-86631500D01*
X157964040Y-86613389D01*
X158008328Y-86604580D01*
X158134836Y-86552179D01*
X158135807Y-86551777D01*
X158135808Y-86551776D01*
X158135811Y-86551775D01*
X158250543Y-86475114D01*
X163782819Y-80942835D01*
X163802255Y-80932223D01*
X163818989Y-80917723D01*
X163832320Y-80915806D01*
X163844142Y-80909351D01*
X163866228Y-80910930D01*
X163888147Y-80907779D01*
X163900398Y-80913374D01*
G37*
%TD.AperFunction*%
%TD*%
M02*
