%TF.GenerationSoftware,KiCad,Pcbnew,9.0.5*%
%TF.CreationDate,2026-01-28T15:10:35+09:00*%
%TF.ProjectId,esp32s3_serial_bridge_pcb,65737033-3273-4335-9f73-657269616c5f,V1.0*%
%TF.SameCoordinates,Original*%
%TF.FileFunction,Soldermask,Top*%
%TF.FilePolarity,Negative*%
%FSLAX46Y46*%
G04 Gerber Fmt 4.6, Leading zero omitted, Abs format (unit mm)*
G04 Created by KiCad (PCBNEW 9.0.5) date 2026-01-28 15:10:35*
%MOMM*%
%LPD*%
G01*
G04 APERTURE LIST*
G04 Aperture macros list*
%AMRoundRect*
0 Rectangle with rounded corners*
0 $1 Rounding radius*
0 $2 $3 $4 $5 $6 $7 $8 $9 X,Y pos of 4 corners*
0 Add a 4 corners polygon primitive as box body*
4,1,4,$2,$3,$4,$5,$6,$7,$8,$9,$2,$3,0*
0 Add four circle primitives for the rounded corners*
1,1,$1+$1,$2,$3*
1,1,$1+$1,$4,$5*
1,1,$1+$1,$6,$7*
1,1,$1+$1,$8,$9*
0 Add four rect primitives between the rounded corners*
20,1,$1+$1,$2,$3,$4,$5,0*
20,1,$1+$1,$4,$5,$6,$7,0*
20,1,$1+$1,$6,$7,$8,$9,0*
20,1,$1+$1,$8,$9,$2,$3,0*%
G04 Aperture macros list end*
%ADD10R,2.000000X1.200000*%
%ADD11O,2.000000X1.200000*%
%ADD12RoundRect,0.249999X-0.737501X-2.450001X0.737501X-2.450001X0.737501X2.450001X-0.737501X2.450001X0*%
%ADD13R,1.700000X1.700000*%
%ADD14C,1.700000*%
%ADD15RoundRect,0.250000X-1.100000X0.412500X-1.100000X-0.412500X1.100000X-0.412500X1.100000X0.412500X0*%
%ADD16R,1.500000X2.300000*%
%ADD17O,1.500000X2.300000*%
%ADD18RoundRect,0.250000X0.412500X1.100000X-0.412500X1.100000X-0.412500X-1.100000X0.412500X-1.100000X0*%
%ADD19R,3.500000X3.500000*%
%ADD20RoundRect,0.750000X1.000000X-0.750000X1.000000X0.750000X-1.000000X0.750000X-1.000000X-0.750000X0*%
%ADD21RoundRect,0.875000X0.875000X-0.875000X0.875000X0.875000X-0.875000X0.875000X-0.875000X-0.875000X0*%
G04 APERTURE END LIST*
D10*
%TO.C,U3*%
X127195000Y-76903200D03*
D11*
X127195000Y-79443200D03*
X127195000Y-81983200D03*
X127195000Y-84523200D03*
X127195000Y-87063200D03*
X127195000Y-89603200D03*
X127195000Y-92143200D03*
X127195000Y-94683200D03*
X127195000Y-97223200D03*
X127195000Y-99763200D03*
X127195000Y-102303200D03*
X127195000Y-104843200D03*
X127195000Y-107383200D03*
X127195000Y-109923200D03*
X127195000Y-112463200D03*
X127195000Y-115003200D03*
X127195000Y-117543200D03*
X127195000Y-120083200D03*
X127195000Y-122623200D03*
X127195000Y-125163200D03*
X127195000Y-127703200D03*
X127195000Y-130243200D03*
X152595000Y-130243200D03*
X152595000Y-127703200D03*
X152595000Y-125163200D03*
X152595000Y-122623200D03*
X152595000Y-120083200D03*
X152595000Y-117543200D03*
X152595000Y-115003200D03*
X152595000Y-112463200D03*
X152595000Y-109923200D03*
X152595000Y-107383200D03*
X152595000Y-104843200D03*
X152595000Y-102303200D03*
X152595000Y-99763200D03*
X152595000Y-97223200D03*
X152595000Y-94683200D03*
X152595000Y-92143200D03*
X152595000Y-89603200D03*
X152595000Y-87063200D03*
X152595000Y-84523200D03*
X152595000Y-81983200D03*
X152595000Y-79443200D03*
X152595000Y-76903200D03*
%TD*%
D12*
%TO.C,C1*%
X106525000Y-109100000D03*
X111800000Y-109100000D03*
%TD*%
D13*
%TO.C,J3*%
X165345000Y-78390000D03*
D14*
X165345000Y-80930000D03*
X165345000Y-83470000D03*
X165345000Y-86010000D03*
X165345000Y-88550000D03*
X165345000Y-91090000D03*
%TD*%
D13*
%TO.C,J5*%
X165300000Y-116940000D03*
D14*
X165300000Y-119480000D03*
X165300000Y-122020000D03*
X165300000Y-124560000D03*
X165300000Y-127100000D03*
X165300000Y-129640000D03*
%TD*%
D15*
%TO.C,C3*%
X119300000Y-127100000D03*
X119300000Y-130225000D03*
%TD*%
D16*
%TO.C,U2*%
X111252500Y-101170000D03*
D17*
X113792500Y-101170000D03*
X116332500Y-101170000D03*
%TD*%
D18*
%TO.C,C2*%
X118587500Y-108100000D03*
X115462500Y-108100000D03*
%TD*%
D13*
%TO.C,J1*%
X155800000Y-77060000D03*
D14*
X155800000Y-79600000D03*
X155800000Y-82140000D03*
X155800000Y-84680000D03*
X155800000Y-87220000D03*
X155800000Y-89760000D03*
X155800000Y-92300000D03*
X155800000Y-94840000D03*
X155800000Y-97380000D03*
X155800000Y-99920000D03*
X155800000Y-102460000D03*
X155800000Y-105000000D03*
X155800000Y-107540000D03*
X155800000Y-110080000D03*
X155800000Y-112620000D03*
X155800000Y-115160000D03*
X155800000Y-117700000D03*
X155800000Y-120240000D03*
X155800000Y-122780000D03*
X155800000Y-125320000D03*
X155800000Y-127860000D03*
X155800000Y-130400000D03*
%TD*%
D19*
%TO.C,J6*%
X109342500Y-118100000D03*
D20*
X109342500Y-124100000D03*
D21*
X114042500Y-121100000D03*
%TD*%
D13*
%TO.C,J4*%
X165300000Y-97710000D03*
D14*
X165300000Y-100250000D03*
X165300000Y-102790000D03*
X165300000Y-105330000D03*
X165300000Y-107870000D03*
X165300000Y-110410000D03*
%TD*%
D13*
%TO.C,J2*%
X123800000Y-77100000D03*
D14*
X123800000Y-79640000D03*
X123800000Y-82180000D03*
X123800000Y-84720000D03*
X123800000Y-87260000D03*
X123800000Y-89800000D03*
X123800000Y-92340000D03*
X123800000Y-94880000D03*
X123800000Y-97420000D03*
X123800000Y-99960000D03*
X123800000Y-102500000D03*
X123800000Y-105040000D03*
X123800000Y-107580000D03*
X123800000Y-110120000D03*
X123800000Y-112660000D03*
X123800000Y-115200000D03*
X123800000Y-117740000D03*
X123800000Y-120280000D03*
X123800000Y-122820000D03*
X123800000Y-125360000D03*
X123800000Y-127900000D03*
X123800000Y-130440000D03*
%TD*%
M02*
