%TF.GenerationSoftware,KiCad,Pcbnew,9.0.5*%
%TF.CreationDate,2026-01-28T15:10:35+09:00*%
%TF.ProjectId,esp32s3_serial_bridge_pcb,65737033-3273-4335-9f73-657269616c5f,V1.0*%
%TF.SameCoordinates,Original*%
%TF.FileFunction,Copper,L1,Top*%
%TF.FilePolarity,Positive*%
%FSLAX46Y46*%
G04 Gerber Fmt 4.6, Leading zero omitted, Abs format (unit mm)*
G04 Created by KiCad (PCBNEW 9.0.5) date 2026-01-28 15:10:35*
%MOMM*%
%LPD*%
G01*
G04 APERTURE LIST*
G04 Aperture macros list*
%AMRoundRect*
0 Rectangle with rounded corners*
0 $1 Rounding radius*
0 $2 $3 $4 $5 $6 $7 $8 $9 X,Y pos of 4 corners*
0 Add a 4 corners polygon primitive as box body*
4,1,4,$2,$3,$4,$5,$6,$7,$8,$9,$2,$3,0*
0 Add four circle primitives for the rounded corners*
1,1,$1+$1,$2,$3*
1,1,$1+$1,$4,$5*
1,1,$1+$1,$6,$7*
1,1,$1+$1,$8,$9*
0 Add four rect primitives between the rounded corners*
20,1,$1+$1,$2,$3,$4,$5,0*
20,1,$1+$1,$4,$5,$6,$7,0*
20,1,$1+$1,$6,$7,$8,$9,0*
20,1,$1+$1,$8,$9,$2,$3,0*%
G04 Aperture macros list end*
%TA.AperFunction,ComponentPad*%
%ADD10R,2.000000X1.200000*%
%TD*%
%TA.AperFunction,ComponentPad*%
%ADD11O,2.000000X1.200000*%
%TD*%
%TA.AperFunction,SMDPad,CuDef*%
%ADD12RoundRect,0.249999X-0.737501X-2.450001X0.737501X-2.450001X0.737501X2.450001X-0.737501X2.450001X0*%
%TD*%
%TA.AperFunction,ComponentPad*%
%ADD13R,1.700000X1.700000*%
%TD*%
%TA.AperFunction,ComponentPad*%
%ADD14C,1.700000*%
%TD*%
%TA.AperFunction,SMDPad,CuDef*%
%ADD15RoundRect,0.250000X-1.100000X0.412500X-1.100000X-0.412500X1.100000X-0.412500X1.100000X0.412500X0*%
%TD*%
%TA.AperFunction,ComponentPad*%
%ADD16R,1.500000X2.300000*%
%TD*%
%TA.AperFunction,ComponentPad*%
%ADD17O,1.500000X2.300000*%
%TD*%
%TA.AperFunction,SMDPad,CuDef*%
%ADD18RoundRect,0.250000X0.412500X1.100000X-0.412500X1.100000X-0.412500X-1.100000X0.412500X-1.100000X0*%
%TD*%
%TA.AperFunction,ComponentPad*%
%ADD19R,3.500000X3.500000*%
%TD*%
%TA.AperFunction,ComponentPad*%
%ADD20RoundRect,0.750000X1.000000X-0.750000X1.000000X0.750000X-1.000000X0.750000X-1.000000X-0.750000X0*%
%TD*%
%TA.AperFunction,ComponentPad*%
%ADD21RoundRect,0.875000X0.875000X-0.875000X0.875000X0.875000X-0.875000X0.875000X-0.875000X-0.875000X0*%
%TD*%
%TA.AperFunction,ViaPad*%
%ADD22C,0.600000*%
%TD*%
%TA.AperFunction,Conductor*%
%ADD23C,0.400000*%
%TD*%
%TA.AperFunction,Conductor*%
%ADD24C,1.270000*%
%TD*%
G04 APERTURE END LIST*
D10*
%TO.P,U3,1,3V3*%
%TO.N,+3.3V*%
X127195000Y-76903200D03*
D11*
%TO.P,U3,2,3V3*%
X127195000Y-79443200D03*
%TO.P,U3,3,CHIP_PU*%
%TO.N,RST*%
X127195000Y-81983200D03*
%TO.P,U3,4,GPIO4/ADC1_CH3*%
%TO.N,GPIO4*%
X127195000Y-84523200D03*
%TO.P,U3,5,GPIO5/ADC1_CH4*%
%TO.N,GPIO5*%
X127195000Y-87063200D03*
%TO.P,U3,6,GPIO6/ADC1_CH5*%
%TO.N,GPIO6*%
X127195000Y-89603200D03*
%TO.P,U3,7,GPIO7/ADC1_CH6*%
%TO.N,/GPIO7*%
X127195000Y-92143200D03*
%TO.P,U3,8,GPIO15/ADC2_CH4/32K_P*%
%TO.N,GPIO15_RTS0*%
X127195000Y-94683200D03*
%TO.P,U3,9,GPIO16/ADC2_CH5/32K_N*%
%TO.N,GPIO16_CTS0*%
X127195000Y-97223200D03*
%TO.P,U3,10,GPIO17/ADC2_CH6*%
%TO.N,GPIO17_TX1*%
X127195000Y-99763200D03*
%TO.P,U3,11,GPIO18/ADC2_CH7*%
%TO.N,GPIO18_RX1*%
X127195000Y-102303200D03*
%TO.P,U3,12,GPIO8/ADC1_CH7*%
%TO.N,GPIO8*%
X127195000Y-104843200D03*
%TO.P,U3,13,GPIO3/ADC1_CH2*%
%TO.N,GPIO3*%
X127195000Y-107383200D03*
%TO.P,U3,14,GPIO46*%
%TO.N,GPIO46*%
X127195000Y-109923200D03*
%TO.P,U3,15,GPIO9/ADC1_CH8*%
%TO.N,GPIO9*%
X127195000Y-112463200D03*
%TO.P,U3,16,GPIO10/ADC1_CH9*%
%TO.N,GPIO10*%
X127195000Y-115003200D03*
%TO.P,U3,17,GPIO11/ADC2_CH0*%
%TO.N,GPIO11*%
X127195000Y-117543200D03*
%TO.P,U3,18,GPIO12/ADC2_CH1*%
%TO.N,GPIO12*%
X127195000Y-120083200D03*
%TO.P,U3,19,GPIO13/ADC2_CH2*%
%TO.N,GPIO13*%
X127195000Y-122623200D03*
%TO.P,U3,20,GPIO14/ADC2_CH3*%
%TO.N,GPIO14*%
X127195000Y-125163200D03*
%TO.P,U3,21,5V*%
%TO.N,+5V*%
X127195000Y-127703200D03*
%TO.P,U3,22,GND*%
%TO.N,GND*%
X127195000Y-130243200D03*
%TO.P,U3,23,GND*%
X152595000Y-130243200D03*
%TO.P,U3,24,GND*%
X152595000Y-127703200D03*
%TO.P,U3,25,GPIO19/USB_D-*%
%TO.N,GPIO19_RTS1*%
X152595000Y-125163200D03*
%TO.P,U3,26,GPIO20/USB_D+*%
%TO.N,GPIO20_CTS1*%
X152595000Y-122623200D03*
%TO.P,U3,27,GPIO21*%
%TO.N,GPIO21*%
X152595000Y-120083200D03*
%TO.P,U3,28,GPIO47*%
%TO.N,GPIO47*%
X152595000Y-117543200D03*
%TO.P,U3,29,GPIO48*%
%TO.N,GPIO48*%
X152595000Y-115003200D03*
%TO.P,U3,30,GPIO45*%
%TO.N,GPIO45*%
X152595000Y-112463200D03*
%TO.P,U3,31,GPIO0*%
%TO.N,GPIO0*%
X152595000Y-109923200D03*
%TO.P,U3,32,GPIO35*%
%TO.N,GPIO35_RTS2*%
X152595000Y-107383200D03*
%TO.P,U3,33,GPIO36*%
%TO.N,GPIO36_CTS2*%
X152595000Y-104843200D03*
%TO.P,U3,34,GPIO37*%
%TO.N,GPIO37_TX2*%
X152595000Y-102303200D03*
%TO.P,U3,35,GPIO38*%
%TO.N,GPIO38_RX2*%
X152595000Y-99763200D03*
%TO.P,U3,36,GPIO39/MTCK*%
%TO.N,GPIO39*%
X152595000Y-97223200D03*
%TO.P,U3,37,GPIO40/MTDO*%
%TO.N,GPIO40*%
X152595000Y-94683200D03*
%TO.P,U3,38,GPIO41/MTDI*%
%TO.N,GPIO41*%
X152595000Y-92143200D03*
%TO.P,U3,39,GPIO42/MTMS*%
%TO.N,GPIO42*%
X152595000Y-89603200D03*
%TO.P,U3,40,GPIO2/ADC1_CH1*%
%TO.N,GPIO2*%
X152595000Y-87063200D03*
%TO.P,U3,41,GPIO1/ADC1_CH0*%
%TO.N,GPIO1_RX0*%
X152595000Y-84523200D03*
%TO.P,U3,42,GPIO44/U0RXD*%
%TO.N,GPIO44*%
X152595000Y-81983200D03*
%TO.P,U3,43,GPIO43/U0TXD*%
%TO.N,GPIO43_TX0*%
X152595000Y-79443200D03*
%TO.P,U3,44,GND*%
%TO.N,GND*%
X152595000Y-76903200D03*
%TD*%
D12*
%TO.P,C1,1*%
%TO.N,+12V*%
X106525000Y-109100000D03*
%TO.P,C1,2*%
%TO.N,GND*%
X111800000Y-109100000D03*
%TD*%
D13*
%TO.P,J3,1,Pin_1*%
%TO.N,GPIO16_CTS0*%
X165345000Y-78390000D03*
D14*
%TO.P,J3,2,Pin_2*%
%TO.N,GPIO43_TX0*%
X165345000Y-80930000D03*
%TO.P,J3,3,Pin_3*%
%TO.N,GPIO1_RX0*%
X165345000Y-83470000D03*
%TO.P,J3,4,Pin_4*%
%TO.N,+5V*%
X165345000Y-86010000D03*
%TO.P,J3,5,Pin_5*%
%TO.N,GPIO15_RTS0*%
X165345000Y-88550000D03*
%TO.P,J3,6,Pin_6*%
%TO.N,GND*%
X165345000Y-91090000D03*
%TD*%
D13*
%TO.P,J5,1,Pin_1*%
%TO.N,GPIO36_CTS2*%
X165300000Y-116940000D03*
D14*
%TO.P,J5,2,Pin_2*%
%TO.N,GPIO37_TX2*%
X165300000Y-119480000D03*
%TO.P,J5,3,Pin_3*%
%TO.N,GPIO38_RX2*%
X165300000Y-122020000D03*
%TO.P,J5,4,Pin_4*%
%TO.N,+5V*%
X165300000Y-124560000D03*
%TO.P,J5,5,Pin_5*%
%TO.N,GPIO35_RTS2*%
X165300000Y-127100000D03*
%TO.P,J5,6,Pin_6*%
%TO.N,GND*%
X165300000Y-129640000D03*
%TD*%
D15*
%TO.P,C3,1*%
%TO.N,+5V*%
X119300000Y-127100000D03*
%TO.P,C3,2*%
%TO.N,GND*%
X119300000Y-130225000D03*
%TD*%
D16*
%TO.P,U2,1,IN*%
%TO.N,+12V*%
X111252500Y-101170000D03*
D17*
%TO.P,U2,2,GND*%
%TO.N,GND*%
X113792500Y-101170000D03*
%TO.P,U2,3,OUT*%
%TO.N,+5V*%
X116332500Y-101170000D03*
%TD*%
D18*
%TO.P,C2,1*%
%TO.N,+5V*%
X118587500Y-108100000D03*
%TO.P,C2,2*%
%TO.N,GND*%
X115462500Y-108100000D03*
%TD*%
D13*
%TO.P,J1,1,Pin_1*%
%TO.N,GND*%
X155800000Y-77060000D03*
D14*
%TO.P,J1,2,Pin_2*%
%TO.N,GPIO43_TX0*%
X155800000Y-79600000D03*
%TO.P,J1,3,Pin_3*%
%TO.N,GPIO44*%
X155800000Y-82140000D03*
%TO.P,J1,4,Pin_4*%
%TO.N,GPIO1_RX0*%
X155800000Y-84680000D03*
%TO.P,J1,5,Pin_5*%
%TO.N,GPIO2*%
X155800000Y-87220000D03*
%TO.P,J1,6,Pin_6*%
%TO.N,GPIO42*%
X155800000Y-89760000D03*
%TO.P,J1,7,Pin_7*%
%TO.N,GPIO41*%
X155800000Y-92300000D03*
%TO.P,J1,8,Pin_8*%
%TO.N,GPIO40*%
X155800000Y-94840000D03*
%TO.P,J1,9,Pin_9*%
%TO.N,GPIO39*%
X155800000Y-97380000D03*
%TO.P,J1,10,Pin_10*%
%TO.N,GPIO38_RX2*%
X155800000Y-99920000D03*
%TO.P,J1,11,Pin_11*%
%TO.N,GPIO37_TX2*%
X155800000Y-102460000D03*
%TO.P,J1,12,Pin_12*%
%TO.N,GPIO36_CTS2*%
X155800000Y-105000000D03*
%TO.P,J1,13,Pin_13*%
%TO.N,GPIO35_RTS2*%
X155800000Y-107540000D03*
%TO.P,J1,14,Pin_14*%
%TO.N,GPIO0*%
X155800000Y-110080000D03*
%TO.P,J1,15,Pin_15*%
%TO.N,GPIO45*%
X155800000Y-112620000D03*
%TO.P,J1,16,Pin_16*%
%TO.N,GPIO48*%
X155800000Y-115160000D03*
%TO.P,J1,17,Pin_17*%
%TO.N,GPIO47*%
X155800000Y-117700000D03*
%TO.P,J1,18,Pin_18*%
%TO.N,GPIO21*%
X155800000Y-120240000D03*
%TO.P,J1,19,Pin_19*%
%TO.N,GPIO20_CTS1*%
X155800000Y-122780000D03*
%TO.P,J1,20,Pin_20*%
%TO.N,GPIO19_RTS1*%
X155800000Y-125320000D03*
%TO.P,J1,21,Pin_21*%
%TO.N,GND*%
X155800000Y-127860000D03*
%TO.P,J1,22,Pin_22*%
X155800000Y-130400000D03*
%TD*%
D19*
%TO.P,J6,1*%
%TO.N,+12V*%
X109342500Y-118100000D03*
D20*
%TO.P,J6,2*%
%TO.N,GND*%
X109342500Y-124100000D03*
D21*
%TO.P,J6,3*%
%TO.N,unconnected-(J6-Pad3)*%
X114042500Y-121100000D03*
%TD*%
D13*
%TO.P,J4,1,Pin_1*%
%TO.N,GPIO20_CTS1*%
X165300000Y-97710000D03*
D14*
%TO.P,J4,2,Pin_2*%
%TO.N,GPIO17_TX1*%
X165300000Y-100250000D03*
%TO.P,J4,3,Pin_3*%
%TO.N,GPIO18_RX1*%
X165300000Y-102790000D03*
%TO.P,J4,4,Pin_4*%
%TO.N,+5V*%
X165300000Y-105330000D03*
%TO.P,J4,5,Pin_5*%
%TO.N,GPIO19_RTS1*%
X165300000Y-107870000D03*
%TO.P,J4,6,Pin_6*%
%TO.N,GND*%
X165300000Y-110410000D03*
%TD*%
D13*
%TO.P,J2,1,Pin_1*%
%TO.N,+3.3V*%
X123800000Y-77100000D03*
D14*
%TO.P,J2,2,Pin_2*%
X123800000Y-79640000D03*
%TO.P,J2,3,Pin_3*%
%TO.N,RST*%
X123800000Y-82180000D03*
%TO.P,J2,4,Pin_4*%
%TO.N,GPIO4*%
X123800000Y-84720000D03*
%TO.P,J2,5,Pin_5*%
%TO.N,GPIO5*%
X123800000Y-87260000D03*
%TO.P,J2,6,Pin_6*%
%TO.N,GPIO6*%
X123800000Y-89800000D03*
%TO.P,J2,7,Pin_7*%
%TO.N,/GPIO7*%
X123800000Y-92340000D03*
%TO.P,J2,8,Pin_8*%
%TO.N,GPIO15_RTS0*%
X123800000Y-94880000D03*
%TO.P,J2,9,Pin_9*%
%TO.N,GPIO16_CTS0*%
X123800000Y-97420000D03*
%TO.P,J2,10,Pin_10*%
%TO.N,GPIO17_TX1*%
X123800000Y-99960000D03*
%TO.P,J2,11,Pin_11*%
%TO.N,GPIO18_RX1*%
X123800000Y-102500000D03*
%TO.P,J2,12,Pin_12*%
%TO.N,GPIO8*%
X123800000Y-105040000D03*
%TO.P,J2,13,Pin_13*%
%TO.N,GPIO3*%
X123800000Y-107580000D03*
%TO.P,J2,14,Pin_14*%
%TO.N,GPIO46*%
X123800000Y-110120000D03*
%TO.P,J2,15,Pin_15*%
%TO.N,GPIO9*%
X123800000Y-112660000D03*
%TO.P,J2,16,Pin_16*%
%TO.N,GPIO10*%
X123800000Y-115200000D03*
%TO.P,J2,17,Pin_17*%
%TO.N,GPIO11*%
X123800000Y-117740000D03*
%TO.P,J2,18,Pin_18*%
%TO.N,GPIO12*%
X123800000Y-120280000D03*
%TO.P,J2,19,Pin_19*%
%TO.N,GPIO13*%
X123800000Y-122820000D03*
%TO.P,J2,20,Pin_20*%
%TO.N,GPIO14*%
X123800000Y-125360000D03*
%TO.P,J2,21,Pin_21*%
%TO.N,+5V*%
X123800000Y-127900000D03*
%TO.P,J2,22,Pin_22*%
%TO.N,GND*%
X123800000Y-130440000D03*
%TD*%
D22*
%TO.N,GND*%
X159200000Y-81800000D03*
%TO.N,GPIO16_CTS0*%
X148500000Y-86000000D03*
X134500000Y-89800000D03*
%TO.N,GPIO18_RX1*%
X142000000Y-101200000D03*
%TO.N,GPIO17_TX1*%
X142000000Y-98700000D03*
X157500000Y-98700000D03*
%TO.N,GPIO15_RTS0*%
X142000000Y-91000000D03*
X157500000Y-91000000D03*
%TO.N,GND*%
X161000000Y-106500000D03*
X160000000Y-108000000D03*
X162000000Y-104000000D03*
X163000000Y-122000000D03*
X160000000Y-100000000D03*
X159000000Y-88000000D03*
%TO.N,GPIO18_RX1*%
X158100000Y-101100000D03*
%TO.N,GPIO36_CTS2*%
X160100000Y-111300000D03*
%TO.N,GPIO37_TX2*%
X161300000Y-115100000D03*
%TD*%
D23*
%TO.N,GPIO16_CTS0*%
X148500000Y-86000000D02*
X138300000Y-86000000D01*
X138300000Y-86000000D02*
X134500000Y-89800000D01*
%TO.N,GPIO18_RX1*%
X127496800Y-102303200D02*
X127195000Y-102303200D01*
X128600000Y-101200000D02*
X127496800Y-102303200D01*
X142000000Y-101200000D02*
X128600000Y-101200000D01*
%TO.N,GPIO17_TX1*%
X128258200Y-98700000D02*
X127195000Y-99763200D01*
X142000000Y-98700000D02*
X128258200Y-98700000D01*
X157531000Y-98669000D02*
X157500000Y-98700000D01*
X163719000Y-98669000D02*
X157531000Y-98669000D01*
%TO.N,GPIO15_RTS0*%
X141989000Y-91011000D02*
X130867200Y-91011000D01*
X142000000Y-91000000D02*
X141989000Y-91011000D01*
X162884000Y-91011000D02*
X157511000Y-91011000D01*
X157511000Y-91011000D02*
X157500000Y-91000000D01*
%TO.N,GPIO35_RTS2*%
X158800000Y-110540000D02*
X155800000Y-107540000D01*
X158800000Y-120600000D02*
X158800000Y-110540000D01*
X165300000Y-127100000D02*
X158800000Y-120600000D01*
D24*
%TO.N,+3.3V*%
X123800000Y-77100000D02*
X123800000Y-79640000D01*
D23*
%TO.N,GPIO18_RX1*%
X163610000Y-101100000D02*
X158100000Y-101100000D01*
X165300000Y-102790000D02*
X163610000Y-101100000D01*
%TO.N,GPIO36_CTS2*%
X160100000Y-109300000D02*
X160100000Y-111300000D01*
X155800000Y-105000000D02*
X160100000Y-109300000D01*
%TO.N,GPIO37_TX2*%
X161300000Y-107960000D02*
X161300000Y-115100000D01*
X155800000Y-102460000D02*
X161300000Y-107960000D01*
%TO.N,GPIO38_RX2*%
X162500000Y-106620000D02*
X162500000Y-119220000D01*
X155800000Y-99920000D02*
X162500000Y-106620000D01*
X162500000Y-119220000D02*
X165300000Y-122020000D01*
%TO.N,GPIO17_TX1*%
X163719000Y-98669000D02*
X165300000Y-100250000D01*
%TO.N,GPIO1_RX0*%
X164135000Y-84680000D02*
X155800000Y-84680000D01*
X165345000Y-83470000D02*
X164135000Y-84680000D01*
%TO.N,GPIO43_TX0*%
X164015000Y-79600000D02*
X155800000Y-79600000D01*
X165345000Y-80930000D02*
X164015000Y-79600000D01*
%TO.N,GPIO15_RTS0*%
X162884000Y-91011000D02*
X165345000Y-88550000D01*
X127195000Y-94683200D02*
X130867200Y-91011000D01*
D24*
%TO.N,GND*%
X167031000Y-76704000D02*
X167031000Y-89404000D01*
X167031000Y-89404000D02*
X165345000Y-91090000D01*
X156156000Y-76704000D02*
X167031000Y-76704000D01*
X155800000Y-77060000D02*
X156156000Y-76704000D01*
X166986000Y-108724000D02*
X165300000Y-110410000D01*
X166986000Y-92731000D02*
X166986000Y-108724000D01*
X165345000Y-91090000D02*
X166986000Y-92731000D01*
X166986000Y-127954000D02*
X165300000Y-129640000D01*
X166986000Y-112096000D02*
X166986000Y-127954000D01*
X165300000Y-110410000D02*
X166986000Y-112096000D01*
X127195000Y-130243200D02*
X152595000Y-130243200D01*
X152595000Y-127703200D02*
X152595000Y-130243200D01*
%TO.N,GPIO14*%
X123996800Y-125163200D02*
X123800000Y-125360000D01*
X127195000Y-125163200D02*
X123996800Y-125163200D01*
%TO.N,GPIO13*%
X123996800Y-122623200D02*
X123800000Y-122820000D01*
X127195000Y-122623200D02*
X123996800Y-122623200D01*
%TO.N,GPIO12*%
X123996800Y-120083200D02*
X123800000Y-120280000D01*
X127195000Y-120083200D02*
X123996800Y-120083200D01*
%TO.N,GPIO11*%
X123996800Y-117543200D02*
X123800000Y-117740000D01*
X127195000Y-117543200D02*
X123996800Y-117543200D01*
%TO.N,GPIO10*%
X123996800Y-115003200D02*
X123800000Y-115200000D01*
X127195000Y-115003200D02*
X123996800Y-115003200D01*
%TO.N,GPIO9*%
X123996800Y-112463200D02*
X123800000Y-112660000D01*
X127195000Y-112463200D02*
X123996800Y-112463200D01*
%TO.N,GPIO46*%
X123996800Y-109923200D02*
X123800000Y-110120000D01*
X127195000Y-109923200D02*
X123996800Y-109923200D01*
%TO.N,GPIO3*%
X123996800Y-107383200D02*
X123800000Y-107580000D01*
X127195000Y-107383200D02*
X123996800Y-107383200D01*
%TO.N,GPIO8*%
X123996800Y-104843200D02*
X123800000Y-105040000D01*
X127195000Y-104843200D02*
X123996800Y-104843200D01*
%TO.N,GPIO18_RX1*%
X123996800Y-102303200D02*
X123800000Y-102500000D01*
X127195000Y-102303200D02*
X123996800Y-102303200D01*
%TO.N,GPIO17_TX1*%
X123996800Y-99763200D02*
X123800000Y-99960000D01*
X127195000Y-99763200D02*
X123996800Y-99763200D01*
%TO.N,GPIO16_CTS0*%
X123996800Y-97223200D02*
X123800000Y-97420000D01*
X127195000Y-97223200D02*
X123996800Y-97223200D01*
%TO.N,GPIO15_RTS0*%
X123996800Y-94683200D02*
X123800000Y-94880000D01*
X127195000Y-94683200D02*
X123996800Y-94683200D01*
%TO.N,/GPIO7*%
X123996800Y-92143200D02*
X123800000Y-92340000D01*
X127195000Y-92143200D02*
X123996800Y-92143200D01*
%TO.N,GPIO6*%
X123996800Y-89603200D02*
X123800000Y-89800000D01*
X127195000Y-89603200D02*
X123996800Y-89603200D01*
%TO.N,GPIO5*%
X123996800Y-87063200D02*
X123800000Y-87260000D01*
X127195000Y-87063200D02*
X123996800Y-87063200D01*
%TO.N,GPIO4*%
X127195000Y-84523200D02*
X123996800Y-84523200D01*
X123996800Y-84523200D02*
X123800000Y-84720000D01*
%TO.N,RST*%
X123996800Y-81983200D02*
X123800000Y-82180000D01*
X127195000Y-81983200D02*
X123996800Y-81983200D01*
%TO.N,+3.3V*%
X123996800Y-79443200D02*
X123800000Y-79640000D01*
X127195000Y-79443200D02*
X123996800Y-79443200D01*
X123996800Y-76903200D02*
X123800000Y-77100000D01*
X127195000Y-76903200D02*
X123996800Y-76903200D01*
%TO.N,GND*%
X155800000Y-130400000D02*
X164540000Y-130400000D01*
X164540000Y-130400000D02*
X165300000Y-129640000D01*
X152751800Y-130400000D02*
X152595000Y-130243200D01*
X155800000Y-130400000D02*
X152751800Y-130400000D01*
X155800000Y-127860000D02*
X152751800Y-127860000D01*
X152751800Y-127860000D02*
X152595000Y-127703200D01*
%TO.N,GPIO19_RTS1*%
X152751800Y-125320000D02*
X152595000Y-125163200D01*
X155800000Y-125320000D02*
X152751800Y-125320000D01*
%TO.N,GPIO20_CTS1*%
X152751800Y-122780000D02*
X152595000Y-122623200D01*
X155800000Y-122780000D02*
X152751800Y-122780000D01*
%TO.N,GPIO21*%
X152751800Y-120240000D02*
X152595000Y-120083200D01*
X155800000Y-120240000D02*
X152751800Y-120240000D01*
%TO.N,GPIO47*%
X152751800Y-117700000D02*
X152595000Y-117543200D01*
X155800000Y-117700000D02*
X152751800Y-117700000D01*
%TO.N,GPIO48*%
X152751800Y-115160000D02*
X152595000Y-115003200D01*
X155800000Y-115160000D02*
X152751800Y-115160000D01*
%TO.N,GPIO45*%
X152751800Y-112620000D02*
X152595000Y-112463200D01*
X155800000Y-112620000D02*
X152751800Y-112620000D01*
%TO.N,GPIO0*%
X152751800Y-110080000D02*
X152595000Y-109923200D01*
X155800000Y-110080000D02*
X152751800Y-110080000D01*
%TO.N,GPIO35_RTS2*%
X152751800Y-107540000D02*
X152595000Y-107383200D01*
X155800000Y-107540000D02*
X152751800Y-107540000D01*
%TO.N,GPIO36_CTS2*%
X152751800Y-105000000D02*
X152595000Y-104843200D01*
X155800000Y-105000000D02*
X152751800Y-105000000D01*
%TO.N,GPIO37_TX2*%
X152751800Y-102460000D02*
X152595000Y-102303200D01*
X155800000Y-102460000D02*
X152751800Y-102460000D01*
%TO.N,GPIO38_RX2*%
X152751800Y-99920000D02*
X152595000Y-99763200D01*
X155800000Y-99920000D02*
X152751800Y-99920000D01*
%TO.N,GPIO39*%
X152751800Y-97380000D02*
X152595000Y-97223200D01*
X155800000Y-97380000D02*
X152751800Y-97380000D01*
%TO.N,GPIO40*%
X152751800Y-94840000D02*
X152595000Y-94683200D01*
X155800000Y-94840000D02*
X152751800Y-94840000D01*
%TO.N,GPIO41*%
X152751800Y-92300000D02*
X152595000Y-92143200D01*
X155800000Y-92300000D02*
X152751800Y-92300000D01*
%TO.N,GPIO42*%
X152751800Y-89760000D02*
X152595000Y-89603200D01*
X155800000Y-89760000D02*
X152751800Y-89760000D01*
%TO.N,GPIO2*%
X152751800Y-87220000D02*
X152595000Y-87063200D01*
X155800000Y-87220000D02*
X152751800Y-87220000D01*
%TO.N,GPIO1_RX0*%
X152751800Y-84680000D02*
X152595000Y-84523200D01*
X155800000Y-84680000D02*
X152751800Y-84680000D01*
%TO.N,GPIO44*%
X152751800Y-82140000D02*
X152595000Y-81983200D01*
X155800000Y-82140000D02*
X152751800Y-82140000D01*
%TO.N,GPIO43_TX0*%
X152595000Y-79443200D02*
X155643200Y-79443200D01*
X155643200Y-79443200D02*
X155800000Y-79600000D01*
%TO.N,GND*%
X152751800Y-77060000D02*
X152595000Y-76903200D01*
X155800000Y-77060000D02*
X152751800Y-77060000D01*
X123996800Y-130243200D02*
X123800000Y-130440000D01*
X127195000Y-130243200D02*
X123996800Y-130243200D01*
X123585000Y-130225000D02*
X123800000Y-130440000D01*
X119300000Y-130225000D02*
X123585000Y-130225000D01*
X115219518Y-126144518D02*
X115219518Y-124100000D01*
X119300000Y-130225000D02*
X115219518Y-126144518D01*
%TO.N,+5V*%
X116332500Y-105845000D02*
X118587500Y-108100000D01*
X116332500Y-101170000D02*
X116332500Y-105845000D01*
%TO.N,GND*%
X116628500Y-122691018D02*
X115219518Y-124100000D01*
X116628500Y-113928500D02*
X116628500Y-122691018D01*
X115219518Y-124100000D02*
X109342500Y-124100000D01*
X111800000Y-109100000D02*
X116628500Y-113928500D01*
X113792500Y-106430000D02*
X115462500Y-108100000D01*
X113792500Y-101170000D02*
X113792500Y-106430000D01*
X113792500Y-107107500D02*
X111800000Y-109100000D01*
X113792500Y-101170000D02*
X113792500Y-107107500D01*
%TO.N,+12V*%
X111252500Y-104372500D02*
X106525000Y-109100000D01*
X111252500Y-101170000D02*
X111252500Y-104372500D01*
X109342500Y-111917500D02*
X106525000Y-109100000D01*
X109342500Y-118100000D02*
X109342500Y-111917500D01*
%TO.N,+5V*%
X126998200Y-127900000D02*
X127195000Y-127703200D01*
X123800000Y-127900000D02*
X126998200Y-127900000D01*
X123800000Y-127900000D02*
X120100000Y-127900000D01*
X120100000Y-127900000D02*
X119300000Y-127100000D01*
X118587500Y-126387500D02*
X119300000Y-127100000D01*
X118587500Y-108100000D02*
X118587500Y-126387500D01*
%TD*%
%TA.AperFunction,Conductor*%
%TO.N,GND*%
G36*
X154801231Y-75520185D02*
G01*
X154846986Y-75572989D01*
X154856930Y-75642147D01*
X154827905Y-75705703D01*
X154777525Y-75740682D01*
X154707913Y-75766645D01*
X154707906Y-75766649D01*
X154592812Y-75852809D01*
X154592809Y-75852812D01*
X154506649Y-75967906D01*
X154506645Y-75967913D01*
X154456403Y-76102620D01*
X154456401Y-76102627D01*
X154450000Y-76162155D01*
X154450000Y-76810000D01*
X155366988Y-76810000D01*
X155334075Y-76867007D01*
X155300000Y-76994174D01*
X155300000Y-77125826D01*
X155334075Y-77252993D01*
X155366988Y-77310000D01*
X154450000Y-77310000D01*
X154450000Y-77957844D01*
X154456401Y-78017372D01*
X154456403Y-78017379D01*
X154502275Y-78140367D01*
X154507259Y-78210058D01*
X154473774Y-78271381D01*
X154412451Y-78304866D01*
X154386093Y-78307700D01*
X152505634Y-78307700D01*
X152461501Y-78314690D01*
X152329100Y-78335660D01*
X152326116Y-78336630D01*
X152287796Y-78342700D01*
X152108389Y-78342700D01*
X152072129Y-78348443D01*
X151937302Y-78369797D01*
X151772552Y-78423328D01*
X151618211Y-78501968D01*
X151559036Y-78544962D01*
X151478072Y-78603786D01*
X151478070Y-78603788D01*
X151478069Y-78603788D01*
X151355588Y-78726269D01*
X151355588Y-78726270D01*
X151355586Y-78726272D01*
X151319820Y-78775500D01*
X151253768Y-78866411D01*
X151175128Y-79020752D01*
X151121597Y-79185502D01*
X151105382Y-79287883D01*
X151094500Y-79356589D01*
X151094500Y-79529811D01*
X151121598Y-79700901D01*
X151175127Y-79865645D01*
X151253768Y-80019988D01*
X151355586Y-80160128D01*
X151478072Y-80282614D01*
X151618212Y-80384432D01*
X151772555Y-80463073D01*
X151937299Y-80516602D01*
X152108389Y-80543700D01*
X152287796Y-80543700D01*
X152296484Y-80546251D01*
X152305447Y-80544963D01*
X152326116Y-80549770D01*
X152328964Y-80550694D01*
X152329103Y-80550740D01*
X152505634Y-80578700D01*
X154817442Y-80578700D01*
X154884481Y-80598385D01*
X154905123Y-80615019D01*
X154920213Y-80630109D01*
X155092182Y-80755050D01*
X155100946Y-80759516D01*
X155108927Y-80767054D01*
X155119204Y-80770916D01*
X155133878Y-80790620D01*
X155151742Y-80807491D01*
X155154380Y-80818147D01*
X155160938Y-80826952D01*
X155162630Y-80851463D01*
X155168536Y-80875312D01*
X155164994Y-80885703D01*
X155165751Y-80896655D01*
X155153924Y-80918188D01*
X155145998Y-80941447D01*
X155136518Y-80949880D01*
X155132116Y-80957896D01*
X155107262Y-80975906D01*
X155103810Y-80978978D01*
X155102392Y-80979747D01*
X155092184Y-80984949D01*
X155090331Y-80986295D01*
X155084468Y-80989478D01*
X155059666Y-80994809D01*
X155025308Y-81004500D01*
X153528022Y-81004500D01*
X153471727Y-80990985D01*
X153468769Y-80989478D01*
X153417445Y-80963327D01*
X153252701Y-80909798D01*
X153252699Y-80909797D01*
X153252698Y-80909797D01*
X153100571Y-80885703D01*
X153081611Y-80882700D01*
X153081610Y-80882700D01*
X152902207Y-80882700D01*
X152863887Y-80876630D01*
X152860903Y-80875660D01*
X152860897Y-80875659D01*
X152684370Y-80847700D01*
X152684366Y-80847700D01*
X152505634Y-80847700D01*
X152505630Y-80847700D01*
X152329102Y-80875659D01*
X152329096Y-80875660D01*
X152326113Y-80876630D01*
X152287793Y-80882700D01*
X152108389Y-80882700D01*
X152089429Y-80885703D01*
X151937302Y-80909797D01*
X151772552Y-80963328D01*
X151618211Y-81041968D01*
X151538256Y-81100059D01*
X151478072Y-81143786D01*
X151478070Y-81143788D01*
X151478069Y-81143788D01*
X151355588Y-81266269D01*
X151355588Y-81266270D01*
X151355586Y-81266272D01*
X151311859Y-81326456D01*
X151253768Y-81406411D01*
X151175128Y-81560752D01*
X151121597Y-81725502D01*
X151108248Y-81809786D01*
X151094500Y-81896589D01*
X151094500Y-82069811D01*
X151121598Y-82240901D01*
X151175127Y-82405645D01*
X151253768Y-82559988D01*
X151355586Y-82700128D01*
X151478072Y-82822614D01*
X151618212Y-82924432D01*
X151772555Y-83003073D01*
X151937299Y-83056602D01*
X152092378Y-83081164D01*
X152095969Y-83082366D01*
X152098041Y-83082196D01*
X152106126Y-83085766D01*
X152131240Y-83094175D01*
X152138870Y-83098235D01*
X152156668Y-83111167D01*
X152308912Y-83188739D01*
X152309850Y-83189238D01*
X152334055Y-83212931D01*
X152358681Y-83236189D01*
X152358958Y-83237308D01*
X152359780Y-83238113D01*
X152367331Y-83271121D01*
X152375476Y-83304010D01*
X152375104Y-83305099D01*
X152375362Y-83306223D01*
X152363858Y-83338100D01*
X152352939Y-83370145D01*
X152352037Y-83370861D01*
X152351646Y-83371945D01*
X152324736Y-83392541D01*
X152298224Y-83413597D01*
X152296888Y-83413857D01*
X152296164Y-83414412D01*
X152292507Y-83414712D01*
X152251590Y-83422700D01*
X152108389Y-83422700D01*
X152089429Y-83425703D01*
X151937302Y-83449797D01*
X151772552Y-83503328D01*
X151618211Y-83581968D01*
X151538256Y-83640059D01*
X151478072Y-83683786D01*
X151478070Y-83683788D01*
X151478069Y-83683788D01*
X151355588Y-83806269D01*
X151355588Y-83806270D01*
X151355586Y-83806272D01*
X151311859Y-83866456D01*
X151253768Y-83946411D01*
X151175128Y-84100752D01*
X151121597Y-84265502D01*
X151108248Y-84349786D01*
X151094500Y-84436589D01*
X151094500Y-84609811D01*
X151121598Y-84780901D01*
X151175127Y-84945645D01*
X151253768Y-85099988D01*
X151355586Y-85240128D01*
X151478072Y-85362614D01*
X151618212Y-85464432D01*
X151772555Y-85543073D01*
X151937299Y-85596602D01*
X152092378Y-85621164D01*
X152095969Y-85622366D01*
X152098041Y-85622196D01*
X152106126Y-85625766D01*
X152131240Y-85634175D01*
X152138870Y-85638235D01*
X152156668Y-85651167D01*
X152308912Y-85728739D01*
X152309850Y-85729238D01*
X152334055Y-85752931D01*
X152358681Y-85776189D01*
X152358958Y-85777308D01*
X152359780Y-85778113D01*
X152367331Y-85811121D01*
X152375476Y-85844010D01*
X152375104Y-85845099D01*
X152375362Y-85846223D01*
X152363858Y-85878100D01*
X152352939Y-85910145D01*
X152352037Y-85910861D01*
X152351646Y-85911945D01*
X152324736Y-85932541D01*
X152298224Y-85953597D01*
X152296888Y-85953857D01*
X152296164Y-85954412D01*
X152292507Y-85954712D01*
X152251590Y-85962700D01*
X152108389Y-85962700D01*
X152072129Y-85968443D01*
X151937302Y-85989797D01*
X151772552Y-86043328D01*
X151618211Y-86121968D01*
X151538256Y-86180059D01*
X151478072Y-86223786D01*
X151478070Y-86223788D01*
X151478069Y-86223788D01*
X151355588Y-86346269D01*
X151355588Y-86346270D01*
X151355586Y-86346272D01*
X151311859Y-86406456D01*
X151253768Y-86486411D01*
X151175128Y-86640752D01*
X151121597Y-86805502D01*
X151108248Y-86889786D01*
X151094500Y-86976589D01*
X151094500Y-87149811D01*
X151121598Y-87320901D01*
X151175127Y-87485645D01*
X151253768Y-87639988D01*
X151355586Y-87780128D01*
X151478072Y-87902614D01*
X151618212Y-88004432D01*
X151772555Y-88083073D01*
X151937299Y-88136602D01*
X152092378Y-88161164D01*
X152095969Y-88162366D01*
X152098041Y-88162196D01*
X152106126Y-88165766D01*
X152131240Y-88174175D01*
X152138870Y-88178235D01*
X152156668Y-88191167D01*
X152308912Y-88268739D01*
X152309850Y-88269238D01*
X152334055Y-88292931D01*
X152358681Y-88316189D01*
X152358958Y-88317308D01*
X152359780Y-88318113D01*
X152367331Y-88351121D01*
X152375476Y-88384010D01*
X152375104Y-88385099D01*
X152375362Y-88386223D01*
X152363858Y-88418100D01*
X152352939Y-88450145D01*
X152352037Y-88450861D01*
X152351646Y-88451945D01*
X152324736Y-88472541D01*
X152298224Y-88493597D01*
X152296888Y-88493857D01*
X152296164Y-88494412D01*
X152292507Y-88494712D01*
X152251590Y-88502700D01*
X152108389Y-88502700D01*
X152072129Y-88508443D01*
X151937302Y-88529797D01*
X151772552Y-88583328D01*
X151618211Y-88661968D01*
X151538256Y-88720059D01*
X151478072Y-88763786D01*
X151478070Y-88763788D01*
X151478069Y-88763788D01*
X151355588Y-88886269D01*
X151355588Y-88886270D01*
X151355586Y-88886272D01*
X151311859Y-88946456D01*
X151253768Y-89026411D01*
X151175128Y-89180752D01*
X151121597Y-89345502D01*
X151109669Y-89420814D01*
X151094500Y-89516589D01*
X151094500Y-89689811D01*
X151096914Y-89705051D01*
X151114322Y-89814966D01*
X151121598Y-89860901D01*
X151175127Y-90025645D01*
X151253768Y-90179988D01*
X151355586Y-90320128D01*
X151478072Y-90442614D01*
X151618212Y-90544432D01*
X151772555Y-90623073D01*
X151937299Y-90676602D01*
X152092378Y-90701164D01*
X152095969Y-90702366D01*
X152098041Y-90702196D01*
X152106126Y-90705766D01*
X152131240Y-90714175D01*
X152138870Y-90718235D01*
X152156668Y-90731167D01*
X152308912Y-90808739D01*
X152309850Y-90809238D01*
X152334055Y-90832931D01*
X152358681Y-90856189D01*
X152358958Y-90857308D01*
X152359780Y-90858113D01*
X152367331Y-90891121D01*
X152375476Y-90924010D01*
X152375104Y-90925099D01*
X152375362Y-90926223D01*
X152363858Y-90958100D01*
X152352939Y-90990145D01*
X152352037Y-90990861D01*
X152351646Y-90991945D01*
X152324736Y-91012541D01*
X152298224Y-91033597D01*
X152296888Y-91033857D01*
X152296164Y-91034412D01*
X152292507Y-91034712D01*
X152251590Y-91042700D01*
X152108389Y-91042700D01*
X152089429Y-91045703D01*
X151937302Y-91069797D01*
X151772552Y-91123328D01*
X151618211Y-91201968D01*
X151538256Y-91260059D01*
X151478072Y-91303786D01*
X151478070Y-91303788D01*
X151478069Y-91303788D01*
X151355588Y-91426269D01*
X151355588Y-91426270D01*
X151355586Y-91426272D01*
X151311859Y-91486456D01*
X151253768Y-91566411D01*
X151175128Y-91720752D01*
X151121597Y-91885502D01*
X151094500Y-92056589D01*
X151094500Y-92229810D01*
X151112125Y-92341095D01*
X151121598Y-92400901D01*
X151175127Y-92565645D01*
X151253768Y-92719988D01*
X151355586Y-92860128D01*
X151478072Y-92982614D01*
X151618212Y-93084432D01*
X151772555Y-93163073D01*
X151937299Y-93216602D01*
X152092378Y-93241164D01*
X152095969Y-93242366D01*
X152098041Y-93242196D01*
X152106126Y-93245766D01*
X152131240Y-93254175D01*
X152138870Y-93258235D01*
X152156668Y-93271167D01*
X152308912Y-93348739D01*
X152309850Y-93349238D01*
X152334055Y-93372931D01*
X152358681Y-93396189D01*
X152358958Y-93397308D01*
X152359780Y-93398113D01*
X152367331Y-93431121D01*
X152375476Y-93464010D01*
X152375104Y-93465099D01*
X152375362Y-93466223D01*
X152363858Y-93498100D01*
X152352939Y-93530145D01*
X152352037Y-93530861D01*
X152351646Y-93531945D01*
X152324736Y-93552541D01*
X152298224Y-93573597D01*
X152296888Y-93573857D01*
X152296164Y-93574412D01*
X152292507Y-93574712D01*
X152251590Y-93582700D01*
X152108389Y-93582700D01*
X152089429Y-93585703D01*
X151937302Y-93609797D01*
X151772552Y-93663328D01*
X151618211Y-93741968D01*
X151538256Y-93800059D01*
X151478072Y-93843786D01*
X151478070Y-93843788D01*
X151478069Y-93843788D01*
X151355588Y-93966269D01*
X151355588Y-93966270D01*
X151355586Y-93966272D01*
X151311859Y-94026456D01*
X151253768Y-94106411D01*
X151175128Y-94260752D01*
X151121597Y-94425502D01*
X151121597Y-94425504D01*
X151094500Y-94596589D01*
X151094500Y-94769811D01*
X151121598Y-94940901D01*
X151175127Y-95105645D01*
X151253768Y-95259988D01*
X151355586Y-95400128D01*
X151478072Y-95522614D01*
X151618212Y-95624432D01*
X151772555Y-95703073D01*
X151937299Y-95756602D01*
X152092378Y-95781164D01*
X152095969Y-95782366D01*
X152098041Y-95782196D01*
X152106126Y-95785766D01*
X152131240Y-95794175D01*
X152138870Y-95798235D01*
X152156668Y-95811167D01*
X152308912Y-95888739D01*
X152309850Y-95889238D01*
X152334055Y-95912931D01*
X152358681Y-95936189D01*
X152358958Y-95937308D01*
X152359780Y-95938113D01*
X152367331Y-95971121D01*
X152375476Y-96004010D01*
X152375104Y-96005099D01*
X152375362Y-96006223D01*
X152363858Y-96038100D01*
X152352939Y-96070145D01*
X152352037Y-96070861D01*
X152351646Y-96071945D01*
X152324736Y-96092541D01*
X152298224Y-96113597D01*
X152296888Y-96113857D01*
X152296164Y-96114412D01*
X152292507Y-96114712D01*
X152251590Y-96122700D01*
X152108389Y-96122700D01*
X152089429Y-96125703D01*
X151937302Y-96149797D01*
X151772552Y-96203328D01*
X151618211Y-96281968D01*
X151538256Y-96340059D01*
X151478072Y-96383786D01*
X151478070Y-96383788D01*
X151478069Y-96383788D01*
X151355588Y-96506269D01*
X151355588Y-96506270D01*
X151355586Y-96506272D01*
X151311859Y-96566456D01*
X151253768Y-96646411D01*
X151175128Y-96800752D01*
X151121597Y-96965502D01*
X151106035Y-97063757D01*
X151094500Y-97136589D01*
X151094500Y-97309811D01*
X151121598Y-97480901D01*
X151175127Y-97645645D01*
X151253768Y-97799988D01*
X151355586Y-97940128D01*
X151478072Y-98062614D01*
X151618212Y-98164432D01*
X151772555Y-98243073D01*
X151937299Y-98296602D01*
X152092378Y-98321164D01*
X152095969Y-98322366D01*
X152098041Y-98322196D01*
X152106126Y-98325766D01*
X152131240Y-98334175D01*
X152138870Y-98338235D01*
X152156668Y-98351167D01*
X152308912Y-98428739D01*
X152309850Y-98429238D01*
X152334055Y-98452931D01*
X152358681Y-98476189D01*
X152358958Y-98477308D01*
X152359780Y-98478113D01*
X152367331Y-98511121D01*
X152375476Y-98544010D01*
X152375104Y-98545099D01*
X152375362Y-98546223D01*
X152363858Y-98578100D01*
X152352939Y-98610145D01*
X152352037Y-98610861D01*
X152351646Y-98611945D01*
X152324736Y-98632541D01*
X152298224Y-98653597D01*
X152296888Y-98653857D01*
X152296164Y-98654412D01*
X152292507Y-98654712D01*
X152251590Y-98662700D01*
X152108389Y-98662700D01*
X152072129Y-98668443D01*
X151937302Y-98689797D01*
X151772552Y-98743328D01*
X151618211Y-98821968D01*
X151538256Y-98880059D01*
X151478072Y-98923786D01*
X151478070Y-98923788D01*
X151478069Y-98923788D01*
X151355588Y-99046269D01*
X151355588Y-99046270D01*
X151355586Y-99046272D01*
X151320220Y-99094949D01*
X151253768Y-99186411D01*
X151175128Y-99340752D01*
X151121597Y-99505502D01*
X151094500Y-99676589D01*
X151094500Y-99849810D01*
X151116264Y-99987227D01*
X151121598Y-100020901D01*
X151175127Y-100185645D01*
X151253768Y-100339988D01*
X151355586Y-100480128D01*
X151478072Y-100602614D01*
X151618212Y-100704432D01*
X151772555Y-100783073D01*
X151937299Y-100836602D01*
X152092378Y-100861164D01*
X152095969Y-100862366D01*
X152098041Y-100862196D01*
X152106126Y-100865766D01*
X152131240Y-100874175D01*
X152138870Y-100878235D01*
X152156668Y-100891167D01*
X152308912Y-100968739D01*
X152309850Y-100969238D01*
X152334055Y-100992931D01*
X152358681Y-101016189D01*
X152358958Y-101017308D01*
X152359780Y-101018113D01*
X152367331Y-101051121D01*
X152375476Y-101084010D01*
X152375104Y-101085099D01*
X152375362Y-101086223D01*
X152363858Y-101118100D01*
X152352939Y-101150145D01*
X152352037Y-101150861D01*
X152351646Y-101151945D01*
X152324736Y-101172541D01*
X152298224Y-101193597D01*
X152296888Y-101193857D01*
X152296164Y-101194412D01*
X152292507Y-101194712D01*
X152251590Y-101202700D01*
X152108389Y-101202700D01*
X152089429Y-101205703D01*
X151937302Y-101229797D01*
X151772552Y-101283328D01*
X151618211Y-101361968D01*
X151552771Y-101409514D01*
X151478072Y-101463786D01*
X151478070Y-101463788D01*
X151478069Y-101463788D01*
X151355588Y-101586269D01*
X151355588Y-101586270D01*
X151355586Y-101586272D01*
X151323463Y-101630486D01*
X151253768Y-101726411D01*
X151175128Y-101880752D01*
X151121597Y-102045502D01*
X151094500Y-102216589D01*
X151094500Y-102389810D01*
X151116264Y-102527227D01*
X151121598Y-102560901D01*
X151175127Y-102725645D01*
X151253768Y-102879988D01*
X151355586Y-103020128D01*
X151478072Y-103142614D01*
X151618212Y-103244432D01*
X151772555Y-103323073D01*
X151937299Y-103376602D01*
X152092378Y-103401164D01*
X152095969Y-103402366D01*
X152098041Y-103402196D01*
X152106126Y-103405766D01*
X152131240Y-103414175D01*
X152138870Y-103418235D01*
X152156668Y-103431167D01*
X152308912Y-103508739D01*
X152309850Y-103509238D01*
X152334055Y-103532931D01*
X152358681Y-103556189D01*
X152358958Y-103557308D01*
X152359780Y-103558113D01*
X152367331Y-103591121D01*
X152375476Y-103624010D01*
X152375104Y-103625099D01*
X152375362Y-103626223D01*
X152363858Y-103658100D01*
X152352939Y-103690145D01*
X152352037Y-103690861D01*
X152351646Y-103691945D01*
X152324736Y-103712541D01*
X152298224Y-103733597D01*
X152296888Y-103733857D01*
X152296164Y-103734412D01*
X152292507Y-103734712D01*
X152251590Y-103742700D01*
X152108389Y-103742700D01*
X152089429Y-103745703D01*
X151937302Y-103769797D01*
X151772552Y-103823328D01*
X151618211Y-103901968D01*
X151552771Y-103949514D01*
X151478072Y-104003786D01*
X151478070Y-104003788D01*
X151478069Y-104003788D01*
X151355588Y-104126269D01*
X151355588Y-104126270D01*
X151355586Y-104126272D01*
X151323464Y-104170484D01*
X151253768Y-104266411D01*
X151175128Y-104420752D01*
X151121597Y-104585502D01*
X151094500Y-104756589D01*
X151094500Y-104929810D01*
X151119770Y-105089363D01*
X151121598Y-105100901D01*
X151175127Y-105265645D01*
X151253768Y-105419988D01*
X151355586Y-105560128D01*
X151478072Y-105682614D01*
X151618212Y-105784432D01*
X151772555Y-105863073D01*
X151937299Y-105916602D01*
X152092378Y-105941164D01*
X152095969Y-105942366D01*
X152098041Y-105942196D01*
X152106129Y-105945768D01*
X152131240Y-105954176D01*
X152138875Y-105958239D01*
X152156668Y-105971167D01*
X152308845Y-106048704D01*
X152309849Y-106049239D01*
X152334039Y-106072917D01*
X152358680Y-106096189D01*
X152358956Y-106097307D01*
X152359780Y-106098113D01*
X152367337Y-106131148D01*
X152375475Y-106164010D01*
X152375103Y-106165099D01*
X152375361Y-106166223D01*
X152363857Y-106198100D01*
X152352938Y-106230145D01*
X152352036Y-106230861D01*
X152351645Y-106231945D01*
X152324748Y-106252531D01*
X152298223Y-106273597D01*
X152296885Y-106273858D01*
X152296162Y-106274412D01*
X152292507Y-106274712D01*
X152251589Y-106282700D01*
X152108389Y-106282700D01*
X152089429Y-106285703D01*
X151937302Y-106309797D01*
X151772552Y-106363328D01*
X151618211Y-106441968D01*
X151552771Y-106489514D01*
X151478072Y-106543786D01*
X151478070Y-106543788D01*
X151478069Y-106543788D01*
X151355588Y-106666269D01*
X151355588Y-106666270D01*
X151355586Y-106666272D01*
X151323464Y-106710484D01*
X151253768Y-106806411D01*
X151175128Y-106960752D01*
X151121597Y-107125502D01*
X151114632Y-107169481D01*
X151094500Y-107296589D01*
X151094500Y-107469811D01*
X151121598Y-107640901D01*
X151175127Y-107805645D01*
X151253768Y-107959988D01*
X151355586Y-108100128D01*
X151478072Y-108222614D01*
X151618212Y-108324432D01*
X151772555Y-108403073D01*
X151937299Y-108456602D01*
X152092378Y-108481164D01*
X152095969Y-108482366D01*
X152098041Y-108482196D01*
X152106129Y-108485768D01*
X152131240Y-108494176D01*
X152138875Y-108498239D01*
X152156668Y-108511167D01*
X152308845Y-108588704D01*
X152309849Y-108589239D01*
X152334039Y-108612917D01*
X152358680Y-108636189D01*
X152358956Y-108637307D01*
X152359780Y-108638113D01*
X152367337Y-108671148D01*
X152375475Y-108704010D01*
X152375103Y-108705099D01*
X152375361Y-108706223D01*
X152363857Y-108738100D01*
X152352938Y-108770145D01*
X152352036Y-108770861D01*
X152351645Y-108771945D01*
X152324748Y-108792531D01*
X152298223Y-108813597D01*
X152296885Y-108813858D01*
X152296162Y-108814412D01*
X152292507Y-108814712D01*
X152251589Y-108822700D01*
X152108389Y-108822700D01*
X152089429Y-108825703D01*
X151937302Y-108849797D01*
X151772552Y-108903328D01*
X151618211Y-108981968D01*
X151552388Y-109029792D01*
X151478072Y-109083786D01*
X151478070Y-109083788D01*
X151478069Y-109083788D01*
X151355588Y-109206269D01*
X151355588Y-109206270D01*
X151355586Y-109206272D01*
X151323261Y-109250763D01*
X151253768Y-109346411D01*
X151175128Y-109500752D01*
X151121597Y-109665502D01*
X151094500Y-109836589D01*
X151094500Y-110009810D01*
X151110919Y-110113480D01*
X151121598Y-110180901D01*
X151175127Y-110345645D01*
X151253768Y-110499988D01*
X151355586Y-110640128D01*
X151478072Y-110762614D01*
X151618212Y-110864432D01*
X151772555Y-110943073D01*
X151937299Y-110996602D01*
X152092378Y-111021164D01*
X152095969Y-111022366D01*
X152098041Y-111022196D01*
X152106126Y-111025766D01*
X152131240Y-111034175D01*
X152138870Y-111038235D01*
X152156668Y-111051167D01*
X152308912Y-111128739D01*
X152309850Y-111129238D01*
X152334055Y-111152931D01*
X152358681Y-111176189D01*
X152358958Y-111177308D01*
X152359780Y-111178113D01*
X152367331Y-111211121D01*
X152375476Y-111244010D01*
X152375104Y-111245099D01*
X152375362Y-111246223D01*
X152363858Y-111278100D01*
X152352939Y-111310145D01*
X152352037Y-111310861D01*
X152351646Y-111311945D01*
X152324736Y-111332541D01*
X152298224Y-111353597D01*
X152296888Y-111353857D01*
X152296164Y-111354412D01*
X152292507Y-111354712D01*
X152251590Y-111362700D01*
X152108389Y-111362700D01*
X152089429Y-111365703D01*
X151937302Y-111389797D01*
X151772552Y-111443328D01*
X151618211Y-111521968D01*
X151559504Y-111564622D01*
X151478072Y-111623786D01*
X151478070Y-111623788D01*
X151478069Y-111623788D01*
X151355588Y-111746269D01*
X151355588Y-111746270D01*
X151355586Y-111746272D01*
X151311859Y-111806456D01*
X151253768Y-111886411D01*
X151175128Y-112040752D01*
X151121597Y-112205502D01*
X151094500Y-112376589D01*
X151094500Y-112549811D01*
X151121598Y-112720901D01*
X151175127Y-112885645D01*
X151253768Y-113039988D01*
X151355586Y-113180128D01*
X151478072Y-113302614D01*
X151618212Y-113404432D01*
X151772555Y-113483073D01*
X151937299Y-113536602D01*
X152092378Y-113561164D01*
X152095969Y-113562366D01*
X152098041Y-113562196D01*
X152106126Y-113565766D01*
X152131240Y-113574175D01*
X152138870Y-113578235D01*
X152156668Y-113591167D01*
X152308912Y-113668739D01*
X152309850Y-113669238D01*
X152334055Y-113692931D01*
X152358681Y-113716189D01*
X152358958Y-113717308D01*
X152359780Y-113718113D01*
X152367331Y-113751121D01*
X152375476Y-113784010D01*
X152375104Y-113785099D01*
X152375362Y-113786223D01*
X152363858Y-113818100D01*
X152352939Y-113850145D01*
X152352037Y-113850861D01*
X152351646Y-113851945D01*
X152324736Y-113872541D01*
X152298224Y-113893597D01*
X152296888Y-113893857D01*
X152296164Y-113894412D01*
X152292507Y-113894712D01*
X152251590Y-113902700D01*
X152108389Y-113902700D01*
X152089429Y-113905703D01*
X151937302Y-113929797D01*
X151772552Y-113983328D01*
X151618211Y-114061968D01*
X151538256Y-114120059D01*
X151478072Y-114163786D01*
X151478070Y-114163788D01*
X151478069Y-114163788D01*
X151355588Y-114286269D01*
X151355588Y-114286270D01*
X151355586Y-114286272D01*
X151311859Y-114346456D01*
X151253768Y-114426411D01*
X151175128Y-114580752D01*
X151121597Y-114745502D01*
X151102433Y-114866503D01*
X151094500Y-114916589D01*
X151094500Y-115089811D01*
X151121598Y-115260901D01*
X151175127Y-115425645D01*
X151253768Y-115579988D01*
X151355586Y-115720128D01*
X151478072Y-115842614D01*
X151618212Y-115944432D01*
X151772555Y-116023073D01*
X151937299Y-116076602D01*
X152092378Y-116101164D01*
X152095969Y-116102366D01*
X152098041Y-116102196D01*
X152106126Y-116105766D01*
X152131240Y-116114175D01*
X152138870Y-116118235D01*
X152156668Y-116131167D01*
X152308912Y-116208739D01*
X152309850Y-116209238D01*
X152334055Y-116232931D01*
X152358681Y-116256189D01*
X152358958Y-116257308D01*
X152359780Y-116258113D01*
X152367331Y-116291121D01*
X152375476Y-116324010D01*
X152375104Y-116325099D01*
X152375362Y-116326223D01*
X152363858Y-116358100D01*
X152352939Y-116390145D01*
X152352037Y-116390861D01*
X152351646Y-116391945D01*
X152324736Y-116412541D01*
X152298224Y-116433597D01*
X152296888Y-116433857D01*
X152296164Y-116434412D01*
X152292507Y-116434712D01*
X152251590Y-116442700D01*
X152108389Y-116442700D01*
X152089429Y-116445703D01*
X151937302Y-116469797D01*
X151772552Y-116523328D01*
X151618211Y-116601968D01*
X151538256Y-116660059D01*
X151478072Y-116703786D01*
X151478070Y-116703788D01*
X151478069Y-116703788D01*
X151355588Y-116826269D01*
X151355588Y-116826270D01*
X151355586Y-116826272D01*
X151311859Y-116886456D01*
X151253768Y-116966411D01*
X151175128Y-117120752D01*
X151121597Y-117285502D01*
X151106035Y-117383757D01*
X151094500Y-117456589D01*
X151094500Y-117629811D01*
X151121598Y-117800901D01*
X151175127Y-117965645D01*
X151253768Y-118119988D01*
X151355586Y-118260128D01*
X151478072Y-118382614D01*
X151618212Y-118484432D01*
X151772555Y-118563073D01*
X151937299Y-118616602D01*
X152092378Y-118641164D01*
X152095969Y-118642366D01*
X152098041Y-118642196D01*
X152106126Y-118645766D01*
X152131240Y-118654175D01*
X152138870Y-118658235D01*
X152156668Y-118671167D01*
X152308912Y-118748739D01*
X152309850Y-118749238D01*
X152334055Y-118772931D01*
X152358681Y-118796189D01*
X152358958Y-118797308D01*
X152359780Y-118798113D01*
X152367331Y-118831121D01*
X152375476Y-118864010D01*
X152375104Y-118865099D01*
X152375362Y-118866223D01*
X152363858Y-118898100D01*
X152352939Y-118930145D01*
X152352037Y-118930861D01*
X152351646Y-118931945D01*
X152324736Y-118952541D01*
X152298224Y-118973597D01*
X152296888Y-118973857D01*
X152296164Y-118974412D01*
X152292507Y-118974712D01*
X152251590Y-118982700D01*
X152108389Y-118982700D01*
X152089429Y-118985703D01*
X151937302Y-119009797D01*
X151772552Y-119063328D01*
X151618211Y-119141968D01*
X151538256Y-119200059D01*
X151478072Y-119243786D01*
X151478070Y-119243788D01*
X151478069Y-119243788D01*
X151355588Y-119366269D01*
X151355588Y-119366270D01*
X151355586Y-119366272D01*
X151313410Y-119424322D01*
X151253768Y-119506411D01*
X151175128Y-119660752D01*
X151121597Y-119825502D01*
X151094500Y-119996589D01*
X151094500Y-120169810D01*
X151112718Y-120284839D01*
X151121598Y-120340901D01*
X151124716Y-120350498D01*
X151175128Y-120505647D01*
X151188049Y-120531006D01*
X151253768Y-120659988D01*
X151355586Y-120800128D01*
X151478072Y-120922614D01*
X151618212Y-121024432D01*
X151772555Y-121103073D01*
X151937299Y-121156602D01*
X152092378Y-121181164D01*
X152095969Y-121182366D01*
X152098041Y-121182196D01*
X152106126Y-121185766D01*
X152131240Y-121194175D01*
X152138870Y-121198235D01*
X152156668Y-121211167D01*
X152308912Y-121288739D01*
X152309850Y-121289238D01*
X152334055Y-121312931D01*
X152358681Y-121336189D01*
X152358958Y-121337308D01*
X152359780Y-121338113D01*
X152367331Y-121371121D01*
X152375476Y-121404010D01*
X152375104Y-121405099D01*
X152375362Y-121406223D01*
X152363858Y-121438100D01*
X152352939Y-121470145D01*
X152352037Y-121470861D01*
X152351646Y-121471945D01*
X152324736Y-121492541D01*
X152298224Y-121513597D01*
X152296888Y-121513857D01*
X152296164Y-121514412D01*
X152292507Y-121514712D01*
X152251590Y-121522700D01*
X152108389Y-121522700D01*
X152089429Y-121525703D01*
X151937302Y-121549797D01*
X151772552Y-121603328D01*
X151618211Y-121681968D01*
X151577603Y-121711472D01*
X151478072Y-121783786D01*
X151478070Y-121783788D01*
X151478069Y-121783788D01*
X151355588Y-121906269D01*
X151355588Y-121906270D01*
X151355586Y-121906272D01*
X151311859Y-121966456D01*
X151253768Y-122046411D01*
X151175128Y-122200752D01*
X151121597Y-122365502D01*
X151094500Y-122536589D01*
X151094500Y-122709810D01*
X151104370Y-122772131D01*
X151121598Y-122880901D01*
X151144421Y-122951143D01*
X151175128Y-123045647D01*
X151200906Y-123096239D01*
X151253768Y-123199988D01*
X151355586Y-123340128D01*
X151478072Y-123462614D01*
X151618212Y-123564432D01*
X151772555Y-123643073D01*
X151937299Y-123696602D01*
X152092378Y-123721164D01*
X152095969Y-123722366D01*
X152098041Y-123722196D01*
X152106126Y-123725766D01*
X152131240Y-123734175D01*
X152138870Y-123738235D01*
X152156668Y-123751167D01*
X152308912Y-123828739D01*
X152309850Y-123829238D01*
X152334055Y-123852931D01*
X152358681Y-123876189D01*
X152358958Y-123877308D01*
X152359780Y-123878113D01*
X152367331Y-123911121D01*
X152375476Y-123944010D01*
X152375104Y-123945099D01*
X152375362Y-123946223D01*
X152363858Y-123978100D01*
X152352939Y-124010145D01*
X152352037Y-124010861D01*
X152351646Y-124011945D01*
X152324736Y-124032541D01*
X152298224Y-124053597D01*
X152296888Y-124053857D01*
X152296164Y-124054412D01*
X152292507Y-124054712D01*
X152251590Y-124062700D01*
X152108389Y-124062700D01*
X152089429Y-124065703D01*
X151937302Y-124089797D01*
X151772552Y-124143328D01*
X151618211Y-124221968D01*
X151538256Y-124280059D01*
X151478072Y-124323786D01*
X151478070Y-124323788D01*
X151478069Y-124323788D01*
X151355588Y-124446269D01*
X151355588Y-124446270D01*
X151355586Y-124446272D01*
X151316478Y-124500099D01*
X151253768Y-124586411D01*
X151175128Y-124740752D01*
X151121597Y-124905502D01*
X151094500Y-125076589D01*
X151094500Y-125249810D01*
X151121597Y-125420897D01*
X151175128Y-125585647D01*
X151200906Y-125636239D01*
X151253768Y-125739988D01*
X151355586Y-125880128D01*
X151478072Y-126002614D01*
X151618212Y-126104432D01*
X151772555Y-126183073D01*
X151937299Y-126236602D01*
X152092378Y-126261164D01*
X152095960Y-126262363D01*
X152098029Y-126262193D01*
X152106103Y-126265758D01*
X152131229Y-126274170D01*
X152138869Y-126278235D01*
X152156668Y-126291167D01*
X152309843Y-126369213D01*
X152310820Y-126369733D01*
X152335036Y-126393431D01*
X152359662Y-126416689D01*
X152359937Y-126417800D01*
X152360756Y-126418602D01*
X152368313Y-126451624D01*
X152376457Y-126484510D01*
X152376087Y-126485594D01*
X152376343Y-126486711D01*
X152364849Y-126518571D01*
X152353920Y-126550645D01*
X152353022Y-126551357D01*
X152352634Y-126552435D01*
X152325743Y-126573021D01*
X152299205Y-126594097D01*
X152297874Y-126594356D01*
X152297156Y-126594907D01*
X152293521Y-126595206D01*
X152252571Y-126603200D01*
X152108429Y-126603200D01*
X151937415Y-126630285D01*
X151772742Y-126683791D01*
X151618475Y-126762395D01*
X151478397Y-126864167D01*
X151355967Y-126986597D01*
X151254195Y-127126675D01*
X151175591Y-127280944D01*
X151122085Y-127445615D01*
X151120884Y-127453199D01*
X151120885Y-127453200D01*
X152279314Y-127453200D01*
X152274920Y-127457594D01*
X152222259Y-127548806D01*
X152195000Y-127650539D01*
X152195000Y-127755861D01*
X152222259Y-127857594D01*
X152274920Y-127948806D01*
X152279314Y-127953200D01*
X151120885Y-127953200D01*
X151122085Y-127960784D01*
X151175591Y-128125455D01*
X151254195Y-128279724D01*
X151355967Y-128419802D01*
X151478397Y-128542232D01*
X151618475Y-128644004D01*
X151772742Y-128722608D01*
X151937415Y-128776114D01*
X152108429Y-128803200D01*
X152345000Y-128803200D01*
X152345000Y-128018886D01*
X152349394Y-128023280D01*
X152440606Y-128075941D01*
X152542339Y-128103200D01*
X152647661Y-128103200D01*
X152749394Y-128075941D01*
X152840606Y-128023280D01*
X152845000Y-128018886D01*
X152845000Y-128803200D01*
X153081571Y-128803200D01*
X153252584Y-128776114D01*
X153417257Y-128722608D01*
X153571524Y-128644004D01*
X153711602Y-128542232D01*
X153834032Y-128419802D01*
X153935804Y-128279724D01*
X154014408Y-128125455D01*
X154067914Y-127960784D01*
X154069115Y-127953200D01*
X152910686Y-127953200D01*
X152915080Y-127948806D01*
X152967741Y-127857594D01*
X152995000Y-127755861D01*
X152995000Y-127650539D01*
X152967741Y-127548806D01*
X152915080Y-127457594D01*
X152910686Y-127453200D01*
X154069115Y-127453200D01*
X154069115Y-127453199D01*
X154067914Y-127445615D01*
X154014408Y-127280944D01*
X153935804Y-127126675D01*
X153834032Y-126986597D01*
X153711602Y-126864167D01*
X153571524Y-126762395D01*
X153429412Y-126689985D01*
X153378616Y-126642010D01*
X153361821Y-126574189D01*
X153384359Y-126508054D01*
X153439074Y-126464603D01*
X153485707Y-126455500D01*
X155025308Y-126455500D01*
X155039598Y-126459122D01*
X155051279Y-126458250D01*
X155077474Y-126468725D01*
X155084387Y-126470478D01*
X155090300Y-126473682D01*
X155092184Y-126475051D01*
X155102927Y-126480525D01*
X155104280Y-126481258D01*
X155127991Y-126504818D01*
X155152290Y-126527766D01*
X155152683Y-126529353D01*
X155153843Y-126530506D01*
X155161055Y-126563157D01*
X155169087Y-126595587D01*
X155168560Y-126597133D01*
X155168913Y-126598731D01*
X155157328Y-126630095D01*
X155146552Y-126661722D01*
X155145221Y-126662875D01*
X155144705Y-126664273D01*
X155136295Y-126670610D01*
X155101505Y-126700760D01*
X155092446Y-126705376D01*
X155092440Y-126705380D01*
X155038282Y-126744727D01*
X155038282Y-126744728D01*
X155670591Y-127377037D01*
X155607007Y-127394075D01*
X155492993Y-127459901D01*
X155399901Y-127552993D01*
X155334075Y-127667007D01*
X155317037Y-127730591D01*
X154684728Y-127098282D01*
X154684727Y-127098282D01*
X154645380Y-127152439D01*
X154548904Y-127341782D01*
X154483242Y-127543869D01*
X154483242Y-127543872D01*
X154450000Y-127753753D01*
X154450000Y-127966246D01*
X154483242Y-128176127D01*
X154483242Y-128176130D01*
X154548904Y-128378217D01*
X154645375Y-128567550D01*
X154684728Y-128621716D01*
X155317037Y-127989408D01*
X155334075Y-128052993D01*
X155399901Y-128167007D01*
X155492993Y-128260099D01*
X155607007Y-128325925D01*
X155670590Y-128342962D01*
X155038282Y-128975269D01*
X155038282Y-128975270D01*
X155092452Y-129014626D01*
X155102048Y-129019516D01*
X155152844Y-129067491D01*
X155169638Y-129135312D01*
X155147100Y-129201447D01*
X155102051Y-129240483D01*
X155092440Y-129245380D01*
X155038282Y-129284727D01*
X155038282Y-129284728D01*
X155670591Y-129917037D01*
X155607007Y-129934075D01*
X155492993Y-129999901D01*
X155399901Y-130092993D01*
X155334075Y-130207007D01*
X155317037Y-130270591D01*
X154684728Y-129638282D01*
X154684727Y-129638282D01*
X154645380Y-129692439D01*
X154548904Y-129881782D01*
X154483242Y-130083869D01*
X154483242Y-130083872D01*
X154450000Y-130293753D01*
X154450000Y-130506246D01*
X154483242Y-130716127D01*
X154483242Y-130716130D01*
X154548904Y-130918217D01*
X154645375Y-131107550D01*
X154684728Y-131161716D01*
X155317037Y-130529408D01*
X155334075Y-130592993D01*
X155399901Y-130707007D01*
X155492993Y-130800099D01*
X155607007Y-130865925D01*
X155670590Y-130882962D01*
X155038282Y-131515269D01*
X155038282Y-131515270D01*
X155092449Y-131554624D01*
X155281782Y-131651095D01*
X155483870Y-131716757D01*
X155693754Y-131750000D01*
X155906246Y-131750000D01*
X156116127Y-131716757D01*
X156116130Y-131716757D01*
X156318217Y-131651095D01*
X156507554Y-131554622D01*
X156561716Y-131515270D01*
X156561717Y-131515270D01*
X155929408Y-130882962D01*
X155992993Y-130865925D01*
X156107007Y-130800099D01*
X156200099Y-130707007D01*
X156265925Y-130592993D01*
X156282962Y-130529409D01*
X156915270Y-131161717D01*
X156915270Y-131161716D01*
X156954622Y-131107554D01*
X157051095Y-130918217D01*
X157116757Y-130716130D01*
X157116757Y-130716129D01*
X157121116Y-130688612D01*
X157121116Y-130688611D01*
X157150000Y-130506246D01*
X157150000Y-130293753D01*
X157116757Y-130083872D01*
X157116757Y-130083869D01*
X157051095Y-129881782D01*
X156954624Y-129692449D01*
X156915270Y-129638282D01*
X156915269Y-129638282D01*
X156282962Y-130270590D01*
X156265925Y-130207007D01*
X156200099Y-130092993D01*
X156107007Y-129999901D01*
X155992993Y-129934075D01*
X155929409Y-129917037D01*
X156561716Y-129284728D01*
X156507550Y-129245375D01*
X156497954Y-129240486D01*
X156447157Y-129192512D01*
X156430361Y-129124692D01*
X156452897Y-129058556D01*
X156497954Y-129019514D01*
X156507554Y-129014622D01*
X156561716Y-128975270D01*
X156561717Y-128975270D01*
X155929408Y-128342962D01*
X155992993Y-128325925D01*
X156107007Y-128260099D01*
X156200099Y-128167007D01*
X156265925Y-128052993D01*
X156282962Y-127989409D01*
X156915270Y-128621717D01*
X156915270Y-128621716D01*
X156954622Y-128567554D01*
X157051095Y-128378217D01*
X157116757Y-128176130D01*
X157116757Y-128176127D01*
X157150000Y-127966246D01*
X157150000Y-127753753D01*
X157116757Y-127543872D01*
X157116757Y-127543869D01*
X157051095Y-127341782D01*
X156954624Y-127152449D01*
X156915270Y-127098282D01*
X156915269Y-127098282D01*
X156282962Y-127730590D01*
X156265925Y-127667007D01*
X156200099Y-127552993D01*
X156107007Y-127459901D01*
X155992993Y-127394075D01*
X155929409Y-127377037D01*
X156561716Y-126744728D01*
X156507547Y-126705373D01*
X156507547Y-126705372D01*
X156498500Y-126700763D01*
X156447706Y-126652788D01*
X156430912Y-126584966D01*
X156453451Y-126518832D01*
X156498508Y-126479793D01*
X156507816Y-126475051D01*
X156620157Y-126393431D01*
X156679786Y-126350109D01*
X156679788Y-126350106D01*
X156679792Y-126350104D01*
X156830104Y-126199792D01*
X156830106Y-126199788D01*
X156830109Y-126199786D01*
X156955048Y-126027820D01*
X156955047Y-126027820D01*
X156955051Y-126027816D01*
X157051557Y-125838412D01*
X157117246Y-125636243D01*
X157150500Y-125426287D01*
X157150500Y-125213713D01*
X157117246Y-125003757D01*
X157051557Y-124801588D01*
X156955051Y-124612184D01*
X156955049Y-124612181D01*
X156955048Y-124612179D01*
X156830109Y-124440213D01*
X156679786Y-124289890D01*
X156507820Y-124164951D01*
X156507115Y-124164591D01*
X156499054Y-124160485D01*
X156448259Y-124112512D01*
X156431463Y-124044692D01*
X156453999Y-123978556D01*
X156499054Y-123939515D01*
X156507816Y-123935051D01*
X156546416Y-123907007D01*
X156679786Y-123810109D01*
X156679788Y-123810106D01*
X156679792Y-123810104D01*
X156830104Y-123659792D01*
X156830106Y-123659788D01*
X156830109Y-123659786D01*
X156955048Y-123487820D01*
X156955047Y-123487820D01*
X156955051Y-123487816D01*
X157051557Y-123298412D01*
X157117246Y-123096243D01*
X157150500Y-122886287D01*
X157150500Y-122673713D01*
X157117246Y-122463757D01*
X157051557Y-122261588D01*
X156955051Y-122072184D01*
X156955049Y-122072181D01*
X156955048Y-122072179D01*
X156830109Y-121900213D01*
X156679786Y-121749890D01*
X156507820Y-121624951D01*
X156507115Y-121624591D01*
X156499054Y-121620485D01*
X156448259Y-121572512D01*
X156431463Y-121504692D01*
X156453999Y-121438556D01*
X156499054Y-121399515D01*
X156507816Y-121395051D01*
X156540753Y-121371121D01*
X156679786Y-121270109D01*
X156679788Y-121270106D01*
X156679792Y-121270104D01*
X156830104Y-121119792D01*
X156830106Y-121119788D01*
X156830109Y-121119786D01*
X156955048Y-120947820D01*
X156955047Y-120947820D01*
X156955051Y-120947816D01*
X157051557Y-120758412D01*
X157117246Y-120556243D01*
X157150500Y-120346287D01*
X157150500Y-120133713D01*
X157117246Y-119923757D01*
X157051557Y-119721588D01*
X156955051Y-119532184D01*
X156955049Y-119532181D01*
X156955048Y-119532179D01*
X156830109Y-119360213D01*
X156679786Y-119209890D01*
X156507820Y-119084951D01*
X156507115Y-119084591D01*
X156499054Y-119080485D01*
X156448259Y-119032512D01*
X156431463Y-118964692D01*
X156453999Y-118898556D01*
X156499054Y-118859515D01*
X156507816Y-118855051D01*
X156540753Y-118831121D01*
X156679786Y-118730109D01*
X156679788Y-118730106D01*
X156679792Y-118730104D01*
X156830104Y-118579792D01*
X156830106Y-118579788D01*
X156830109Y-118579786D01*
X156955048Y-118407820D01*
X156955047Y-118407820D01*
X156955051Y-118407816D01*
X157051557Y-118218412D01*
X157117246Y-118016243D01*
X157150500Y-117806287D01*
X157150500Y-117593713D01*
X157117246Y-117383757D01*
X157051557Y-117181588D01*
X156955051Y-116992184D01*
X156955049Y-116992181D01*
X156955048Y-116992179D01*
X156830109Y-116820213D01*
X156679786Y-116669890D01*
X156507820Y-116544951D01*
X156507115Y-116544591D01*
X156499054Y-116540485D01*
X156448259Y-116492512D01*
X156431463Y-116424692D01*
X156453999Y-116358556D01*
X156499054Y-116319515D01*
X156507816Y-116315051D01*
X156540753Y-116291121D01*
X156679786Y-116190109D01*
X156679788Y-116190106D01*
X156679792Y-116190104D01*
X156830104Y-116039792D01*
X156830106Y-116039788D01*
X156830109Y-116039786D01*
X156955048Y-115867820D01*
X156955047Y-115867820D01*
X156955051Y-115867816D01*
X157051557Y-115678412D01*
X157117246Y-115476243D01*
X157150500Y-115266287D01*
X157150500Y-115053713D01*
X157117246Y-114843757D01*
X157051557Y-114641588D01*
X156955051Y-114452184D01*
X156955049Y-114452181D01*
X156955048Y-114452179D01*
X156830109Y-114280213D01*
X156679786Y-114129890D01*
X156507820Y-114004951D01*
X156507115Y-114004591D01*
X156499054Y-114000485D01*
X156448259Y-113952512D01*
X156431463Y-113884692D01*
X156453999Y-113818556D01*
X156499054Y-113779515D01*
X156507816Y-113775051D01*
X156540753Y-113751121D01*
X156679786Y-113650109D01*
X156679788Y-113650106D01*
X156679792Y-113650104D01*
X156830104Y-113499792D01*
X156830106Y-113499788D01*
X156830109Y-113499786D01*
X156955048Y-113327820D01*
X156955047Y-113327820D01*
X156955051Y-113327816D01*
X157051557Y-113138412D01*
X157117246Y-112936243D01*
X157150500Y-112726287D01*
X157150500Y-112513713D01*
X157117246Y-112303757D01*
X157051557Y-112101588D01*
X156955051Y-111912184D01*
X156955049Y-111912181D01*
X156955048Y-111912179D01*
X156830109Y-111740213D01*
X156679786Y-111589890D01*
X156507820Y-111464951D01*
X156507115Y-111464591D01*
X156499054Y-111460485D01*
X156448259Y-111412512D01*
X156431463Y-111344692D01*
X156453999Y-111278556D01*
X156499054Y-111239515D01*
X156507816Y-111235051D01*
X156540753Y-111211121D01*
X156679786Y-111110109D01*
X156679788Y-111110106D01*
X156679792Y-111110104D01*
X156830104Y-110959792D01*
X156830106Y-110959788D01*
X156830109Y-110959786D01*
X156955048Y-110787820D01*
X156955047Y-110787820D01*
X156955051Y-110787816D01*
X157051557Y-110598412D01*
X157117246Y-110396243D01*
X157150500Y-110186287D01*
X157150500Y-110180519D01*
X157170185Y-110113480D01*
X157222989Y-110067725D01*
X157292147Y-110057781D01*
X157355703Y-110086806D01*
X157362181Y-110092838D01*
X158063181Y-110793838D01*
X158096666Y-110855161D01*
X158099500Y-110881519D01*
X158099500Y-120531006D01*
X158099500Y-120668994D01*
X158099500Y-120668996D01*
X158099499Y-120668996D01*
X158126418Y-120804322D01*
X158126421Y-120804332D01*
X158179222Y-120931807D01*
X158255887Y-121046545D01*
X158255888Y-121046546D01*
X163939492Y-126730149D01*
X163972977Y-126791472D01*
X163974284Y-126837227D01*
X163950627Y-126986597D01*
X163949500Y-126993713D01*
X163949500Y-127206287D01*
X163982754Y-127416243D01*
X164030282Y-127562519D01*
X164048444Y-127618414D01*
X164144951Y-127807820D01*
X164269890Y-127979786D01*
X164420213Y-128130109D01*
X164592179Y-128255048D01*
X164592181Y-128255049D01*
X164592184Y-128255051D01*
X164601493Y-128259794D01*
X164652290Y-128307766D01*
X164669087Y-128375587D01*
X164646552Y-128441722D01*
X164601505Y-128480760D01*
X164592446Y-128485376D01*
X164592440Y-128485380D01*
X164538282Y-128524727D01*
X164538282Y-128524728D01*
X165170591Y-129157037D01*
X165107007Y-129174075D01*
X164992993Y-129239901D01*
X164899901Y-129332993D01*
X164834075Y-129447007D01*
X164817037Y-129510591D01*
X164184728Y-128878282D01*
X164184727Y-128878282D01*
X164145380Y-128932439D01*
X164048904Y-129121782D01*
X163983242Y-129323869D01*
X163983242Y-129323872D01*
X163950000Y-129533753D01*
X163950000Y-129746246D01*
X163983242Y-129956127D01*
X163983242Y-129956130D01*
X164048904Y-130158217D01*
X164145375Y-130347550D01*
X164184728Y-130401716D01*
X164817037Y-129769408D01*
X164834075Y-129832993D01*
X164899901Y-129947007D01*
X164992993Y-130040099D01*
X165107007Y-130105925D01*
X165170590Y-130122962D01*
X164538282Y-130755269D01*
X164538282Y-130755270D01*
X164592449Y-130794624D01*
X164781782Y-130891095D01*
X164983870Y-130956757D01*
X165193754Y-130990000D01*
X165406246Y-130990000D01*
X165616127Y-130956757D01*
X165616130Y-130956757D01*
X165818217Y-130891095D01*
X166007554Y-130794622D01*
X166061716Y-130755270D01*
X166061717Y-130755270D01*
X165429408Y-130122962D01*
X165492993Y-130105925D01*
X165607007Y-130040099D01*
X165700099Y-129947007D01*
X165765925Y-129832993D01*
X165782962Y-129769408D01*
X166415270Y-130401717D01*
X166415270Y-130401716D01*
X166454622Y-130347554D01*
X166551095Y-130158217D01*
X166616757Y-129956130D01*
X166616757Y-129956127D01*
X166650000Y-129746246D01*
X166650000Y-129533753D01*
X166616757Y-129323872D01*
X166616757Y-129323869D01*
X166551095Y-129121782D01*
X166454624Y-128932449D01*
X166415270Y-128878282D01*
X166415269Y-128878282D01*
X165782962Y-129510590D01*
X165765925Y-129447007D01*
X165700099Y-129332993D01*
X165607007Y-129239901D01*
X165492993Y-129174075D01*
X165429409Y-129157037D01*
X166061716Y-128524728D01*
X166007547Y-128485373D01*
X166007547Y-128485372D01*
X165998500Y-128480763D01*
X165947706Y-128432788D01*
X165930912Y-128364966D01*
X165953451Y-128298832D01*
X165998508Y-128259793D01*
X166007816Y-128255051D01*
X166116442Y-128176130D01*
X166179786Y-128130109D01*
X166179788Y-128130106D01*
X166179792Y-128130104D01*
X166330104Y-127979792D01*
X166330106Y-127979788D01*
X166330109Y-127979786D01*
X166455048Y-127807820D01*
X166455047Y-127807820D01*
X166455051Y-127807816D01*
X166551557Y-127618412D01*
X166617246Y-127416243D01*
X166650500Y-127206287D01*
X166650500Y-126993713D01*
X166617246Y-126783757D01*
X166551557Y-126581588D01*
X166455051Y-126392184D01*
X166455049Y-126392181D01*
X166455048Y-126392179D01*
X166330109Y-126220213D01*
X166179786Y-126069890D01*
X166007820Y-125944951D01*
X166001180Y-125941568D01*
X165999054Y-125940485D01*
X165948259Y-125892512D01*
X165931463Y-125824692D01*
X165953999Y-125758556D01*
X165999054Y-125719515D01*
X166007816Y-125715051D01*
X166116287Y-125636243D01*
X166179786Y-125590109D01*
X166179788Y-125590106D01*
X166179792Y-125590104D01*
X166330104Y-125439792D01*
X166330106Y-125439788D01*
X166330109Y-125439786D01*
X166455048Y-125267820D01*
X166455047Y-125267820D01*
X166455051Y-125267816D01*
X166551557Y-125078412D01*
X166617246Y-124876243D01*
X166650500Y-124666287D01*
X166650500Y-124453713D01*
X166617246Y-124243757D01*
X166551557Y-124041588D01*
X166455051Y-123852184D01*
X166455049Y-123852181D01*
X166455048Y-123852179D01*
X166330109Y-123680213D01*
X166179786Y-123529890D01*
X166007820Y-123404951D01*
X166007115Y-123404591D01*
X165999054Y-123400485D01*
X165948259Y-123352512D01*
X165931463Y-123284692D01*
X165953999Y-123218556D01*
X165999054Y-123179515D01*
X166007816Y-123175051D01*
X166061237Y-123136239D01*
X166179786Y-123050109D01*
X166179788Y-123050106D01*
X166179792Y-123050104D01*
X166330104Y-122899792D01*
X166330106Y-122899788D01*
X166330110Y-122899785D01*
X166453010Y-122730625D01*
X166455051Y-122727816D01*
X166551557Y-122538412D01*
X166617246Y-122336243D01*
X166650500Y-122126287D01*
X166650500Y-121913713D01*
X166617246Y-121703757D01*
X166551557Y-121501588D01*
X166455051Y-121312184D01*
X166455049Y-121312181D01*
X166455048Y-121312179D01*
X166330109Y-121140213D01*
X166179786Y-120989890D01*
X166007820Y-120864951D01*
X166007115Y-120864591D01*
X165999054Y-120860485D01*
X165948259Y-120812512D01*
X165931463Y-120744692D01*
X165953999Y-120678556D01*
X165999054Y-120639515D01*
X166007816Y-120635051D01*
X166116287Y-120556243D01*
X166179786Y-120510109D01*
X166179788Y-120510106D01*
X166179792Y-120510104D01*
X166330104Y-120359792D01*
X166330106Y-120359788D01*
X166330109Y-120359786D01*
X166455048Y-120187820D01*
X166455047Y-120187820D01*
X166455051Y-120187816D01*
X166551557Y-119998412D01*
X166617246Y-119796243D01*
X166650500Y-119586287D01*
X166650500Y-119373713D01*
X166617246Y-119163757D01*
X166551557Y-118961588D01*
X166455051Y-118772184D01*
X166455049Y-118772181D01*
X166455048Y-118772179D01*
X166330109Y-118600213D01*
X166216569Y-118486673D01*
X166183084Y-118425350D01*
X166188068Y-118355658D01*
X166229940Y-118299725D01*
X166260915Y-118282810D01*
X166392331Y-118233796D01*
X166507546Y-118147546D01*
X166593796Y-118032331D01*
X166644091Y-117897483D01*
X166650500Y-117837873D01*
X166650499Y-116042128D01*
X166644091Y-115982517D01*
X166629886Y-115944432D01*
X166593797Y-115847671D01*
X166593793Y-115847664D01*
X166507547Y-115732455D01*
X166507544Y-115732452D01*
X166392335Y-115646206D01*
X166392328Y-115646202D01*
X166257482Y-115595908D01*
X166257483Y-115595908D01*
X166197883Y-115589501D01*
X166197881Y-115589500D01*
X166197873Y-115589500D01*
X166197864Y-115589500D01*
X164402129Y-115589500D01*
X164402123Y-115589501D01*
X164342516Y-115595908D01*
X164207671Y-115646202D01*
X164207664Y-115646206D01*
X164092455Y-115732452D01*
X164092452Y-115732455D01*
X164006206Y-115847664D01*
X164006202Y-115847671D01*
X163955908Y-115982517D01*
X163949751Y-116039792D01*
X163949501Y-116042123D01*
X163949500Y-116042135D01*
X163949500Y-117837870D01*
X163949501Y-117837876D01*
X163955908Y-117897483D01*
X164006202Y-118032328D01*
X164006206Y-118032335D01*
X164092452Y-118147544D01*
X164092455Y-118147547D01*
X164207664Y-118233793D01*
X164207671Y-118233797D01*
X164339082Y-118282810D01*
X164395016Y-118324681D01*
X164419433Y-118390145D01*
X164404582Y-118458418D01*
X164383431Y-118486673D01*
X164269889Y-118600215D01*
X164144951Y-118772179D01*
X164048444Y-118961585D01*
X163982753Y-119163760D01*
X163949500Y-119373713D01*
X163949500Y-119379481D01*
X163929815Y-119446520D01*
X163877011Y-119492275D01*
X163807853Y-119502219D01*
X163744297Y-119473194D01*
X163737819Y-119467162D01*
X163236819Y-118966162D01*
X163203334Y-118904839D01*
X163200500Y-118878481D01*
X163200500Y-106551006D01*
X163196650Y-106531654D01*
X163193796Y-106517306D01*
X163189797Y-106497203D01*
X163183618Y-106466140D01*
X163173580Y-106415672D01*
X163170107Y-106407288D01*
X163120777Y-106288192D01*
X163044112Y-106173454D01*
X163044111Y-106173453D01*
X158882838Y-102012181D01*
X158849353Y-101950858D01*
X158854337Y-101881166D01*
X158896209Y-101825233D01*
X158961673Y-101800816D01*
X158970519Y-101800500D01*
X163268481Y-101800500D01*
X163335520Y-101820185D01*
X163356162Y-101836819D01*
X163939492Y-102420149D01*
X163972977Y-102481472D01*
X163974284Y-102527227D01*
X163949500Y-102683712D01*
X163949500Y-102896286D01*
X163969114Y-103020128D01*
X163982754Y-103106243D01*
X164027654Y-103244431D01*
X164048444Y-103308414D01*
X164144951Y-103497820D01*
X164269890Y-103669786D01*
X164420213Y-103820109D01*
X164592182Y-103945050D01*
X164600946Y-103949516D01*
X164651742Y-103997491D01*
X164668536Y-104065312D01*
X164645998Y-104131447D01*
X164600946Y-104170484D01*
X164592182Y-104174949D01*
X164420213Y-104299890D01*
X164269890Y-104450213D01*
X164144951Y-104622179D01*
X164048444Y-104811585D01*
X163982753Y-105013760D01*
X163949500Y-105223713D01*
X163949500Y-105436286D01*
X163969114Y-105560128D01*
X163982754Y-105646243D01*
X164027654Y-105784431D01*
X164048444Y-105848414D01*
X164144951Y-106037820D01*
X164269890Y-106209786D01*
X164420213Y-106360109D01*
X164592182Y-106485050D01*
X164600946Y-106489516D01*
X164651742Y-106537491D01*
X164668536Y-106605312D01*
X164645998Y-106671447D01*
X164600946Y-106710484D01*
X164592182Y-106714949D01*
X164420213Y-106839890D01*
X164269890Y-106990213D01*
X164144951Y-107162179D01*
X164048444Y-107351585D01*
X163982753Y-107553760D01*
X163949500Y-107763713D01*
X163949500Y-107976286D01*
X163969114Y-108100128D01*
X163982754Y-108186243D01*
X164027654Y-108324431D01*
X164048444Y-108388414D01*
X164144951Y-108577820D01*
X164269890Y-108749786D01*
X164420213Y-108900109D01*
X164592179Y-109025048D01*
X164592181Y-109025049D01*
X164592184Y-109025051D01*
X164601493Y-109029794D01*
X164652290Y-109077766D01*
X164669087Y-109145587D01*
X164646552Y-109211722D01*
X164601505Y-109250760D01*
X164592446Y-109255376D01*
X164592440Y-109255380D01*
X164538282Y-109294727D01*
X164538282Y-109294728D01*
X165170591Y-109927037D01*
X165107007Y-109944075D01*
X164992993Y-110009901D01*
X164899901Y-110102993D01*
X164834075Y-110217007D01*
X164817037Y-110280591D01*
X164184728Y-109648282D01*
X164184727Y-109648282D01*
X164145380Y-109702439D01*
X164048904Y-109891782D01*
X163983242Y-110093869D01*
X163983242Y-110093872D01*
X163950000Y-110303753D01*
X163950000Y-110516246D01*
X163983242Y-110726127D01*
X163983242Y-110726130D01*
X164048904Y-110928217D01*
X164145375Y-111117550D01*
X164184728Y-111171716D01*
X164817037Y-110539408D01*
X164834075Y-110602993D01*
X164899901Y-110717007D01*
X164992993Y-110810099D01*
X165107007Y-110875925D01*
X165170590Y-110892962D01*
X164538282Y-111525269D01*
X164538282Y-111525270D01*
X164592449Y-111564624D01*
X164781782Y-111661095D01*
X164983870Y-111726757D01*
X165193754Y-111760000D01*
X165406246Y-111760000D01*
X165616127Y-111726757D01*
X165616130Y-111726757D01*
X165818217Y-111661095D01*
X166007554Y-111564622D01*
X166061716Y-111525270D01*
X166061717Y-111525270D01*
X165429408Y-110892962D01*
X165492993Y-110875925D01*
X165607007Y-110810099D01*
X165700099Y-110717007D01*
X165765925Y-110602993D01*
X165782962Y-110539408D01*
X166415270Y-111171717D01*
X166415270Y-111171716D01*
X166454622Y-111117554D01*
X166551095Y-110928217D01*
X166616757Y-110726130D01*
X166616757Y-110726127D01*
X166650000Y-110516246D01*
X166650000Y-110303753D01*
X166616757Y-110093872D01*
X166616757Y-110093869D01*
X166551095Y-109891782D01*
X166454624Y-109702449D01*
X166415270Y-109648282D01*
X166415269Y-109648282D01*
X165782962Y-110280590D01*
X165765925Y-110217007D01*
X165700099Y-110102993D01*
X165607007Y-110009901D01*
X165492993Y-109944075D01*
X165429409Y-109927037D01*
X166061716Y-109294728D01*
X166007547Y-109255373D01*
X166007547Y-109255372D01*
X165998500Y-109250763D01*
X165947706Y-109202788D01*
X165930912Y-109134966D01*
X165953451Y-109068832D01*
X165998508Y-109029793D01*
X166007816Y-109025051D01*
X166090540Y-108964949D01*
X166179786Y-108900109D01*
X166179788Y-108900106D01*
X166179792Y-108900104D01*
X166330104Y-108749792D01*
X166330106Y-108749788D01*
X166330109Y-108749786D01*
X166455048Y-108577820D01*
X166455047Y-108577820D01*
X166455051Y-108577816D01*
X166551557Y-108388412D01*
X166617246Y-108186243D01*
X166650500Y-107976287D01*
X166650500Y-107763713D01*
X166617246Y-107553757D01*
X166551557Y-107351588D01*
X166455051Y-107162184D01*
X166455049Y-107162181D01*
X166455048Y-107162179D01*
X166330109Y-106990213D01*
X166179786Y-106839890D01*
X166007820Y-106714951D01*
X166007115Y-106714591D01*
X165999054Y-106710485D01*
X165948259Y-106662512D01*
X165931463Y-106594692D01*
X165953999Y-106528556D01*
X165999054Y-106489515D01*
X166007816Y-106485051D01*
X166090540Y-106424949D01*
X166179786Y-106360109D01*
X166179788Y-106360106D01*
X166179792Y-106360104D01*
X166330104Y-106209792D01*
X166330106Y-106209788D01*
X166330109Y-106209786D01*
X166455048Y-106037820D01*
X166455047Y-106037820D01*
X166455051Y-106037816D01*
X166551557Y-105848412D01*
X166617246Y-105646243D01*
X166650500Y-105436287D01*
X166650500Y-105223713D01*
X166617246Y-105013757D01*
X166551557Y-104811588D01*
X166455051Y-104622184D01*
X166455049Y-104622181D01*
X166455048Y-104622179D01*
X166330109Y-104450213D01*
X166179786Y-104299890D01*
X166007820Y-104174951D01*
X166007115Y-104174591D01*
X165999054Y-104170485D01*
X165948259Y-104122512D01*
X165931463Y-104054692D01*
X165953999Y-103988556D01*
X165999054Y-103949515D01*
X166007816Y-103945051D01*
X166045273Y-103917837D01*
X166179786Y-103820109D01*
X166179788Y-103820106D01*
X166179792Y-103820104D01*
X166330104Y-103669792D01*
X166330106Y-103669788D01*
X166330109Y-103669786D01*
X166455048Y-103497820D01*
X166455047Y-103497820D01*
X166455051Y-103497816D01*
X166551557Y-103308412D01*
X166617246Y-103106243D01*
X166650500Y-102896287D01*
X166650500Y-102683713D01*
X166617246Y-102473757D01*
X166551557Y-102271588D01*
X166455051Y-102082184D01*
X166455049Y-102082181D01*
X166455048Y-102082179D01*
X166330109Y-101910213D01*
X166179786Y-101759890D01*
X166007820Y-101634951D01*
X166007115Y-101634591D01*
X165999054Y-101630485D01*
X165948259Y-101582512D01*
X165931463Y-101514692D01*
X165953999Y-101448556D01*
X165999054Y-101409515D01*
X166007816Y-101405051D01*
X166090540Y-101344949D01*
X166179786Y-101280109D01*
X166179788Y-101280106D01*
X166179792Y-101280104D01*
X166330104Y-101129792D01*
X166330106Y-101129788D01*
X166330109Y-101129786D01*
X166455048Y-100957820D01*
X166455047Y-100957820D01*
X166455051Y-100957816D01*
X166551557Y-100768412D01*
X166617246Y-100566243D01*
X166650500Y-100356287D01*
X166650500Y-100143713D01*
X166617246Y-99933757D01*
X166551557Y-99731588D01*
X166455051Y-99542184D01*
X166455049Y-99542181D01*
X166455048Y-99542179D01*
X166330109Y-99370213D01*
X166216569Y-99256673D01*
X166183084Y-99195350D01*
X166188068Y-99125658D01*
X166229940Y-99069725D01*
X166260915Y-99052810D01*
X166392331Y-99003796D01*
X166507546Y-98917546D01*
X166593796Y-98802331D01*
X166644091Y-98667483D01*
X166650500Y-98607873D01*
X166650499Y-96812128D01*
X166644091Y-96752517D01*
X166604516Y-96646412D01*
X166593797Y-96617671D01*
X166593793Y-96617664D01*
X166507547Y-96502455D01*
X166507544Y-96502452D01*
X166392335Y-96416206D01*
X166392328Y-96416202D01*
X166257482Y-96365908D01*
X166257483Y-96365908D01*
X166197883Y-96359501D01*
X166197881Y-96359500D01*
X166197873Y-96359500D01*
X166197864Y-96359500D01*
X164402129Y-96359500D01*
X164402123Y-96359501D01*
X164342516Y-96365908D01*
X164207671Y-96416202D01*
X164207664Y-96416206D01*
X164092455Y-96502452D01*
X164092452Y-96502455D01*
X164006206Y-96617664D01*
X164006202Y-96617671D01*
X163955908Y-96752517D01*
X163949501Y-96812116D01*
X163949501Y-96812123D01*
X163949500Y-96812135D01*
X163949500Y-97849530D01*
X163929815Y-97916569D01*
X163877011Y-97962324D01*
X163807853Y-97972268D01*
X163801314Y-97971148D01*
X163788000Y-97968500D01*
X163787994Y-97968500D01*
X163787993Y-97968500D01*
X157850474Y-97968500D01*
X157803023Y-97959061D01*
X157733497Y-97930263D01*
X157733489Y-97930261D01*
X157578845Y-97899500D01*
X157578842Y-97899500D01*
X157421158Y-97899500D01*
X157421155Y-97899500D01*
X157266510Y-97930261D01*
X157266502Y-97930263D01*
X157254671Y-97935164D01*
X157185201Y-97942631D01*
X157122723Y-97911356D01*
X157087071Y-97851266D01*
X157089289Y-97782284D01*
X157117246Y-97696243D01*
X157150500Y-97486287D01*
X157150500Y-97273713D01*
X157117246Y-97063757D01*
X157051557Y-96861588D01*
X156955051Y-96672184D01*
X156955049Y-96672181D01*
X156955048Y-96672179D01*
X156830109Y-96500213D01*
X156679786Y-96349890D01*
X156507820Y-96224951D01*
X156507115Y-96224591D01*
X156499054Y-96220485D01*
X156448259Y-96172512D01*
X156431463Y-96104692D01*
X156453999Y-96038556D01*
X156499054Y-95999515D01*
X156507816Y-95995051D01*
X156540753Y-95971121D01*
X156679786Y-95870109D01*
X156679788Y-95870106D01*
X156679792Y-95870104D01*
X156830104Y-95719792D01*
X156830106Y-95719788D01*
X156830109Y-95719786D01*
X156955048Y-95547820D01*
X156955047Y-95547820D01*
X156955051Y-95547816D01*
X157051557Y-95358412D01*
X157117246Y-95156243D01*
X157150500Y-94946287D01*
X157150500Y-94733713D01*
X157117246Y-94523757D01*
X157051557Y-94321588D01*
X156955051Y-94132184D01*
X156955049Y-94132181D01*
X156955048Y-94132179D01*
X156830109Y-93960213D01*
X156679786Y-93809890D01*
X156507820Y-93684951D01*
X156507115Y-93684591D01*
X156499054Y-93680485D01*
X156448259Y-93632512D01*
X156431463Y-93564692D01*
X156453999Y-93498556D01*
X156499054Y-93459515D01*
X156507816Y-93455051D01*
X156540753Y-93431121D01*
X156679786Y-93330109D01*
X156679788Y-93330106D01*
X156679792Y-93330104D01*
X156830104Y-93179792D01*
X156830106Y-93179788D01*
X156830109Y-93179786D01*
X156955048Y-93007820D01*
X156955047Y-93007820D01*
X156955051Y-93007816D01*
X157051557Y-92818412D01*
X157117246Y-92616243D01*
X157150500Y-92406287D01*
X157150500Y-92193713D01*
X157117246Y-91983757D01*
X157096797Y-91920824D01*
X157094803Y-91850985D01*
X157130883Y-91791152D01*
X157193584Y-91760324D01*
X157262181Y-91767946D01*
X157266503Y-91769737D01*
X157406348Y-91797554D01*
X157421153Y-91800499D01*
X157421156Y-91800500D01*
X157421158Y-91800500D01*
X157578844Y-91800500D01*
X157578845Y-91800499D01*
X157655152Y-91785320D01*
X157733488Y-91769739D01*
X157733490Y-91769738D01*
X157733497Y-91769737D01*
X157851307Y-91720938D01*
X157898759Y-91711500D01*
X162952996Y-91711500D01*
X163044040Y-91693389D01*
X163088328Y-91684580D01*
X163214836Y-91632179D01*
X163215807Y-91631777D01*
X163215808Y-91631776D01*
X163215811Y-91631775D01*
X163330543Y-91555114D01*
X163783320Y-91102336D01*
X163844642Y-91068852D01*
X163914333Y-91073836D01*
X163970267Y-91115707D01*
X163994684Y-91181172D01*
X163995000Y-91190018D01*
X163995000Y-91196246D01*
X164028242Y-91406127D01*
X164028242Y-91406130D01*
X164093904Y-91608217D01*
X164190375Y-91797550D01*
X164229728Y-91851716D01*
X164862037Y-91219408D01*
X164879075Y-91282993D01*
X164944901Y-91397007D01*
X165037993Y-91490099D01*
X165152007Y-91555925D01*
X165215590Y-91572962D01*
X164583282Y-92205269D01*
X164583282Y-92205270D01*
X164637449Y-92244624D01*
X164826782Y-92341095D01*
X165028870Y-92406757D01*
X165238754Y-92440000D01*
X165451246Y-92440000D01*
X165661127Y-92406757D01*
X165661130Y-92406757D01*
X165863217Y-92341095D01*
X166052554Y-92244622D01*
X166106716Y-92205270D01*
X166106717Y-92205270D01*
X165474408Y-91572962D01*
X165537993Y-91555925D01*
X165652007Y-91490099D01*
X165745099Y-91397007D01*
X165810925Y-91282993D01*
X165827962Y-91219409D01*
X166460270Y-91851717D01*
X166460270Y-91851716D01*
X166499622Y-91797554D01*
X166596095Y-91608217D01*
X166661757Y-91406130D01*
X166661757Y-91406127D01*
X166695000Y-91196246D01*
X166695000Y-90983753D01*
X166661757Y-90773872D01*
X166661757Y-90773869D01*
X166596095Y-90571782D01*
X166499624Y-90382449D01*
X166460270Y-90328282D01*
X166460269Y-90328282D01*
X165827962Y-90960590D01*
X165810925Y-90897007D01*
X165745099Y-90782993D01*
X165652007Y-90689901D01*
X165537993Y-90624075D01*
X165474408Y-90607037D01*
X166106716Y-89974728D01*
X166052547Y-89935373D01*
X166052547Y-89935372D01*
X166043500Y-89930763D01*
X165992706Y-89882788D01*
X165975912Y-89814966D01*
X165998451Y-89748832D01*
X166043508Y-89709793D01*
X166052816Y-89705051D01*
X166132007Y-89647515D01*
X166224786Y-89580109D01*
X166224788Y-89580106D01*
X166224792Y-89580104D01*
X166375104Y-89429792D01*
X166375106Y-89429788D01*
X166375109Y-89429786D01*
X166500048Y-89257820D01*
X166500047Y-89257820D01*
X166500051Y-89257816D01*
X166596557Y-89068412D01*
X166662246Y-88866243D01*
X166695500Y-88656287D01*
X166695500Y-88443713D01*
X166662246Y-88233757D01*
X166596557Y-88031588D01*
X166500051Y-87842184D01*
X166500049Y-87842181D01*
X166500048Y-87842179D01*
X166375109Y-87670213D01*
X166224786Y-87519890D01*
X166052820Y-87394951D01*
X166052115Y-87394591D01*
X166044054Y-87390485D01*
X165993259Y-87342512D01*
X165976463Y-87274692D01*
X165998999Y-87208556D01*
X166044054Y-87169515D01*
X166052816Y-87165051D01*
X166123477Y-87113713D01*
X166224786Y-87040109D01*
X166224788Y-87040106D01*
X166224792Y-87040104D01*
X166375104Y-86889792D01*
X166375106Y-86889788D01*
X166375109Y-86889786D01*
X166500048Y-86717820D01*
X166500047Y-86717820D01*
X166500051Y-86717816D01*
X166596557Y-86528412D01*
X166662246Y-86326243D01*
X166695500Y-86116287D01*
X166695500Y-85903713D01*
X166662246Y-85693757D01*
X166596557Y-85491588D01*
X166500051Y-85302184D01*
X166500049Y-85302181D01*
X166500048Y-85302179D01*
X166375109Y-85130213D01*
X166224786Y-84979890D01*
X166052820Y-84854951D01*
X166052115Y-84854591D01*
X166044054Y-84850485D01*
X165993259Y-84802512D01*
X165976463Y-84734692D01*
X165998999Y-84668556D01*
X166044054Y-84629515D01*
X166052816Y-84625051D01*
X166074789Y-84609086D01*
X166224786Y-84500109D01*
X166224788Y-84500106D01*
X166224792Y-84500104D01*
X166375104Y-84349792D01*
X166375106Y-84349788D01*
X166375109Y-84349786D01*
X166500048Y-84177820D01*
X166500047Y-84177820D01*
X166500051Y-84177816D01*
X166596557Y-83988412D01*
X166662246Y-83786243D01*
X166695500Y-83576287D01*
X166695500Y-83363713D01*
X166662246Y-83153757D01*
X166596557Y-82951588D01*
X166500051Y-82762184D01*
X166500049Y-82762181D01*
X166500048Y-82762179D01*
X166375109Y-82590213D01*
X166224786Y-82439890D01*
X166052820Y-82314951D01*
X166052115Y-82314591D01*
X166044054Y-82310485D01*
X165993259Y-82262512D01*
X165976463Y-82194692D01*
X165998999Y-82128556D01*
X166044054Y-82089515D01*
X166052816Y-82085051D01*
X166123477Y-82033713D01*
X166224786Y-81960109D01*
X166224788Y-81960106D01*
X166224792Y-81960104D01*
X166375104Y-81809792D01*
X166375106Y-81809788D01*
X166375109Y-81809786D01*
X166500048Y-81637820D01*
X166500047Y-81637820D01*
X166500051Y-81637816D01*
X166596557Y-81448412D01*
X166662246Y-81246243D01*
X166695500Y-81036287D01*
X166695500Y-80823713D01*
X166662246Y-80613757D01*
X166596557Y-80411588D01*
X166500051Y-80222184D01*
X166500049Y-80222181D01*
X166500048Y-80222179D01*
X166375109Y-80050213D01*
X166261569Y-79936673D01*
X166228084Y-79875350D01*
X166233068Y-79805658D01*
X166274940Y-79749725D01*
X166305915Y-79732810D01*
X166437331Y-79683796D01*
X166552546Y-79597546D01*
X166638796Y-79482331D01*
X166689091Y-79347483D01*
X166695500Y-79287873D01*
X166695499Y-77492128D01*
X166689091Y-77432517D01*
X166664657Y-77367007D01*
X166638797Y-77297671D01*
X166638793Y-77297664D01*
X166552547Y-77182455D01*
X166552544Y-77182452D01*
X166437335Y-77096206D01*
X166437328Y-77096202D01*
X166302482Y-77045908D01*
X166302483Y-77045908D01*
X166242883Y-77039501D01*
X166242881Y-77039500D01*
X166242873Y-77039500D01*
X166242864Y-77039500D01*
X164447129Y-77039500D01*
X164447123Y-77039501D01*
X164387516Y-77045908D01*
X164252671Y-77096202D01*
X164252664Y-77096206D01*
X164137455Y-77182452D01*
X164137452Y-77182455D01*
X164051206Y-77297664D01*
X164051202Y-77297671D01*
X164000908Y-77432517D01*
X163994501Y-77492116D01*
X163994500Y-77492127D01*
X163994500Y-78192331D01*
X163994501Y-78775500D01*
X163974816Y-78842539D01*
X163922013Y-78888294D01*
X163870501Y-78899500D01*
X157023547Y-78899500D01*
X156956508Y-78879815D01*
X156923230Y-78848385D01*
X156834510Y-78726272D01*
X156830107Y-78720211D01*
X156716181Y-78606285D01*
X156682696Y-78544962D01*
X156687680Y-78475270D01*
X156729552Y-78419337D01*
X156760529Y-78402422D01*
X156892086Y-78353354D01*
X156892093Y-78353350D01*
X157007187Y-78267190D01*
X157007190Y-78267187D01*
X157093350Y-78152093D01*
X157093354Y-78152086D01*
X157143596Y-78017379D01*
X157143598Y-78017372D01*
X157149999Y-77957844D01*
X157150000Y-77957827D01*
X157150000Y-77310000D01*
X156233012Y-77310000D01*
X156265925Y-77252993D01*
X156300000Y-77125826D01*
X156300000Y-76994174D01*
X156265925Y-76867007D01*
X156233012Y-76810000D01*
X157150000Y-76810000D01*
X157150000Y-76162172D01*
X157149999Y-76162155D01*
X157143598Y-76102627D01*
X157143596Y-76102620D01*
X157093354Y-75967913D01*
X157093350Y-75967906D01*
X157007190Y-75852812D01*
X157007187Y-75852809D01*
X156892093Y-75766649D01*
X156892086Y-75766645D01*
X156822475Y-75740682D01*
X156766541Y-75698811D01*
X156742124Y-75633346D01*
X156756976Y-75565073D01*
X156806381Y-75515668D01*
X156865808Y-75500500D01*
X168375500Y-75500500D01*
X168442539Y-75520185D01*
X168488294Y-75572989D01*
X168499500Y-75624500D01*
X168499500Y-133375500D01*
X168479815Y-133442539D01*
X168427011Y-133488294D01*
X168375500Y-133499500D01*
X104624500Y-133499500D01*
X104557461Y-133479815D01*
X104511706Y-133427011D01*
X104500500Y-133375500D01*
X104500500Y-130687486D01*
X117450001Y-130687486D01*
X117460494Y-130790197D01*
X117515641Y-130956619D01*
X117515643Y-130956624D01*
X117607684Y-131105845D01*
X117731654Y-131229815D01*
X117880875Y-131321856D01*
X117880880Y-131321858D01*
X118047302Y-131377005D01*
X118047309Y-131377006D01*
X118150019Y-131387499D01*
X119049999Y-131387499D01*
X119550000Y-131387499D01*
X120449972Y-131387499D01*
X120449986Y-131387498D01*
X120477839Y-131384653D01*
X120552697Y-131377005D01*
X120719119Y-131321858D01*
X120719124Y-131321856D01*
X120868345Y-131229815D01*
X120992315Y-131105845D01*
X121084356Y-130956624D01*
X121084358Y-130956619D01*
X121139505Y-130790197D01*
X121139506Y-130790190D01*
X121149999Y-130687486D01*
X121150000Y-130687473D01*
X121150000Y-130475000D01*
X119550000Y-130475000D01*
X119550000Y-131387499D01*
X119049999Y-131387499D01*
X119050000Y-131387498D01*
X119050000Y-130475000D01*
X117450001Y-130475000D01*
X117450001Y-130687486D01*
X104500500Y-130687486D01*
X104500500Y-129762513D01*
X117450000Y-129762513D01*
X117450000Y-129975000D01*
X119050000Y-129975000D01*
X119050000Y-129062500D01*
X118150028Y-129062500D01*
X118150012Y-129062501D01*
X118047302Y-129072994D01*
X117880880Y-129128141D01*
X117880875Y-129128143D01*
X117731654Y-129220184D01*
X117607684Y-129344154D01*
X117515643Y-129493375D01*
X117515641Y-129493380D01*
X117460494Y-129659802D01*
X117460493Y-129659809D01*
X117450000Y-129762513D01*
X104500500Y-129762513D01*
X104500500Y-123285803D01*
X107092500Y-123285803D01*
X107092500Y-123850000D01*
X107909488Y-123850000D01*
X107876575Y-123907007D01*
X107842500Y-124034174D01*
X107842500Y-124165826D01*
X107876575Y-124292993D01*
X107909488Y-124350000D01*
X107092501Y-124350000D01*
X107092501Y-124914197D01*
X107102900Y-125046332D01*
X107157877Y-125264519D01*
X107250928Y-125469374D01*
X107250931Y-125469380D01*
X107379059Y-125654323D01*
X107379069Y-125654335D01*
X107538164Y-125813430D01*
X107538176Y-125813440D01*
X107723119Y-125941568D01*
X107723125Y-125941571D01*
X107927980Y-126034622D01*
X108146167Y-126089599D01*
X108278310Y-126099999D01*
X109092499Y-126099999D01*
X109092500Y-126099998D01*
X109092500Y-124600000D01*
X109592500Y-124600000D01*
X109592500Y-126099999D01*
X110406682Y-126099999D01*
X110406697Y-126099998D01*
X110538832Y-126089599D01*
X110757019Y-126034622D01*
X110961874Y-125941571D01*
X110961880Y-125941568D01*
X111146823Y-125813440D01*
X111146835Y-125813430D01*
X111305930Y-125654335D01*
X111305940Y-125654323D01*
X111434068Y-125469380D01*
X111434071Y-125469374D01*
X111527122Y-125264519D01*
X111582099Y-125046332D01*
X111592499Y-124914196D01*
X111592500Y-124914184D01*
X111592500Y-124350000D01*
X110775512Y-124350000D01*
X110808425Y-124292993D01*
X110842500Y-124165826D01*
X110842500Y-124034174D01*
X110808425Y-123907007D01*
X110775512Y-123850000D01*
X111592499Y-123850000D01*
X111592499Y-123285817D01*
X111592498Y-123285802D01*
X111582099Y-123153667D01*
X111527122Y-122935480D01*
X111434071Y-122730625D01*
X111434068Y-122730619D01*
X111305940Y-122545676D01*
X111305930Y-122545664D01*
X111146835Y-122386569D01*
X111146823Y-122386559D01*
X110961880Y-122258431D01*
X110961874Y-122258428D01*
X110757019Y-122165377D01*
X110538832Y-122110400D01*
X110406696Y-122100000D01*
X109592500Y-122100000D01*
X109592500Y-123600000D01*
X109092500Y-123600000D01*
X109092500Y-122100000D01*
X108278317Y-122100000D01*
X108278302Y-122100001D01*
X108146167Y-122110400D01*
X107927980Y-122165377D01*
X107723125Y-122258428D01*
X107723119Y-122258431D01*
X107538176Y-122386559D01*
X107538164Y-122386569D01*
X107379069Y-122545664D01*
X107379059Y-122545676D01*
X107250931Y-122730619D01*
X107250928Y-122730625D01*
X107157877Y-122935480D01*
X107102900Y-123153667D01*
X107092500Y-123285803D01*
X104500500Y-123285803D01*
X104500500Y-106599982D01*
X105037000Y-106599982D01*
X105037000Y-111600017D01*
X105047500Y-111702796D01*
X105102685Y-111869332D01*
X105102687Y-111869337D01*
X105113219Y-111886412D01*
X105194788Y-112018656D01*
X105318844Y-112142712D01*
X105468165Y-112234814D01*
X105634702Y-112289999D01*
X105737490Y-112300500D01*
X105737495Y-112300500D01*
X107312505Y-112300500D01*
X107312510Y-112300500D01*
X107415298Y-112289999D01*
X107581835Y-112234814D01*
X107731156Y-112142712D01*
X107758833Y-112115033D01*
X107820152Y-112081550D01*
X107889844Y-112086532D01*
X107934195Y-112115034D01*
X108170681Y-112351520D01*
X108204166Y-112412843D01*
X108207000Y-112439201D01*
X108207000Y-115725500D01*
X108187315Y-115792539D01*
X108134511Y-115838294D01*
X108083000Y-115849500D01*
X107544629Y-115849500D01*
X107544623Y-115849501D01*
X107485016Y-115855908D01*
X107350171Y-115906202D01*
X107350164Y-115906206D01*
X107234955Y-115992452D01*
X107234952Y-115992455D01*
X107148706Y-116107664D01*
X107148702Y-116107671D01*
X107098408Y-116242517D01*
X107092001Y-116302116D01*
X107092001Y-116302123D01*
X107092000Y-116302135D01*
X107092000Y-119897870D01*
X107092001Y-119897876D01*
X107098408Y-119957483D01*
X107148702Y-120092328D01*
X107148706Y-120092335D01*
X107234952Y-120207544D01*
X107234955Y-120207547D01*
X107350164Y-120293793D01*
X107350171Y-120293797D01*
X107485017Y-120344091D01*
X107485016Y-120344091D01*
X107491944Y-120344835D01*
X107544627Y-120350500D01*
X111140372Y-120350499D01*
X111199983Y-120344091D01*
X111334831Y-120293796D01*
X111450046Y-120207546D01*
X111536296Y-120092331D01*
X111553926Y-120045060D01*
X111595796Y-119989128D01*
X111661259Y-119964710D01*
X111729533Y-119979561D01*
X111778939Y-120028965D01*
X111793933Y-120094971D01*
X111792001Y-120131342D01*
X111792000Y-120131386D01*
X111792000Y-122068613D01*
X111792001Y-122068652D01*
X111794795Y-122121243D01*
X111794795Y-122121244D01*
X111821938Y-122261588D01*
X111839255Y-122351126D01*
X111852627Y-122386559D01*
X111921925Y-122570189D01*
X112040429Y-122772131D01*
X112040434Y-122772138D01*
X112191356Y-122951141D01*
X112191358Y-122951143D01*
X112370361Y-123102065D01*
X112370368Y-123102070D01*
X112572310Y-123220574D01*
X112791374Y-123303245D01*
X113021259Y-123347705D01*
X113073878Y-123350500D01*
X113073886Y-123350500D01*
X115011114Y-123350500D01*
X115011122Y-123350500D01*
X115063741Y-123347705D01*
X115293626Y-123303245D01*
X115512690Y-123220574D01*
X115714632Y-123102070D01*
X115893642Y-122951142D01*
X115936943Y-122899785D01*
X116044565Y-122772138D01*
X116044565Y-122772137D01*
X116044570Y-122772132D01*
X116163074Y-122570190D01*
X116245745Y-122351126D01*
X116290205Y-122121241D01*
X116293000Y-122068622D01*
X116293000Y-120131378D01*
X116290205Y-120078759D01*
X116245745Y-119848874D01*
X116163074Y-119629810D01*
X116044570Y-119427868D01*
X116044565Y-119427861D01*
X115893643Y-119248858D01*
X115893641Y-119248856D01*
X115714638Y-119097934D01*
X115714631Y-119097929D01*
X115512689Y-118979425D01*
X115386873Y-118931945D01*
X115293626Y-118896755D01*
X115293621Y-118896754D01*
X115063743Y-118852295D01*
X115011152Y-118849501D01*
X115011129Y-118849500D01*
X115011122Y-118849500D01*
X113073878Y-118849500D01*
X113073870Y-118849500D01*
X113073847Y-118849501D01*
X113021256Y-118852295D01*
X113021255Y-118852295D01*
X112791378Y-118896754D01*
X112791376Y-118896754D01*
X112791374Y-118896755D01*
X112752883Y-118911281D01*
X112572310Y-118979425D01*
X112370368Y-119097929D01*
X112370361Y-119097934D01*
X112191358Y-119248856D01*
X112191356Y-119248858D01*
X112040434Y-119427861D01*
X112040429Y-119427868D01*
X111921925Y-119629810D01*
X111839253Y-119848880D01*
X111838740Y-119851532D01*
X111838212Y-119852552D01*
X111837817Y-119853950D01*
X111837532Y-119853869D01*
X111806675Y-119913609D01*
X111746139Y-119948497D01*
X111676351Y-119945117D01*
X111619468Y-119904544D01*
X111593551Y-119839659D01*
X111592999Y-119827989D01*
X111592999Y-116302128D01*
X111586591Y-116242517D01*
X111581961Y-116230104D01*
X111536297Y-116107671D01*
X111536293Y-116107664D01*
X111450047Y-115992455D01*
X111450044Y-115992452D01*
X111334835Y-115906206D01*
X111334828Y-115906202D01*
X111199982Y-115855908D01*
X111199983Y-115855908D01*
X111140383Y-115849501D01*
X111140381Y-115849500D01*
X111140373Y-115849500D01*
X111140365Y-115849500D01*
X110602000Y-115849500D01*
X110534961Y-115829815D01*
X110489206Y-115777011D01*
X110478000Y-115725500D01*
X110478000Y-112292846D01*
X110497685Y-112225807D01*
X110550489Y-112180052D01*
X110619647Y-112170108D01*
X110667098Y-112187308D01*
X110743373Y-112234356D01*
X110743380Y-112234359D01*
X110909802Y-112289505D01*
X111012519Y-112299999D01*
X111549999Y-112299999D01*
X112050000Y-112299999D01*
X112587472Y-112299999D01*
X112587486Y-112299998D01*
X112690196Y-112289505D01*
X112690198Y-112289505D01*
X112856619Y-112234359D01*
X112856630Y-112234354D01*
X113005840Y-112142319D01*
X113005844Y-112142316D01*
X113129816Y-112018344D01*
X113129819Y-112018340D01*
X113221854Y-111869130D01*
X113221859Y-111869119D01*
X113277005Y-111702697D01*
X113287499Y-111599986D01*
X113287500Y-111599973D01*
X113287500Y-109350000D01*
X112050000Y-109350000D01*
X112050000Y-112299999D01*
X111549999Y-112299999D01*
X111550000Y-112299998D01*
X111550000Y-109350000D01*
X110312500Y-109350000D01*
X110312500Y-110982299D01*
X110292815Y-111049339D01*
X110240011Y-111095093D01*
X110170853Y-111105037D01*
X110107297Y-111076012D01*
X110100819Y-111069980D01*
X108280825Y-109249986D01*
X114300001Y-109249986D01*
X114310494Y-109352697D01*
X114365641Y-109519119D01*
X114365643Y-109519124D01*
X114457684Y-109668345D01*
X114581654Y-109792315D01*
X114730875Y-109884356D01*
X114730880Y-109884358D01*
X114897302Y-109939505D01*
X114897309Y-109939506D01*
X115000019Y-109949999D01*
X115212499Y-109949999D01*
X115712500Y-109949999D01*
X115924972Y-109949999D01*
X115924986Y-109949998D01*
X116027697Y-109939505D01*
X116194119Y-109884358D01*
X116194124Y-109884356D01*
X116343345Y-109792315D01*
X116467315Y-109668345D01*
X116559356Y-109519124D01*
X116559358Y-109519119D01*
X116614505Y-109352697D01*
X116614506Y-109352690D01*
X116624999Y-109249986D01*
X116625000Y-109249973D01*
X116625000Y-108350000D01*
X115712500Y-108350000D01*
X115712500Y-109949999D01*
X115212499Y-109949999D01*
X115212500Y-109949998D01*
X115212500Y-108350000D01*
X114300001Y-108350000D01*
X114300001Y-109249986D01*
X108280825Y-109249986D01*
X108218519Y-109187680D01*
X108185034Y-109126357D01*
X108190018Y-109056665D01*
X108218515Y-109012323D01*
X110100821Y-107130017D01*
X110162142Y-107096534D01*
X110231834Y-107101518D01*
X110287767Y-107143390D01*
X110312184Y-107208854D01*
X110312500Y-107217700D01*
X110312500Y-108850000D01*
X111550000Y-108850000D01*
X112050000Y-108850000D01*
X113287499Y-108850000D01*
X113287499Y-106600028D01*
X113287498Y-106600013D01*
X113277005Y-106497303D01*
X113277005Y-106497301D01*
X113221859Y-106330880D01*
X113221854Y-106330869D01*
X113129819Y-106181659D01*
X113129816Y-106181655D01*
X113005844Y-106057683D01*
X113005840Y-106057680D01*
X112856630Y-105965645D01*
X112856619Y-105965640D01*
X112690197Y-105910494D01*
X112587486Y-105900000D01*
X112050000Y-105900000D01*
X112050000Y-108850000D01*
X111550000Y-108850000D01*
X111550000Y-105900000D01*
X111528100Y-105878100D01*
X111494615Y-105816777D01*
X111499599Y-105747085D01*
X111528098Y-105702740D01*
X112118611Y-105112228D01*
X112135221Y-105089366D01*
X112223667Y-104967632D01*
X112302602Y-104812712D01*
X112304508Y-104809308D01*
X112312817Y-104783738D01*
X112360041Y-104638397D01*
X112378542Y-104521585D01*
X112388000Y-104461870D01*
X112388000Y-102681476D01*
X112407685Y-102614437D01*
X112412734Y-102607165D01*
X112446293Y-102562335D01*
X112446292Y-102562335D01*
X112446296Y-102562331D01*
X112496591Y-102427483D01*
X112503000Y-102367873D01*
X112502999Y-102303413D01*
X112522683Y-102236377D01*
X112575486Y-102190621D01*
X112644644Y-102180677D01*
X112708200Y-102209701D01*
X112727317Y-102230529D01*
X112839055Y-102384321D01*
X112978178Y-102523444D01*
X113137356Y-102639095D01*
X113312662Y-102728418D01*
X113499783Y-102789218D01*
X113542500Y-102795984D01*
X113542500Y-101603012D01*
X113599507Y-101635925D01*
X113726674Y-101670000D01*
X113858326Y-101670000D01*
X113985493Y-101635925D01*
X114042500Y-101603012D01*
X114042500Y-102795983D01*
X114085216Y-102789218D01*
X114272337Y-102728418D01*
X114447643Y-102639095D01*
X114606821Y-102523444D01*
X114745944Y-102384321D01*
X114861597Y-102225141D01*
X114951734Y-102048235D01*
X114960378Y-102039082D01*
X114965112Y-102027418D01*
X114983912Y-102014163D01*
X114999708Y-101997439D01*
X115011928Y-101994412D01*
X115022217Y-101987159D01*
X115045199Y-101986172D01*
X115067529Y-101980643D01*
X115079444Y-101984703D01*
X115092022Y-101984164D01*
X115111889Y-101995759D01*
X115133664Y-102003180D01*
X115142937Y-102013881D01*
X115152365Y-102019384D01*
X115172702Y-102048230D01*
X115173614Y-102050021D01*
X115173616Y-102050025D01*
X115183483Y-102069389D01*
X115197000Y-102125686D01*
X115197000Y-105934371D01*
X115224278Y-106106603D01*
X115215323Y-106175896D01*
X115170327Y-106229348D01*
X115103575Y-106249987D01*
X115101806Y-106250000D01*
X115000029Y-106250000D01*
X115000012Y-106250001D01*
X114897302Y-106260494D01*
X114730880Y-106315641D01*
X114730875Y-106315643D01*
X114581654Y-106407684D01*
X114457684Y-106531654D01*
X114365643Y-106680875D01*
X114365641Y-106680880D01*
X114310494Y-106847302D01*
X114310493Y-106847309D01*
X114300000Y-106950013D01*
X114300000Y-107850000D01*
X116676361Y-107850000D01*
X116676361Y-107852609D01*
X116721664Y-107855849D01*
X116766011Y-107884350D01*
X117388181Y-108506520D01*
X117421666Y-108567843D01*
X117424500Y-108594201D01*
X117424500Y-109250001D01*
X117424501Y-109250019D01*
X117434349Y-109346412D01*
X117435001Y-109352797D01*
X117435002Y-109352800D01*
X117445706Y-109385102D01*
X117452000Y-109424105D01*
X117452000Y-126298134D01*
X117452000Y-126476866D01*
X117452696Y-126481258D01*
X117457931Y-126514315D01*
X117458814Y-126546312D01*
X117457832Y-126555936D01*
X117449500Y-126637483D01*
X117449500Y-127562501D01*
X117449501Y-127562519D01*
X117460000Y-127665296D01*
X117460001Y-127665299D01*
X117515185Y-127831831D01*
X117515186Y-127831834D01*
X117607288Y-127981156D01*
X117731344Y-128105212D01*
X117880666Y-128197314D01*
X118047203Y-128252499D01*
X118149991Y-128263000D01*
X118805798Y-128262999D01*
X118872837Y-128282683D01*
X118893479Y-128299318D01*
X119233889Y-128639728D01*
X119360272Y-128766111D01*
X119504868Y-128871167D01*
X119509447Y-128873500D01*
X119560243Y-128921475D01*
X119577038Y-128989296D01*
X119554500Y-129055431D01*
X119550000Y-129060776D01*
X119550000Y-129975000D01*
X121149999Y-129975000D01*
X121149999Y-129762528D01*
X121149998Y-129762513D01*
X121139505Y-129659802D01*
X121084358Y-129493380D01*
X121084356Y-129493375D01*
X120992315Y-129344154D01*
X120895342Y-129247181D01*
X120861857Y-129185858D01*
X120866841Y-129116166D01*
X120908713Y-129060233D01*
X120974177Y-129035816D01*
X120983023Y-129035500D01*
X123025308Y-129035500D01*
X123039598Y-129039122D01*
X123051279Y-129038250D01*
X123077474Y-129048725D01*
X123084387Y-129050478D01*
X123090300Y-129053682D01*
X123092184Y-129055051D01*
X123102927Y-129060525D01*
X123104280Y-129061258D01*
X123127991Y-129084818D01*
X123152290Y-129107766D01*
X123152683Y-129109353D01*
X123153843Y-129110506D01*
X123161055Y-129143157D01*
X123169087Y-129175587D01*
X123168560Y-129177133D01*
X123168913Y-129178731D01*
X123157328Y-129210095D01*
X123146552Y-129241722D01*
X123145221Y-129242875D01*
X123144705Y-129244273D01*
X123136295Y-129250610D01*
X123101505Y-129280760D01*
X123092446Y-129285376D01*
X123092440Y-129285380D01*
X123038282Y-129324727D01*
X123038282Y-129324728D01*
X123670591Y-129957037D01*
X123607007Y-129974075D01*
X123492993Y-130039901D01*
X123399901Y-130132993D01*
X123334075Y-130247007D01*
X123317037Y-130310591D01*
X122684728Y-129678282D01*
X122684727Y-129678282D01*
X122645380Y-129732439D01*
X122548904Y-129921782D01*
X122483242Y-130123869D01*
X122483242Y-130123872D01*
X122450000Y-130333753D01*
X122450000Y-130546246D01*
X122483242Y-130756127D01*
X122483242Y-130756130D01*
X122548904Y-130958217D01*
X122645375Y-131147550D01*
X122684728Y-131201716D01*
X123317037Y-130569408D01*
X123334075Y-130632993D01*
X123399901Y-130747007D01*
X123492993Y-130840099D01*
X123607007Y-130905925D01*
X123670590Y-130922962D01*
X123038282Y-131555269D01*
X123038282Y-131555270D01*
X123092449Y-131594624D01*
X123281782Y-131691095D01*
X123483870Y-131756757D01*
X123693754Y-131790000D01*
X123906246Y-131790000D01*
X124116127Y-131756757D01*
X124116130Y-131756757D01*
X124318217Y-131691095D01*
X124507554Y-131594622D01*
X124561716Y-131555270D01*
X124561717Y-131555270D01*
X123929408Y-130922962D01*
X123992993Y-130905925D01*
X124107007Y-130840099D01*
X124200099Y-130747007D01*
X124265925Y-130632993D01*
X124282962Y-130569408D01*
X124915270Y-131201717D01*
X124915270Y-131201716D01*
X124954622Y-131147554D01*
X125051095Y-130958217D01*
X125116757Y-130756130D01*
X125116757Y-130756127D01*
X125150000Y-130546246D01*
X125150000Y-130458181D01*
X125144762Y-130300687D01*
X125116757Y-130123872D01*
X125116757Y-130123869D01*
X125051095Y-129921782D01*
X124954624Y-129732449D01*
X124915270Y-129678282D01*
X124915269Y-129678282D01*
X124282962Y-130310590D01*
X124265925Y-130247007D01*
X124200099Y-130132993D01*
X124107007Y-130039901D01*
X123992993Y-129974075D01*
X123929409Y-129957037D01*
X124561716Y-129324728D01*
X124507547Y-129285373D01*
X124507547Y-129285372D01*
X124498500Y-129280763D01*
X124490486Y-129273193D01*
X124480169Y-129269308D01*
X124465533Y-129249626D01*
X124447706Y-129232788D01*
X124445056Y-129222088D01*
X124438477Y-129213240D01*
X124436805Y-129188768D01*
X124430912Y-129164966D01*
X124434468Y-129154531D01*
X124433717Y-129143532D01*
X124445540Y-129122044D01*
X124453451Y-129098832D01*
X124462965Y-129090374D01*
X124467399Y-129082317D01*
X124492364Y-129064241D01*
X124495722Y-129061257D01*
X124497076Y-129060523D01*
X124507816Y-129055051D01*
X124509697Y-129053684D01*
X124515616Y-129050477D01*
X124540442Y-129045160D01*
X124574692Y-129035500D01*
X126225790Y-129035500D01*
X126292829Y-129055185D01*
X126338584Y-129107989D01*
X126348528Y-129177147D01*
X126319503Y-129240703D01*
X126282085Y-129269985D01*
X126218475Y-129302395D01*
X126078397Y-129404167D01*
X125955967Y-129526597D01*
X125854195Y-129666675D01*
X125775591Y-129820944D01*
X125722085Y-129985615D01*
X125720884Y-129993199D01*
X125720885Y-129993200D01*
X126879314Y-129993200D01*
X126874920Y-129997594D01*
X126822259Y-130088806D01*
X126795000Y-130190539D01*
X126795000Y-130295861D01*
X126822259Y-130397594D01*
X126874920Y-130488806D01*
X126879314Y-130493200D01*
X125720885Y-130493200D01*
X125722085Y-130500784D01*
X125775591Y-130665455D01*
X125854195Y-130819724D01*
X125955967Y-130959802D01*
X126078397Y-131082232D01*
X126218475Y-131184004D01*
X126372742Y-131262608D01*
X126537415Y-131316114D01*
X126708429Y-131343200D01*
X126945000Y-131343200D01*
X126945000Y-130558886D01*
X126949394Y-130563280D01*
X127040606Y-130615941D01*
X127142339Y-130643200D01*
X127247661Y-130643200D01*
X127349394Y-130615941D01*
X127440606Y-130563280D01*
X127445000Y-130558886D01*
X127445000Y-131343200D01*
X127681571Y-131343200D01*
X127852584Y-131316114D01*
X128017257Y-131262608D01*
X128171524Y-131184004D01*
X128311602Y-131082232D01*
X128434032Y-130959802D01*
X128535804Y-130819724D01*
X128614408Y-130665455D01*
X128667914Y-130500784D01*
X128669115Y-130493200D01*
X127510686Y-130493200D01*
X127515080Y-130488806D01*
X127567741Y-130397594D01*
X127595000Y-130295861D01*
X127595000Y-130190539D01*
X127567741Y-130088806D01*
X127515080Y-129997594D01*
X127510686Y-129993200D01*
X128669115Y-129993200D01*
X128669115Y-129993199D01*
X151120884Y-129993199D01*
X151120885Y-129993200D01*
X152279314Y-129993200D01*
X152274920Y-129997594D01*
X152222259Y-130088806D01*
X152195000Y-130190539D01*
X152195000Y-130295861D01*
X152222259Y-130397594D01*
X152274920Y-130488806D01*
X152279314Y-130493200D01*
X151120885Y-130493200D01*
X151122085Y-130500784D01*
X151175591Y-130665455D01*
X151254195Y-130819724D01*
X151355967Y-130959802D01*
X151478397Y-131082232D01*
X151618475Y-131184004D01*
X151772742Y-131262608D01*
X151937415Y-131316114D01*
X152108429Y-131343200D01*
X152345000Y-131343200D01*
X152345000Y-130558886D01*
X152349394Y-130563280D01*
X152440606Y-130615941D01*
X152542339Y-130643200D01*
X152647661Y-130643200D01*
X152749394Y-130615941D01*
X152840606Y-130563280D01*
X152845000Y-130558886D01*
X152845000Y-131343200D01*
X153081571Y-131343200D01*
X153252584Y-131316114D01*
X153417257Y-131262608D01*
X153571524Y-131184004D01*
X153711602Y-131082232D01*
X153834032Y-130959802D01*
X153935804Y-130819724D01*
X154014408Y-130665455D01*
X154067914Y-130500784D01*
X154069115Y-130493200D01*
X152910686Y-130493200D01*
X152915080Y-130488806D01*
X152967741Y-130397594D01*
X152995000Y-130295861D01*
X152995000Y-130190539D01*
X152967741Y-130088806D01*
X152915080Y-129997594D01*
X152910686Y-129993200D01*
X154069115Y-129993200D01*
X154069115Y-129993199D01*
X154067914Y-129985615D01*
X154014408Y-129820944D01*
X153935804Y-129666675D01*
X153834032Y-129526597D01*
X153711602Y-129404167D01*
X153571524Y-129302395D01*
X153417257Y-129223791D01*
X153252584Y-129170285D01*
X153081571Y-129143200D01*
X152845000Y-129143200D01*
X152845000Y-129927514D01*
X152840606Y-129923120D01*
X152749394Y-129870459D01*
X152647661Y-129843200D01*
X152542339Y-129843200D01*
X152440606Y-129870459D01*
X152349394Y-129923120D01*
X152345000Y-129927514D01*
X152345000Y-129143200D01*
X152108429Y-129143200D01*
X151937415Y-129170285D01*
X151772742Y-129223791D01*
X151618475Y-129302395D01*
X151478397Y-129404167D01*
X151355967Y-129526597D01*
X151254195Y-129666675D01*
X151175591Y-129820944D01*
X151122085Y-129985615D01*
X151120884Y-129993199D01*
X128669115Y-129993199D01*
X128667914Y-129985615D01*
X128614408Y-129820944D01*
X128535804Y-129666675D01*
X128434032Y-129526597D01*
X128311602Y-129404167D01*
X128171524Y-129302395D01*
X128017257Y-129223791D01*
X127852584Y-129170285D01*
X127681571Y-129143200D01*
X127575934Y-129143200D01*
X127574369Y-129142740D01*
X127572795Y-129143160D01*
X127540960Y-129132930D01*
X127508895Y-129123515D01*
X127507828Y-129122284D01*
X127506275Y-129121785D01*
X127485018Y-129095960D01*
X127463140Y-129070711D01*
X127462908Y-129069097D01*
X127461872Y-129067839D01*
X127457953Y-129034639D01*
X127453196Y-129001553D01*
X127453873Y-129000070D01*
X127453682Y-128998451D01*
X127468333Y-128968406D01*
X127482221Y-128937997D01*
X127483822Y-128936644D01*
X127484307Y-128935651D01*
X127491413Y-128930233D01*
X127511557Y-128913221D01*
X127515516Y-128910815D01*
X127593332Y-128871167D01*
X127663386Y-128820268D01*
X127716866Y-128798115D01*
X127852701Y-128776602D01*
X128017445Y-128723073D01*
X128171788Y-128644432D01*
X128311928Y-128542614D01*
X128434414Y-128420128D01*
X128536232Y-128279988D01*
X128614873Y-128125645D01*
X128668402Y-127960901D01*
X128695500Y-127789811D01*
X128695500Y-127616589D01*
X128668402Y-127445499D01*
X128614873Y-127280755D01*
X128536232Y-127126412D01*
X128434414Y-126986272D01*
X128311928Y-126863786D01*
X128171788Y-126761968D01*
X128051665Y-126700763D01*
X128017447Y-126683328D01*
X128017446Y-126683327D01*
X128017445Y-126683327D01*
X127852701Y-126629798D01*
X127852699Y-126629797D01*
X127852698Y-126629797D01*
X127721271Y-126608981D01*
X127681611Y-126602700D01*
X127681610Y-126602700D01*
X127502204Y-126602700D01*
X127493518Y-126600149D01*
X127484557Y-126601438D01*
X127463884Y-126596630D01*
X127460903Y-126595661D01*
X127460897Y-126595660D01*
X127284370Y-126567701D01*
X127284366Y-126567701D01*
X127105634Y-126567701D01*
X127105630Y-126567701D01*
X126929102Y-126595660D01*
X126929096Y-126595661D01*
X126926116Y-126596630D01*
X126887796Y-126602700D01*
X126708389Y-126602700D01*
X126668728Y-126608981D01*
X126537302Y-126629797D01*
X126372552Y-126683328D01*
X126336992Y-126701447D01*
X126239766Y-126750985D01*
X126183474Y-126764500D01*
X124574692Y-126764500D01*
X124560366Y-126760862D01*
X124548634Y-126761731D01*
X124522350Y-126751209D01*
X124515535Y-126749479D01*
X124509666Y-126746293D01*
X124507816Y-126744949D01*
X124497611Y-126739749D01*
X124496192Y-126738979D01*
X124472532Y-126715436D01*
X124448259Y-126692512D01*
X124447855Y-126690881D01*
X124446664Y-126689696D01*
X124439484Y-126657082D01*
X124431463Y-126624692D01*
X124432004Y-126623102D01*
X124431643Y-126621460D01*
X124443236Y-126590141D01*
X124453999Y-126558556D01*
X124455366Y-126557370D01*
X124455898Y-126555936D01*
X124464443Y-126549505D01*
X124499054Y-126519515D01*
X124507816Y-126515051D01*
X124549852Y-126484510D01*
X124679786Y-126390109D01*
X124679788Y-126390106D01*
X124679792Y-126390104D01*
X124734877Y-126335019D01*
X124796200Y-126301534D01*
X124822558Y-126298700D01*
X127284365Y-126298700D01*
X127284366Y-126298700D01*
X127460897Y-126270740D01*
X127462086Y-126270353D01*
X127463884Y-126269770D01*
X127502204Y-126263700D01*
X127681610Y-126263700D01*
X127681611Y-126263700D01*
X127852701Y-126236602D01*
X128017445Y-126183073D01*
X128171788Y-126104432D01*
X128311928Y-126002614D01*
X128434414Y-125880128D01*
X128536232Y-125739988D01*
X128614873Y-125585645D01*
X128668402Y-125420901D01*
X128695500Y-125249811D01*
X128695500Y-125076589D01*
X128668402Y-124905499D01*
X128614873Y-124740755D01*
X128536232Y-124586412D01*
X128434414Y-124446272D01*
X128311928Y-124323786D01*
X128171788Y-124221968D01*
X128017445Y-124143327D01*
X127852701Y-124089798D01*
X127852699Y-124089797D01*
X127852698Y-124089797D01*
X127700571Y-124065703D01*
X127681611Y-124062700D01*
X127681610Y-124062700D01*
X127502204Y-124062700D01*
X127493518Y-124060149D01*
X127484557Y-124061438D01*
X127463884Y-124056630D01*
X127460899Y-124055660D01*
X127325241Y-124034174D01*
X127284366Y-124027700D01*
X127284365Y-124027700D01*
X124801558Y-124027700D01*
X124780312Y-124021461D01*
X124758224Y-124019882D01*
X124747440Y-124011809D01*
X124734519Y-124008015D01*
X124720019Y-123991281D01*
X124702291Y-123978010D01*
X124697583Y-123965389D01*
X124688764Y-123955211D01*
X124685612Y-123933293D01*
X124677874Y-123912546D01*
X124680736Y-123899385D01*
X124678820Y-123886053D01*
X124688019Y-123865909D01*
X124692726Y-123844273D01*
X124705994Y-123826547D01*
X124707845Y-123822497D01*
X124713877Y-123816019D01*
X124734877Y-123795019D01*
X124796200Y-123761534D01*
X124822558Y-123758700D01*
X127284365Y-123758700D01*
X127284366Y-123758700D01*
X127460897Y-123730740D01*
X127462086Y-123730353D01*
X127463884Y-123729770D01*
X127502204Y-123723700D01*
X127681610Y-123723700D01*
X127681611Y-123723700D01*
X127852701Y-123696602D01*
X128017445Y-123643073D01*
X128171788Y-123564432D01*
X128311928Y-123462614D01*
X128434414Y-123340128D01*
X128536232Y-123199988D01*
X128614873Y-123045645D01*
X128668402Y-122880901D01*
X128695500Y-122709811D01*
X128695500Y-122536589D01*
X128668402Y-122365499D01*
X128614873Y-122200755D01*
X128536232Y-122046412D01*
X128434414Y-121906272D01*
X128311928Y-121783786D01*
X128171788Y-121681968D01*
X128017445Y-121603327D01*
X127852701Y-121549798D01*
X127852699Y-121549797D01*
X127852698Y-121549797D01*
X127700571Y-121525703D01*
X127681611Y-121522700D01*
X127681610Y-121522700D01*
X127502204Y-121522700D01*
X127493518Y-121520149D01*
X127484557Y-121521438D01*
X127463884Y-121516630D01*
X127460899Y-121515660D01*
X127325342Y-121494190D01*
X127284366Y-121487700D01*
X127284365Y-121487700D01*
X124801558Y-121487700D01*
X124780312Y-121481461D01*
X124758224Y-121479882D01*
X124747440Y-121471809D01*
X124734519Y-121468015D01*
X124720019Y-121451281D01*
X124702291Y-121438010D01*
X124697583Y-121425389D01*
X124688764Y-121415211D01*
X124685612Y-121393293D01*
X124677874Y-121372546D01*
X124680736Y-121359385D01*
X124678820Y-121346053D01*
X124688019Y-121325909D01*
X124692726Y-121304273D01*
X124705994Y-121286547D01*
X124707845Y-121282497D01*
X124713877Y-121276019D01*
X124734877Y-121255019D01*
X124796200Y-121221534D01*
X124822558Y-121218700D01*
X127284365Y-121218700D01*
X127284366Y-121218700D01*
X127460897Y-121190740D01*
X127462086Y-121190353D01*
X127463884Y-121189770D01*
X127502204Y-121183700D01*
X127681610Y-121183700D01*
X127681611Y-121183700D01*
X127852701Y-121156602D01*
X128017445Y-121103073D01*
X128171788Y-121024432D01*
X128311928Y-120922614D01*
X128434414Y-120800128D01*
X128536232Y-120659988D01*
X128614873Y-120505645D01*
X128668402Y-120340901D01*
X128695500Y-120169811D01*
X128695500Y-119996589D01*
X128668402Y-119825499D01*
X128614873Y-119660755D01*
X128536232Y-119506412D01*
X128434414Y-119366272D01*
X128311928Y-119243786D01*
X128171788Y-119141968D01*
X128017445Y-119063327D01*
X127852701Y-119009798D01*
X127852699Y-119009797D01*
X127852698Y-119009797D01*
X127700571Y-118985703D01*
X127681611Y-118982700D01*
X127681610Y-118982700D01*
X127502204Y-118982700D01*
X127493518Y-118980149D01*
X127484557Y-118981438D01*
X127463884Y-118976630D01*
X127460899Y-118975660D01*
X127325342Y-118954190D01*
X127284366Y-118947700D01*
X127284365Y-118947700D01*
X124801558Y-118947700D01*
X124780312Y-118941461D01*
X124758224Y-118939882D01*
X124747440Y-118931809D01*
X124734519Y-118928015D01*
X124720019Y-118911281D01*
X124702291Y-118898010D01*
X124697583Y-118885389D01*
X124688764Y-118875211D01*
X124685612Y-118853293D01*
X124677874Y-118832546D01*
X124680736Y-118819385D01*
X124678820Y-118806053D01*
X124688019Y-118785909D01*
X124692726Y-118764273D01*
X124705994Y-118746547D01*
X124707845Y-118742497D01*
X124713877Y-118736019D01*
X124734877Y-118715019D01*
X124796200Y-118681534D01*
X124822558Y-118678700D01*
X127284365Y-118678700D01*
X127284366Y-118678700D01*
X127460897Y-118650740D01*
X127462086Y-118650353D01*
X127463884Y-118649770D01*
X127502204Y-118643700D01*
X127681610Y-118643700D01*
X127681611Y-118643700D01*
X127852701Y-118616602D01*
X128017445Y-118563073D01*
X128171788Y-118484432D01*
X128311928Y-118382614D01*
X128434414Y-118260128D01*
X128536232Y-118119988D01*
X128614873Y-117965645D01*
X128668402Y-117800901D01*
X128695500Y-117629811D01*
X128695500Y-117456589D01*
X128668402Y-117285499D01*
X128614873Y-117120755D01*
X128536232Y-116966412D01*
X128434414Y-116826272D01*
X128311928Y-116703786D01*
X128171788Y-116601968D01*
X128017445Y-116523327D01*
X127852701Y-116469798D01*
X127852699Y-116469797D01*
X127852698Y-116469797D01*
X127700571Y-116445703D01*
X127681611Y-116442700D01*
X127681610Y-116442700D01*
X127502204Y-116442700D01*
X127493518Y-116440149D01*
X127484557Y-116441438D01*
X127463884Y-116436630D01*
X127460899Y-116435660D01*
X127325342Y-116414190D01*
X127284366Y-116407700D01*
X127284365Y-116407700D01*
X124801558Y-116407700D01*
X124780312Y-116401461D01*
X124758224Y-116399882D01*
X124747440Y-116391809D01*
X124734519Y-116388015D01*
X124720019Y-116371281D01*
X124702291Y-116358010D01*
X124697583Y-116345389D01*
X124688764Y-116335211D01*
X124685612Y-116313293D01*
X124677874Y-116292546D01*
X124680736Y-116279385D01*
X124678820Y-116266053D01*
X124688019Y-116245909D01*
X124692726Y-116224273D01*
X124705994Y-116206547D01*
X124707845Y-116202497D01*
X124713877Y-116196019D01*
X124734877Y-116175019D01*
X124796200Y-116141534D01*
X124822558Y-116138700D01*
X127284365Y-116138700D01*
X127284366Y-116138700D01*
X127460897Y-116110740D01*
X127462086Y-116110353D01*
X127463884Y-116109770D01*
X127502204Y-116103700D01*
X127681610Y-116103700D01*
X127681611Y-116103700D01*
X127852701Y-116076602D01*
X128017445Y-116023073D01*
X128171788Y-115944432D01*
X128311928Y-115842614D01*
X128434414Y-115720128D01*
X128536232Y-115579988D01*
X128614873Y-115425645D01*
X128668402Y-115260901D01*
X128695500Y-115089811D01*
X128695500Y-114916589D01*
X128668402Y-114745499D01*
X128614873Y-114580755D01*
X128536232Y-114426412D01*
X128434414Y-114286272D01*
X128311928Y-114163786D01*
X128171788Y-114061968D01*
X128017445Y-113983327D01*
X127852701Y-113929798D01*
X127852699Y-113929797D01*
X127852698Y-113929797D01*
X127700571Y-113905703D01*
X127681611Y-113902700D01*
X127681610Y-113902700D01*
X127502204Y-113902700D01*
X127493518Y-113900149D01*
X127484557Y-113901438D01*
X127463884Y-113896630D01*
X127460899Y-113895660D01*
X127325342Y-113874190D01*
X127284366Y-113867700D01*
X127284365Y-113867700D01*
X124801558Y-113867700D01*
X124780312Y-113861461D01*
X124758224Y-113859882D01*
X124747440Y-113851809D01*
X124734519Y-113848015D01*
X124720019Y-113831281D01*
X124702291Y-113818010D01*
X124697583Y-113805389D01*
X124688764Y-113795211D01*
X124685612Y-113773293D01*
X124677874Y-113752546D01*
X124680736Y-113739385D01*
X124678820Y-113726053D01*
X124688019Y-113705909D01*
X124692726Y-113684273D01*
X124705994Y-113666547D01*
X124707845Y-113662497D01*
X124713877Y-113656019D01*
X124734877Y-113635019D01*
X124796200Y-113601534D01*
X124822558Y-113598700D01*
X127284365Y-113598700D01*
X127284366Y-113598700D01*
X127460897Y-113570740D01*
X127462086Y-113570353D01*
X127463884Y-113569770D01*
X127502204Y-113563700D01*
X127681610Y-113563700D01*
X127681611Y-113563700D01*
X127852701Y-113536602D01*
X128017445Y-113483073D01*
X128171788Y-113404432D01*
X128311928Y-113302614D01*
X128434414Y-113180128D01*
X128536232Y-113039988D01*
X128614873Y-112885645D01*
X128668402Y-112720901D01*
X128695500Y-112549811D01*
X128695500Y-112376589D01*
X128668402Y-112205499D01*
X128614873Y-112040755D01*
X128536232Y-111886412D01*
X128434414Y-111746272D01*
X128311928Y-111623786D01*
X128171788Y-111521968D01*
X128017445Y-111443327D01*
X127852701Y-111389798D01*
X127852699Y-111389797D01*
X127852698Y-111389797D01*
X127700571Y-111365703D01*
X127681611Y-111362700D01*
X127681610Y-111362700D01*
X127502204Y-111362700D01*
X127493518Y-111360149D01*
X127484557Y-111361438D01*
X127463884Y-111356630D01*
X127460899Y-111355660D01*
X127325342Y-111334190D01*
X127284366Y-111327700D01*
X127284365Y-111327700D01*
X124801558Y-111327700D01*
X124780312Y-111321461D01*
X124758224Y-111319882D01*
X124747440Y-111311809D01*
X124734519Y-111308015D01*
X124720019Y-111291281D01*
X124702291Y-111278010D01*
X124697583Y-111265389D01*
X124688764Y-111255211D01*
X124685612Y-111233293D01*
X124677874Y-111212546D01*
X124680736Y-111199385D01*
X124678820Y-111186053D01*
X124688019Y-111165909D01*
X124692726Y-111144273D01*
X124705994Y-111126547D01*
X124707845Y-111122497D01*
X124713877Y-111116019D01*
X124734877Y-111095019D01*
X124796200Y-111061534D01*
X124822558Y-111058700D01*
X127284365Y-111058700D01*
X127284366Y-111058700D01*
X127460897Y-111030740D01*
X127462086Y-111030353D01*
X127463884Y-111029770D01*
X127502204Y-111023700D01*
X127681610Y-111023700D01*
X127681611Y-111023700D01*
X127852701Y-110996602D01*
X128017445Y-110943073D01*
X128171788Y-110864432D01*
X128311928Y-110762614D01*
X128434414Y-110640128D01*
X128536232Y-110499988D01*
X128614873Y-110345645D01*
X128668402Y-110180901D01*
X128695500Y-110009811D01*
X128695500Y-109836589D01*
X128668402Y-109665499D01*
X128614873Y-109500755D01*
X128536232Y-109346412D01*
X128434414Y-109206272D01*
X128311928Y-109083786D01*
X128171788Y-108981968D01*
X128017445Y-108903327D01*
X127852701Y-108849798D01*
X127852699Y-108849797D01*
X127852698Y-108849797D01*
X127700571Y-108825703D01*
X127681611Y-108822700D01*
X127681610Y-108822700D01*
X127502204Y-108822700D01*
X127493518Y-108820149D01*
X127484557Y-108821438D01*
X127463884Y-108816630D01*
X127460899Y-108815660D01*
X127314867Y-108792531D01*
X127284366Y-108787700D01*
X127284365Y-108787700D01*
X124801558Y-108787700D01*
X124780312Y-108781461D01*
X124758224Y-108779882D01*
X124747440Y-108771809D01*
X124734519Y-108768015D01*
X124720019Y-108751281D01*
X124702291Y-108738010D01*
X124697583Y-108725389D01*
X124688764Y-108715211D01*
X124685612Y-108693293D01*
X124677874Y-108672546D01*
X124680736Y-108659385D01*
X124678820Y-108646053D01*
X124688019Y-108625909D01*
X124692726Y-108604273D01*
X124705994Y-108586547D01*
X124707845Y-108582497D01*
X124713877Y-108576019D01*
X124734877Y-108555019D01*
X124796200Y-108521534D01*
X124822558Y-108518700D01*
X127284365Y-108518700D01*
X127284366Y-108518700D01*
X127460897Y-108490740D01*
X127462086Y-108490353D01*
X127463884Y-108489770D01*
X127502204Y-108483700D01*
X127681610Y-108483700D01*
X127681611Y-108483700D01*
X127852701Y-108456602D01*
X128017445Y-108403073D01*
X128171788Y-108324432D01*
X128311928Y-108222614D01*
X128434414Y-108100128D01*
X128536232Y-107959988D01*
X128614873Y-107805645D01*
X128668402Y-107640901D01*
X128695500Y-107469811D01*
X128695500Y-107296589D01*
X128668402Y-107125499D01*
X128614873Y-106960755D01*
X128536232Y-106806412D01*
X128434414Y-106666272D01*
X128311928Y-106543786D01*
X128171788Y-106441968D01*
X128017445Y-106363327D01*
X127852701Y-106309798D01*
X127852699Y-106309797D01*
X127852698Y-106309797D01*
X127700571Y-106285703D01*
X127681611Y-106282700D01*
X127681610Y-106282700D01*
X127502204Y-106282700D01*
X127493518Y-106280149D01*
X127484557Y-106281438D01*
X127463884Y-106276630D01*
X127460899Y-106275660D01*
X127314867Y-106252531D01*
X127284366Y-106247700D01*
X127284365Y-106247700D01*
X124801558Y-106247700D01*
X124780312Y-106241461D01*
X124758224Y-106239882D01*
X124747440Y-106231809D01*
X124734519Y-106228015D01*
X124720019Y-106211281D01*
X124702291Y-106198010D01*
X124697583Y-106185389D01*
X124688764Y-106175211D01*
X124685612Y-106153293D01*
X124677874Y-106132546D01*
X124680736Y-106119385D01*
X124678820Y-106106053D01*
X124688019Y-106085909D01*
X124692726Y-106064273D01*
X124705994Y-106046547D01*
X124707845Y-106042497D01*
X124713877Y-106036019D01*
X124734877Y-106015019D01*
X124796200Y-105981534D01*
X124822558Y-105978700D01*
X127284365Y-105978700D01*
X127284366Y-105978700D01*
X127460897Y-105950740D01*
X127462086Y-105950353D01*
X127463884Y-105949770D01*
X127502204Y-105943700D01*
X127681610Y-105943700D01*
X127681611Y-105943700D01*
X127852701Y-105916602D01*
X128017445Y-105863073D01*
X128171788Y-105784432D01*
X128311928Y-105682614D01*
X128434414Y-105560128D01*
X128536232Y-105419988D01*
X128614873Y-105265645D01*
X128668402Y-105100901D01*
X128695500Y-104929811D01*
X128695500Y-104756589D01*
X128668402Y-104585499D01*
X128614873Y-104420755D01*
X128536232Y-104266412D01*
X128434414Y-104126272D01*
X128311928Y-104003786D01*
X128171788Y-103901968D01*
X128017445Y-103823327D01*
X127852701Y-103769798D01*
X127852699Y-103769797D01*
X127852698Y-103769797D01*
X127700571Y-103745703D01*
X127681611Y-103742700D01*
X127681610Y-103742700D01*
X127502204Y-103742700D01*
X127493518Y-103740149D01*
X127484557Y-103741438D01*
X127463884Y-103736630D01*
X127460899Y-103735660D01*
X127325342Y-103714190D01*
X127284366Y-103707700D01*
X127284365Y-103707700D01*
X124801558Y-103707700D01*
X124780312Y-103701461D01*
X124758224Y-103699882D01*
X124747440Y-103691809D01*
X124734519Y-103688015D01*
X124720019Y-103671281D01*
X124702291Y-103658010D01*
X124697583Y-103645389D01*
X124688764Y-103635211D01*
X124685612Y-103613293D01*
X124677874Y-103592546D01*
X124680736Y-103579385D01*
X124678820Y-103566053D01*
X124688019Y-103545909D01*
X124692726Y-103524273D01*
X124705994Y-103506547D01*
X124707845Y-103502497D01*
X124713877Y-103496019D01*
X124734877Y-103475019D01*
X124796200Y-103441534D01*
X124822558Y-103438700D01*
X127284365Y-103438700D01*
X127284366Y-103438700D01*
X127460897Y-103410740D01*
X127462086Y-103410353D01*
X127463884Y-103409770D01*
X127502204Y-103403700D01*
X127681610Y-103403700D01*
X127681611Y-103403700D01*
X127852701Y-103376602D01*
X128017445Y-103323073D01*
X128171788Y-103244432D01*
X128311928Y-103142614D01*
X128434414Y-103020128D01*
X128536232Y-102879988D01*
X128614873Y-102725645D01*
X128668402Y-102560901D01*
X128695500Y-102389811D01*
X128695500Y-102216589D01*
X128688780Y-102174162D01*
X128689481Y-102168736D01*
X128687569Y-102163610D01*
X128693910Y-102134459D01*
X128697734Y-102104869D01*
X128701566Y-102099263D01*
X128702421Y-102095337D01*
X128723568Y-102067086D01*
X128853838Y-101936817D01*
X128915160Y-101903334D01*
X128941518Y-101900500D01*
X141574684Y-101900500D01*
X141622136Y-101909939D01*
X141766498Y-101969735D01*
X141766503Y-101969737D01*
X141921153Y-102000499D01*
X141921156Y-102000500D01*
X141921158Y-102000500D01*
X142078844Y-102000500D01*
X142078845Y-102000499D01*
X142233497Y-101969737D01*
X142379179Y-101909394D01*
X142510289Y-101821789D01*
X142621789Y-101710289D01*
X142709394Y-101579179D01*
X142769737Y-101433497D01*
X142800500Y-101278842D01*
X142800500Y-101121158D01*
X142800500Y-101121155D01*
X142800499Y-101121153D01*
X142791075Y-101073774D01*
X142769737Y-100966503D01*
X142768078Y-100962497D01*
X142709397Y-100820827D01*
X142709390Y-100820814D01*
X142621789Y-100689711D01*
X142621786Y-100689707D01*
X142510292Y-100578213D01*
X142510288Y-100578210D01*
X142379185Y-100490609D01*
X142379172Y-100490602D01*
X142233501Y-100430264D01*
X142233489Y-100430261D01*
X142078845Y-100399500D01*
X142078842Y-100399500D01*
X141921158Y-100399500D01*
X141921155Y-100399500D01*
X141766510Y-100430261D01*
X141766498Y-100430264D01*
X141622136Y-100490061D01*
X141574684Y-100499500D01*
X128657306Y-100499500D01*
X128590267Y-100479815D01*
X128544512Y-100427011D01*
X128534568Y-100357853D01*
X128546821Y-100319205D01*
X128614873Y-100185645D01*
X128668402Y-100020901D01*
X128695500Y-99849811D01*
X128695500Y-99676589D01*
X128679600Y-99576202D01*
X128674484Y-99543898D01*
X128683439Y-99474604D01*
X128728435Y-99421152D01*
X128795187Y-99400513D01*
X128796957Y-99400500D01*
X141574684Y-99400500D01*
X141622136Y-99409939D01*
X141766498Y-99469735D01*
X141766503Y-99469737D01*
X141856819Y-99487702D01*
X141921153Y-99500499D01*
X141921156Y-99500500D01*
X141921158Y-99500500D01*
X142078844Y-99500500D01*
X142078845Y-99500499D01*
X142233497Y-99469737D01*
X142379179Y-99409394D01*
X142510289Y-99321789D01*
X142621789Y-99210289D01*
X142709394Y-99079179D01*
X142769737Y-98933497D01*
X142800500Y-98778842D01*
X142800500Y-98621158D01*
X142800500Y-98621155D01*
X142800499Y-98621153D01*
X142795923Y-98598147D01*
X142769737Y-98466503D01*
X142764115Y-98452931D01*
X142709397Y-98320827D01*
X142709390Y-98320814D01*
X142621789Y-98189711D01*
X142621786Y-98189707D01*
X142510292Y-98078213D01*
X142510288Y-98078210D01*
X142379185Y-97990609D01*
X142379172Y-97990602D01*
X142233501Y-97930264D01*
X142233489Y-97930261D01*
X142078845Y-97899500D01*
X142078842Y-97899500D01*
X141921158Y-97899500D01*
X141921155Y-97899500D01*
X141766510Y-97930261D01*
X141766498Y-97930264D01*
X141622136Y-97990061D01*
X141574684Y-97999500D01*
X128634642Y-97999500D01*
X128567603Y-97979815D01*
X128521848Y-97927011D01*
X128511904Y-97857853D01*
X128533699Y-97804152D01*
X128533686Y-97804144D01*
X128533736Y-97804061D01*
X128534324Y-97802614D01*
X128536232Y-97799988D01*
X128614873Y-97645645D01*
X128668402Y-97480901D01*
X128695500Y-97309811D01*
X128695500Y-97136589D01*
X128668402Y-96965499D01*
X128614873Y-96800755D01*
X128536232Y-96646412D01*
X128434414Y-96506272D01*
X128311928Y-96383786D01*
X128171788Y-96281968D01*
X128017445Y-96203327D01*
X127852701Y-96149798D01*
X127852699Y-96149797D01*
X127852698Y-96149797D01*
X127700571Y-96125703D01*
X127681611Y-96122700D01*
X127681610Y-96122700D01*
X127502204Y-96122700D01*
X127493518Y-96120149D01*
X127484557Y-96121438D01*
X127463884Y-96116630D01*
X127460899Y-96115660D01*
X127325342Y-96094190D01*
X127284366Y-96087700D01*
X127284365Y-96087700D01*
X124801558Y-96087700D01*
X124780312Y-96081461D01*
X124758224Y-96079882D01*
X124747440Y-96071809D01*
X124734519Y-96068015D01*
X124720019Y-96051281D01*
X124702291Y-96038010D01*
X124697583Y-96025389D01*
X124688764Y-96015211D01*
X124685612Y-95993293D01*
X124677874Y-95972546D01*
X124680736Y-95959385D01*
X124678820Y-95946053D01*
X124688019Y-95925909D01*
X124692726Y-95904273D01*
X124705994Y-95886547D01*
X124707845Y-95882497D01*
X124713877Y-95876019D01*
X124734877Y-95855019D01*
X124796200Y-95821534D01*
X124822558Y-95818700D01*
X127284365Y-95818700D01*
X127284366Y-95818700D01*
X127460897Y-95790740D01*
X127462086Y-95790353D01*
X127463884Y-95789770D01*
X127502204Y-95783700D01*
X127681610Y-95783700D01*
X127681611Y-95783700D01*
X127852701Y-95756602D01*
X128017445Y-95703073D01*
X128171788Y-95624432D01*
X128311928Y-95522614D01*
X128434414Y-95400128D01*
X128536232Y-95259988D01*
X128614873Y-95105645D01*
X128668402Y-94940901D01*
X128695500Y-94769811D01*
X128695500Y-94596589D01*
X128668402Y-94425499D01*
X128636692Y-94327909D01*
X128634698Y-94258070D01*
X128666941Y-94201914D01*
X131121038Y-91747819D01*
X131182361Y-91714334D01*
X131208719Y-91711500D01*
X141601241Y-91711500D01*
X141648692Y-91720938D01*
X141766503Y-91769737D01*
X141766506Y-91769737D01*
X141766511Y-91769739D01*
X141921153Y-91800499D01*
X141921156Y-91800500D01*
X141921158Y-91800500D01*
X142078844Y-91800500D01*
X142078845Y-91800499D01*
X142233497Y-91769737D01*
X142379179Y-91709394D01*
X142510289Y-91621789D01*
X142621789Y-91510289D01*
X142709394Y-91379179D01*
X142769737Y-91233497D01*
X142800500Y-91078842D01*
X142800500Y-90921158D01*
X142800500Y-90921155D01*
X142800499Y-90921153D01*
X142782388Y-90830104D01*
X142769737Y-90766503D01*
X142758221Y-90738700D01*
X142709397Y-90620827D01*
X142709390Y-90620814D01*
X142621789Y-90489711D01*
X142621786Y-90489707D01*
X142510292Y-90378213D01*
X142510288Y-90378210D01*
X142379185Y-90290609D01*
X142379172Y-90290602D01*
X142233501Y-90230264D01*
X142233489Y-90230261D01*
X142078845Y-90199500D01*
X142078842Y-90199500D01*
X141921158Y-90199500D01*
X141921155Y-90199500D01*
X141766510Y-90230261D01*
X141766498Y-90230264D01*
X141620825Y-90290603D01*
X141615454Y-90293475D01*
X141614665Y-90292000D01*
X141555645Y-90310480D01*
X141553433Y-90310500D01*
X135340578Y-90310500D01*
X135309101Y-90301257D01*
X135277305Y-90293142D01*
X135275740Y-90291461D01*
X135273539Y-90290815D01*
X135252058Y-90266025D01*
X135229695Y-90242005D01*
X135229287Y-90239745D01*
X135227784Y-90238011D01*
X135223114Y-90205537D01*
X135217288Y-90173246D01*
X135218045Y-90170279D01*
X135217840Y-90168853D01*
X135226017Y-90139048D01*
X135269192Y-90034812D01*
X135296069Y-89994586D01*
X138553838Y-86736819D01*
X138615161Y-86703334D01*
X138641519Y-86700500D01*
X148074684Y-86700500D01*
X148122136Y-86709939D01*
X148266498Y-86769735D01*
X148266503Y-86769737D01*
X148421153Y-86800499D01*
X148421156Y-86800500D01*
X148421158Y-86800500D01*
X148578844Y-86800500D01*
X148578845Y-86800499D01*
X148733497Y-86769737D01*
X148879179Y-86709394D01*
X149010289Y-86621789D01*
X149121789Y-86510289D01*
X149209394Y-86379179D01*
X149269737Y-86233497D01*
X149300500Y-86078842D01*
X149300500Y-85921158D01*
X149300500Y-85921155D01*
X149300499Y-85921153D01*
X149283372Y-85835049D01*
X149269737Y-85766503D01*
X149264115Y-85752931D01*
X149209397Y-85620827D01*
X149209390Y-85620814D01*
X149121789Y-85489711D01*
X149121786Y-85489707D01*
X149010292Y-85378213D01*
X149010288Y-85378210D01*
X148879185Y-85290609D01*
X148879172Y-85290602D01*
X148733501Y-85230264D01*
X148733489Y-85230261D01*
X148578845Y-85199500D01*
X148578842Y-85199500D01*
X148421158Y-85199500D01*
X148421155Y-85199500D01*
X148266510Y-85230261D01*
X148266498Y-85230264D01*
X148122136Y-85290061D01*
X148074684Y-85299500D01*
X138231005Y-85299500D01*
X138095677Y-85326418D01*
X138095667Y-85326421D01*
X137968192Y-85379222D01*
X137853454Y-85455887D01*
X134305412Y-89003929D01*
X134265184Y-89030809D01*
X134120823Y-89090604D01*
X134120814Y-89090609D01*
X133989711Y-89178210D01*
X133989707Y-89178213D01*
X133878213Y-89289707D01*
X133878210Y-89289711D01*
X133790609Y-89420814D01*
X133790602Y-89420827D01*
X133730264Y-89566498D01*
X133730261Y-89566510D01*
X133699500Y-89721153D01*
X133699500Y-89878846D01*
X133730261Y-90033489D01*
X133730264Y-90033501D01*
X133773983Y-90139048D01*
X133781452Y-90208517D01*
X133750177Y-90270996D01*
X133690088Y-90306648D01*
X133659422Y-90310500D01*
X130798204Y-90310500D01*
X130662877Y-90337418D01*
X130662867Y-90337421D01*
X130535392Y-90390222D01*
X130420654Y-90466887D01*
X130420653Y-90466888D01*
X128886104Y-92001438D01*
X128824781Y-92034923D01*
X128755089Y-92029939D01*
X128699156Y-91988067D01*
X128675950Y-91933155D01*
X128668402Y-91885501D01*
X128668402Y-91885499D01*
X128614873Y-91720755D01*
X128536232Y-91566412D01*
X128434414Y-91426272D01*
X128311928Y-91303786D01*
X128171788Y-91201968D01*
X128017445Y-91123327D01*
X127852701Y-91069798D01*
X127852699Y-91069797D01*
X127852698Y-91069797D01*
X127700571Y-91045703D01*
X127681611Y-91042700D01*
X127681610Y-91042700D01*
X127502204Y-91042700D01*
X127493518Y-91040149D01*
X127484557Y-91041438D01*
X127463884Y-91036630D01*
X127460899Y-91035660D01*
X127325342Y-91014190D01*
X127284366Y-91007700D01*
X127284365Y-91007700D01*
X124801558Y-91007700D01*
X124780312Y-91001461D01*
X124758224Y-90999882D01*
X124747440Y-90991809D01*
X124734519Y-90988015D01*
X124720019Y-90971281D01*
X124702291Y-90958010D01*
X124697583Y-90945389D01*
X124688764Y-90935211D01*
X124685612Y-90913293D01*
X124677874Y-90892546D01*
X124680736Y-90879385D01*
X124678820Y-90866053D01*
X124688019Y-90845909D01*
X124692726Y-90824273D01*
X124705994Y-90806547D01*
X124707845Y-90802497D01*
X124713877Y-90796019D01*
X124734877Y-90775019D01*
X124796200Y-90741534D01*
X124822558Y-90738700D01*
X127284365Y-90738700D01*
X127284366Y-90738700D01*
X127460897Y-90710740D01*
X127462086Y-90710353D01*
X127463884Y-90709770D01*
X127502204Y-90703700D01*
X127681610Y-90703700D01*
X127681611Y-90703700D01*
X127852701Y-90676602D01*
X128017445Y-90623073D01*
X128171788Y-90544432D01*
X128311928Y-90442614D01*
X128434414Y-90320128D01*
X128536232Y-90179988D01*
X128614873Y-90025645D01*
X128668402Y-89860901D01*
X128695500Y-89689811D01*
X128695500Y-89516589D01*
X128668402Y-89345499D01*
X128614873Y-89180755D01*
X128536232Y-89026412D01*
X128434414Y-88886272D01*
X128311928Y-88763786D01*
X128171788Y-88661968D01*
X128017445Y-88583327D01*
X127852701Y-88529798D01*
X127852699Y-88529797D01*
X127852698Y-88529797D01*
X127717871Y-88508443D01*
X127681611Y-88502700D01*
X127681610Y-88502700D01*
X127502204Y-88502700D01*
X127493518Y-88500149D01*
X127484557Y-88501438D01*
X127463884Y-88496630D01*
X127460899Y-88495660D01*
X127325342Y-88474190D01*
X127284366Y-88467700D01*
X127284365Y-88467700D01*
X124801558Y-88467700D01*
X124780312Y-88461461D01*
X124758224Y-88459882D01*
X124747440Y-88451809D01*
X124734519Y-88448015D01*
X124720019Y-88431281D01*
X124702291Y-88418010D01*
X124697583Y-88405389D01*
X124688764Y-88395211D01*
X124685612Y-88373293D01*
X124677874Y-88352546D01*
X124680736Y-88339385D01*
X124678820Y-88326053D01*
X124688019Y-88305909D01*
X124692726Y-88284273D01*
X124705994Y-88266547D01*
X124707845Y-88262497D01*
X124713877Y-88256019D01*
X124734877Y-88235019D01*
X124796200Y-88201534D01*
X124822558Y-88198700D01*
X127284365Y-88198700D01*
X127284366Y-88198700D01*
X127460897Y-88170740D01*
X127462086Y-88170353D01*
X127463884Y-88169770D01*
X127502204Y-88163700D01*
X127681610Y-88163700D01*
X127681611Y-88163700D01*
X127852701Y-88136602D01*
X128017445Y-88083073D01*
X128171788Y-88004432D01*
X128311928Y-87902614D01*
X128434414Y-87780128D01*
X128536232Y-87639988D01*
X128614873Y-87485645D01*
X128668402Y-87320901D01*
X128695500Y-87149811D01*
X128695500Y-86976589D01*
X128668402Y-86805499D01*
X128614873Y-86640755D01*
X128536232Y-86486412D01*
X128434414Y-86346272D01*
X128311928Y-86223786D01*
X128171788Y-86121968D01*
X128017445Y-86043327D01*
X127852701Y-85989798D01*
X127852699Y-85989797D01*
X127852698Y-85989797D01*
X127717871Y-85968443D01*
X127681611Y-85962700D01*
X127681610Y-85962700D01*
X127502204Y-85962700D01*
X127493518Y-85960149D01*
X127484557Y-85961438D01*
X127463884Y-85956630D01*
X127460899Y-85955660D01*
X127325342Y-85934190D01*
X127284366Y-85927700D01*
X127284365Y-85927700D01*
X124801558Y-85927700D01*
X124780312Y-85921461D01*
X124758224Y-85919882D01*
X124747440Y-85911809D01*
X124734519Y-85908015D01*
X124720019Y-85891281D01*
X124702291Y-85878010D01*
X124697583Y-85865389D01*
X124688764Y-85855211D01*
X124685612Y-85833293D01*
X124677874Y-85812546D01*
X124680736Y-85799385D01*
X124678820Y-85786053D01*
X124688019Y-85765909D01*
X124692726Y-85744273D01*
X124705994Y-85726547D01*
X124707845Y-85722497D01*
X124713877Y-85716019D01*
X124734877Y-85695019D01*
X124796200Y-85661534D01*
X124822558Y-85658700D01*
X127284365Y-85658700D01*
X127284366Y-85658700D01*
X127460897Y-85630740D01*
X127462086Y-85630353D01*
X127463884Y-85629770D01*
X127502204Y-85623700D01*
X127681610Y-85623700D01*
X127681611Y-85623700D01*
X127852701Y-85596602D01*
X128017445Y-85543073D01*
X128171788Y-85464432D01*
X128311928Y-85362614D01*
X128434414Y-85240128D01*
X128536232Y-85099988D01*
X128614873Y-84945645D01*
X128668402Y-84780901D01*
X128695500Y-84609811D01*
X128695500Y-84436589D01*
X128668402Y-84265499D01*
X128614873Y-84100755D01*
X128536232Y-83946412D01*
X128434414Y-83806272D01*
X128311928Y-83683786D01*
X128171788Y-83581968D01*
X128017445Y-83503327D01*
X127852701Y-83449798D01*
X127852699Y-83449797D01*
X127852698Y-83449797D01*
X127700571Y-83425703D01*
X127681611Y-83422700D01*
X127681610Y-83422700D01*
X127502204Y-83422700D01*
X127493518Y-83420149D01*
X127484557Y-83421438D01*
X127463884Y-83416630D01*
X127460899Y-83415660D01*
X127325342Y-83394190D01*
X127284366Y-83387700D01*
X127284365Y-83387700D01*
X124801558Y-83387700D01*
X124780312Y-83381461D01*
X124758224Y-83379882D01*
X124747440Y-83371809D01*
X124734519Y-83368015D01*
X124720019Y-83351281D01*
X124702291Y-83338010D01*
X124697583Y-83325389D01*
X124688764Y-83315211D01*
X124685612Y-83293293D01*
X124677874Y-83272546D01*
X124680736Y-83259385D01*
X124678820Y-83246053D01*
X124688019Y-83225909D01*
X124692726Y-83204273D01*
X124705994Y-83186547D01*
X124707845Y-83182497D01*
X124713877Y-83176019D01*
X124734877Y-83155019D01*
X124796200Y-83121534D01*
X124822558Y-83118700D01*
X127284365Y-83118700D01*
X127284366Y-83118700D01*
X127460897Y-83090740D01*
X127462086Y-83090353D01*
X127463884Y-83089770D01*
X127502204Y-83083700D01*
X127681610Y-83083700D01*
X127681611Y-83083700D01*
X127852701Y-83056602D01*
X128017445Y-83003073D01*
X128171788Y-82924432D01*
X128311928Y-82822614D01*
X128434414Y-82700128D01*
X128536232Y-82559988D01*
X128614873Y-82405645D01*
X128668402Y-82240901D01*
X128695500Y-82069811D01*
X128695500Y-81896589D01*
X128668402Y-81725499D01*
X128614873Y-81560755D01*
X128536232Y-81406412D01*
X128434414Y-81266272D01*
X128311928Y-81143786D01*
X128171788Y-81041968D01*
X128017445Y-80963327D01*
X127852701Y-80909798D01*
X127852699Y-80909797D01*
X127852698Y-80909797D01*
X127700571Y-80885703D01*
X127681611Y-80882700D01*
X127681610Y-80882700D01*
X127502204Y-80882700D01*
X127493518Y-80880149D01*
X127484557Y-80881438D01*
X127463884Y-80876630D01*
X127460899Y-80875660D01*
X127343209Y-80857020D01*
X127284366Y-80847700D01*
X127284365Y-80847700D01*
X124801558Y-80847700D01*
X124780312Y-80841461D01*
X124758224Y-80839882D01*
X124747440Y-80831809D01*
X124734519Y-80828015D01*
X124720019Y-80811281D01*
X124702291Y-80798010D01*
X124697583Y-80785389D01*
X124688764Y-80775211D01*
X124685612Y-80753293D01*
X124677874Y-80732546D01*
X124680736Y-80719385D01*
X124678820Y-80706053D01*
X124688019Y-80685909D01*
X124692726Y-80664273D01*
X124705994Y-80646547D01*
X124707845Y-80642497D01*
X124713877Y-80636019D01*
X124734877Y-80615019D01*
X124796200Y-80581534D01*
X124822558Y-80578700D01*
X127284365Y-80578700D01*
X127284366Y-80578700D01*
X127460897Y-80550740D01*
X127462086Y-80550353D01*
X127463884Y-80549770D01*
X127502204Y-80543700D01*
X127681610Y-80543700D01*
X127681611Y-80543700D01*
X127852701Y-80516602D01*
X128017445Y-80463073D01*
X128171788Y-80384432D01*
X128311928Y-80282614D01*
X128434414Y-80160128D01*
X128536232Y-80019988D01*
X128614873Y-79865645D01*
X128668402Y-79700901D01*
X128695500Y-79529811D01*
X128695500Y-79356589D01*
X128668402Y-79185499D01*
X128614873Y-79020755D01*
X128536232Y-78866412D01*
X128434414Y-78726272D01*
X128311928Y-78603786D01*
X128171788Y-78501968D01*
X128017445Y-78423327D01*
X127852701Y-78369798D01*
X127852699Y-78369797D01*
X127852698Y-78369797D01*
X127717871Y-78348443D01*
X127681611Y-78342700D01*
X127681610Y-78342700D01*
X127502204Y-78342700D01*
X127493515Y-78340148D01*
X127484553Y-78341437D01*
X127463884Y-78336630D01*
X127460899Y-78335660D01*
X127343209Y-78317020D01*
X127284366Y-78307700D01*
X127284365Y-78307700D01*
X125229360Y-78307700D01*
X125199925Y-78299056D01*
X125169936Y-78292534D01*
X125166703Y-78289301D01*
X125162321Y-78288015D01*
X125142235Y-78264835D01*
X125120529Y-78243130D01*
X125119557Y-78238663D01*
X125116566Y-78235211D01*
X125112199Y-78204842D01*
X125105676Y-78174857D01*
X125107007Y-78168734D01*
X125106622Y-78166053D01*
X125113177Y-78140369D01*
X125121009Y-78119369D01*
X125162879Y-78063435D01*
X125228343Y-78039016D01*
X125237192Y-78038700D01*
X127284365Y-78038700D01*
X127284366Y-78038700D01*
X127460897Y-78010740D01*
X127461134Y-78010662D01*
X127463887Y-78009769D01*
X127502207Y-78003699D01*
X128242871Y-78003699D01*
X128242872Y-78003699D01*
X128302483Y-77997291D01*
X128437331Y-77946996D01*
X128552546Y-77860746D01*
X128638796Y-77745531D01*
X128689091Y-77610683D01*
X128695500Y-77551073D01*
X128695499Y-76653199D01*
X151120884Y-76653199D01*
X151120885Y-76653200D01*
X152279314Y-76653200D01*
X152274920Y-76657594D01*
X152222259Y-76748806D01*
X152195000Y-76850539D01*
X152195000Y-76955861D01*
X152222259Y-77057594D01*
X152274920Y-77148806D01*
X152279314Y-77153200D01*
X151120885Y-77153200D01*
X151122085Y-77160784D01*
X151175591Y-77325455D01*
X151254195Y-77479724D01*
X151355967Y-77619802D01*
X151478397Y-77742232D01*
X151618475Y-77844004D01*
X151772742Y-77922608D01*
X151937415Y-77976114D01*
X152108429Y-78003200D01*
X152345000Y-78003200D01*
X152345000Y-77218886D01*
X152349394Y-77223280D01*
X152440606Y-77275941D01*
X152542339Y-77303200D01*
X152647661Y-77303200D01*
X152749394Y-77275941D01*
X152840606Y-77223280D01*
X152845000Y-77218886D01*
X152845000Y-78003200D01*
X153081571Y-78003200D01*
X153252584Y-77976114D01*
X153417257Y-77922608D01*
X153571524Y-77844004D01*
X153711602Y-77742232D01*
X153834032Y-77619802D01*
X153935804Y-77479724D01*
X154014408Y-77325455D01*
X154067914Y-77160784D01*
X154069115Y-77153200D01*
X152910686Y-77153200D01*
X152915080Y-77148806D01*
X152967741Y-77057594D01*
X152995000Y-76955861D01*
X152995000Y-76850539D01*
X152967741Y-76748806D01*
X152915080Y-76657594D01*
X152910686Y-76653200D01*
X154069115Y-76653200D01*
X154069115Y-76653199D01*
X154067914Y-76645615D01*
X154014408Y-76480944D01*
X153935804Y-76326675D01*
X153834032Y-76186597D01*
X153711602Y-76064167D01*
X153571524Y-75962395D01*
X153417257Y-75883791D01*
X153252584Y-75830285D01*
X153081571Y-75803200D01*
X152845000Y-75803200D01*
X152845000Y-76587514D01*
X152840606Y-76583120D01*
X152749394Y-76530459D01*
X152647661Y-76503200D01*
X152542339Y-76503200D01*
X152440606Y-76530459D01*
X152349394Y-76583120D01*
X152345000Y-76587514D01*
X152345000Y-75803200D01*
X152108429Y-75803200D01*
X151937415Y-75830285D01*
X151772742Y-75883791D01*
X151618475Y-75962395D01*
X151478397Y-76064167D01*
X151355967Y-76186597D01*
X151254195Y-76326675D01*
X151175591Y-76480944D01*
X151122085Y-76645615D01*
X151120884Y-76653199D01*
X128695499Y-76653199D01*
X128695499Y-76255328D01*
X128689091Y-76195717D01*
X128685689Y-76186597D01*
X128638797Y-76060871D01*
X128638793Y-76060864D01*
X128552547Y-75945655D01*
X128552544Y-75945652D01*
X128437335Y-75859406D01*
X128437328Y-75859402D01*
X128302482Y-75809108D01*
X128302483Y-75809108D01*
X128242883Y-75802701D01*
X128242881Y-75802700D01*
X128242873Y-75802700D01*
X128242865Y-75802700D01*
X127502204Y-75802700D01*
X127463889Y-75796632D01*
X127460902Y-75795661D01*
X127460890Y-75795658D01*
X127311000Y-75771918D01*
X127284366Y-75767700D01*
X127284365Y-75767700D01*
X124811469Y-75767700D01*
X124768134Y-75759881D01*
X124757488Y-75755910D01*
X124757480Y-75755908D01*
X124697883Y-75749501D01*
X124697881Y-75749500D01*
X124697873Y-75749500D01*
X124697864Y-75749500D01*
X122902129Y-75749500D01*
X122902123Y-75749501D01*
X122842516Y-75755908D01*
X122707671Y-75806202D01*
X122707664Y-75806206D01*
X122592455Y-75892452D01*
X122592452Y-75892455D01*
X122506206Y-76007664D01*
X122506202Y-76007671D01*
X122455908Y-76142517D01*
X122449501Y-76202116D01*
X122449500Y-76202135D01*
X122449500Y-77997870D01*
X122449501Y-77997876D01*
X122455908Y-78057483D01*
X122506202Y-78192328D01*
X122506203Y-78192329D01*
X122506204Y-78192331D01*
X122592454Y-78307546D01*
X122614810Y-78324281D01*
X122656681Y-78380213D01*
X122664500Y-78423548D01*
X122664500Y-78865308D01*
X122646899Y-78927709D01*
X122647161Y-78927843D01*
X122646491Y-78929156D01*
X122646226Y-78930099D01*
X122644953Y-78932175D01*
X122548444Y-79121585D01*
X122482753Y-79323760D01*
X122449500Y-79533713D01*
X122449500Y-79746286D01*
X122468404Y-79865645D01*
X122482754Y-79956243D01*
X122513285Y-80050208D01*
X122548444Y-80158414D01*
X122644951Y-80347820D01*
X122769890Y-80519786D01*
X122920213Y-80670109D01*
X123092182Y-80795050D01*
X123100946Y-80799516D01*
X123151742Y-80847491D01*
X123168536Y-80915312D01*
X123145998Y-80981447D01*
X123100946Y-81020484D01*
X123092182Y-81024949D01*
X122920213Y-81149890D01*
X122769890Y-81300213D01*
X122644951Y-81472179D01*
X122548444Y-81661585D01*
X122482753Y-81863760D01*
X122467494Y-81960104D01*
X122449500Y-82073713D01*
X122449500Y-82286287D01*
X122453333Y-82310486D01*
X122476418Y-82456243D01*
X122482754Y-82496243D01*
X122513285Y-82590208D01*
X122548444Y-82698414D01*
X122644951Y-82887820D01*
X122769890Y-83059786D01*
X122920213Y-83210109D01*
X123092182Y-83335050D01*
X123100946Y-83339516D01*
X123151742Y-83387491D01*
X123168536Y-83455312D01*
X123145998Y-83521447D01*
X123100946Y-83560484D01*
X123092182Y-83564949D01*
X122920213Y-83689890D01*
X122769890Y-83840213D01*
X122644951Y-84012179D01*
X122548444Y-84201585D01*
X122482753Y-84403760D01*
X122449500Y-84613713D01*
X122449500Y-84826286D01*
X122468404Y-84945645D01*
X122482754Y-85036243D01*
X122545795Y-85230263D01*
X122548444Y-85238414D01*
X122644951Y-85427820D01*
X122769890Y-85599786D01*
X122920213Y-85750109D01*
X123092182Y-85875050D01*
X123100946Y-85879516D01*
X123151742Y-85927491D01*
X123168536Y-85995312D01*
X123145998Y-86061447D01*
X123100946Y-86100484D01*
X123092182Y-86104949D01*
X122920213Y-86229890D01*
X122769890Y-86380213D01*
X122644951Y-86552179D01*
X122548444Y-86741585D01*
X122482753Y-86943760D01*
X122467494Y-87040104D01*
X122449500Y-87153713D01*
X122449500Y-87366287D01*
X122453333Y-87390486D01*
X122476418Y-87536243D01*
X122482754Y-87576243D01*
X122513285Y-87670208D01*
X122548444Y-87778414D01*
X122644951Y-87967820D01*
X122769890Y-88139786D01*
X122920213Y-88290109D01*
X123092182Y-88415050D01*
X123100946Y-88419516D01*
X123151742Y-88467491D01*
X123168536Y-88535312D01*
X123145998Y-88601447D01*
X123100946Y-88640484D01*
X123092182Y-88644949D01*
X122920213Y-88769890D01*
X122769890Y-88920213D01*
X122644951Y-89092179D01*
X122548444Y-89281585D01*
X122482753Y-89483760D01*
X122449500Y-89693713D01*
X122449500Y-89906286D01*
X122476418Y-90076243D01*
X122482754Y-90116243D01*
X122545872Y-90310500D01*
X122548444Y-90318414D01*
X122644951Y-90507820D01*
X122769890Y-90679786D01*
X122920213Y-90830109D01*
X123092182Y-90955050D01*
X123100946Y-90959516D01*
X123151742Y-91007491D01*
X123168536Y-91075312D01*
X123145998Y-91141447D01*
X123100946Y-91180484D01*
X123092182Y-91184949D01*
X122920213Y-91309890D01*
X122769890Y-91460213D01*
X122644951Y-91632179D01*
X122548444Y-91821585D01*
X122482753Y-92023760D01*
X122449500Y-92233713D01*
X122449500Y-92446286D01*
X122482753Y-92656239D01*
X122548444Y-92858414D01*
X122644951Y-93047820D01*
X122769890Y-93219786D01*
X122920213Y-93370109D01*
X123092182Y-93495050D01*
X123100946Y-93499516D01*
X123151742Y-93547491D01*
X123168536Y-93615312D01*
X123145998Y-93681447D01*
X123100946Y-93720484D01*
X123092182Y-93724949D01*
X122920213Y-93849890D01*
X122769890Y-94000213D01*
X122644951Y-94172179D01*
X122548444Y-94361585D01*
X122482753Y-94563760D01*
X122449500Y-94773713D01*
X122449500Y-94986286D01*
X122482753Y-95196239D01*
X122548444Y-95398414D01*
X122644951Y-95587820D01*
X122769890Y-95759786D01*
X122920213Y-95910109D01*
X123092182Y-96035050D01*
X123100946Y-96039516D01*
X123151742Y-96087491D01*
X123168536Y-96155312D01*
X123145998Y-96221447D01*
X123100946Y-96260484D01*
X123092182Y-96264949D01*
X122920213Y-96389890D01*
X122769890Y-96540213D01*
X122644951Y-96712179D01*
X122548444Y-96901585D01*
X122482753Y-97103760D01*
X122449500Y-97313713D01*
X122449500Y-97526286D01*
X122476418Y-97696243D01*
X122482754Y-97736243D01*
X122545795Y-97930263D01*
X122548444Y-97938414D01*
X122644951Y-98127820D01*
X122769890Y-98299786D01*
X122920213Y-98450109D01*
X123092182Y-98575050D01*
X123100946Y-98579516D01*
X123151742Y-98627491D01*
X123168536Y-98695312D01*
X123145998Y-98761447D01*
X123100946Y-98800484D01*
X123092182Y-98804949D01*
X122920213Y-98929890D01*
X122769890Y-99080213D01*
X122644951Y-99252179D01*
X122548444Y-99441585D01*
X122482753Y-99643760D01*
X122449500Y-99853713D01*
X122449500Y-100066286D01*
X122476418Y-100236243D01*
X122482754Y-100276243D01*
X122548378Y-100478213D01*
X122548444Y-100478414D01*
X122644951Y-100667820D01*
X122769890Y-100839786D01*
X122920213Y-100990109D01*
X123092182Y-101115050D01*
X123100946Y-101119516D01*
X123151742Y-101167491D01*
X123168536Y-101235312D01*
X123145998Y-101301447D01*
X123100946Y-101340484D01*
X123092182Y-101344949D01*
X122920213Y-101469890D01*
X122769890Y-101620213D01*
X122644951Y-101792179D01*
X122548444Y-101981585D01*
X122482753Y-102183760D01*
X122449500Y-102393713D01*
X122449500Y-102606286D01*
X122478473Y-102789218D01*
X122482754Y-102816243D01*
X122487175Y-102829850D01*
X122548444Y-103018414D01*
X122644951Y-103207820D01*
X122769890Y-103379786D01*
X122920213Y-103530109D01*
X123092182Y-103655050D01*
X123100946Y-103659516D01*
X123151742Y-103707491D01*
X123168536Y-103775312D01*
X123145998Y-103841447D01*
X123100946Y-103880484D01*
X123092182Y-103884949D01*
X122920213Y-104009890D01*
X122769890Y-104160213D01*
X122644951Y-104332179D01*
X122548444Y-104521585D01*
X122482753Y-104723760D01*
X122449500Y-104933713D01*
X122449500Y-105146286D01*
X122476418Y-105316243D01*
X122482754Y-105356243D01*
X122500539Y-105410980D01*
X122548444Y-105558414D01*
X122644951Y-105747820D01*
X122769890Y-105919786D01*
X122920213Y-106070109D01*
X123092182Y-106195050D01*
X123100946Y-106199516D01*
X123151742Y-106247491D01*
X123168536Y-106315312D01*
X123145998Y-106381447D01*
X123100946Y-106420484D01*
X123092182Y-106424949D01*
X122920213Y-106549890D01*
X122769890Y-106700213D01*
X122644951Y-106872179D01*
X122548444Y-107061585D01*
X122482753Y-107263760D01*
X122449500Y-107473713D01*
X122449500Y-107686286D01*
X122476418Y-107856243D01*
X122482754Y-107896243D01*
X122487175Y-107909850D01*
X122548444Y-108098414D01*
X122644951Y-108287820D01*
X122769890Y-108459786D01*
X122920213Y-108610109D01*
X123092182Y-108735050D01*
X123100946Y-108739516D01*
X123151742Y-108787491D01*
X123168536Y-108855312D01*
X123145998Y-108921447D01*
X123100946Y-108960484D01*
X123092182Y-108964949D01*
X122920213Y-109089890D01*
X122769890Y-109240213D01*
X122644951Y-109412179D01*
X122548444Y-109601585D01*
X122482753Y-109803760D01*
X122449500Y-110013713D01*
X122449500Y-110226286D01*
X122476418Y-110396243D01*
X122482754Y-110436243D01*
X122495615Y-110475826D01*
X122548444Y-110638414D01*
X122644951Y-110827820D01*
X122769890Y-110999786D01*
X122920213Y-111150109D01*
X123092182Y-111275050D01*
X123100946Y-111279516D01*
X123151742Y-111327491D01*
X123168536Y-111395312D01*
X123145998Y-111461447D01*
X123100946Y-111500484D01*
X123092182Y-111504949D01*
X122920213Y-111629890D01*
X122769890Y-111780213D01*
X122644951Y-111952179D01*
X122548444Y-112141585D01*
X122548443Y-112141587D01*
X122548443Y-112141588D01*
X122548078Y-112142710D01*
X122482753Y-112343760D01*
X122449500Y-112553713D01*
X122449500Y-112766286D01*
X122482753Y-112976239D01*
X122548444Y-113178414D01*
X122644951Y-113367820D01*
X122769890Y-113539786D01*
X122920213Y-113690109D01*
X123092182Y-113815050D01*
X123100946Y-113819516D01*
X123151742Y-113867491D01*
X123168536Y-113935312D01*
X123145998Y-114001447D01*
X123100946Y-114040484D01*
X123092182Y-114044949D01*
X122920213Y-114169890D01*
X122769890Y-114320213D01*
X122644951Y-114492179D01*
X122548444Y-114681585D01*
X122482753Y-114883760D01*
X122449500Y-115093713D01*
X122449500Y-115306286D01*
X122476884Y-115479185D01*
X122482754Y-115516243D01*
X122524980Y-115646202D01*
X122548444Y-115718414D01*
X122644951Y-115907820D01*
X122769890Y-116079786D01*
X122920213Y-116230109D01*
X123092182Y-116355050D01*
X123100946Y-116359516D01*
X123151742Y-116407491D01*
X123168536Y-116475312D01*
X123145998Y-116541447D01*
X123100946Y-116580484D01*
X123092182Y-116584949D01*
X122920213Y-116709890D01*
X122769890Y-116860213D01*
X122644951Y-117032179D01*
X122548444Y-117221585D01*
X122482753Y-117423760D01*
X122449500Y-117633713D01*
X122449500Y-117846286D01*
X122478966Y-118032331D01*
X122482754Y-118056243D01*
X122512420Y-118147546D01*
X122548444Y-118258414D01*
X122644951Y-118447820D01*
X122769890Y-118619786D01*
X122920213Y-118770109D01*
X123092182Y-118895050D01*
X123100946Y-118899516D01*
X123151742Y-118947491D01*
X123168536Y-119015312D01*
X123145998Y-119081447D01*
X123100946Y-119120484D01*
X123092182Y-119124949D01*
X122920213Y-119249890D01*
X122769890Y-119400213D01*
X122644951Y-119572179D01*
X122548444Y-119761585D01*
X122482753Y-119963760D01*
X122449500Y-120173713D01*
X122449500Y-120386286D01*
X122476418Y-120556243D01*
X122482754Y-120596243D01*
X122538705Y-120768443D01*
X122548444Y-120798414D01*
X122644951Y-120987820D01*
X122769890Y-121159786D01*
X122920213Y-121310109D01*
X123092182Y-121435050D01*
X123100946Y-121439516D01*
X123151742Y-121487491D01*
X123168536Y-121555312D01*
X123145998Y-121621447D01*
X123100946Y-121660484D01*
X123092182Y-121664949D01*
X122920213Y-121789890D01*
X122769890Y-121940213D01*
X122644951Y-122112179D01*
X122548444Y-122301585D01*
X122482753Y-122503760D01*
X122449500Y-122713713D01*
X122449500Y-122926286D01*
X122477340Y-123102065D01*
X122482754Y-123136243D01*
X122538705Y-123308443D01*
X122548444Y-123338414D01*
X122644951Y-123527820D01*
X122769890Y-123699786D01*
X122920213Y-123850109D01*
X123092182Y-123975050D01*
X123100946Y-123979516D01*
X123151742Y-124027491D01*
X123168536Y-124095312D01*
X123145998Y-124161447D01*
X123100946Y-124200484D01*
X123092182Y-124204949D01*
X122920213Y-124329890D01*
X122769890Y-124480213D01*
X122644951Y-124652179D01*
X122548444Y-124841585D01*
X122482753Y-125043760D01*
X122449500Y-125253713D01*
X122449500Y-125466286D01*
X122476418Y-125636243D01*
X122482754Y-125676243D01*
X122543926Y-125864511D01*
X122548444Y-125878414D01*
X122644951Y-126067820D01*
X122769890Y-126239786D01*
X122920213Y-126390109D01*
X123092182Y-126515050D01*
X123100946Y-126519516D01*
X123108927Y-126527054D01*
X123119204Y-126530916D01*
X123133878Y-126550620D01*
X123151742Y-126567491D01*
X123154380Y-126578147D01*
X123160938Y-126586952D01*
X123162630Y-126611463D01*
X123168536Y-126635312D01*
X123164994Y-126645703D01*
X123165751Y-126656655D01*
X123153924Y-126678188D01*
X123145998Y-126701447D01*
X123136518Y-126709880D01*
X123132116Y-126717896D01*
X123107262Y-126735906D01*
X123103810Y-126738978D01*
X123102392Y-126739747D01*
X123092184Y-126744949D01*
X123090331Y-126746295D01*
X123084468Y-126749478D01*
X123059666Y-126754809D01*
X123025308Y-126764500D01*
X121274499Y-126764500D01*
X121207460Y-126744815D01*
X121161705Y-126692011D01*
X121150499Y-126640500D01*
X121150499Y-126637498D01*
X121150498Y-126637481D01*
X121139999Y-126534703D01*
X121139998Y-126534700D01*
X121137464Y-126527054D01*
X121084814Y-126368166D01*
X120992712Y-126218844D01*
X120868656Y-126094788D01*
X120760083Y-126027820D01*
X120719336Y-126002687D01*
X120719331Y-126002685D01*
X120717862Y-126002198D01*
X120552797Y-125947501D01*
X120552795Y-125947500D01*
X120450016Y-125937000D01*
X120450009Y-125937000D01*
X119847000Y-125937000D01*
X119779961Y-125917315D01*
X119734206Y-125864511D01*
X119723000Y-125813000D01*
X119723000Y-109424105D01*
X119729294Y-109385101D01*
X119739999Y-109352797D01*
X119750500Y-109250009D01*
X119750499Y-106949992D01*
X119739999Y-106847203D01*
X119684814Y-106680666D01*
X119592712Y-106531344D01*
X119468656Y-106407288D01*
X119344778Y-106330880D01*
X119319336Y-106315187D01*
X119319331Y-106315185D01*
X119263411Y-106296655D01*
X119152797Y-106260001D01*
X119152795Y-106260000D01*
X119050016Y-106249500D01*
X119050009Y-106249500D01*
X118394201Y-106249500D01*
X118327162Y-106229815D01*
X118306520Y-106213181D01*
X117504319Y-105410980D01*
X117470834Y-105349657D01*
X117468000Y-105323299D01*
X117468000Y-102125686D01*
X117481514Y-102069394D01*
X117491384Y-102050025D01*
X117552209Y-101862826D01*
X117558963Y-101820185D01*
X117583000Y-101668422D01*
X117583000Y-100671577D01*
X117552209Y-100477173D01*
X117491382Y-100289970D01*
X117438227Y-100185647D01*
X117402024Y-100114595D01*
X117286328Y-99955354D01*
X117147146Y-99816172D01*
X116987905Y-99700476D01*
X116941024Y-99676589D01*
X116812529Y-99611117D01*
X116625326Y-99550290D01*
X116430922Y-99519500D01*
X116430917Y-99519500D01*
X116234083Y-99519500D01*
X116234078Y-99519500D01*
X116039673Y-99550290D01*
X115852470Y-99611117D01*
X115677094Y-99700476D01*
X115634277Y-99731585D01*
X115517854Y-99816172D01*
X115517852Y-99816174D01*
X115517851Y-99816174D01*
X115378674Y-99955351D01*
X115378674Y-99955352D01*
X115378672Y-99955354D01*
X115366480Y-99972135D01*
X115262976Y-100114594D01*
X115172704Y-100291764D01*
X115124729Y-100342560D01*
X115056908Y-100359355D01*
X114990774Y-100336818D01*
X114951734Y-100291764D01*
X114861595Y-100114856D01*
X114745944Y-99955678D01*
X114606821Y-99816555D01*
X114447643Y-99700904D01*
X114272335Y-99611581D01*
X114085205Y-99550778D01*
X114042500Y-99544014D01*
X114042500Y-100736988D01*
X113985493Y-100704075D01*
X113858326Y-100670000D01*
X113726674Y-100670000D01*
X113599507Y-100704075D01*
X113542500Y-100736988D01*
X113542500Y-99544014D01*
X113542499Y-99544014D01*
X113499794Y-99550778D01*
X113312664Y-99611581D01*
X113137356Y-99700904D01*
X112978178Y-99816555D01*
X112839055Y-99955678D01*
X112727317Y-100109471D01*
X112671986Y-100152137D01*
X112602373Y-100158115D01*
X112540578Y-100125509D01*
X112506221Y-100064670D01*
X112502999Y-100036585D01*
X112502999Y-99972129D01*
X112502998Y-99972123D01*
X112502997Y-99972116D01*
X112496591Y-99912517D01*
X112473203Y-99849811D01*
X112446297Y-99777671D01*
X112446293Y-99777664D01*
X112360047Y-99662455D01*
X112360044Y-99662452D01*
X112244835Y-99576206D01*
X112244828Y-99576202D01*
X112109982Y-99525908D01*
X112109983Y-99525908D01*
X112050383Y-99519501D01*
X112050381Y-99519500D01*
X112050373Y-99519500D01*
X112050364Y-99519500D01*
X110454629Y-99519500D01*
X110454623Y-99519501D01*
X110395016Y-99525908D01*
X110260171Y-99576202D01*
X110260164Y-99576206D01*
X110144955Y-99662452D01*
X110144952Y-99662455D01*
X110058706Y-99777664D01*
X110058702Y-99777671D01*
X110008408Y-99912517D01*
X110002001Y-99972116D01*
X110002001Y-99972123D01*
X110002000Y-99972135D01*
X110002000Y-102367870D01*
X110002001Y-102367876D01*
X110008408Y-102427483D01*
X110058702Y-102562328D01*
X110058706Y-102562335D01*
X110092266Y-102607165D01*
X110116684Y-102672629D01*
X110117000Y-102681476D01*
X110117000Y-103850798D01*
X110097315Y-103917837D01*
X110080681Y-103938479D01*
X107934195Y-106084965D01*
X107872872Y-106118450D01*
X107803180Y-106113466D01*
X107758833Y-106084965D01*
X107731157Y-106057289D01*
X107731156Y-106057288D01*
X107638390Y-106000070D01*
X107581837Y-105965187D01*
X107581832Y-105965185D01*
X107548609Y-105954176D01*
X107415298Y-105910001D01*
X107415296Y-105910000D01*
X107312517Y-105899500D01*
X107312510Y-105899500D01*
X105737490Y-105899500D01*
X105737482Y-105899500D01*
X105634703Y-105910000D01*
X105634702Y-105910001D01*
X105561158Y-105934371D01*
X105468167Y-105965185D01*
X105468162Y-105965187D01*
X105318842Y-106057289D01*
X105194789Y-106181342D01*
X105102687Y-106330662D01*
X105102685Y-106330667D01*
X105085858Y-106381447D01*
X105047501Y-106497202D01*
X105047501Y-106497203D01*
X105047500Y-106497203D01*
X105037000Y-106599982D01*
X104500500Y-106599982D01*
X104500500Y-75624500D01*
X104520185Y-75557461D01*
X104572989Y-75511706D01*
X104624500Y-75500500D01*
X154734192Y-75500500D01*
X154801231Y-75520185D01*
G37*
%TD.AperFunction*%
%TA.AperFunction,Conductor*%
G36*
X159693392Y-111991067D02*
G01*
X159720812Y-112009389D01*
X159720827Y-112009397D01*
X159829425Y-112054379D01*
X159866503Y-112069737D01*
X160021153Y-112100499D01*
X160021156Y-112100500D01*
X160021158Y-112100500D01*
X160178844Y-112100500D01*
X160178845Y-112100499D01*
X160333497Y-112069737D01*
X160428048Y-112030572D01*
X160497517Y-112023104D01*
X160559996Y-112054379D01*
X160595648Y-112114468D01*
X160599500Y-112145134D01*
X160599500Y-114674684D01*
X160590061Y-114722136D01*
X160530264Y-114866498D01*
X160530261Y-114866510D01*
X160499500Y-115021153D01*
X160499500Y-115178846D01*
X160530261Y-115333489D01*
X160530264Y-115333501D01*
X160590602Y-115479172D01*
X160590609Y-115479185D01*
X160678210Y-115610288D01*
X160678213Y-115610292D01*
X160789707Y-115721786D01*
X160789711Y-115721789D01*
X160920814Y-115809390D01*
X160920827Y-115809397D01*
X161033119Y-115855909D01*
X161066503Y-115869737D01*
X161221153Y-115900499D01*
X161221156Y-115900500D01*
X161221158Y-115900500D01*
X161378844Y-115900500D01*
X161378845Y-115900499D01*
X161533497Y-115869737D01*
X161628048Y-115830572D01*
X161697517Y-115823104D01*
X161759996Y-115854379D01*
X161795648Y-115914468D01*
X161799500Y-115945134D01*
X161799500Y-119151006D01*
X161799500Y-119288994D01*
X161799500Y-119288996D01*
X161799499Y-119288996D01*
X161826418Y-119424322D01*
X161826421Y-119424332D01*
X161879222Y-119551807D01*
X161955887Y-119666545D01*
X161955888Y-119666546D01*
X163939492Y-121650149D01*
X163972977Y-121711472D01*
X163974284Y-121757227D01*
X163949500Y-121913712D01*
X163949500Y-122126286D01*
X163982753Y-122336239D01*
X164048444Y-122538414D01*
X164144951Y-122727820D01*
X164269890Y-122899785D01*
X164269894Y-122899790D01*
X164420213Y-123050109D01*
X164592182Y-123175050D01*
X164600946Y-123179516D01*
X164651742Y-123227491D01*
X164668536Y-123295312D01*
X164645998Y-123361447D01*
X164600946Y-123400484D01*
X164592182Y-123404949D01*
X164420213Y-123529890D01*
X164269890Y-123680213D01*
X164144951Y-123852179D01*
X164048444Y-124041585D01*
X163982753Y-124243760D01*
X163949500Y-124453713D01*
X163949500Y-124459481D01*
X163929815Y-124526520D01*
X163877011Y-124572275D01*
X163807853Y-124582219D01*
X163744297Y-124553194D01*
X163737819Y-124547162D01*
X159536819Y-120346162D01*
X159503334Y-120284839D01*
X159500500Y-120258481D01*
X159500500Y-112094168D01*
X159520185Y-112027129D01*
X159572989Y-111981374D01*
X159642147Y-111971430D01*
X159693392Y-111991067D01*
G37*
%TD.AperFunction*%
%TA.AperFunction,Conductor*%
G36*
X157355703Y-105006806D02*
G01*
X157362181Y-105012838D01*
X160563181Y-108213838D01*
X160577884Y-108240765D01*
X160594477Y-108266584D01*
X160595368Y-108272784D01*
X160596666Y-108275161D01*
X160599500Y-108301519D01*
X160599500Y-108509481D01*
X160579815Y-108576520D01*
X160527011Y-108622275D01*
X160457853Y-108632219D01*
X160394297Y-108603194D01*
X160387819Y-108597162D01*
X157160507Y-105369850D01*
X157127022Y-105308527D01*
X157125715Y-105262771D01*
X157144165Y-105146287D01*
X157150500Y-105106287D01*
X157150500Y-105100519D01*
X157170185Y-105033480D01*
X157222989Y-104987725D01*
X157292147Y-104977781D01*
X157355703Y-105006806D01*
G37*
%TD.AperFunction*%
%TA.AperFunction,Conductor*%
G36*
X157355703Y-102466806D02*
G01*
X157362181Y-102472838D01*
X161763181Y-106873838D01*
X161777884Y-106900765D01*
X161794477Y-106926584D01*
X161795368Y-106932784D01*
X161796666Y-106935161D01*
X161799500Y-106961519D01*
X161799500Y-107169481D01*
X161779815Y-107236520D01*
X161727011Y-107282275D01*
X161657853Y-107292219D01*
X161594297Y-107263194D01*
X161587819Y-107257162D01*
X157160507Y-102829850D01*
X157127022Y-102768527D01*
X157125715Y-102722771D01*
X157131902Y-102683712D01*
X157150500Y-102566287D01*
X157150500Y-102560519D01*
X157170185Y-102493480D01*
X157222989Y-102447725D01*
X157292147Y-102437781D01*
X157355703Y-102466806D01*
G37*
%TD.AperFunction*%
%TA.AperFunction,Conductor*%
G36*
X163444520Y-99389185D02*
G01*
X163465162Y-99405819D01*
X163939492Y-99880149D01*
X163972977Y-99941472D01*
X163974284Y-99987227D01*
X163949500Y-100143712D01*
X163949500Y-100302212D01*
X163929815Y-100369251D01*
X163877011Y-100415006D01*
X163807853Y-100424950D01*
X163801309Y-100423829D01*
X163678998Y-100399500D01*
X163678994Y-100399500D01*
X163678993Y-100399500D01*
X158525316Y-100399500D01*
X158477864Y-100390061D01*
X158333501Y-100330264D01*
X158333489Y-100330261D01*
X158178845Y-100299500D01*
X158178842Y-100299500D01*
X158021158Y-100299500D01*
X158021155Y-100299500D01*
X157866510Y-100330261D01*
X157866498Y-100330264D01*
X157720827Y-100390602D01*
X157720814Y-100390609D01*
X157589711Y-100478210D01*
X157589707Y-100478213D01*
X157556970Y-100510951D01*
X157495647Y-100544436D01*
X157425955Y-100539452D01*
X157381608Y-100510951D01*
X157160507Y-100289850D01*
X157127022Y-100228527D01*
X157125715Y-100182771D01*
X157131902Y-100143712D01*
X157150500Y-100026287D01*
X157150500Y-99813713D01*
X157118305Y-99610444D01*
X157127259Y-99541154D01*
X157172255Y-99487702D01*
X157239007Y-99467062D01*
X157264970Y-99469432D01*
X157421155Y-99500500D01*
X157421158Y-99500500D01*
X157578844Y-99500500D01*
X157578845Y-99500499D01*
X157733497Y-99469737D01*
X157879179Y-99409394D01*
X157907609Y-99390397D01*
X157974285Y-99369520D01*
X157976499Y-99369500D01*
X163377481Y-99369500D01*
X163444520Y-99389185D01*
G37*
%TD.AperFunction*%
%TA.AperFunction,Conductor*%
G36*
X163985857Y-85388425D02*
G01*
X164013579Y-85393223D01*
X164018934Y-85398137D01*
X164025906Y-85400185D01*
X164044323Y-85421439D01*
X164065055Y-85440467D01*
X164066903Y-85447497D01*
X164071661Y-85452989D01*
X164075664Y-85480832D01*
X164082816Y-85508041D01*
X164081046Y-85518265D01*
X164081605Y-85522147D01*
X164076800Y-85542807D01*
X164027754Y-85693757D01*
X164027753Y-85693760D01*
X164027753Y-85693762D01*
X163994500Y-85903713D01*
X163994500Y-86116286D01*
X164011526Y-86223788D01*
X164027754Y-86326243D01*
X164088170Y-86512184D01*
X164093444Y-86528414D01*
X164189951Y-86717820D01*
X164314890Y-86889786D01*
X164465213Y-87040109D01*
X164637182Y-87165050D01*
X164645946Y-87169516D01*
X164696742Y-87217491D01*
X164713536Y-87285312D01*
X164690998Y-87351447D01*
X164645946Y-87390484D01*
X164637182Y-87394949D01*
X164465213Y-87519890D01*
X164314890Y-87670213D01*
X164189951Y-87842179D01*
X164093444Y-88031585D01*
X164027753Y-88233760D01*
X163994500Y-88443713D01*
X163994500Y-88656287D01*
X163994499Y-88656287D01*
X164019284Y-88812771D01*
X164010329Y-88882064D01*
X163984492Y-88919849D01*
X162630162Y-90274181D01*
X162568839Y-90307666D01*
X162542481Y-90310500D01*
X157946567Y-90310500D01*
X157885094Y-90292449D01*
X157884546Y-90293475D01*
X157879621Y-90290842D01*
X157879528Y-90290815D01*
X157879340Y-90290692D01*
X157879174Y-90290603D01*
X157733501Y-90230264D01*
X157733489Y-90230261D01*
X157578845Y-90199500D01*
X157578842Y-90199500D01*
X157421158Y-90199500D01*
X157421155Y-90199500D01*
X157260914Y-90231374D01*
X157191323Y-90225147D01*
X157136145Y-90182284D01*
X157112901Y-90116394D01*
X157116150Y-90080806D01*
X157117243Y-90076251D01*
X157117246Y-90076243D01*
X157150500Y-89866287D01*
X157150500Y-89653713D01*
X157117246Y-89443757D01*
X157051557Y-89241588D01*
X156955051Y-89052184D01*
X156955049Y-89052181D01*
X156955048Y-89052179D01*
X156830109Y-88880213D01*
X156679786Y-88729890D01*
X156507820Y-88604951D01*
X156507115Y-88604591D01*
X156499054Y-88600485D01*
X156448259Y-88552512D01*
X156431463Y-88484692D01*
X156453999Y-88418556D01*
X156499054Y-88379515D01*
X156507816Y-88375051D01*
X156540753Y-88351121D01*
X156679786Y-88250109D01*
X156679788Y-88250106D01*
X156679792Y-88250104D01*
X156830104Y-88099792D01*
X156830106Y-88099788D01*
X156830109Y-88099786D01*
X156955048Y-87927820D01*
X156955047Y-87927820D01*
X156955051Y-87927816D01*
X157051557Y-87738412D01*
X157117246Y-87536243D01*
X157150500Y-87326287D01*
X157150500Y-87113713D01*
X157117246Y-86903757D01*
X157051557Y-86701588D01*
X156955051Y-86512184D01*
X156955049Y-86512181D01*
X156955048Y-86512179D01*
X156830109Y-86340213D01*
X156679786Y-86189890D01*
X156507820Y-86064951D01*
X156507115Y-86064591D01*
X156499054Y-86060485D01*
X156448259Y-86012512D01*
X156431463Y-85944692D01*
X156453999Y-85878556D01*
X156499054Y-85839515D01*
X156507816Y-85835051D01*
X156540753Y-85811121D01*
X156679786Y-85710109D01*
X156679788Y-85710106D01*
X156679792Y-85710104D01*
X156830104Y-85559792D01*
X156923229Y-85431614D01*
X156978558Y-85388949D01*
X157023547Y-85380500D01*
X163958867Y-85380500D01*
X163985857Y-85388425D01*
G37*
%TD.AperFunction*%
%TA.AperFunction,Conductor*%
G36*
X163740520Y-80320185D02*
G01*
X163761162Y-80336819D01*
X163984492Y-80560149D01*
X164017977Y-80621472D01*
X164019284Y-80667227D01*
X163994500Y-80823712D01*
X163994500Y-81036286D01*
X164011526Y-81143788D01*
X164027754Y-81246243D01*
X164088170Y-81432184D01*
X164093444Y-81448414D01*
X164189951Y-81637820D01*
X164314890Y-81809786D01*
X164465213Y-81960109D01*
X164637182Y-82085050D01*
X164645946Y-82089516D01*
X164696742Y-82137491D01*
X164713536Y-82205312D01*
X164690998Y-82271447D01*
X164645946Y-82310484D01*
X164637182Y-82314949D01*
X164465213Y-82439890D01*
X164314890Y-82590213D01*
X164189951Y-82762179D01*
X164093444Y-82951585D01*
X164027753Y-83153760D01*
X163994500Y-83363713D01*
X163994500Y-83576287D01*
X163994499Y-83576287D01*
X164019284Y-83732772D01*
X164018583Y-83738195D01*
X164020495Y-83743322D01*
X164014152Y-83772475D01*
X164010329Y-83802065D01*
X164006496Y-83807669D01*
X164005643Y-83811595D01*
X163984493Y-83839850D01*
X163881160Y-83943182D01*
X163819840Y-83976666D01*
X163793481Y-83979500D01*
X157023547Y-83979500D01*
X156956508Y-83959815D01*
X156923230Y-83928385D01*
X156859169Y-83840213D01*
X156830107Y-83800211D01*
X156679786Y-83649890D01*
X156507820Y-83524951D01*
X156507115Y-83524591D01*
X156499054Y-83520485D01*
X156448259Y-83472512D01*
X156431463Y-83404692D01*
X156453999Y-83338556D01*
X156499054Y-83299515D01*
X156507816Y-83295051D01*
X156540753Y-83271121D01*
X156679786Y-83170109D01*
X156679788Y-83170106D01*
X156679792Y-83170104D01*
X156830104Y-83019792D01*
X156830106Y-83019788D01*
X156830109Y-83019786D01*
X156955048Y-82847820D01*
X156955047Y-82847820D01*
X156955051Y-82847816D01*
X157051557Y-82658412D01*
X157117246Y-82456243D01*
X157150500Y-82246287D01*
X157150500Y-82033713D01*
X157117246Y-81823757D01*
X157051557Y-81621588D01*
X156955051Y-81432184D01*
X156955049Y-81432181D01*
X156955048Y-81432179D01*
X156830109Y-81260213D01*
X156679786Y-81109890D01*
X156507820Y-80984951D01*
X156507115Y-80984591D01*
X156499054Y-80980485D01*
X156448259Y-80932512D01*
X156431463Y-80864692D01*
X156453999Y-80798556D01*
X156499054Y-80759515D01*
X156507816Y-80755051D01*
X156538792Y-80732546D01*
X156679786Y-80630109D01*
X156679788Y-80630106D01*
X156679792Y-80630104D01*
X156830104Y-80479792D01*
X156923229Y-80351614D01*
X156978558Y-80308949D01*
X157023547Y-80300500D01*
X163673481Y-80300500D01*
X163740520Y-80320185D01*
G37*
%TD.AperFunction*%
%TD*%
M02*
