%TF.GenerationSoftware,KiCad,Pcbnew,9.0.5*%
%TF.CreationDate,2026-01-28T15:10:35+09:00*%
%TF.ProjectId,esp32s3_serial_bridge_pcb,65737033-3273-4335-9f73-657269616c5f,V1.0*%
%TF.SameCoordinates,Original*%
%TF.FileFunction,Legend,Top*%
%TF.FilePolarity,Positive*%
%FSLAX46Y46*%
G04 Gerber Fmt 4.6, Leading zero omitted, Abs format (unit mm)*
G04 Created by KiCad (PCBNEW 9.0.5) date 2026-01-28 15:10:35*
%MOMM*%
%LPD*%
G01*
G04 APERTURE LIST*
%ADD10C,0.200000*%
%ADD11C,0.150000*%
%ADD12C,0.120000*%
G04 APERTURE END LIST*
D10*
X108776478Y-76169673D02*
X108776478Y-76503006D01*
X108252668Y-76645863D02*
X108252668Y-76169673D01*
X108252668Y-76169673D02*
X109252668Y-76169673D01*
X109252668Y-76169673D02*
X109252668Y-76645863D01*
X108300288Y-77026816D02*
X108252668Y-77169673D01*
X108252668Y-77169673D02*
X108252668Y-77407768D01*
X108252668Y-77407768D02*
X108300288Y-77503006D01*
X108300288Y-77503006D02*
X108347907Y-77550625D01*
X108347907Y-77550625D02*
X108443145Y-77598244D01*
X108443145Y-77598244D02*
X108538383Y-77598244D01*
X108538383Y-77598244D02*
X108633621Y-77550625D01*
X108633621Y-77550625D02*
X108681240Y-77503006D01*
X108681240Y-77503006D02*
X108728859Y-77407768D01*
X108728859Y-77407768D02*
X108776478Y-77217292D01*
X108776478Y-77217292D02*
X108824097Y-77122054D01*
X108824097Y-77122054D02*
X108871716Y-77074435D01*
X108871716Y-77074435D02*
X108966954Y-77026816D01*
X108966954Y-77026816D02*
X109062192Y-77026816D01*
X109062192Y-77026816D02*
X109157430Y-77074435D01*
X109157430Y-77074435D02*
X109205049Y-77122054D01*
X109205049Y-77122054D02*
X109252668Y-77217292D01*
X109252668Y-77217292D02*
X109252668Y-77455387D01*
X109252668Y-77455387D02*
X109205049Y-77598244D01*
X108252668Y-78026816D02*
X109252668Y-78026816D01*
X109252668Y-78026816D02*
X109252668Y-78407768D01*
X109252668Y-78407768D02*
X109205049Y-78503006D01*
X109205049Y-78503006D02*
X109157430Y-78550625D01*
X109157430Y-78550625D02*
X109062192Y-78598244D01*
X109062192Y-78598244D02*
X108919335Y-78598244D01*
X108919335Y-78598244D02*
X108824097Y-78550625D01*
X108824097Y-78550625D02*
X108776478Y-78503006D01*
X108776478Y-78503006D02*
X108728859Y-78407768D01*
X108728859Y-78407768D02*
X108728859Y-78026816D01*
X109252668Y-78931578D02*
X109252668Y-79550625D01*
X109252668Y-79550625D02*
X108871716Y-79217292D01*
X108871716Y-79217292D02*
X108871716Y-79360149D01*
X108871716Y-79360149D02*
X108824097Y-79455387D01*
X108824097Y-79455387D02*
X108776478Y-79503006D01*
X108776478Y-79503006D02*
X108681240Y-79550625D01*
X108681240Y-79550625D02*
X108443145Y-79550625D01*
X108443145Y-79550625D02*
X108347907Y-79503006D01*
X108347907Y-79503006D02*
X108300288Y-79455387D01*
X108300288Y-79455387D02*
X108252668Y-79360149D01*
X108252668Y-79360149D02*
X108252668Y-79074435D01*
X108252668Y-79074435D02*
X108300288Y-78979197D01*
X108300288Y-78979197D02*
X108347907Y-78931578D01*
X109157430Y-79931578D02*
X109205049Y-79979197D01*
X109205049Y-79979197D02*
X109252668Y-80074435D01*
X109252668Y-80074435D02*
X109252668Y-80312530D01*
X109252668Y-80312530D02*
X109205049Y-80407768D01*
X109205049Y-80407768D02*
X109157430Y-80455387D01*
X109157430Y-80455387D02*
X109062192Y-80503006D01*
X109062192Y-80503006D02*
X108966954Y-80503006D01*
X108966954Y-80503006D02*
X108824097Y-80455387D01*
X108824097Y-80455387D02*
X108252668Y-79883959D01*
X108252668Y-79883959D02*
X108252668Y-80503006D01*
X108300288Y-80883959D02*
X108252668Y-81026816D01*
X108252668Y-81026816D02*
X108252668Y-81264911D01*
X108252668Y-81264911D02*
X108300288Y-81360149D01*
X108300288Y-81360149D02*
X108347907Y-81407768D01*
X108347907Y-81407768D02*
X108443145Y-81455387D01*
X108443145Y-81455387D02*
X108538383Y-81455387D01*
X108538383Y-81455387D02*
X108633621Y-81407768D01*
X108633621Y-81407768D02*
X108681240Y-81360149D01*
X108681240Y-81360149D02*
X108728859Y-81264911D01*
X108728859Y-81264911D02*
X108776478Y-81074435D01*
X108776478Y-81074435D02*
X108824097Y-80979197D01*
X108824097Y-80979197D02*
X108871716Y-80931578D01*
X108871716Y-80931578D02*
X108966954Y-80883959D01*
X108966954Y-80883959D02*
X109062192Y-80883959D01*
X109062192Y-80883959D02*
X109157430Y-80931578D01*
X109157430Y-80931578D02*
X109205049Y-80979197D01*
X109205049Y-80979197D02*
X109252668Y-81074435D01*
X109252668Y-81074435D02*
X109252668Y-81312530D01*
X109252668Y-81312530D02*
X109205049Y-81455387D01*
X109252668Y-81788721D02*
X109252668Y-82407768D01*
X109252668Y-82407768D02*
X108871716Y-82074435D01*
X108871716Y-82074435D02*
X108871716Y-82217292D01*
X108871716Y-82217292D02*
X108824097Y-82312530D01*
X108824097Y-82312530D02*
X108776478Y-82360149D01*
X108776478Y-82360149D02*
X108681240Y-82407768D01*
X108681240Y-82407768D02*
X108443145Y-82407768D01*
X108443145Y-82407768D02*
X108347907Y-82360149D01*
X108347907Y-82360149D02*
X108300288Y-82312530D01*
X108300288Y-82312530D02*
X108252668Y-82217292D01*
X108252668Y-82217292D02*
X108252668Y-81931578D01*
X108252668Y-81931578D02*
X108300288Y-81836340D01*
X108300288Y-81836340D02*
X108347907Y-81788721D01*
X108633621Y-82836340D02*
X108633621Y-83598245D01*
X108300288Y-84026816D02*
X108252668Y-84169673D01*
X108252668Y-84169673D02*
X108252668Y-84407768D01*
X108252668Y-84407768D02*
X108300288Y-84503006D01*
X108300288Y-84503006D02*
X108347907Y-84550625D01*
X108347907Y-84550625D02*
X108443145Y-84598244D01*
X108443145Y-84598244D02*
X108538383Y-84598244D01*
X108538383Y-84598244D02*
X108633621Y-84550625D01*
X108633621Y-84550625D02*
X108681240Y-84503006D01*
X108681240Y-84503006D02*
X108728859Y-84407768D01*
X108728859Y-84407768D02*
X108776478Y-84217292D01*
X108776478Y-84217292D02*
X108824097Y-84122054D01*
X108824097Y-84122054D02*
X108871716Y-84074435D01*
X108871716Y-84074435D02*
X108966954Y-84026816D01*
X108966954Y-84026816D02*
X109062192Y-84026816D01*
X109062192Y-84026816D02*
X109157430Y-84074435D01*
X109157430Y-84074435D02*
X109205049Y-84122054D01*
X109205049Y-84122054D02*
X109252668Y-84217292D01*
X109252668Y-84217292D02*
X109252668Y-84455387D01*
X109252668Y-84455387D02*
X109205049Y-84598244D01*
X108300288Y-85407768D02*
X108252668Y-85312530D01*
X108252668Y-85312530D02*
X108252668Y-85122054D01*
X108252668Y-85122054D02*
X108300288Y-85026816D01*
X108300288Y-85026816D02*
X108395526Y-84979197D01*
X108395526Y-84979197D02*
X108776478Y-84979197D01*
X108776478Y-84979197D02*
X108871716Y-85026816D01*
X108871716Y-85026816D02*
X108919335Y-85122054D01*
X108919335Y-85122054D02*
X108919335Y-85312530D01*
X108919335Y-85312530D02*
X108871716Y-85407768D01*
X108871716Y-85407768D02*
X108776478Y-85455387D01*
X108776478Y-85455387D02*
X108681240Y-85455387D01*
X108681240Y-85455387D02*
X108586002Y-84979197D01*
X108252668Y-85883959D02*
X108919335Y-85883959D01*
X108728859Y-85883959D02*
X108824097Y-85931578D01*
X108824097Y-85931578D02*
X108871716Y-85979197D01*
X108871716Y-85979197D02*
X108919335Y-86074435D01*
X108919335Y-86074435D02*
X108919335Y-86169673D01*
X108252668Y-86503007D02*
X108919335Y-86503007D01*
X109252668Y-86503007D02*
X109205049Y-86455388D01*
X109205049Y-86455388D02*
X109157430Y-86503007D01*
X109157430Y-86503007D02*
X109205049Y-86550626D01*
X109205049Y-86550626D02*
X109252668Y-86503007D01*
X109252668Y-86503007D02*
X109157430Y-86503007D01*
X108252668Y-87407768D02*
X108776478Y-87407768D01*
X108776478Y-87407768D02*
X108871716Y-87360149D01*
X108871716Y-87360149D02*
X108919335Y-87264911D01*
X108919335Y-87264911D02*
X108919335Y-87074435D01*
X108919335Y-87074435D02*
X108871716Y-86979197D01*
X108300288Y-87407768D02*
X108252668Y-87312530D01*
X108252668Y-87312530D02*
X108252668Y-87074435D01*
X108252668Y-87074435D02*
X108300288Y-86979197D01*
X108300288Y-86979197D02*
X108395526Y-86931578D01*
X108395526Y-86931578D02*
X108490764Y-86931578D01*
X108490764Y-86931578D02*
X108586002Y-86979197D01*
X108586002Y-86979197D02*
X108633621Y-87074435D01*
X108633621Y-87074435D02*
X108633621Y-87312530D01*
X108633621Y-87312530D02*
X108681240Y-87407768D01*
X108252668Y-88026816D02*
X108300288Y-87931578D01*
X108300288Y-87931578D02*
X108395526Y-87883959D01*
X108395526Y-87883959D02*
X109252668Y-87883959D01*
X108633621Y-88407769D02*
X108633621Y-89169674D01*
X108776478Y-89979197D02*
X108728859Y-90122054D01*
X108728859Y-90122054D02*
X108681240Y-90169673D01*
X108681240Y-90169673D02*
X108586002Y-90217292D01*
X108586002Y-90217292D02*
X108443145Y-90217292D01*
X108443145Y-90217292D02*
X108347907Y-90169673D01*
X108347907Y-90169673D02*
X108300288Y-90122054D01*
X108300288Y-90122054D02*
X108252668Y-90026816D01*
X108252668Y-90026816D02*
X108252668Y-89645864D01*
X108252668Y-89645864D02*
X109252668Y-89645864D01*
X109252668Y-89645864D02*
X109252668Y-89979197D01*
X109252668Y-89979197D02*
X109205049Y-90074435D01*
X109205049Y-90074435D02*
X109157430Y-90122054D01*
X109157430Y-90122054D02*
X109062192Y-90169673D01*
X109062192Y-90169673D02*
X108966954Y-90169673D01*
X108966954Y-90169673D02*
X108871716Y-90122054D01*
X108871716Y-90122054D02*
X108824097Y-90074435D01*
X108824097Y-90074435D02*
X108776478Y-89979197D01*
X108776478Y-89979197D02*
X108776478Y-89645864D01*
X108252668Y-90645864D02*
X108919335Y-90645864D01*
X108728859Y-90645864D02*
X108824097Y-90693483D01*
X108824097Y-90693483D02*
X108871716Y-90741102D01*
X108871716Y-90741102D02*
X108919335Y-90836340D01*
X108919335Y-90836340D02*
X108919335Y-90931578D01*
X108252668Y-91264912D02*
X108919335Y-91264912D01*
X109252668Y-91264912D02*
X109205049Y-91217293D01*
X109205049Y-91217293D02*
X109157430Y-91264912D01*
X109157430Y-91264912D02*
X109205049Y-91312531D01*
X109205049Y-91312531D02*
X109252668Y-91264912D01*
X109252668Y-91264912D02*
X109157430Y-91264912D01*
X108252668Y-92169673D02*
X109252668Y-92169673D01*
X108300288Y-92169673D02*
X108252668Y-92074435D01*
X108252668Y-92074435D02*
X108252668Y-91883959D01*
X108252668Y-91883959D02*
X108300288Y-91788721D01*
X108300288Y-91788721D02*
X108347907Y-91741102D01*
X108347907Y-91741102D02*
X108443145Y-91693483D01*
X108443145Y-91693483D02*
X108728859Y-91693483D01*
X108728859Y-91693483D02*
X108824097Y-91741102D01*
X108824097Y-91741102D02*
X108871716Y-91788721D01*
X108871716Y-91788721D02*
X108919335Y-91883959D01*
X108919335Y-91883959D02*
X108919335Y-92074435D01*
X108919335Y-92074435D02*
X108871716Y-92169673D01*
X108919335Y-93074435D02*
X108109811Y-93074435D01*
X108109811Y-93074435D02*
X108014573Y-93026816D01*
X108014573Y-93026816D02*
X107966954Y-92979197D01*
X107966954Y-92979197D02*
X107919335Y-92883959D01*
X107919335Y-92883959D02*
X107919335Y-92741102D01*
X107919335Y-92741102D02*
X107966954Y-92645864D01*
X108300288Y-93074435D02*
X108252668Y-92979197D01*
X108252668Y-92979197D02*
X108252668Y-92788721D01*
X108252668Y-92788721D02*
X108300288Y-92693483D01*
X108300288Y-92693483D02*
X108347907Y-92645864D01*
X108347907Y-92645864D02*
X108443145Y-92598245D01*
X108443145Y-92598245D02*
X108728859Y-92598245D01*
X108728859Y-92598245D02*
X108824097Y-92645864D01*
X108824097Y-92645864D02*
X108871716Y-92693483D01*
X108871716Y-92693483D02*
X108919335Y-92788721D01*
X108919335Y-92788721D02*
X108919335Y-92979197D01*
X108919335Y-92979197D02*
X108871716Y-93074435D01*
X108300288Y-93931578D02*
X108252668Y-93836340D01*
X108252668Y-93836340D02*
X108252668Y-93645864D01*
X108252668Y-93645864D02*
X108300288Y-93550626D01*
X108300288Y-93550626D02*
X108395526Y-93503007D01*
X108395526Y-93503007D02*
X108776478Y-93503007D01*
X108776478Y-93503007D02*
X108871716Y-93550626D01*
X108871716Y-93550626D02*
X108919335Y-93645864D01*
X108919335Y-93645864D02*
X108919335Y-93836340D01*
X108919335Y-93836340D02*
X108871716Y-93931578D01*
X108871716Y-93931578D02*
X108776478Y-93979197D01*
X108776478Y-93979197D02*
X108681240Y-93979197D01*
X108681240Y-93979197D02*
X108586002Y-93503007D01*
X107547486Y-76122054D02*
X107595105Y-76169673D01*
X107595105Y-76169673D02*
X107642724Y-76264911D01*
X107642724Y-76264911D02*
X107642724Y-76503006D01*
X107642724Y-76503006D02*
X107595105Y-76598244D01*
X107595105Y-76598244D02*
X107547486Y-76645863D01*
X107547486Y-76645863D02*
X107452248Y-76693482D01*
X107452248Y-76693482D02*
X107357010Y-76693482D01*
X107357010Y-76693482D02*
X107214153Y-76645863D01*
X107214153Y-76645863D02*
X106642724Y-76074435D01*
X106642724Y-76074435D02*
X106642724Y-76693482D01*
X107642724Y-77550625D02*
X107642724Y-77360149D01*
X107642724Y-77360149D02*
X107595105Y-77264911D01*
X107595105Y-77264911D02*
X107547486Y-77217292D01*
X107547486Y-77217292D02*
X107404629Y-77122054D01*
X107404629Y-77122054D02*
X107214153Y-77074435D01*
X107214153Y-77074435D02*
X106833201Y-77074435D01*
X106833201Y-77074435D02*
X106737963Y-77122054D01*
X106737963Y-77122054D02*
X106690344Y-77169673D01*
X106690344Y-77169673D02*
X106642724Y-77264911D01*
X106642724Y-77264911D02*
X106642724Y-77455387D01*
X106642724Y-77455387D02*
X106690344Y-77550625D01*
X106690344Y-77550625D02*
X106737963Y-77598244D01*
X106737963Y-77598244D02*
X106833201Y-77645863D01*
X106833201Y-77645863D02*
X107071296Y-77645863D01*
X107071296Y-77645863D02*
X107166534Y-77598244D01*
X107166534Y-77598244D02*
X107214153Y-77550625D01*
X107214153Y-77550625D02*
X107261772Y-77455387D01*
X107261772Y-77455387D02*
X107261772Y-77264911D01*
X107261772Y-77264911D02*
X107214153Y-77169673D01*
X107214153Y-77169673D02*
X107166534Y-77122054D01*
X107166534Y-77122054D02*
X107071296Y-77074435D01*
X107642724Y-78264911D02*
X107642724Y-78360149D01*
X107642724Y-78360149D02*
X107595105Y-78455387D01*
X107595105Y-78455387D02*
X107547486Y-78503006D01*
X107547486Y-78503006D02*
X107452248Y-78550625D01*
X107452248Y-78550625D02*
X107261772Y-78598244D01*
X107261772Y-78598244D02*
X107023677Y-78598244D01*
X107023677Y-78598244D02*
X106833201Y-78550625D01*
X106833201Y-78550625D02*
X106737963Y-78503006D01*
X106737963Y-78503006D02*
X106690344Y-78455387D01*
X106690344Y-78455387D02*
X106642724Y-78360149D01*
X106642724Y-78360149D02*
X106642724Y-78264911D01*
X106642724Y-78264911D02*
X106690344Y-78169673D01*
X106690344Y-78169673D02*
X106737963Y-78122054D01*
X106737963Y-78122054D02*
X106833201Y-78074435D01*
X106833201Y-78074435D02*
X107023677Y-78026816D01*
X107023677Y-78026816D02*
X107261772Y-78026816D01*
X107261772Y-78026816D02*
X107452248Y-78074435D01*
X107452248Y-78074435D02*
X107547486Y-78122054D01*
X107547486Y-78122054D02*
X107595105Y-78169673D01*
X107595105Y-78169673D02*
X107642724Y-78264911D01*
X106642724Y-79550625D02*
X106642724Y-78979197D01*
X106642724Y-79264911D02*
X107642724Y-79264911D01*
X107642724Y-79264911D02*
X107499867Y-79169673D01*
X107499867Y-79169673D02*
X107404629Y-79074435D01*
X107404629Y-79074435D02*
X107357010Y-78979197D01*
X107547486Y-79931578D02*
X107595105Y-79979197D01*
X107595105Y-79979197D02*
X107642724Y-80074435D01*
X107642724Y-80074435D02*
X107642724Y-80312530D01*
X107642724Y-80312530D02*
X107595105Y-80407768D01*
X107595105Y-80407768D02*
X107547486Y-80455387D01*
X107547486Y-80455387D02*
X107452248Y-80503006D01*
X107452248Y-80503006D02*
X107357010Y-80503006D01*
X107357010Y-80503006D02*
X107214153Y-80455387D01*
X107214153Y-80455387D02*
X106642724Y-79883959D01*
X106642724Y-79883959D02*
X106642724Y-80503006D01*
X107214153Y-81074435D02*
X107261772Y-80979197D01*
X107261772Y-80979197D02*
X107309391Y-80931578D01*
X107309391Y-80931578D02*
X107404629Y-80883959D01*
X107404629Y-80883959D02*
X107452248Y-80883959D01*
X107452248Y-80883959D02*
X107547486Y-80931578D01*
X107547486Y-80931578D02*
X107595105Y-80979197D01*
X107595105Y-80979197D02*
X107642724Y-81074435D01*
X107642724Y-81074435D02*
X107642724Y-81264911D01*
X107642724Y-81264911D02*
X107595105Y-81360149D01*
X107595105Y-81360149D02*
X107547486Y-81407768D01*
X107547486Y-81407768D02*
X107452248Y-81455387D01*
X107452248Y-81455387D02*
X107404629Y-81455387D01*
X107404629Y-81455387D02*
X107309391Y-81407768D01*
X107309391Y-81407768D02*
X107261772Y-81360149D01*
X107261772Y-81360149D02*
X107214153Y-81264911D01*
X107214153Y-81264911D02*
X107214153Y-81074435D01*
X107214153Y-81074435D02*
X107166534Y-80979197D01*
X107166534Y-80979197D02*
X107118915Y-80931578D01*
X107118915Y-80931578D02*
X107023677Y-80883959D01*
X107023677Y-80883959D02*
X106833201Y-80883959D01*
X106833201Y-80883959D02*
X106737963Y-80931578D01*
X106737963Y-80931578D02*
X106690344Y-80979197D01*
X106690344Y-80979197D02*
X106642724Y-81074435D01*
X106642724Y-81074435D02*
X106642724Y-81264911D01*
X106642724Y-81264911D02*
X106690344Y-81360149D01*
X106690344Y-81360149D02*
X106737963Y-81407768D01*
X106737963Y-81407768D02*
X106833201Y-81455387D01*
X106833201Y-81455387D02*
X107023677Y-81455387D01*
X107023677Y-81455387D02*
X107118915Y-81407768D01*
X107118915Y-81407768D02*
X107166534Y-81360149D01*
X107166534Y-81360149D02*
X107214153Y-81264911D01*
X107642724Y-82503007D02*
X106642724Y-82836340D01*
X106642724Y-82836340D02*
X107642724Y-83169673D01*
X106642724Y-84026816D02*
X106642724Y-83455388D01*
X106642724Y-83741102D02*
X107642724Y-83741102D01*
X107642724Y-83741102D02*
X107499867Y-83645864D01*
X107499867Y-83645864D02*
X107404629Y-83550626D01*
X107404629Y-83550626D02*
X107357010Y-83455388D01*
X106737963Y-84455388D02*
X106690344Y-84503007D01*
X106690344Y-84503007D02*
X106642724Y-84455388D01*
X106642724Y-84455388D02*
X106690344Y-84407769D01*
X106690344Y-84407769D02*
X106737963Y-84455388D01*
X106737963Y-84455388D02*
X106642724Y-84455388D01*
X107642724Y-85122054D02*
X107642724Y-85217292D01*
X107642724Y-85217292D02*
X107595105Y-85312530D01*
X107595105Y-85312530D02*
X107547486Y-85360149D01*
X107547486Y-85360149D02*
X107452248Y-85407768D01*
X107452248Y-85407768D02*
X107261772Y-85455387D01*
X107261772Y-85455387D02*
X107023677Y-85455387D01*
X107023677Y-85455387D02*
X106833201Y-85407768D01*
X106833201Y-85407768D02*
X106737963Y-85360149D01*
X106737963Y-85360149D02*
X106690344Y-85312530D01*
X106690344Y-85312530D02*
X106642724Y-85217292D01*
X106642724Y-85217292D02*
X106642724Y-85122054D01*
X106642724Y-85122054D02*
X106690344Y-85026816D01*
X106690344Y-85026816D02*
X106737963Y-84979197D01*
X106737963Y-84979197D02*
X106833201Y-84931578D01*
X106833201Y-84931578D02*
X107023677Y-84883959D01*
X107023677Y-84883959D02*
X107261772Y-84883959D01*
X107261772Y-84883959D02*
X107452248Y-84931578D01*
X107452248Y-84931578D02*
X107547486Y-84979197D01*
X107547486Y-84979197D02*
X107595105Y-85026816D01*
X107595105Y-85026816D02*
X107642724Y-85122054D01*
X106642724Y-86645864D02*
X107642724Y-86645864D01*
X106642724Y-87217292D02*
X107214153Y-86788721D01*
X107642724Y-87217292D02*
X107071296Y-86645864D01*
X106690344Y-88026816D02*
X106642724Y-87931578D01*
X106642724Y-87931578D02*
X106642724Y-87741102D01*
X106642724Y-87741102D02*
X106690344Y-87645864D01*
X106690344Y-87645864D02*
X106785582Y-87598245D01*
X106785582Y-87598245D02*
X107166534Y-87598245D01*
X107166534Y-87598245D02*
X107261772Y-87645864D01*
X107261772Y-87645864D02*
X107309391Y-87741102D01*
X107309391Y-87741102D02*
X107309391Y-87931578D01*
X107309391Y-87931578D02*
X107261772Y-88026816D01*
X107261772Y-88026816D02*
X107166534Y-88074435D01*
X107166534Y-88074435D02*
X107071296Y-88074435D01*
X107071296Y-88074435D02*
X106976058Y-87598245D01*
X106642724Y-88503007D02*
X107309391Y-88503007D01*
X107118915Y-88503007D02*
X107214153Y-88550626D01*
X107214153Y-88550626D02*
X107261772Y-88598245D01*
X107261772Y-88598245D02*
X107309391Y-88693483D01*
X107309391Y-88693483D02*
X107309391Y-88788721D01*
X106642724Y-89122055D02*
X107642724Y-89122055D01*
X107261772Y-89122055D02*
X107309391Y-89217293D01*
X107309391Y-89217293D02*
X107309391Y-89407769D01*
X107309391Y-89407769D02*
X107261772Y-89503007D01*
X107261772Y-89503007D02*
X107214153Y-89550626D01*
X107214153Y-89550626D02*
X107118915Y-89598245D01*
X107118915Y-89598245D02*
X106833201Y-89598245D01*
X106833201Y-89598245D02*
X106737963Y-89550626D01*
X106737963Y-89550626D02*
X106690344Y-89503007D01*
X106690344Y-89503007D02*
X106642724Y-89407769D01*
X106642724Y-89407769D02*
X106642724Y-89217293D01*
X106642724Y-89217293D02*
X106690344Y-89122055D01*
X106690344Y-90407769D02*
X106642724Y-90312531D01*
X106642724Y-90312531D02*
X106642724Y-90122055D01*
X106642724Y-90122055D02*
X106690344Y-90026817D01*
X106690344Y-90026817D02*
X106785582Y-89979198D01*
X106785582Y-89979198D02*
X107166534Y-89979198D01*
X107166534Y-89979198D02*
X107261772Y-90026817D01*
X107261772Y-90026817D02*
X107309391Y-90122055D01*
X107309391Y-90122055D02*
X107309391Y-90312531D01*
X107309391Y-90312531D02*
X107261772Y-90407769D01*
X107261772Y-90407769D02*
X107166534Y-90455388D01*
X107166534Y-90455388D02*
X107071296Y-90455388D01*
X107071296Y-90455388D02*
X106976058Y-89979198D01*
X106642724Y-90883960D02*
X107309391Y-90883960D01*
X107118915Y-90883960D02*
X107214153Y-90931579D01*
X107214153Y-90931579D02*
X107261772Y-90979198D01*
X107261772Y-90979198D02*
X107309391Y-91074436D01*
X107309391Y-91074436D02*
X107309391Y-91169674D01*
X106642724Y-91645865D02*
X106690344Y-91550627D01*
X106690344Y-91550627D02*
X106737963Y-91503008D01*
X106737963Y-91503008D02*
X106833201Y-91455389D01*
X106833201Y-91455389D02*
X107118915Y-91455389D01*
X107118915Y-91455389D02*
X107214153Y-91503008D01*
X107214153Y-91503008D02*
X107261772Y-91550627D01*
X107261772Y-91550627D02*
X107309391Y-91645865D01*
X107309391Y-91645865D02*
X107309391Y-91788722D01*
X107309391Y-91788722D02*
X107261772Y-91883960D01*
X107261772Y-91883960D02*
X107214153Y-91931579D01*
X107214153Y-91931579D02*
X107118915Y-91979198D01*
X107118915Y-91979198D02*
X106833201Y-91979198D01*
X106833201Y-91979198D02*
X106737963Y-91931579D01*
X106737963Y-91931579D02*
X106690344Y-91883960D01*
X106690344Y-91883960D02*
X106642724Y-91788722D01*
X106642724Y-91788722D02*
X106642724Y-91645865D01*
X106690344Y-92360151D02*
X106642724Y-92455389D01*
X106642724Y-92455389D02*
X106642724Y-92645865D01*
X106642724Y-92645865D02*
X106690344Y-92741103D01*
X106690344Y-92741103D02*
X106785582Y-92788722D01*
X106785582Y-92788722D02*
X106833201Y-92788722D01*
X106833201Y-92788722D02*
X106928439Y-92741103D01*
X106928439Y-92741103D02*
X106976058Y-92645865D01*
X106976058Y-92645865D02*
X106976058Y-92503008D01*
X106976058Y-92503008D02*
X107023677Y-92407770D01*
X107023677Y-92407770D02*
X107118915Y-92360151D01*
X107118915Y-92360151D02*
X107166534Y-92360151D01*
X107166534Y-92360151D02*
X107261772Y-92407770D01*
X107261772Y-92407770D02*
X107309391Y-92503008D01*
X107309391Y-92503008D02*
X107309391Y-92645865D01*
X107309391Y-92645865D02*
X107261772Y-92741103D01*
X105699447Y-76026816D02*
X105699447Y-76407768D01*
X106032780Y-76169673D02*
X105175638Y-76169673D01*
X105175638Y-76169673D02*
X105080400Y-76217292D01*
X105080400Y-76217292D02*
X105032780Y-76312530D01*
X105032780Y-76312530D02*
X105032780Y-76407768D01*
X105032780Y-77169673D02*
X105556590Y-77169673D01*
X105556590Y-77169673D02*
X105651828Y-77122054D01*
X105651828Y-77122054D02*
X105699447Y-77026816D01*
X105699447Y-77026816D02*
X105699447Y-76836340D01*
X105699447Y-76836340D02*
X105651828Y-76741102D01*
X105080400Y-77169673D02*
X105032780Y-77074435D01*
X105032780Y-77074435D02*
X105032780Y-76836340D01*
X105032780Y-76836340D02*
X105080400Y-76741102D01*
X105080400Y-76741102D02*
X105175638Y-76693483D01*
X105175638Y-76693483D02*
X105270876Y-76693483D01*
X105270876Y-76693483D02*
X105366114Y-76741102D01*
X105366114Y-76741102D02*
X105413733Y-76836340D01*
X105413733Y-76836340D02*
X105413733Y-77074435D01*
X105413733Y-77074435D02*
X105461352Y-77169673D01*
X105032780Y-77645864D02*
X106032780Y-77645864D01*
X105413733Y-77741102D02*
X105032780Y-78026816D01*
X105699447Y-78026816D02*
X105318495Y-77645864D01*
X105699447Y-78883959D02*
X105032780Y-78883959D01*
X105699447Y-78455388D02*
X105175638Y-78455388D01*
X105175638Y-78455388D02*
X105080400Y-78503007D01*
X105080400Y-78503007D02*
X105032780Y-78598245D01*
X105032780Y-78598245D02*
X105032780Y-78741102D01*
X105032780Y-78741102D02*
X105080400Y-78836340D01*
X105080400Y-78836340D02*
X105128019Y-78883959D01*
X105032780Y-79360150D02*
X105699447Y-79360150D01*
X105508971Y-79360150D02*
X105604209Y-79407769D01*
X105604209Y-79407769D02*
X105651828Y-79455388D01*
X105651828Y-79455388D02*
X105699447Y-79550626D01*
X105699447Y-79550626D02*
X105699447Y-79645864D01*
X105032780Y-79883960D02*
X105699447Y-80407769D01*
X105699447Y-79883960D02*
X105032780Y-80407769D01*
D11*
X139238095Y-75454819D02*
X139238095Y-76264342D01*
X139238095Y-76264342D02*
X139285714Y-76359580D01*
X139285714Y-76359580D02*
X139333333Y-76407200D01*
X139333333Y-76407200D02*
X139428571Y-76454819D01*
X139428571Y-76454819D02*
X139619047Y-76454819D01*
X139619047Y-76454819D02*
X139714285Y-76407200D01*
X139714285Y-76407200D02*
X139761904Y-76359580D01*
X139761904Y-76359580D02*
X139809523Y-76264342D01*
X139809523Y-76264342D02*
X139809523Y-75454819D01*
X140190476Y-75454819D02*
X140809523Y-75454819D01*
X140809523Y-75454819D02*
X140476190Y-75835771D01*
X140476190Y-75835771D02*
X140619047Y-75835771D01*
X140619047Y-75835771D02*
X140714285Y-75883390D01*
X140714285Y-75883390D02*
X140761904Y-75931009D01*
X140761904Y-75931009D02*
X140809523Y-76026247D01*
X140809523Y-76026247D02*
X140809523Y-76264342D01*
X140809523Y-76264342D02*
X140761904Y-76359580D01*
X140761904Y-76359580D02*
X140714285Y-76407200D01*
X140714285Y-76407200D02*
X140619047Y-76454819D01*
X140619047Y-76454819D02*
X140333333Y-76454819D01*
X140333333Y-76454819D02*
X140238095Y-76407200D01*
X140238095Y-76407200D02*
X140190476Y-76359580D01*
X138782329Y-122646623D02*
X138782329Y-122313290D01*
X139306139Y-122170433D02*
X139306139Y-122646623D01*
X139306139Y-122646623D02*
X138306139Y-122646623D01*
X138306139Y-122646623D02*
X138306139Y-122170433D01*
X139258520Y-121789480D02*
X139306139Y-121646623D01*
X139306139Y-121646623D02*
X139306139Y-121408528D01*
X139306139Y-121408528D02*
X139258520Y-121313290D01*
X139258520Y-121313290D02*
X139210900Y-121265671D01*
X139210900Y-121265671D02*
X139115662Y-121218052D01*
X139115662Y-121218052D02*
X139020424Y-121218052D01*
X139020424Y-121218052D02*
X138925186Y-121265671D01*
X138925186Y-121265671D02*
X138877567Y-121313290D01*
X138877567Y-121313290D02*
X138829948Y-121408528D01*
X138829948Y-121408528D02*
X138782329Y-121599004D01*
X138782329Y-121599004D02*
X138734710Y-121694242D01*
X138734710Y-121694242D02*
X138687091Y-121741861D01*
X138687091Y-121741861D02*
X138591853Y-121789480D01*
X138591853Y-121789480D02*
X138496615Y-121789480D01*
X138496615Y-121789480D02*
X138401377Y-121741861D01*
X138401377Y-121741861D02*
X138353758Y-121694242D01*
X138353758Y-121694242D02*
X138306139Y-121599004D01*
X138306139Y-121599004D02*
X138306139Y-121360909D01*
X138306139Y-121360909D02*
X138353758Y-121218052D01*
X139306139Y-120789480D02*
X138306139Y-120789480D01*
X138306139Y-120789480D02*
X138306139Y-120408528D01*
X138306139Y-120408528D02*
X138353758Y-120313290D01*
X138353758Y-120313290D02*
X138401377Y-120265671D01*
X138401377Y-120265671D02*
X138496615Y-120218052D01*
X138496615Y-120218052D02*
X138639472Y-120218052D01*
X138639472Y-120218052D02*
X138734710Y-120265671D01*
X138734710Y-120265671D02*
X138782329Y-120313290D01*
X138782329Y-120313290D02*
X138829948Y-120408528D01*
X138829948Y-120408528D02*
X138829948Y-120789480D01*
X138306139Y-119884718D02*
X138306139Y-119265671D01*
X138306139Y-119265671D02*
X138687091Y-119599004D01*
X138687091Y-119599004D02*
X138687091Y-119456147D01*
X138687091Y-119456147D02*
X138734710Y-119360909D01*
X138734710Y-119360909D02*
X138782329Y-119313290D01*
X138782329Y-119313290D02*
X138877567Y-119265671D01*
X138877567Y-119265671D02*
X139115662Y-119265671D01*
X139115662Y-119265671D02*
X139210900Y-119313290D01*
X139210900Y-119313290D02*
X139258520Y-119360909D01*
X139258520Y-119360909D02*
X139306139Y-119456147D01*
X139306139Y-119456147D02*
X139306139Y-119741861D01*
X139306139Y-119741861D02*
X139258520Y-119837099D01*
X139258520Y-119837099D02*
X139210900Y-119884718D01*
X138401377Y-118884718D02*
X138353758Y-118837099D01*
X138353758Y-118837099D02*
X138306139Y-118741861D01*
X138306139Y-118741861D02*
X138306139Y-118503766D01*
X138306139Y-118503766D02*
X138353758Y-118408528D01*
X138353758Y-118408528D02*
X138401377Y-118360909D01*
X138401377Y-118360909D02*
X138496615Y-118313290D01*
X138496615Y-118313290D02*
X138591853Y-118313290D01*
X138591853Y-118313290D02*
X138734710Y-118360909D01*
X138734710Y-118360909D02*
X139306139Y-118932337D01*
X139306139Y-118932337D02*
X139306139Y-118313290D01*
X138925186Y-117884718D02*
X138925186Y-117122814D01*
X139258520Y-116694242D02*
X139306139Y-116551385D01*
X139306139Y-116551385D02*
X139306139Y-116313290D01*
X139306139Y-116313290D02*
X139258520Y-116218052D01*
X139258520Y-116218052D02*
X139210900Y-116170433D01*
X139210900Y-116170433D02*
X139115662Y-116122814D01*
X139115662Y-116122814D02*
X139020424Y-116122814D01*
X139020424Y-116122814D02*
X138925186Y-116170433D01*
X138925186Y-116170433D02*
X138877567Y-116218052D01*
X138877567Y-116218052D02*
X138829948Y-116313290D01*
X138829948Y-116313290D02*
X138782329Y-116503766D01*
X138782329Y-116503766D02*
X138734710Y-116599004D01*
X138734710Y-116599004D02*
X138687091Y-116646623D01*
X138687091Y-116646623D02*
X138591853Y-116694242D01*
X138591853Y-116694242D02*
X138496615Y-116694242D01*
X138496615Y-116694242D02*
X138401377Y-116646623D01*
X138401377Y-116646623D02*
X138353758Y-116599004D01*
X138353758Y-116599004D02*
X138306139Y-116503766D01*
X138306139Y-116503766D02*
X138306139Y-116265671D01*
X138306139Y-116265671D02*
X138353758Y-116122814D01*
X138306139Y-115789480D02*
X138306139Y-115170433D01*
X138306139Y-115170433D02*
X138687091Y-115503766D01*
X138687091Y-115503766D02*
X138687091Y-115360909D01*
X138687091Y-115360909D02*
X138734710Y-115265671D01*
X138734710Y-115265671D02*
X138782329Y-115218052D01*
X138782329Y-115218052D02*
X138877567Y-115170433D01*
X138877567Y-115170433D02*
X139115662Y-115170433D01*
X139115662Y-115170433D02*
X139210900Y-115218052D01*
X139210900Y-115218052D02*
X139258520Y-115265671D01*
X139258520Y-115265671D02*
X139306139Y-115360909D01*
X139306139Y-115360909D02*
X139306139Y-115646623D01*
X139306139Y-115646623D02*
X139258520Y-115741861D01*
X139258520Y-115741861D02*
X139210900Y-115789480D01*
X138925186Y-114741861D02*
X138925186Y-113979957D01*
X139306139Y-113503766D02*
X138306139Y-113503766D01*
X138306139Y-113503766D02*
X138306139Y-113265671D01*
X138306139Y-113265671D02*
X138353758Y-113122814D01*
X138353758Y-113122814D02*
X138448996Y-113027576D01*
X138448996Y-113027576D02*
X138544234Y-112979957D01*
X138544234Y-112979957D02*
X138734710Y-112932338D01*
X138734710Y-112932338D02*
X138877567Y-112932338D01*
X138877567Y-112932338D02*
X139068043Y-112979957D01*
X139068043Y-112979957D02*
X139163281Y-113027576D01*
X139163281Y-113027576D02*
X139258520Y-113122814D01*
X139258520Y-113122814D02*
X139306139Y-113265671D01*
X139306139Y-113265671D02*
X139306139Y-113503766D01*
X139258520Y-112122814D02*
X139306139Y-112218052D01*
X139306139Y-112218052D02*
X139306139Y-112408528D01*
X139306139Y-112408528D02*
X139258520Y-112503766D01*
X139258520Y-112503766D02*
X139163281Y-112551385D01*
X139163281Y-112551385D02*
X138782329Y-112551385D01*
X138782329Y-112551385D02*
X138687091Y-112503766D01*
X138687091Y-112503766D02*
X138639472Y-112408528D01*
X138639472Y-112408528D02*
X138639472Y-112218052D01*
X138639472Y-112218052D02*
X138687091Y-112122814D01*
X138687091Y-112122814D02*
X138782329Y-112075195D01*
X138782329Y-112075195D02*
X138877567Y-112075195D01*
X138877567Y-112075195D02*
X138972805Y-112551385D01*
X138639472Y-111741861D02*
X139306139Y-111503766D01*
X139306139Y-111503766D02*
X138639472Y-111265671D01*
X139306139Y-110884718D02*
X138306139Y-110884718D01*
X139306139Y-110313290D02*
X138734710Y-110741861D01*
X138306139Y-110313290D02*
X138877567Y-110884718D01*
X139306139Y-109884718D02*
X138639472Y-109884718D01*
X138306139Y-109884718D02*
X138353758Y-109932337D01*
X138353758Y-109932337D02*
X138401377Y-109884718D01*
X138401377Y-109884718D02*
X138353758Y-109837099D01*
X138353758Y-109837099D02*
X138306139Y-109884718D01*
X138306139Y-109884718D02*
X138401377Y-109884718D01*
X138639472Y-109551385D02*
X138639472Y-109170433D01*
X138306139Y-109408528D02*
X139163281Y-109408528D01*
X139163281Y-109408528D02*
X139258520Y-109360909D01*
X139258520Y-109360909D02*
X139306139Y-109265671D01*
X139306139Y-109265671D02*
X139306139Y-109170433D01*
X139210900Y-108265671D02*
X139258520Y-108313290D01*
X139258520Y-108313290D02*
X139306139Y-108456147D01*
X139306139Y-108456147D02*
X139306139Y-108551385D01*
X139306139Y-108551385D02*
X139258520Y-108694242D01*
X139258520Y-108694242D02*
X139163281Y-108789480D01*
X139163281Y-108789480D02*
X139068043Y-108837099D01*
X139068043Y-108837099D02*
X138877567Y-108884718D01*
X138877567Y-108884718D02*
X138734710Y-108884718D01*
X138734710Y-108884718D02*
X138544234Y-108837099D01*
X138544234Y-108837099D02*
X138448996Y-108789480D01*
X138448996Y-108789480D02*
X138353758Y-108694242D01*
X138353758Y-108694242D02*
X138306139Y-108551385D01*
X138306139Y-108551385D02*
X138306139Y-108456147D01*
X138306139Y-108456147D02*
X138353758Y-108313290D01*
X138353758Y-108313290D02*
X138401377Y-108265671D01*
X138925186Y-107837099D02*
X138925186Y-107075195D01*
X138306139Y-106694242D02*
X138306139Y-106075195D01*
X138306139Y-106075195D02*
X138687091Y-106408528D01*
X138687091Y-106408528D02*
X138687091Y-106265671D01*
X138687091Y-106265671D02*
X138734710Y-106170433D01*
X138734710Y-106170433D02*
X138782329Y-106122814D01*
X138782329Y-106122814D02*
X138877567Y-106075195D01*
X138877567Y-106075195D02*
X139115662Y-106075195D01*
X139115662Y-106075195D02*
X139210900Y-106122814D01*
X139210900Y-106122814D02*
X139258520Y-106170433D01*
X139258520Y-106170433D02*
X139306139Y-106265671D01*
X139306139Y-106265671D02*
X139306139Y-106551385D01*
X139306139Y-106551385D02*
X139258520Y-106646623D01*
X139258520Y-106646623D02*
X139210900Y-106694242D01*
X139306139Y-105646623D02*
X138639472Y-105646623D01*
X138829948Y-105646623D02*
X138734710Y-105599004D01*
X138734710Y-105599004D02*
X138687091Y-105551385D01*
X138687091Y-105551385D02*
X138639472Y-105456147D01*
X138639472Y-105456147D02*
X138639472Y-105360909D01*
X139306139Y-104599004D02*
X138306139Y-104599004D01*
X139258520Y-104599004D02*
X139306139Y-104694242D01*
X139306139Y-104694242D02*
X139306139Y-104884718D01*
X139306139Y-104884718D02*
X139258520Y-104979956D01*
X139258520Y-104979956D02*
X139210900Y-105027575D01*
X139210900Y-105027575D02*
X139115662Y-105075194D01*
X139115662Y-105075194D02*
X138829948Y-105075194D01*
X138829948Y-105075194D02*
X138734710Y-105027575D01*
X138734710Y-105027575D02*
X138687091Y-104979956D01*
X138687091Y-104979956D02*
X138639472Y-104884718D01*
X138639472Y-104884718D02*
X138639472Y-104694242D01*
X138639472Y-104694242D02*
X138687091Y-104599004D01*
X138925186Y-104122813D02*
X138925186Y-103360909D01*
X138639472Y-102884718D02*
X139639472Y-102884718D01*
X138687091Y-102884718D02*
X138639472Y-102789480D01*
X138639472Y-102789480D02*
X138639472Y-102599004D01*
X138639472Y-102599004D02*
X138687091Y-102503766D01*
X138687091Y-102503766D02*
X138734710Y-102456147D01*
X138734710Y-102456147D02*
X138829948Y-102408528D01*
X138829948Y-102408528D02*
X139115662Y-102408528D01*
X139115662Y-102408528D02*
X139210900Y-102456147D01*
X139210900Y-102456147D02*
X139258520Y-102503766D01*
X139258520Y-102503766D02*
X139306139Y-102599004D01*
X139306139Y-102599004D02*
X139306139Y-102789480D01*
X139306139Y-102789480D02*
X139258520Y-102884718D01*
X139306139Y-101551385D02*
X138782329Y-101551385D01*
X138782329Y-101551385D02*
X138687091Y-101599004D01*
X138687091Y-101599004D02*
X138639472Y-101694242D01*
X138639472Y-101694242D02*
X138639472Y-101884718D01*
X138639472Y-101884718D02*
X138687091Y-101979956D01*
X139258520Y-101551385D02*
X139306139Y-101646623D01*
X139306139Y-101646623D02*
X139306139Y-101884718D01*
X139306139Y-101884718D02*
X139258520Y-101979956D01*
X139258520Y-101979956D02*
X139163281Y-102027575D01*
X139163281Y-102027575D02*
X139068043Y-102027575D01*
X139068043Y-102027575D02*
X138972805Y-101979956D01*
X138972805Y-101979956D02*
X138925186Y-101884718D01*
X138925186Y-101884718D02*
X138925186Y-101646623D01*
X138925186Y-101646623D02*
X138877567Y-101551385D01*
X139306139Y-101075194D02*
X138639472Y-101075194D01*
X138829948Y-101075194D02*
X138734710Y-101027575D01*
X138734710Y-101027575D02*
X138687091Y-100979956D01*
X138687091Y-100979956D02*
X138639472Y-100884718D01*
X138639472Y-100884718D02*
X138639472Y-100789480D01*
X138639472Y-100599003D02*
X138639472Y-100218051D01*
X138306139Y-100456146D02*
X139163281Y-100456146D01*
X139163281Y-100456146D02*
X139258520Y-100408527D01*
X139258520Y-100408527D02*
X139306139Y-100313289D01*
X139306139Y-100313289D02*
X139306139Y-100218051D01*
X138639472Y-99979955D02*
X139306139Y-99741860D01*
X138639472Y-99503765D02*
X139306139Y-99741860D01*
X139306139Y-99741860D02*
X139544234Y-99837098D01*
X139544234Y-99837098D02*
X139591853Y-99884717D01*
X139591853Y-99884717D02*
X139639472Y-99979955D01*
X138925186Y-99122812D02*
X138925186Y-98360908D01*
X138306139Y-97408527D02*
X138306139Y-97884717D01*
X138306139Y-97884717D02*
X138782329Y-97932336D01*
X138782329Y-97932336D02*
X138734710Y-97884717D01*
X138734710Y-97884717D02*
X138687091Y-97789479D01*
X138687091Y-97789479D02*
X138687091Y-97551384D01*
X138687091Y-97551384D02*
X138734710Y-97456146D01*
X138734710Y-97456146D02*
X138782329Y-97408527D01*
X138782329Y-97408527D02*
X138877567Y-97360908D01*
X138877567Y-97360908D02*
X139115662Y-97360908D01*
X139115662Y-97360908D02*
X139210900Y-97408527D01*
X139210900Y-97408527D02*
X139258520Y-97456146D01*
X139258520Y-97456146D02*
X139306139Y-97551384D01*
X139306139Y-97551384D02*
X139306139Y-97789479D01*
X139306139Y-97789479D02*
X139258520Y-97884717D01*
X139258520Y-97884717D02*
X139210900Y-97932336D01*
X138306139Y-97027574D02*
X138306139Y-96360908D01*
X138306139Y-96360908D02*
X139306139Y-96789479D01*
X139306139Y-95456146D02*
X139306139Y-96027574D01*
X139306139Y-95741860D02*
X138306139Y-95741860D01*
X138306139Y-95741860D02*
X138448996Y-95837098D01*
X138448996Y-95837098D02*
X138544234Y-95932336D01*
X138544234Y-95932336D02*
X138591853Y-96027574D01*
X138306139Y-94551384D02*
X138306139Y-95027574D01*
X138306139Y-95027574D02*
X138782329Y-95075193D01*
X138782329Y-95075193D02*
X138734710Y-95027574D01*
X138734710Y-95027574D02*
X138687091Y-94932336D01*
X138687091Y-94932336D02*
X138687091Y-94694241D01*
X138687091Y-94694241D02*
X138734710Y-94599003D01*
X138734710Y-94599003D02*
X138782329Y-94551384D01*
X138782329Y-94551384D02*
X138877567Y-94503765D01*
X138877567Y-94503765D02*
X139115662Y-94503765D01*
X139115662Y-94503765D02*
X139210900Y-94551384D01*
X139210900Y-94551384D02*
X139258520Y-94599003D01*
X139258520Y-94599003D02*
X139306139Y-94694241D01*
X139306139Y-94694241D02*
X139306139Y-94932336D01*
X139306139Y-94932336D02*
X139258520Y-95027574D01*
X139258520Y-95027574D02*
X139210900Y-95075193D01*
X139306139Y-94170431D02*
X138639472Y-93646622D01*
X138639472Y-94170431D02*
X139306139Y-93646622D01*
X138401377Y-93313288D02*
X138353758Y-93265669D01*
X138353758Y-93265669D02*
X138306139Y-93170431D01*
X138306139Y-93170431D02*
X138306139Y-92932336D01*
X138306139Y-92932336D02*
X138353758Y-92837098D01*
X138353758Y-92837098D02*
X138401377Y-92789479D01*
X138401377Y-92789479D02*
X138496615Y-92741860D01*
X138496615Y-92741860D02*
X138591853Y-92741860D01*
X138591853Y-92741860D02*
X138734710Y-92789479D01*
X138734710Y-92789479D02*
X139306139Y-93360907D01*
X139306139Y-93360907D02*
X139306139Y-92741860D01*
X138306139Y-92408526D02*
X138306139Y-91741860D01*
X138306139Y-91741860D02*
X139306139Y-92170431D01*
X139306139Y-91313288D02*
X139306139Y-91122812D01*
X139306139Y-91122812D02*
X139258520Y-91027574D01*
X139258520Y-91027574D02*
X139210900Y-90979955D01*
X139210900Y-90979955D02*
X139068043Y-90884717D01*
X139068043Y-90884717D02*
X138877567Y-90837098D01*
X138877567Y-90837098D02*
X138496615Y-90837098D01*
X138496615Y-90837098D02*
X138401377Y-90884717D01*
X138401377Y-90884717D02*
X138353758Y-90932336D01*
X138353758Y-90932336D02*
X138306139Y-91027574D01*
X138306139Y-91027574D02*
X138306139Y-91218050D01*
X138306139Y-91218050D02*
X138353758Y-91313288D01*
X138353758Y-91313288D02*
X138401377Y-91360907D01*
X138401377Y-91360907D02*
X138496615Y-91408526D01*
X138496615Y-91408526D02*
X138734710Y-91408526D01*
X138734710Y-91408526D02*
X138829948Y-91360907D01*
X138829948Y-91360907D02*
X138877567Y-91313288D01*
X138877567Y-91313288D02*
X138925186Y-91218050D01*
X138925186Y-91218050D02*
X138925186Y-91027574D01*
X138925186Y-91027574D02*
X138877567Y-90932336D01*
X138877567Y-90932336D02*
X138829948Y-90884717D01*
X138829948Y-90884717D02*
X138734710Y-90837098D01*
X138639472Y-89979955D02*
X139306139Y-89979955D01*
X138258520Y-90218050D02*
X138972805Y-90456145D01*
X138972805Y-90456145D02*
X138972805Y-89837098D01*
X128936541Y-78823019D02*
X129555588Y-78823019D01*
X129555588Y-78823019D02*
X129222255Y-79203971D01*
X129222255Y-79203971D02*
X129365112Y-79203971D01*
X129365112Y-79203971D02*
X129460350Y-79251590D01*
X129460350Y-79251590D02*
X129507969Y-79299209D01*
X129507969Y-79299209D02*
X129555588Y-79394447D01*
X129555588Y-79394447D02*
X129555588Y-79632542D01*
X129555588Y-79632542D02*
X129507969Y-79727780D01*
X129507969Y-79727780D02*
X129460350Y-79775400D01*
X129460350Y-79775400D02*
X129365112Y-79823019D01*
X129365112Y-79823019D02*
X129079398Y-79823019D01*
X129079398Y-79823019D02*
X128984160Y-79775400D01*
X128984160Y-79775400D02*
X128936541Y-79727780D01*
X129841303Y-78823019D02*
X130174636Y-79823019D01*
X130174636Y-79823019D02*
X130507969Y-78823019D01*
X130746065Y-78823019D02*
X131365112Y-78823019D01*
X131365112Y-78823019D02*
X131031779Y-79203971D01*
X131031779Y-79203971D02*
X131174636Y-79203971D01*
X131174636Y-79203971D02*
X131269874Y-79251590D01*
X131269874Y-79251590D02*
X131317493Y-79299209D01*
X131317493Y-79299209D02*
X131365112Y-79394447D01*
X131365112Y-79394447D02*
X131365112Y-79632542D01*
X131365112Y-79632542D02*
X131317493Y-79727780D01*
X131317493Y-79727780D02*
X131269874Y-79775400D01*
X131269874Y-79775400D02*
X131174636Y-79823019D01*
X131174636Y-79823019D02*
X130888922Y-79823019D01*
X130888922Y-79823019D02*
X130793684Y-79775400D01*
X130793684Y-79775400D02*
X130746065Y-79727780D01*
X146389649Y-101730638D02*
X146294411Y-101683019D01*
X146294411Y-101683019D02*
X146151554Y-101683019D01*
X146151554Y-101683019D02*
X146008697Y-101730638D01*
X146008697Y-101730638D02*
X145913459Y-101825876D01*
X145913459Y-101825876D02*
X145865840Y-101921114D01*
X145865840Y-101921114D02*
X145818221Y-102111590D01*
X145818221Y-102111590D02*
X145818221Y-102254447D01*
X145818221Y-102254447D02*
X145865840Y-102444923D01*
X145865840Y-102444923D02*
X145913459Y-102540161D01*
X145913459Y-102540161D02*
X146008697Y-102635400D01*
X146008697Y-102635400D02*
X146151554Y-102683019D01*
X146151554Y-102683019D02*
X146246792Y-102683019D01*
X146246792Y-102683019D02*
X146389649Y-102635400D01*
X146389649Y-102635400D02*
X146437268Y-102587780D01*
X146437268Y-102587780D02*
X146437268Y-102254447D01*
X146437268Y-102254447D02*
X146246792Y-102254447D01*
X146865840Y-102683019D02*
X146865840Y-101683019D01*
X146865840Y-101683019D02*
X147246792Y-101683019D01*
X147246792Y-101683019D02*
X147342030Y-101730638D01*
X147342030Y-101730638D02*
X147389649Y-101778257D01*
X147389649Y-101778257D02*
X147437268Y-101873495D01*
X147437268Y-101873495D02*
X147437268Y-102016352D01*
X147437268Y-102016352D02*
X147389649Y-102111590D01*
X147389649Y-102111590D02*
X147342030Y-102159209D01*
X147342030Y-102159209D02*
X147246792Y-102206828D01*
X147246792Y-102206828D02*
X146865840Y-102206828D01*
X147865840Y-102683019D02*
X147865840Y-101683019D01*
X148532506Y-101683019D02*
X148722982Y-101683019D01*
X148722982Y-101683019D02*
X148818220Y-101730638D01*
X148818220Y-101730638D02*
X148913458Y-101825876D01*
X148913458Y-101825876D02*
X148961077Y-102016352D01*
X148961077Y-102016352D02*
X148961077Y-102349685D01*
X148961077Y-102349685D02*
X148913458Y-102540161D01*
X148913458Y-102540161D02*
X148818220Y-102635400D01*
X148818220Y-102635400D02*
X148722982Y-102683019D01*
X148722982Y-102683019D02*
X148532506Y-102683019D01*
X148532506Y-102683019D02*
X148437268Y-102635400D01*
X148437268Y-102635400D02*
X148342030Y-102540161D01*
X148342030Y-102540161D02*
X148294411Y-102349685D01*
X148294411Y-102349685D02*
X148294411Y-102016352D01*
X148294411Y-102016352D02*
X148342030Y-101825876D01*
X148342030Y-101825876D02*
X148437268Y-101730638D01*
X148437268Y-101730638D02*
X148532506Y-101683019D01*
X149294411Y-101683019D02*
X149913458Y-101683019D01*
X149913458Y-101683019D02*
X149580125Y-102063971D01*
X149580125Y-102063971D02*
X149722982Y-102063971D01*
X149722982Y-102063971D02*
X149818220Y-102111590D01*
X149818220Y-102111590D02*
X149865839Y-102159209D01*
X149865839Y-102159209D02*
X149913458Y-102254447D01*
X149913458Y-102254447D02*
X149913458Y-102492542D01*
X149913458Y-102492542D02*
X149865839Y-102587780D01*
X149865839Y-102587780D02*
X149818220Y-102635400D01*
X149818220Y-102635400D02*
X149722982Y-102683019D01*
X149722982Y-102683019D02*
X149437268Y-102683019D01*
X149437268Y-102683019D02*
X149342030Y-102635400D01*
X149342030Y-102635400D02*
X149294411Y-102587780D01*
X150246792Y-101683019D02*
X150913458Y-101683019D01*
X150913458Y-101683019D02*
X150484887Y-102683019D01*
X129805908Y-129667918D02*
X129710670Y-129620299D01*
X129710670Y-129620299D02*
X129567813Y-129620299D01*
X129567813Y-129620299D02*
X129424956Y-129667918D01*
X129424956Y-129667918D02*
X129329718Y-129763156D01*
X129329718Y-129763156D02*
X129282099Y-129858394D01*
X129282099Y-129858394D02*
X129234480Y-130048870D01*
X129234480Y-130048870D02*
X129234480Y-130191727D01*
X129234480Y-130191727D02*
X129282099Y-130382203D01*
X129282099Y-130382203D02*
X129329718Y-130477441D01*
X129329718Y-130477441D02*
X129424956Y-130572680D01*
X129424956Y-130572680D02*
X129567813Y-130620299D01*
X129567813Y-130620299D02*
X129663051Y-130620299D01*
X129663051Y-130620299D02*
X129805908Y-130572680D01*
X129805908Y-130572680D02*
X129853527Y-130525060D01*
X129853527Y-130525060D02*
X129853527Y-130191727D01*
X129853527Y-130191727D02*
X129663051Y-130191727D01*
X130282099Y-130620299D02*
X130282099Y-129620299D01*
X130282099Y-129620299D02*
X130853527Y-130620299D01*
X130853527Y-130620299D02*
X130853527Y-129620299D01*
X131329718Y-130620299D02*
X131329718Y-129620299D01*
X131329718Y-129620299D02*
X131567813Y-129620299D01*
X131567813Y-129620299D02*
X131710670Y-129667918D01*
X131710670Y-129667918D02*
X131805908Y-129763156D01*
X131805908Y-129763156D02*
X131853527Y-129858394D01*
X131853527Y-129858394D02*
X131901146Y-130048870D01*
X131901146Y-130048870D02*
X131901146Y-130191727D01*
X131901146Y-130191727D02*
X131853527Y-130382203D01*
X131853527Y-130382203D02*
X131805908Y-130477441D01*
X131805908Y-130477441D02*
X131710670Y-130572680D01*
X131710670Y-130572680D02*
X131567813Y-130620299D01*
X131567813Y-130620299D02*
X131329718Y-130620299D01*
X146389649Y-119510638D02*
X146294411Y-119463019D01*
X146294411Y-119463019D02*
X146151554Y-119463019D01*
X146151554Y-119463019D02*
X146008697Y-119510638D01*
X146008697Y-119510638D02*
X145913459Y-119605876D01*
X145913459Y-119605876D02*
X145865840Y-119701114D01*
X145865840Y-119701114D02*
X145818221Y-119891590D01*
X145818221Y-119891590D02*
X145818221Y-120034447D01*
X145818221Y-120034447D02*
X145865840Y-120224923D01*
X145865840Y-120224923D02*
X145913459Y-120320161D01*
X145913459Y-120320161D02*
X146008697Y-120415400D01*
X146008697Y-120415400D02*
X146151554Y-120463019D01*
X146151554Y-120463019D02*
X146246792Y-120463019D01*
X146246792Y-120463019D02*
X146389649Y-120415400D01*
X146389649Y-120415400D02*
X146437268Y-120367780D01*
X146437268Y-120367780D02*
X146437268Y-120034447D01*
X146437268Y-120034447D02*
X146246792Y-120034447D01*
X146865840Y-120463019D02*
X146865840Y-119463019D01*
X146865840Y-119463019D02*
X147246792Y-119463019D01*
X147246792Y-119463019D02*
X147342030Y-119510638D01*
X147342030Y-119510638D02*
X147389649Y-119558257D01*
X147389649Y-119558257D02*
X147437268Y-119653495D01*
X147437268Y-119653495D02*
X147437268Y-119796352D01*
X147437268Y-119796352D02*
X147389649Y-119891590D01*
X147389649Y-119891590D02*
X147342030Y-119939209D01*
X147342030Y-119939209D02*
X147246792Y-119986828D01*
X147246792Y-119986828D02*
X146865840Y-119986828D01*
X147865840Y-120463019D02*
X147865840Y-119463019D01*
X148532506Y-119463019D02*
X148722982Y-119463019D01*
X148722982Y-119463019D02*
X148818220Y-119510638D01*
X148818220Y-119510638D02*
X148913458Y-119605876D01*
X148913458Y-119605876D02*
X148961077Y-119796352D01*
X148961077Y-119796352D02*
X148961077Y-120129685D01*
X148961077Y-120129685D02*
X148913458Y-120320161D01*
X148913458Y-120320161D02*
X148818220Y-120415400D01*
X148818220Y-120415400D02*
X148722982Y-120463019D01*
X148722982Y-120463019D02*
X148532506Y-120463019D01*
X148532506Y-120463019D02*
X148437268Y-120415400D01*
X148437268Y-120415400D02*
X148342030Y-120320161D01*
X148342030Y-120320161D02*
X148294411Y-120129685D01*
X148294411Y-120129685D02*
X148294411Y-119796352D01*
X148294411Y-119796352D02*
X148342030Y-119605876D01*
X148342030Y-119605876D02*
X148437268Y-119510638D01*
X148437268Y-119510638D02*
X148532506Y-119463019D01*
X149342030Y-119558257D02*
X149389649Y-119510638D01*
X149389649Y-119510638D02*
X149484887Y-119463019D01*
X149484887Y-119463019D02*
X149722982Y-119463019D01*
X149722982Y-119463019D02*
X149818220Y-119510638D01*
X149818220Y-119510638D02*
X149865839Y-119558257D01*
X149865839Y-119558257D02*
X149913458Y-119653495D01*
X149913458Y-119653495D02*
X149913458Y-119748733D01*
X149913458Y-119748733D02*
X149865839Y-119891590D01*
X149865839Y-119891590D02*
X149294411Y-120463019D01*
X149294411Y-120463019D02*
X149913458Y-120463019D01*
X150865839Y-120463019D02*
X150294411Y-120463019D01*
X150580125Y-120463019D02*
X150580125Y-119463019D01*
X150580125Y-119463019D02*
X150484887Y-119605876D01*
X150484887Y-119605876D02*
X150389649Y-119701114D01*
X150389649Y-119701114D02*
X150294411Y-119748733D01*
X129555588Y-83950638D02*
X129460350Y-83903019D01*
X129460350Y-83903019D02*
X129317493Y-83903019D01*
X129317493Y-83903019D02*
X129174636Y-83950638D01*
X129174636Y-83950638D02*
X129079398Y-84045876D01*
X129079398Y-84045876D02*
X129031779Y-84141114D01*
X129031779Y-84141114D02*
X128984160Y-84331590D01*
X128984160Y-84331590D02*
X128984160Y-84474447D01*
X128984160Y-84474447D02*
X129031779Y-84664923D01*
X129031779Y-84664923D02*
X129079398Y-84760161D01*
X129079398Y-84760161D02*
X129174636Y-84855400D01*
X129174636Y-84855400D02*
X129317493Y-84903019D01*
X129317493Y-84903019D02*
X129412731Y-84903019D01*
X129412731Y-84903019D02*
X129555588Y-84855400D01*
X129555588Y-84855400D02*
X129603207Y-84807780D01*
X129603207Y-84807780D02*
X129603207Y-84474447D01*
X129603207Y-84474447D02*
X129412731Y-84474447D01*
X130031779Y-84903019D02*
X130031779Y-83903019D01*
X130031779Y-83903019D02*
X130412731Y-83903019D01*
X130412731Y-83903019D02*
X130507969Y-83950638D01*
X130507969Y-83950638D02*
X130555588Y-83998257D01*
X130555588Y-83998257D02*
X130603207Y-84093495D01*
X130603207Y-84093495D02*
X130603207Y-84236352D01*
X130603207Y-84236352D02*
X130555588Y-84331590D01*
X130555588Y-84331590D02*
X130507969Y-84379209D01*
X130507969Y-84379209D02*
X130412731Y-84426828D01*
X130412731Y-84426828D02*
X130031779Y-84426828D01*
X131031779Y-84903019D02*
X131031779Y-83903019D01*
X131698445Y-83903019D02*
X131888921Y-83903019D01*
X131888921Y-83903019D02*
X131984159Y-83950638D01*
X131984159Y-83950638D02*
X132079397Y-84045876D01*
X132079397Y-84045876D02*
X132127016Y-84236352D01*
X132127016Y-84236352D02*
X132127016Y-84569685D01*
X132127016Y-84569685D02*
X132079397Y-84760161D01*
X132079397Y-84760161D02*
X131984159Y-84855400D01*
X131984159Y-84855400D02*
X131888921Y-84903019D01*
X131888921Y-84903019D02*
X131698445Y-84903019D01*
X131698445Y-84903019D02*
X131603207Y-84855400D01*
X131603207Y-84855400D02*
X131507969Y-84760161D01*
X131507969Y-84760161D02*
X131460350Y-84569685D01*
X131460350Y-84569685D02*
X131460350Y-84236352D01*
X131460350Y-84236352D02*
X131507969Y-84045876D01*
X131507969Y-84045876D02*
X131603207Y-83950638D01*
X131603207Y-83950638D02*
X131698445Y-83903019D01*
X132984159Y-84236352D02*
X132984159Y-84903019D01*
X132746064Y-83855400D02*
X132507969Y-84569685D01*
X132507969Y-84569685D02*
X133127016Y-84569685D01*
X129555588Y-122050638D02*
X129460350Y-122003019D01*
X129460350Y-122003019D02*
X129317493Y-122003019D01*
X129317493Y-122003019D02*
X129174636Y-122050638D01*
X129174636Y-122050638D02*
X129079398Y-122145876D01*
X129079398Y-122145876D02*
X129031779Y-122241114D01*
X129031779Y-122241114D02*
X128984160Y-122431590D01*
X128984160Y-122431590D02*
X128984160Y-122574447D01*
X128984160Y-122574447D02*
X129031779Y-122764923D01*
X129031779Y-122764923D02*
X129079398Y-122860161D01*
X129079398Y-122860161D02*
X129174636Y-122955400D01*
X129174636Y-122955400D02*
X129317493Y-123003019D01*
X129317493Y-123003019D02*
X129412731Y-123003019D01*
X129412731Y-123003019D02*
X129555588Y-122955400D01*
X129555588Y-122955400D02*
X129603207Y-122907780D01*
X129603207Y-122907780D02*
X129603207Y-122574447D01*
X129603207Y-122574447D02*
X129412731Y-122574447D01*
X130031779Y-123003019D02*
X130031779Y-122003019D01*
X130031779Y-122003019D02*
X130412731Y-122003019D01*
X130412731Y-122003019D02*
X130507969Y-122050638D01*
X130507969Y-122050638D02*
X130555588Y-122098257D01*
X130555588Y-122098257D02*
X130603207Y-122193495D01*
X130603207Y-122193495D02*
X130603207Y-122336352D01*
X130603207Y-122336352D02*
X130555588Y-122431590D01*
X130555588Y-122431590D02*
X130507969Y-122479209D01*
X130507969Y-122479209D02*
X130412731Y-122526828D01*
X130412731Y-122526828D02*
X130031779Y-122526828D01*
X131031779Y-123003019D02*
X131031779Y-122003019D01*
X131698445Y-122003019D02*
X131888921Y-122003019D01*
X131888921Y-122003019D02*
X131984159Y-122050638D01*
X131984159Y-122050638D02*
X132079397Y-122145876D01*
X132079397Y-122145876D02*
X132127016Y-122336352D01*
X132127016Y-122336352D02*
X132127016Y-122669685D01*
X132127016Y-122669685D02*
X132079397Y-122860161D01*
X132079397Y-122860161D02*
X131984159Y-122955400D01*
X131984159Y-122955400D02*
X131888921Y-123003019D01*
X131888921Y-123003019D02*
X131698445Y-123003019D01*
X131698445Y-123003019D02*
X131603207Y-122955400D01*
X131603207Y-122955400D02*
X131507969Y-122860161D01*
X131507969Y-122860161D02*
X131460350Y-122669685D01*
X131460350Y-122669685D02*
X131460350Y-122336352D01*
X131460350Y-122336352D02*
X131507969Y-122145876D01*
X131507969Y-122145876D02*
X131603207Y-122050638D01*
X131603207Y-122050638D02*
X131698445Y-122003019D01*
X133079397Y-123003019D02*
X132507969Y-123003019D01*
X132793683Y-123003019D02*
X132793683Y-122003019D01*
X132793683Y-122003019D02*
X132698445Y-122145876D01*
X132698445Y-122145876D02*
X132603207Y-122241114D01*
X132603207Y-122241114D02*
X132507969Y-122288733D01*
X133412731Y-122003019D02*
X134031778Y-122003019D01*
X134031778Y-122003019D02*
X133698445Y-122383971D01*
X133698445Y-122383971D02*
X133841302Y-122383971D01*
X133841302Y-122383971D02*
X133936540Y-122431590D01*
X133936540Y-122431590D02*
X133984159Y-122479209D01*
X133984159Y-122479209D02*
X134031778Y-122574447D01*
X134031778Y-122574447D02*
X134031778Y-122812542D01*
X134031778Y-122812542D02*
X133984159Y-122907780D01*
X133984159Y-122907780D02*
X133936540Y-122955400D01*
X133936540Y-122955400D02*
X133841302Y-123003019D01*
X133841302Y-123003019D02*
X133555588Y-123003019D01*
X133555588Y-123003019D02*
X133460350Y-122955400D01*
X133460350Y-122955400D02*
X133412731Y-122907780D01*
X129555588Y-86490638D02*
X129460350Y-86443019D01*
X129460350Y-86443019D02*
X129317493Y-86443019D01*
X129317493Y-86443019D02*
X129174636Y-86490638D01*
X129174636Y-86490638D02*
X129079398Y-86585876D01*
X129079398Y-86585876D02*
X129031779Y-86681114D01*
X129031779Y-86681114D02*
X128984160Y-86871590D01*
X128984160Y-86871590D02*
X128984160Y-87014447D01*
X128984160Y-87014447D02*
X129031779Y-87204923D01*
X129031779Y-87204923D02*
X129079398Y-87300161D01*
X129079398Y-87300161D02*
X129174636Y-87395400D01*
X129174636Y-87395400D02*
X129317493Y-87443019D01*
X129317493Y-87443019D02*
X129412731Y-87443019D01*
X129412731Y-87443019D02*
X129555588Y-87395400D01*
X129555588Y-87395400D02*
X129603207Y-87347780D01*
X129603207Y-87347780D02*
X129603207Y-87014447D01*
X129603207Y-87014447D02*
X129412731Y-87014447D01*
X130031779Y-87443019D02*
X130031779Y-86443019D01*
X130031779Y-86443019D02*
X130412731Y-86443019D01*
X130412731Y-86443019D02*
X130507969Y-86490638D01*
X130507969Y-86490638D02*
X130555588Y-86538257D01*
X130555588Y-86538257D02*
X130603207Y-86633495D01*
X130603207Y-86633495D02*
X130603207Y-86776352D01*
X130603207Y-86776352D02*
X130555588Y-86871590D01*
X130555588Y-86871590D02*
X130507969Y-86919209D01*
X130507969Y-86919209D02*
X130412731Y-86966828D01*
X130412731Y-86966828D02*
X130031779Y-86966828D01*
X131031779Y-87443019D02*
X131031779Y-86443019D01*
X131698445Y-86443019D02*
X131888921Y-86443019D01*
X131888921Y-86443019D02*
X131984159Y-86490638D01*
X131984159Y-86490638D02*
X132079397Y-86585876D01*
X132079397Y-86585876D02*
X132127016Y-86776352D01*
X132127016Y-86776352D02*
X132127016Y-87109685D01*
X132127016Y-87109685D02*
X132079397Y-87300161D01*
X132079397Y-87300161D02*
X131984159Y-87395400D01*
X131984159Y-87395400D02*
X131888921Y-87443019D01*
X131888921Y-87443019D02*
X131698445Y-87443019D01*
X131698445Y-87443019D02*
X131603207Y-87395400D01*
X131603207Y-87395400D02*
X131507969Y-87300161D01*
X131507969Y-87300161D02*
X131460350Y-87109685D01*
X131460350Y-87109685D02*
X131460350Y-86776352D01*
X131460350Y-86776352D02*
X131507969Y-86585876D01*
X131507969Y-86585876D02*
X131603207Y-86490638D01*
X131603207Y-86490638D02*
X131698445Y-86443019D01*
X133031778Y-86443019D02*
X132555588Y-86443019D01*
X132555588Y-86443019D02*
X132507969Y-86919209D01*
X132507969Y-86919209D02*
X132555588Y-86871590D01*
X132555588Y-86871590D02*
X132650826Y-86823971D01*
X132650826Y-86823971D02*
X132888921Y-86823971D01*
X132888921Y-86823971D02*
X132984159Y-86871590D01*
X132984159Y-86871590D02*
X133031778Y-86919209D01*
X133031778Y-86919209D02*
X133079397Y-87014447D01*
X133079397Y-87014447D02*
X133079397Y-87252542D01*
X133079397Y-87252542D02*
X133031778Y-87347780D01*
X133031778Y-87347780D02*
X132984159Y-87395400D01*
X132984159Y-87395400D02*
X132888921Y-87443019D01*
X132888921Y-87443019D02*
X132650826Y-87443019D01*
X132650826Y-87443019D02*
X132555588Y-87395400D01*
X132555588Y-87395400D02*
X132507969Y-87347780D01*
X146389649Y-124590638D02*
X146294411Y-124543019D01*
X146294411Y-124543019D02*
X146151554Y-124543019D01*
X146151554Y-124543019D02*
X146008697Y-124590638D01*
X146008697Y-124590638D02*
X145913459Y-124685876D01*
X145913459Y-124685876D02*
X145865840Y-124781114D01*
X145865840Y-124781114D02*
X145818221Y-124971590D01*
X145818221Y-124971590D02*
X145818221Y-125114447D01*
X145818221Y-125114447D02*
X145865840Y-125304923D01*
X145865840Y-125304923D02*
X145913459Y-125400161D01*
X145913459Y-125400161D02*
X146008697Y-125495400D01*
X146008697Y-125495400D02*
X146151554Y-125543019D01*
X146151554Y-125543019D02*
X146246792Y-125543019D01*
X146246792Y-125543019D02*
X146389649Y-125495400D01*
X146389649Y-125495400D02*
X146437268Y-125447780D01*
X146437268Y-125447780D02*
X146437268Y-125114447D01*
X146437268Y-125114447D02*
X146246792Y-125114447D01*
X146865840Y-125543019D02*
X146865840Y-124543019D01*
X146865840Y-124543019D02*
X147246792Y-124543019D01*
X147246792Y-124543019D02*
X147342030Y-124590638D01*
X147342030Y-124590638D02*
X147389649Y-124638257D01*
X147389649Y-124638257D02*
X147437268Y-124733495D01*
X147437268Y-124733495D02*
X147437268Y-124876352D01*
X147437268Y-124876352D02*
X147389649Y-124971590D01*
X147389649Y-124971590D02*
X147342030Y-125019209D01*
X147342030Y-125019209D02*
X147246792Y-125066828D01*
X147246792Y-125066828D02*
X146865840Y-125066828D01*
X147865840Y-125543019D02*
X147865840Y-124543019D01*
X148532506Y-124543019D02*
X148722982Y-124543019D01*
X148722982Y-124543019D02*
X148818220Y-124590638D01*
X148818220Y-124590638D02*
X148913458Y-124685876D01*
X148913458Y-124685876D02*
X148961077Y-124876352D01*
X148961077Y-124876352D02*
X148961077Y-125209685D01*
X148961077Y-125209685D02*
X148913458Y-125400161D01*
X148913458Y-125400161D02*
X148818220Y-125495400D01*
X148818220Y-125495400D02*
X148722982Y-125543019D01*
X148722982Y-125543019D02*
X148532506Y-125543019D01*
X148532506Y-125543019D02*
X148437268Y-125495400D01*
X148437268Y-125495400D02*
X148342030Y-125400161D01*
X148342030Y-125400161D02*
X148294411Y-125209685D01*
X148294411Y-125209685D02*
X148294411Y-124876352D01*
X148294411Y-124876352D02*
X148342030Y-124685876D01*
X148342030Y-124685876D02*
X148437268Y-124590638D01*
X148437268Y-124590638D02*
X148532506Y-124543019D01*
X149913458Y-125543019D02*
X149342030Y-125543019D01*
X149627744Y-125543019D02*
X149627744Y-124543019D01*
X149627744Y-124543019D02*
X149532506Y-124685876D01*
X149532506Y-124685876D02*
X149437268Y-124781114D01*
X149437268Y-124781114D02*
X149342030Y-124828733D01*
X150389649Y-125543019D02*
X150580125Y-125543019D01*
X150580125Y-125543019D02*
X150675363Y-125495400D01*
X150675363Y-125495400D02*
X150722982Y-125447780D01*
X150722982Y-125447780D02*
X150818220Y-125304923D01*
X150818220Y-125304923D02*
X150865839Y-125114447D01*
X150865839Y-125114447D02*
X150865839Y-124733495D01*
X150865839Y-124733495D02*
X150818220Y-124638257D01*
X150818220Y-124638257D02*
X150770601Y-124590638D01*
X150770601Y-124590638D02*
X150675363Y-124543019D01*
X150675363Y-124543019D02*
X150484887Y-124543019D01*
X150484887Y-124543019D02*
X150389649Y-124590638D01*
X150389649Y-124590638D02*
X150342030Y-124638257D01*
X150342030Y-124638257D02*
X150294411Y-124733495D01*
X150294411Y-124733495D02*
X150294411Y-124971590D01*
X150294411Y-124971590D02*
X150342030Y-125066828D01*
X150342030Y-125066828D02*
X150389649Y-125114447D01*
X150389649Y-125114447D02*
X150484887Y-125162066D01*
X150484887Y-125162066D02*
X150675363Y-125162066D01*
X150675363Y-125162066D02*
X150770601Y-125114447D01*
X150770601Y-125114447D02*
X150818220Y-125066828D01*
X150818220Y-125066828D02*
X150865839Y-124971590D01*
X129555588Y-111890638D02*
X129460350Y-111843019D01*
X129460350Y-111843019D02*
X129317493Y-111843019D01*
X129317493Y-111843019D02*
X129174636Y-111890638D01*
X129174636Y-111890638D02*
X129079398Y-111985876D01*
X129079398Y-111985876D02*
X129031779Y-112081114D01*
X129031779Y-112081114D02*
X128984160Y-112271590D01*
X128984160Y-112271590D02*
X128984160Y-112414447D01*
X128984160Y-112414447D02*
X129031779Y-112604923D01*
X129031779Y-112604923D02*
X129079398Y-112700161D01*
X129079398Y-112700161D02*
X129174636Y-112795400D01*
X129174636Y-112795400D02*
X129317493Y-112843019D01*
X129317493Y-112843019D02*
X129412731Y-112843019D01*
X129412731Y-112843019D02*
X129555588Y-112795400D01*
X129555588Y-112795400D02*
X129603207Y-112747780D01*
X129603207Y-112747780D02*
X129603207Y-112414447D01*
X129603207Y-112414447D02*
X129412731Y-112414447D01*
X130031779Y-112843019D02*
X130031779Y-111843019D01*
X130031779Y-111843019D02*
X130412731Y-111843019D01*
X130412731Y-111843019D02*
X130507969Y-111890638D01*
X130507969Y-111890638D02*
X130555588Y-111938257D01*
X130555588Y-111938257D02*
X130603207Y-112033495D01*
X130603207Y-112033495D02*
X130603207Y-112176352D01*
X130603207Y-112176352D02*
X130555588Y-112271590D01*
X130555588Y-112271590D02*
X130507969Y-112319209D01*
X130507969Y-112319209D02*
X130412731Y-112366828D01*
X130412731Y-112366828D02*
X130031779Y-112366828D01*
X131031779Y-112843019D02*
X131031779Y-111843019D01*
X131698445Y-111843019D02*
X131888921Y-111843019D01*
X131888921Y-111843019D02*
X131984159Y-111890638D01*
X131984159Y-111890638D02*
X132079397Y-111985876D01*
X132079397Y-111985876D02*
X132127016Y-112176352D01*
X132127016Y-112176352D02*
X132127016Y-112509685D01*
X132127016Y-112509685D02*
X132079397Y-112700161D01*
X132079397Y-112700161D02*
X131984159Y-112795400D01*
X131984159Y-112795400D02*
X131888921Y-112843019D01*
X131888921Y-112843019D02*
X131698445Y-112843019D01*
X131698445Y-112843019D02*
X131603207Y-112795400D01*
X131603207Y-112795400D02*
X131507969Y-112700161D01*
X131507969Y-112700161D02*
X131460350Y-112509685D01*
X131460350Y-112509685D02*
X131460350Y-112176352D01*
X131460350Y-112176352D02*
X131507969Y-111985876D01*
X131507969Y-111985876D02*
X131603207Y-111890638D01*
X131603207Y-111890638D02*
X131698445Y-111843019D01*
X132603207Y-112843019D02*
X132793683Y-112843019D01*
X132793683Y-112843019D02*
X132888921Y-112795400D01*
X132888921Y-112795400D02*
X132936540Y-112747780D01*
X132936540Y-112747780D02*
X133031778Y-112604923D01*
X133031778Y-112604923D02*
X133079397Y-112414447D01*
X133079397Y-112414447D02*
X133079397Y-112033495D01*
X133079397Y-112033495D02*
X133031778Y-111938257D01*
X133031778Y-111938257D02*
X132984159Y-111890638D01*
X132984159Y-111890638D02*
X132888921Y-111843019D01*
X132888921Y-111843019D02*
X132698445Y-111843019D01*
X132698445Y-111843019D02*
X132603207Y-111890638D01*
X132603207Y-111890638D02*
X132555588Y-111938257D01*
X132555588Y-111938257D02*
X132507969Y-112033495D01*
X132507969Y-112033495D02*
X132507969Y-112271590D01*
X132507969Y-112271590D02*
X132555588Y-112366828D01*
X132555588Y-112366828D02*
X132603207Y-112414447D01*
X132603207Y-112414447D02*
X132698445Y-112462066D01*
X132698445Y-112462066D02*
X132888921Y-112462066D01*
X132888921Y-112462066D02*
X132984159Y-112414447D01*
X132984159Y-112414447D02*
X133031778Y-112366828D01*
X133031778Y-112366828D02*
X133079397Y-112271590D01*
X146389649Y-116970638D02*
X146294411Y-116923019D01*
X146294411Y-116923019D02*
X146151554Y-116923019D01*
X146151554Y-116923019D02*
X146008697Y-116970638D01*
X146008697Y-116970638D02*
X145913459Y-117065876D01*
X145913459Y-117065876D02*
X145865840Y-117161114D01*
X145865840Y-117161114D02*
X145818221Y-117351590D01*
X145818221Y-117351590D02*
X145818221Y-117494447D01*
X145818221Y-117494447D02*
X145865840Y-117684923D01*
X145865840Y-117684923D02*
X145913459Y-117780161D01*
X145913459Y-117780161D02*
X146008697Y-117875400D01*
X146008697Y-117875400D02*
X146151554Y-117923019D01*
X146151554Y-117923019D02*
X146246792Y-117923019D01*
X146246792Y-117923019D02*
X146389649Y-117875400D01*
X146389649Y-117875400D02*
X146437268Y-117827780D01*
X146437268Y-117827780D02*
X146437268Y-117494447D01*
X146437268Y-117494447D02*
X146246792Y-117494447D01*
X146865840Y-117923019D02*
X146865840Y-116923019D01*
X146865840Y-116923019D02*
X147246792Y-116923019D01*
X147246792Y-116923019D02*
X147342030Y-116970638D01*
X147342030Y-116970638D02*
X147389649Y-117018257D01*
X147389649Y-117018257D02*
X147437268Y-117113495D01*
X147437268Y-117113495D02*
X147437268Y-117256352D01*
X147437268Y-117256352D02*
X147389649Y-117351590D01*
X147389649Y-117351590D02*
X147342030Y-117399209D01*
X147342030Y-117399209D02*
X147246792Y-117446828D01*
X147246792Y-117446828D02*
X146865840Y-117446828D01*
X147865840Y-117923019D02*
X147865840Y-116923019D01*
X148532506Y-116923019D02*
X148722982Y-116923019D01*
X148722982Y-116923019D02*
X148818220Y-116970638D01*
X148818220Y-116970638D02*
X148913458Y-117065876D01*
X148913458Y-117065876D02*
X148961077Y-117256352D01*
X148961077Y-117256352D02*
X148961077Y-117589685D01*
X148961077Y-117589685D02*
X148913458Y-117780161D01*
X148913458Y-117780161D02*
X148818220Y-117875400D01*
X148818220Y-117875400D02*
X148722982Y-117923019D01*
X148722982Y-117923019D02*
X148532506Y-117923019D01*
X148532506Y-117923019D02*
X148437268Y-117875400D01*
X148437268Y-117875400D02*
X148342030Y-117780161D01*
X148342030Y-117780161D02*
X148294411Y-117589685D01*
X148294411Y-117589685D02*
X148294411Y-117256352D01*
X148294411Y-117256352D02*
X148342030Y-117065876D01*
X148342030Y-117065876D02*
X148437268Y-116970638D01*
X148437268Y-116970638D02*
X148532506Y-116923019D01*
X149818220Y-117256352D02*
X149818220Y-117923019D01*
X149580125Y-116875400D02*
X149342030Y-117589685D01*
X149342030Y-117589685D02*
X149961077Y-117589685D01*
X150246792Y-116923019D02*
X150913458Y-116923019D01*
X150913458Y-116923019D02*
X150484887Y-117923019D01*
X129555588Y-124590638D02*
X129460350Y-124543019D01*
X129460350Y-124543019D02*
X129317493Y-124543019D01*
X129317493Y-124543019D02*
X129174636Y-124590638D01*
X129174636Y-124590638D02*
X129079398Y-124685876D01*
X129079398Y-124685876D02*
X129031779Y-124781114D01*
X129031779Y-124781114D02*
X128984160Y-124971590D01*
X128984160Y-124971590D02*
X128984160Y-125114447D01*
X128984160Y-125114447D02*
X129031779Y-125304923D01*
X129031779Y-125304923D02*
X129079398Y-125400161D01*
X129079398Y-125400161D02*
X129174636Y-125495400D01*
X129174636Y-125495400D02*
X129317493Y-125543019D01*
X129317493Y-125543019D02*
X129412731Y-125543019D01*
X129412731Y-125543019D02*
X129555588Y-125495400D01*
X129555588Y-125495400D02*
X129603207Y-125447780D01*
X129603207Y-125447780D02*
X129603207Y-125114447D01*
X129603207Y-125114447D02*
X129412731Y-125114447D01*
X130031779Y-125543019D02*
X130031779Y-124543019D01*
X130031779Y-124543019D02*
X130412731Y-124543019D01*
X130412731Y-124543019D02*
X130507969Y-124590638D01*
X130507969Y-124590638D02*
X130555588Y-124638257D01*
X130555588Y-124638257D02*
X130603207Y-124733495D01*
X130603207Y-124733495D02*
X130603207Y-124876352D01*
X130603207Y-124876352D02*
X130555588Y-124971590D01*
X130555588Y-124971590D02*
X130507969Y-125019209D01*
X130507969Y-125019209D02*
X130412731Y-125066828D01*
X130412731Y-125066828D02*
X130031779Y-125066828D01*
X131031779Y-125543019D02*
X131031779Y-124543019D01*
X131698445Y-124543019D02*
X131888921Y-124543019D01*
X131888921Y-124543019D02*
X131984159Y-124590638D01*
X131984159Y-124590638D02*
X132079397Y-124685876D01*
X132079397Y-124685876D02*
X132127016Y-124876352D01*
X132127016Y-124876352D02*
X132127016Y-125209685D01*
X132127016Y-125209685D02*
X132079397Y-125400161D01*
X132079397Y-125400161D02*
X131984159Y-125495400D01*
X131984159Y-125495400D02*
X131888921Y-125543019D01*
X131888921Y-125543019D02*
X131698445Y-125543019D01*
X131698445Y-125543019D02*
X131603207Y-125495400D01*
X131603207Y-125495400D02*
X131507969Y-125400161D01*
X131507969Y-125400161D02*
X131460350Y-125209685D01*
X131460350Y-125209685D02*
X131460350Y-124876352D01*
X131460350Y-124876352D02*
X131507969Y-124685876D01*
X131507969Y-124685876D02*
X131603207Y-124590638D01*
X131603207Y-124590638D02*
X131698445Y-124543019D01*
X133079397Y-125543019D02*
X132507969Y-125543019D01*
X132793683Y-125543019D02*
X132793683Y-124543019D01*
X132793683Y-124543019D02*
X132698445Y-124685876D01*
X132698445Y-124685876D02*
X132603207Y-124781114D01*
X132603207Y-124781114D02*
X132507969Y-124828733D01*
X133936540Y-124876352D02*
X133936540Y-125543019D01*
X133698445Y-124495400D02*
X133460350Y-125209685D01*
X133460350Y-125209685D02*
X134079397Y-125209685D01*
X141389649Y-94110638D02*
X141294411Y-94063019D01*
X141294411Y-94063019D02*
X141151554Y-94063019D01*
X141151554Y-94063019D02*
X141008697Y-94110638D01*
X141008697Y-94110638D02*
X140913459Y-94205876D01*
X140913459Y-94205876D02*
X140865840Y-94301114D01*
X140865840Y-94301114D02*
X140818221Y-94491590D01*
X140818221Y-94491590D02*
X140818221Y-94634447D01*
X140818221Y-94634447D02*
X140865840Y-94824923D01*
X140865840Y-94824923D02*
X140913459Y-94920161D01*
X140913459Y-94920161D02*
X141008697Y-95015400D01*
X141008697Y-95015400D02*
X141151554Y-95063019D01*
X141151554Y-95063019D02*
X141246792Y-95063019D01*
X141246792Y-95063019D02*
X141389649Y-95015400D01*
X141389649Y-95015400D02*
X141437268Y-94967780D01*
X141437268Y-94967780D02*
X141437268Y-94634447D01*
X141437268Y-94634447D02*
X141246792Y-94634447D01*
X141865840Y-95063019D02*
X141865840Y-94063019D01*
X141865840Y-94063019D02*
X142246792Y-94063019D01*
X142246792Y-94063019D02*
X142342030Y-94110638D01*
X142342030Y-94110638D02*
X142389649Y-94158257D01*
X142389649Y-94158257D02*
X142437268Y-94253495D01*
X142437268Y-94253495D02*
X142437268Y-94396352D01*
X142437268Y-94396352D02*
X142389649Y-94491590D01*
X142389649Y-94491590D02*
X142342030Y-94539209D01*
X142342030Y-94539209D02*
X142246792Y-94586828D01*
X142246792Y-94586828D02*
X141865840Y-94586828D01*
X142865840Y-95063019D02*
X142865840Y-94063019D01*
X143532506Y-94063019D02*
X143722982Y-94063019D01*
X143722982Y-94063019D02*
X143818220Y-94110638D01*
X143818220Y-94110638D02*
X143913458Y-94205876D01*
X143913458Y-94205876D02*
X143961077Y-94396352D01*
X143961077Y-94396352D02*
X143961077Y-94729685D01*
X143961077Y-94729685D02*
X143913458Y-94920161D01*
X143913458Y-94920161D02*
X143818220Y-95015400D01*
X143818220Y-95015400D02*
X143722982Y-95063019D01*
X143722982Y-95063019D02*
X143532506Y-95063019D01*
X143532506Y-95063019D02*
X143437268Y-95015400D01*
X143437268Y-95015400D02*
X143342030Y-94920161D01*
X143342030Y-94920161D02*
X143294411Y-94729685D01*
X143294411Y-94729685D02*
X143294411Y-94396352D01*
X143294411Y-94396352D02*
X143342030Y-94205876D01*
X143342030Y-94205876D02*
X143437268Y-94110638D01*
X143437268Y-94110638D02*
X143532506Y-94063019D01*
X144818220Y-94396352D02*
X144818220Y-95063019D01*
X144580125Y-94015400D02*
X144342030Y-94729685D01*
X144342030Y-94729685D02*
X144961077Y-94729685D01*
X145532506Y-94063019D02*
X145627744Y-94063019D01*
X145627744Y-94063019D02*
X145722982Y-94110638D01*
X145722982Y-94110638D02*
X145770601Y-94158257D01*
X145770601Y-94158257D02*
X145818220Y-94253495D01*
X145818220Y-94253495D02*
X145865839Y-94443971D01*
X145865839Y-94443971D02*
X145865839Y-94682066D01*
X145865839Y-94682066D02*
X145818220Y-94872542D01*
X145818220Y-94872542D02*
X145770601Y-94967780D01*
X145770601Y-94967780D02*
X145722982Y-95015400D01*
X145722982Y-95015400D02*
X145627744Y-95063019D01*
X145627744Y-95063019D02*
X145532506Y-95063019D01*
X145532506Y-95063019D02*
X145437268Y-95015400D01*
X145437268Y-95015400D02*
X145389649Y-94967780D01*
X145389649Y-94967780D02*
X145342030Y-94872542D01*
X145342030Y-94872542D02*
X145294411Y-94682066D01*
X145294411Y-94682066D02*
X145294411Y-94443971D01*
X145294411Y-94443971D02*
X145342030Y-94253495D01*
X145342030Y-94253495D02*
X145389649Y-94158257D01*
X145389649Y-94158257D02*
X145437268Y-94110638D01*
X145437268Y-94110638D02*
X145532506Y-94063019D01*
X147008696Y-94015400D02*
X146151554Y-95301114D01*
X147342030Y-95063019D02*
X147342030Y-94063019D01*
X147342030Y-94063019D02*
X147675363Y-94777304D01*
X147675363Y-94777304D02*
X148008696Y-94063019D01*
X148008696Y-94063019D02*
X148008696Y-95063019D01*
X148342030Y-94063019D02*
X148913458Y-94063019D01*
X148627744Y-95063019D02*
X148627744Y-94063019D01*
X149246792Y-95063019D02*
X149246792Y-94063019D01*
X149246792Y-94063019D02*
X149484887Y-94063019D01*
X149484887Y-94063019D02*
X149627744Y-94110638D01*
X149627744Y-94110638D02*
X149722982Y-94205876D01*
X149722982Y-94205876D02*
X149770601Y-94301114D01*
X149770601Y-94301114D02*
X149818220Y-94491590D01*
X149818220Y-94491590D02*
X149818220Y-94634447D01*
X149818220Y-94634447D02*
X149770601Y-94824923D01*
X149770601Y-94824923D02*
X149722982Y-94920161D01*
X149722982Y-94920161D02*
X149627744Y-95015400D01*
X149627744Y-95015400D02*
X149484887Y-95063019D01*
X149484887Y-95063019D02*
X149246792Y-95063019D01*
X150437268Y-94063019D02*
X150627744Y-94063019D01*
X150627744Y-94063019D02*
X150722982Y-94110638D01*
X150722982Y-94110638D02*
X150818220Y-94205876D01*
X150818220Y-94205876D02*
X150865839Y-94396352D01*
X150865839Y-94396352D02*
X150865839Y-94729685D01*
X150865839Y-94729685D02*
X150818220Y-94920161D01*
X150818220Y-94920161D02*
X150722982Y-95015400D01*
X150722982Y-95015400D02*
X150627744Y-95063019D01*
X150627744Y-95063019D02*
X150437268Y-95063019D01*
X150437268Y-95063019D02*
X150342030Y-95015400D01*
X150342030Y-95015400D02*
X150246792Y-94920161D01*
X150246792Y-94920161D02*
X150199173Y-94729685D01*
X150199173Y-94729685D02*
X150199173Y-94396352D01*
X150199173Y-94396352D02*
X150246792Y-94205876D01*
X150246792Y-94205876D02*
X150342030Y-94110638D01*
X150342030Y-94110638D02*
X150437268Y-94063019D01*
X129555588Y-91570638D02*
X129460350Y-91523019D01*
X129460350Y-91523019D02*
X129317493Y-91523019D01*
X129317493Y-91523019D02*
X129174636Y-91570638D01*
X129174636Y-91570638D02*
X129079398Y-91665876D01*
X129079398Y-91665876D02*
X129031779Y-91761114D01*
X129031779Y-91761114D02*
X128984160Y-91951590D01*
X128984160Y-91951590D02*
X128984160Y-92094447D01*
X128984160Y-92094447D02*
X129031779Y-92284923D01*
X129031779Y-92284923D02*
X129079398Y-92380161D01*
X129079398Y-92380161D02*
X129174636Y-92475400D01*
X129174636Y-92475400D02*
X129317493Y-92523019D01*
X129317493Y-92523019D02*
X129412731Y-92523019D01*
X129412731Y-92523019D02*
X129555588Y-92475400D01*
X129555588Y-92475400D02*
X129603207Y-92427780D01*
X129603207Y-92427780D02*
X129603207Y-92094447D01*
X129603207Y-92094447D02*
X129412731Y-92094447D01*
X130031779Y-92523019D02*
X130031779Y-91523019D01*
X130031779Y-91523019D02*
X130412731Y-91523019D01*
X130412731Y-91523019D02*
X130507969Y-91570638D01*
X130507969Y-91570638D02*
X130555588Y-91618257D01*
X130555588Y-91618257D02*
X130603207Y-91713495D01*
X130603207Y-91713495D02*
X130603207Y-91856352D01*
X130603207Y-91856352D02*
X130555588Y-91951590D01*
X130555588Y-91951590D02*
X130507969Y-91999209D01*
X130507969Y-91999209D02*
X130412731Y-92046828D01*
X130412731Y-92046828D02*
X130031779Y-92046828D01*
X131031779Y-92523019D02*
X131031779Y-91523019D01*
X131698445Y-91523019D02*
X131888921Y-91523019D01*
X131888921Y-91523019D02*
X131984159Y-91570638D01*
X131984159Y-91570638D02*
X132079397Y-91665876D01*
X132079397Y-91665876D02*
X132127016Y-91856352D01*
X132127016Y-91856352D02*
X132127016Y-92189685D01*
X132127016Y-92189685D02*
X132079397Y-92380161D01*
X132079397Y-92380161D02*
X131984159Y-92475400D01*
X131984159Y-92475400D02*
X131888921Y-92523019D01*
X131888921Y-92523019D02*
X131698445Y-92523019D01*
X131698445Y-92523019D02*
X131603207Y-92475400D01*
X131603207Y-92475400D02*
X131507969Y-92380161D01*
X131507969Y-92380161D02*
X131460350Y-92189685D01*
X131460350Y-92189685D02*
X131460350Y-91856352D01*
X131460350Y-91856352D02*
X131507969Y-91665876D01*
X131507969Y-91665876D02*
X131603207Y-91570638D01*
X131603207Y-91570638D02*
X131698445Y-91523019D01*
X132460350Y-91523019D02*
X133127016Y-91523019D01*
X133127016Y-91523019D02*
X132698445Y-92523019D01*
X129555588Y-116970638D02*
X129460350Y-116923019D01*
X129460350Y-116923019D02*
X129317493Y-116923019D01*
X129317493Y-116923019D02*
X129174636Y-116970638D01*
X129174636Y-116970638D02*
X129079398Y-117065876D01*
X129079398Y-117065876D02*
X129031779Y-117161114D01*
X129031779Y-117161114D02*
X128984160Y-117351590D01*
X128984160Y-117351590D02*
X128984160Y-117494447D01*
X128984160Y-117494447D02*
X129031779Y-117684923D01*
X129031779Y-117684923D02*
X129079398Y-117780161D01*
X129079398Y-117780161D02*
X129174636Y-117875400D01*
X129174636Y-117875400D02*
X129317493Y-117923019D01*
X129317493Y-117923019D02*
X129412731Y-117923019D01*
X129412731Y-117923019D02*
X129555588Y-117875400D01*
X129555588Y-117875400D02*
X129603207Y-117827780D01*
X129603207Y-117827780D02*
X129603207Y-117494447D01*
X129603207Y-117494447D02*
X129412731Y-117494447D01*
X130031779Y-117923019D02*
X130031779Y-116923019D01*
X130031779Y-116923019D02*
X130412731Y-116923019D01*
X130412731Y-116923019D02*
X130507969Y-116970638D01*
X130507969Y-116970638D02*
X130555588Y-117018257D01*
X130555588Y-117018257D02*
X130603207Y-117113495D01*
X130603207Y-117113495D02*
X130603207Y-117256352D01*
X130603207Y-117256352D02*
X130555588Y-117351590D01*
X130555588Y-117351590D02*
X130507969Y-117399209D01*
X130507969Y-117399209D02*
X130412731Y-117446828D01*
X130412731Y-117446828D02*
X130031779Y-117446828D01*
X131031779Y-117923019D02*
X131031779Y-116923019D01*
X131698445Y-116923019D02*
X131888921Y-116923019D01*
X131888921Y-116923019D02*
X131984159Y-116970638D01*
X131984159Y-116970638D02*
X132079397Y-117065876D01*
X132079397Y-117065876D02*
X132127016Y-117256352D01*
X132127016Y-117256352D02*
X132127016Y-117589685D01*
X132127016Y-117589685D02*
X132079397Y-117780161D01*
X132079397Y-117780161D02*
X131984159Y-117875400D01*
X131984159Y-117875400D02*
X131888921Y-117923019D01*
X131888921Y-117923019D02*
X131698445Y-117923019D01*
X131698445Y-117923019D02*
X131603207Y-117875400D01*
X131603207Y-117875400D02*
X131507969Y-117780161D01*
X131507969Y-117780161D02*
X131460350Y-117589685D01*
X131460350Y-117589685D02*
X131460350Y-117256352D01*
X131460350Y-117256352D02*
X131507969Y-117065876D01*
X131507969Y-117065876D02*
X131603207Y-116970638D01*
X131603207Y-116970638D02*
X131698445Y-116923019D01*
X133079397Y-117923019D02*
X132507969Y-117923019D01*
X132793683Y-117923019D02*
X132793683Y-116923019D01*
X132793683Y-116923019D02*
X132698445Y-117065876D01*
X132698445Y-117065876D02*
X132603207Y-117161114D01*
X132603207Y-117161114D02*
X132507969Y-117208733D01*
X134031778Y-117923019D02*
X133460350Y-117923019D01*
X133746064Y-117923019D02*
X133746064Y-116923019D01*
X133746064Y-116923019D02*
X133650826Y-117065876D01*
X133650826Y-117065876D02*
X133555588Y-117161114D01*
X133555588Y-117161114D02*
X133460350Y-117208733D01*
X129555588Y-109350638D02*
X129460350Y-109303019D01*
X129460350Y-109303019D02*
X129317493Y-109303019D01*
X129317493Y-109303019D02*
X129174636Y-109350638D01*
X129174636Y-109350638D02*
X129079398Y-109445876D01*
X129079398Y-109445876D02*
X129031779Y-109541114D01*
X129031779Y-109541114D02*
X128984160Y-109731590D01*
X128984160Y-109731590D02*
X128984160Y-109874447D01*
X128984160Y-109874447D02*
X129031779Y-110064923D01*
X129031779Y-110064923D02*
X129079398Y-110160161D01*
X129079398Y-110160161D02*
X129174636Y-110255400D01*
X129174636Y-110255400D02*
X129317493Y-110303019D01*
X129317493Y-110303019D02*
X129412731Y-110303019D01*
X129412731Y-110303019D02*
X129555588Y-110255400D01*
X129555588Y-110255400D02*
X129603207Y-110207780D01*
X129603207Y-110207780D02*
X129603207Y-109874447D01*
X129603207Y-109874447D02*
X129412731Y-109874447D01*
X130031779Y-110303019D02*
X130031779Y-109303019D01*
X130031779Y-109303019D02*
X130412731Y-109303019D01*
X130412731Y-109303019D02*
X130507969Y-109350638D01*
X130507969Y-109350638D02*
X130555588Y-109398257D01*
X130555588Y-109398257D02*
X130603207Y-109493495D01*
X130603207Y-109493495D02*
X130603207Y-109636352D01*
X130603207Y-109636352D02*
X130555588Y-109731590D01*
X130555588Y-109731590D02*
X130507969Y-109779209D01*
X130507969Y-109779209D02*
X130412731Y-109826828D01*
X130412731Y-109826828D02*
X130031779Y-109826828D01*
X131031779Y-110303019D02*
X131031779Y-109303019D01*
X131698445Y-109303019D02*
X131888921Y-109303019D01*
X131888921Y-109303019D02*
X131984159Y-109350638D01*
X131984159Y-109350638D02*
X132079397Y-109445876D01*
X132079397Y-109445876D02*
X132127016Y-109636352D01*
X132127016Y-109636352D02*
X132127016Y-109969685D01*
X132127016Y-109969685D02*
X132079397Y-110160161D01*
X132079397Y-110160161D02*
X131984159Y-110255400D01*
X131984159Y-110255400D02*
X131888921Y-110303019D01*
X131888921Y-110303019D02*
X131698445Y-110303019D01*
X131698445Y-110303019D02*
X131603207Y-110255400D01*
X131603207Y-110255400D02*
X131507969Y-110160161D01*
X131507969Y-110160161D02*
X131460350Y-109969685D01*
X131460350Y-109969685D02*
X131460350Y-109636352D01*
X131460350Y-109636352D02*
X131507969Y-109445876D01*
X131507969Y-109445876D02*
X131603207Y-109350638D01*
X131603207Y-109350638D02*
X131698445Y-109303019D01*
X132984159Y-109636352D02*
X132984159Y-110303019D01*
X132746064Y-109255400D02*
X132507969Y-109969685D01*
X132507969Y-109969685D02*
X133127016Y-109969685D01*
X133936540Y-109303019D02*
X133746064Y-109303019D01*
X133746064Y-109303019D02*
X133650826Y-109350638D01*
X133650826Y-109350638D02*
X133603207Y-109398257D01*
X133603207Y-109398257D02*
X133507969Y-109541114D01*
X133507969Y-109541114D02*
X133460350Y-109731590D01*
X133460350Y-109731590D02*
X133460350Y-110112542D01*
X133460350Y-110112542D02*
X133507969Y-110207780D01*
X133507969Y-110207780D02*
X133555588Y-110255400D01*
X133555588Y-110255400D02*
X133650826Y-110303019D01*
X133650826Y-110303019D02*
X133841302Y-110303019D01*
X133841302Y-110303019D02*
X133936540Y-110255400D01*
X133936540Y-110255400D02*
X133984159Y-110207780D01*
X133984159Y-110207780D02*
X134031778Y-110112542D01*
X134031778Y-110112542D02*
X134031778Y-109874447D01*
X134031778Y-109874447D02*
X133984159Y-109779209D01*
X133984159Y-109779209D02*
X133936540Y-109731590D01*
X133936540Y-109731590D02*
X133841302Y-109683971D01*
X133841302Y-109683971D02*
X133650826Y-109683971D01*
X133650826Y-109683971D02*
X133555588Y-109731590D01*
X133555588Y-109731590D02*
X133507969Y-109779209D01*
X133507969Y-109779209D02*
X133460350Y-109874447D01*
X129555588Y-119510638D02*
X129460350Y-119463019D01*
X129460350Y-119463019D02*
X129317493Y-119463019D01*
X129317493Y-119463019D02*
X129174636Y-119510638D01*
X129174636Y-119510638D02*
X129079398Y-119605876D01*
X129079398Y-119605876D02*
X129031779Y-119701114D01*
X129031779Y-119701114D02*
X128984160Y-119891590D01*
X128984160Y-119891590D02*
X128984160Y-120034447D01*
X128984160Y-120034447D02*
X129031779Y-120224923D01*
X129031779Y-120224923D02*
X129079398Y-120320161D01*
X129079398Y-120320161D02*
X129174636Y-120415400D01*
X129174636Y-120415400D02*
X129317493Y-120463019D01*
X129317493Y-120463019D02*
X129412731Y-120463019D01*
X129412731Y-120463019D02*
X129555588Y-120415400D01*
X129555588Y-120415400D02*
X129603207Y-120367780D01*
X129603207Y-120367780D02*
X129603207Y-120034447D01*
X129603207Y-120034447D02*
X129412731Y-120034447D01*
X130031779Y-120463019D02*
X130031779Y-119463019D01*
X130031779Y-119463019D02*
X130412731Y-119463019D01*
X130412731Y-119463019D02*
X130507969Y-119510638D01*
X130507969Y-119510638D02*
X130555588Y-119558257D01*
X130555588Y-119558257D02*
X130603207Y-119653495D01*
X130603207Y-119653495D02*
X130603207Y-119796352D01*
X130603207Y-119796352D02*
X130555588Y-119891590D01*
X130555588Y-119891590D02*
X130507969Y-119939209D01*
X130507969Y-119939209D02*
X130412731Y-119986828D01*
X130412731Y-119986828D02*
X130031779Y-119986828D01*
X131031779Y-120463019D02*
X131031779Y-119463019D01*
X131698445Y-119463019D02*
X131888921Y-119463019D01*
X131888921Y-119463019D02*
X131984159Y-119510638D01*
X131984159Y-119510638D02*
X132079397Y-119605876D01*
X132079397Y-119605876D02*
X132127016Y-119796352D01*
X132127016Y-119796352D02*
X132127016Y-120129685D01*
X132127016Y-120129685D02*
X132079397Y-120320161D01*
X132079397Y-120320161D02*
X131984159Y-120415400D01*
X131984159Y-120415400D02*
X131888921Y-120463019D01*
X131888921Y-120463019D02*
X131698445Y-120463019D01*
X131698445Y-120463019D02*
X131603207Y-120415400D01*
X131603207Y-120415400D02*
X131507969Y-120320161D01*
X131507969Y-120320161D02*
X131460350Y-120129685D01*
X131460350Y-120129685D02*
X131460350Y-119796352D01*
X131460350Y-119796352D02*
X131507969Y-119605876D01*
X131507969Y-119605876D02*
X131603207Y-119510638D01*
X131603207Y-119510638D02*
X131698445Y-119463019D01*
X133079397Y-120463019D02*
X132507969Y-120463019D01*
X132793683Y-120463019D02*
X132793683Y-119463019D01*
X132793683Y-119463019D02*
X132698445Y-119605876D01*
X132698445Y-119605876D02*
X132603207Y-119701114D01*
X132603207Y-119701114D02*
X132507969Y-119748733D01*
X133460350Y-119558257D02*
X133507969Y-119510638D01*
X133507969Y-119510638D02*
X133603207Y-119463019D01*
X133603207Y-119463019D02*
X133841302Y-119463019D01*
X133841302Y-119463019D02*
X133936540Y-119510638D01*
X133936540Y-119510638D02*
X133984159Y-119558257D01*
X133984159Y-119558257D02*
X134031778Y-119653495D01*
X134031778Y-119653495D02*
X134031778Y-119748733D01*
X134031778Y-119748733D02*
X133984159Y-119891590D01*
X133984159Y-119891590D02*
X133412731Y-120463019D01*
X133412731Y-120463019D02*
X134031778Y-120463019D01*
X129555588Y-99190638D02*
X129460350Y-99143019D01*
X129460350Y-99143019D02*
X129317493Y-99143019D01*
X129317493Y-99143019D02*
X129174636Y-99190638D01*
X129174636Y-99190638D02*
X129079398Y-99285876D01*
X129079398Y-99285876D02*
X129031779Y-99381114D01*
X129031779Y-99381114D02*
X128984160Y-99571590D01*
X128984160Y-99571590D02*
X128984160Y-99714447D01*
X128984160Y-99714447D02*
X129031779Y-99904923D01*
X129031779Y-99904923D02*
X129079398Y-100000161D01*
X129079398Y-100000161D02*
X129174636Y-100095400D01*
X129174636Y-100095400D02*
X129317493Y-100143019D01*
X129317493Y-100143019D02*
X129412731Y-100143019D01*
X129412731Y-100143019D02*
X129555588Y-100095400D01*
X129555588Y-100095400D02*
X129603207Y-100047780D01*
X129603207Y-100047780D02*
X129603207Y-99714447D01*
X129603207Y-99714447D02*
X129412731Y-99714447D01*
X130031779Y-100143019D02*
X130031779Y-99143019D01*
X130031779Y-99143019D02*
X130412731Y-99143019D01*
X130412731Y-99143019D02*
X130507969Y-99190638D01*
X130507969Y-99190638D02*
X130555588Y-99238257D01*
X130555588Y-99238257D02*
X130603207Y-99333495D01*
X130603207Y-99333495D02*
X130603207Y-99476352D01*
X130603207Y-99476352D02*
X130555588Y-99571590D01*
X130555588Y-99571590D02*
X130507969Y-99619209D01*
X130507969Y-99619209D02*
X130412731Y-99666828D01*
X130412731Y-99666828D02*
X130031779Y-99666828D01*
X131031779Y-100143019D02*
X131031779Y-99143019D01*
X131698445Y-99143019D02*
X131888921Y-99143019D01*
X131888921Y-99143019D02*
X131984159Y-99190638D01*
X131984159Y-99190638D02*
X132079397Y-99285876D01*
X132079397Y-99285876D02*
X132127016Y-99476352D01*
X132127016Y-99476352D02*
X132127016Y-99809685D01*
X132127016Y-99809685D02*
X132079397Y-100000161D01*
X132079397Y-100000161D02*
X131984159Y-100095400D01*
X131984159Y-100095400D02*
X131888921Y-100143019D01*
X131888921Y-100143019D02*
X131698445Y-100143019D01*
X131698445Y-100143019D02*
X131603207Y-100095400D01*
X131603207Y-100095400D02*
X131507969Y-100000161D01*
X131507969Y-100000161D02*
X131460350Y-99809685D01*
X131460350Y-99809685D02*
X131460350Y-99476352D01*
X131460350Y-99476352D02*
X131507969Y-99285876D01*
X131507969Y-99285876D02*
X131603207Y-99190638D01*
X131603207Y-99190638D02*
X131698445Y-99143019D01*
X133079397Y-100143019D02*
X132507969Y-100143019D01*
X132793683Y-100143019D02*
X132793683Y-99143019D01*
X132793683Y-99143019D02*
X132698445Y-99285876D01*
X132698445Y-99285876D02*
X132603207Y-99381114D01*
X132603207Y-99381114D02*
X132507969Y-99428733D01*
X133412731Y-99143019D02*
X134079397Y-99143019D01*
X134079397Y-99143019D02*
X133650826Y-100143019D01*
X128926921Y-81836489D02*
X129260254Y-81836489D01*
X129403111Y-82360299D02*
X128926921Y-82360299D01*
X128926921Y-82360299D02*
X128926921Y-81360299D01*
X128926921Y-81360299D02*
X129403111Y-81360299D01*
X129831683Y-82360299D02*
X129831683Y-81360299D01*
X129831683Y-81360299D02*
X130403111Y-82360299D01*
X130403111Y-82360299D02*
X130403111Y-81360299D01*
X131593587Y-81312680D02*
X130736445Y-82598394D01*
X132498349Y-82360299D02*
X132165016Y-81884108D01*
X131926921Y-82360299D02*
X131926921Y-81360299D01*
X131926921Y-81360299D02*
X132307873Y-81360299D01*
X132307873Y-81360299D02*
X132403111Y-81407918D01*
X132403111Y-81407918D02*
X132450730Y-81455537D01*
X132450730Y-81455537D02*
X132498349Y-81550775D01*
X132498349Y-81550775D02*
X132498349Y-81693632D01*
X132498349Y-81693632D02*
X132450730Y-81788870D01*
X132450730Y-81788870D02*
X132403111Y-81836489D01*
X132403111Y-81836489D02*
X132307873Y-81884108D01*
X132307873Y-81884108D02*
X131926921Y-81884108D01*
X132926921Y-81836489D02*
X133260254Y-81836489D01*
X133403111Y-82360299D02*
X132926921Y-82360299D01*
X132926921Y-82360299D02*
X132926921Y-81360299D01*
X132926921Y-81360299D02*
X133403111Y-81360299D01*
X133784064Y-82312680D02*
X133926921Y-82360299D01*
X133926921Y-82360299D02*
X134165016Y-82360299D01*
X134165016Y-82360299D02*
X134260254Y-82312680D01*
X134260254Y-82312680D02*
X134307873Y-82265060D01*
X134307873Y-82265060D02*
X134355492Y-82169822D01*
X134355492Y-82169822D02*
X134355492Y-82074584D01*
X134355492Y-82074584D02*
X134307873Y-81979346D01*
X134307873Y-81979346D02*
X134260254Y-81931727D01*
X134260254Y-81931727D02*
X134165016Y-81884108D01*
X134165016Y-81884108D02*
X133974540Y-81836489D01*
X133974540Y-81836489D02*
X133879302Y-81788870D01*
X133879302Y-81788870D02*
X133831683Y-81741251D01*
X133831683Y-81741251D02*
X133784064Y-81646013D01*
X133784064Y-81646013D02*
X133784064Y-81550775D01*
X133784064Y-81550775D02*
X133831683Y-81455537D01*
X133831683Y-81455537D02*
X133879302Y-81407918D01*
X133879302Y-81407918D02*
X133974540Y-81360299D01*
X133974540Y-81360299D02*
X134212635Y-81360299D01*
X134212635Y-81360299D02*
X134355492Y-81407918D01*
X134784064Y-81836489D02*
X135117397Y-81836489D01*
X135260254Y-82360299D02*
X134784064Y-82360299D01*
X134784064Y-82360299D02*
X134784064Y-81360299D01*
X134784064Y-81360299D02*
X135260254Y-81360299D01*
X135545969Y-81360299D02*
X136117397Y-81360299D01*
X135831683Y-82360299D02*
X135831683Y-81360299D01*
X146389649Y-114430638D02*
X146294411Y-114383019D01*
X146294411Y-114383019D02*
X146151554Y-114383019D01*
X146151554Y-114383019D02*
X146008697Y-114430638D01*
X146008697Y-114430638D02*
X145913459Y-114525876D01*
X145913459Y-114525876D02*
X145865840Y-114621114D01*
X145865840Y-114621114D02*
X145818221Y-114811590D01*
X145818221Y-114811590D02*
X145818221Y-114954447D01*
X145818221Y-114954447D02*
X145865840Y-115144923D01*
X145865840Y-115144923D02*
X145913459Y-115240161D01*
X145913459Y-115240161D02*
X146008697Y-115335400D01*
X146008697Y-115335400D02*
X146151554Y-115383019D01*
X146151554Y-115383019D02*
X146246792Y-115383019D01*
X146246792Y-115383019D02*
X146389649Y-115335400D01*
X146389649Y-115335400D02*
X146437268Y-115287780D01*
X146437268Y-115287780D02*
X146437268Y-114954447D01*
X146437268Y-114954447D02*
X146246792Y-114954447D01*
X146865840Y-115383019D02*
X146865840Y-114383019D01*
X146865840Y-114383019D02*
X147246792Y-114383019D01*
X147246792Y-114383019D02*
X147342030Y-114430638D01*
X147342030Y-114430638D02*
X147389649Y-114478257D01*
X147389649Y-114478257D02*
X147437268Y-114573495D01*
X147437268Y-114573495D02*
X147437268Y-114716352D01*
X147437268Y-114716352D02*
X147389649Y-114811590D01*
X147389649Y-114811590D02*
X147342030Y-114859209D01*
X147342030Y-114859209D02*
X147246792Y-114906828D01*
X147246792Y-114906828D02*
X146865840Y-114906828D01*
X147865840Y-115383019D02*
X147865840Y-114383019D01*
X148532506Y-114383019D02*
X148722982Y-114383019D01*
X148722982Y-114383019D02*
X148818220Y-114430638D01*
X148818220Y-114430638D02*
X148913458Y-114525876D01*
X148913458Y-114525876D02*
X148961077Y-114716352D01*
X148961077Y-114716352D02*
X148961077Y-115049685D01*
X148961077Y-115049685D02*
X148913458Y-115240161D01*
X148913458Y-115240161D02*
X148818220Y-115335400D01*
X148818220Y-115335400D02*
X148722982Y-115383019D01*
X148722982Y-115383019D02*
X148532506Y-115383019D01*
X148532506Y-115383019D02*
X148437268Y-115335400D01*
X148437268Y-115335400D02*
X148342030Y-115240161D01*
X148342030Y-115240161D02*
X148294411Y-115049685D01*
X148294411Y-115049685D02*
X148294411Y-114716352D01*
X148294411Y-114716352D02*
X148342030Y-114525876D01*
X148342030Y-114525876D02*
X148437268Y-114430638D01*
X148437268Y-114430638D02*
X148532506Y-114383019D01*
X149818220Y-114716352D02*
X149818220Y-115383019D01*
X149580125Y-114335400D02*
X149342030Y-115049685D01*
X149342030Y-115049685D02*
X149961077Y-115049685D01*
X150484887Y-114811590D02*
X150389649Y-114763971D01*
X150389649Y-114763971D02*
X150342030Y-114716352D01*
X150342030Y-114716352D02*
X150294411Y-114621114D01*
X150294411Y-114621114D02*
X150294411Y-114573495D01*
X150294411Y-114573495D02*
X150342030Y-114478257D01*
X150342030Y-114478257D02*
X150389649Y-114430638D01*
X150389649Y-114430638D02*
X150484887Y-114383019D01*
X150484887Y-114383019D02*
X150675363Y-114383019D01*
X150675363Y-114383019D02*
X150770601Y-114430638D01*
X150770601Y-114430638D02*
X150818220Y-114478257D01*
X150818220Y-114478257D02*
X150865839Y-114573495D01*
X150865839Y-114573495D02*
X150865839Y-114621114D01*
X150865839Y-114621114D02*
X150818220Y-114716352D01*
X150818220Y-114716352D02*
X150770601Y-114763971D01*
X150770601Y-114763971D02*
X150675363Y-114811590D01*
X150675363Y-114811590D02*
X150484887Y-114811590D01*
X150484887Y-114811590D02*
X150389649Y-114859209D01*
X150389649Y-114859209D02*
X150342030Y-114906828D01*
X150342030Y-114906828D02*
X150294411Y-115002066D01*
X150294411Y-115002066D02*
X150294411Y-115192542D01*
X150294411Y-115192542D02*
X150342030Y-115287780D01*
X150342030Y-115287780D02*
X150389649Y-115335400D01*
X150389649Y-115335400D02*
X150484887Y-115383019D01*
X150484887Y-115383019D02*
X150675363Y-115383019D01*
X150675363Y-115383019D02*
X150770601Y-115335400D01*
X150770601Y-115335400D02*
X150818220Y-115287780D01*
X150818220Y-115287780D02*
X150865839Y-115192542D01*
X150865839Y-115192542D02*
X150865839Y-115002066D01*
X150865839Y-115002066D02*
X150818220Y-114906828D01*
X150818220Y-114906828D02*
X150770601Y-114859209D01*
X150770601Y-114859209D02*
X150675363Y-114811590D01*
X141961078Y-91570638D02*
X141865840Y-91523019D01*
X141865840Y-91523019D02*
X141722983Y-91523019D01*
X141722983Y-91523019D02*
X141580126Y-91570638D01*
X141580126Y-91570638D02*
X141484888Y-91665876D01*
X141484888Y-91665876D02*
X141437269Y-91761114D01*
X141437269Y-91761114D02*
X141389650Y-91951590D01*
X141389650Y-91951590D02*
X141389650Y-92094447D01*
X141389650Y-92094447D02*
X141437269Y-92284923D01*
X141437269Y-92284923D02*
X141484888Y-92380161D01*
X141484888Y-92380161D02*
X141580126Y-92475400D01*
X141580126Y-92475400D02*
X141722983Y-92523019D01*
X141722983Y-92523019D02*
X141818221Y-92523019D01*
X141818221Y-92523019D02*
X141961078Y-92475400D01*
X141961078Y-92475400D02*
X142008697Y-92427780D01*
X142008697Y-92427780D02*
X142008697Y-92094447D01*
X142008697Y-92094447D02*
X141818221Y-92094447D01*
X142437269Y-92523019D02*
X142437269Y-91523019D01*
X142437269Y-91523019D02*
X142818221Y-91523019D01*
X142818221Y-91523019D02*
X142913459Y-91570638D01*
X142913459Y-91570638D02*
X142961078Y-91618257D01*
X142961078Y-91618257D02*
X143008697Y-91713495D01*
X143008697Y-91713495D02*
X143008697Y-91856352D01*
X143008697Y-91856352D02*
X142961078Y-91951590D01*
X142961078Y-91951590D02*
X142913459Y-91999209D01*
X142913459Y-91999209D02*
X142818221Y-92046828D01*
X142818221Y-92046828D02*
X142437269Y-92046828D01*
X143437269Y-92523019D02*
X143437269Y-91523019D01*
X144103935Y-91523019D02*
X144294411Y-91523019D01*
X144294411Y-91523019D02*
X144389649Y-91570638D01*
X144389649Y-91570638D02*
X144484887Y-91665876D01*
X144484887Y-91665876D02*
X144532506Y-91856352D01*
X144532506Y-91856352D02*
X144532506Y-92189685D01*
X144532506Y-92189685D02*
X144484887Y-92380161D01*
X144484887Y-92380161D02*
X144389649Y-92475400D01*
X144389649Y-92475400D02*
X144294411Y-92523019D01*
X144294411Y-92523019D02*
X144103935Y-92523019D01*
X144103935Y-92523019D02*
X144008697Y-92475400D01*
X144008697Y-92475400D02*
X143913459Y-92380161D01*
X143913459Y-92380161D02*
X143865840Y-92189685D01*
X143865840Y-92189685D02*
X143865840Y-91856352D01*
X143865840Y-91856352D02*
X143913459Y-91665876D01*
X143913459Y-91665876D02*
X144008697Y-91570638D01*
X144008697Y-91570638D02*
X144103935Y-91523019D01*
X145389649Y-91856352D02*
X145389649Y-92523019D01*
X145151554Y-91475400D02*
X144913459Y-92189685D01*
X144913459Y-92189685D02*
X145532506Y-92189685D01*
X146437268Y-92523019D02*
X145865840Y-92523019D01*
X146151554Y-92523019D02*
X146151554Y-91523019D01*
X146151554Y-91523019D02*
X146056316Y-91665876D01*
X146056316Y-91665876D02*
X145961078Y-91761114D01*
X145961078Y-91761114D02*
X145865840Y-91808733D01*
X147580125Y-91475400D02*
X146722983Y-92761114D01*
X147913459Y-92523019D02*
X147913459Y-91523019D01*
X147913459Y-91523019D02*
X148246792Y-92237304D01*
X148246792Y-92237304D02*
X148580125Y-91523019D01*
X148580125Y-91523019D02*
X148580125Y-92523019D01*
X148913459Y-91523019D02*
X149484887Y-91523019D01*
X149199173Y-92523019D02*
X149199173Y-91523019D01*
X149818221Y-92523019D02*
X149818221Y-91523019D01*
X149818221Y-91523019D02*
X150056316Y-91523019D01*
X150056316Y-91523019D02*
X150199173Y-91570638D01*
X150199173Y-91570638D02*
X150294411Y-91665876D01*
X150294411Y-91665876D02*
X150342030Y-91761114D01*
X150342030Y-91761114D02*
X150389649Y-91951590D01*
X150389649Y-91951590D02*
X150389649Y-92094447D01*
X150389649Y-92094447D02*
X150342030Y-92284923D01*
X150342030Y-92284923D02*
X150294411Y-92380161D01*
X150294411Y-92380161D02*
X150199173Y-92475400D01*
X150199173Y-92475400D02*
X150056316Y-92523019D01*
X150056316Y-92523019D02*
X149818221Y-92523019D01*
X150818221Y-92523019D02*
X150818221Y-91523019D01*
X148770601Y-76330638D02*
X148675363Y-76283019D01*
X148675363Y-76283019D02*
X148532506Y-76283019D01*
X148532506Y-76283019D02*
X148389649Y-76330638D01*
X148389649Y-76330638D02*
X148294411Y-76425876D01*
X148294411Y-76425876D02*
X148246792Y-76521114D01*
X148246792Y-76521114D02*
X148199173Y-76711590D01*
X148199173Y-76711590D02*
X148199173Y-76854447D01*
X148199173Y-76854447D02*
X148246792Y-77044923D01*
X148246792Y-77044923D02*
X148294411Y-77140161D01*
X148294411Y-77140161D02*
X148389649Y-77235400D01*
X148389649Y-77235400D02*
X148532506Y-77283019D01*
X148532506Y-77283019D02*
X148627744Y-77283019D01*
X148627744Y-77283019D02*
X148770601Y-77235400D01*
X148770601Y-77235400D02*
X148818220Y-77187780D01*
X148818220Y-77187780D02*
X148818220Y-76854447D01*
X148818220Y-76854447D02*
X148627744Y-76854447D01*
X149246792Y-77283019D02*
X149246792Y-76283019D01*
X149246792Y-76283019D02*
X149818220Y-77283019D01*
X149818220Y-77283019D02*
X149818220Y-76283019D01*
X150294411Y-77283019D02*
X150294411Y-76283019D01*
X150294411Y-76283019D02*
X150532506Y-76283019D01*
X150532506Y-76283019D02*
X150675363Y-76330638D01*
X150675363Y-76330638D02*
X150770601Y-76425876D01*
X150770601Y-76425876D02*
X150818220Y-76521114D01*
X150818220Y-76521114D02*
X150865839Y-76711590D01*
X150865839Y-76711590D02*
X150865839Y-76854447D01*
X150865839Y-76854447D02*
X150818220Y-77044923D01*
X150818220Y-77044923D02*
X150770601Y-77140161D01*
X150770601Y-77140161D02*
X150675363Y-77235400D01*
X150675363Y-77235400D02*
X150532506Y-77283019D01*
X150532506Y-77283019D02*
X150294411Y-77283019D01*
X146389649Y-106810638D02*
X146294411Y-106763019D01*
X146294411Y-106763019D02*
X146151554Y-106763019D01*
X146151554Y-106763019D02*
X146008697Y-106810638D01*
X146008697Y-106810638D02*
X145913459Y-106905876D01*
X145913459Y-106905876D02*
X145865840Y-107001114D01*
X145865840Y-107001114D02*
X145818221Y-107191590D01*
X145818221Y-107191590D02*
X145818221Y-107334447D01*
X145818221Y-107334447D02*
X145865840Y-107524923D01*
X145865840Y-107524923D02*
X145913459Y-107620161D01*
X145913459Y-107620161D02*
X146008697Y-107715400D01*
X146008697Y-107715400D02*
X146151554Y-107763019D01*
X146151554Y-107763019D02*
X146246792Y-107763019D01*
X146246792Y-107763019D02*
X146389649Y-107715400D01*
X146389649Y-107715400D02*
X146437268Y-107667780D01*
X146437268Y-107667780D02*
X146437268Y-107334447D01*
X146437268Y-107334447D02*
X146246792Y-107334447D01*
X146865840Y-107763019D02*
X146865840Y-106763019D01*
X146865840Y-106763019D02*
X147246792Y-106763019D01*
X147246792Y-106763019D02*
X147342030Y-106810638D01*
X147342030Y-106810638D02*
X147389649Y-106858257D01*
X147389649Y-106858257D02*
X147437268Y-106953495D01*
X147437268Y-106953495D02*
X147437268Y-107096352D01*
X147437268Y-107096352D02*
X147389649Y-107191590D01*
X147389649Y-107191590D02*
X147342030Y-107239209D01*
X147342030Y-107239209D02*
X147246792Y-107286828D01*
X147246792Y-107286828D02*
X146865840Y-107286828D01*
X147865840Y-107763019D02*
X147865840Y-106763019D01*
X148532506Y-106763019D02*
X148722982Y-106763019D01*
X148722982Y-106763019D02*
X148818220Y-106810638D01*
X148818220Y-106810638D02*
X148913458Y-106905876D01*
X148913458Y-106905876D02*
X148961077Y-107096352D01*
X148961077Y-107096352D02*
X148961077Y-107429685D01*
X148961077Y-107429685D02*
X148913458Y-107620161D01*
X148913458Y-107620161D02*
X148818220Y-107715400D01*
X148818220Y-107715400D02*
X148722982Y-107763019D01*
X148722982Y-107763019D02*
X148532506Y-107763019D01*
X148532506Y-107763019D02*
X148437268Y-107715400D01*
X148437268Y-107715400D02*
X148342030Y-107620161D01*
X148342030Y-107620161D02*
X148294411Y-107429685D01*
X148294411Y-107429685D02*
X148294411Y-107096352D01*
X148294411Y-107096352D02*
X148342030Y-106905876D01*
X148342030Y-106905876D02*
X148437268Y-106810638D01*
X148437268Y-106810638D02*
X148532506Y-106763019D01*
X149294411Y-106763019D02*
X149913458Y-106763019D01*
X149913458Y-106763019D02*
X149580125Y-107143971D01*
X149580125Y-107143971D02*
X149722982Y-107143971D01*
X149722982Y-107143971D02*
X149818220Y-107191590D01*
X149818220Y-107191590D02*
X149865839Y-107239209D01*
X149865839Y-107239209D02*
X149913458Y-107334447D01*
X149913458Y-107334447D02*
X149913458Y-107572542D01*
X149913458Y-107572542D02*
X149865839Y-107667780D01*
X149865839Y-107667780D02*
X149818220Y-107715400D01*
X149818220Y-107715400D02*
X149722982Y-107763019D01*
X149722982Y-107763019D02*
X149437268Y-107763019D01*
X149437268Y-107763019D02*
X149342030Y-107715400D01*
X149342030Y-107715400D02*
X149294411Y-107667780D01*
X150818220Y-106763019D02*
X150342030Y-106763019D01*
X150342030Y-106763019D02*
X150294411Y-107239209D01*
X150294411Y-107239209D02*
X150342030Y-107191590D01*
X150342030Y-107191590D02*
X150437268Y-107143971D01*
X150437268Y-107143971D02*
X150675363Y-107143971D01*
X150675363Y-107143971D02*
X150770601Y-107191590D01*
X150770601Y-107191590D02*
X150818220Y-107239209D01*
X150818220Y-107239209D02*
X150865839Y-107334447D01*
X150865839Y-107334447D02*
X150865839Y-107572542D01*
X150865839Y-107572542D02*
X150818220Y-107667780D01*
X150818220Y-107667780D02*
X150770601Y-107715400D01*
X150770601Y-107715400D02*
X150675363Y-107763019D01*
X150675363Y-107763019D02*
X150437268Y-107763019D01*
X150437268Y-107763019D02*
X150342030Y-107715400D01*
X150342030Y-107715400D02*
X150294411Y-107667780D01*
X129555588Y-89030638D02*
X129460350Y-88983019D01*
X129460350Y-88983019D02*
X129317493Y-88983019D01*
X129317493Y-88983019D02*
X129174636Y-89030638D01*
X129174636Y-89030638D02*
X129079398Y-89125876D01*
X129079398Y-89125876D02*
X129031779Y-89221114D01*
X129031779Y-89221114D02*
X128984160Y-89411590D01*
X128984160Y-89411590D02*
X128984160Y-89554447D01*
X128984160Y-89554447D02*
X129031779Y-89744923D01*
X129031779Y-89744923D02*
X129079398Y-89840161D01*
X129079398Y-89840161D02*
X129174636Y-89935400D01*
X129174636Y-89935400D02*
X129317493Y-89983019D01*
X129317493Y-89983019D02*
X129412731Y-89983019D01*
X129412731Y-89983019D02*
X129555588Y-89935400D01*
X129555588Y-89935400D02*
X129603207Y-89887780D01*
X129603207Y-89887780D02*
X129603207Y-89554447D01*
X129603207Y-89554447D02*
X129412731Y-89554447D01*
X130031779Y-89983019D02*
X130031779Y-88983019D01*
X130031779Y-88983019D02*
X130412731Y-88983019D01*
X130412731Y-88983019D02*
X130507969Y-89030638D01*
X130507969Y-89030638D02*
X130555588Y-89078257D01*
X130555588Y-89078257D02*
X130603207Y-89173495D01*
X130603207Y-89173495D02*
X130603207Y-89316352D01*
X130603207Y-89316352D02*
X130555588Y-89411590D01*
X130555588Y-89411590D02*
X130507969Y-89459209D01*
X130507969Y-89459209D02*
X130412731Y-89506828D01*
X130412731Y-89506828D02*
X130031779Y-89506828D01*
X131031779Y-89983019D02*
X131031779Y-88983019D01*
X131698445Y-88983019D02*
X131888921Y-88983019D01*
X131888921Y-88983019D02*
X131984159Y-89030638D01*
X131984159Y-89030638D02*
X132079397Y-89125876D01*
X132079397Y-89125876D02*
X132127016Y-89316352D01*
X132127016Y-89316352D02*
X132127016Y-89649685D01*
X132127016Y-89649685D02*
X132079397Y-89840161D01*
X132079397Y-89840161D02*
X131984159Y-89935400D01*
X131984159Y-89935400D02*
X131888921Y-89983019D01*
X131888921Y-89983019D02*
X131698445Y-89983019D01*
X131698445Y-89983019D02*
X131603207Y-89935400D01*
X131603207Y-89935400D02*
X131507969Y-89840161D01*
X131507969Y-89840161D02*
X131460350Y-89649685D01*
X131460350Y-89649685D02*
X131460350Y-89316352D01*
X131460350Y-89316352D02*
X131507969Y-89125876D01*
X131507969Y-89125876D02*
X131603207Y-89030638D01*
X131603207Y-89030638D02*
X131698445Y-88983019D01*
X132984159Y-88983019D02*
X132793683Y-88983019D01*
X132793683Y-88983019D02*
X132698445Y-89030638D01*
X132698445Y-89030638D02*
X132650826Y-89078257D01*
X132650826Y-89078257D02*
X132555588Y-89221114D01*
X132555588Y-89221114D02*
X132507969Y-89411590D01*
X132507969Y-89411590D02*
X132507969Y-89792542D01*
X132507969Y-89792542D02*
X132555588Y-89887780D01*
X132555588Y-89887780D02*
X132603207Y-89935400D01*
X132603207Y-89935400D02*
X132698445Y-89983019D01*
X132698445Y-89983019D02*
X132888921Y-89983019D01*
X132888921Y-89983019D02*
X132984159Y-89935400D01*
X132984159Y-89935400D02*
X133031778Y-89887780D01*
X133031778Y-89887780D02*
X133079397Y-89792542D01*
X133079397Y-89792542D02*
X133079397Y-89554447D01*
X133079397Y-89554447D02*
X133031778Y-89459209D01*
X133031778Y-89459209D02*
X132984159Y-89411590D01*
X132984159Y-89411590D02*
X132888921Y-89363971D01*
X132888921Y-89363971D02*
X132698445Y-89363971D01*
X132698445Y-89363971D02*
X132603207Y-89411590D01*
X132603207Y-89411590D02*
X132555588Y-89459209D01*
X132555588Y-89459209D02*
X132507969Y-89554447D01*
X141437268Y-96650638D02*
X141342030Y-96603019D01*
X141342030Y-96603019D02*
X141199173Y-96603019D01*
X141199173Y-96603019D02*
X141056316Y-96650638D01*
X141056316Y-96650638D02*
X140961078Y-96745876D01*
X140961078Y-96745876D02*
X140913459Y-96841114D01*
X140913459Y-96841114D02*
X140865840Y-97031590D01*
X140865840Y-97031590D02*
X140865840Y-97174447D01*
X140865840Y-97174447D02*
X140913459Y-97364923D01*
X140913459Y-97364923D02*
X140961078Y-97460161D01*
X140961078Y-97460161D02*
X141056316Y-97555400D01*
X141056316Y-97555400D02*
X141199173Y-97603019D01*
X141199173Y-97603019D02*
X141294411Y-97603019D01*
X141294411Y-97603019D02*
X141437268Y-97555400D01*
X141437268Y-97555400D02*
X141484887Y-97507780D01*
X141484887Y-97507780D02*
X141484887Y-97174447D01*
X141484887Y-97174447D02*
X141294411Y-97174447D01*
X141913459Y-97603019D02*
X141913459Y-96603019D01*
X141913459Y-96603019D02*
X142294411Y-96603019D01*
X142294411Y-96603019D02*
X142389649Y-96650638D01*
X142389649Y-96650638D02*
X142437268Y-96698257D01*
X142437268Y-96698257D02*
X142484887Y-96793495D01*
X142484887Y-96793495D02*
X142484887Y-96936352D01*
X142484887Y-96936352D02*
X142437268Y-97031590D01*
X142437268Y-97031590D02*
X142389649Y-97079209D01*
X142389649Y-97079209D02*
X142294411Y-97126828D01*
X142294411Y-97126828D02*
X141913459Y-97126828D01*
X142913459Y-97603019D02*
X142913459Y-96603019D01*
X143580125Y-96603019D02*
X143770601Y-96603019D01*
X143770601Y-96603019D02*
X143865839Y-96650638D01*
X143865839Y-96650638D02*
X143961077Y-96745876D01*
X143961077Y-96745876D02*
X144008696Y-96936352D01*
X144008696Y-96936352D02*
X144008696Y-97269685D01*
X144008696Y-97269685D02*
X143961077Y-97460161D01*
X143961077Y-97460161D02*
X143865839Y-97555400D01*
X143865839Y-97555400D02*
X143770601Y-97603019D01*
X143770601Y-97603019D02*
X143580125Y-97603019D01*
X143580125Y-97603019D02*
X143484887Y-97555400D01*
X143484887Y-97555400D02*
X143389649Y-97460161D01*
X143389649Y-97460161D02*
X143342030Y-97269685D01*
X143342030Y-97269685D02*
X143342030Y-96936352D01*
X143342030Y-96936352D02*
X143389649Y-96745876D01*
X143389649Y-96745876D02*
X143484887Y-96650638D01*
X143484887Y-96650638D02*
X143580125Y-96603019D01*
X144342030Y-96603019D02*
X144961077Y-96603019D01*
X144961077Y-96603019D02*
X144627744Y-96983971D01*
X144627744Y-96983971D02*
X144770601Y-96983971D01*
X144770601Y-96983971D02*
X144865839Y-97031590D01*
X144865839Y-97031590D02*
X144913458Y-97079209D01*
X144913458Y-97079209D02*
X144961077Y-97174447D01*
X144961077Y-97174447D02*
X144961077Y-97412542D01*
X144961077Y-97412542D02*
X144913458Y-97507780D01*
X144913458Y-97507780D02*
X144865839Y-97555400D01*
X144865839Y-97555400D02*
X144770601Y-97603019D01*
X144770601Y-97603019D02*
X144484887Y-97603019D01*
X144484887Y-97603019D02*
X144389649Y-97555400D01*
X144389649Y-97555400D02*
X144342030Y-97507780D01*
X145437268Y-97603019D02*
X145627744Y-97603019D01*
X145627744Y-97603019D02*
X145722982Y-97555400D01*
X145722982Y-97555400D02*
X145770601Y-97507780D01*
X145770601Y-97507780D02*
X145865839Y-97364923D01*
X145865839Y-97364923D02*
X145913458Y-97174447D01*
X145913458Y-97174447D02*
X145913458Y-96793495D01*
X145913458Y-96793495D02*
X145865839Y-96698257D01*
X145865839Y-96698257D02*
X145818220Y-96650638D01*
X145818220Y-96650638D02*
X145722982Y-96603019D01*
X145722982Y-96603019D02*
X145532506Y-96603019D01*
X145532506Y-96603019D02*
X145437268Y-96650638D01*
X145437268Y-96650638D02*
X145389649Y-96698257D01*
X145389649Y-96698257D02*
X145342030Y-96793495D01*
X145342030Y-96793495D02*
X145342030Y-97031590D01*
X145342030Y-97031590D02*
X145389649Y-97126828D01*
X145389649Y-97126828D02*
X145437268Y-97174447D01*
X145437268Y-97174447D02*
X145532506Y-97222066D01*
X145532506Y-97222066D02*
X145722982Y-97222066D01*
X145722982Y-97222066D02*
X145818220Y-97174447D01*
X145818220Y-97174447D02*
X145865839Y-97126828D01*
X145865839Y-97126828D02*
X145913458Y-97031590D01*
X147056315Y-96555400D02*
X146199173Y-97841114D01*
X147389649Y-97603019D02*
X147389649Y-96603019D01*
X147389649Y-96603019D02*
X147722982Y-97317304D01*
X147722982Y-97317304D02*
X148056315Y-96603019D01*
X148056315Y-96603019D02*
X148056315Y-97603019D01*
X148389649Y-96603019D02*
X148961077Y-96603019D01*
X148675363Y-97603019D02*
X148675363Y-96603019D01*
X149865839Y-97507780D02*
X149818220Y-97555400D01*
X149818220Y-97555400D02*
X149675363Y-97603019D01*
X149675363Y-97603019D02*
X149580125Y-97603019D01*
X149580125Y-97603019D02*
X149437268Y-97555400D01*
X149437268Y-97555400D02*
X149342030Y-97460161D01*
X149342030Y-97460161D02*
X149294411Y-97364923D01*
X149294411Y-97364923D02*
X149246792Y-97174447D01*
X149246792Y-97174447D02*
X149246792Y-97031590D01*
X149246792Y-97031590D02*
X149294411Y-96841114D01*
X149294411Y-96841114D02*
X149342030Y-96745876D01*
X149342030Y-96745876D02*
X149437268Y-96650638D01*
X149437268Y-96650638D02*
X149580125Y-96603019D01*
X149580125Y-96603019D02*
X149675363Y-96603019D01*
X149675363Y-96603019D02*
X149818220Y-96650638D01*
X149818220Y-96650638D02*
X149865839Y-96698257D01*
X150294411Y-97603019D02*
X150294411Y-96603019D01*
X150865839Y-97603019D02*
X150437268Y-97031590D01*
X150865839Y-96603019D02*
X150294411Y-97174447D01*
X129555588Y-104270638D02*
X129460350Y-104223019D01*
X129460350Y-104223019D02*
X129317493Y-104223019D01*
X129317493Y-104223019D02*
X129174636Y-104270638D01*
X129174636Y-104270638D02*
X129079398Y-104365876D01*
X129079398Y-104365876D02*
X129031779Y-104461114D01*
X129031779Y-104461114D02*
X128984160Y-104651590D01*
X128984160Y-104651590D02*
X128984160Y-104794447D01*
X128984160Y-104794447D02*
X129031779Y-104984923D01*
X129031779Y-104984923D02*
X129079398Y-105080161D01*
X129079398Y-105080161D02*
X129174636Y-105175400D01*
X129174636Y-105175400D02*
X129317493Y-105223019D01*
X129317493Y-105223019D02*
X129412731Y-105223019D01*
X129412731Y-105223019D02*
X129555588Y-105175400D01*
X129555588Y-105175400D02*
X129603207Y-105127780D01*
X129603207Y-105127780D02*
X129603207Y-104794447D01*
X129603207Y-104794447D02*
X129412731Y-104794447D01*
X130031779Y-105223019D02*
X130031779Y-104223019D01*
X130031779Y-104223019D02*
X130412731Y-104223019D01*
X130412731Y-104223019D02*
X130507969Y-104270638D01*
X130507969Y-104270638D02*
X130555588Y-104318257D01*
X130555588Y-104318257D02*
X130603207Y-104413495D01*
X130603207Y-104413495D02*
X130603207Y-104556352D01*
X130603207Y-104556352D02*
X130555588Y-104651590D01*
X130555588Y-104651590D02*
X130507969Y-104699209D01*
X130507969Y-104699209D02*
X130412731Y-104746828D01*
X130412731Y-104746828D02*
X130031779Y-104746828D01*
X131031779Y-105223019D02*
X131031779Y-104223019D01*
X131698445Y-104223019D02*
X131888921Y-104223019D01*
X131888921Y-104223019D02*
X131984159Y-104270638D01*
X131984159Y-104270638D02*
X132079397Y-104365876D01*
X132079397Y-104365876D02*
X132127016Y-104556352D01*
X132127016Y-104556352D02*
X132127016Y-104889685D01*
X132127016Y-104889685D02*
X132079397Y-105080161D01*
X132079397Y-105080161D02*
X131984159Y-105175400D01*
X131984159Y-105175400D02*
X131888921Y-105223019D01*
X131888921Y-105223019D02*
X131698445Y-105223019D01*
X131698445Y-105223019D02*
X131603207Y-105175400D01*
X131603207Y-105175400D02*
X131507969Y-105080161D01*
X131507969Y-105080161D02*
X131460350Y-104889685D01*
X131460350Y-104889685D02*
X131460350Y-104556352D01*
X131460350Y-104556352D02*
X131507969Y-104365876D01*
X131507969Y-104365876D02*
X131603207Y-104270638D01*
X131603207Y-104270638D02*
X131698445Y-104223019D01*
X132698445Y-104651590D02*
X132603207Y-104603971D01*
X132603207Y-104603971D02*
X132555588Y-104556352D01*
X132555588Y-104556352D02*
X132507969Y-104461114D01*
X132507969Y-104461114D02*
X132507969Y-104413495D01*
X132507969Y-104413495D02*
X132555588Y-104318257D01*
X132555588Y-104318257D02*
X132603207Y-104270638D01*
X132603207Y-104270638D02*
X132698445Y-104223019D01*
X132698445Y-104223019D02*
X132888921Y-104223019D01*
X132888921Y-104223019D02*
X132984159Y-104270638D01*
X132984159Y-104270638D02*
X133031778Y-104318257D01*
X133031778Y-104318257D02*
X133079397Y-104413495D01*
X133079397Y-104413495D02*
X133079397Y-104461114D01*
X133079397Y-104461114D02*
X133031778Y-104556352D01*
X133031778Y-104556352D02*
X132984159Y-104603971D01*
X132984159Y-104603971D02*
X132888921Y-104651590D01*
X132888921Y-104651590D02*
X132698445Y-104651590D01*
X132698445Y-104651590D02*
X132603207Y-104699209D01*
X132603207Y-104699209D02*
X132555588Y-104746828D01*
X132555588Y-104746828D02*
X132507969Y-104842066D01*
X132507969Y-104842066D02*
X132507969Y-105032542D01*
X132507969Y-105032542D02*
X132555588Y-105127780D01*
X132555588Y-105127780D02*
X132603207Y-105175400D01*
X132603207Y-105175400D02*
X132698445Y-105223019D01*
X132698445Y-105223019D02*
X132888921Y-105223019D01*
X132888921Y-105223019D02*
X132984159Y-105175400D01*
X132984159Y-105175400D02*
X133031778Y-105127780D01*
X133031778Y-105127780D02*
X133079397Y-105032542D01*
X133079397Y-105032542D02*
X133079397Y-104842066D01*
X133079397Y-104842066D02*
X133031778Y-104746828D01*
X133031778Y-104746828D02*
X132984159Y-104699209D01*
X132984159Y-104699209D02*
X132888921Y-104651590D01*
X147342030Y-83950638D02*
X147246792Y-83903019D01*
X147246792Y-83903019D02*
X147103935Y-83903019D01*
X147103935Y-83903019D02*
X146961078Y-83950638D01*
X146961078Y-83950638D02*
X146865840Y-84045876D01*
X146865840Y-84045876D02*
X146818221Y-84141114D01*
X146818221Y-84141114D02*
X146770602Y-84331590D01*
X146770602Y-84331590D02*
X146770602Y-84474447D01*
X146770602Y-84474447D02*
X146818221Y-84664923D01*
X146818221Y-84664923D02*
X146865840Y-84760161D01*
X146865840Y-84760161D02*
X146961078Y-84855400D01*
X146961078Y-84855400D02*
X147103935Y-84903019D01*
X147103935Y-84903019D02*
X147199173Y-84903019D01*
X147199173Y-84903019D02*
X147342030Y-84855400D01*
X147342030Y-84855400D02*
X147389649Y-84807780D01*
X147389649Y-84807780D02*
X147389649Y-84474447D01*
X147389649Y-84474447D02*
X147199173Y-84474447D01*
X147818221Y-84903019D02*
X147818221Y-83903019D01*
X147818221Y-83903019D02*
X148199173Y-83903019D01*
X148199173Y-83903019D02*
X148294411Y-83950638D01*
X148294411Y-83950638D02*
X148342030Y-83998257D01*
X148342030Y-83998257D02*
X148389649Y-84093495D01*
X148389649Y-84093495D02*
X148389649Y-84236352D01*
X148389649Y-84236352D02*
X148342030Y-84331590D01*
X148342030Y-84331590D02*
X148294411Y-84379209D01*
X148294411Y-84379209D02*
X148199173Y-84426828D01*
X148199173Y-84426828D02*
X147818221Y-84426828D01*
X148818221Y-84903019D02*
X148818221Y-83903019D01*
X149484887Y-83903019D02*
X149675363Y-83903019D01*
X149675363Y-83903019D02*
X149770601Y-83950638D01*
X149770601Y-83950638D02*
X149865839Y-84045876D01*
X149865839Y-84045876D02*
X149913458Y-84236352D01*
X149913458Y-84236352D02*
X149913458Y-84569685D01*
X149913458Y-84569685D02*
X149865839Y-84760161D01*
X149865839Y-84760161D02*
X149770601Y-84855400D01*
X149770601Y-84855400D02*
X149675363Y-84903019D01*
X149675363Y-84903019D02*
X149484887Y-84903019D01*
X149484887Y-84903019D02*
X149389649Y-84855400D01*
X149389649Y-84855400D02*
X149294411Y-84760161D01*
X149294411Y-84760161D02*
X149246792Y-84569685D01*
X149246792Y-84569685D02*
X149246792Y-84236352D01*
X149246792Y-84236352D02*
X149294411Y-84045876D01*
X149294411Y-84045876D02*
X149389649Y-83950638D01*
X149389649Y-83950638D02*
X149484887Y-83903019D01*
X150865839Y-84903019D02*
X150294411Y-84903019D01*
X150580125Y-84903019D02*
X150580125Y-83903019D01*
X150580125Y-83903019D02*
X150484887Y-84045876D01*
X150484887Y-84045876D02*
X150389649Y-84141114D01*
X150389649Y-84141114D02*
X150294411Y-84188733D01*
X140389649Y-81410638D02*
X140294411Y-81363019D01*
X140294411Y-81363019D02*
X140151554Y-81363019D01*
X140151554Y-81363019D02*
X140008697Y-81410638D01*
X140008697Y-81410638D02*
X139913459Y-81505876D01*
X139913459Y-81505876D02*
X139865840Y-81601114D01*
X139865840Y-81601114D02*
X139818221Y-81791590D01*
X139818221Y-81791590D02*
X139818221Y-81934447D01*
X139818221Y-81934447D02*
X139865840Y-82124923D01*
X139865840Y-82124923D02*
X139913459Y-82220161D01*
X139913459Y-82220161D02*
X140008697Y-82315400D01*
X140008697Y-82315400D02*
X140151554Y-82363019D01*
X140151554Y-82363019D02*
X140246792Y-82363019D01*
X140246792Y-82363019D02*
X140389649Y-82315400D01*
X140389649Y-82315400D02*
X140437268Y-82267780D01*
X140437268Y-82267780D02*
X140437268Y-81934447D01*
X140437268Y-81934447D02*
X140246792Y-81934447D01*
X140865840Y-82363019D02*
X140865840Y-81363019D01*
X140865840Y-81363019D02*
X141246792Y-81363019D01*
X141246792Y-81363019D02*
X141342030Y-81410638D01*
X141342030Y-81410638D02*
X141389649Y-81458257D01*
X141389649Y-81458257D02*
X141437268Y-81553495D01*
X141437268Y-81553495D02*
X141437268Y-81696352D01*
X141437268Y-81696352D02*
X141389649Y-81791590D01*
X141389649Y-81791590D02*
X141342030Y-81839209D01*
X141342030Y-81839209D02*
X141246792Y-81886828D01*
X141246792Y-81886828D02*
X140865840Y-81886828D01*
X141865840Y-82363019D02*
X141865840Y-81363019D01*
X142532506Y-81363019D02*
X142722982Y-81363019D01*
X142722982Y-81363019D02*
X142818220Y-81410638D01*
X142818220Y-81410638D02*
X142913458Y-81505876D01*
X142913458Y-81505876D02*
X142961077Y-81696352D01*
X142961077Y-81696352D02*
X142961077Y-82029685D01*
X142961077Y-82029685D02*
X142913458Y-82220161D01*
X142913458Y-82220161D02*
X142818220Y-82315400D01*
X142818220Y-82315400D02*
X142722982Y-82363019D01*
X142722982Y-82363019D02*
X142532506Y-82363019D01*
X142532506Y-82363019D02*
X142437268Y-82315400D01*
X142437268Y-82315400D02*
X142342030Y-82220161D01*
X142342030Y-82220161D02*
X142294411Y-82029685D01*
X142294411Y-82029685D02*
X142294411Y-81696352D01*
X142294411Y-81696352D02*
X142342030Y-81505876D01*
X142342030Y-81505876D02*
X142437268Y-81410638D01*
X142437268Y-81410638D02*
X142532506Y-81363019D01*
X143818220Y-81696352D02*
X143818220Y-82363019D01*
X143580125Y-81315400D02*
X143342030Y-82029685D01*
X143342030Y-82029685D02*
X143961077Y-82029685D01*
X144770601Y-81696352D02*
X144770601Y-82363019D01*
X144532506Y-81315400D02*
X144294411Y-82029685D01*
X144294411Y-82029685D02*
X144913458Y-82029685D01*
X146008696Y-81315400D02*
X145151554Y-82601114D01*
X146342030Y-81363019D02*
X146342030Y-82172542D01*
X146342030Y-82172542D02*
X146389649Y-82267780D01*
X146389649Y-82267780D02*
X146437268Y-82315400D01*
X146437268Y-82315400D02*
X146532506Y-82363019D01*
X146532506Y-82363019D02*
X146722982Y-82363019D01*
X146722982Y-82363019D02*
X146818220Y-82315400D01*
X146818220Y-82315400D02*
X146865839Y-82267780D01*
X146865839Y-82267780D02*
X146913458Y-82172542D01*
X146913458Y-82172542D02*
X146913458Y-81363019D01*
X147580125Y-81363019D02*
X147675363Y-81363019D01*
X147675363Y-81363019D02*
X147770601Y-81410638D01*
X147770601Y-81410638D02*
X147818220Y-81458257D01*
X147818220Y-81458257D02*
X147865839Y-81553495D01*
X147865839Y-81553495D02*
X147913458Y-81743971D01*
X147913458Y-81743971D02*
X147913458Y-81982066D01*
X147913458Y-81982066D02*
X147865839Y-82172542D01*
X147865839Y-82172542D02*
X147818220Y-82267780D01*
X147818220Y-82267780D02*
X147770601Y-82315400D01*
X147770601Y-82315400D02*
X147675363Y-82363019D01*
X147675363Y-82363019D02*
X147580125Y-82363019D01*
X147580125Y-82363019D02*
X147484887Y-82315400D01*
X147484887Y-82315400D02*
X147437268Y-82267780D01*
X147437268Y-82267780D02*
X147389649Y-82172542D01*
X147389649Y-82172542D02*
X147342030Y-81982066D01*
X147342030Y-81982066D02*
X147342030Y-81743971D01*
X147342030Y-81743971D02*
X147389649Y-81553495D01*
X147389649Y-81553495D02*
X147437268Y-81458257D01*
X147437268Y-81458257D02*
X147484887Y-81410638D01*
X147484887Y-81410638D02*
X147580125Y-81363019D01*
X148913458Y-82363019D02*
X148580125Y-81886828D01*
X148342030Y-82363019D02*
X148342030Y-81363019D01*
X148342030Y-81363019D02*
X148722982Y-81363019D01*
X148722982Y-81363019D02*
X148818220Y-81410638D01*
X148818220Y-81410638D02*
X148865839Y-81458257D01*
X148865839Y-81458257D02*
X148913458Y-81553495D01*
X148913458Y-81553495D02*
X148913458Y-81696352D01*
X148913458Y-81696352D02*
X148865839Y-81791590D01*
X148865839Y-81791590D02*
X148818220Y-81839209D01*
X148818220Y-81839209D02*
X148722982Y-81886828D01*
X148722982Y-81886828D02*
X148342030Y-81886828D01*
X149246792Y-81363019D02*
X149913458Y-82363019D01*
X149913458Y-81363019D02*
X149246792Y-82363019D01*
X150294411Y-82363019D02*
X150294411Y-81363019D01*
X150294411Y-81363019D02*
X150532506Y-81363019D01*
X150532506Y-81363019D02*
X150675363Y-81410638D01*
X150675363Y-81410638D02*
X150770601Y-81505876D01*
X150770601Y-81505876D02*
X150818220Y-81601114D01*
X150818220Y-81601114D02*
X150865839Y-81791590D01*
X150865839Y-81791590D02*
X150865839Y-81934447D01*
X150865839Y-81934447D02*
X150818220Y-82124923D01*
X150818220Y-82124923D02*
X150770601Y-82220161D01*
X150770601Y-82220161D02*
X150675363Y-82315400D01*
X150675363Y-82315400D02*
X150532506Y-82363019D01*
X150532506Y-82363019D02*
X150294411Y-82363019D01*
X148770601Y-129670638D02*
X148675363Y-129623019D01*
X148675363Y-129623019D02*
X148532506Y-129623019D01*
X148532506Y-129623019D02*
X148389649Y-129670638D01*
X148389649Y-129670638D02*
X148294411Y-129765876D01*
X148294411Y-129765876D02*
X148246792Y-129861114D01*
X148246792Y-129861114D02*
X148199173Y-130051590D01*
X148199173Y-130051590D02*
X148199173Y-130194447D01*
X148199173Y-130194447D02*
X148246792Y-130384923D01*
X148246792Y-130384923D02*
X148294411Y-130480161D01*
X148294411Y-130480161D02*
X148389649Y-130575400D01*
X148389649Y-130575400D02*
X148532506Y-130623019D01*
X148532506Y-130623019D02*
X148627744Y-130623019D01*
X148627744Y-130623019D02*
X148770601Y-130575400D01*
X148770601Y-130575400D02*
X148818220Y-130527780D01*
X148818220Y-130527780D02*
X148818220Y-130194447D01*
X148818220Y-130194447D02*
X148627744Y-130194447D01*
X149246792Y-130623019D02*
X149246792Y-129623019D01*
X149246792Y-129623019D02*
X149818220Y-130623019D01*
X149818220Y-130623019D02*
X149818220Y-129623019D01*
X150294411Y-130623019D02*
X150294411Y-129623019D01*
X150294411Y-129623019D02*
X150532506Y-129623019D01*
X150532506Y-129623019D02*
X150675363Y-129670638D01*
X150675363Y-129670638D02*
X150770601Y-129765876D01*
X150770601Y-129765876D02*
X150818220Y-129861114D01*
X150818220Y-129861114D02*
X150865839Y-130051590D01*
X150865839Y-130051590D02*
X150865839Y-130194447D01*
X150865839Y-130194447D02*
X150818220Y-130384923D01*
X150818220Y-130384923D02*
X150770601Y-130480161D01*
X150770601Y-130480161D02*
X150675363Y-130575400D01*
X150675363Y-130575400D02*
X150532506Y-130623019D01*
X150532506Y-130623019D02*
X150294411Y-130623019D01*
X129758289Y-127080299D02*
X129282099Y-127080299D01*
X129282099Y-127080299D02*
X129234480Y-127556489D01*
X129234480Y-127556489D02*
X129282099Y-127508870D01*
X129282099Y-127508870D02*
X129377337Y-127461251D01*
X129377337Y-127461251D02*
X129615432Y-127461251D01*
X129615432Y-127461251D02*
X129710670Y-127508870D01*
X129710670Y-127508870D02*
X129758289Y-127556489D01*
X129758289Y-127556489D02*
X129805908Y-127651727D01*
X129805908Y-127651727D02*
X129805908Y-127889822D01*
X129805908Y-127889822D02*
X129758289Y-127985060D01*
X129758289Y-127985060D02*
X129710670Y-128032680D01*
X129710670Y-128032680D02*
X129615432Y-128080299D01*
X129615432Y-128080299D02*
X129377337Y-128080299D01*
X129377337Y-128080299D02*
X129282099Y-128032680D01*
X129282099Y-128032680D02*
X129234480Y-127985060D01*
X130091623Y-127080299D02*
X130424956Y-128080299D01*
X130424956Y-128080299D02*
X130758289Y-127080299D01*
X129555588Y-101730638D02*
X129460350Y-101683019D01*
X129460350Y-101683019D02*
X129317493Y-101683019D01*
X129317493Y-101683019D02*
X129174636Y-101730638D01*
X129174636Y-101730638D02*
X129079398Y-101825876D01*
X129079398Y-101825876D02*
X129031779Y-101921114D01*
X129031779Y-101921114D02*
X128984160Y-102111590D01*
X128984160Y-102111590D02*
X128984160Y-102254447D01*
X128984160Y-102254447D02*
X129031779Y-102444923D01*
X129031779Y-102444923D02*
X129079398Y-102540161D01*
X129079398Y-102540161D02*
X129174636Y-102635400D01*
X129174636Y-102635400D02*
X129317493Y-102683019D01*
X129317493Y-102683019D02*
X129412731Y-102683019D01*
X129412731Y-102683019D02*
X129555588Y-102635400D01*
X129555588Y-102635400D02*
X129603207Y-102587780D01*
X129603207Y-102587780D02*
X129603207Y-102254447D01*
X129603207Y-102254447D02*
X129412731Y-102254447D01*
X130031779Y-102683019D02*
X130031779Y-101683019D01*
X130031779Y-101683019D02*
X130412731Y-101683019D01*
X130412731Y-101683019D02*
X130507969Y-101730638D01*
X130507969Y-101730638D02*
X130555588Y-101778257D01*
X130555588Y-101778257D02*
X130603207Y-101873495D01*
X130603207Y-101873495D02*
X130603207Y-102016352D01*
X130603207Y-102016352D02*
X130555588Y-102111590D01*
X130555588Y-102111590D02*
X130507969Y-102159209D01*
X130507969Y-102159209D02*
X130412731Y-102206828D01*
X130412731Y-102206828D02*
X130031779Y-102206828D01*
X131031779Y-102683019D02*
X131031779Y-101683019D01*
X131698445Y-101683019D02*
X131888921Y-101683019D01*
X131888921Y-101683019D02*
X131984159Y-101730638D01*
X131984159Y-101730638D02*
X132079397Y-101825876D01*
X132079397Y-101825876D02*
X132127016Y-102016352D01*
X132127016Y-102016352D02*
X132127016Y-102349685D01*
X132127016Y-102349685D02*
X132079397Y-102540161D01*
X132079397Y-102540161D02*
X131984159Y-102635400D01*
X131984159Y-102635400D02*
X131888921Y-102683019D01*
X131888921Y-102683019D02*
X131698445Y-102683019D01*
X131698445Y-102683019D02*
X131603207Y-102635400D01*
X131603207Y-102635400D02*
X131507969Y-102540161D01*
X131507969Y-102540161D02*
X131460350Y-102349685D01*
X131460350Y-102349685D02*
X131460350Y-102016352D01*
X131460350Y-102016352D02*
X131507969Y-101825876D01*
X131507969Y-101825876D02*
X131603207Y-101730638D01*
X131603207Y-101730638D02*
X131698445Y-101683019D01*
X133079397Y-102683019D02*
X132507969Y-102683019D01*
X132793683Y-102683019D02*
X132793683Y-101683019D01*
X132793683Y-101683019D02*
X132698445Y-101825876D01*
X132698445Y-101825876D02*
X132603207Y-101921114D01*
X132603207Y-101921114D02*
X132507969Y-101968733D01*
X133650826Y-102111590D02*
X133555588Y-102063971D01*
X133555588Y-102063971D02*
X133507969Y-102016352D01*
X133507969Y-102016352D02*
X133460350Y-101921114D01*
X133460350Y-101921114D02*
X133460350Y-101873495D01*
X133460350Y-101873495D02*
X133507969Y-101778257D01*
X133507969Y-101778257D02*
X133555588Y-101730638D01*
X133555588Y-101730638D02*
X133650826Y-101683019D01*
X133650826Y-101683019D02*
X133841302Y-101683019D01*
X133841302Y-101683019D02*
X133936540Y-101730638D01*
X133936540Y-101730638D02*
X133984159Y-101778257D01*
X133984159Y-101778257D02*
X134031778Y-101873495D01*
X134031778Y-101873495D02*
X134031778Y-101921114D01*
X134031778Y-101921114D02*
X133984159Y-102016352D01*
X133984159Y-102016352D02*
X133936540Y-102063971D01*
X133936540Y-102063971D02*
X133841302Y-102111590D01*
X133841302Y-102111590D02*
X133650826Y-102111590D01*
X133650826Y-102111590D02*
X133555588Y-102159209D01*
X133555588Y-102159209D02*
X133507969Y-102206828D01*
X133507969Y-102206828D02*
X133460350Y-102302066D01*
X133460350Y-102302066D02*
X133460350Y-102492542D01*
X133460350Y-102492542D02*
X133507969Y-102587780D01*
X133507969Y-102587780D02*
X133555588Y-102635400D01*
X133555588Y-102635400D02*
X133650826Y-102683019D01*
X133650826Y-102683019D02*
X133841302Y-102683019D01*
X133841302Y-102683019D02*
X133936540Y-102635400D01*
X133936540Y-102635400D02*
X133984159Y-102587780D01*
X133984159Y-102587780D02*
X134031778Y-102492542D01*
X134031778Y-102492542D02*
X134031778Y-102302066D01*
X134031778Y-102302066D02*
X133984159Y-102206828D01*
X133984159Y-102206828D02*
X133936540Y-102159209D01*
X133936540Y-102159209D02*
X133841302Y-102111590D01*
X146389649Y-122050638D02*
X146294411Y-122003019D01*
X146294411Y-122003019D02*
X146151554Y-122003019D01*
X146151554Y-122003019D02*
X146008697Y-122050638D01*
X146008697Y-122050638D02*
X145913459Y-122145876D01*
X145913459Y-122145876D02*
X145865840Y-122241114D01*
X145865840Y-122241114D02*
X145818221Y-122431590D01*
X145818221Y-122431590D02*
X145818221Y-122574447D01*
X145818221Y-122574447D02*
X145865840Y-122764923D01*
X145865840Y-122764923D02*
X145913459Y-122860161D01*
X145913459Y-122860161D02*
X146008697Y-122955400D01*
X146008697Y-122955400D02*
X146151554Y-123003019D01*
X146151554Y-123003019D02*
X146246792Y-123003019D01*
X146246792Y-123003019D02*
X146389649Y-122955400D01*
X146389649Y-122955400D02*
X146437268Y-122907780D01*
X146437268Y-122907780D02*
X146437268Y-122574447D01*
X146437268Y-122574447D02*
X146246792Y-122574447D01*
X146865840Y-123003019D02*
X146865840Y-122003019D01*
X146865840Y-122003019D02*
X147246792Y-122003019D01*
X147246792Y-122003019D02*
X147342030Y-122050638D01*
X147342030Y-122050638D02*
X147389649Y-122098257D01*
X147389649Y-122098257D02*
X147437268Y-122193495D01*
X147437268Y-122193495D02*
X147437268Y-122336352D01*
X147437268Y-122336352D02*
X147389649Y-122431590D01*
X147389649Y-122431590D02*
X147342030Y-122479209D01*
X147342030Y-122479209D02*
X147246792Y-122526828D01*
X147246792Y-122526828D02*
X146865840Y-122526828D01*
X147865840Y-123003019D02*
X147865840Y-122003019D01*
X148532506Y-122003019D02*
X148722982Y-122003019D01*
X148722982Y-122003019D02*
X148818220Y-122050638D01*
X148818220Y-122050638D02*
X148913458Y-122145876D01*
X148913458Y-122145876D02*
X148961077Y-122336352D01*
X148961077Y-122336352D02*
X148961077Y-122669685D01*
X148961077Y-122669685D02*
X148913458Y-122860161D01*
X148913458Y-122860161D02*
X148818220Y-122955400D01*
X148818220Y-122955400D02*
X148722982Y-123003019D01*
X148722982Y-123003019D02*
X148532506Y-123003019D01*
X148532506Y-123003019D02*
X148437268Y-122955400D01*
X148437268Y-122955400D02*
X148342030Y-122860161D01*
X148342030Y-122860161D02*
X148294411Y-122669685D01*
X148294411Y-122669685D02*
X148294411Y-122336352D01*
X148294411Y-122336352D02*
X148342030Y-122145876D01*
X148342030Y-122145876D02*
X148437268Y-122050638D01*
X148437268Y-122050638D02*
X148532506Y-122003019D01*
X149342030Y-122098257D02*
X149389649Y-122050638D01*
X149389649Y-122050638D02*
X149484887Y-122003019D01*
X149484887Y-122003019D02*
X149722982Y-122003019D01*
X149722982Y-122003019D02*
X149818220Y-122050638D01*
X149818220Y-122050638D02*
X149865839Y-122098257D01*
X149865839Y-122098257D02*
X149913458Y-122193495D01*
X149913458Y-122193495D02*
X149913458Y-122288733D01*
X149913458Y-122288733D02*
X149865839Y-122431590D01*
X149865839Y-122431590D02*
X149294411Y-123003019D01*
X149294411Y-123003019D02*
X149913458Y-123003019D01*
X150532506Y-122003019D02*
X150627744Y-122003019D01*
X150627744Y-122003019D02*
X150722982Y-122050638D01*
X150722982Y-122050638D02*
X150770601Y-122098257D01*
X150770601Y-122098257D02*
X150818220Y-122193495D01*
X150818220Y-122193495D02*
X150865839Y-122383971D01*
X150865839Y-122383971D02*
X150865839Y-122622066D01*
X150865839Y-122622066D02*
X150818220Y-122812542D01*
X150818220Y-122812542D02*
X150770601Y-122907780D01*
X150770601Y-122907780D02*
X150722982Y-122955400D01*
X150722982Y-122955400D02*
X150627744Y-123003019D01*
X150627744Y-123003019D02*
X150532506Y-123003019D01*
X150532506Y-123003019D02*
X150437268Y-122955400D01*
X150437268Y-122955400D02*
X150389649Y-122907780D01*
X150389649Y-122907780D02*
X150342030Y-122812542D01*
X150342030Y-122812542D02*
X150294411Y-122622066D01*
X150294411Y-122622066D02*
X150294411Y-122383971D01*
X150294411Y-122383971D02*
X150342030Y-122193495D01*
X150342030Y-122193495D02*
X150389649Y-122098257D01*
X150389649Y-122098257D02*
X150437268Y-122050638D01*
X150437268Y-122050638D02*
X150532506Y-122003019D01*
X128936541Y-76283019D02*
X129555588Y-76283019D01*
X129555588Y-76283019D02*
X129222255Y-76663971D01*
X129222255Y-76663971D02*
X129365112Y-76663971D01*
X129365112Y-76663971D02*
X129460350Y-76711590D01*
X129460350Y-76711590D02*
X129507969Y-76759209D01*
X129507969Y-76759209D02*
X129555588Y-76854447D01*
X129555588Y-76854447D02*
X129555588Y-77092542D01*
X129555588Y-77092542D02*
X129507969Y-77187780D01*
X129507969Y-77187780D02*
X129460350Y-77235400D01*
X129460350Y-77235400D02*
X129365112Y-77283019D01*
X129365112Y-77283019D02*
X129079398Y-77283019D01*
X129079398Y-77283019D02*
X128984160Y-77235400D01*
X128984160Y-77235400D02*
X128936541Y-77187780D01*
X129841303Y-76283019D02*
X130174636Y-77283019D01*
X130174636Y-77283019D02*
X130507969Y-76283019D01*
X130746065Y-76283019D02*
X131365112Y-76283019D01*
X131365112Y-76283019D02*
X131031779Y-76663971D01*
X131031779Y-76663971D02*
X131174636Y-76663971D01*
X131174636Y-76663971D02*
X131269874Y-76711590D01*
X131269874Y-76711590D02*
X131317493Y-76759209D01*
X131317493Y-76759209D02*
X131365112Y-76854447D01*
X131365112Y-76854447D02*
X131365112Y-77092542D01*
X131365112Y-77092542D02*
X131317493Y-77187780D01*
X131317493Y-77187780D02*
X131269874Y-77235400D01*
X131269874Y-77235400D02*
X131174636Y-77283019D01*
X131174636Y-77283019D02*
X130888922Y-77283019D01*
X130888922Y-77283019D02*
X130793684Y-77235400D01*
X130793684Y-77235400D02*
X130746065Y-77187780D01*
X141342030Y-89030638D02*
X141246792Y-88983019D01*
X141246792Y-88983019D02*
X141103935Y-88983019D01*
X141103935Y-88983019D02*
X140961078Y-89030638D01*
X140961078Y-89030638D02*
X140865840Y-89125876D01*
X140865840Y-89125876D02*
X140818221Y-89221114D01*
X140818221Y-89221114D02*
X140770602Y-89411590D01*
X140770602Y-89411590D02*
X140770602Y-89554447D01*
X140770602Y-89554447D02*
X140818221Y-89744923D01*
X140818221Y-89744923D02*
X140865840Y-89840161D01*
X140865840Y-89840161D02*
X140961078Y-89935400D01*
X140961078Y-89935400D02*
X141103935Y-89983019D01*
X141103935Y-89983019D02*
X141199173Y-89983019D01*
X141199173Y-89983019D02*
X141342030Y-89935400D01*
X141342030Y-89935400D02*
X141389649Y-89887780D01*
X141389649Y-89887780D02*
X141389649Y-89554447D01*
X141389649Y-89554447D02*
X141199173Y-89554447D01*
X141818221Y-89983019D02*
X141818221Y-88983019D01*
X141818221Y-88983019D02*
X142199173Y-88983019D01*
X142199173Y-88983019D02*
X142294411Y-89030638D01*
X142294411Y-89030638D02*
X142342030Y-89078257D01*
X142342030Y-89078257D02*
X142389649Y-89173495D01*
X142389649Y-89173495D02*
X142389649Y-89316352D01*
X142389649Y-89316352D02*
X142342030Y-89411590D01*
X142342030Y-89411590D02*
X142294411Y-89459209D01*
X142294411Y-89459209D02*
X142199173Y-89506828D01*
X142199173Y-89506828D02*
X141818221Y-89506828D01*
X142818221Y-89983019D02*
X142818221Y-88983019D01*
X143484887Y-88983019D02*
X143675363Y-88983019D01*
X143675363Y-88983019D02*
X143770601Y-89030638D01*
X143770601Y-89030638D02*
X143865839Y-89125876D01*
X143865839Y-89125876D02*
X143913458Y-89316352D01*
X143913458Y-89316352D02*
X143913458Y-89649685D01*
X143913458Y-89649685D02*
X143865839Y-89840161D01*
X143865839Y-89840161D02*
X143770601Y-89935400D01*
X143770601Y-89935400D02*
X143675363Y-89983019D01*
X143675363Y-89983019D02*
X143484887Y-89983019D01*
X143484887Y-89983019D02*
X143389649Y-89935400D01*
X143389649Y-89935400D02*
X143294411Y-89840161D01*
X143294411Y-89840161D02*
X143246792Y-89649685D01*
X143246792Y-89649685D02*
X143246792Y-89316352D01*
X143246792Y-89316352D02*
X143294411Y-89125876D01*
X143294411Y-89125876D02*
X143389649Y-89030638D01*
X143389649Y-89030638D02*
X143484887Y-88983019D01*
X144770601Y-89316352D02*
X144770601Y-89983019D01*
X144532506Y-88935400D02*
X144294411Y-89649685D01*
X144294411Y-89649685D02*
X144913458Y-89649685D01*
X145246792Y-89078257D02*
X145294411Y-89030638D01*
X145294411Y-89030638D02*
X145389649Y-88983019D01*
X145389649Y-88983019D02*
X145627744Y-88983019D01*
X145627744Y-88983019D02*
X145722982Y-89030638D01*
X145722982Y-89030638D02*
X145770601Y-89078257D01*
X145770601Y-89078257D02*
X145818220Y-89173495D01*
X145818220Y-89173495D02*
X145818220Y-89268733D01*
X145818220Y-89268733D02*
X145770601Y-89411590D01*
X145770601Y-89411590D02*
X145199173Y-89983019D01*
X145199173Y-89983019D02*
X145818220Y-89983019D01*
X146961077Y-88935400D02*
X146103935Y-90221114D01*
X147294411Y-89983019D02*
X147294411Y-88983019D01*
X147294411Y-88983019D02*
X147627744Y-89697304D01*
X147627744Y-89697304D02*
X147961077Y-88983019D01*
X147961077Y-88983019D02*
X147961077Y-89983019D01*
X148294411Y-88983019D02*
X148865839Y-88983019D01*
X148580125Y-89983019D02*
X148580125Y-88983019D01*
X149199173Y-89983019D02*
X149199173Y-88983019D01*
X149199173Y-88983019D02*
X149532506Y-89697304D01*
X149532506Y-89697304D02*
X149865839Y-88983019D01*
X149865839Y-88983019D02*
X149865839Y-89983019D01*
X150294411Y-89935400D02*
X150437268Y-89983019D01*
X150437268Y-89983019D02*
X150675363Y-89983019D01*
X150675363Y-89983019D02*
X150770601Y-89935400D01*
X150770601Y-89935400D02*
X150818220Y-89887780D01*
X150818220Y-89887780D02*
X150865839Y-89792542D01*
X150865839Y-89792542D02*
X150865839Y-89697304D01*
X150865839Y-89697304D02*
X150818220Y-89602066D01*
X150818220Y-89602066D02*
X150770601Y-89554447D01*
X150770601Y-89554447D02*
X150675363Y-89506828D01*
X150675363Y-89506828D02*
X150484887Y-89459209D01*
X150484887Y-89459209D02*
X150389649Y-89411590D01*
X150389649Y-89411590D02*
X150342030Y-89363971D01*
X150342030Y-89363971D02*
X150294411Y-89268733D01*
X150294411Y-89268733D02*
X150294411Y-89173495D01*
X150294411Y-89173495D02*
X150342030Y-89078257D01*
X150342030Y-89078257D02*
X150389649Y-89030638D01*
X150389649Y-89030638D02*
X150484887Y-88983019D01*
X150484887Y-88983019D02*
X150722982Y-88983019D01*
X150722982Y-88983019D02*
X150865839Y-89030638D01*
X129555588Y-94110638D02*
X129460350Y-94063019D01*
X129460350Y-94063019D02*
X129317493Y-94063019D01*
X129317493Y-94063019D02*
X129174636Y-94110638D01*
X129174636Y-94110638D02*
X129079398Y-94205876D01*
X129079398Y-94205876D02*
X129031779Y-94301114D01*
X129031779Y-94301114D02*
X128984160Y-94491590D01*
X128984160Y-94491590D02*
X128984160Y-94634447D01*
X128984160Y-94634447D02*
X129031779Y-94824923D01*
X129031779Y-94824923D02*
X129079398Y-94920161D01*
X129079398Y-94920161D02*
X129174636Y-95015400D01*
X129174636Y-95015400D02*
X129317493Y-95063019D01*
X129317493Y-95063019D02*
X129412731Y-95063019D01*
X129412731Y-95063019D02*
X129555588Y-95015400D01*
X129555588Y-95015400D02*
X129603207Y-94967780D01*
X129603207Y-94967780D02*
X129603207Y-94634447D01*
X129603207Y-94634447D02*
X129412731Y-94634447D01*
X130031779Y-95063019D02*
X130031779Y-94063019D01*
X130031779Y-94063019D02*
X130412731Y-94063019D01*
X130412731Y-94063019D02*
X130507969Y-94110638D01*
X130507969Y-94110638D02*
X130555588Y-94158257D01*
X130555588Y-94158257D02*
X130603207Y-94253495D01*
X130603207Y-94253495D02*
X130603207Y-94396352D01*
X130603207Y-94396352D02*
X130555588Y-94491590D01*
X130555588Y-94491590D02*
X130507969Y-94539209D01*
X130507969Y-94539209D02*
X130412731Y-94586828D01*
X130412731Y-94586828D02*
X130031779Y-94586828D01*
X131031779Y-95063019D02*
X131031779Y-94063019D01*
X131698445Y-94063019D02*
X131888921Y-94063019D01*
X131888921Y-94063019D02*
X131984159Y-94110638D01*
X131984159Y-94110638D02*
X132079397Y-94205876D01*
X132079397Y-94205876D02*
X132127016Y-94396352D01*
X132127016Y-94396352D02*
X132127016Y-94729685D01*
X132127016Y-94729685D02*
X132079397Y-94920161D01*
X132079397Y-94920161D02*
X131984159Y-95015400D01*
X131984159Y-95015400D02*
X131888921Y-95063019D01*
X131888921Y-95063019D02*
X131698445Y-95063019D01*
X131698445Y-95063019D02*
X131603207Y-95015400D01*
X131603207Y-95015400D02*
X131507969Y-94920161D01*
X131507969Y-94920161D02*
X131460350Y-94729685D01*
X131460350Y-94729685D02*
X131460350Y-94396352D01*
X131460350Y-94396352D02*
X131507969Y-94205876D01*
X131507969Y-94205876D02*
X131603207Y-94110638D01*
X131603207Y-94110638D02*
X131698445Y-94063019D01*
X133079397Y-95063019D02*
X132507969Y-95063019D01*
X132793683Y-95063019D02*
X132793683Y-94063019D01*
X132793683Y-94063019D02*
X132698445Y-94205876D01*
X132698445Y-94205876D02*
X132603207Y-94301114D01*
X132603207Y-94301114D02*
X132507969Y-94348733D01*
X133984159Y-94063019D02*
X133507969Y-94063019D01*
X133507969Y-94063019D02*
X133460350Y-94539209D01*
X133460350Y-94539209D02*
X133507969Y-94491590D01*
X133507969Y-94491590D02*
X133603207Y-94443971D01*
X133603207Y-94443971D02*
X133841302Y-94443971D01*
X133841302Y-94443971D02*
X133936540Y-94491590D01*
X133936540Y-94491590D02*
X133984159Y-94539209D01*
X133984159Y-94539209D02*
X134031778Y-94634447D01*
X134031778Y-94634447D02*
X134031778Y-94872542D01*
X134031778Y-94872542D02*
X133984159Y-94967780D01*
X133984159Y-94967780D02*
X133936540Y-95015400D01*
X133936540Y-95015400D02*
X133841302Y-95063019D01*
X133841302Y-95063019D02*
X133603207Y-95063019D01*
X133603207Y-95063019D02*
X133507969Y-95015400D01*
X133507969Y-95015400D02*
X133460350Y-94967780D01*
X148770601Y-127130638D02*
X148675363Y-127083019D01*
X148675363Y-127083019D02*
X148532506Y-127083019D01*
X148532506Y-127083019D02*
X148389649Y-127130638D01*
X148389649Y-127130638D02*
X148294411Y-127225876D01*
X148294411Y-127225876D02*
X148246792Y-127321114D01*
X148246792Y-127321114D02*
X148199173Y-127511590D01*
X148199173Y-127511590D02*
X148199173Y-127654447D01*
X148199173Y-127654447D02*
X148246792Y-127844923D01*
X148246792Y-127844923D02*
X148294411Y-127940161D01*
X148294411Y-127940161D02*
X148389649Y-128035400D01*
X148389649Y-128035400D02*
X148532506Y-128083019D01*
X148532506Y-128083019D02*
X148627744Y-128083019D01*
X148627744Y-128083019D02*
X148770601Y-128035400D01*
X148770601Y-128035400D02*
X148818220Y-127987780D01*
X148818220Y-127987780D02*
X148818220Y-127654447D01*
X148818220Y-127654447D02*
X148627744Y-127654447D01*
X149246792Y-128083019D02*
X149246792Y-127083019D01*
X149246792Y-127083019D02*
X149818220Y-128083019D01*
X149818220Y-128083019D02*
X149818220Y-127083019D01*
X150294411Y-128083019D02*
X150294411Y-127083019D01*
X150294411Y-127083019D02*
X150532506Y-127083019D01*
X150532506Y-127083019D02*
X150675363Y-127130638D01*
X150675363Y-127130638D02*
X150770601Y-127225876D01*
X150770601Y-127225876D02*
X150818220Y-127321114D01*
X150818220Y-127321114D02*
X150865839Y-127511590D01*
X150865839Y-127511590D02*
X150865839Y-127654447D01*
X150865839Y-127654447D02*
X150818220Y-127844923D01*
X150818220Y-127844923D02*
X150770601Y-127940161D01*
X150770601Y-127940161D02*
X150675363Y-128035400D01*
X150675363Y-128035400D02*
X150532506Y-128083019D01*
X150532506Y-128083019D02*
X150294411Y-128083019D01*
X147342030Y-109350638D02*
X147246792Y-109303019D01*
X147246792Y-109303019D02*
X147103935Y-109303019D01*
X147103935Y-109303019D02*
X146961078Y-109350638D01*
X146961078Y-109350638D02*
X146865840Y-109445876D01*
X146865840Y-109445876D02*
X146818221Y-109541114D01*
X146818221Y-109541114D02*
X146770602Y-109731590D01*
X146770602Y-109731590D02*
X146770602Y-109874447D01*
X146770602Y-109874447D02*
X146818221Y-110064923D01*
X146818221Y-110064923D02*
X146865840Y-110160161D01*
X146865840Y-110160161D02*
X146961078Y-110255400D01*
X146961078Y-110255400D02*
X147103935Y-110303019D01*
X147103935Y-110303019D02*
X147199173Y-110303019D01*
X147199173Y-110303019D02*
X147342030Y-110255400D01*
X147342030Y-110255400D02*
X147389649Y-110207780D01*
X147389649Y-110207780D02*
X147389649Y-109874447D01*
X147389649Y-109874447D02*
X147199173Y-109874447D01*
X147818221Y-110303019D02*
X147818221Y-109303019D01*
X147818221Y-109303019D02*
X148199173Y-109303019D01*
X148199173Y-109303019D02*
X148294411Y-109350638D01*
X148294411Y-109350638D02*
X148342030Y-109398257D01*
X148342030Y-109398257D02*
X148389649Y-109493495D01*
X148389649Y-109493495D02*
X148389649Y-109636352D01*
X148389649Y-109636352D02*
X148342030Y-109731590D01*
X148342030Y-109731590D02*
X148294411Y-109779209D01*
X148294411Y-109779209D02*
X148199173Y-109826828D01*
X148199173Y-109826828D02*
X147818221Y-109826828D01*
X148818221Y-110303019D02*
X148818221Y-109303019D01*
X149484887Y-109303019D02*
X149675363Y-109303019D01*
X149675363Y-109303019D02*
X149770601Y-109350638D01*
X149770601Y-109350638D02*
X149865839Y-109445876D01*
X149865839Y-109445876D02*
X149913458Y-109636352D01*
X149913458Y-109636352D02*
X149913458Y-109969685D01*
X149913458Y-109969685D02*
X149865839Y-110160161D01*
X149865839Y-110160161D02*
X149770601Y-110255400D01*
X149770601Y-110255400D02*
X149675363Y-110303019D01*
X149675363Y-110303019D02*
X149484887Y-110303019D01*
X149484887Y-110303019D02*
X149389649Y-110255400D01*
X149389649Y-110255400D02*
X149294411Y-110160161D01*
X149294411Y-110160161D02*
X149246792Y-109969685D01*
X149246792Y-109969685D02*
X149246792Y-109636352D01*
X149246792Y-109636352D02*
X149294411Y-109445876D01*
X149294411Y-109445876D02*
X149389649Y-109350638D01*
X149389649Y-109350638D02*
X149484887Y-109303019D01*
X150532506Y-109303019D02*
X150627744Y-109303019D01*
X150627744Y-109303019D02*
X150722982Y-109350638D01*
X150722982Y-109350638D02*
X150770601Y-109398257D01*
X150770601Y-109398257D02*
X150818220Y-109493495D01*
X150818220Y-109493495D02*
X150865839Y-109683971D01*
X150865839Y-109683971D02*
X150865839Y-109922066D01*
X150865839Y-109922066D02*
X150818220Y-110112542D01*
X150818220Y-110112542D02*
X150770601Y-110207780D01*
X150770601Y-110207780D02*
X150722982Y-110255400D01*
X150722982Y-110255400D02*
X150627744Y-110303019D01*
X150627744Y-110303019D02*
X150532506Y-110303019D01*
X150532506Y-110303019D02*
X150437268Y-110255400D01*
X150437268Y-110255400D02*
X150389649Y-110207780D01*
X150389649Y-110207780D02*
X150342030Y-110112542D01*
X150342030Y-110112542D02*
X150294411Y-109922066D01*
X150294411Y-109922066D02*
X150294411Y-109683971D01*
X150294411Y-109683971D02*
X150342030Y-109493495D01*
X150342030Y-109493495D02*
X150389649Y-109398257D01*
X150389649Y-109398257D02*
X150437268Y-109350638D01*
X150437268Y-109350638D02*
X150532506Y-109303019D01*
X147342030Y-86490638D02*
X147246792Y-86443019D01*
X147246792Y-86443019D02*
X147103935Y-86443019D01*
X147103935Y-86443019D02*
X146961078Y-86490638D01*
X146961078Y-86490638D02*
X146865840Y-86585876D01*
X146865840Y-86585876D02*
X146818221Y-86681114D01*
X146818221Y-86681114D02*
X146770602Y-86871590D01*
X146770602Y-86871590D02*
X146770602Y-87014447D01*
X146770602Y-87014447D02*
X146818221Y-87204923D01*
X146818221Y-87204923D02*
X146865840Y-87300161D01*
X146865840Y-87300161D02*
X146961078Y-87395400D01*
X146961078Y-87395400D02*
X147103935Y-87443019D01*
X147103935Y-87443019D02*
X147199173Y-87443019D01*
X147199173Y-87443019D02*
X147342030Y-87395400D01*
X147342030Y-87395400D02*
X147389649Y-87347780D01*
X147389649Y-87347780D02*
X147389649Y-87014447D01*
X147389649Y-87014447D02*
X147199173Y-87014447D01*
X147818221Y-87443019D02*
X147818221Y-86443019D01*
X147818221Y-86443019D02*
X148199173Y-86443019D01*
X148199173Y-86443019D02*
X148294411Y-86490638D01*
X148294411Y-86490638D02*
X148342030Y-86538257D01*
X148342030Y-86538257D02*
X148389649Y-86633495D01*
X148389649Y-86633495D02*
X148389649Y-86776352D01*
X148389649Y-86776352D02*
X148342030Y-86871590D01*
X148342030Y-86871590D02*
X148294411Y-86919209D01*
X148294411Y-86919209D02*
X148199173Y-86966828D01*
X148199173Y-86966828D02*
X147818221Y-86966828D01*
X148818221Y-87443019D02*
X148818221Y-86443019D01*
X149484887Y-86443019D02*
X149675363Y-86443019D01*
X149675363Y-86443019D02*
X149770601Y-86490638D01*
X149770601Y-86490638D02*
X149865839Y-86585876D01*
X149865839Y-86585876D02*
X149913458Y-86776352D01*
X149913458Y-86776352D02*
X149913458Y-87109685D01*
X149913458Y-87109685D02*
X149865839Y-87300161D01*
X149865839Y-87300161D02*
X149770601Y-87395400D01*
X149770601Y-87395400D02*
X149675363Y-87443019D01*
X149675363Y-87443019D02*
X149484887Y-87443019D01*
X149484887Y-87443019D02*
X149389649Y-87395400D01*
X149389649Y-87395400D02*
X149294411Y-87300161D01*
X149294411Y-87300161D02*
X149246792Y-87109685D01*
X149246792Y-87109685D02*
X149246792Y-86776352D01*
X149246792Y-86776352D02*
X149294411Y-86585876D01*
X149294411Y-86585876D02*
X149389649Y-86490638D01*
X149389649Y-86490638D02*
X149484887Y-86443019D01*
X150294411Y-86538257D02*
X150342030Y-86490638D01*
X150342030Y-86490638D02*
X150437268Y-86443019D01*
X150437268Y-86443019D02*
X150675363Y-86443019D01*
X150675363Y-86443019D02*
X150770601Y-86490638D01*
X150770601Y-86490638D02*
X150818220Y-86538257D01*
X150818220Y-86538257D02*
X150865839Y-86633495D01*
X150865839Y-86633495D02*
X150865839Y-86728733D01*
X150865839Y-86728733D02*
X150818220Y-86871590D01*
X150818220Y-86871590D02*
X150246792Y-87443019D01*
X150246792Y-87443019D02*
X150865839Y-87443019D01*
X140627744Y-78870638D02*
X140532506Y-78823019D01*
X140532506Y-78823019D02*
X140389649Y-78823019D01*
X140389649Y-78823019D02*
X140246792Y-78870638D01*
X140246792Y-78870638D02*
X140151554Y-78965876D01*
X140151554Y-78965876D02*
X140103935Y-79061114D01*
X140103935Y-79061114D02*
X140056316Y-79251590D01*
X140056316Y-79251590D02*
X140056316Y-79394447D01*
X140056316Y-79394447D02*
X140103935Y-79584923D01*
X140103935Y-79584923D02*
X140151554Y-79680161D01*
X140151554Y-79680161D02*
X140246792Y-79775400D01*
X140246792Y-79775400D02*
X140389649Y-79823019D01*
X140389649Y-79823019D02*
X140484887Y-79823019D01*
X140484887Y-79823019D02*
X140627744Y-79775400D01*
X140627744Y-79775400D02*
X140675363Y-79727780D01*
X140675363Y-79727780D02*
X140675363Y-79394447D01*
X140675363Y-79394447D02*
X140484887Y-79394447D01*
X141103935Y-79823019D02*
X141103935Y-78823019D01*
X141103935Y-78823019D02*
X141484887Y-78823019D01*
X141484887Y-78823019D02*
X141580125Y-78870638D01*
X141580125Y-78870638D02*
X141627744Y-78918257D01*
X141627744Y-78918257D02*
X141675363Y-79013495D01*
X141675363Y-79013495D02*
X141675363Y-79156352D01*
X141675363Y-79156352D02*
X141627744Y-79251590D01*
X141627744Y-79251590D02*
X141580125Y-79299209D01*
X141580125Y-79299209D02*
X141484887Y-79346828D01*
X141484887Y-79346828D02*
X141103935Y-79346828D01*
X142103935Y-79823019D02*
X142103935Y-78823019D01*
X142770601Y-78823019D02*
X142961077Y-78823019D01*
X142961077Y-78823019D02*
X143056315Y-78870638D01*
X143056315Y-78870638D02*
X143151553Y-78965876D01*
X143151553Y-78965876D02*
X143199172Y-79156352D01*
X143199172Y-79156352D02*
X143199172Y-79489685D01*
X143199172Y-79489685D02*
X143151553Y-79680161D01*
X143151553Y-79680161D02*
X143056315Y-79775400D01*
X143056315Y-79775400D02*
X142961077Y-79823019D01*
X142961077Y-79823019D02*
X142770601Y-79823019D01*
X142770601Y-79823019D02*
X142675363Y-79775400D01*
X142675363Y-79775400D02*
X142580125Y-79680161D01*
X142580125Y-79680161D02*
X142532506Y-79489685D01*
X142532506Y-79489685D02*
X142532506Y-79156352D01*
X142532506Y-79156352D02*
X142580125Y-78965876D01*
X142580125Y-78965876D02*
X142675363Y-78870638D01*
X142675363Y-78870638D02*
X142770601Y-78823019D01*
X144056315Y-79156352D02*
X144056315Y-79823019D01*
X143818220Y-78775400D02*
X143580125Y-79489685D01*
X143580125Y-79489685D02*
X144199172Y-79489685D01*
X144484887Y-78823019D02*
X145103934Y-78823019D01*
X145103934Y-78823019D02*
X144770601Y-79203971D01*
X144770601Y-79203971D02*
X144913458Y-79203971D01*
X144913458Y-79203971D02*
X145008696Y-79251590D01*
X145008696Y-79251590D02*
X145056315Y-79299209D01*
X145056315Y-79299209D02*
X145103934Y-79394447D01*
X145103934Y-79394447D02*
X145103934Y-79632542D01*
X145103934Y-79632542D02*
X145056315Y-79727780D01*
X145056315Y-79727780D02*
X145008696Y-79775400D01*
X145008696Y-79775400D02*
X144913458Y-79823019D01*
X144913458Y-79823019D02*
X144627744Y-79823019D01*
X144627744Y-79823019D02*
X144532506Y-79775400D01*
X144532506Y-79775400D02*
X144484887Y-79727780D01*
X146246791Y-78775400D02*
X145389649Y-80061114D01*
X146580125Y-78823019D02*
X146580125Y-79632542D01*
X146580125Y-79632542D02*
X146627744Y-79727780D01*
X146627744Y-79727780D02*
X146675363Y-79775400D01*
X146675363Y-79775400D02*
X146770601Y-79823019D01*
X146770601Y-79823019D02*
X146961077Y-79823019D01*
X146961077Y-79823019D02*
X147056315Y-79775400D01*
X147056315Y-79775400D02*
X147103934Y-79727780D01*
X147103934Y-79727780D02*
X147151553Y-79632542D01*
X147151553Y-79632542D02*
X147151553Y-78823019D01*
X147818220Y-78823019D02*
X147913458Y-78823019D01*
X147913458Y-78823019D02*
X148008696Y-78870638D01*
X148008696Y-78870638D02*
X148056315Y-78918257D01*
X148056315Y-78918257D02*
X148103934Y-79013495D01*
X148103934Y-79013495D02*
X148151553Y-79203971D01*
X148151553Y-79203971D02*
X148151553Y-79442066D01*
X148151553Y-79442066D02*
X148103934Y-79632542D01*
X148103934Y-79632542D02*
X148056315Y-79727780D01*
X148056315Y-79727780D02*
X148008696Y-79775400D01*
X148008696Y-79775400D02*
X147913458Y-79823019D01*
X147913458Y-79823019D02*
X147818220Y-79823019D01*
X147818220Y-79823019D02*
X147722982Y-79775400D01*
X147722982Y-79775400D02*
X147675363Y-79727780D01*
X147675363Y-79727780D02*
X147627744Y-79632542D01*
X147627744Y-79632542D02*
X147580125Y-79442066D01*
X147580125Y-79442066D02*
X147580125Y-79203971D01*
X147580125Y-79203971D02*
X147627744Y-79013495D01*
X147627744Y-79013495D02*
X147675363Y-78918257D01*
X147675363Y-78918257D02*
X147722982Y-78870638D01*
X147722982Y-78870638D02*
X147818220Y-78823019D01*
X148437268Y-78823019D02*
X149008696Y-78823019D01*
X148722982Y-79823019D02*
X148722982Y-78823019D01*
X149246792Y-78823019D02*
X149913458Y-79823019D01*
X149913458Y-78823019D02*
X149246792Y-79823019D01*
X150294411Y-79823019D02*
X150294411Y-78823019D01*
X150294411Y-78823019D02*
X150532506Y-78823019D01*
X150532506Y-78823019D02*
X150675363Y-78870638D01*
X150675363Y-78870638D02*
X150770601Y-78965876D01*
X150770601Y-78965876D02*
X150818220Y-79061114D01*
X150818220Y-79061114D02*
X150865839Y-79251590D01*
X150865839Y-79251590D02*
X150865839Y-79394447D01*
X150865839Y-79394447D02*
X150818220Y-79584923D01*
X150818220Y-79584923D02*
X150770601Y-79680161D01*
X150770601Y-79680161D02*
X150675363Y-79775400D01*
X150675363Y-79775400D02*
X150532506Y-79823019D01*
X150532506Y-79823019D02*
X150294411Y-79823019D01*
X129555588Y-96650638D02*
X129460350Y-96603019D01*
X129460350Y-96603019D02*
X129317493Y-96603019D01*
X129317493Y-96603019D02*
X129174636Y-96650638D01*
X129174636Y-96650638D02*
X129079398Y-96745876D01*
X129079398Y-96745876D02*
X129031779Y-96841114D01*
X129031779Y-96841114D02*
X128984160Y-97031590D01*
X128984160Y-97031590D02*
X128984160Y-97174447D01*
X128984160Y-97174447D02*
X129031779Y-97364923D01*
X129031779Y-97364923D02*
X129079398Y-97460161D01*
X129079398Y-97460161D02*
X129174636Y-97555400D01*
X129174636Y-97555400D02*
X129317493Y-97603019D01*
X129317493Y-97603019D02*
X129412731Y-97603019D01*
X129412731Y-97603019D02*
X129555588Y-97555400D01*
X129555588Y-97555400D02*
X129603207Y-97507780D01*
X129603207Y-97507780D02*
X129603207Y-97174447D01*
X129603207Y-97174447D02*
X129412731Y-97174447D01*
X130031779Y-97603019D02*
X130031779Y-96603019D01*
X130031779Y-96603019D02*
X130412731Y-96603019D01*
X130412731Y-96603019D02*
X130507969Y-96650638D01*
X130507969Y-96650638D02*
X130555588Y-96698257D01*
X130555588Y-96698257D02*
X130603207Y-96793495D01*
X130603207Y-96793495D02*
X130603207Y-96936352D01*
X130603207Y-96936352D02*
X130555588Y-97031590D01*
X130555588Y-97031590D02*
X130507969Y-97079209D01*
X130507969Y-97079209D02*
X130412731Y-97126828D01*
X130412731Y-97126828D02*
X130031779Y-97126828D01*
X131031779Y-97603019D02*
X131031779Y-96603019D01*
X131698445Y-96603019D02*
X131888921Y-96603019D01*
X131888921Y-96603019D02*
X131984159Y-96650638D01*
X131984159Y-96650638D02*
X132079397Y-96745876D01*
X132079397Y-96745876D02*
X132127016Y-96936352D01*
X132127016Y-96936352D02*
X132127016Y-97269685D01*
X132127016Y-97269685D02*
X132079397Y-97460161D01*
X132079397Y-97460161D02*
X131984159Y-97555400D01*
X131984159Y-97555400D02*
X131888921Y-97603019D01*
X131888921Y-97603019D02*
X131698445Y-97603019D01*
X131698445Y-97603019D02*
X131603207Y-97555400D01*
X131603207Y-97555400D02*
X131507969Y-97460161D01*
X131507969Y-97460161D02*
X131460350Y-97269685D01*
X131460350Y-97269685D02*
X131460350Y-96936352D01*
X131460350Y-96936352D02*
X131507969Y-96745876D01*
X131507969Y-96745876D02*
X131603207Y-96650638D01*
X131603207Y-96650638D02*
X131698445Y-96603019D01*
X133079397Y-97603019D02*
X132507969Y-97603019D01*
X132793683Y-97603019D02*
X132793683Y-96603019D01*
X132793683Y-96603019D02*
X132698445Y-96745876D01*
X132698445Y-96745876D02*
X132603207Y-96841114D01*
X132603207Y-96841114D02*
X132507969Y-96888733D01*
X133936540Y-96603019D02*
X133746064Y-96603019D01*
X133746064Y-96603019D02*
X133650826Y-96650638D01*
X133650826Y-96650638D02*
X133603207Y-96698257D01*
X133603207Y-96698257D02*
X133507969Y-96841114D01*
X133507969Y-96841114D02*
X133460350Y-97031590D01*
X133460350Y-97031590D02*
X133460350Y-97412542D01*
X133460350Y-97412542D02*
X133507969Y-97507780D01*
X133507969Y-97507780D02*
X133555588Y-97555400D01*
X133555588Y-97555400D02*
X133650826Y-97603019D01*
X133650826Y-97603019D02*
X133841302Y-97603019D01*
X133841302Y-97603019D02*
X133936540Y-97555400D01*
X133936540Y-97555400D02*
X133984159Y-97507780D01*
X133984159Y-97507780D02*
X134031778Y-97412542D01*
X134031778Y-97412542D02*
X134031778Y-97174447D01*
X134031778Y-97174447D02*
X133984159Y-97079209D01*
X133984159Y-97079209D02*
X133936540Y-97031590D01*
X133936540Y-97031590D02*
X133841302Y-96983971D01*
X133841302Y-96983971D02*
X133650826Y-96983971D01*
X133650826Y-96983971D02*
X133555588Y-97031590D01*
X133555588Y-97031590D02*
X133507969Y-97079209D01*
X133507969Y-97079209D02*
X133460350Y-97174447D01*
X146389649Y-111890638D02*
X146294411Y-111843019D01*
X146294411Y-111843019D02*
X146151554Y-111843019D01*
X146151554Y-111843019D02*
X146008697Y-111890638D01*
X146008697Y-111890638D02*
X145913459Y-111985876D01*
X145913459Y-111985876D02*
X145865840Y-112081114D01*
X145865840Y-112081114D02*
X145818221Y-112271590D01*
X145818221Y-112271590D02*
X145818221Y-112414447D01*
X145818221Y-112414447D02*
X145865840Y-112604923D01*
X145865840Y-112604923D02*
X145913459Y-112700161D01*
X145913459Y-112700161D02*
X146008697Y-112795400D01*
X146008697Y-112795400D02*
X146151554Y-112843019D01*
X146151554Y-112843019D02*
X146246792Y-112843019D01*
X146246792Y-112843019D02*
X146389649Y-112795400D01*
X146389649Y-112795400D02*
X146437268Y-112747780D01*
X146437268Y-112747780D02*
X146437268Y-112414447D01*
X146437268Y-112414447D02*
X146246792Y-112414447D01*
X146865840Y-112843019D02*
X146865840Y-111843019D01*
X146865840Y-111843019D02*
X147246792Y-111843019D01*
X147246792Y-111843019D02*
X147342030Y-111890638D01*
X147342030Y-111890638D02*
X147389649Y-111938257D01*
X147389649Y-111938257D02*
X147437268Y-112033495D01*
X147437268Y-112033495D02*
X147437268Y-112176352D01*
X147437268Y-112176352D02*
X147389649Y-112271590D01*
X147389649Y-112271590D02*
X147342030Y-112319209D01*
X147342030Y-112319209D02*
X147246792Y-112366828D01*
X147246792Y-112366828D02*
X146865840Y-112366828D01*
X147865840Y-112843019D02*
X147865840Y-111843019D01*
X148532506Y-111843019D02*
X148722982Y-111843019D01*
X148722982Y-111843019D02*
X148818220Y-111890638D01*
X148818220Y-111890638D02*
X148913458Y-111985876D01*
X148913458Y-111985876D02*
X148961077Y-112176352D01*
X148961077Y-112176352D02*
X148961077Y-112509685D01*
X148961077Y-112509685D02*
X148913458Y-112700161D01*
X148913458Y-112700161D02*
X148818220Y-112795400D01*
X148818220Y-112795400D02*
X148722982Y-112843019D01*
X148722982Y-112843019D02*
X148532506Y-112843019D01*
X148532506Y-112843019D02*
X148437268Y-112795400D01*
X148437268Y-112795400D02*
X148342030Y-112700161D01*
X148342030Y-112700161D02*
X148294411Y-112509685D01*
X148294411Y-112509685D02*
X148294411Y-112176352D01*
X148294411Y-112176352D02*
X148342030Y-111985876D01*
X148342030Y-111985876D02*
X148437268Y-111890638D01*
X148437268Y-111890638D02*
X148532506Y-111843019D01*
X149818220Y-112176352D02*
X149818220Y-112843019D01*
X149580125Y-111795400D02*
X149342030Y-112509685D01*
X149342030Y-112509685D02*
X149961077Y-112509685D01*
X150818220Y-111843019D02*
X150342030Y-111843019D01*
X150342030Y-111843019D02*
X150294411Y-112319209D01*
X150294411Y-112319209D02*
X150342030Y-112271590D01*
X150342030Y-112271590D02*
X150437268Y-112223971D01*
X150437268Y-112223971D02*
X150675363Y-112223971D01*
X150675363Y-112223971D02*
X150770601Y-112271590D01*
X150770601Y-112271590D02*
X150818220Y-112319209D01*
X150818220Y-112319209D02*
X150865839Y-112414447D01*
X150865839Y-112414447D02*
X150865839Y-112652542D01*
X150865839Y-112652542D02*
X150818220Y-112747780D01*
X150818220Y-112747780D02*
X150770601Y-112795400D01*
X150770601Y-112795400D02*
X150675363Y-112843019D01*
X150675363Y-112843019D02*
X150437268Y-112843019D01*
X150437268Y-112843019D02*
X150342030Y-112795400D01*
X150342030Y-112795400D02*
X150294411Y-112747780D01*
X129555588Y-106810638D02*
X129460350Y-106763019D01*
X129460350Y-106763019D02*
X129317493Y-106763019D01*
X129317493Y-106763019D02*
X129174636Y-106810638D01*
X129174636Y-106810638D02*
X129079398Y-106905876D01*
X129079398Y-106905876D02*
X129031779Y-107001114D01*
X129031779Y-107001114D02*
X128984160Y-107191590D01*
X128984160Y-107191590D02*
X128984160Y-107334447D01*
X128984160Y-107334447D02*
X129031779Y-107524923D01*
X129031779Y-107524923D02*
X129079398Y-107620161D01*
X129079398Y-107620161D02*
X129174636Y-107715400D01*
X129174636Y-107715400D02*
X129317493Y-107763019D01*
X129317493Y-107763019D02*
X129412731Y-107763019D01*
X129412731Y-107763019D02*
X129555588Y-107715400D01*
X129555588Y-107715400D02*
X129603207Y-107667780D01*
X129603207Y-107667780D02*
X129603207Y-107334447D01*
X129603207Y-107334447D02*
X129412731Y-107334447D01*
X130031779Y-107763019D02*
X130031779Y-106763019D01*
X130031779Y-106763019D02*
X130412731Y-106763019D01*
X130412731Y-106763019D02*
X130507969Y-106810638D01*
X130507969Y-106810638D02*
X130555588Y-106858257D01*
X130555588Y-106858257D02*
X130603207Y-106953495D01*
X130603207Y-106953495D02*
X130603207Y-107096352D01*
X130603207Y-107096352D02*
X130555588Y-107191590D01*
X130555588Y-107191590D02*
X130507969Y-107239209D01*
X130507969Y-107239209D02*
X130412731Y-107286828D01*
X130412731Y-107286828D02*
X130031779Y-107286828D01*
X131031779Y-107763019D02*
X131031779Y-106763019D01*
X131698445Y-106763019D02*
X131888921Y-106763019D01*
X131888921Y-106763019D02*
X131984159Y-106810638D01*
X131984159Y-106810638D02*
X132079397Y-106905876D01*
X132079397Y-106905876D02*
X132127016Y-107096352D01*
X132127016Y-107096352D02*
X132127016Y-107429685D01*
X132127016Y-107429685D02*
X132079397Y-107620161D01*
X132079397Y-107620161D02*
X131984159Y-107715400D01*
X131984159Y-107715400D02*
X131888921Y-107763019D01*
X131888921Y-107763019D02*
X131698445Y-107763019D01*
X131698445Y-107763019D02*
X131603207Y-107715400D01*
X131603207Y-107715400D02*
X131507969Y-107620161D01*
X131507969Y-107620161D02*
X131460350Y-107429685D01*
X131460350Y-107429685D02*
X131460350Y-107096352D01*
X131460350Y-107096352D02*
X131507969Y-106905876D01*
X131507969Y-106905876D02*
X131603207Y-106810638D01*
X131603207Y-106810638D02*
X131698445Y-106763019D01*
X132460350Y-106763019D02*
X133079397Y-106763019D01*
X133079397Y-106763019D02*
X132746064Y-107143971D01*
X132746064Y-107143971D02*
X132888921Y-107143971D01*
X132888921Y-107143971D02*
X132984159Y-107191590D01*
X132984159Y-107191590D02*
X133031778Y-107239209D01*
X133031778Y-107239209D02*
X133079397Y-107334447D01*
X133079397Y-107334447D02*
X133079397Y-107572542D01*
X133079397Y-107572542D02*
X133031778Y-107667780D01*
X133031778Y-107667780D02*
X132984159Y-107715400D01*
X132984159Y-107715400D02*
X132888921Y-107763019D01*
X132888921Y-107763019D02*
X132603207Y-107763019D01*
X132603207Y-107763019D02*
X132507969Y-107715400D01*
X132507969Y-107715400D02*
X132460350Y-107667780D01*
X146389649Y-99190638D02*
X146294411Y-99143019D01*
X146294411Y-99143019D02*
X146151554Y-99143019D01*
X146151554Y-99143019D02*
X146008697Y-99190638D01*
X146008697Y-99190638D02*
X145913459Y-99285876D01*
X145913459Y-99285876D02*
X145865840Y-99381114D01*
X145865840Y-99381114D02*
X145818221Y-99571590D01*
X145818221Y-99571590D02*
X145818221Y-99714447D01*
X145818221Y-99714447D02*
X145865840Y-99904923D01*
X145865840Y-99904923D02*
X145913459Y-100000161D01*
X145913459Y-100000161D02*
X146008697Y-100095400D01*
X146008697Y-100095400D02*
X146151554Y-100143019D01*
X146151554Y-100143019D02*
X146246792Y-100143019D01*
X146246792Y-100143019D02*
X146389649Y-100095400D01*
X146389649Y-100095400D02*
X146437268Y-100047780D01*
X146437268Y-100047780D02*
X146437268Y-99714447D01*
X146437268Y-99714447D02*
X146246792Y-99714447D01*
X146865840Y-100143019D02*
X146865840Y-99143019D01*
X146865840Y-99143019D02*
X147246792Y-99143019D01*
X147246792Y-99143019D02*
X147342030Y-99190638D01*
X147342030Y-99190638D02*
X147389649Y-99238257D01*
X147389649Y-99238257D02*
X147437268Y-99333495D01*
X147437268Y-99333495D02*
X147437268Y-99476352D01*
X147437268Y-99476352D02*
X147389649Y-99571590D01*
X147389649Y-99571590D02*
X147342030Y-99619209D01*
X147342030Y-99619209D02*
X147246792Y-99666828D01*
X147246792Y-99666828D02*
X146865840Y-99666828D01*
X147865840Y-100143019D02*
X147865840Y-99143019D01*
X148532506Y-99143019D02*
X148722982Y-99143019D01*
X148722982Y-99143019D02*
X148818220Y-99190638D01*
X148818220Y-99190638D02*
X148913458Y-99285876D01*
X148913458Y-99285876D02*
X148961077Y-99476352D01*
X148961077Y-99476352D02*
X148961077Y-99809685D01*
X148961077Y-99809685D02*
X148913458Y-100000161D01*
X148913458Y-100000161D02*
X148818220Y-100095400D01*
X148818220Y-100095400D02*
X148722982Y-100143019D01*
X148722982Y-100143019D02*
X148532506Y-100143019D01*
X148532506Y-100143019D02*
X148437268Y-100095400D01*
X148437268Y-100095400D02*
X148342030Y-100000161D01*
X148342030Y-100000161D02*
X148294411Y-99809685D01*
X148294411Y-99809685D02*
X148294411Y-99476352D01*
X148294411Y-99476352D02*
X148342030Y-99285876D01*
X148342030Y-99285876D02*
X148437268Y-99190638D01*
X148437268Y-99190638D02*
X148532506Y-99143019D01*
X149294411Y-99143019D02*
X149913458Y-99143019D01*
X149913458Y-99143019D02*
X149580125Y-99523971D01*
X149580125Y-99523971D02*
X149722982Y-99523971D01*
X149722982Y-99523971D02*
X149818220Y-99571590D01*
X149818220Y-99571590D02*
X149865839Y-99619209D01*
X149865839Y-99619209D02*
X149913458Y-99714447D01*
X149913458Y-99714447D02*
X149913458Y-99952542D01*
X149913458Y-99952542D02*
X149865839Y-100047780D01*
X149865839Y-100047780D02*
X149818220Y-100095400D01*
X149818220Y-100095400D02*
X149722982Y-100143019D01*
X149722982Y-100143019D02*
X149437268Y-100143019D01*
X149437268Y-100143019D02*
X149342030Y-100095400D01*
X149342030Y-100095400D02*
X149294411Y-100047780D01*
X150484887Y-99571590D02*
X150389649Y-99523971D01*
X150389649Y-99523971D02*
X150342030Y-99476352D01*
X150342030Y-99476352D02*
X150294411Y-99381114D01*
X150294411Y-99381114D02*
X150294411Y-99333495D01*
X150294411Y-99333495D02*
X150342030Y-99238257D01*
X150342030Y-99238257D02*
X150389649Y-99190638D01*
X150389649Y-99190638D02*
X150484887Y-99143019D01*
X150484887Y-99143019D02*
X150675363Y-99143019D01*
X150675363Y-99143019D02*
X150770601Y-99190638D01*
X150770601Y-99190638D02*
X150818220Y-99238257D01*
X150818220Y-99238257D02*
X150865839Y-99333495D01*
X150865839Y-99333495D02*
X150865839Y-99381114D01*
X150865839Y-99381114D02*
X150818220Y-99476352D01*
X150818220Y-99476352D02*
X150770601Y-99523971D01*
X150770601Y-99523971D02*
X150675363Y-99571590D01*
X150675363Y-99571590D02*
X150484887Y-99571590D01*
X150484887Y-99571590D02*
X150389649Y-99619209D01*
X150389649Y-99619209D02*
X150342030Y-99666828D01*
X150342030Y-99666828D02*
X150294411Y-99762066D01*
X150294411Y-99762066D02*
X150294411Y-99952542D01*
X150294411Y-99952542D02*
X150342030Y-100047780D01*
X150342030Y-100047780D02*
X150389649Y-100095400D01*
X150389649Y-100095400D02*
X150484887Y-100143019D01*
X150484887Y-100143019D02*
X150675363Y-100143019D01*
X150675363Y-100143019D02*
X150770601Y-100095400D01*
X150770601Y-100095400D02*
X150818220Y-100047780D01*
X150818220Y-100047780D02*
X150865839Y-99952542D01*
X150865839Y-99952542D02*
X150865839Y-99762066D01*
X150865839Y-99762066D02*
X150818220Y-99666828D01*
X150818220Y-99666828D02*
X150770601Y-99619209D01*
X150770601Y-99619209D02*
X150675363Y-99571590D01*
X146389649Y-104270638D02*
X146294411Y-104223019D01*
X146294411Y-104223019D02*
X146151554Y-104223019D01*
X146151554Y-104223019D02*
X146008697Y-104270638D01*
X146008697Y-104270638D02*
X145913459Y-104365876D01*
X145913459Y-104365876D02*
X145865840Y-104461114D01*
X145865840Y-104461114D02*
X145818221Y-104651590D01*
X145818221Y-104651590D02*
X145818221Y-104794447D01*
X145818221Y-104794447D02*
X145865840Y-104984923D01*
X145865840Y-104984923D02*
X145913459Y-105080161D01*
X145913459Y-105080161D02*
X146008697Y-105175400D01*
X146008697Y-105175400D02*
X146151554Y-105223019D01*
X146151554Y-105223019D02*
X146246792Y-105223019D01*
X146246792Y-105223019D02*
X146389649Y-105175400D01*
X146389649Y-105175400D02*
X146437268Y-105127780D01*
X146437268Y-105127780D02*
X146437268Y-104794447D01*
X146437268Y-104794447D02*
X146246792Y-104794447D01*
X146865840Y-105223019D02*
X146865840Y-104223019D01*
X146865840Y-104223019D02*
X147246792Y-104223019D01*
X147246792Y-104223019D02*
X147342030Y-104270638D01*
X147342030Y-104270638D02*
X147389649Y-104318257D01*
X147389649Y-104318257D02*
X147437268Y-104413495D01*
X147437268Y-104413495D02*
X147437268Y-104556352D01*
X147437268Y-104556352D02*
X147389649Y-104651590D01*
X147389649Y-104651590D02*
X147342030Y-104699209D01*
X147342030Y-104699209D02*
X147246792Y-104746828D01*
X147246792Y-104746828D02*
X146865840Y-104746828D01*
X147865840Y-105223019D02*
X147865840Y-104223019D01*
X148532506Y-104223019D02*
X148722982Y-104223019D01*
X148722982Y-104223019D02*
X148818220Y-104270638D01*
X148818220Y-104270638D02*
X148913458Y-104365876D01*
X148913458Y-104365876D02*
X148961077Y-104556352D01*
X148961077Y-104556352D02*
X148961077Y-104889685D01*
X148961077Y-104889685D02*
X148913458Y-105080161D01*
X148913458Y-105080161D02*
X148818220Y-105175400D01*
X148818220Y-105175400D02*
X148722982Y-105223019D01*
X148722982Y-105223019D02*
X148532506Y-105223019D01*
X148532506Y-105223019D02*
X148437268Y-105175400D01*
X148437268Y-105175400D02*
X148342030Y-105080161D01*
X148342030Y-105080161D02*
X148294411Y-104889685D01*
X148294411Y-104889685D02*
X148294411Y-104556352D01*
X148294411Y-104556352D02*
X148342030Y-104365876D01*
X148342030Y-104365876D02*
X148437268Y-104270638D01*
X148437268Y-104270638D02*
X148532506Y-104223019D01*
X149294411Y-104223019D02*
X149913458Y-104223019D01*
X149913458Y-104223019D02*
X149580125Y-104603971D01*
X149580125Y-104603971D02*
X149722982Y-104603971D01*
X149722982Y-104603971D02*
X149818220Y-104651590D01*
X149818220Y-104651590D02*
X149865839Y-104699209D01*
X149865839Y-104699209D02*
X149913458Y-104794447D01*
X149913458Y-104794447D02*
X149913458Y-105032542D01*
X149913458Y-105032542D02*
X149865839Y-105127780D01*
X149865839Y-105127780D02*
X149818220Y-105175400D01*
X149818220Y-105175400D02*
X149722982Y-105223019D01*
X149722982Y-105223019D02*
X149437268Y-105223019D01*
X149437268Y-105223019D02*
X149342030Y-105175400D01*
X149342030Y-105175400D02*
X149294411Y-105127780D01*
X150770601Y-104223019D02*
X150580125Y-104223019D01*
X150580125Y-104223019D02*
X150484887Y-104270638D01*
X150484887Y-104270638D02*
X150437268Y-104318257D01*
X150437268Y-104318257D02*
X150342030Y-104461114D01*
X150342030Y-104461114D02*
X150294411Y-104651590D01*
X150294411Y-104651590D02*
X150294411Y-105032542D01*
X150294411Y-105032542D02*
X150342030Y-105127780D01*
X150342030Y-105127780D02*
X150389649Y-105175400D01*
X150389649Y-105175400D02*
X150484887Y-105223019D01*
X150484887Y-105223019D02*
X150675363Y-105223019D01*
X150675363Y-105223019D02*
X150770601Y-105175400D01*
X150770601Y-105175400D02*
X150818220Y-105127780D01*
X150818220Y-105127780D02*
X150865839Y-105032542D01*
X150865839Y-105032542D02*
X150865839Y-104794447D01*
X150865839Y-104794447D02*
X150818220Y-104699209D01*
X150818220Y-104699209D02*
X150770601Y-104651590D01*
X150770601Y-104651590D02*
X150675363Y-104603971D01*
X150675363Y-104603971D02*
X150484887Y-104603971D01*
X150484887Y-104603971D02*
X150389649Y-104651590D01*
X150389649Y-104651590D02*
X150342030Y-104699209D01*
X150342030Y-104699209D02*
X150294411Y-104794447D01*
X129555588Y-114430638D02*
X129460350Y-114383019D01*
X129460350Y-114383019D02*
X129317493Y-114383019D01*
X129317493Y-114383019D02*
X129174636Y-114430638D01*
X129174636Y-114430638D02*
X129079398Y-114525876D01*
X129079398Y-114525876D02*
X129031779Y-114621114D01*
X129031779Y-114621114D02*
X128984160Y-114811590D01*
X128984160Y-114811590D02*
X128984160Y-114954447D01*
X128984160Y-114954447D02*
X129031779Y-115144923D01*
X129031779Y-115144923D02*
X129079398Y-115240161D01*
X129079398Y-115240161D02*
X129174636Y-115335400D01*
X129174636Y-115335400D02*
X129317493Y-115383019D01*
X129317493Y-115383019D02*
X129412731Y-115383019D01*
X129412731Y-115383019D02*
X129555588Y-115335400D01*
X129555588Y-115335400D02*
X129603207Y-115287780D01*
X129603207Y-115287780D02*
X129603207Y-114954447D01*
X129603207Y-114954447D02*
X129412731Y-114954447D01*
X130031779Y-115383019D02*
X130031779Y-114383019D01*
X130031779Y-114383019D02*
X130412731Y-114383019D01*
X130412731Y-114383019D02*
X130507969Y-114430638D01*
X130507969Y-114430638D02*
X130555588Y-114478257D01*
X130555588Y-114478257D02*
X130603207Y-114573495D01*
X130603207Y-114573495D02*
X130603207Y-114716352D01*
X130603207Y-114716352D02*
X130555588Y-114811590D01*
X130555588Y-114811590D02*
X130507969Y-114859209D01*
X130507969Y-114859209D02*
X130412731Y-114906828D01*
X130412731Y-114906828D02*
X130031779Y-114906828D01*
X131031779Y-115383019D02*
X131031779Y-114383019D01*
X131698445Y-114383019D02*
X131888921Y-114383019D01*
X131888921Y-114383019D02*
X131984159Y-114430638D01*
X131984159Y-114430638D02*
X132079397Y-114525876D01*
X132079397Y-114525876D02*
X132127016Y-114716352D01*
X132127016Y-114716352D02*
X132127016Y-115049685D01*
X132127016Y-115049685D02*
X132079397Y-115240161D01*
X132079397Y-115240161D02*
X131984159Y-115335400D01*
X131984159Y-115335400D02*
X131888921Y-115383019D01*
X131888921Y-115383019D02*
X131698445Y-115383019D01*
X131698445Y-115383019D02*
X131603207Y-115335400D01*
X131603207Y-115335400D02*
X131507969Y-115240161D01*
X131507969Y-115240161D02*
X131460350Y-115049685D01*
X131460350Y-115049685D02*
X131460350Y-114716352D01*
X131460350Y-114716352D02*
X131507969Y-114525876D01*
X131507969Y-114525876D02*
X131603207Y-114430638D01*
X131603207Y-114430638D02*
X131698445Y-114383019D01*
X133079397Y-115383019D02*
X132507969Y-115383019D01*
X132793683Y-115383019D02*
X132793683Y-114383019D01*
X132793683Y-114383019D02*
X132698445Y-114525876D01*
X132698445Y-114525876D02*
X132603207Y-114621114D01*
X132603207Y-114621114D02*
X132507969Y-114668733D01*
X133698445Y-114383019D02*
X133793683Y-114383019D01*
X133793683Y-114383019D02*
X133888921Y-114430638D01*
X133888921Y-114430638D02*
X133936540Y-114478257D01*
X133936540Y-114478257D02*
X133984159Y-114573495D01*
X133984159Y-114573495D02*
X134031778Y-114763971D01*
X134031778Y-114763971D02*
X134031778Y-115002066D01*
X134031778Y-115002066D02*
X133984159Y-115192542D01*
X133984159Y-115192542D02*
X133936540Y-115287780D01*
X133936540Y-115287780D02*
X133888921Y-115335400D01*
X133888921Y-115335400D02*
X133793683Y-115383019D01*
X133793683Y-115383019D02*
X133698445Y-115383019D01*
X133698445Y-115383019D02*
X133603207Y-115335400D01*
X133603207Y-115335400D02*
X133555588Y-115287780D01*
X133555588Y-115287780D02*
X133507969Y-115192542D01*
X133507969Y-115192542D02*
X133460350Y-115002066D01*
X133460350Y-115002066D02*
X133460350Y-114763971D01*
X133460350Y-114763971D02*
X133507969Y-114573495D01*
X133507969Y-114573495D02*
X133555588Y-114478257D01*
X133555588Y-114478257D02*
X133603207Y-114430638D01*
X133603207Y-114430638D02*
X133698445Y-114383019D01*
X108995833Y-105809580D02*
X108948214Y-105857200D01*
X108948214Y-105857200D02*
X108805357Y-105904819D01*
X108805357Y-105904819D02*
X108710119Y-105904819D01*
X108710119Y-105904819D02*
X108567262Y-105857200D01*
X108567262Y-105857200D02*
X108472024Y-105761961D01*
X108472024Y-105761961D02*
X108424405Y-105666723D01*
X108424405Y-105666723D02*
X108376786Y-105476247D01*
X108376786Y-105476247D02*
X108376786Y-105333390D01*
X108376786Y-105333390D02*
X108424405Y-105142914D01*
X108424405Y-105142914D02*
X108472024Y-105047676D01*
X108472024Y-105047676D02*
X108567262Y-104952438D01*
X108567262Y-104952438D02*
X108710119Y-104904819D01*
X108710119Y-104904819D02*
X108805357Y-104904819D01*
X108805357Y-104904819D02*
X108948214Y-104952438D01*
X108948214Y-104952438D02*
X108995833Y-105000057D01*
X109948214Y-105904819D02*
X109376786Y-105904819D01*
X109662500Y-105904819D02*
X109662500Y-104904819D01*
X109662500Y-104904819D02*
X109567262Y-105047676D01*
X109567262Y-105047676D02*
X109472024Y-105142914D01*
X109472024Y-105142914D02*
X109376786Y-105190533D01*
X165011666Y-75464819D02*
X165011666Y-76179104D01*
X165011666Y-76179104D02*
X164964047Y-76321961D01*
X164964047Y-76321961D02*
X164868809Y-76417200D01*
X164868809Y-76417200D02*
X164725952Y-76464819D01*
X164725952Y-76464819D02*
X164630714Y-76464819D01*
X165392619Y-75464819D02*
X166011666Y-75464819D01*
X166011666Y-75464819D02*
X165678333Y-75845771D01*
X165678333Y-75845771D02*
X165821190Y-75845771D01*
X165821190Y-75845771D02*
X165916428Y-75893390D01*
X165916428Y-75893390D02*
X165964047Y-75941009D01*
X165964047Y-75941009D02*
X166011666Y-76036247D01*
X166011666Y-76036247D02*
X166011666Y-76274342D01*
X166011666Y-76274342D02*
X165964047Y-76369580D01*
X165964047Y-76369580D02*
X165916428Y-76417200D01*
X165916428Y-76417200D02*
X165821190Y-76464819D01*
X165821190Y-76464819D02*
X165535476Y-76464819D01*
X165535476Y-76464819D02*
X165440238Y-76417200D01*
X165440238Y-76417200D02*
X165392619Y-76369580D01*
X164966666Y-114014819D02*
X164966666Y-114729104D01*
X164966666Y-114729104D02*
X164919047Y-114871961D01*
X164919047Y-114871961D02*
X164823809Y-114967200D01*
X164823809Y-114967200D02*
X164680952Y-115014819D01*
X164680952Y-115014819D02*
X164585714Y-115014819D01*
X165919047Y-114014819D02*
X165442857Y-114014819D01*
X165442857Y-114014819D02*
X165395238Y-114491009D01*
X165395238Y-114491009D02*
X165442857Y-114443390D01*
X165442857Y-114443390D02*
X165538095Y-114395771D01*
X165538095Y-114395771D02*
X165776190Y-114395771D01*
X165776190Y-114395771D02*
X165871428Y-114443390D01*
X165871428Y-114443390D02*
X165919047Y-114491009D01*
X165919047Y-114491009D02*
X165966666Y-114586247D01*
X165966666Y-114586247D02*
X165966666Y-114824342D01*
X165966666Y-114824342D02*
X165919047Y-114919580D01*
X165919047Y-114919580D02*
X165871428Y-114967200D01*
X165871428Y-114967200D02*
X165776190Y-115014819D01*
X165776190Y-115014819D02*
X165538095Y-115014819D01*
X165538095Y-115014819D02*
X165442857Y-114967200D01*
X165442857Y-114967200D02*
X165395238Y-114919580D01*
X121959580Y-128829166D02*
X122007200Y-128876785D01*
X122007200Y-128876785D02*
X122054819Y-129019642D01*
X122054819Y-129019642D02*
X122054819Y-129114880D01*
X122054819Y-129114880D02*
X122007200Y-129257737D01*
X122007200Y-129257737D02*
X121911961Y-129352975D01*
X121911961Y-129352975D02*
X121816723Y-129400594D01*
X121816723Y-129400594D02*
X121626247Y-129448213D01*
X121626247Y-129448213D02*
X121483390Y-129448213D01*
X121483390Y-129448213D02*
X121292914Y-129400594D01*
X121292914Y-129400594D02*
X121197676Y-129352975D01*
X121197676Y-129352975D02*
X121102438Y-129257737D01*
X121102438Y-129257737D02*
X121054819Y-129114880D01*
X121054819Y-129114880D02*
X121054819Y-129019642D01*
X121054819Y-129019642D02*
X121102438Y-128876785D01*
X121102438Y-128876785D02*
X121150057Y-128829166D01*
X121054819Y-128495832D02*
X121054819Y-127876785D01*
X121054819Y-127876785D02*
X121435771Y-128210118D01*
X121435771Y-128210118D02*
X121435771Y-128067261D01*
X121435771Y-128067261D02*
X121483390Y-127972023D01*
X121483390Y-127972023D02*
X121531009Y-127924404D01*
X121531009Y-127924404D02*
X121626247Y-127876785D01*
X121626247Y-127876785D02*
X121864342Y-127876785D01*
X121864342Y-127876785D02*
X121959580Y-127924404D01*
X121959580Y-127924404D02*
X122007200Y-127972023D01*
X122007200Y-127972023D02*
X122054819Y-128067261D01*
X122054819Y-128067261D02*
X122054819Y-128352975D01*
X122054819Y-128352975D02*
X122007200Y-128448213D01*
X122007200Y-128448213D02*
X121959580Y-128495832D01*
X113030595Y-93064819D02*
X113030595Y-93874342D01*
X113030595Y-93874342D02*
X113078214Y-93969580D01*
X113078214Y-93969580D02*
X113125833Y-94017200D01*
X113125833Y-94017200D02*
X113221071Y-94064819D01*
X113221071Y-94064819D02*
X113411547Y-94064819D01*
X113411547Y-94064819D02*
X113506785Y-94017200D01*
X113506785Y-94017200D02*
X113554404Y-93969580D01*
X113554404Y-93969580D02*
X113602023Y-93874342D01*
X113602023Y-93874342D02*
X113602023Y-93064819D01*
X114030595Y-93160057D02*
X114078214Y-93112438D01*
X114078214Y-93112438D02*
X114173452Y-93064819D01*
X114173452Y-93064819D02*
X114411547Y-93064819D01*
X114411547Y-93064819D02*
X114506785Y-93112438D01*
X114506785Y-93112438D02*
X114554404Y-93160057D01*
X114554404Y-93160057D02*
X114602023Y-93255295D01*
X114602023Y-93255295D02*
X114602023Y-93350533D01*
X114602023Y-93350533D02*
X114554404Y-93493390D01*
X114554404Y-93493390D02*
X113982976Y-94064819D01*
X113982976Y-94064819D02*
X114602023Y-94064819D01*
X116858333Y-110759580D02*
X116810714Y-110807200D01*
X116810714Y-110807200D02*
X116667857Y-110854819D01*
X116667857Y-110854819D02*
X116572619Y-110854819D01*
X116572619Y-110854819D02*
X116429762Y-110807200D01*
X116429762Y-110807200D02*
X116334524Y-110711961D01*
X116334524Y-110711961D02*
X116286905Y-110616723D01*
X116286905Y-110616723D02*
X116239286Y-110426247D01*
X116239286Y-110426247D02*
X116239286Y-110283390D01*
X116239286Y-110283390D02*
X116286905Y-110092914D01*
X116286905Y-110092914D02*
X116334524Y-109997676D01*
X116334524Y-109997676D02*
X116429762Y-109902438D01*
X116429762Y-109902438D02*
X116572619Y-109854819D01*
X116572619Y-109854819D02*
X116667857Y-109854819D01*
X116667857Y-109854819D02*
X116810714Y-109902438D01*
X116810714Y-109902438D02*
X116858333Y-109950057D01*
X117239286Y-109950057D02*
X117286905Y-109902438D01*
X117286905Y-109902438D02*
X117382143Y-109854819D01*
X117382143Y-109854819D02*
X117620238Y-109854819D01*
X117620238Y-109854819D02*
X117715476Y-109902438D01*
X117715476Y-109902438D02*
X117763095Y-109950057D01*
X117763095Y-109950057D02*
X117810714Y-110045295D01*
X117810714Y-110045295D02*
X117810714Y-110140533D01*
X117810714Y-110140533D02*
X117763095Y-110283390D01*
X117763095Y-110283390D02*
X117191667Y-110854819D01*
X117191667Y-110854819D02*
X117810714Y-110854819D01*
X158666666Y-77454819D02*
X158666666Y-78169104D01*
X158666666Y-78169104D02*
X158619047Y-78311961D01*
X158619047Y-78311961D02*
X158523809Y-78407200D01*
X158523809Y-78407200D02*
X158380952Y-78454819D01*
X158380952Y-78454819D02*
X158285714Y-78454819D01*
X159666666Y-78454819D02*
X159095238Y-78454819D01*
X159380952Y-78454819D02*
X159380952Y-77454819D01*
X159380952Y-77454819D02*
X159285714Y-77597676D01*
X159285714Y-77597676D02*
X159190476Y-77692914D01*
X159190476Y-77692914D02*
X159095238Y-77740533D01*
X114547319Y-126883333D02*
X115261604Y-126883333D01*
X115261604Y-126883333D02*
X115404461Y-126930952D01*
X115404461Y-126930952D02*
X115499700Y-127026190D01*
X115499700Y-127026190D02*
X115547319Y-127169047D01*
X115547319Y-127169047D02*
X115547319Y-127264285D01*
X114547319Y-125978571D02*
X114547319Y-126169047D01*
X114547319Y-126169047D02*
X114594938Y-126264285D01*
X114594938Y-126264285D02*
X114642557Y-126311904D01*
X114642557Y-126311904D02*
X114785414Y-126407142D01*
X114785414Y-126407142D02*
X114975890Y-126454761D01*
X114975890Y-126454761D02*
X115356842Y-126454761D01*
X115356842Y-126454761D02*
X115452080Y-126407142D01*
X115452080Y-126407142D02*
X115499700Y-126359523D01*
X115499700Y-126359523D02*
X115547319Y-126264285D01*
X115547319Y-126264285D02*
X115547319Y-126073809D01*
X115547319Y-126073809D02*
X115499700Y-125978571D01*
X115499700Y-125978571D02*
X115452080Y-125930952D01*
X115452080Y-125930952D02*
X115356842Y-125883333D01*
X115356842Y-125883333D02*
X115118747Y-125883333D01*
X115118747Y-125883333D02*
X115023509Y-125930952D01*
X115023509Y-125930952D02*
X114975890Y-125978571D01*
X114975890Y-125978571D02*
X114928271Y-126073809D01*
X114928271Y-126073809D02*
X114928271Y-126264285D01*
X114928271Y-126264285D02*
X114975890Y-126359523D01*
X114975890Y-126359523D02*
X115023509Y-126407142D01*
X115023509Y-126407142D02*
X115118747Y-126454761D01*
X164966666Y-94784819D02*
X164966666Y-95499104D01*
X164966666Y-95499104D02*
X164919047Y-95641961D01*
X164919047Y-95641961D02*
X164823809Y-95737200D01*
X164823809Y-95737200D02*
X164680952Y-95784819D01*
X164680952Y-95784819D02*
X164585714Y-95784819D01*
X165871428Y-95118152D02*
X165871428Y-95784819D01*
X165633333Y-94737200D02*
X165395238Y-95451485D01*
X165395238Y-95451485D02*
X166014285Y-95451485D01*
X119666666Y-76454819D02*
X119666666Y-77169104D01*
X119666666Y-77169104D02*
X119619047Y-77311961D01*
X119619047Y-77311961D02*
X119523809Y-77407200D01*
X119523809Y-77407200D02*
X119380952Y-77454819D01*
X119380952Y-77454819D02*
X119285714Y-77454819D01*
X120095238Y-76550057D02*
X120142857Y-76502438D01*
X120142857Y-76502438D02*
X120238095Y-76454819D01*
X120238095Y-76454819D02*
X120476190Y-76454819D01*
X120476190Y-76454819D02*
X120571428Y-76502438D01*
X120571428Y-76502438D02*
X120619047Y-76550057D01*
X120619047Y-76550057D02*
X120666666Y-76645295D01*
X120666666Y-76645295D02*
X120666666Y-76740533D01*
X120666666Y-76740533D02*
X120619047Y-76883390D01*
X120619047Y-76883390D02*
X120047619Y-77454819D01*
X120047619Y-77454819D02*
X120666666Y-77454819D01*
D12*
%TO.C,U3*%
X125925000Y-74998200D02*
X125925000Y-132148200D01*
X125925000Y-132148200D02*
X153865000Y-132148200D01*
X131225000Y-69051800D02*
X149208200Y-69051800D01*
X131225000Y-74944600D02*
X131225000Y-69051800D01*
X149208200Y-69051800D02*
X149208200Y-74944600D01*
X153865000Y-74998200D02*
X125925001Y-74998200D01*
X153865000Y-132148200D02*
X153865000Y-74998200D01*
%TO.C,C1*%
X107746752Y-106490000D02*
X110578248Y-106490000D01*
X107746752Y-111710000D02*
X110578248Y-111710000D01*
%TO.C,J3*%
X163965000Y-77010000D02*
X165345000Y-77010000D01*
X163965000Y-78390000D02*
X163965000Y-77010000D01*
X163965000Y-79660000D02*
X163965000Y-92470000D01*
X163965000Y-79660000D02*
X166725000Y-79660000D01*
X163965000Y-92470000D02*
X166725000Y-92470000D01*
X166725000Y-79660000D02*
X166725000Y-92470000D01*
%TO.C,J5*%
X163920000Y-115560000D02*
X165300000Y-115560000D01*
X163920000Y-116940000D02*
X163920000Y-115560000D01*
X163920000Y-118210000D02*
X163920000Y-131020000D01*
X163920000Y-118210000D02*
X166680000Y-118210000D01*
X163920000Y-131020000D02*
X166680000Y-131020000D01*
X166680000Y-118210000D02*
X166680000Y-131020000D01*
%TO.C,C3*%
X120660000Y-127951248D02*
X120660000Y-129373752D01*
X117940000Y-127951248D02*
X117940000Y-129373752D01*
%TO.C,U2*%
X107642500Y-102230000D02*
X107642500Y-103470000D01*
X107642500Y-103470000D02*
X108882500Y-103470000D01*
X107882500Y-94610000D02*
X119602500Y-94610000D01*
X107882500Y-103230000D02*
X107882500Y-94610000D01*
X119602500Y-94610000D02*
X119602500Y-103230000D01*
X119602500Y-103230000D02*
X107882500Y-103230000D01*
%TO.C,C2*%
X117736252Y-109460000D02*
X116313748Y-109460000D01*
X117736252Y-106740000D02*
X116313748Y-106740000D01*
%TO.C,J1*%
X154420000Y-75680000D02*
X155800000Y-75680000D01*
X154420000Y-77060000D02*
X154420000Y-75680000D01*
X154420000Y-78330000D02*
X154420000Y-131780000D01*
X154420000Y-78330000D02*
X157180000Y-78330000D01*
X154420000Y-131780000D02*
X157180000Y-131780000D01*
X157180000Y-78330000D02*
X157180000Y-131780000D01*
%TO.C,J6*%
X104742500Y-131900000D02*
X104742500Y-117200000D01*
X113942500Y-131900000D02*
X104742500Y-131900000D01*
X113942500Y-123100000D02*
X113942500Y-131900000D01*
X104542500Y-118050000D02*
X104542500Y-117000000D01*
X104742500Y-117200000D02*
X107342500Y-117200000D01*
X111242500Y-117200000D02*
X113942500Y-117200000D01*
X113942500Y-117200000D02*
X113942500Y-119100000D01*
X105592500Y-117000000D02*
X104542500Y-117000000D01*
%TO.C,J4*%
X163920000Y-96330000D02*
X165300000Y-96330000D01*
X163920000Y-97710000D02*
X163920000Y-96330000D01*
X163920000Y-98980000D02*
X163920000Y-111790000D01*
X163920000Y-98980000D02*
X166680000Y-98980000D01*
X163920000Y-111790000D02*
X166680000Y-111790000D01*
X166680000Y-98980000D02*
X166680000Y-111790000D01*
%TO.C,J2*%
X122420000Y-75720000D02*
X123800000Y-75720000D01*
X122420000Y-77100000D02*
X122420000Y-75720000D01*
X122420000Y-78370000D02*
X122420000Y-131820000D01*
X122420000Y-78370000D02*
X125180000Y-78370000D01*
X122420000Y-131820000D02*
X125180000Y-131820000D01*
X125180000Y-78370000D02*
X125180000Y-131820000D01*
%TD*%
M02*
