%TF.GenerationSoftware,KiCad,Pcbnew,9.0.5*%
%TF.CreationDate,2026-01-27T18:20:27+09:00*%
%TF.ProjectId,esp_serial_bridge_pcb,6573705f-7365-4726-9961-6c5f62726964,V1.0*%
%TF.SameCoordinates,Original*%
%TF.FileFunction,Copper,L2,Bot*%
%TF.FilePolarity,Positive*%
%FSLAX46Y46*%
G04 Gerber Fmt 4.6, Leading zero omitted, Abs format (unit mm)*
G04 Created by KiCad (PCBNEW 9.0.5) date 2026-01-27 18:20:27*
%MOMM*%
%LPD*%
G01*
G04 APERTURE LIST*
G04 Aperture macros list*
%AMRoundRect*
0 Rectangle with rounded corners*
0 $1 Rounding radius*
0 $2 $3 $4 $5 $6 $7 $8 $9 X,Y pos of 4 corners*
0 Add a 4 corners polygon primitive as box body*
4,1,4,$2,$3,$4,$5,$6,$7,$8,$9,$2,$3,0*
0 Add four circle primitives for the rounded corners*
1,1,$1+$1,$2,$3*
1,1,$1+$1,$4,$5*
1,1,$1+$1,$6,$7*
1,1,$1+$1,$8,$9*
0 Add four rect primitives between the rounded corners*
20,1,$1+$1,$2,$3,$4,$5,0*
20,1,$1+$1,$4,$5,$6,$7,0*
20,1,$1+$1,$6,$7,$8,$9,0*
20,1,$1+$1,$8,$9,$2,$3,0*%
G04 Aperture macros list end*
%TA.AperFunction,ComponentPad*%
%ADD10R,1.500000X2.300000*%
%TD*%
%TA.AperFunction,ComponentPad*%
%ADD11O,1.500000X2.300000*%
%TD*%
%TA.AperFunction,ComponentPad*%
%ADD12O,2.000000X1.200000*%
%TD*%
%TA.AperFunction,ComponentPad*%
%ADD13R,2.000000X1.200000*%
%TD*%
%TA.AperFunction,ComponentPad*%
%ADD14R,3.500000X3.500000*%
%TD*%
%TA.AperFunction,ComponentPad*%
%ADD15RoundRect,0.750000X1.000000X-0.750000X1.000000X0.750000X-1.000000X0.750000X-1.000000X-0.750000X0*%
%TD*%
%TA.AperFunction,ComponentPad*%
%ADD16RoundRect,0.875000X0.875000X-0.875000X0.875000X0.875000X-0.875000X0.875000X-0.875000X-0.875000X0*%
%TD*%
%TA.AperFunction,ComponentPad*%
%ADD17R,1.700000X1.700000*%
%TD*%
%TA.AperFunction,ComponentPad*%
%ADD18C,1.700000*%
%TD*%
%TA.AperFunction,ViaPad*%
%ADD19C,0.600000*%
%TD*%
%TA.AperFunction,Conductor*%
%ADD20C,1.000000*%
%TD*%
%TA.AperFunction,Conductor*%
%ADD21C,0.600000*%
%TD*%
G04 APERTURE END LIST*
D10*
%TO.P,U2,1,IN*%
%TO.N,Net-(U2-IN)*%
X102235000Y-91500000D03*
D11*
%TO.P,U2,2,GND*%
%TO.N,GND*%
X104775000Y-91500000D03*
%TO.P,U2,3,OUT*%
%TO.N,+5V*%
X107315000Y-91500000D03*
%TD*%
D12*
%TO.P,U1,38,GND*%
%TO.N,GND*%
X147700000Y-76100000D03*
%TO.P,U1,37,GPIO23*%
%TO.N,Net-(J1-Pin_2)*%
X147700000Y-78640000D03*
%TO.P,U1,36,GPIO22*%
%TO.N,Net-(J1-Pin_3)*%
X147700000Y-81180000D03*
%TO.P,U1,35,U0TXD/GPIO1*%
%TO.N,GPIO1_TX1*%
X147700000Y-83720000D03*
%TO.P,U1,34,U0RXD/GPIO3*%
%TO.N,Net-(J1-Pin_5)*%
X147700000Y-86260000D03*
%TO.P,U1,33,GPIO21*%
%TO.N,GPIO21_RX1*%
X147700000Y-88800000D03*
%TO.P,U1,32,GND*%
%TO.N,GND*%
X147700000Y-91340000D03*
%TO.P,U1,31,GPIO19*%
%TO.N,Net-(J1-Pin_8)*%
X147700000Y-93880000D03*
%TO.P,U1,30,GPIO18*%
%TO.N,Net-(J1-Pin_9)*%
X147700000Y-96420000D03*
%TO.P,U1,29,GPIO5*%
%TO.N,Net-(J1-Pin_10)*%
X147700000Y-98960000D03*
%TO.P,U1,28,GPIO17*%
%TO.N,GPIO17_TX2*%
X147700000Y-101500000D03*
%TO.P,U1,27,GPIO16*%
%TO.N,GPIO16_RX2*%
X147700000Y-104040000D03*
%TO.P,U1,26,ADC2_CH0/GPIO4*%
%TO.N,GPIO4_TX3*%
X147700000Y-106580000D03*
%TO.P,U1,25,GPIO0/BOOT/ADC2_CH1*%
%TO.N,Net-(J1-Pin_14)*%
X147700000Y-109120000D03*
%TO.P,U1,24,ADC2_CH2/GPIO2*%
%TO.N,Net-(J1-Pin_15)*%
X147700000Y-111660000D03*
%TO.P,U1,23,MTDO/GPIO15/ADC2_CH3*%
%TO.N,GPIO15_RX3*%
X147700000Y-114200000D03*
%TO.P,U1,22,SD_DATA1/GPIO8*%
%TO.N,Net-(J1-Pin_17)*%
X147700000Y-116740000D03*
%TO.P,U1,21,SD_DATA0/GPIO7*%
%TO.N,Net-(J1-Pin_18)*%
X147696320Y-119277280D03*
%TO.P,U1,20,SD_CLK/GPIO6*%
%TO.N,Net-(J1-Pin_19)*%
X147696320Y-121817280D03*
%TO.P,U1,19,5V*%
%TO.N,+5V*%
X122300000Y-121820000D03*
%TO.P,U1,18,CMD*%
%TO.N,Net-(J2-Pin_18)*%
X122300000Y-119280000D03*
%TO.P,U1,17,SD_DATA3/GPIO10*%
%TO.N,Net-(J2-Pin_17)*%
X122300000Y-116740000D03*
%TO.P,U1,16,SD_DATA2/GPIO9*%
%TO.N,Net-(J2-Pin_16)*%
X122300000Y-114200000D03*
%TO.P,U1,15,MTCK/GPIO13/ADC2_CH4*%
%TO.N,Net-(J2-Pin_15)*%
X122300000Y-111660000D03*
%TO.P,U1,14,GND*%
%TO.N,GND*%
X122300000Y-109120000D03*
%TO.P,U1,13,MTDI/GPIO12/ADC2_CH5*%
%TO.N,Net-(J2-Pin_13)*%
X122300000Y-106580000D03*
%TO.P,U1,12,MTMS/GPIO14/ADC2_CH6*%
%TO.N,Net-(J2-Pin_12)*%
X122300000Y-104040000D03*
%TO.P,U1,11,ADC2_CH7/GPIO27*%
%TO.N,Net-(J2-Pin_11)*%
X122300000Y-101500000D03*
%TO.P,U1,10,DAC_2/ADC2_CH9/GPIO26*%
%TO.N,Net-(J2-Pin_10)*%
X122300000Y-98960000D03*
%TO.P,U1,9,DAC_1/ADC2_CH8/GPIO25*%
%TO.N,Net-(J2-Pin_9)*%
X122300000Y-96420000D03*
%TO.P,U1,8,32K_XN/GPIO33/ADC1_CH5*%
%TO.N,Net-(J2-Pin_8)*%
X122300000Y-93880000D03*
%TO.P,U1,7,32K_XP/GPIO32/ADC1_CH4*%
%TO.N,Net-(J2-Pin_7)*%
X122300000Y-91340000D03*
%TO.P,U1,6,VDET_2/GPIO35/ADC1_CH7*%
%TO.N,Net-(J2-Pin_6)*%
X122300000Y-88800000D03*
%TO.P,U1,5,VDET_1/GPIO34/ADC1_CH6*%
%TO.N,Net-(J2-Pin_5)*%
X122300000Y-86260000D03*
%TO.P,U1,4,SENSOR_VN/GPIO39/ADC1_CH3*%
%TO.N,Net-(J2-Pin_4)*%
X122300000Y-83720000D03*
%TO.P,U1,3,SENSOR_VP/GPIO36/ADC1_CH0*%
%TO.N,Net-(J2-Pin_3)*%
X122300000Y-81180000D03*
%TO.P,U1,2,CHIP_PU*%
%TO.N,Net-(J2-Pin_2)*%
X122300000Y-78640000D03*
D13*
%TO.P,U1,1,3V3*%
%TO.N,+3.3V*%
X122300000Y-76100000D03*
%TD*%
D14*
%TO.P,J6,1*%
%TO.N,Net-(U2-IN)*%
X101300000Y-109500000D03*
D15*
%TO.P,J6,2*%
%TO.N,GND*%
X101300000Y-115500000D03*
D16*
%TO.P,J6,3*%
%TO.N,unconnected-(J6-Pad3)*%
X106000000Y-112500000D03*
%TD*%
D17*
%TO.P,J5,1,Pin_1*%
%TO.N,unconnected-(J5-Pin_1-Pad1)*%
X162100000Y-112040000D03*
D18*
%TO.P,J5,2,Pin_2*%
%TO.N,GPIO4_TX3*%
X162100000Y-114580000D03*
%TO.P,J5,3,Pin_3*%
%TO.N,GPIO15_RX3*%
X162100000Y-117120000D03*
%TO.P,J5,4,Pin_4*%
%TO.N,+5V*%
X162100000Y-119660000D03*
%TO.P,J5,5,Pin_5*%
%TO.N,unconnected-(J5-Pin_5-Pad5)*%
X162100000Y-122200000D03*
%TO.P,J5,6,Pin_6*%
%TO.N,GND*%
X162100000Y-124740000D03*
%TD*%
D17*
%TO.P,J4,1,Pin_1*%
%TO.N,unconnected-(J4-Pin_1-Pad1)*%
X162100000Y-94540000D03*
D18*
%TO.P,J4,2,Pin_2*%
%TO.N,GPIO17_TX2*%
X162100000Y-97080000D03*
%TO.P,J4,3,Pin_3*%
%TO.N,GPIO16_RX2*%
X162100000Y-99620000D03*
%TO.P,J4,4,Pin_4*%
%TO.N,+5V*%
X162100000Y-102160000D03*
%TO.P,J4,5,Pin_5*%
%TO.N,unconnected-(J4-Pin_5-Pad5)*%
X162100000Y-104700000D03*
%TO.P,J4,6,Pin_6*%
%TO.N,GND*%
X162100000Y-107240000D03*
%TD*%
D17*
%TO.P,J3,1,Pin_1*%
%TO.N,unconnected-(J3-Pin_1-Pad1)*%
X162100000Y-77040000D03*
D18*
%TO.P,J3,2,Pin_2*%
%TO.N,GPIO1_TX1*%
X162100000Y-79580000D03*
%TO.P,J3,3,Pin_3*%
%TO.N,GPIO21_RX1*%
X162100000Y-82120000D03*
%TO.P,J3,4,Pin_4*%
%TO.N,+5V*%
X162100000Y-84660000D03*
%TO.P,J3,5,Pin_5*%
%TO.N,unconnected-(J3-Pin_5-Pad5)*%
X162100000Y-87200000D03*
%TO.P,J3,6,Pin_6*%
%TO.N,GND*%
X162100000Y-89740000D03*
%TD*%
D17*
%TO.P,J2,1,Pin_1*%
%TO.N,+3.3V*%
X115800000Y-76720000D03*
D18*
%TO.P,J2,2,Pin_2*%
%TO.N,Net-(J2-Pin_2)*%
X115800000Y-79260000D03*
%TO.P,J2,3,Pin_3*%
%TO.N,Net-(J2-Pin_3)*%
X115800000Y-81800000D03*
%TO.P,J2,4,Pin_4*%
%TO.N,Net-(J2-Pin_4)*%
X115800000Y-84340000D03*
%TO.P,J2,5,Pin_5*%
%TO.N,Net-(J2-Pin_5)*%
X115800000Y-86880000D03*
%TO.P,J2,6,Pin_6*%
%TO.N,Net-(J2-Pin_6)*%
X115800000Y-89420000D03*
%TO.P,J2,7,Pin_7*%
%TO.N,Net-(J2-Pin_7)*%
X115800000Y-91960000D03*
%TO.P,J2,8,Pin_8*%
%TO.N,Net-(J2-Pin_8)*%
X115800000Y-94500000D03*
%TO.P,J2,9,Pin_9*%
%TO.N,Net-(J2-Pin_9)*%
X115800000Y-97040000D03*
%TO.P,J2,10,Pin_10*%
%TO.N,Net-(J2-Pin_10)*%
X115800000Y-99580000D03*
%TO.P,J2,11,Pin_11*%
%TO.N,Net-(J2-Pin_11)*%
X115800000Y-102120000D03*
%TO.P,J2,12,Pin_12*%
%TO.N,Net-(J2-Pin_12)*%
X115800000Y-104660000D03*
%TO.P,J2,13,Pin_13*%
%TO.N,Net-(J2-Pin_13)*%
X115800000Y-107200000D03*
%TO.P,J2,14,Pin_14*%
%TO.N,GND*%
X115800000Y-109740000D03*
%TO.P,J2,15,Pin_15*%
%TO.N,Net-(J2-Pin_15)*%
X115800000Y-112280000D03*
%TO.P,J2,16,Pin_16*%
%TO.N,Net-(J2-Pin_16)*%
X115800000Y-114820000D03*
%TO.P,J2,17,Pin_17*%
%TO.N,Net-(J2-Pin_17)*%
X115800000Y-117360000D03*
%TO.P,J2,18,Pin_18*%
%TO.N,Net-(J2-Pin_18)*%
X115800000Y-119900000D03*
%TO.P,J2,19,Pin_19*%
%TO.N,+5V*%
X115800000Y-122440000D03*
%TD*%
D17*
%TO.P,J1,1,Pin_1*%
%TO.N,GND*%
X153600000Y-76880000D03*
D18*
%TO.P,J1,2,Pin_2*%
%TO.N,Net-(J1-Pin_2)*%
X153600000Y-79420000D03*
%TO.P,J1,3,Pin_3*%
%TO.N,Net-(J1-Pin_3)*%
X153600000Y-81960000D03*
%TO.P,J1,4,Pin_4*%
%TO.N,GPIO1_TX1*%
X153600000Y-84500000D03*
%TO.P,J1,5,Pin_5*%
%TO.N,Net-(J1-Pin_5)*%
X153600000Y-87040000D03*
%TO.P,J1,6,Pin_6*%
%TO.N,GPIO21_RX1*%
X153600000Y-89580000D03*
%TO.P,J1,7,Pin_7*%
%TO.N,GND*%
X153600000Y-92120000D03*
%TO.P,J1,8,Pin_8*%
%TO.N,Net-(J1-Pin_8)*%
X153600000Y-94660000D03*
%TO.P,J1,9,Pin_9*%
%TO.N,Net-(J1-Pin_9)*%
X153600000Y-97200000D03*
%TO.P,J1,10,Pin_10*%
%TO.N,Net-(J1-Pin_10)*%
X153600000Y-99740000D03*
%TO.P,J1,11,Pin_11*%
%TO.N,GPIO17_TX2*%
X153600000Y-102280000D03*
%TO.P,J1,12,Pin_12*%
%TO.N,GPIO16_RX2*%
X153600000Y-104820000D03*
%TO.P,J1,13,Pin_13*%
%TO.N,GPIO4_TX3*%
X153600000Y-107360000D03*
%TO.P,J1,14,Pin_14*%
%TO.N,Net-(J1-Pin_14)*%
X153600000Y-109900000D03*
%TO.P,J1,15,Pin_15*%
%TO.N,Net-(J1-Pin_15)*%
X153600000Y-112440000D03*
%TO.P,J1,16,Pin_16*%
%TO.N,GPIO15_RX3*%
X153600000Y-114980000D03*
%TO.P,J1,17,Pin_17*%
%TO.N,Net-(J1-Pin_17)*%
X153600000Y-117520000D03*
%TO.P,J1,18,Pin_18*%
%TO.N,Net-(J1-Pin_18)*%
X153600000Y-120060000D03*
%TO.P,J1,19,Pin_19*%
%TO.N,Net-(J1-Pin_19)*%
X153600000Y-122600000D03*
%TD*%
D19*
%TO.N,GND*%
X156000000Y-106500000D03*
%TO.N,+5V*%
X157609000Y-124151000D03*
%TD*%
D20*
%TO.N,GND*%
X156000000Y-94520000D02*
X153600000Y-92120000D01*
X156000000Y-106500000D02*
X156000000Y-94520000D01*
D21*
X160749000Y-108591000D02*
X162100000Y-107240000D01*
X160749000Y-123389000D02*
X160749000Y-108591000D01*
X162100000Y-124740000D02*
X160749000Y-123389000D01*
D20*
%TO.N,+5V*%
X111000000Y-117640000D02*
X115800000Y-122440000D01*
X107315000Y-96315000D02*
X111000000Y-100000000D01*
X111000000Y-100000000D02*
X111000000Y-117640000D01*
X107315000Y-91500000D02*
X107315000Y-96315000D01*
X157609000Y-89151000D02*
X157609000Y-106651000D01*
X162100000Y-84660000D02*
X157609000Y-89151000D01*
X157609000Y-106651000D02*
X157609000Y-124151000D01*
X162100000Y-102160000D02*
X157609000Y-106651000D01*
%TD*%
%TA.AperFunction,Conductor*%
%TO.N,GND*%
G36*
X114442080Y-75520185D02*
G01*
X114487835Y-75572989D01*
X114497779Y-75642147D01*
X114491223Y-75667832D01*
X114455909Y-75762514D01*
X114455908Y-75762516D01*
X114449501Y-75822116D01*
X114449501Y-75822123D01*
X114449500Y-75822135D01*
X114449500Y-77617870D01*
X114449501Y-77617876D01*
X114455908Y-77677483D01*
X114506202Y-77812328D01*
X114506206Y-77812335D01*
X114592452Y-77927544D01*
X114592455Y-77927547D01*
X114707664Y-78013793D01*
X114707671Y-78013797D01*
X114839082Y-78062810D01*
X114895016Y-78104681D01*
X114919433Y-78170145D01*
X114904582Y-78238418D01*
X114883431Y-78266673D01*
X114769889Y-78380215D01*
X114644951Y-78552179D01*
X114548444Y-78741585D01*
X114482753Y-78943760D01*
X114449500Y-79153713D01*
X114449500Y-79366286D01*
X114474841Y-79526287D01*
X114482754Y-79576243D01*
X114534741Y-79736243D01*
X114548444Y-79778414D01*
X114644951Y-79967820D01*
X114769890Y-80139786D01*
X114920213Y-80290109D01*
X115092182Y-80415050D01*
X115100946Y-80419516D01*
X115151742Y-80467491D01*
X115168536Y-80535312D01*
X115145998Y-80601447D01*
X115100946Y-80640484D01*
X115092182Y-80644949D01*
X114920213Y-80769890D01*
X114769890Y-80920213D01*
X114644951Y-81092179D01*
X114548444Y-81281585D01*
X114482753Y-81483760D01*
X114449500Y-81693713D01*
X114449500Y-81906286D01*
X114474841Y-82066287D01*
X114482754Y-82116243D01*
X114534741Y-82276243D01*
X114548444Y-82318414D01*
X114644951Y-82507820D01*
X114769890Y-82679786D01*
X114920213Y-82830109D01*
X115092182Y-82955050D01*
X115100946Y-82959516D01*
X115151742Y-83007491D01*
X115168536Y-83075312D01*
X115145998Y-83141447D01*
X115100946Y-83180484D01*
X115092182Y-83184949D01*
X114920213Y-83309890D01*
X114769890Y-83460213D01*
X114644951Y-83632179D01*
X114548444Y-83821585D01*
X114482753Y-84023760D01*
X114449500Y-84233713D01*
X114449500Y-84446286D01*
X114478835Y-84631503D01*
X114482754Y-84656243D01*
X114534741Y-84816243D01*
X114548444Y-84858414D01*
X114644951Y-85047820D01*
X114769890Y-85219786D01*
X114920213Y-85370109D01*
X115092182Y-85495050D01*
X115100946Y-85499516D01*
X115151742Y-85547491D01*
X115168536Y-85615312D01*
X115145998Y-85681447D01*
X115100946Y-85720484D01*
X115092182Y-85724949D01*
X114920213Y-85849890D01*
X114769890Y-86000213D01*
X114644951Y-86172179D01*
X114548444Y-86361585D01*
X114482753Y-86563760D01*
X114449500Y-86773713D01*
X114449500Y-86986286D01*
X114474841Y-87146287D01*
X114482754Y-87196243D01*
X114534741Y-87356243D01*
X114548444Y-87398414D01*
X114644951Y-87587820D01*
X114769890Y-87759786D01*
X114920213Y-87910109D01*
X115092182Y-88035050D01*
X115100946Y-88039516D01*
X115151742Y-88087491D01*
X115168536Y-88155312D01*
X115145998Y-88221447D01*
X115100946Y-88260484D01*
X115092182Y-88264949D01*
X114920213Y-88389890D01*
X114769890Y-88540213D01*
X114644951Y-88712179D01*
X114548444Y-88901585D01*
X114482753Y-89103760D01*
X114449500Y-89313713D01*
X114449500Y-89526286D01*
X114474841Y-89686287D01*
X114482754Y-89736243D01*
X114546682Y-89932993D01*
X114548444Y-89938414D01*
X114644951Y-90127820D01*
X114769890Y-90299786D01*
X114920213Y-90450109D01*
X115092182Y-90575050D01*
X115100946Y-90579516D01*
X115151742Y-90627491D01*
X115168536Y-90695312D01*
X115145998Y-90761447D01*
X115100946Y-90800484D01*
X115092182Y-90804949D01*
X114920213Y-90929890D01*
X114769890Y-91080213D01*
X114644951Y-91252179D01*
X114548444Y-91441585D01*
X114482753Y-91643760D01*
X114455949Y-91812993D01*
X114449500Y-91853713D01*
X114449500Y-92066287D01*
X114482754Y-92276243D01*
X114531740Y-92427007D01*
X114548444Y-92478414D01*
X114644951Y-92667820D01*
X114769890Y-92839786D01*
X114920213Y-92990109D01*
X115092182Y-93115050D01*
X115100946Y-93119516D01*
X115151742Y-93167491D01*
X115168536Y-93235312D01*
X115145998Y-93301447D01*
X115100946Y-93340484D01*
X115092182Y-93344949D01*
X114920213Y-93469890D01*
X114769890Y-93620213D01*
X114644951Y-93792179D01*
X114548444Y-93981585D01*
X114482753Y-94183760D01*
X114449500Y-94393713D01*
X114449500Y-94606286D01*
X114474841Y-94766287D01*
X114482754Y-94816243D01*
X114534741Y-94976243D01*
X114548444Y-95018414D01*
X114644951Y-95207820D01*
X114769890Y-95379786D01*
X114920213Y-95530109D01*
X115092182Y-95655050D01*
X115100946Y-95659516D01*
X115151742Y-95707491D01*
X115168536Y-95775312D01*
X115145998Y-95841447D01*
X115100946Y-95880484D01*
X115092182Y-95884949D01*
X114920213Y-96009890D01*
X114769890Y-96160213D01*
X114644951Y-96332179D01*
X114548444Y-96521585D01*
X114482753Y-96723760D01*
X114449500Y-96933713D01*
X114449500Y-97146286D01*
X114474841Y-97306287D01*
X114482754Y-97356243D01*
X114534741Y-97516243D01*
X114548444Y-97558414D01*
X114644951Y-97747820D01*
X114769890Y-97919786D01*
X114920213Y-98070109D01*
X115092182Y-98195050D01*
X115100946Y-98199516D01*
X115151742Y-98247491D01*
X115168536Y-98315312D01*
X115145998Y-98381447D01*
X115100946Y-98420484D01*
X115092182Y-98424949D01*
X114920213Y-98549890D01*
X114769890Y-98700213D01*
X114644951Y-98872179D01*
X114548444Y-99061585D01*
X114482753Y-99263760D01*
X114449500Y-99473713D01*
X114449500Y-99686286D01*
X114474841Y-99846287D01*
X114482754Y-99896243D01*
X114534741Y-100056243D01*
X114548444Y-100098414D01*
X114644951Y-100287820D01*
X114769890Y-100459786D01*
X114920213Y-100610109D01*
X115092182Y-100735050D01*
X115100946Y-100739516D01*
X115151742Y-100787491D01*
X115168536Y-100855312D01*
X115145998Y-100921447D01*
X115100946Y-100960484D01*
X115092182Y-100964949D01*
X114920213Y-101089890D01*
X114769890Y-101240213D01*
X114644951Y-101412179D01*
X114548444Y-101601585D01*
X114482753Y-101803760D01*
X114449500Y-102013713D01*
X114449500Y-102226286D01*
X114474841Y-102386287D01*
X114482754Y-102436243D01*
X114534741Y-102596243D01*
X114548444Y-102638414D01*
X114644951Y-102827820D01*
X114769890Y-102999786D01*
X114920213Y-103150109D01*
X115092182Y-103275050D01*
X115100946Y-103279516D01*
X115151742Y-103327491D01*
X115168536Y-103395312D01*
X115145998Y-103461447D01*
X115100946Y-103500484D01*
X115092182Y-103504949D01*
X114920213Y-103629890D01*
X114769890Y-103780213D01*
X114644951Y-103952179D01*
X114548444Y-104141585D01*
X114482753Y-104343760D01*
X114449500Y-104553713D01*
X114449500Y-104766286D01*
X114474841Y-104926287D01*
X114482754Y-104976243D01*
X114534741Y-105136243D01*
X114548444Y-105178414D01*
X114644951Y-105367820D01*
X114769890Y-105539786D01*
X114920213Y-105690109D01*
X115092182Y-105815050D01*
X115100946Y-105819516D01*
X115151742Y-105867491D01*
X115168536Y-105935312D01*
X115145998Y-106001447D01*
X115100946Y-106040484D01*
X115092182Y-106044949D01*
X114920213Y-106169890D01*
X114769890Y-106320213D01*
X114644951Y-106492179D01*
X114548444Y-106681585D01*
X114482753Y-106883760D01*
X114449500Y-107093713D01*
X114449500Y-107306286D01*
X114474841Y-107466287D01*
X114482754Y-107516243D01*
X114543154Y-107702135D01*
X114548444Y-107718414D01*
X114644951Y-107907820D01*
X114769890Y-108079786D01*
X114920213Y-108230109D01*
X115092179Y-108355048D01*
X115092181Y-108355049D01*
X115092184Y-108355051D01*
X115101493Y-108359794D01*
X115152290Y-108407766D01*
X115169087Y-108475587D01*
X115146552Y-108541722D01*
X115101505Y-108580760D01*
X115092446Y-108585376D01*
X115092440Y-108585380D01*
X115038282Y-108624727D01*
X115038282Y-108624728D01*
X115670591Y-109257037D01*
X115607007Y-109274075D01*
X115492993Y-109339901D01*
X115399901Y-109432993D01*
X115334075Y-109547007D01*
X115317037Y-109610591D01*
X114684728Y-108978282D01*
X114684727Y-108978282D01*
X114645380Y-109032439D01*
X114548904Y-109221782D01*
X114483242Y-109423869D01*
X114483242Y-109423872D01*
X114450000Y-109633753D01*
X114450000Y-109846246D01*
X114483242Y-110056127D01*
X114483242Y-110056130D01*
X114548904Y-110258217D01*
X114645375Y-110447550D01*
X114684728Y-110501716D01*
X115317037Y-109869408D01*
X115334075Y-109932993D01*
X115399901Y-110047007D01*
X115492993Y-110140099D01*
X115607007Y-110205925D01*
X115670590Y-110222962D01*
X115038282Y-110855269D01*
X115038282Y-110855270D01*
X115092452Y-110894626D01*
X115092451Y-110894626D01*
X115101495Y-110899234D01*
X115152292Y-110947208D01*
X115169087Y-111015029D01*
X115146550Y-111081164D01*
X115101499Y-111120202D01*
X115092182Y-111124949D01*
X114920213Y-111249890D01*
X114769890Y-111400213D01*
X114644951Y-111572179D01*
X114548444Y-111761585D01*
X114482753Y-111963760D01*
X114449500Y-112173713D01*
X114449500Y-112386286D01*
X114474841Y-112546287D01*
X114482754Y-112596243D01*
X114534741Y-112756243D01*
X114548444Y-112798414D01*
X114644951Y-112987820D01*
X114769890Y-113159786D01*
X114920213Y-113310109D01*
X115092182Y-113435050D01*
X115100946Y-113439516D01*
X115151742Y-113487491D01*
X115168536Y-113555312D01*
X115145998Y-113621447D01*
X115100946Y-113660484D01*
X115092182Y-113664949D01*
X114920213Y-113789890D01*
X114769890Y-113940213D01*
X114644951Y-114112179D01*
X114548444Y-114301585D01*
X114482753Y-114503760D01*
X114449500Y-114713713D01*
X114449500Y-114926286D01*
X114474841Y-115086287D01*
X114482754Y-115136243D01*
X114534741Y-115296243D01*
X114548444Y-115338414D01*
X114644951Y-115527820D01*
X114769890Y-115699786D01*
X114920213Y-115850109D01*
X115092182Y-115975050D01*
X115100946Y-115979516D01*
X115151742Y-116027491D01*
X115168536Y-116095312D01*
X115145998Y-116161447D01*
X115100946Y-116200484D01*
X115092182Y-116204949D01*
X114920213Y-116329890D01*
X114769890Y-116480213D01*
X114644951Y-116652179D01*
X114548444Y-116841585D01*
X114482753Y-117043760D01*
X114463955Y-117162447D01*
X114449500Y-117253713D01*
X114449500Y-117466287D01*
X114459534Y-117529644D01*
X114474841Y-117626287D01*
X114482754Y-117676243D01*
X114534741Y-117836243D01*
X114548444Y-117878414D01*
X114644951Y-118067820D01*
X114769890Y-118239786D01*
X114920213Y-118390109D01*
X115092182Y-118515050D01*
X115100946Y-118519516D01*
X115151742Y-118567491D01*
X115168536Y-118635312D01*
X115145998Y-118701447D01*
X115100946Y-118740484D01*
X115092182Y-118744949D01*
X114920213Y-118869890D01*
X114769890Y-119020213D01*
X114644951Y-119192179D01*
X114548444Y-119381583D01*
X114514855Y-119484961D01*
X114475417Y-119542636D01*
X114411058Y-119569834D01*
X114342212Y-119557919D01*
X114309243Y-119534323D01*
X112036819Y-117261899D01*
X112003334Y-117200576D01*
X112000500Y-117174218D01*
X112000500Y-99901456D01*
X111989525Y-99846286D01*
X111980202Y-99799414D01*
X111962051Y-99708164D01*
X111931212Y-99633713D01*
X111886632Y-99526086D01*
X111790656Y-99382447D01*
X111777139Y-99362217D01*
X111634686Y-99219764D01*
X111634655Y-99219735D01*
X108351819Y-95936899D01*
X108318334Y-95875576D01*
X108315500Y-95849218D01*
X108315500Y-92690697D01*
X108335185Y-92623658D01*
X108339170Y-92617827D01*
X108384524Y-92555405D01*
X108473884Y-92380025D01*
X108534709Y-92192826D01*
X108536894Y-92179032D01*
X108565500Y-91998422D01*
X108565500Y-91001577D01*
X108534709Y-90807173D01*
X108474890Y-90623072D01*
X108473884Y-90619975D01*
X108473882Y-90619972D01*
X108473882Y-90619970D01*
X108413054Y-90500588D01*
X108384524Y-90444595D01*
X108268828Y-90285354D01*
X108129646Y-90146172D01*
X107970405Y-90030476D01*
X107795029Y-89941117D01*
X107607826Y-89880290D01*
X107413422Y-89849500D01*
X107413417Y-89849500D01*
X107216583Y-89849500D01*
X107216578Y-89849500D01*
X107022173Y-89880290D01*
X106834970Y-89941117D01*
X106659594Y-90030476D01*
X106624285Y-90056130D01*
X106500354Y-90146172D01*
X106500352Y-90146174D01*
X106500351Y-90146174D01*
X106361174Y-90285351D01*
X106361174Y-90285352D01*
X106361172Y-90285354D01*
X106348980Y-90302135D01*
X106245476Y-90444594D01*
X106155204Y-90621764D01*
X106107229Y-90672560D01*
X106039408Y-90689355D01*
X105973274Y-90666818D01*
X105934234Y-90621764D01*
X105844095Y-90444856D01*
X105728444Y-90285678D01*
X105589321Y-90146555D01*
X105430143Y-90030904D01*
X105254835Y-89941581D01*
X105067705Y-89880778D01*
X105025000Y-89874014D01*
X105025000Y-91066988D01*
X104967993Y-91034075D01*
X104840826Y-91000000D01*
X104709174Y-91000000D01*
X104582007Y-91034075D01*
X104525000Y-91066988D01*
X104525000Y-89874014D01*
X104524999Y-89874014D01*
X104482294Y-89880778D01*
X104295164Y-89941581D01*
X104119856Y-90030904D01*
X103960678Y-90146555D01*
X103821555Y-90285678D01*
X103709817Y-90439471D01*
X103654486Y-90482137D01*
X103584873Y-90488115D01*
X103523078Y-90455509D01*
X103488721Y-90394670D01*
X103485499Y-90366585D01*
X103485499Y-90302129D01*
X103485498Y-90302123D01*
X103485497Y-90302116D01*
X103479091Y-90242517D01*
X103478152Y-90240000D01*
X103428797Y-90107671D01*
X103428793Y-90107664D01*
X103342547Y-89992455D01*
X103342544Y-89992452D01*
X103227335Y-89906206D01*
X103227328Y-89906202D01*
X103092482Y-89855908D01*
X103092483Y-89855908D01*
X103032883Y-89849501D01*
X103032881Y-89849500D01*
X103032873Y-89849500D01*
X103032864Y-89849500D01*
X101437129Y-89849500D01*
X101437123Y-89849501D01*
X101377516Y-89855908D01*
X101242671Y-89906202D01*
X101242664Y-89906206D01*
X101127455Y-89992452D01*
X101127452Y-89992455D01*
X101041206Y-90107664D01*
X101041202Y-90107671D01*
X100990908Y-90242517D01*
X100984751Y-90299792D01*
X100984501Y-90302123D01*
X100984500Y-90302135D01*
X100984500Y-92697870D01*
X100984501Y-92697876D01*
X100990908Y-92757483D01*
X101041202Y-92892328D01*
X101041206Y-92892335D01*
X101127452Y-93007544D01*
X101127455Y-93007547D01*
X101242664Y-93093793D01*
X101242671Y-93093797D01*
X101377517Y-93144091D01*
X101377516Y-93144091D01*
X101384444Y-93144835D01*
X101437127Y-93150500D01*
X103032872Y-93150499D01*
X103092483Y-93144091D01*
X103227331Y-93093796D01*
X103342546Y-93007546D01*
X103428796Y-92892331D01*
X103479091Y-92757483D01*
X103485500Y-92697873D01*
X103485499Y-92633413D01*
X103505183Y-92566377D01*
X103557986Y-92520621D01*
X103627144Y-92510677D01*
X103690700Y-92539701D01*
X103709817Y-92560529D01*
X103821555Y-92714321D01*
X103960678Y-92853444D01*
X104119856Y-92969095D01*
X104295162Y-93058418D01*
X104482283Y-93119218D01*
X104525000Y-93125984D01*
X104525000Y-91933012D01*
X104582007Y-91965925D01*
X104709174Y-92000000D01*
X104840826Y-92000000D01*
X104967993Y-91965925D01*
X105025000Y-91933012D01*
X105025000Y-93125983D01*
X105067716Y-93119218D01*
X105254837Y-93058418D01*
X105430143Y-92969095D01*
X105589321Y-92853444D01*
X105728444Y-92714321D01*
X105844097Y-92555141D01*
X105934234Y-92378236D01*
X105982208Y-92327439D01*
X106050029Y-92310644D01*
X106116164Y-92333181D01*
X106155204Y-92378235D01*
X106156115Y-92380024D01*
X106156116Y-92380025D01*
X106245476Y-92555405D01*
X106290818Y-92617812D01*
X106314298Y-92683618D01*
X106314500Y-92690697D01*
X106314500Y-96413541D01*
X106314500Y-96413543D01*
X106314499Y-96413543D01*
X106352947Y-96606829D01*
X106352950Y-96606839D01*
X106428364Y-96788907D01*
X106428371Y-96788920D01*
X106537860Y-96952781D01*
X106537863Y-96952785D01*
X106681537Y-97096459D01*
X106681559Y-97096479D01*
X109963181Y-100378101D01*
X109996666Y-100439424D01*
X109999500Y-100465782D01*
X109999500Y-117738541D01*
X109999500Y-117738543D01*
X109999499Y-117738543D01*
X110037947Y-117931829D01*
X110037950Y-117931839D01*
X110113364Y-118113907D01*
X110113371Y-118113920D01*
X110222860Y-118277781D01*
X110222863Y-118277785D01*
X110366537Y-118421459D01*
X110366559Y-118421479D01*
X114413576Y-122468496D01*
X114447061Y-122529819D01*
X114449350Y-122545344D01*
X114476762Y-122718412D01*
X114482754Y-122756243D01*
X114534741Y-122916243D01*
X114548444Y-122958414D01*
X114644951Y-123147820D01*
X114769890Y-123319786D01*
X114920213Y-123470109D01*
X115092179Y-123595048D01*
X115092181Y-123595049D01*
X115092184Y-123595051D01*
X115281588Y-123691557D01*
X115483757Y-123757246D01*
X115693713Y-123790500D01*
X115693714Y-123790500D01*
X115906286Y-123790500D01*
X115906287Y-123790500D01*
X116116243Y-123757246D01*
X116318412Y-123691557D01*
X116507816Y-123595051D01*
X116581218Y-123541722D01*
X116679786Y-123470109D01*
X116679788Y-123470106D01*
X116679792Y-123470104D01*
X116830104Y-123319792D01*
X116830106Y-123319788D01*
X116830109Y-123319786D01*
X116955048Y-123147820D01*
X116955047Y-123147820D01*
X116955051Y-123147816D01*
X117051557Y-122958412D01*
X117117246Y-122756243D01*
X117150500Y-122546287D01*
X117150500Y-122333713D01*
X117117246Y-122123757D01*
X117051557Y-121921588D01*
X116955665Y-121733389D01*
X120799500Y-121733389D01*
X120799500Y-121906610D01*
X120826166Y-122074977D01*
X120826598Y-122077701D01*
X120880127Y-122242445D01*
X120958768Y-122396788D01*
X121060586Y-122536928D01*
X121183072Y-122659414D01*
X121323212Y-122761232D01*
X121477555Y-122839873D01*
X121642299Y-122893402D01*
X121813389Y-122920500D01*
X121813390Y-122920500D01*
X122786610Y-122920500D01*
X122786611Y-122920500D01*
X122957701Y-122893402D01*
X123122445Y-122839873D01*
X123276788Y-122761232D01*
X123416928Y-122659414D01*
X123539414Y-122536928D01*
X123641232Y-122396788D01*
X123719873Y-122242445D01*
X123773402Y-122077701D01*
X123800500Y-121906611D01*
X123800500Y-121733389D01*
X123800069Y-121730669D01*
X146195820Y-121730669D01*
X146195820Y-121903891D01*
X146222918Y-122074981D01*
X146276447Y-122239725D01*
X146355088Y-122394068D01*
X146456906Y-122534208D01*
X146579392Y-122656694D01*
X146719532Y-122758512D01*
X146873875Y-122837153D01*
X147038619Y-122890682D01*
X147209709Y-122917780D01*
X147209710Y-122917780D01*
X148182930Y-122917780D01*
X148182931Y-122917780D01*
X148354021Y-122890682D01*
X148518765Y-122837153D01*
X148673108Y-122758512D01*
X148813248Y-122656694D01*
X148935734Y-122534208D01*
X149037552Y-122394068D01*
X149116193Y-122239725D01*
X149169722Y-122074981D01*
X149196820Y-121903891D01*
X149196820Y-121730669D01*
X149169722Y-121559579D01*
X149116193Y-121394835D01*
X149037552Y-121240492D01*
X148935734Y-121100352D01*
X148813248Y-120977866D01*
X148673108Y-120876048D01*
X148518765Y-120797407D01*
X148354021Y-120743878D01*
X148354019Y-120743877D01*
X148354018Y-120743877D01*
X148200104Y-120719500D01*
X148182931Y-120716780D01*
X147209709Y-120716780D01*
X147192536Y-120719500D01*
X147038622Y-120743877D01*
X146873872Y-120797408D01*
X146719531Y-120876048D01*
X146645124Y-120930109D01*
X146579392Y-120977866D01*
X146579390Y-120977868D01*
X146579389Y-120977868D01*
X146456908Y-121100349D01*
X146456908Y-121100350D01*
X146456906Y-121100352D01*
X146454930Y-121103072D01*
X146355088Y-121240491D01*
X146276448Y-121394832D01*
X146222917Y-121559582D01*
X146203594Y-121681585D01*
X146195820Y-121730669D01*
X123800069Y-121730669D01*
X123773402Y-121562299D01*
X123719873Y-121397555D01*
X123641232Y-121243212D01*
X123539414Y-121103072D01*
X123416928Y-120980586D01*
X123276788Y-120878768D01*
X123122445Y-120800127D01*
X122957701Y-120746598D01*
X122957699Y-120746597D01*
X122957698Y-120746597D01*
X122826271Y-120725781D01*
X122786611Y-120719500D01*
X121813389Y-120719500D01*
X121773728Y-120725781D01*
X121642302Y-120746597D01*
X121477552Y-120800128D01*
X121323211Y-120878768D01*
X121278082Y-120911557D01*
X121183072Y-120980586D01*
X121183070Y-120980588D01*
X121183069Y-120980588D01*
X121060588Y-121103069D01*
X121060588Y-121103070D01*
X121060586Y-121103072D01*
X121016859Y-121163256D01*
X120958768Y-121243211D01*
X120880128Y-121397552D01*
X120826597Y-121562302D01*
X120799500Y-121733389D01*
X116955665Y-121733389D01*
X116955051Y-121732184D01*
X116955049Y-121732181D01*
X116955048Y-121732179D01*
X116830109Y-121560213D01*
X116679786Y-121409890D01*
X116507820Y-121284951D01*
X116507115Y-121284591D01*
X116499054Y-121280485D01*
X116448259Y-121232512D01*
X116431463Y-121164692D01*
X116453999Y-121098556D01*
X116499054Y-121059515D01*
X116507816Y-121055051D01*
X116581596Y-121001447D01*
X116679786Y-120930109D01*
X116679788Y-120930106D01*
X116679792Y-120930104D01*
X116830104Y-120779792D01*
X116830106Y-120779788D01*
X116830109Y-120779786D01*
X116955048Y-120607820D01*
X116955047Y-120607820D01*
X116955051Y-120607816D01*
X117051557Y-120418412D01*
X117117246Y-120216243D01*
X117150500Y-120006287D01*
X117150500Y-119793713D01*
X117117246Y-119583757D01*
X117051557Y-119381588D01*
X116955665Y-119193389D01*
X120799500Y-119193389D01*
X120799500Y-119366610D01*
X120826166Y-119534977D01*
X120826598Y-119537701D01*
X120880127Y-119702445D01*
X120958768Y-119856788D01*
X121060586Y-119996928D01*
X121183072Y-120119414D01*
X121323212Y-120221232D01*
X121477555Y-120299873D01*
X121642299Y-120353402D01*
X121813389Y-120380500D01*
X121813390Y-120380500D01*
X122786610Y-120380500D01*
X122786611Y-120380500D01*
X122957701Y-120353402D01*
X123122445Y-120299873D01*
X123276788Y-120221232D01*
X123416928Y-120119414D01*
X123539414Y-119996928D01*
X123641232Y-119856788D01*
X123719873Y-119702445D01*
X123773402Y-119537701D01*
X123800500Y-119366611D01*
X123800500Y-119193389D01*
X123800069Y-119190669D01*
X146195820Y-119190669D01*
X146195820Y-119363891D01*
X146198623Y-119381588D01*
X146222813Y-119534323D01*
X146222918Y-119534981D01*
X146276447Y-119699725D01*
X146355088Y-119854068D01*
X146456906Y-119994208D01*
X146579392Y-120116694D01*
X146719532Y-120218512D01*
X146873875Y-120297153D01*
X147038619Y-120350682D01*
X147209709Y-120377780D01*
X147209710Y-120377780D01*
X148182930Y-120377780D01*
X148182931Y-120377780D01*
X148354021Y-120350682D01*
X148518765Y-120297153D01*
X148673108Y-120218512D01*
X148813248Y-120116694D01*
X148935734Y-119994208D01*
X149037552Y-119854068D01*
X149116193Y-119699725D01*
X149169722Y-119534981D01*
X149196820Y-119363891D01*
X149196820Y-119190669D01*
X149169722Y-119019579D01*
X149116193Y-118854835D01*
X149037552Y-118700492D01*
X148935734Y-118560352D01*
X148813248Y-118437866D01*
X148673108Y-118336048D01*
X148518765Y-118257407D01*
X148354021Y-118203878D01*
X148354019Y-118203877D01*
X148354018Y-118203877D01*
X148200104Y-118179500D01*
X148182931Y-118176780D01*
X147209709Y-118176780D01*
X147192536Y-118179500D01*
X147038622Y-118203877D01*
X146873872Y-118257408D01*
X146719531Y-118336048D01*
X146645124Y-118390109D01*
X146579392Y-118437866D01*
X146579390Y-118437868D01*
X146579389Y-118437868D01*
X146456908Y-118560349D01*
X146456908Y-118560350D01*
X146456906Y-118560352D01*
X146419703Y-118611557D01*
X146355088Y-118700491D01*
X146276448Y-118854832D01*
X146222917Y-119019582D01*
X146203594Y-119141585D01*
X146195820Y-119190669D01*
X123800069Y-119190669D01*
X123773402Y-119022299D01*
X123719873Y-118857555D01*
X123641232Y-118703212D01*
X123539414Y-118563072D01*
X123416928Y-118440586D01*
X123276788Y-118338768D01*
X123122445Y-118260127D01*
X122957701Y-118206598D01*
X122957699Y-118206597D01*
X122957698Y-118206597D01*
X122826271Y-118185781D01*
X122786611Y-118179500D01*
X121813389Y-118179500D01*
X121773728Y-118185781D01*
X121642302Y-118206597D01*
X121477552Y-118260128D01*
X121323211Y-118338768D01*
X121278082Y-118371557D01*
X121183072Y-118440586D01*
X121183070Y-118440588D01*
X121183069Y-118440588D01*
X121060588Y-118563069D01*
X121060588Y-118563070D01*
X121060586Y-118563072D01*
X121016859Y-118623256D01*
X120958768Y-118703211D01*
X120880128Y-118857552D01*
X120826597Y-119022302D01*
X120799500Y-119193389D01*
X116955665Y-119193389D01*
X116955051Y-119192184D01*
X116955049Y-119192181D01*
X116955048Y-119192179D01*
X116830109Y-119020213D01*
X116679786Y-118869890D01*
X116507820Y-118744951D01*
X116507115Y-118744591D01*
X116499054Y-118740485D01*
X116448259Y-118692512D01*
X116431463Y-118624692D01*
X116453999Y-118558556D01*
X116499054Y-118519515D01*
X116507816Y-118515051D01*
X116581596Y-118461447D01*
X116679786Y-118390109D01*
X116679788Y-118390106D01*
X116679792Y-118390104D01*
X116830104Y-118239792D01*
X116830106Y-118239788D01*
X116830109Y-118239786D01*
X116955048Y-118067820D01*
X116955047Y-118067820D01*
X116955051Y-118067816D01*
X117051557Y-117878412D01*
X117117246Y-117676243D01*
X117150500Y-117466287D01*
X117150500Y-117253713D01*
X117117246Y-117043757D01*
X117051557Y-116841588D01*
X116955665Y-116653389D01*
X120799500Y-116653389D01*
X120799500Y-116826611D01*
X120826598Y-116997701D01*
X120880127Y-117162445D01*
X120958768Y-117316788D01*
X121060586Y-117456928D01*
X121183072Y-117579414D01*
X121323212Y-117681232D01*
X121477555Y-117759873D01*
X121642299Y-117813402D01*
X121813389Y-117840500D01*
X121813390Y-117840500D01*
X122786610Y-117840500D01*
X122786611Y-117840500D01*
X122957701Y-117813402D01*
X123122445Y-117759873D01*
X123276788Y-117681232D01*
X123416928Y-117579414D01*
X123539414Y-117456928D01*
X123641232Y-117316788D01*
X123719873Y-117162445D01*
X123773402Y-116997701D01*
X123800500Y-116826611D01*
X123800500Y-116653389D01*
X146199500Y-116653389D01*
X146199500Y-116826611D01*
X146226598Y-116997701D01*
X146280127Y-117162445D01*
X146358768Y-117316788D01*
X146460586Y-117456928D01*
X146583072Y-117579414D01*
X146723212Y-117681232D01*
X146877555Y-117759873D01*
X147042299Y-117813402D01*
X147213389Y-117840500D01*
X147213390Y-117840500D01*
X148186610Y-117840500D01*
X148186611Y-117840500D01*
X148357701Y-117813402D01*
X148522445Y-117759873D01*
X148676788Y-117681232D01*
X148816928Y-117579414D01*
X148939414Y-117456928D01*
X149041232Y-117316788D01*
X149119873Y-117162445D01*
X149173402Y-116997701D01*
X149200500Y-116826611D01*
X149200500Y-116653389D01*
X149173402Y-116482299D01*
X149119873Y-116317555D01*
X149041232Y-116163212D01*
X148939414Y-116023072D01*
X148816928Y-115900586D01*
X148676788Y-115798768D01*
X148522445Y-115720127D01*
X148357701Y-115666598D01*
X148357699Y-115666597D01*
X148357698Y-115666597D01*
X148226271Y-115645781D01*
X148186611Y-115639500D01*
X147213389Y-115639500D01*
X147173728Y-115645781D01*
X147042302Y-115666597D01*
X146877552Y-115720128D01*
X146723211Y-115798768D01*
X146678082Y-115831557D01*
X146583072Y-115900586D01*
X146583070Y-115900588D01*
X146583069Y-115900588D01*
X146460588Y-116023069D01*
X146460588Y-116023070D01*
X146460586Y-116023072D01*
X146416859Y-116083256D01*
X146358768Y-116163211D01*
X146280128Y-116317552D01*
X146226597Y-116482302D01*
X146207705Y-116601585D01*
X146199500Y-116653389D01*
X123800500Y-116653389D01*
X123773402Y-116482299D01*
X123719873Y-116317555D01*
X123641232Y-116163212D01*
X123539414Y-116023072D01*
X123416928Y-115900586D01*
X123276788Y-115798768D01*
X123122445Y-115720127D01*
X122957701Y-115666598D01*
X122957699Y-115666597D01*
X122957698Y-115666597D01*
X122826271Y-115645781D01*
X122786611Y-115639500D01*
X121813389Y-115639500D01*
X121773728Y-115645781D01*
X121642302Y-115666597D01*
X121477552Y-115720128D01*
X121323211Y-115798768D01*
X121278082Y-115831557D01*
X121183072Y-115900586D01*
X121183070Y-115900588D01*
X121183069Y-115900588D01*
X121060588Y-116023069D01*
X121060588Y-116023070D01*
X121060586Y-116023072D01*
X121016859Y-116083256D01*
X120958768Y-116163211D01*
X120880128Y-116317552D01*
X120826597Y-116482302D01*
X120807705Y-116601585D01*
X120799500Y-116653389D01*
X116955665Y-116653389D01*
X116955051Y-116652184D01*
X116955049Y-116652181D01*
X116955048Y-116652179D01*
X116830109Y-116480213D01*
X116679786Y-116329890D01*
X116507820Y-116204951D01*
X116507115Y-116204591D01*
X116499054Y-116200485D01*
X116448259Y-116152512D01*
X116431463Y-116084692D01*
X116453999Y-116018556D01*
X116499054Y-115979515D01*
X116507816Y-115975051D01*
X116581596Y-115921447D01*
X116679786Y-115850109D01*
X116679788Y-115850106D01*
X116679792Y-115850104D01*
X116830104Y-115699792D01*
X116830106Y-115699788D01*
X116830109Y-115699786D01*
X116955048Y-115527820D01*
X116955047Y-115527820D01*
X116955051Y-115527816D01*
X117051557Y-115338412D01*
X117117246Y-115136243D01*
X117150500Y-114926287D01*
X117150500Y-114713713D01*
X117117246Y-114503757D01*
X117051557Y-114301588D01*
X116955665Y-114113389D01*
X120799500Y-114113389D01*
X120799500Y-114286611D01*
X120826598Y-114457701D01*
X120880127Y-114622445D01*
X120958768Y-114776788D01*
X121060586Y-114916928D01*
X121183072Y-115039414D01*
X121323212Y-115141232D01*
X121477555Y-115219873D01*
X121642299Y-115273402D01*
X121813389Y-115300500D01*
X121813390Y-115300500D01*
X122786610Y-115300500D01*
X122786611Y-115300500D01*
X122957701Y-115273402D01*
X123122445Y-115219873D01*
X123276788Y-115141232D01*
X123416928Y-115039414D01*
X123539414Y-114916928D01*
X123641232Y-114776788D01*
X123719873Y-114622445D01*
X123773402Y-114457701D01*
X123800500Y-114286611D01*
X123800500Y-114113389D01*
X146199500Y-114113389D01*
X146199500Y-114286611D01*
X146226598Y-114457701D01*
X146280127Y-114622445D01*
X146358768Y-114776788D01*
X146460586Y-114916928D01*
X146583072Y-115039414D01*
X146723212Y-115141232D01*
X146877555Y-115219873D01*
X147042299Y-115273402D01*
X147213389Y-115300500D01*
X147213390Y-115300500D01*
X148186610Y-115300500D01*
X148186611Y-115300500D01*
X148357701Y-115273402D01*
X148522445Y-115219873D01*
X148676788Y-115141232D01*
X148816928Y-115039414D01*
X148939414Y-114916928D01*
X149041232Y-114776788D01*
X149119873Y-114622445D01*
X149173402Y-114457701D01*
X149200500Y-114286611D01*
X149200500Y-114113389D01*
X149173402Y-113942299D01*
X149119873Y-113777555D01*
X149041232Y-113623212D01*
X148939414Y-113483072D01*
X148816928Y-113360586D01*
X148676788Y-113258768D01*
X148522445Y-113180127D01*
X148357701Y-113126598D01*
X148357699Y-113126597D01*
X148357698Y-113126597D01*
X148226271Y-113105781D01*
X148186611Y-113099500D01*
X147213389Y-113099500D01*
X147173728Y-113105781D01*
X147042302Y-113126597D01*
X146877552Y-113180128D01*
X146723211Y-113258768D01*
X146652554Y-113310104D01*
X146583072Y-113360586D01*
X146583070Y-113360588D01*
X146583069Y-113360588D01*
X146460588Y-113483069D01*
X146460588Y-113483070D01*
X146460586Y-113483072D01*
X146416859Y-113543256D01*
X146358768Y-113623211D01*
X146280128Y-113777552D01*
X146226597Y-113942302D01*
X146222180Y-113970190D01*
X146199500Y-114113389D01*
X123800500Y-114113389D01*
X123773402Y-113942299D01*
X123719873Y-113777555D01*
X123641232Y-113623212D01*
X123539414Y-113483072D01*
X123416928Y-113360586D01*
X123276788Y-113258768D01*
X123122445Y-113180127D01*
X122957701Y-113126598D01*
X122957699Y-113126597D01*
X122957698Y-113126597D01*
X122826271Y-113105781D01*
X122786611Y-113099500D01*
X121813389Y-113099500D01*
X121773728Y-113105781D01*
X121642302Y-113126597D01*
X121477552Y-113180128D01*
X121323211Y-113258768D01*
X121252554Y-113310104D01*
X121183072Y-113360586D01*
X121183070Y-113360588D01*
X121183069Y-113360588D01*
X121060588Y-113483069D01*
X121060588Y-113483070D01*
X121060586Y-113483072D01*
X121016859Y-113543256D01*
X120958768Y-113623211D01*
X120880128Y-113777552D01*
X120826597Y-113942302D01*
X120822180Y-113970190D01*
X120799500Y-114113389D01*
X116955665Y-114113389D01*
X116955051Y-114112184D01*
X116955049Y-114112181D01*
X116955048Y-114112179D01*
X116830109Y-113940213D01*
X116679786Y-113789890D01*
X116507820Y-113664951D01*
X116507115Y-113664591D01*
X116499054Y-113660485D01*
X116448259Y-113612512D01*
X116431463Y-113544692D01*
X116453999Y-113478556D01*
X116499054Y-113439515D01*
X116507816Y-113435051D01*
X116529789Y-113419086D01*
X116679786Y-113310109D01*
X116679788Y-113310106D01*
X116679792Y-113310104D01*
X116830104Y-113159792D01*
X116830106Y-113159788D01*
X116830109Y-113159786D01*
X116955048Y-112987820D01*
X116955047Y-112987820D01*
X116955051Y-112987816D01*
X117051557Y-112798412D01*
X117117246Y-112596243D01*
X117150500Y-112386287D01*
X117150500Y-112173713D01*
X117117246Y-111963757D01*
X117051557Y-111761588D01*
X116955665Y-111573389D01*
X120799500Y-111573389D01*
X120799500Y-111746611D01*
X120826598Y-111917701D01*
X120880127Y-112082445D01*
X120958768Y-112236788D01*
X121060586Y-112376928D01*
X121183072Y-112499414D01*
X121323212Y-112601232D01*
X121477555Y-112679873D01*
X121642299Y-112733402D01*
X121813389Y-112760500D01*
X121813390Y-112760500D01*
X122786610Y-112760500D01*
X122786611Y-112760500D01*
X122957701Y-112733402D01*
X123122445Y-112679873D01*
X123276788Y-112601232D01*
X123416928Y-112499414D01*
X123539414Y-112376928D01*
X123641232Y-112236788D01*
X123719873Y-112082445D01*
X123773402Y-111917701D01*
X123800500Y-111746611D01*
X123800500Y-111573389D01*
X146199500Y-111573389D01*
X146199500Y-111746611D01*
X146226598Y-111917701D01*
X146280127Y-112082445D01*
X146358768Y-112236788D01*
X146460586Y-112376928D01*
X146583072Y-112499414D01*
X146723212Y-112601232D01*
X146877555Y-112679873D01*
X147042299Y-112733402D01*
X147213389Y-112760500D01*
X147213390Y-112760500D01*
X148186610Y-112760500D01*
X148186611Y-112760500D01*
X148357701Y-112733402D01*
X148522445Y-112679873D01*
X148676788Y-112601232D01*
X148816928Y-112499414D01*
X148939414Y-112376928D01*
X149041232Y-112236788D01*
X149119873Y-112082445D01*
X149173402Y-111917701D01*
X149200500Y-111746611D01*
X149200500Y-111573389D01*
X149173402Y-111402299D01*
X149119873Y-111237555D01*
X149041232Y-111083212D01*
X148939414Y-110943072D01*
X148816928Y-110820586D01*
X148676788Y-110718768D01*
X148522445Y-110640127D01*
X148357701Y-110586598D01*
X148357699Y-110586597D01*
X148357698Y-110586597D01*
X148226271Y-110565781D01*
X148186611Y-110559500D01*
X147213389Y-110559500D01*
X147173728Y-110565781D01*
X147042302Y-110586597D01*
X146877552Y-110640128D01*
X146723211Y-110718768D01*
X146643256Y-110776859D01*
X146583072Y-110820586D01*
X146583070Y-110820588D01*
X146583069Y-110820588D01*
X146460588Y-110943069D01*
X146460588Y-110943070D01*
X146460586Y-110943072D01*
X146416859Y-111003256D01*
X146358768Y-111083211D01*
X146280128Y-111237552D01*
X146226597Y-111402302D01*
X146201588Y-111560208D01*
X146199500Y-111573389D01*
X123800500Y-111573389D01*
X123773402Y-111402299D01*
X123719873Y-111237555D01*
X123641232Y-111083212D01*
X123539414Y-110943072D01*
X123416928Y-110820586D01*
X123276788Y-110718768D01*
X123122445Y-110640127D01*
X122957701Y-110586598D01*
X122957699Y-110586597D01*
X122957698Y-110586597D01*
X122826271Y-110565781D01*
X122786611Y-110559500D01*
X121813389Y-110559500D01*
X121773728Y-110565781D01*
X121642302Y-110586597D01*
X121477552Y-110640128D01*
X121323211Y-110718768D01*
X121243256Y-110776859D01*
X121183072Y-110820586D01*
X121183070Y-110820588D01*
X121183069Y-110820588D01*
X121060588Y-110943069D01*
X121060588Y-110943070D01*
X121060586Y-110943072D01*
X121016859Y-111003256D01*
X120958768Y-111083211D01*
X120880128Y-111237552D01*
X120826597Y-111402302D01*
X120801588Y-111560208D01*
X120799500Y-111573389D01*
X116955665Y-111573389D01*
X116955051Y-111572184D01*
X116955049Y-111572181D01*
X116955048Y-111572179D01*
X116830109Y-111400213D01*
X116679786Y-111249890D01*
X116507817Y-111124949D01*
X116498504Y-111120204D01*
X116447707Y-111072230D01*
X116430912Y-111004409D01*
X116453449Y-110938274D01*
X116498507Y-110899232D01*
X116507555Y-110894622D01*
X116561716Y-110855270D01*
X116561717Y-110855270D01*
X115929408Y-110222962D01*
X115992993Y-110205925D01*
X116107007Y-110140099D01*
X116200099Y-110047007D01*
X116265925Y-109932993D01*
X116282962Y-109869409D01*
X116915270Y-110501717D01*
X116915270Y-110501716D01*
X116954622Y-110447554D01*
X117051095Y-110258217D01*
X117116757Y-110056130D01*
X117116757Y-110056127D01*
X117150000Y-109846246D01*
X117150000Y-109633753D01*
X117116757Y-109423872D01*
X117116757Y-109423869D01*
X117099661Y-109371253D01*
X117051095Y-109221782D01*
X116983610Y-109089337D01*
X116915128Y-108978423D01*
X116282962Y-109610590D01*
X116265925Y-109547007D01*
X116200099Y-109432993D01*
X116107007Y-109339901D01*
X115992993Y-109274075D01*
X115929409Y-109257037D01*
X116316446Y-108869999D01*
X120825884Y-108869999D01*
X120825885Y-108870000D01*
X121984314Y-108870000D01*
X121979920Y-108874394D01*
X121927259Y-108965606D01*
X121900000Y-109067339D01*
X121900000Y-109172661D01*
X121927259Y-109274394D01*
X121979920Y-109365606D01*
X121984314Y-109370000D01*
X120825885Y-109370000D01*
X120827085Y-109377584D01*
X120880591Y-109542255D01*
X120959195Y-109696524D01*
X121060967Y-109836602D01*
X121183397Y-109959032D01*
X121323475Y-110060804D01*
X121477742Y-110139408D01*
X121642415Y-110192914D01*
X121813429Y-110220000D01*
X122050000Y-110220000D01*
X122050000Y-109435686D01*
X122054394Y-109440080D01*
X122145606Y-109492741D01*
X122247339Y-109520000D01*
X122352661Y-109520000D01*
X122454394Y-109492741D01*
X122545606Y-109440080D01*
X122550000Y-109435686D01*
X122550000Y-110220000D01*
X122786571Y-110220000D01*
X122957584Y-110192914D01*
X123122257Y-110139408D01*
X123276524Y-110060804D01*
X123416602Y-109959032D01*
X123539032Y-109836602D01*
X123640804Y-109696524D01*
X123719408Y-109542255D01*
X123772914Y-109377584D01*
X123774115Y-109370000D01*
X122615686Y-109370000D01*
X122620080Y-109365606D01*
X122672741Y-109274394D01*
X122700000Y-109172661D01*
X122700000Y-109067339D01*
X122690903Y-109033389D01*
X146199500Y-109033389D01*
X146199500Y-109206610D01*
X146225576Y-109371253D01*
X146226598Y-109377701D01*
X146280127Y-109542445D01*
X146358768Y-109696788D01*
X146460586Y-109836928D01*
X146583072Y-109959414D01*
X146723212Y-110061232D01*
X146877555Y-110139873D01*
X147042299Y-110193402D01*
X147213389Y-110220500D01*
X147213390Y-110220500D01*
X148186610Y-110220500D01*
X148186611Y-110220500D01*
X148357701Y-110193402D01*
X148522445Y-110139873D01*
X148676788Y-110061232D01*
X148816928Y-109959414D01*
X148939414Y-109836928D01*
X149041232Y-109696788D01*
X149119873Y-109542445D01*
X149173402Y-109377701D01*
X149200500Y-109206611D01*
X149200500Y-109033389D01*
X149173402Y-108862299D01*
X149119873Y-108697555D01*
X149041232Y-108543212D01*
X148939414Y-108403072D01*
X148816928Y-108280586D01*
X148676788Y-108178768D01*
X148522445Y-108100127D01*
X148357701Y-108046598D01*
X148357699Y-108046597D01*
X148357698Y-108046597D01*
X148226271Y-108025781D01*
X148186611Y-108019500D01*
X147213389Y-108019500D01*
X147173728Y-108025781D01*
X147042302Y-108046597D01*
X146877552Y-108100128D01*
X146723211Y-108178768D01*
X146652554Y-108230104D01*
X146583072Y-108280586D01*
X146583070Y-108280588D01*
X146583069Y-108280588D01*
X146460588Y-108403069D01*
X146460588Y-108403070D01*
X146460586Y-108403072D01*
X146416859Y-108463256D01*
X146358768Y-108543211D01*
X146280128Y-108697552D01*
X146226597Y-108862302D01*
X146199500Y-109033389D01*
X122690903Y-109033389D01*
X122672741Y-108965606D01*
X122620080Y-108874394D01*
X122615686Y-108870000D01*
X123774115Y-108870000D01*
X123774115Y-108869999D01*
X123772914Y-108862415D01*
X123719408Y-108697744D01*
X123640804Y-108543475D01*
X123539032Y-108403397D01*
X123416602Y-108280967D01*
X123276524Y-108179195D01*
X123122257Y-108100591D01*
X122957584Y-108047085D01*
X122786571Y-108020000D01*
X122550000Y-108020000D01*
X122550000Y-108804314D01*
X122545606Y-108799920D01*
X122454394Y-108747259D01*
X122352661Y-108720000D01*
X122247339Y-108720000D01*
X122145606Y-108747259D01*
X122054394Y-108799920D01*
X122050000Y-108804314D01*
X122050000Y-108020000D01*
X121813429Y-108020000D01*
X121642415Y-108047085D01*
X121477742Y-108100591D01*
X121323475Y-108179195D01*
X121183397Y-108280967D01*
X121060967Y-108403397D01*
X120959195Y-108543475D01*
X120880591Y-108697744D01*
X120827085Y-108862415D01*
X120825884Y-108869999D01*
X116316446Y-108869999D01*
X116561716Y-108624728D01*
X116507547Y-108585373D01*
X116507547Y-108585372D01*
X116498500Y-108580763D01*
X116447706Y-108532788D01*
X116430912Y-108464966D01*
X116453451Y-108398832D01*
X116498508Y-108359793D01*
X116507816Y-108355051D01*
X116666458Y-108239792D01*
X116679786Y-108230109D01*
X116679788Y-108230106D01*
X116679792Y-108230104D01*
X116830104Y-108079792D01*
X116830106Y-108079788D01*
X116830109Y-108079786D01*
X116955048Y-107907820D01*
X116955047Y-107907820D01*
X116955051Y-107907816D01*
X117051557Y-107718412D01*
X117117246Y-107516243D01*
X117150500Y-107306287D01*
X117150500Y-107093713D01*
X117117246Y-106883757D01*
X117051557Y-106681588D01*
X116955665Y-106493389D01*
X120799500Y-106493389D01*
X120799500Y-106666610D01*
X120816520Y-106774075D01*
X120826598Y-106837701D01*
X120880127Y-107002445D01*
X120958768Y-107156788D01*
X121060586Y-107296928D01*
X121183072Y-107419414D01*
X121323212Y-107521232D01*
X121477555Y-107599873D01*
X121642299Y-107653402D01*
X121813389Y-107680500D01*
X121813390Y-107680500D01*
X122786610Y-107680500D01*
X122786611Y-107680500D01*
X122957701Y-107653402D01*
X123122445Y-107599873D01*
X123276788Y-107521232D01*
X123416928Y-107419414D01*
X123539414Y-107296928D01*
X123641232Y-107156788D01*
X123719873Y-107002445D01*
X123773402Y-106837701D01*
X123800500Y-106666611D01*
X123800500Y-106493389D01*
X146199500Y-106493389D01*
X146199500Y-106666610D01*
X146216520Y-106774075D01*
X146226598Y-106837701D01*
X146280127Y-107002445D01*
X146358768Y-107156788D01*
X146460586Y-107296928D01*
X146583072Y-107419414D01*
X146723212Y-107521232D01*
X146877555Y-107599873D01*
X147042299Y-107653402D01*
X147213389Y-107680500D01*
X147213390Y-107680500D01*
X148186610Y-107680500D01*
X148186611Y-107680500D01*
X148357701Y-107653402D01*
X148522445Y-107599873D01*
X148676788Y-107521232D01*
X148816928Y-107419414D01*
X148939414Y-107296928D01*
X149041232Y-107156788D01*
X149119873Y-107002445D01*
X149173402Y-106837701D01*
X149200500Y-106666611D01*
X149200500Y-106493389D01*
X149173402Y-106322299D01*
X149119873Y-106157555D01*
X149041232Y-106003212D01*
X148939414Y-105863072D01*
X148816928Y-105740586D01*
X148676788Y-105638768D01*
X148522445Y-105560127D01*
X148357701Y-105506598D01*
X148357699Y-105506597D01*
X148357698Y-105506597D01*
X148226271Y-105485781D01*
X148186611Y-105479500D01*
X147213389Y-105479500D01*
X147173728Y-105485781D01*
X147042302Y-105506597D01*
X146877552Y-105560128D01*
X146723211Y-105638768D01*
X146652554Y-105690104D01*
X146583072Y-105740586D01*
X146583070Y-105740588D01*
X146583069Y-105740588D01*
X146460588Y-105863069D01*
X146460588Y-105863070D01*
X146460586Y-105863072D01*
X146416859Y-105923256D01*
X146358768Y-106003211D01*
X146280128Y-106157552D01*
X146226597Y-106322302D01*
X146199500Y-106493389D01*
X123800500Y-106493389D01*
X123773402Y-106322299D01*
X123719873Y-106157555D01*
X123641232Y-106003212D01*
X123539414Y-105863072D01*
X123416928Y-105740586D01*
X123276788Y-105638768D01*
X123122445Y-105560127D01*
X122957701Y-105506598D01*
X122957699Y-105506597D01*
X122957698Y-105506597D01*
X122826271Y-105485781D01*
X122786611Y-105479500D01*
X121813389Y-105479500D01*
X121773728Y-105485781D01*
X121642302Y-105506597D01*
X121477552Y-105560128D01*
X121323211Y-105638768D01*
X121252554Y-105690104D01*
X121183072Y-105740586D01*
X121183070Y-105740588D01*
X121183069Y-105740588D01*
X121060588Y-105863069D01*
X121060588Y-105863070D01*
X121060586Y-105863072D01*
X121016859Y-105923256D01*
X120958768Y-106003211D01*
X120880128Y-106157552D01*
X120826597Y-106322302D01*
X120799500Y-106493389D01*
X116955665Y-106493389D01*
X116955051Y-106492184D01*
X116955049Y-106492181D01*
X116955048Y-106492179D01*
X116830109Y-106320213D01*
X116679786Y-106169890D01*
X116507820Y-106044951D01*
X116507115Y-106044591D01*
X116499054Y-106040485D01*
X116448259Y-105992512D01*
X116431463Y-105924692D01*
X116453999Y-105858556D01*
X116499054Y-105819515D01*
X116507816Y-105815051D01*
X116529789Y-105799086D01*
X116679786Y-105690109D01*
X116679788Y-105690106D01*
X116679792Y-105690104D01*
X116830104Y-105539792D01*
X116830106Y-105539788D01*
X116830109Y-105539786D01*
X116955048Y-105367820D01*
X116955047Y-105367820D01*
X116955051Y-105367816D01*
X117051557Y-105178412D01*
X117117246Y-104976243D01*
X117150500Y-104766287D01*
X117150500Y-104553713D01*
X117117246Y-104343757D01*
X117051557Y-104141588D01*
X116955665Y-103953389D01*
X120799500Y-103953389D01*
X120799500Y-104126610D01*
X120808207Y-104181588D01*
X120826598Y-104297701D01*
X120880127Y-104462445D01*
X120958768Y-104616788D01*
X121060586Y-104756928D01*
X121183072Y-104879414D01*
X121323212Y-104981232D01*
X121477555Y-105059873D01*
X121642299Y-105113402D01*
X121813389Y-105140500D01*
X121813390Y-105140500D01*
X122786610Y-105140500D01*
X122786611Y-105140500D01*
X122957701Y-105113402D01*
X123122445Y-105059873D01*
X123276788Y-104981232D01*
X123416928Y-104879414D01*
X123539414Y-104756928D01*
X123641232Y-104616788D01*
X123719873Y-104462445D01*
X123773402Y-104297701D01*
X123800500Y-104126611D01*
X123800500Y-103953389D01*
X146199500Y-103953389D01*
X146199500Y-104126610D01*
X146208207Y-104181588D01*
X146226598Y-104297701D01*
X146280127Y-104462445D01*
X146358768Y-104616788D01*
X146460586Y-104756928D01*
X146583072Y-104879414D01*
X146723212Y-104981232D01*
X146877555Y-105059873D01*
X147042299Y-105113402D01*
X147213389Y-105140500D01*
X147213390Y-105140500D01*
X148186610Y-105140500D01*
X148186611Y-105140500D01*
X148357701Y-105113402D01*
X148522445Y-105059873D01*
X148676788Y-104981232D01*
X148816928Y-104879414D01*
X148939414Y-104756928D01*
X149041232Y-104616788D01*
X149119873Y-104462445D01*
X149173402Y-104297701D01*
X149200500Y-104126611D01*
X149200500Y-103953389D01*
X149173402Y-103782299D01*
X149119873Y-103617555D01*
X149041232Y-103463212D01*
X148939414Y-103323072D01*
X148816928Y-103200586D01*
X148676788Y-103098768D01*
X148522445Y-103020127D01*
X148357701Y-102966598D01*
X148357699Y-102966597D01*
X148357698Y-102966597D01*
X148226271Y-102945781D01*
X148186611Y-102939500D01*
X147213389Y-102939500D01*
X147173728Y-102945781D01*
X147042302Y-102966597D01*
X146877552Y-103020128D01*
X146723211Y-103098768D01*
X146652554Y-103150104D01*
X146583072Y-103200586D01*
X146583070Y-103200588D01*
X146583069Y-103200588D01*
X146460588Y-103323069D01*
X146460588Y-103323070D01*
X146460586Y-103323072D01*
X146416859Y-103383256D01*
X146358768Y-103463211D01*
X146280128Y-103617552D01*
X146226597Y-103782302D01*
X146199500Y-103953389D01*
X123800500Y-103953389D01*
X123773402Y-103782299D01*
X123719873Y-103617555D01*
X123641232Y-103463212D01*
X123539414Y-103323072D01*
X123416928Y-103200586D01*
X123276788Y-103098768D01*
X123122445Y-103020127D01*
X122957701Y-102966598D01*
X122957699Y-102966597D01*
X122957698Y-102966597D01*
X122826271Y-102945781D01*
X122786611Y-102939500D01*
X121813389Y-102939500D01*
X121773728Y-102945781D01*
X121642302Y-102966597D01*
X121477552Y-103020128D01*
X121323211Y-103098768D01*
X121252554Y-103150104D01*
X121183072Y-103200586D01*
X121183070Y-103200588D01*
X121183069Y-103200588D01*
X121060588Y-103323069D01*
X121060588Y-103323070D01*
X121060586Y-103323072D01*
X121016859Y-103383256D01*
X120958768Y-103463211D01*
X120880128Y-103617552D01*
X120826597Y-103782302D01*
X120799500Y-103953389D01*
X116955665Y-103953389D01*
X116955051Y-103952184D01*
X116955049Y-103952181D01*
X116955048Y-103952179D01*
X116830109Y-103780213D01*
X116679786Y-103629890D01*
X116507820Y-103504951D01*
X116507115Y-103504591D01*
X116499054Y-103500485D01*
X116448259Y-103452512D01*
X116431463Y-103384692D01*
X116453999Y-103318556D01*
X116499054Y-103279515D01*
X116507816Y-103275051D01*
X116529789Y-103259086D01*
X116679786Y-103150109D01*
X116679788Y-103150106D01*
X116679792Y-103150104D01*
X116830104Y-102999792D01*
X116830106Y-102999788D01*
X116830109Y-102999786D01*
X116955048Y-102827820D01*
X116955047Y-102827820D01*
X116955051Y-102827816D01*
X117051557Y-102638412D01*
X117117246Y-102436243D01*
X117150500Y-102226287D01*
X117150500Y-102013713D01*
X117117246Y-101803757D01*
X117051557Y-101601588D01*
X116955665Y-101413389D01*
X120799500Y-101413389D01*
X120799500Y-101586610D01*
X120808207Y-101641588D01*
X120826598Y-101757701D01*
X120880127Y-101922445D01*
X120958768Y-102076788D01*
X121060586Y-102216928D01*
X121183072Y-102339414D01*
X121323212Y-102441232D01*
X121477555Y-102519873D01*
X121642299Y-102573402D01*
X121813389Y-102600500D01*
X121813390Y-102600500D01*
X122786610Y-102600500D01*
X122786611Y-102600500D01*
X122957701Y-102573402D01*
X123122445Y-102519873D01*
X123276788Y-102441232D01*
X123416928Y-102339414D01*
X123539414Y-102216928D01*
X123641232Y-102076788D01*
X123719873Y-101922445D01*
X123773402Y-101757701D01*
X123800500Y-101586611D01*
X123800500Y-101413389D01*
X146199500Y-101413389D01*
X146199500Y-101586610D01*
X146208207Y-101641588D01*
X146226598Y-101757701D01*
X146280127Y-101922445D01*
X146358768Y-102076788D01*
X146460586Y-102216928D01*
X146583072Y-102339414D01*
X146723212Y-102441232D01*
X146877555Y-102519873D01*
X147042299Y-102573402D01*
X147213389Y-102600500D01*
X147213390Y-102600500D01*
X148186610Y-102600500D01*
X148186611Y-102600500D01*
X148357701Y-102573402D01*
X148522445Y-102519873D01*
X148676788Y-102441232D01*
X148816928Y-102339414D01*
X148939414Y-102216928D01*
X149041232Y-102076788D01*
X149119873Y-101922445D01*
X149173402Y-101757701D01*
X149200500Y-101586611D01*
X149200500Y-101413389D01*
X149173402Y-101242299D01*
X149119873Y-101077555D01*
X149041232Y-100923212D01*
X148939414Y-100783072D01*
X148816928Y-100660586D01*
X148676788Y-100558768D01*
X148522445Y-100480127D01*
X148357701Y-100426598D01*
X148357699Y-100426597D01*
X148357698Y-100426597D01*
X148226271Y-100405781D01*
X148186611Y-100399500D01*
X147213389Y-100399500D01*
X147173728Y-100405781D01*
X147042302Y-100426597D01*
X146877552Y-100480128D01*
X146723211Y-100558768D01*
X146652554Y-100610104D01*
X146583072Y-100660586D01*
X146583070Y-100660588D01*
X146583069Y-100660588D01*
X146460588Y-100783069D01*
X146460588Y-100783070D01*
X146460586Y-100783072D01*
X146416859Y-100843256D01*
X146358768Y-100923211D01*
X146280128Y-101077552D01*
X146226597Y-101242302D01*
X146199500Y-101413389D01*
X123800500Y-101413389D01*
X123773402Y-101242299D01*
X123719873Y-101077555D01*
X123641232Y-100923212D01*
X123539414Y-100783072D01*
X123416928Y-100660586D01*
X123276788Y-100558768D01*
X123122445Y-100480127D01*
X122957701Y-100426598D01*
X122957699Y-100426597D01*
X122957698Y-100426597D01*
X122826271Y-100405781D01*
X122786611Y-100399500D01*
X121813389Y-100399500D01*
X121773728Y-100405781D01*
X121642302Y-100426597D01*
X121477552Y-100480128D01*
X121323211Y-100558768D01*
X121252554Y-100610104D01*
X121183072Y-100660586D01*
X121183070Y-100660588D01*
X121183069Y-100660588D01*
X121060588Y-100783069D01*
X121060588Y-100783070D01*
X121060586Y-100783072D01*
X121016859Y-100843256D01*
X120958768Y-100923211D01*
X120880128Y-101077552D01*
X120826597Y-101242302D01*
X120799500Y-101413389D01*
X116955665Y-101413389D01*
X116955051Y-101412184D01*
X116955049Y-101412181D01*
X116955048Y-101412179D01*
X116830109Y-101240213D01*
X116679786Y-101089890D01*
X116507820Y-100964951D01*
X116507115Y-100964591D01*
X116499054Y-100960485D01*
X116448259Y-100912512D01*
X116431463Y-100844692D01*
X116453999Y-100778556D01*
X116499054Y-100739515D01*
X116507816Y-100735051D01*
X116529789Y-100719086D01*
X116679786Y-100610109D01*
X116679788Y-100610106D01*
X116679792Y-100610104D01*
X116830104Y-100459792D01*
X116830106Y-100459788D01*
X116830109Y-100459786D01*
X116955048Y-100287820D01*
X116955047Y-100287820D01*
X116955051Y-100287816D01*
X117051557Y-100098412D01*
X117117246Y-99896243D01*
X117150500Y-99686287D01*
X117150500Y-99473713D01*
X117117246Y-99263757D01*
X117051557Y-99061588D01*
X116955665Y-98873389D01*
X120799500Y-98873389D01*
X120799500Y-99046610D01*
X120808207Y-99101588D01*
X120826598Y-99217701D01*
X120880127Y-99382445D01*
X120958768Y-99536788D01*
X121060586Y-99676928D01*
X121183072Y-99799414D01*
X121323212Y-99901232D01*
X121477555Y-99979873D01*
X121642299Y-100033402D01*
X121813389Y-100060500D01*
X121813390Y-100060500D01*
X122786610Y-100060500D01*
X122786611Y-100060500D01*
X122957701Y-100033402D01*
X123122445Y-99979873D01*
X123276788Y-99901232D01*
X123416928Y-99799414D01*
X123539414Y-99676928D01*
X123641232Y-99536788D01*
X123719873Y-99382445D01*
X123773402Y-99217701D01*
X123800500Y-99046611D01*
X123800500Y-98873389D01*
X146199500Y-98873389D01*
X146199500Y-99046610D01*
X146208207Y-99101588D01*
X146226598Y-99217701D01*
X146280127Y-99382445D01*
X146358768Y-99536788D01*
X146460586Y-99676928D01*
X146583072Y-99799414D01*
X146723212Y-99901232D01*
X146877555Y-99979873D01*
X147042299Y-100033402D01*
X147213389Y-100060500D01*
X147213390Y-100060500D01*
X148186610Y-100060500D01*
X148186611Y-100060500D01*
X148357701Y-100033402D01*
X148522445Y-99979873D01*
X148676788Y-99901232D01*
X148816928Y-99799414D01*
X148939414Y-99676928D01*
X149041232Y-99536788D01*
X149119873Y-99382445D01*
X149173402Y-99217701D01*
X149200500Y-99046611D01*
X149200500Y-98873389D01*
X149173402Y-98702299D01*
X149119873Y-98537555D01*
X149041232Y-98383212D01*
X148939414Y-98243072D01*
X148816928Y-98120586D01*
X148676788Y-98018768D01*
X148522445Y-97940127D01*
X148357701Y-97886598D01*
X148357699Y-97886597D01*
X148357698Y-97886597D01*
X148226271Y-97865781D01*
X148186611Y-97859500D01*
X147213389Y-97859500D01*
X147173728Y-97865781D01*
X147042302Y-97886597D01*
X146877552Y-97940128D01*
X146723211Y-98018768D01*
X146652554Y-98070104D01*
X146583072Y-98120586D01*
X146583070Y-98120588D01*
X146583069Y-98120588D01*
X146460588Y-98243069D01*
X146460588Y-98243070D01*
X146460586Y-98243072D01*
X146416859Y-98303256D01*
X146358768Y-98383211D01*
X146280128Y-98537552D01*
X146226597Y-98702302D01*
X146199500Y-98873389D01*
X123800500Y-98873389D01*
X123773402Y-98702299D01*
X123719873Y-98537555D01*
X123641232Y-98383212D01*
X123539414Y-98243072D01*
X123416928Y-98120586D01*
X123276788Y-98018768D01*
X123122445Y-97940127D01*
X122957701Y-97886598D01*
X122957699Y-97886597D01*
X122957698Y-97886597D01*
X122826271Y-97865781D01*
X122786611Y-97859500D01*
X121813389Y-97859500D01*
X121773728Y-97865781D01*
X121642302Y-97886597D01*
X121477552Y-97940128D01*
X121323211Y-98018768D01*
X121252554Y-98070104D01*
X121183072Y-98120586D01*
X121183070Y-98120588D01*
X121183069Y-98120588D01*
X121060588Y-98243069D01*
X121060588Y-98243070D01*
X121060586Y-98243072D01*
X121016859Y-98303256D01*
X120958768Y-98383211D01*
X120880128Y-98537552D01*
X120826597Y-98702302D01*
X120799500Y-98873389D01*
X116955665Y-98873389D01*
X116955051Y-98872184D01*
X116955049Y-98872181D01*
X116955048Y-98872179D01*
X116830109Y-98700213D01*
X116679786Y-98549890D01*
X116507820Y-98424951D01*
X116507115Y-98424591D01*
X116499054Y-98420485D01*
X116448259Y-98372512D01*
X116431463Y-98304692D01*
X116453999Y-98238556D01*
X116499054Y-98199515D01*
X116507816Y-98195051D01*
X116529789Y-98179086D01*
X116679786Y-98070109D01*
X116679788Y-98070106D01*
X116679792Y-98070104D01*
X116830104Y-97919792D01*
X116830106Y-97919788D01*
X116830109Y-97919786D01*
X116955048Y-97747820D01*
X116955047Y-97747820D01*
X116955051Y-97747816D01*
X117051557Y-97558412D01*
X117117246Y-97356243D01*
X117150500Y-97146287D01*
X117150500Y-96933713D01*
X117117246Y-96723757D01*
X117051557Y-96521588D01*
X116955665Y-96333389D01*
X120799500Y-96333389D01*
X120799500Y-96506610D01*
X120815374Y-96606839D01*
X120826598Y-96677701D01*
X120880127Y-96842445D01*
X120958768Y-96996788D01*
X121060586Y-97136928D01*
X121183072Y-97259414D01*
X121323212Y-97361232D01*
X121477555Y-97439873D01*
X121642299Y-97493402D01*
X121813389Y-97520500D01*
X121813390Y-97520500D01*
X122786610Y-97520500D01*
X122786611Y-97520500D01*
X122957701Y-97493402D01*
X123122445Y-97439873D01*
X123276788Y-97361232D01*
X123416928Y-97259414D01*
X123539414Y-97136928D01*
X123641232Y-96996788D01*
X123719873Y-96842445D01*
X123773402Y-96677701D01*
X123800500Y-96506611D01*
X123800500Y-96333389D01*
X146199500Y-96333389D01*
X146199500Y-96506610D01*
X146215374Y-96606839D01*
X146226598Y-96677701D01*
X146280127Y-96842445D01*
X146358768Y-96996788D01*
X146460586Y-97136928D01*
X146583072Y-97259414D01*
X146723212Y-97361232D01*
X146877555Y-97439873D01*
X147042299Y-97493402D01*
X147213389Y-97520500D01*
X147213390Y-97520500D01*
X148186610Y-97520500D01*
X148186611Y-97520500D01*
X148357701Y-97493402D01*
X148522445Y-97439873D01*
X148676788Y-97361232D01*
X148816928Y-97259414D01*
X148939414Y-97136928D01*
X149041232Y-96996788D01*
X149119873Y-96842445D01*
X149173402Y-96677701D01*
X149200500Y-96506611D01*
X149200500Y-96333389D01*
X149173402Y-96162299D01*
X149119873Y-95997555D01*
X149041232Y-95843212D01*
X148939414Y-95703072D01*
X148816928Y-95580586D01*
X148676788Y-95478768D01*
X148522445Y-95400127D01*
X148357701Y-95346598D01*
X148357699Y-95346597D01*
X148357698Y-95346597D01*
X148226271Y-95325781D01*
X148186611Y-95319500D01*
X147213389Y-95319500D01*
X147173728Y-95325781D01*
X147042302Y-95346597D01*
X146877552Y-95400128D01*
X146723211Y-95478768D01*
X146652554Y-95530104D01*
X146583072Y-95580586D01*
X146583070Y-95580588D01*
X146583069Y-95580588D01*
X146460588Y-95703069D01*
X146460588Y-95703070D01*
X146460586Y-95703072D01*
X146416859Y-95763256D01*
X146358768Y-95843211D01*
X146280128Y-95997552D01*
X146226597Y-96162302D01*
X146199500Y-96333389D01*
X123800500Y-96333389D01*
X123773402Y-96162299D01*
X123719873Y-95997555D01*
X123641232Y-95843212D01*
X123539414Y-95703072D01*
X123416928Y-95580586D01*
X123276788Y-95478768D01*
X123122445Y-95400127D01*
X122957701Y-95346598D01*
X122957699Y-95346597D01*
X122957698Y-95346597D01*
X122826271Y-95325781D01*
X122786611Y-95319500D01*
X121813389Y-95319500D01*
X121773728Y-95325781D01*
X121642302Y-95346597D01*
X121477552Y-95400128D01*
X121323211Y-95478768D01*
X121252554Y-95530104D01*
X121183072Y-95580586D01*
X121183070Y-95580588D01*
X121183069Y-95580588D01*
X121060588Y-95703069D01*
X121060588Y-95703070D01*
X121060586Y-95703072D01*
X121016859Y-95763256D01*
X120958768Y-95843211D01*
X120880128Y-95997552D01*
X120826597Y-96162302D01*
X120799500Y-96333389D01*
X116955665Y-96333389D01*
X116955051Y-96332184D01*
X116955049Y-96332181D01*
X116955048Y-96332179D01*
X116830109Y-96160213D01*
X116679786Y-96009890D01*
X116507820Y-95884951D01*
X116503618Y-95882810D01*
X116499054Y-95880485D01*
X116448259Y-95832512D01*
X116431463Y-95764692D01*
X116453999Y-95698556D01*
X116499054Y-95659515D01*
X116507816Y-95655051D01*
X116539092Y-95632328D01*
X116679786Y-95530109D01*
X116679788Y-95530106D01*
X116679792Y-95530104D01*
X116830104Y-95379792D01*
X116830106Y-95379788D01*
X116830109Y-95379786D01*
X116955048Y-95207820D01*
X116955047Y-95207820D01*
X116955051Y-95207816D01*
X117051557Y-95018412D01*
X117117246Y-94816243D01*
X117150500Y-94606287D01*
X117150500Y-94393713D01*
X117117246Y-94183757D01*
X117051557Y-93981588D01*
X116955665Y-93793389D01*
X120799500Y-93793389D01*
X120799500Y-93966611D01*
X120826598Y-94137701D01*
X120880127Y-94302445D01*
X120958768Y-94456788D01*
X121060586Y-94596928D01*
X121183072Y-94719414D01*
X121323212Y-94821232D01*
X121477555Y-94899873D01*
X121642299Y-94953402D01*
X121813389Y-94980500D01*
X121813390Y-94980500D01*
X122786610Y-94980500D01*
X122786611Y-94980500D01*
X122957701Y-94953402D01*
X123122445Y-94899873D01*
X123276788Y-94821232D01*
X123416928Y-94719414D01*
X123539414Y-94596928D01*
X123641232Y-94456788D01*
X123719873Y-94302445D01*
X123773402Y-94137701D01*
X123800500Y-93966611D01*
X123800500Y-93793389D01*
X146199500Y-93793389D01*
X146199500Y-93966611D01*
X146226598Y-94137701D01*
X146280127Y-94302445D01*
X146358768Y-94456788D01*
X146460586Y-94596928D01*
X146583072Y-94719414D01*
X146723212Y-94821232D01*
X146877555Y-94899873D01*
X147042299Y-94953402D01*
X147213389Y-94980500D01*
X147213390Y-94980500D01*
X148186610Y-94980500D01*
X148186611Y-94980500D01*
X148357701Y-94953402D01*
X148522445Y-94899873D01*
X148676788Y-94821232D01*
X148816928Y-94719414D01*
X148939414Y-94596928D01*
X149041232Y-94456788D01*
X149119873Y-94302445D01*
X149173402Y-94137701D01*
X149200500Y-93966611D01*
X149200500Y-93793389D01*
X149173402Y-93622299D01*
X149119873Y-93457555D01*
X149041232Y-93303212D01*
X148939414Y-93163072D01*
X148816928Y-93040586D01*
X148676788Y-92938768D01*
X148522445Y-92860127D01*
X148357701Y-92806598D01*
X148357699Y-92806597D01*
X148357698Y-92806597D01*
X148226271Y-92785781D01*
X148186611Y-92779500D01*
X147213389Y-92779500D01*
X147173728Y-92785781D01*
X147042302Y-92806597D01*
X146877552Y-92860128D01*
X146723211Y-92938768D01*
X146652554Y-92990104D01*
X146583072Y-93040586D01*
X146583070Y-93040588D01*
X146583069Y-93040588D01*
X146460588Y-93163069D01*
X146460588Y-93163070D01*
X146460586Y-93163072D01*
X146416859Y-93223256D01*
X146358768Y-93303211D01*
X146280128Y-93457552D01*
X146226597Y-93622302D01*
X146223457Y-93642128D01*
X146199500Y-93793389D01*
X123800500Y-93793389D01*
X123773402Y-93622299D01*
X123719873Y-93457555D01*
X123641232Y-93303212D01*
X123539414Y-93163072D01*
X123416928Y-93040586D01*
X123276788Y-92938768D01*
X123122445Y-92860127D01*
X122957701Y-92806598D01*
X122957699Y-92806597D01*
X122957698Y-92806597D01*
X122826271Y-92785781D01*
X122786611Y-92779500D01*
X121813389Y-92779500D01*
X121773728Y-92785781D01*
X121642302Y-92806597D01*
X121477552Y-92860128D01*
X121323211Y-92938768D01*
X121252554Y-92990104D01*
X121183072Y-93040586D01*
X121183070Y-93040588D01*
X121183069Y-93040588D01*
X121060588Y-93163069D01*
X121060588Y-93163070D01*
X121060586Y-93163072D01*
X121016859Y-93223256D01*
X120958768Y-93303211D01*
X120880128Y-93457552D01*
X120826597Y-93622302D01*
X120823457Y-93642128D01*
X120799500Y-93793389D01*
X116955665Y-93793389D01*
X116955051Y-93792184D01*
X116955049Y-93792181D01*
X116955048Y-93792179D01*
X116830109Y-93620213D01*
X116679786Y-93469890D01*
X116507820Y-93344951D01*
X116503508Y-93342754D01*
X116499054Y-93340485D01*
X116448259Y-93292512D01*
X116431463Y-93224692D01*
X116453999Y-93158556D01*
X116499054Y-93119515D01*
X116507816Y-93115051D01*
X116537075Y-93093793D01*
X116679786Y-92990109D01*
X116679788Y-92990106D01*
X116679792Y-92990104D01*
X116830104Y-92839792D01*
X116830106Y-92839788D01*
X116830109Y-92839786D01*
X116955048Y-92667820D01*
X116955047Y-92667820D01*
X116955051Y-92667816D01*
X117051557Y-92478412D01*
X117117246Y-92276243D01*
X117150500Y-92066287D01*
X117150500Y-91853713D01*
X117117246Y-91643757D01*
X117051557Y-91441588D01*
X116955665Y-91253389D01*
X120799500Y-91253389D01*
X120799500Y-91426611D01*
X120826598Y-91597701D01*
X120880127Y-91762445D01*
X120958768Y-91916788D01*
X121060586Y-92056928D01*
X121183072Y-92179414D01*
X121323212Y-92281232D01*
X121477555Y-92359873D01*
X121642299Y-92413402D01*
X121813389Y-92440500D01*
X121813390Y-92440500D01*
X122786610Y-92440500D01*
X122786611Y-92440500D01*
X122957701Y-92413402D01*
X123122445Y-92359873D01*
X123276788Y-92281232D01*
X123416928Y-92179414D01*
X123539414Y-92056928D01*
X123641232Y-91916788D01*
X123719873Y-91762445D01*
X123773402Y-91597701D01*
X123800500Y-91426611D01*
X123800500Y-91253389D01*
X123800309Y-91252184D01*
X123783565Y-91146462D01*
X123783565Y-91146460D01*
X123776190Y-91099901D01*
X123774622Y-91089999D01*
X146225884Y-91089999D01*
X146225885Y-91090000D01*
X147384314Y-91090000D01*
X147379920Y-91094394D01*
X147327259Y-91185606D01*
X147300000Y-91287339D01*
X147300000Y-91392661D01*
X147327259Y-91494394D01*
X147379920Y-91585606D01*
X147384314Y-91590000D01*
X146225885Y-91590000D01*
X146227085Y-91597584D01*
X146280591Y-91762255D01*
X146359195Y-91916524D01*
X146460967Y-92056602D01*
X146583397Y-92179032D01*
X146723475Y-92280804D01*
X146877742Y-92359408D01*
X147042415Y-92412914D01*
X147213429Y-92440000D01*
X147450000Y-92440000D01*
X147450000Y-91655686D01*
X147454394Y-91660080D01*
X147545606Y-91712741D01*
X147647339Y-91740000D01*
X147752661Y-91740000D01*
X147854394Y-91712741D01*
X147945606Y-91660080D01*
X147950000Y-91655686D01*
X147950000Y-92440000D01*
X148186571Y-92440000D01*
X148357584Y-92412914D01*
X148522257Y-92359408D01*
X148676524Y-92280804D01*
X148816602Y-92179032D01*
X148939032Y-92056602D01*
X149026657Y-91935996D01*
X149026657Y-91935995D01*
X149040803Y-91916525D01*
X149119408Y-91762255D01*
X149172914Y-91597584D01*
X149174115Y-91590000D01*
X148015686Y-91590000D01*
X148020080Y-91585606D01*
X148072741Y-91494394D01*
X148100000Y-91392661D01*
X148100000Y-91287339D01*
X148072741Y-91185606D01*
X148020080Y-91094394D01*
X148015686Y-91090000D01*
X149174115Y-91090000D01*
X149174115Y-91089999D01*
X149172914Y-91082415D01*
X149119408Y-90917744D01*
X149040804Y-90763475D01*
X148939032Y-90623397D01*
X148816602Y-90500967D01*
X148676524Y-90399195D01*
X148522257Y-90320591D01*
X148357584Y-90267085D01*
X148186571Y-90240000D01*
X147950000Y-90240000D01*
X147950000Y-91024314D01*
X147945606Y-91019920D01*
X147854394Y-90967259D01*
X147752661Y-90940000D01*
X147647339Y-90940000D01*
X147545606Y-90967259D01*
X147454394Y-91019920D01*
X147450000Y-91024314D01*
X147450000Y-90240000D01*
X147213429Y-90240000D01*
X147042415Y-90267085D01*
X146877742Y-90320591D01*
X146723475Y-90399195D01*
X146583397Y-90500967D01*
X146460967Y-90623397D01*
X146359195Y-90763475D01*
X146280591Y-90917744D01*
X146227085Y-91082415D01*
X146225884Y-91089999D01*
X123774622Y-91089999D01*
X123773402Y-91082299D01*
X123719873Y-90917555D01*
X123641232Y-90763212D01*
X123539414Y-90623072D01*
X123416928Y-90500586D01*
X123276788Y-90398768D01*
X123122445Y-90320127D01*
X122957701Y-90266598D01*
X122957699Y-90266597D01*
X122957698Y-90266597D01*
X122826271Y-90245781D01*
X122786611Y-90239500D01*
X121813389Y-90239500D01*
X121773728Y-90245781D01*
X121642302Y-90266597D01*
X121477552Y-90320128D01*
X121323211Y-90398768D01*
X121256064Y-90447554D01*
X121183072Y-90500586D01*
X121183070Y-90500588D01*
X121183069Y-90500588D01*
X121060588Y-90623069D01*
X121060588Y-90623070D01*
X121060586Y-90623072D01*
X121024631Y-90672560D01*
X120958768Y-90763211D01*
X120880128Y-90917552D01*
X120826597Y-91082302D01*
X120810236Y-91185606D01*
X120799500Y-91253389D01*
X116955665Y-91253389D01*
X116955051Y-91252184D01*
X116955049Y-91252181D01*
X116955048Y-91252179D01*
X116830109Y-91080213D01*
X116679786Y-90929890D01*
X116507820Y-90804951D01*
X116507115Y-90804591D01*
X116499054Y-90800485D01*
X116448259Y-90752512D01*
X116431463Y-90684692D01*
X116453999Y-90618556D01*
X116499054Y-90579515D01*
X116507816Y-90575051D01*
X116529789Y-90559086D01*
X116679786Y-90450109D01*
X116679788Y-90450106D01*
X116679792Y-90450104D01*
X116830104Y-90299792D01*
X116830106Y-90299788D01*
X116830109Y-90299786D01*
X116955048Y-90127820D01*
X116955047Y-90127820D01*
X116955051Y-90127816D01*
X117051557Y-89938412D01*
X117117246Y-89736243D01*
X117150500Y-89526287D01*
X117150500Y-89313713D01*
X117117246Y-89103757D01*
X117051557Y-88901588D01*
X116955665Y-88713389D01*
X120799500Y-88713389D01*
X120799500Y-88886611D01*
X120799830Y-88888693D01*
X120825767Y-89052459D01*
X120826598Y-89057701D01*
X120880127Y-89222445D01*
X120958768Y-89376788D01*
X121060586Y-89516928D01*
X121183072Y-89639414D01*
X121323212Y-89741232D01*
X121477555Y-89819873D01*
X121642299Y-89873402D01*
X121813389Y-89900500D01*
X121813390Y-89900500D01*
X122786610Y-89900500D01*
X122786611Y-89900500D01*
X122957701Y-89873402D01*
X123122445Y-89819873D01*
X123276788Y-89741232D01*
X123416928Y-89639414D01*
X123539414Y-89516928D01*
X123641232Y-89376788D01*
X123719873Y-89222445D01*
X123773402Y-89057701D01*
X123800500Y-88886611D01*
X123800500Y-88713389D01*
X146199500Y-88713389D01*
X146199500Y-88886611D01*
X146199830Y-88888693D01*
X146225767Y-89052459D01*
X146226598Y-89057701D01*
X146280127Y-89222445D01*
X146358768Y-89376788D01*
X146460586Y-89516928D01*
X146583072Y-89639414D01*
X146723212Y-89741232D01*
X146877555Y-89819873D01*
X147042299Y-89873402D01*
X147213389Y-89900500D01*
X147213390Y-89900500D01*
X148186610Y-89900500D01*
X148186611Y-89900500D01*
X148357701Y-89873402D01*
X148522445Y-89819873D01*
X148676788Y-89741232D01*
X148816928Y-89639414D01*
X148939414Y-89516928D01*
X149041232Y-89376788D01*
X149119873Y-89222445D01*
X149173402Y-89057701D01*
X149200500Y-88886611D01*
X149200500Y-88713389D01*
X149173402Y-88542299D01*
X149119873Y-88377555D01*
X149041232Y-88223212D01*
X148939414Y-88083072D01*
X148816928Y-87960586D01*
X148676788Y-87858768D01*
X148522445Y-87780127D01*
X148357701Y-87726598D01*
X148357699Y-87726597D01*
X148357698Y-87726597D01*
X148226271Y-87705781D01*
X148186611Y-87699500D01*
X147213389Y-87699500D01*
X147173728Y-87705781D01*
X147042302Y-87726597D01*
X146877552Y-87780128D01*
X146723211Y-87858768D01*
X146655703Y-87907816D01*
X146583072Y-87960586D01*
X146583070Y-87960588D01*
X146583069Y-87960588D01*
X146460588Y-88083069D01*
X146460588Y-88083070D01*
X146460586Y-88083072D01*
X146416859Y-88143256D01*
X146358768Y-88223211D01*
X146280128Y-88377552D01*
X146226597Y-88542302D01*
X146205251Y-88677079D01*
X146199500Y-88713389D01*
X123800500Y-88713389D01*
X123773402Y-88542299D01*
X123719873Y-88377555D01*
X123641232Y-88223212D01*
X123539414Y-88083072D01*
X123416928Y-87960586D01*
X123276788Y-87858768D01*
X123122445Y-87780127D01*
X122957701Y-87726598D01*
X122957699Y-87726597D01*
X122957698Y-87726597D01*
X122826271Y-87705781D01*
X122786611Y-87699500D01*
X121813389Y-87699500D01*
X121773728Y-87705781D01*
X121642302Y-87726597D01*
X121477552Y-87780128D01*
X121323211Y-87858768D01*
X121255703Y-87907816D01*
X121183072Y-87960586D01*
X121183070Y-87960588D01*
X121183069Y-87960588D01*
X121060588Y-88083069D01*
X121060588Y-88083070D01*
X121060586Y-88083072D01*
X121016859Y-88143256D01*
X120958768Y-88223211D01*
X120880128Y-88377552D01*
X120826597Y-88542302D01*
X120805251Y-88677079D01*
X120799500Y-88713389D01*
X116955665Y-88713389D01*
X116955051Y-88712184D01*
X116955049Y-88712181D01*
X116955048Y-88712179D01*
X116830109Y-88540213D01*
X116679786Y-88389890D01*
X116507820Y-88264951D01*
X116507115Y-88264591D01*
X116499054Y-88260485D01*
X116448259Y-88212512D01*
X116431463Y-88144692D01*
X116453999Y-88078556D01*
X116499054Y-88039515D01*
X116507816Y-88035051D01*
X116529789Y-88019086D01*
X116679786Y-87910109D01*
X116679788Y-87910106D01*
X116679792Y-87910104D01*
X116830104Y-87759792D01*
X116830106Y-87759788D01*
X116830109Y-87759786D01*
X116955048Y-87587820D01*
X116955047Y-87587820D01*
X116955051Y-87587816D01*
X117051557Y-87398412D01*
X117117246Y-87196243D01*
X117150500Y-86986287D01*
X117150500Y-86773713D01*
X117117246Y-86563757D01*
X117051557Y-86361588D01*
X116955665Y-86173389D01*
X120799500Y-86173389D01*
X120799500Y-86346610D01*
X120822556Y-86492184D01*
X120826598Y-86517701D01*
X120880127Y-86682445D01*
X120958768Y-86836788D01*
X121060586Y-86976928D01*
X121183072Y-87099414D01*
X121323212Y-87201232D01*
X121477555Y-87279873D01*
X121642299Y-87333402D01*
X121813389Y-87360500D01*
X121813390Y-87360500D01*
X122786610Y-87360500D01*
X122786611Y-87360500D01*
X122957701Y-87333402D01*
X123122445Y-87279873D01*
X123276788Y-87201232D01*
X123416928Y-87099414D01*
X123539414Y-86976928D01*
X123641232Y-86836788D01*
X123719873Y-86682445D01*
X123773402Y-86517701D01*
X123800500Y-86346611D01*
X123800500Y-86173389D01*
X146199500Y-86173389D01*
X146199500Y-86346610D01*
X146222556Y-86492184D01*
X146226598Y-86517701D01*
X146280127Y-86682445D01*
X146358768Y-86836788D01*
X146460586Y-86976928D01*
X146583072Y-87099414D01*
X146723212Y-87201232D01*
X146877555Y-87279873D01*
X147042299Y-87333402D01*
X147213389Y-87360500D01*
X147213390Y-87360500D01*
X148186610Y-87360500D01*
X148186611Y-87360500D01*
X148357701Y-87333402D01*
X148522445Y-87279873D01*
X148676788Y-87201232D01*
X148816928Y-87099414D01*
X148939414Y-86976928D01*
X149041232Y-86836788D01*
X149119873Y-86682445D01*
X149173402Y-86517701D01*
X149200500Y-86346611D01*
X149200500Y-86173389D01*
X149173402Y-86002299D01*
X149119873Y-85837555D01*
X149041232Y-85683212D01*
X148939414Y-85543072D01*
X148816928Y-85420586D01*
X148676788Y-85318768D01*
X148522445Y-85240127D01*
X148357701Y-85186598D01*
X148357699Y-85186597D01*
X148357698Y-85186597D01*
X148226271Y-85165781D01*
X148186611Y-85159500D01*
X147213389Y-85159500D01*
X147173728Y-85165781D01*
X147042302Y-85186597D01*
X146877552Y-85240128D01*
X146723211Y-85318768D01*
X146655703Y-85367816D01*
X146583072Y-85420586D01*
X146583070Y-85420588D01*
X146583069Y-85420588D01*
X146460588Y-85543069D01*
X146460588Y-85543070D01*
X146460586Y-85543072D01*
X146416859Y-85603256D01*
X146358768Y-85683211D01*
X146280128Y-85837552D01*
X146226597Y-86002302D01*
X146199500Y-86173389D01*
X123800500Y-86173389D01*
X123773402Y-86002299D01*
X123719873Y-85837555D01*
X123641232Y-85683212D01*
X123539414Y-85543072D01*
X123416928Y-85420586D01*
X123276788Y-85318768D01*
X123122445Y-85240127D01*
X122957701Y-85186598D01*
X122957699Y-85186597D01*
X122957698Y-85186597D01*
X122826271Y-85165781D01*
X122786611Y-85159500D01*
X121813389Y-85159500D01*
X121773728Y-85165781D01*
X121642302Y-85186597D01*
X121477552Y-85240128D01*
X121323211Y-85318768D01*
X121255703Y-85367816D01*
X121183072Y-85420586D01*
X121183070Y-85420588D01*
X121183069Y-85420588D01*
X121060588Y-85543069D01*
X121060588Y-85543070D01*
X121060586Y-85543072D01*
X121016859Y-85603256D01*
X120958768Y-85683211D01*
X120880128Y-85837552D01*
X120826597Y-86002302D01*
X120799500Y-86173389D01*
X116955665Y-86173389D01*
X116955051Y-86172184D01*
X116955049Y-86172181D01*
X116955048Y-86172179D01*
X116830109Y-86000213D01*
X116679786Y-85849890D01*
X116507820Y-85724951D01*
X116507115Y-85724591D01*
X116499054Y-85720485D01*
X116448259Y-85672512D01*
X116431463Y-85604692D01*
X116453999Y-85538556D01*
X116499054Y-85499515D01*
X116507816Y-85495051D01*
X116529789Y-85479086D01*
X116679786Y-85370109D01*
X116679788Y-85370106D01*
X116679792Y-85370104D01*
X116830104Y-85219792D01*
X116830106Y-85219788D01*
X116830109Y-85219786D01*
X116955048Y-85047820D01*
X116955047Y-85047820D01*
X116955051Y-85047816D01*
X117051557Y-84858412D01*
X117117246Y-84656243D01*
X117150500Y-84446287D01*
X117150500Y-84233713D01*
X117117246Y-84023757D01*
X117051557Y-83821588D01*
X116955665Y-83633389D01*
X120799500Y-83633389D01*
X120799500Y-83806610D01*
X120822556Y-83952184D01*
X120826598Y-83977701D01*
X120880127Y-84142445D01*
X120958768Y-84296788D01*
X121060586Y-84436928D01*
X121183072Y-84559414D01*
X121323212Y-84661232D01*
X121477555Y-84739873D01*
X121642299Y-84793402D01*
X121813389Y-84820500D01*
X121813390Y-84820500D01*
X122786610Y-84820500D01*
X122786611Y-84820500D01*
X122957701Y-84793402D01*
X123122445Y-84739873D01*
X123276788Y-84661232D01*
X123416928Y-84559414D01*
X123539414Y-84436928D01*
X123641232Y-84296788D01*
X123719873Y-84142445D01*
X123773402Y-83977701D01*
X123800500Y-83806611D01*
X123800500Y-83633389D01*
X146199500Y-83633389D01*
X146199500Y-83806610D01*
X146222556Y-83952184D01*
X146226598Y-83977701D01*
X146280127Y-84142445D01*
X146358768Y-84296788D01*
X146460586Y-84436928D01*
X146583072Y-84559414D01*
X146723212Y-84661232D01*
X146877555Y-84739873D01*
X147042299Y-84793402D01*
X147213389Y-84820500D01*
X147213390Y-84820500D01*
X148186610Y-84820500D01*
X148186611Y-84820500D01*
X148357701Y-84793402D01*
X148522445Y-84739873D01*
X148676788Y-84661232D01*
X148816928Y-84559414D01*
X148939414Y-84436928D01*
X149041232Y-84296788D01*
X149119873Y-84142445D01*
X149173402Y-83977701D01*
X149200500Y-83806611D01*
X149200500Y-83633389D01*
X149173402Y-83462299D01*
X149119873Y-83297555D01*
X149041232Y-83143212D01*
X148939414Y-83003072D01*
X148816928Y-82880586D01*
X148676788Y-82778768D01*
X148522445Y-82700127D01*
X148357701Y-82646598D01*
X148357699Y-82646597D01*
X148357698Y-82646597D01*
X148226271Y-82625781D01*
X148186611Y-82619500D01*
X147213389Y-82619500D01*
X147173728Y-82625781D01*
X147042302Y-82646597D01*
X146877552Y-82700128D01*
X146723211Y-82778768D01*
X146655703Y-82827816D01*
X146583072Y-82880586D01*
X146583070Y-82880588D01*
X146583069Y-82880588D01*
X146460588Y-83003069D01*
X146460588Y-83003070D01*
X146460586Y-83003072D01*
X146416859Y-83063256D01*
X146358768Y-83143211D01*
X146280128Y-83297552D01*
X146226597Y-83462302D01*
X146199500Y-83633389D01*
X123800500Y-83633389D01*
X123773402Y-83462299D01*
X123719873Y-83297555D01*
X123641232Y-83143212D01*
X123539414Y-83003072D01*
X123416928Y-82880586D01*
X123276788Y-82778768D01*
X123122445Y-82700127D01*
X122957701Y-82646598D01*
X122957699Y-82646597D01*
X122957698Y-82646597D01*
X122826271Y-82625781D01*
X122786611Y-82619500D01*
X121813389Y-82619500D01*
X121773728Y-82625781D01*
X121642302Y-82646597D01*
X121477552Y-82700128D01*
X121323211Y-82778768D01*
X121255703Y-82827816D01*
X121183072Y-82880586D01*
X121183070Y-82880588D01*
X121183069Y-82880588D01*
X121060588Y-83003069D01*
X121060588Y-83003070D01*
X121060586Y-83003072D01*
X121016859Y-83063256D01*
X120958768Y-83143211D01*
X120880128Y-83297552D01*
X120826597Y-83462302D01*
X120799500Y-83633389D01*
X116955665Y-83633389D01*
X116955051Y-83632184D01*
X116955049Y-83632181D01*
X116955048Y-83632179D01*
X116830109Y-83460213D01*
X116679786Y-83309890D01*
X116507820Y-83184951D01*
X116507115Y-83184591D01*
X116499054Y-83180485D01*
X116448259Y-83132512D01*
X116431463Y-83064692D01*
X116453999Y-82998556D01*
X116499054Y-82959515D01*
X116507816Y-82955051D01*
X116529789Y-82939086D01*
X116679786Y-82830109D01*
X116679788Y-82830106D01*
X116679792Y-82830104D01*
X116830104Y-82679792D01*
X116830106Y-82679788D01*
X116830109Y-82679786D01*
X116955048Y-82507820D01*
X116955047Y-82507820D01*
X116955051Y-82507816D01*
X117051557Y-82318412D01*
X117117246Y-82116243D01*
X117150500Y-81906287D01*
X117150500Y-81693713D01*
X117117246Y-81483757D01*
X117051557Y-81281588D01*
X116955665Y-81093389D01*
X120799500Y-81093389D01*
X120799500Y-81266610D01*
X120822556Y-81412184D01*
X120826598Y-81437701D01*
X120880127Y-81602445D01*
X120958768Y-81756788D01*
X121060586Y-81896928D01*
X121183072Y-82019414D01*
X121323212Y-82121232D01*
X121477555Y-82199873D01*
X121642299Y-82253402D01*
X121813389Y-82280500D01*
X121813390Y-82280500D01*
X122786610Y-82280500D01*
X122786611Y-82280500D01*
X122957701Y-82253402D01*
X123122445Y-82199873D01*
X123276788Y-82121232D01*
X123416928Y-82019414D01*
X123539414Y-81896928D01*
X123641232Y-81756788D01*
X123719873Y-81602445D01*
X123773402Y-81437701D01*
X123800500Y-81266611D01*
X123800500Y-81093389D01*
X146199500Y-81093389D01*
X146199500Y-81266610D01*
X146222556Y-81412184D01*
X146226598Y-81437701D01*
X146280127Y-81602445D01*
X146358768Y-81756788D01*
X146460586Y-81896928D01*
X146583072Y-82019414D01*
X146723212Y-82121232D01*
X146877555Y-82199873D01*
X147042299Y-82253402D01*
X147213389Y-82280500D01*
X147213390Y-82280500D01*
X148186610Y-82280500D01*
X148186611Y-82280500D01*
X148357701Y-82253402D01*
X148522445Y-82199873D01*
X148676788Y-82121232D01*
X148816928Y-82019414D01*
X148939414Y-81896928D01*
X149041232Y-81756788D01*
X149119873Y-81602445D01*
X149173402Y-81437701D01*
X149200500Y-81266611D01*
X149200500Y-81093389D01*
X149173402Y-80922299D01*
X149119873Y-80757555D01*
X149041232Y-80603212D01*
X148939414Y-80463072D01*
X148816928Y-80340586D01*
X148676788Y-80238768D01*
X148522445Y-80160127D01*
X148357701Y-80106598D01*
X148357699Y-80106597D01*
X148357698Y-80106597D01*
X148226271Y-80085781D01*
X148186611Y-80079500D01*
X147213389Y-80079500D01*
X147173728Y-80085781D01*
X147042302Y-80106597D01*
X146877552Y-80160128D01*
X146723211Y-80238768D01*
X146655703Y-80287816D01*
X146583072Y-80340586D01*
X146583070Y-80340588D01*
X146583069Y-80340588D01*
X146460588Y-80463069D01*
X146460588Y-80463070D01*
X146460586Y-80463072D01*
X146416859Y-80523256D01*
X146358768Y-80603211D01*
X146280128Y-80757552D01*
X146226597Y-80922302D01*
X146199500Y-81093389D01*
X123800500Y-81093389D01*
X123773402Y-80922299D01*
X123719873Y-80757555D01*
X123641232Y-80603212D01*
X123539414Y-80463072D01*
X123416928Y-80340586D01*
X123276788Y-80238768D01*
X123122445Y-80160127D01*
X122957701Y-80106598D01*
X122957699Y-80106597D01*
X122957698Y-80106597D01*
X122826271Y-80085781D01*
X122786611Y-80079500D01*
X121813389Y-80079500D01*
X121773728Y-80085781D01*
X121642302Y-80106597D01*
X121477552Y-80160128D01*
X121323211Y-80238768D01*
X121255703Y-80287816D01*
X121183072Y-80340586D01*
X121183070Y-80340588D01*
X121183069Y-80340588D01*
X121060588Y-80463069D01*
X121060588Y-80463070D01*
X121060586Y-80463072D01*
X121016859Y-80523256D01*
X120958768Y-80603211D01*
X120880128Y-80757552D01*
X120826597Y-80922302D01*
X120799500Y-81093389D01*
X116955665Y-81093389D01*
X116955051Y-81092184D01*
X116955049Y-81092181D01*
X116955048Y-81092179D01*
X116830109Y-80920213D01*
X116679786Y-80769890D01*
X116507820Y-80644951D01*
X116507115Y-80644591D01*
X116499054Y-80640485D01*
X116448259Y-80592512D01*
X116431463Y-80524692D01*
X116453999Y-80458556D01*
X116499054Y-80419515D01*
X116507816Y-80415051D01*
X116529789Y-80399086D01*
X116679786Y-80290109D01*
X116679788Y-80290106D01*
X116679792Y-80290104D01*
X116830104Y-80139792D01*
X116830106Y-80139788D01*
X116830109Y-80139786D01*
X116955048Y-79967820D01*
X116955047Y-79967820D01*
X116955051Y-79967816D01*
X117051557Y-79778412D01*
X117117246Y-79576243D01*
X117150500Y-79366287D01*
X117150500Y-79153713D01*
X117117246Y-78943757D01*
X117051557Y-78741588D01*
X116955665Y-78553389D01*
X120799500Y-78553389D01*
X120799500Y-78726610D01*
X120822556Y-78872184D01*
X120826598Y-78897701D01*
X120880127Y-79062445D01*
X120958768Y-79216788D01*
X121060586Y-79356928D01*
X121183072Y-79479414D01*
X121323212Y-79581232D01*
X121477555Y-79659873D01*
X121642299Y-79713402D01*
X121813389Y-79740500D01*
X121813390Y-79740500D01*
X122786610Y-79740500D01*
X122786611Y-79740500D01*
X122957701Y-79713402D01*
X123122445Y-79659873D01*
X123276788Y-79581232D01*
X123416928Y-79479414D01*
X123539414Y-79356928D01*
X123641232Y-79216788D01*
X123719873Y-79062445D01*
X123773402Y-78897701D01*
X123800500Y-78726611D01*
X123800500Y-78553389D01*
X146199500Y-78553389D01*
X146199500Y-78726610D01*
X146222556Y-78872184D01*
X146226598Y-78897701D01*
X146280127Y-79062445D01*
X146358768Y-79216788D01*
X146460586Y-79356928D01*
X146583072Y-79479414D01*
X146723212Y-79581232D01*
X146877555Y-79659873D01*
X147042299Y-79713402D01*
X147213389Y-79740500D01*
X147213390Y-79740500D01*
X148186610Y-79740500D01*
X148186611Y-79740500D01*
X148357701Y-79713402D01*
X148522445Y-79659873D01*
X148676788Y-79581232D01*
X148816928Y-79479414D01*
X148939414Y-79356928D01*
X149041232Y-79216788D01*
X149119873Y-79062445D01*
X149173402Y-78897701D01*
X149200500Y-78726611D01*
X149200500Y-78553389D01*
X149173402Y-78382299D01*
X149119873Y-78217555D01*
X149041232Y-78063212D01*
X148939414Y-77923072D01*
X148816928Y-77800586D01*
X148676788Y-77698768D01*
X148522445Y-77620127D01*
X148357701Y-77566598D01*
X148357699Y-77566597D01*
X148357698Y-77566597D01*
X148226271Y-77545781D01*
X148186611Y-77539500D01*
X147213389Y-77539500D01*
X147173728Y-77545781D01*
X147042302Y-77566597D01*
X146877552Y-77620128D01*
X146723211Y-77698768D01*
X146643256Y-77756859D01*
X146583072Y-77800586D01*
X146583070Y-77800588D01*
X146583069Y-77800588D01*
X146460588Y-77923069D01*
X146460588Y-77923070D01*
X146460586Y-77923072D01*
X146424975Y-77972086D01*
X146358768Y-78063211D01*
X146280128Y-78217552D01*
X146226597Y-78382302D01*
X146199500Y-78553389D01*
X123800500Y-78553389D01*
X123773402Y-78382299D01*
X123719873Y-78217555D01*
X123641232Y-78063212D01*
X123539414Y-77923072D01*
X123416928Y-77800586D01*
X123276788Y-77698768D01*
X123122445Y-77620127D01*
X122957701Y-77566598D01*
X122957699Y-77566597D01*
X122957698Y-77566597D01*
X122826271Y-77545781D01*
X122786611Y-77539500D01*
X121813389Y-77539500D01*
X121773728Y-77545781D01*
X121642302Y-77566597D01*
X121477552Y-77620128D01*
X121323211Y-77698768D01*
X121243256Y-77756859D01*
X121183072Y-77800586D01*
X121183070Y-77800588D01*
X121183069Y-77800588D01*
X121060588Y-77923069D01*
X121060588Y-77923070D01*
X121060586Y-77923072D01*
X121024975Y-77972086D01*
X120958768Y-78063211D01*
X120880128Y-78217552D01*
X120826597Y-78382302D01*
X120799500Y-78553389D01*
X116955665Y-78553389D01*
X116955051Y-78552184D01*
X116955049Y-78552181D01*
X116955048Y-78552179D01*
X116830109Y-78380213D01*
X116716569Y-78266673D01*
X116683084Y-78205350D01*
X116688068Y-78135658D01*
X116729940Y-78079725D01*
X116760915Y-78062810D01*
X116892331Y-78013796D01*
X117007546Y-77927546D01*
X117093796Y-77812331D01*
X117144091Y-77677483D01*
X117150500Y-77617873D01*
X117150499Y-75822128D01*
X117144091Y-75762517D01*
X117120774Y-75700000D01*
X117108777Y-75667832D01*
X117103793Y-75598141D01*
X117137279Y-75536818D01*
X117198602Y-75503334D01*
X117224959Y-75500500D01*
X120675500Y-75500500D01*
X120742539Y-75520185D01*
X120788294Y-75572989D01*
X120799500Y-75624500D01*
X120799500Y-76747870D01*
X120799501Y-76747876D01*
X120805908Y-76807483D01*
X120856202Y-76942328D01*
X120856206Y-76942335D01*
X120942452Y-77057544D01*
X120942455Y-77057547D01*
X121057664Y-77143793D01*
X121057671Y-77143797D01*
X121192517Y-77194091D01*
X121192516Y-77194091D01*
X121199444Y-77194835D01*
X121252127Y-77200500D01*
X123347872Y-77200499D01*
X123407483Y-77194091D01*
X123542331Y-77143796D01*
X123657546Y-77057546D01*
X123743796Y-76942331D01*
X123794091Y-76807483D01*
X123800500Y-76747873D01*
X123800499Y-76082517D01*
X123800499Y-75624500D01*
X123820183Y-75557461D01*
X123872987Y-75511706D01*
X123924499Y-75500500D01*
X146168552Y-75500500D01*
X146235591Y-75520185D01*
X146281346Y-75572989D01*
X146291290Y-75642147D01*
X146281549Y-75672862D01*
X146282457Y-75673238D01*
X146280592Y-75677740D01*
X146227085Y-75842415D01*
X146225884Y-75849999D01*
X146225885Y-75850000D01*
X147384314Y-75850000D01*
X147379920Y-75854394D01*
X147327259Y-75945606D01*
X147300000Y-76047339D01*
X147300000Y-76152661D01*
X147327259Y-76254394D01*
X147379920Y-76345606D01*
X147384314Y-76350000D01*
X146225885Y-76350000D01*
X146227085Y-76357584D01*
X146280591Y-76522255D01*
X146359195Y-76676524D01*
X146460967Y-76816602D01*
X146583397Y-76939032D01*
X146723475Y-77040804D01*
X146877742Y-77119408D01*
X147042415Y-77172914D01*
X147213429Y-77200000D01*
X147450000Y-77200000D01*
X147450000Y-76415686D01*
X147454394Y-76420080D01*
X147545606Y-76472741D01*
X147647339Y-76500000D01*
X147752661Y-76500000D01*
X147854394Y-76472741D01*
X147945606Y-76420080D01*
X147950000Y-76415686D01*
X147950000Y-77200000D01*
X148186571Y-77200000D01*
X148357584Y-77172914D01*
X148522257Y-77119408D01*
X148676524Y-77040804D01*
X148816602Y-76939032D01*
X148939032Y-76816602D01*
X149040804Y-76676524D01*
X149119408Y-76522255D01*
X149172914Y-76357584D01*
X149174115Y-76350000D01*
X148015686Y-76350000D01*
X148020080Y-76345606D01*
X148072741Y-76254394D01*
X148100000Y-76152661D01*
X148100000Y-76047339D01*
X148072741Y-75945606D01*
X148020080Y-75854394D01*
X148015686Y-75850000D01*
X149174115Y-75850000D01*
X149174115Y-75849999D01*
X149172914Y-75842415D01*
X149119407Y-75677740D01*
X149117543Y-75673238D01*
X149119402Y-75672467D01*
X149108066Y-75612140D01*
X149134335Y-75547396D01*
X149191437Y-75507133D01*
X149231448Y-75500500D01*
X152274081Y-75500500D01*
X152341120Y-75520185D01*
X152386875Y-75572989D01*
X152396819Y-75642147D01*
X152373347Y-75698811D01*
X152306649Y-75787906D01*
X152306645Y-75787913D01*
X152256403Y-75922620D01*
X152256401Y-75922627D01*
X152250000Y-75982155D01*
X152250000Y-76630000D01*
X153166988Y-76630000D01*
X153134075Y-76687007D01*
X153100000Y-76814174D01*
X153100000Y-76945826D01*
X153134075Y-77072993D01*
X153166988Y-77130000D01*
X152250000Y-77130000D01*
X152250000Y-77777844D01*
X152256401Y-77837372D01*
X152256403Y-77837379D01*
X152306645Y-77972086D01*
X152306649Y-77972093D01*
X152392809Y-78087187D01*
X152392812Y-78087190D01*
X152507906Y-78173350D01*
X152507913Y-78173354D01*
X152639470Y-78222422D01*
X152695404Y-78264293D01*
X152719821Y-78329758D01*
X152704969Y-78398031D01*
X152683819Y-78426285D01*
X152569889Y-78540215D01*
X152444951Y-78712179D01*
X152348444Y-78901585D01*
X152282753Y-79103760D01*
X152264851Y-79216792D01*
X152249500Y-79313713D01*
X152249500Y-79526287D01*
X152259534Y-79589644D01*
X152274841Y-79686287D01*
X152282754Y-79736243D01*
X152334741Y-79896243D01*
X152348444Y-79938414D01*
X152444951Y-80127820D01*
X152569890Y-80299786D01*
X152720213Y-80450109D01*
X152892182Y-80575050D01*
X152900946Y-80579516D01*
X152951742Y-80627491D01*
X152968536Y-80695312D01*
X152945998Y-80761447D01*
X152900946Y-80800484D01*
X152892182Y-80804949D01*
X152720213Y-80929890D01*
X152569890Y-81080213D01*
X152444951Y-81252179D01*
X152348444Y-81441585D01*
X152282753Y-81643760D01*
X152257412Y-81803757D01*
X152249500Y-81853713D01*
X152249500Y-82066287D01*
X152259534Y-82129644D01*
X152274841Y-82226287D01*
X152282754Y-82276243D01*
X152334741Y-82436243D01*
X152348444Y-82478414D01*
X152444951Y-82667820D01*
X152569890Y-82839786D01*
X152720213Y-82990109D01*
X152892182Y-83115050D01*
X152900946Y-83119516D01*
X152951742Y-83167491D01*
X152968536Y-83235312D01*
X152945998Y-83301447D01*
X152900946Y-83340484D01*
X152892182Y-83344949D01*
X152720213Y-83469890D01*
X152569890Y-83620213D01*
X152444951Y-83792179D01*
X152348444Y-83981585D01*
X152282753Y-84183760D01*
X152257412Y-84343757D01*
X152249500Y-84393713D01*
X152249500Y-84606287D01*
X152259534Y-84669644D01*
X152274841Y-84766287D01*
X152282754Y-84816243D01*
X152334741Y-84976243D01*
X152348444Y-85018414D01*
X152444951Y-85207820D01*
X152569890Y-85379786D01*
X152720213Y-85530109D01*
X152892182Y-85655050D01*
X152900946Y-85659516D01*
X152951742Y-85707491D01*
X152968536Y-85775312D01*
X152945998Y-85841447D01*
X152900946Y-85880484D01*
X152892182Y-85884949D01*
X152720213Y-86009890D01*
X152569890Y-86160213D01*
X152444951Y-86332179D01*
X152348444Y-86521585D01*
X152282753Y-86723760D01*
X152257412Y-86883757D01*
X152249500Y-86933713D01*
X152249500Y-87146287D01*
X152259534Y-87209644D01*
X152274841Y-87306287D01*
X152282754Y-87356243D01*
X152341542Y-87537174D01*
X152348444Y-87558414D01*
X152444951Y-87747820D01*
X152569890Y-87919786D01*
X152720213Y-88070109D01*
X152892182Y-88195050D01*
X152900946Y-88199516D01*
X152951742Y-88247491D01*
X152968536Y-88315312D01*
X152945998Y-88381447D01*
X152900946Y-88420484D01*
X152892182Y-88424949D01*
X152720213Y-88549890D01*
X152569890Y-88700213D01*
X152444951Y-88872179D01*
X152348444Y-89061585D01*
X152282753Y-89263760D01*
X152257394Y-89423872D01*
X152249500Y-89473713D01*
X152249500Y-89686287D01*
X152259534Y-89749644D01*
X152280304Y-89880778D01*
X152282754Y-89896243D01*
X152331740Y-90047007D01*
X152348444Y-90098414D01*
X152444951Y-90287820D01*
X152569890Y-90459786D01*
X152720213Y-90610109D01*
X152892179Y-90735048D01*
X152892181Y-90735049D01*
X152892184Y-90735051D01*
X152901493Y-90739794D01*
X152952290Y-90787766D01*
X152969087Y-90855587D01*
X152946552Y-90921722D01*
X152901505Y-90960760D01*
X152892446Y-90965376D01*
X152892440Y-90965380D01*
X152838282Y-91004727D01*
X152838282Y-91004728D01*
X153470591Y-91637037D01*
X153407007Y-91654075D01*
X153292993Y-91719901D01*
X153199901Y-91812993D01*
X153134075Y-91927007D01*
X153117037Y-91990591D01*
X152484728Y-91358282D01*
X152484727Y-91358282D01*
X152445380Y-91412439D01*
X152348904Y-91601782D01*
X152283242Y-91803869D01*
X152283242Y-91803872D01*
X152250000Y-92013753D01*
X152250000Y-92226246D01*
X152283242Y-92436127D01*
X152283242Y-92436130D01*
X152348904Y-92638217D01*
X152445375Y-92827550D01*
X152484728Y-92881716D01*
X153117037Y-92249408D01*
X153134075Y-92312993D01*
X153199901Y-92427007D01*
X153292993Y-92520099D01*
X153407007Y-92585925D01*
X153470590Y-92602962D01*
X152838282Y-93235269D01*
X152838282Y-93235270D01*
X152892452Y-93274626D01*
X152892451Y-93274626D01*
X152901495Y-93279234D01*
X152952292Y-93327208D01*
X152969087Y-93395029D01*
X152946550Y-93461164D01*
X152901499Y-93500202D01*
X152892182Y-93504949D01*
X152720213Y-93629890D01*
X152569890Y-93780213D01*
X152444951Y-93952179D01*
X152348444Y-94141585D01*
X152282753Y-94343760D01*
X152264851Y-94456792D01*
X152249500Y-94553713D01*
X152249500Y-94766287D01*
X152282754Y-94976243D01*
X152296456Y-95018414D01*
X152348444Y-95178414D01*
X152444951Y-95367820D01*
X152569890Y-95539786D01*
X152720213Y-95690109D01*
X152892182Y-95815050D01*
X152900946Y-95819516D01*
X152951742Y-95867491D01*
X152968536Y-95935312D01*
X152945998Y-96001447D01*
X152900946Y-96040484D01*
X152892182Y-96044949D01*
X152720213Y-96169890D01*
X152569890Y-96320213D01*
X152444951Y-96492179D01*
X152348444Y-96681585D01*
X152282753Y-96883760D01*
X152249749Y-97092139D01*
X152249500Y-97093713D01*
X152249500Y-97306287D01*
X152282754Y-97516243D01*
X152309452Y-97598412D01*
X152348444Y-97718414D01*
X152444951Y-97907820D01*
X152569890Y-98079786D01*
X152720213Y-98230109D01*
X152892182Y-98355050D01*
X152900946Y-98359516D01*
X152951742Y-98407491D01*
X152968536Y-98475312D01*
X152945998Y-98541447D01*
X152900946Y-98580484D01*
X152892182Y-98584949D01*
X152720213Y-98709890D01*
X152569890Y-98860213D01*
X152444951Y-99032179D01*
X152348444Y-99221585D01*
X152282753Y-99423760D01*
X152250448Y-99627727D01*
X152249500Y-99633713D01*
X152249500Y-99846287D01*
X152282754Y-100056243D01*
X152309452Y-100138412D01*
X152348444Y-100258414D01*
X152444951Y-100447820D01*
X152569890Y-100619786D01*
X152720213Y-100770109D01*
X152892182Y-100895050D01*
X152900946Y-100899516D01*
X152951742Y-100947491D01*
X152968536Y-101015312D01*
X152945998Y-101081447D01*
X152900946Y-101120484D01*
X152892182Y-101124949D01*
X152720213Y-101249890D01*
X152569890Y-101400213D01*
X152444951Y-101572179D01*
X152348444Y-101761585D01*
X152282753Y-101963760D01*
X152256185Y-102131503D01*
X152249500Y-102173713D01*
X152249500Y-102386287D01*
X152282754Y-102596243D01*
X152309452Y-102678412D01*
X152348444Y-102798414D01*
X152444951Y-102987820D01*
X152569890Y-103159786D01*
X152720213Y-103310109D01*
X152892182Y-103435050D01*
X152900946Y-103439516D01*
X152951742Y-103487491D01*
X152968536Y-103555312D01*
X152945998Y-103621447D01*
X152900946Y-103660484D01*
X152892182Y-103664949D01*
X152720213Y-103789890D01*
X152569890Y-103940213D01*
X152444951Y-104112179D01*
X152348444Y-104301585D01*
X152282753Y-104503760D01*
X152249500Y-104713713D01*
X152249500Y-104926287D01*
X152259534Y-104989644D01*
X152266273Y-105032190D01*
X152282754Y-105136243D01*
X152309452Y-105218412D01*
X152348444Y-105338414D01*
X152444951Y-105527820D01*
X152569890Y-105699786D01*
X152720213Y-105850109D01*
X152892182Y-105975050D01*
X152900946Y-105979516D01*
X152951742Y-106027491D01*
X152968536Y-106095312D01*
X152945998Y-106161447D01*
X152900946Y-106200484D01*
X152892182Y-106204949D01*
X152720213Y-106329890D01*
X152569890Y-106480213D01*
X152444951Y-106652179D01*
X152348444Y-106841585D01*
X152282753Y-107043760D01*
X152262098Y-107174174D01*
X152249500Y-107253713D01*
X152249500Y-107466287D01*
X152282754Y-107676243D01*
X152296456Y-107718414D01*
X152348444Y-107878414D01*
X152444951Y-108067820D01*
X152569890Y-108239786D01*
X152720213Y-108390109D01*
X152892182Y-108515050D01*
X152900946Y-108519516D01*
X152951742Y-108567491D01*
X152968536Y-108635312D01*
X152945998Y-108701447D01*
X152900946Y-108740484D01*
X152892182Y-108744949D01*
X152720213Y-108869890D01*
X152569890Y-109020213D01*
X152444951Y-109192179D01*
X152348444Y-109381585D01*
X152282753Y-109583760D01*
X152258007Y-109740000D01*
X152249500Y-109793713D01*
X152249500Y-110006287D01*
X152259534Y-110069644D01*
X152281119Y-110205925D01*
X152282754Y-110216243D01*
X152335775Y-110379425D01*
X152348444Y-110418414D01*
X152444951Y-110607820D01*
X152569890Y-110779786D01*
X152720213Y-110930109D01*
X152892182Y-111055050D01*
X152900946Y-111059516D01*
X152951742Y-111107491D01*
X152968536Y-111175312D01*
X152945998Y-111241447D01*
X152900946Y-111280484D01*
X152892182Y-111284949D01*
X152720213Y-111409890D01*
X152569890Y-111560213D01*
X152444951Y-111732179D01*
X152348444Y-111921585D01*
X152282753Y-112123760D01*
X152249500Y-112333713D01*
X152249500Y-112546287D01*
X152282754Y-112756243D01*
X152341770Y-112937876D01*
X152348444Y-112958414D01*
X152444951Y-113147820D01*
X152569890Y-113319786D01*
X152720213Y-113470109D01*
X152892182Y-113595050D01*
X152900946Y-113599516D01*
X152951742Y-113647491D01*
X152968536Y-113715312D01*
X152945998Y-113781447D01*
X152900946Y-113820484D01*
X152892182Y-113824949D01*
X152720213Y-113949890D01*
X152569890Y-114100213D01*
X152444951Y-114272179D01*
X152348444Y-114461585D01*
X152282753Y-114663760D01*
X152249500Y-114873713D01*
X152249500Y-115086287D01*
X152282754Y-115296243D01*
X152296456Y-115338414D01*
X152348444Y-115498414D01*
X152444951Y-115687820D01*
X152569890Y-115859786D01*
X152720213Y-116010109D01*
X152892182Y-116135050D01*
X152900946Y-116139516D01*
X152951742Y-116187491D01*
X152968536Y-116255312D01*
X152945998Y-116321447D01*
X152900946Y-116360484D01*
X152892182Y-116364949D01*
X152720213Y-116489890D01*
X152569890Y-116640213D01*
X152444951Y-116812179D01*
X152348444Y-117001585D01*
X152282753Y-117203760D01*
X152260927Y-117341568D01*
X152249500Y-117413713D01*
X152249500Y-117626287D01*
X152282754Y-117836243D01*
X152296456Y-117878414D01*
X152348444Y-118038414D01*
X152444951Y-118227820D01*
X152569890Y-118399786D01*
X152720213Y-118550109D01*
X152892182Y-118675050D01*
X152900946Y-118679516D01*
X152951742Y-118727491D01*
X152968536Y-118795312D01*
X152945998Y-118861447D01*
X152900946Y-118900484D01*
X152892182Y-118904949D01*
X152720213Y-119029890D01*
X152569890Y-119180213D01*
X152444951Y-119352179D01*
X152348444Y-119541585D01*
X152348443Y-119541587D01*
X152348443Y-119541588D01*
X152344503Y-119553713D01*
X152282753Y-119743760D01*
X152249500Y-119953713D01*
X152249500Y-120166287D01*
X152259534Y-120229644D01*
X152278705Y-120350682D01*
X152282754Y-120376243D01*
X152296456Y-120418414D01*
X152348444Y-120578414D01*
X152444951Y-120767820D01*
X152569890Y-120939786D01*
X152720213Y-121090109D01*
X152892182Y-121215050D01*
X152900946Y-121219516D01*
X152951742Y-121267491D01*
X152968536Y-121335312D01*
X152945998Y-121401447D01*
X152900946Y-121440484D01*
X152892182Y-121444949D01*
X152720213Y-121569890D01*
X152569890Y-121720213D01*
X152444951Y-121892179D01*
X152348444Y-122081585D01*
X152282753Y-122283760D01*
X152253494Y-122468496D01*
X152249500Y-122493713D01*
X152249500Y-122706287D01*
X152259534Y-122769644D01*
X152278705Y-122890682D01*
X152282754Y-122916243D01*
X152296456Y-122958414D01*
X152348444Y-123118414D01*
X152444951Y-123307820D01*
X152569890Y-123479786D01*
X152720213Y-123630109D01*
X152892179Y-123755048D01*
X152892181Y-123755049D01*
X152892184Y-123755051D01*
X153081588Y-123851557D01*
X153283757Y-123917246D01*
X153493713Y-123950500D01*
X153493714Y-123950500D01*
X153706286Y-123950500D01*
X153706287Y-123950500D01*
X153916243Y-123917246D01*
X154118412Y-123851557D01*
X154307816Y-123755051D01*
X154395209Y-123691557D01*
X154479786Y-123630109D01*
X154479788Y-123630106D01*
X154479792Y-123630104D01*
X154630104Y-123479792D01*
X154630106Y-123479788D01*
X154630109Y-123479786D01*
X154755048Y-123307820D01*
X154755047Y-123307820D01*
X154755051Y-123307816D01*
X154851557Y-123118412D01*
X154917246Y-122916243D01*
X154950500Y-122706287D01*
X154950500Y-122493713D01*
X154917246Y-122283757D01*
X154851557Y-122081588D01*
X154755051Y-121892184D01*
X154755049Y-121892181D01*
X154755048Y-121892179D01*
X154630109Y-121720213D01*
X154479786Y-121569890D01*
X154307820Y-121444951D01*
X154307115Y-121444591D01*
X154299054Y-121440485D01*
X154248259Y-121392512D01*
X154231463Y-121324692D01*
X154253999Y-121258556D01*
X154299054Y-121219515D01*
X154307816Y-121215051D01*
X154395209Y-121151557D01*
X154479786Y-121090109D01*
X154479788Y-121090106D01*
X154479792Y-121090104D01*
X154630104Y-120939792D01*
X154630106Y-120939788D01*
X154630109Y-120939786D01*
X154755048Y-120767820D01*
X154755047Y-120767820D01*
X154755051Y-120767816D01*
X154851557Y-120578412D01*
X154917246Y-120376243D01*
X154950500Y-120166287D01*
X154950500Y-119953713D01*
X154917246Y-119743757D01*
X154851557Y-119541588D01*
X154755051Y-119352184D01*
X154755049Y-119352181D01*
X154755048Y-119352179D01*
X154630109Y-119180213D01*
X154479786Y-119029890D01*
X154307820Y-118904951D01*
X154307115Y-118904591D01*
X154299054Y-118900485D01*
X154248259Y-118852512D01*
X154231463Y-118784692D01*
X154253999Y-118718556D01*
X154299054Y-118679515D01*
X154307816Y-118675051D01*
X154344439Y-118648443D01*
X154479786Y-118550109D01*
X154479788Y-118550106D01*
X154479792Y-118550104D01*
X154630104Y-118399792D01*
X154630106Y-118399788D01*
X154630109Y-118399786D01*
X154755048Y-118227820D01*
X154755047Y-118227820D01*
X154755051Y-118227816D01*
X154851557Y-118038412D01*
X154917246Y-117836243D01*
X154950500Y-117626287D01*
X154950500Y-117413713D01*
X154917246Y-117203757D01*
X154851557Y-117001588D01*
X154755051Y-116812184D01*
X154755049Y-116812181D01*
X154755048Y-116812179D01*
X154630109Y-116640213D01*
X154479786Y-116489890D01*
X154307820Y-116364951D01*
X154307115Y-116364591D01*
X154299054Y-116360485D01*
X154248259Y-116312512D01*
X154231463Y-116244692D01*
X154253999Y-116178556D01*
X154299054Y-116139515D01*
X154307816Y-116135051D01*
X154344439Y-116108443D01*
X154479786Y-116010109D01*
X154479788Y-116010106D01*
X154479792Y-116010104D01*
X154630104Y-115859792D01*
X154630106Y-115859788D01*
X154630109Y-115859786D01*
X154755048Y-115687820D01*
X154755047Y-115687820D01*
X154755051Y-115687816D01*
X154851557Y-115498412D01*
X154917246Y-115296243D01*
X154950500Y-115086287D01*
X154950500Y-114873713D01*
X154917246Y-114663757D01*
X154851557Y-114461588D01*
X154755051Y-114272184D01*
X154755049Y-114272181D01*
X154755048Y-114272179D01*
X154630109Y-114100213D01*
X154479786Y-113949890D01*
X154307820Y-113824951D01*
X154307115Y-113824591D01*
X154299054Y-113820485D01*
X154248259Y-113772512D01*
X154231463Y-113704692D01*
X154253999Y-113638556D01*
X154299054Y-113599515D01*
X154307816Y-113595051D01*
X154348659Y-113565377D01*
X154479786Y-113470109D01*
X154479788Y-113470106D01*
X154479792Y-113470104D01*
X154630104Y-113319792D01*
X154630106Y-113319788D01*
X154630109Y-113319786D01*
X154755048Y-113147820D01*
X154755047Y-113147820D01*
X154755051Y-113147816D01*
X154851557Y-112958412D01*
X154917246Y-112756243D01*
X154950500Y-112546287D01*
X154950500Y-112333713D01*
X154917246Y-112123757D01*
X154851557Y-111921588D01*
X154755051Y-111732184D01*
X154755049Y-111732181D01*
X154755048Y-111732179D01*
X154630109Y-111560213D01*
X154479786Y-111409890D01*
X154307820Y-111284951D01*
X154307115Y-111284591D01*
X154299054Y-111280485D01*
X154248259Y-111232512D01*
X154231463Y-111164692D01*
X154253999Y-111098556D01*
X154299054Y-111059515D01*
X154307816Y-111055051D01*
X154362902Y-111015029D01*
X154479786Y-110930109D01*
X154479788Y-110930106D01*
X154479792Y-110930104D01*
X154630104Y-110779792D01*
X154630106Y-110779788D01*
X154630109Y-110779786D01*
X154755048Y-110607820D01*
X154755047Y-110607820D01*
X154755051Y-110607816D01*
X154851557Y-110418412D01*
X154917246Y-110216243D01*
X154950500Y-110006287D01*
X154950500Y-109793713D01*
X154917246Y-109583757D01*
X154851557Y-109381588D01*
X154755051Y-109192184D01*
X154755049Y-109192181D01*
X154755048Y-109192179D01*
X154630109Y-109020213D01*
X154479786Y-108869890D01*
X154307820Y-108744951D01*
X154307115Y-108744591D01*
X154299054Y-108740485D01*
X154248259Y-108692512D01*
X154231463Y-108624692D01*
X154253999Y-108558556D01*
X154299054Y-108519515D01*
X154307816Y-108515051D01*
X154395209Y-108451557D01*
X154479786Y-108390109D01*
X154479788Y-108390106D01*
X154479792Y-108390104D01*
X154630104Y-108239792D01*
X154630106Y-108239788D01*
X154630109Y-108239786D01*
X154755048Y-108067820D01*
X154755047Y-108067820D01*
X154755051Y-108067816D01*
X154851557Y-107878412D01*
X154917246Y-107676243D01*
X154950500Y-107466287D01*
X154950500Y-107253713D01*
X154917246Y-107043757D01*
X154851557Y-106841588D01*
X154755051Y-106652184D01*
X154755049Y-106652181D01*
X154755048Y-106652179D01*
X154630109Y-106480213D01*
X154479786Y-106329890D01*
X154307820Y-106204951D01*
X154307115Y-106204591D01*
X154299054Y-106200485D01*
X154248259Y-106152512D01*
X154231463Y-106084692D01*
X154253999Y-106018556D01*
X154299054Y-105979515D01*
X154307816Y-105975051D01*
X154344439Y-105948443D01*
X154479786Y-105850109D01*
X154479788Y-105850106D01*
X154479792Y-105850104D01*
X154630104Y-105699792D01*
X154630106Y-105699788D01*
X154630109Y-105699786D01*
X154755048Y-105527820D01*
X154755047Y-105527820D01*
X154755051Y-105527816D01*
X154851557Y-105338412D01*
X154917246Y-105136243D01*
X154950500Y-104926287D01*
X154950500Y-104713713D01*
X154917246Y-104503757D01*
X154851557Y-104301588D01*
X154755051Y-104112184D01*
X154755049Y-104112181D01*
X154755048Y-104112179D01*
X154630109Y-103940213D01*
X154479786Y-103789890D01*
X154307820Y-103664951D01*
X154307115Y-103664591D01*
X154299054Y-103660485D01*
X154248259Y-103612512D01*
X154231463Y-103544692D01*
X154253999Y-103478556D01*
X154299054Y-103439515D01*
X154307816Y-103435051D01*
X154344439Y-103408443D01*
X154479786Y-103310109D01*
X154479788Y-103310106D01*
X154479792Y-103310104D01*
X154630104Y-103159792D01*
X154630106Y-103159788D01*
X154630109Y-103159786D01*
X154755048Y-102987820D01*
X154755047Y-102987820D01*
X154755051Y-102987816D01*
X154851557Y-102798412D01*
X154917246Y-102596243D01*
X154950500Y-102386287D01*
X154950500Y-102173713D01*
X154917246Y-101963757D01*
X154851557Y-101761588D01*
X154755051Y-101572184D01*
X154755049Y-101572181D01*
X154755048Y-101572179D01*
X154630109Y-101400213D01*
X154479786Y-101249890D01*
X154307820Y-101124951D01*
X154307115Y-101124591D01*
X154299054Y-101120485D01*
X154248259Y-101072512D01*
X154231463Y-101004692D01*
X154253999Y-100938556D01*
X154299054Y-100899515D01*
X154307816Y-100895051D01*
X154344439Y-100868443D01*
X154479786Y-100770109D01*
X154479788Y-100770106D01*
X154479792Y-100770104D01*
X154630104Y-100619792D01*
X154630106Y-100619788D01*
X154630109Y-100619786D01*
X154755048Y-100447820D01*
X154755047Y-100447820D01*
X154755051Y-100447816D01*
X154851557Y-100258412D01*
X154917246Y-100056243D01*
X154950500Y-99846287D01*
X154950500Y-99633713D01*
X154917246Y-99423757D01*
X154851557Y-99221588D01*
X154755051Y-99032184D01*
X154755049Y-99032181D01*
X154755048Y-99032179D01*
X154630109Y-98860213D01*
X154479786Y-98709890D01*
X154307820Y-98584951D01*
X154307115Y-98584591D01*
X154299054Y-98580485D01*
X154248259Y-98532512D01*
X154231463Y-98464692D01*
X154253999Y-98398556D01*
X154299054Y-98359515D01*
X154307816Y-98355051D01*
X154344439Y-98328443D01*
X154479786Y-98230109D01*
X154479788Y-98230106D01*
X154479792Y-98230104D01*
X154630104Y-98079792D01*
X154630106Y-98079788D01*
X154630109Y-98079786D01*
X154755048Y-97907820D01*
X154755047Y-97907820D01*
X154755051Y-97907816D01*
X154851557Y-97718412D01*
X154917246Y-97516243D01*
X154950500Y-97306287D01*
X154950500Y-97093713D01*
X154917246Y-96883757D01*
X154851557Y-96681588D01*
X154755051Y-96492184D01*
X154755049Y-96492181D01*
X154755048Y-96492179D01*
X154630109Y-96320213D01*
X154479786Y-96169890D01*
X154307820Y-96044951D01*
X154307115Y-96044591D01*
X154299054Y-96040485D01*
X154248259Y-95992512D01*
X154231463Y-95924692D01*
X154253999Y-95858556D01*
X154299054Y-95819515D01*
X154307816Y-95815051D01*
X154344439Y-95788443D01*
X154479786Y-95690109D01*
X154479788Y-95690106D01*
X154479792Y-95690104D01*
X154630104Y-95539792D01*
X154630106Y-95539788D01*
X154630109Y-95539786D01*
X154755048Y-95367820D01*
X154755047Y-95367820D01*
X154755051Y-95367816D01*
X154851557Y-95178412D01*
X154917246Y-94976243D01*
X154950500Y-94766287D01*
X154950500Y-94553713D01*
X154917246Y-94343757D01*
X154851557Y-94141588D01*
X154755051Y-93952184D01*
X154755049Y-93952181D01*
X154755048Y-93952179D01*
X154630109Y-93780213D01*
X154479786Y-93629890D01*
X154307817Y-93504949D01*
X154298504Y-93500204D01*
X154247707Y-93452230D01*
X154230912Y-93384409D01*
X154253449Y-93318274D01*
X154298507Y-93279232D01*
X154307555Y-93274622D01*
X154361716Y-93235270D01*
X154361717Y-93235270D01*
X153729408Y-92602962D01*
X153792993Y-92585925D01*
X153907007Y-92520099D01*
X154000099Y-92427007D01*
X154065925Y-92312993D01*
X154082962Y-92249408D01*
X154715270Y-92881717D01*
X154715270Y-92881716D01*
X154754622Y-92827554D01*
X154851095Y-92638217D01*
X154916757Y-92436130D01*
X154916757Y-92436127D01*
X154950000Y-92226246D01*
X154950000Y-92013753D01*
X154916757Y-91803872D01*
X154916757Y-91803869D01*
X154851095Y-91601782D01*
X154754624Y-91412449D01*
X154715270Y-91358282D01*
X154715269Y-91358282D01*
X154082962Y-91990590D01*
X154065925Y-91927007D01*
X154000099Y-91812993D01*
X153907007Y-91719901D01*
X153792993Y-91654075D01*
X153729409Y-91637037D01*
X154361716Y-91004728D01*
X154307547Y-90965373D01*
X154307547Y-90965372D01*
X154298500Y-90960763D01*
X154247706Y-90912788D01*
X154230912Y-90844966D01*
X154253451Y-90778832D01*
X154298508Y-90739793D01*
X154307816Y-90735051D01*
X154461496Y-90623397D01*
X154479786Y-90610109D01*
X154479788Y-90610106D01*
X154479792Y-90610104D01*
X154630104Y-90459792D01*
X154630106Y-90459788D01*
X154630109Y-90459786D01*
X154744653Y-90302128D01*
X154755051Y-90287816D01*
X154851557Y-90098412D01*
X154917246Y-89896243D01*
X154950500Y-89686287D01*
X154950500Y-89473713D01*
X154917246Y-89263757D01*
X154851557Y-89061588D01*
X154755051Y-88872184D01*
X154755049Y-88872181D01*
X154755048Y-88872179D01*
X154630109Y-88700213D01*
X154479786Y-88549890D01*
X154307820Y-88424951D01*
X154307115Y-88424591D01*
X154299054Y-88420485D01*
X154248259Y-88372512D01*
X154231463Y-88304692D01*
X154253999Y-88238556D01*
X154299054Y-88199515D01*
X154307816Y-88195051D01*
X154344439Y-88168443D01*
X154479786Y-88070109D01*
X154479788Y-88070106D01*
X154479792Y-88070104D01*
X154630104Y-87919792D01*
X154630106Y-87919788D01*
X154630109Y-87919786D01*
X154755048Y-87747820D01*
X154755047Y-87747820D01*
X154755051Y-87747816D01*
X154851557Y-87558412D01*
X154917246Y-87356243D01*
X154950500Y-87146287D01*
X154950500Y-86933713D01*
X154917246Y-86723757D01*
X154851557Y-86521588D01*
X154755051Y-86332184D01*
X154755049Y-86332181D01*
X154755048Y-86332179D01*
X154630109Y-86160213D01*
X154479786Y-86009890D01*
X154307820Y-85884951D01*
X154307115Y-85884591D01*
X154299054Y-85880485D01*
X154248259Y-85832512D01*
X154231463Y-85764692D01*
X154253999Y-85698556D01*
X154299054Y-85659515D01*
X154307816Y-85655051D01*
X154344439Y-85628443D01*
X154479786Y-85530109D01*
X154479788Y-85530106D01*
X154479792Y-85530104D01*
X154630104Y-85379792D01*
X154630106Y-85379788D01*
X154630109Y-85379786D01*
X154755048Y-85207820D01*
X154755047Y-85207820D01*
X154755051Y-85207816D01*
X154851557Y-85018412D01*
X154917246Y-84816243D01*
X154950500Y-84606287D01*
X154950500Y-84393713D01*
X154917246Y-84183757D01*
X154851557Y-83981588D01*
X154755051Y-83792184D01*
X154755049Y-83792181D01*
X154755048Y-83792179D01*
X154630109Y-83620213D01*
X154479786Y-83469890D01*
X154307820Y-83344951D01*
X154307115Y-83344591D01*
X154299054Y-83340485D01*
X154248259Y-83292512D01*
X154231463Y-83224692D01*
X154253999Y-83158556D01*
X154299054Y-83119515D01*
X154307816Y-83115051D01*
X154344439Y-83088443D01*
X154479786Y-82990109D01*
X154479788Y-82990106D01*
X154479792Y-82990104D01*
X154630104Y-82839792D01*
X154630106Y-82839788D01*
X154630109Y-82839786D01*
X154755048Y-82667820D01*
X154755047Y-82667820D01*
X154755051Y-82667816D01*
X154851557Y-82478412D01*
X154917246Y-82276243D01*
X154950500Y-82066287D01*
X154950500Y-81853713D01*
X154917246Y-81643757D01*
X154851557Y-81441588D01*
X154755051Y-81252184D01*
X154755049Y-81252181D01*
X154755048Y-81252179D01*
X154630109Y-81080213D01*
X154479786Y-80929890D01*
X154307820Y-80804951D01*
X154307115Y-80804591D01*
X154299054Y-80800485D01*
X154248259Y-80752512D01*
X154231463Y-80684692D01*
X154253999Y-80618556D01*
X154299054Y-80579515D01*
X154307816Y-80575051D01*
X154344439Y-80548443D01*
X154479786Y-80450109D01*
X154479788Y-80450106D01*
X154479792Y-80450104D01*
X154630104Y-80299792D01*
X154630106Y-80299788D01*
X154630109Y-80299786D01*
X154755048Y-80127820D01*
X154755047Y-80127820D01*
X154755051Y-80127816D01*
X154851557Y-79938412D01*
X154917246Y-79736243D01*
X154950500Y-79526287D01*
X154950500Y-79313713D01*
X154917246Y-79103757D01*
X154851557Y-78901588D01*
X154755051Y-78712184D01*
X154755049Y-78712181D01*
X154755048Y-78712179D01*
X154630109Y-78540213D01*
X154516181Y-78426285D01*
X154482696Y-78364962D01*
X154487680Y-78295270D01*
X154529552Y-78239337D01*
X154560529Y-78222422D01*
X154692086Y-78173354D01*
X154692093Y-78173350D01*
X154807187Y-78087190D01*
X154807190Y-78087187D01*
X154893350Y-77972093D01*
X154893354Y-77972086D01*
X154943596Y-77837379D01*
X154943598Y-77837372D01*
X154949999Y-77777844D01*
X154950000Y-77777827D01*
X154950000Y-77130000D01*
X154033012Y-77130000D01*
X154065925Y-77072993D01*
X154100000Y-76945826D01*
X154100000Y-76814174D01*
X154065925Y-76687007D01*
X154033012Y-76630000D01*
X154950000Y-76630000D01*
X154950000Y-75982172D01*
X154949999Y-75982155D01*
X154943598Y-75922627D01*
X154943596Y-75922620D01*
X154893354Y-75787913D01*
X154893350Y-75787906D01*
X154826653Y-75698811D01*
X154802235Y-75633347D01*
X154817086Y-75565074D01*
X154866491Y-75515668D01*
X154925919Y-75500500D01*
X160979140Y-75500500D01*
X161046179Y-75520185D01*
X161091934Y-75572989D01*
X161101878Y-75642147D01*
X161072853Y-75705703D01*
X161022473Y-75740682D01*
X161007671Y-75746202D01*
X161007664Y-75746206D01*
X160892455Y-75832452D01*
X160892452Y-75832455D01*
X160806206Y-75947664D01*
X160806202Y-75947671D01*
X160755908Y-76082517D01*
X160749501Y-76142116D01*
X160749501Y-76142123D01*
X160749500Y-76142135D01*
X160749500Y-77937870D01*
X160749501Y-77937876D01*
X160755908Y-77997483D01*
X160806202Y-78132328D01*
X160806206Y-78132335D01*
X160892452Y-78247544D01*
X160892455Y-78247547D01*
X161007664Y-78333793D01*
X161007671Y-78333797D01*
X161139082Y-78382810D01*
X161195016Y-78424681D01*
X161219433Y-78490145D01*
X161204582Y-78558418D01*
X161183431Y-78586673D01*
X161069889Y-78700215D01*
X160944951Y-78872179D01*
X160848444Y-79061585D01*
X160782753Y-79263760D01*
X160749500Y-79473713D01*
X160749500Y-79686287D01*
X160782754Y-79896243D01*
X160796456Y-79938414D01*
X160848444Y-80098414D01*
X160944951Y-80287820D01*
X161069890Y-80459786D01*
X161220213Y-80610109D01*
X161392182Y-80735050D01*
X161400946Y-80739516D01*
X161451742Y-80787491D01*
X161468536Y-80855312D01*
X161445998Y-80921447D01*
X161400946Y-80960484D01*
X161392182Y-80964949D01*
X161220213Y-81089890D01*
X161069890Y-81240213D01*
X160944951Y-81412179D01*
X160848444Y-81601585D01*
X160782753Y-81803760D01*
X160749500Y-82013713D01*
X160749500Y-82226287D01*
X160782754Y-82436243D01*
X160796456Y-82478414D01*
X160848444Y-82638414D01*
X160944951Y-82827820D01*
X161069890Y-82999786D01*
X161220213Y-83150109D01*
X161392182Y-83275050D01*
X161400946Y-83279516D01*
X161451742Y-83327491D01*
X161468536Y-83395312D01*
X161445998Y-83461447D01*
X161400946Y-83500484D01*
X161392182Y-83504949D01*
X161220213Y-83629890D01*
X161069890Y-83780213D01*
X160944951Y-83952179D01*
X160848444Y-84141585D01*
X160782753Y-84343760D01*
X160748738Y-84558525D01*
X160747684Y-84558358D01*
X160724621Y-84618850D01*
X160713576Y-84631503D01*
X158852900Y-86492179D01*
X156971221Y-88373858D01*
X156971218Y-88373861D01*
X156924595Y-88420484D01*
X156831859Y-88513219D01*
X156722371Y-88677079D01*
X156722364Y-88677092D01*
X156678821Y-88782217D01*
X156646950Y-88859160D01*
X156646947Y-88859170D01*
X156641075Y-88888693D01*
X156608500Y-89052454D01*
X156608500Y-89052459D01*
X156608500Y-106552459D01*
X156608500Y-124249541D01*
X156608500Y-124249543D01*
X156608499Y-124249543D01*
X156646947Y-124442829D01*
X156646950Y-124442839D01*
X156722364Y-124624907D01*
X156722371Y-124624920D01*
X156831860Y-124788781D01*
X156831863Y-124788785D01*
X156971214Y-124928136D01*
X156971218Y-124928139D01*
X157135079Y-125037628D01*
X157135092Y-125037635D01*
X157317160Y-125113049D01*
X157317165Y-125113051D01*
X157317169Y-125113051D01*
X157317170Y-125113052D01*
X157510456Y-125151500D01*
X157510459Y-125151500D01*
X157707543Y-125151500D01*
X157837582Y-125125632D01*
X157900835Y-125113051D01*
X158082914Y-125037632D01*
X158246782Y-124928139D01*
X158386139Y-124788782D01*
X158495632Y-124624914D01*
X158571051Y-124442835D01*
X158609500Y-124249541D01*
X158609500Y-111142135D01*
X160749500Y-111142135D01*
X160749500Y-112937870D01*
X160749501Y-112937876D01*
X160755908Y-112997483D01*
X160806202Y-113132328D01*
X160806206Y-113132335D01*
X160892452Y-113247544D01*
X160892455Y-113247547D01*
X161007664Y-113333793D01*
X161007671Y-113333797D01*
X161139082Y-113382810D01*
X161195016Y-113424681D01*
X161219433Y-113490145D01*
X161204582Y-113558418D01*
X161183431Y-113586673D01*
X161069889Y-113700215D01*
X160944951Y-113872179D01*
X160848444Y-114061585D01*
X160782753Y-114263760D01*
X160749500Y-114473713D01*
X160749500Y-114686286D01*
X160779185Y-114873713D01*
X160782754Y-114896243D01*
X160844503Y-115086287D01*
X160848444Y-115098414D01*
X160944951Y-115287820D01*
X161069890Y-115459786D01*
X161220213Y-115610109D01*
X161392182Y-115735050D01*
X161400946Y-115739516D01*
X161451742Y-115787491D01*
X161468536Y-115855312D01*
X161445998Y-115921447D01*
X161400946Y-115960484D01*
X161392182Y-115964949D01*
X161220213Y-116089890D01*
X161069890Y-116240213D01*
X160944951Y-116412179D01*
X160848444Y-116601585D01*
X160782753Y-116803760D01*
X160749500Y-117013713D01*
X160749500Y-117226286D01*
X160779185Y-117413713D01*
X160782754Y-117436243D01*
X160844503Y-117626287D01*
X160848444Y-117638414D01*
X160944951Y-117827820D01*
X161069890Y-117999786D01*
X161220213Y-118150109D01*
X161392182Y-118275050D01*
X161400946Y-118279516D01*
X161451742Y-118327491D01*
X161468536Y-118395312D01*
X161445998Y-118461447D01*
X161400946Y-118500484D01*
X161392182Y-118504949D01*
X161220213Y-118629890D01*
X161069890Y-118780213D01*
X160944951Y-118952179D01*
X160848444Y-119141585D01*
X160782753Y-119343760D01*
X160749500Y-119553713D01*
X160749500Y-119766286D01*
X160779185Y-119953713D01*
X160782754Y-119976243D01*
X160844503Y-120166287D01*
X160848444Y-120178414D01*
X160944951Y-120367820D01*
X161069890Y-120539786D01*
X161220213Y-120690109D01*
X161392182Y-120815050D01*
X161400946Y-120819516D01*
X161451742Y-120867491D01*
X161468536Y-120935312D01*
X161445998Y-121001447D01*
X161400946Y-121040484D01*
X161392182Y-121044949D01*
X161220213Y-121169890D01*
X161069890Y-121320213D01*
X160944951Y-121492179D01*
X160848444Y-121681585D01*
X160782753Y-121883760D01*
X160749500Y-122093713D01*
X160749500Y-122306286D01*
X160779185Y-122493713D01*
X160782754Y-122516243D01*
X160844503Y-122706287D01*
X160848444Y-122718414D01*
X160944951Y-122907820D01*
X161069890Y-123079786D01*
X161220213Y-123230109D01*
X161392179Y-123355048D01*
X161392181Y-123355049D01*
X161392184Y-123355051D01*
X161401493Y-123359794D01*
X161452290Y-123407766D01*
X161469087Y-123475587D01*
X161446552Y-123541722D01*
X161401505Y-123580760D01*
X161392446Y-123585376D01*
X161392440Y-123585380D01*
X161338282Y-123624727D01*
X161338282Y-123624728D01*
X161970591Y-124257037D01*
X161907007Y-124274075D01*
X161792993Y-124339901D01*
X161699901Y-124432993D01*
X161634075Y-124547007D01*
X161617037Y-124610591D01*
X160984728Y-123978282D01*
X160984727Y-123978282D01*
X160945380Y-124032439D01*
X160848904Y-124221782D01*
X160783242Y-124423869D01*
X160783242Y-124423872D01*
X160750000Y-124633753D01*
X160750000Y-124846246D01*
X160783242Y-125056127D01*
X160783242Y-125056130D01*
X160848904Y-125258217D01*
X160945375Y-125447550D01*
X160984728Y-125501716D01*
X161617037Y-124869408D01*
X161634075Y-124932993D01*
X161699901Y-125047007D01*
X161792993Y-125140099D01*
X161907007Y-125205925D01*
X161970590Y-125222962D01*
X161338282Y-125855269D01*
X161338282Y-125855270D01*
X161392449Y-125894624D01*
X161581782Y-125991095D01*
X161783870Y-126056757D01*
X161993754Y-126090000D01*
X162206246Y-126090000D01*
X162416127Y-126056757D01*
X162416130Y-126056757D01*
X162618217Y-125991095D01*
X162807554Y-125894622D01*
X162861716Y-125855270D01*
X162861717Y-125855270D01*
X162229408Y-125222962D01*
X162292993Y-125205925D01*
X162407007Y-125140099D01*
X162500099Y-125047007D01*
X162565925Y-124932993D01*
X162582962Y-124869408D01*
X163215270Y-125501717D01*
X163215270Y-125501716D01*
X163254622Y-125447554D01*
X163351095Y-125258217D01*
X163416757Y-125056130D01*
X163416757Y-125056127D01*
X163450000Y-124846246D01*
X163450000Y-124633753D01*
X163416757Y-124423872D01*
X163416757Y-124423869D01*
X163351095Y-124221782D01*
X163254624Y-124032449D01*
X163215270Y-123978282D01*
X163215269Y-123978282D01*
X162582962Y-124610590D01*
X162565925Y-124547007D01*
X162500099Y-124432993D01*
X162407007Y-124339901D01*
X162292993Y-124274075D01*
X162229409Y-124257037D01*
X162861716Y-123624728D01*
X162807547Y-123585373D01*
X162807547Y-123585372D01*
X162798500Y-123580763D01*
X162747706Y-123532788D01*
X162730912Y-123464966D01*
X162753451Y-123398832D01*
X162798508Y-123359793D01*
X162807816Y-123355051D01*
X162887007Y-123297515D01*
X162979786Y-123230109D01*
X162979788Y-123230106D01*
X162979792Y-123230104D01*
X163130104Y-123079792D01*
X163130106Y-123079788D01*
X163130109Y-123079786D01*
X163255048Y-122907820D01*
X163255047Y-122907820D01*
X163255051Y-122907816D01*
X163351557Y-122718412D01*
X163417246Y-122516243D01*
X163450500Y-122306287D01*
X163450500Y-122093713D01*
X163417246Y-121883757D01*
X163351557Y-121681588D01*
X163255051Y-121492184D01*
X163255049Y-121492181D01*
X163255048Y-121492179D01*
X163130109Y-121320213D01*
X162979786Y-121169890D01*
X162807820Y-121044951D01*
X162807115Y-121044591D01*
X162799054Y-121040485D01*
X162748259Y-120992512D01*
X162731463Y-120924692D01*
X162753999Y-120858556D01*
X162799054Y-120819515D01*
X162807816Y-120815051D01*
X162856346Y-120779792D01*
X162979786Y-120690109D01*
X162979788Y-120690106D01*
X162979792Y-120690104D01*
X163130104Y-120539792D01*
X163130106Y-120539788D01*
X163130109Y-120539786D01*
X163255048Y-120367820D01*
X163255047Y-120367820D01*
X163255051Y-120367816D01*
X163351557Y-120178412D01*
X163417246Y-119976243D01*
X163450500Y-119766287D01*
X163450500Y-119553713D01*
X163417246Y-119343757D01*
X163351557Y-119141588D01*
X163255051Y-118952184D01*
X163255049Y-118952181D01*
X163255048Y-118952179D01*
X163130109Y-118780213D01*
X162979786Y-118629890D01*
X162807820Y-118504951D01*
X162807115Y-118504591D01*
X162799054Y-118500485D01*
X162748259Y-118452512D01*
X162731463Y-118384692D01*
X162753999Y-118318556D01*
X162799054Y-118279515D01*
X162807816Y-118275051D01*
X162856346Y-118239792D01*
X162979786Y-118150109D01*
X162979788Y-118150106D01*
X162979792Y-118150104D01*
X163130104Y-117999792D01*
X163130106Y-117999788D01*
X163130109Y-117999786D01*
X163255048Y-117827820D01*
X163255047Y-117827820D01*
X163255051Y-117827816D01*
X163351557Y-117638412D01*
X163417246Y-117436243D01*
X163450500Y-117226287D01*
X163450500Y-117013713D01*
X163417246Y-116803757D01*
X163351557Y-116601588D01*
X163255051Y-116412184D01*
X163255049Y-116412181D01*
X163255048Y-116412179D01*
X163130109Y-116240213D01*
X162979786Y-116089890D01*
X162807820Y-115964951D01*
X162807115Y-115964591D01*
X162799054Y-115960485D01*
X162748259Y-115912512D01*
X162731463Y-115844692D01*
X162753999Y-115778556D01*
X162799054Y-115739515D01*
X162807816Y-115735051D01*
X162856346Y-115699792D01*
X162979786Y-115610109D01*
X162979788Y-115610106D01*
X162979792Y-115610104D01*
X163130104Y-115459792D01*
X163130106Y-115459788D01*
X163130109Y-115459786D01*
X163255048Y-115287820D01*
X163255047Y-115287820D01*
X163255051Y-115287816D01*
X163351557Y-115098412D01*
X163417246Y-114896243D01*
X163450500Y-114686287D01*
X163450500Y-114473713D01*
X163417246Y-114263757D01*
X163351557Y-114061588D01*
X163255051Y-113872184D01*
X163255049Y-113872181D01*
X163255048Y-113872179D01*
X163130109Y-113700213D01*
X163016569Y-113586673D01*
X162983084Y-113525350D01*
X162988068Y-113455658D01*
X163029940Y-113399725D01*
X163060915Y-113382810D01*
X163192331Y-113333796D01*
X163307546Y-113247546D01*
X163393796Y-113132331D01*
X163444091Y-112997483D01*
X163450500Y-112937873D01*
X163450499Y-111142128D01*
X163444091Y-111082517D01*
X163443586Y-111081164D01*
X163393797Y-110947671D01*
X163393793Y-110947664D01*
X163307547Y-110832455D01*
X163307544Y-110832452D01*
X163192335Y-110746206D01*
X163192328Y-110746202D01*
X163057482Y-110695908D01*
X163057483Y-110695908D01*
X162997883Y-110689501D01*
X162997881Y-110689500D01*
X162997873Y-110689500D01*
X162997864Y-110689500D01*
X161202129Y-110689500D01*
X161202123Y-110689501D01*
X161142516Y-110695908D01*
X161007671Y-110746202D01*
X161007664Y-110746206D01*
X160892455Y-110832452D01*
X160892452Y-110832455D01*
X160806206Y-110947664D01*
X160806202Y-110947671D01*
X160755908Y-111082517D01*
X160749501Y-111142116D01*
X160749501Y-111142123D01*
X160749500Y-111142135D01*
X158609500Y-111142135D01*
X158609500Y-107116781D01*
X158629185Y-107049742D01*
X158645814Y-107029105D01*
X160609245Y-105065673D01*
X160670566Y-105032190D01*
X160740258Y-105037174D01*
X160796191Y-105079046D01*
X160814853Y-105115035D01*
X160835447Y-105178414D01*
X160848444Y-105218414D01*
X160944951Y-105407820D01*
X161069890Y-105579786D01*
X161220213Y-105730109D01*
X161392179Y-105855048D01*
X161392181Y-105855049D01*
X161392184Y-105855051D01*
X161401493Y-105859794D01*
X161452290Y-105907766D01*
X161469087Y-105975587D01*
X161446552Y-106041722D01*
X161401505Y-106080760D01*
X161392446Y-106085376D01*
X161392440Y-106085380D01*
X161338282Y-106124727D01*
X161338282Y-106124728D01*
X161970591Y-106757037D01*
X161907007Y-106774075D01*
X161792993Y-106839901D01*
X161699901Y-106932993D01*
X161634075Y-107047007D01*
X161617037Y-107110591D01*
X160984728Y-106478282D01*
X160984727Y-106478282D01*
X160945380Y-106532439D01*
X160848904Y-106721782D01*
X160783242Y-106923869D01*
X160783242Y-106923872D01*
X160750000Y-107133753D01*
X160750000Y-107346246D01*
X160783242Y-107556127D01*
X160783242Y-107556130D01*
X160848904Y-107758217D01*
X160945375Y-107947550D01*
X160984728Y-108001716D01*
X161617037Y-107369408D01*
X161634075Y-107432993D01*
X161699901Y-107547007D01*
X161792993Y-107640099D01*
X161907007Y-107705925D01*
X161970590Y-107722962D01*
X161338282Y-108355269D01*
X161338282Y-108355270D01*
X161392449Y-108394624D01*
X161581782Y-108491095D01*
X161783870Y-108556757D01*
X161993754Y-108590000D01*
X162206246Y-108590000D01*
X162416127Y-108556757D01*
X162416130Y-108556757D01*
X162618217Y-108491095D01*
X162807554Y-108394622D01*
X162861716Y-108355270D01*
X162861717Y-108355270D01*
X162229408Y-107722962D01*
X162292993Y-107705925D01*
X162407007Y-107640099D01*
X162500099Y-107547007D01*
X162565925Y-107432993D01*
X162582962Y-107369408D01*
X163215270Y-108001717D01*
X163215270Y-108001716D01*
X163254622Y-107947554D01*
X163351095Y-107758217D01*
X163416757Y-107556130D01*
X163416757Y-107556127D01*
X163450000Y-107346246D01*
X163450000Y-107133753D01*
X163416757Y-106923872D01*
X163416757Y-106923869D01*
X163351095Y-106721782D01*
X163254624Y-106532449D01*
X163215270Y-106478282D01*
X163215269Y-106478282D01*
X162582962Y-107110590D01*
X162565925Y-107047007D01*
X162500099Y-106932993D01*
X162407007Y-106839901D01*
X162292993Y-106774075D01*
X162229409Y-106757037D01*
X162861716Y-106124728D01*
X162807547Y-106085373D01*
X162807547Y-106085372D01*
X162798500Y-106080763D01*
X162747706Y-106032788D01*
X162730912Y-105964966D01*
X162753451Y-105898832D01*
X162798508Y-105859793D01*
X162807816Y-105855051D01*
X162887007Y-105797515D01*
X162979786Y-105730109D01*
X162979788Y-105730106D01*
X162979792Y-105730104D01*
X163130104Y-105579792D01*
X163130106Y-105579788D01*
X163130109Y-105579786D01*
X163255048Y-105407820D01*
X163255047Y-105407820D01*
X163255051Y-105407816D01*
X163351557Y-105218412D01*
X163417246Y-105016243D01*
X163450500Y-104806287D01*
X163450500Y-104593713D01*
X163417246Y-104383757D01*
X163351557Y-104181588D01*
X163255051Y-103992184D01*
X163255049Y-103992181D01*
X163255048Y-103992179D01*
X163130109Y-103820213D01*
X162979786Y-103669890D01*
X162807820Y-103544951D01*
X162807115Y-103544591D01*
X162799054Y-103540485D01*
X162748259Y-103492512D01*
X162731463Y-103424692D01*
X162753999Y-103358556D01*
X162799054Y-103319515D01*
X162807816Y-103315051D01*
X162862876Y-103275048D01*
X162979786Y-103190109D01*
X162979788Y-103190106D01*
X162979792Y-103190104D01*
X163130104Y-103039792D01*
X163130106Y-103039788D01*
X163130109Y-103039786D01*
X163255048Y-102867820D01*
X163255047Y-102867820D01*
X163255051Y-102867816D01*
X163351557Y-102678412D01*
X163417246Y-102476243D01*
X163450500Y-102266287D01*
X163450500Y-102053713D01*
X163417246Y-101843757D01*
X163351557Y-101641588D01*
X163255051Y-101452184D01*
X163255049Y-101452181D01*
X163255048Y-101452179D01*
X163130109Y-101280213D01*
X162979786Y-101129890D01*
X162807820Y-101004951D01*
X162807115Y-101004591D01*
X162799054Y-101000485D01*
X162748259Y-100952512D01*
X162731463Y-100884692D01*
X162753999Y-100818556D01*
X162799054Y-100779515D01*
X162807816Y-100775051D01*
X162862876Y-100735048D01*
X162979786Y-100650109D01*
X162979788Y-100650106D01*
X162979792Y-100650104D01*
X163130104Y-100499792D01*
X163130106Y-100499788D01*
X163130109Y-100499786D01*
X163255048Y-100327820D01*
X163255047Y-100327820D01*
X163255051Y-100327816D01*
X163351557Y-100138412D01*
X163417246Y-99936243D01*
X163450500Y-99726287D01*
X163450500Y-99513713D01*
X163417246Y-99303757D01*
X163351557Y-99101588D01*
X163255051Y-98912184D01*
X163255049Y-98912181D01*
X163255048Y-98912179D01*
X163130109Y-98740213D01*
X162979786Y-98589890D01*
X162807820Y-98464951D01*
X162807115Y-98464591D01*
X162799054Y-98460485D01*
X162748259Y-98412512D01*
X162731463Y-98344692D01*
X162753999Y-98278556D01*
X162799054Y-98239515D01*
X162807816Y-98235051D01*
X162862876Y-98195048D01*
X162979786Y-98110109D01*
X162979788Y-98110106D01*
X162979792Y-98110104D01*
X163130104Y-97959792D01*
X163130106Y-97959788D01*
X163130109Y-97959786D01*
X163255048Y-97787820D01*
X163255047Y-97787820D01*
X163255051Y-97787816D01*
X163351557Y-97598412D01*
X163417246Y-97396243D01*
X163450500Y-97186287D01*
X163450500Y-96973713D01*
X163417246Y-96763757D01*
X163351557Y-96561588D01*
X163255051Y-96372184D01*
X163255049Y-96372181D01*
X163255048Y-96372179D01*
X163130109Y-96200213D01*
X163016569Y-96086673D01*
X162983084Y-96025350D01*
X162988068Y-95955658D01*
X163029940Y-95899725D01*
X163060915Y-95882810D01*
X163192331Y-95833796D01*
X163307546Y-95747546D01*
X163393796Y-95632331D01*
X163444091Y-95497483D01*
X163450500Y-95437873D01*
X163450499Y-93642128D01*
X163444091Y-93582517D01*
X163413390Y-93500204D01*
X163393797Y-93447671D01*
X163393793Y-93447664D01*
X163307547Y-93332455D01*
X163307544Y-93332452D01*
X163192335Y-93246206D01*
X163192328Y-93246202D01*
X163057482Y-93195908D01*
X163057483Y-93195908D01*
X162997883Y-93189501D01*
X162997881Y-93189500D01*
X162997873Y-93189500D01*
X162997864Y-93189500D01*
X161202129Y-93189500D01*
X161202123Y-93189501D01*
X161142516Y-93195908D01*
X161007671Y-93246202D01*
X161007664Y-93246206D01*
X160892455Y-93332452D01*
X160892452Y-93332455D01*
X160806206Y-93447664D01*
X160806202Y-93447671D01*
X160755908Y-93582517D01*
X160750815Y-93629896D01*
X160749501Y-93642123D01*
X160749500Y-93642135D01*
X160749500Y-95437870D01*
X160749501Y-95437876D01*
X160755908Y-95497483D01*
X160806202Y-95632328D01*
X160806206Y-95632335D01*
X160892452Y-95747544D01*
X160892455Y-95747547D01*
X161007664Y-95833793D01*
X161007671Y-95833797D01*
X161139082Y-95882810D01*
X161195016Y-95924681D01*
X161219433Y-95990145D01*
X161204582Y-96058418D01*
X161183431Y-96086673D01*
X161069889Y-96200215D01*
X160944951Y-96372179D01*
X160848444Y-96561585D01*
X160782753Y-96763760D01*
X160749500Y-96973713D01*
X160749500Y-97186286D01*
X160777208Y-97361232D01*
X160782754Y-97396243D01*
X160821743Y-97516239D01*
X160848444Y-97598414D01*
X160944951Y-97787820D01*
X161069890Y-97959786D01*
X161220213Y-98110109D01*
X161392182Y-98235050D01*
X161400946Y-98239516D01*
X161451742Y-98287491D01*
X161468536Y-98355312D01*
X161445998Y-98421447D01*
X161400946Y-98460484D01*
X161392182Y-98464949D01*
X161220213Y-98589890D01*
X161069890Y-98740213D01*
X160944951Y-98912179D01*
X160848444Y-99101585D01*
X160782753Y-99303760D01*
X160749500Y-99513713D01*
X160749500Y-99726286D01*
X160777244Y-99901459D01*
X160782754Y-99936243D01*
X160821743Y-100056239D01*
X160848444Y-100138414D01*
X160944951Y-100327820D01*
X161069890Y-100499786D01*
X161220213Y-100650109D01*
X161392182Y-100775050D01*
X161400946Y-100779516D01*
X161451742Y-100827491D01*
X161468536Y-100895312D01*
X161445998Y-100961447D01*
X161400946Y-101000484D01*
X161392182Y-101004949D01*
X161220213Y-101129890D01*
X161069890Y-101280213D01*
X160944951Y-101452179D01*
X160848444Y-101641585D01*
X160782753Y-101843760D01*
X160748738Y-102058525D01*
X160747684Y-102058358D01*
X160724621Y-102118850D01*
X160713576Y-102131503D01*
X158821181Y-104023899D01*
X158759858Y-104057384D01*
X158690166Y-104052400D01*
X158634233Y-104010528D01*
X158609816Y-103945064D01*
X158609500Y-103936218D01*
X158609500Y-89616781D01*
X158629185Y-89549742D01*
X158645814Y-89529105D01*
X160609245Y-87565673D01*
X160670566Y-87532190D01*
X160740258Y-87537174D01*
X160796191Y-87579046D01*
X160814855Y-87615038D01*
X160848444Y-87718414D01*
X160944951Y-87907820D01*
X161069890Y-88079786D01*
X161220213Y-88230109D01*
X161392179Y-88355048D01*
X161392181Y-88355049D01*
X161392184Y-88355051D01*
X161401493Y-88359794D01*
X161452290Y-88407766D01*
X161469087Y-88475587D01*
X161446552Y-88541722D01*
X161401505Y-88580760D01*
X161392446Y-88585376D01*
X161392440Y-88585380D01*
X161338282Y-88624727D01*
X161338282Y-88624728D01*
X161970591Y-89257037D01*
X161907007Y-89274075D01*
X161792993Y-89339901D01*
X161699901Y-89432993D01*
X161634075Y-89547007D01*
X161617037Y-89610591D01*
X160984728Y-88978282D01*
X160984727Y-88978282D01*
X160945380Y-89032439D01*
X160848904Y-89221782D01*
X160783242Y-89423869D01*
X160783242Y-89423872D01*
X160750000Y-89633753D01*
X160750000Y-89846246D01*
X160783242Y-90056127D01*
X160783242Y-90056130D01*
X160848904Y-90258217D01*
X160945375Y-90447550D01*
X160984728Y-90501716D01*
X161617037Y-89869408D01*
X161634075Y-89932993D01*
X161699901Y-90047007D01*
X161792993Y-90140099D01*
X161907007Y-90205925D01*
X161970590Y-90222962D01*
X161338282Y-90855269D01*
X161338282Y-90855270D01*
X161392449Y-90894624D01*
X161581782Y-90991095D01*
X161783870Y-91056757D01*
X161993754Y-91090000D01*
X162206246Y-91090000D01*
X162416127Y-91056757D01*
X162416130Y-91056757D01*
X162618217Y-90991095D01*
X162807554Y-90894622D01*
X162861716Y-90855270D01*
X162861717Y-90855270D01*
X162229408Y-90222962D01*
X162292993Y-90205925D01*
X162407007Y-90140099D01*
X162500099Y-90047007D01*
X162565925Y-89932993D01*
X162582962Y-89869408D01*
X163215270Y-90501717D01*
X163215270Y-90501716D01*
X163254622Y-90447554D01*
X163351095Y-90258217D01*
X163416757Y-90056130D01*
X163416757Y-90056127D01*
X163450000Y-89846246D01*
X163450000Y-89633753D01*
X163416757Y-89423872D01*
X163416757Y-89423869D01*
X163351095Y-89221782D01*
X163254624Y-89032449D01*
X163215270Y-88978282D01*
X163215269Y-88978282D01*
X162582962Y-89610590D01*
X162565925Y-89547007D01*
X162500099Y-89432993D01*
X162407007Y-89339901D01*
X162292993Y-89274075D01*
X162229409Y-89257037D01*
X162861716Y-88624728D01*
X162807547Y-88585373D01*
X162807547Y-88585372D01*
X162798500Y-88580763D01*
X162747706Y-88532788D01*
X162730912Y-88464966D01*
X162753451Y-88398832D01*
X162798508Y-88359793D01*
X162807816Y-88355051D01*
X162931832Y-88264949D01*
X162979786Y-88230109D01*
X162979788Y-88230106D01*
X162979792Y-88230104D01*
X163130104Y-88079792D01*
X163130106Y-88079788D01*
X163130109Y-88079786D01*
X163255048Y-87907820D01*
X163255047Y-87907820D01*
X163255051Y-87907816D01*
X163351557Y-87718412D01*
X163417246Y-87516243D01*
X163450500Y-87306287D01*
X163450500Y-87093713D01*
X163417246Y-86883757D01*
X163351557Y-86681588D01*
X163255051Y-86492184D01*
X163255049Y-86492181D01*
X163255048Y-86492179D01*
X163130109Y-86320213D01*
X162979786Y-86169890D01*
X162807820Y-86044951D01*
X162807115Y-86044591D01*
X162799054Y-86040485D01*
X162748259Y-85992512D01*
X162731463Y-85924692D01*
X162753999Y-85858556D01*
X162799054Y-85819515D01*
X162807816Y-85815051D01*
X162844439Y-85788443D01*
X162979786Y-85690109D01*
X162979788Y-85690106D01*
X162979792Y-85690104D01*
X163130104Y-85539792D01*
X163130106Y-85539788D01*
X163130109Y-85539786D01*
X163255048Y-85367820D01*
X163255047Y-85367820D01*
X163255051Y-85367816D01*
X163351557Y-85178412D01*
X163417246Y-84976243D01*
X163450500Y-84766287D01*
X163450500Y-84553713D01*
X163417246Y-84343757D01*
X163351557Y-84141588D01*
X163255051Y-83952184D01*
X163255049Y-83952181D01*
X163255048Y-83952179D01*
X163130109Y-83780213D01*
X162979786Y-83629890D01*
X162807820Y-83504951D01*
X162807115Y-83504591D01*
X162799054Y-83500485D01*
X162748259Y-83452512D01*
X162731463Y-83384692D01*
X162753999Y-83318556D01*
X162799054Y-83279515D01*
X162807816Y-83275051D01*
X162844439Y-83248443D01*
X162979786Y-83150109D01*
X162979788Y-83150106D01*
X162979792Y-83150104D01*
X163130104Y-82999792D01*
X163130106Y-82999788D01*
X163130109Y-82999786D01*
X163255048Y-82827820D01*
X163255047Y-82827820D01*
X163255051Y-82827816D01*
X163351557Y-82638412D01*
X163417246Y-82436243D01*
X163450500Y-82226287D01*
X163450500Y-82013713D01*
X163417246Y-81803757D01*
X163351557Y-81601588D01*
X163255051Y-81412184D01*
X163255049Y-81412181D01*
X163255048Y-81412179D01*
X163130109Y-81240213D01*
X162979786Y-81089890D01*
X162807820Y-80964951D01*
X162807115Y-80964591D01*
X162799054Y-80960485D01*
X162748259Y-80912512D01*
X162731463Y-80844692D01*
X162753999Y-80778556D01*
X162799054Y-80739515D01*
X162807816Y-80735051D01*
X162844439Y-80708443D01*
X162979786Y-80610109D01*
X162979788Y-80610106D01*
X162979792Y-80610104D01*
X163130104Y-80459792D01*
X163130106Y-80459788D01*
X163130109Y-80459786D01*
X163255048Y-80287820D01*
X163255047Y-80287820D01*
X163255051Y-80287816D01*
X163351557Y-80098412D01*
X163417246Y-79896243D01*
X163450500Y-79686287D01*
X163450500Y-79473713D01*
X163417246Y-79263757D01*
X163351557Y-79061588D01*
X163255051Y-78872184D01*
X163255049Y-78872181D01*
X163255048Y-78872179D01*
X163130109Y-78700213D01*
X163016569Y-78586673D01*
X162983084Y-78525350D01*
X162988068Y-78455658D01*
X163029940Y-78399725D01*
X163060915Y-78382810D01*
X163192331Y-78333796D01*
X163307546Y-78247546D01*
X163393796Y-78132331D01*
X163444091Y-77997483D01*
X163450500Y-77937873D01*
X163450499Y-76142128D01*
X163444091Y-76082517D01*
X163430970Y-76047339D01*
X163393797Y-75947671D01*
X163393793Y-75947664D01*
X163307547Y-75832455D01*
X163307544Y-75832452D01*
X163192335Y-75746206D01*
X163192328Y-75746202D01*
X163177527Y-75740682D01*
X163121593Y-75698811D01*
X163097176Y-75633346D01*
X163112028Y-75565073D01*
X163161433Y-75515668D01*
X163220860Y-75500500D01*
X163876000Y-75500500D01*
X163943039Y-75520185D01*
X163988794Y-75572989D01*
X164000000Y-75624500D01*
X164000000Y-126375500D01*
X163980315Y-126442539D01*
X163927511Y-126488294D01*
X163876000Y-126499500D01*
X96624500Y-126499500D01*
X96557461Y-126479815D01*
X96511706Y-126427011D01*
X96500500Y-126375500D01*
X96500500Y-114685803D01*
X99050000Y-114685803D01*
X99050000Y-115250000D01*
X99866988Y-115250000D01*
X99834075Y-115307007D01*
X99800000Y-115434174D01*
X99800000Y-115565826D01*
X99834075Y-115692993D01*
X99866988Y-115750000D01*
X99050001Y-115750000D01*
X99050001Y-116314197D01*
X99060400Y-116446332D01*
X99115377Y-116664519D01*
X99208428Y-116869374D01*
X99208431Y-116869380D01*
X99336559Y-117054323D01*
X99336569Y-117054335D01*
X99495664Y-117213430D01*
X99495676Y-117213440D01*
X99680619Y-117341568D01*
X99680625Y-117341571D01*
X99885480Y-117434622D01*
X100103667Y-117489599D01*
X100235810Y-117499999D01*
X101049999Y-117499999D01*
X101050000Y-117499998D01*
X101050000Y-116000000D01*
X101550000Y-116000000D01*
X101550000Y-117499999D01*
X102364182Y-117499999D01*
X102364197Y-117499998D01*
X102496332Y-117489599D01*
X102714519Y-117434622D01*
X102919374Y-117341571D01*
X102919380Y-117341568D01*
X103104323Y-117213440D01*
X103104335Y-117213430D01*
X103263430Y-117054335D01*
X103263440Y-117054323D01*
X103391568Y-116869380D01*
X103391571Y-116869374D01*
X103484622Y-116664519D01*
X103539599Y-116446332D01*
X103549999Y-116314196D01*
X103550000Y-116314184D01*
X103550000Y-115750000D01*
X102733012Y-115750000D01*
X102765925Y-115692993D01*
X102800000Y-115565826D01*
X102800000Y-115434174D01*
X102765925Y-115307007D01*
X102733012Y-115250000D01*
X103549999Y-115250000D01*
X103549999Y-114685817D01*
X103549998Y-114685802D01*
X103539599Y-114553667D01*
X103484622Y-114335480D01*
X103391571Y-114130625D01*
X103391568Y-114130619D01*
X103263440Y-113945676D01*
X103263430Y-113945664D01*
X103104335Y-113786569D01*
X103104323Y-113786559D01*
X102919380Y-113658431D01*
X102919374Y-113658428D01*
X102714519Y-113565377D01*
X102496332Y-113510400D01*
X102364196Y-113500000D01*
X101550000Y-113500000D01*
X101550000Y-115000000D01*
X101050000Y-115000000D01*
X101050000Y-113500000D01*
X100235817Y-113500000D01*
X100235802Y-113500001D01*
X100103667Y-113510400D01*
X99885480Y-113565377D01*
X99680625Y-113658428D01*
X99680619Y-113658431D01*
X99495676Y-113786559D01*
X99495664Y-113786569D01*
X99336569Y-113945664D01*
X99336559Y-113945676D01*
X99208431Y-114130619D01*
X99208428Y-114130625D01*
X99115377Y-114335480D01*
X99060400Y-114553667D01*
X99050000Y-114685803D01*
X96500500Y-114685803D01*
X96500500Y-107702135D01*
X99049500Y-107702135D01*
X99049500Y-111297870D01*
X99049501Y-111297876D01*
X99055908Y-111357483D01*
X99106202Y-111492328D01*
X99106206Y-111492335D01*
X99192452Y-111607544D01*
X99192455Y-111607547D01*
X99307664Y-111693793D01*
X99307671Y-111693797D01*
X99442517Y-111744091D01*
X99442516Y-111744091D01*
X99449444Y-111744835D01*
X99502127Y-111750500D01*
X103097872Y-111750499D01*
X103157483Y-111744091D01*
X103292331Y-111693796D01*
X103407546Y-111607546D01*
X103493796Y-111492331D01*
X103511426Y-111445060D01*
X103553296Y-111389128D01*
X103618759Y-111364710D01*
X103687033Y-111379561D01*
X103736439Y-111428965D01*
X103751433Y-111494971D01*
X103749501Y-111531342D01*
X103749500Y-111531386D01*
X103749500Y-113468613D01*
X103749501Y-113468652D01*
X103752295Y-113521243D01*
X103752295Y-113521244D01*
X103792368Y-113728443D01*
X103796755Y-113751126D01*
X103842438Y-113872179D01*
X103879425Y-113970189D01*
X103997929Y-114172131D01*
X103997934Y-114172138D01*
X104148856Y-114351141D01*
X104148858Y-114351143D01*
X104327861Y-114502065D01*
X104327868Y-114502070D01*
X104529810Y-114620574D01*
X104748874Y-114703245D01*
X104978759Y-114747705D01*
X105031378Y-114750500D01*
X105031386Y-114750500D01*
X106968614Y-114750500D01*
X106968622Y-114750500D01*
X107021241Y-114747705D01*
X107251126Y-114703245D01*
X107470190Y-114620574D01*
X107672132Y-114502070D01*
X107851142Y-114351142D01*
X108002070Y-114172132D01*
X108120574Y-113970190D01*
X108203245Y-113751126D01*
X108247705Y-113521241D01*
X108250500Y-113468622D01*
X108250500Y-111531378D01*
X108247705Y-111478759D01*
X108203245Y-111248874D01*
X108120574Y-111029810D01*
X108002070Y-110827868D01*
X108002065Y-110827861D01*
X107851143Y-110648858D01*
X107851141Y-110648856D01*
X107672138Y-110497934D01*
X107672131Y-110497929D01*
X107470189Y-110379425D01*
X107379832Y-110345326D01*
X107251126Y-110296755D01*
X107251121Y-110296754D01*
X107021243Y-110252295D01*
X106968652Y-110249501D01*
X106968629Y-110249500D01*
X106968622Y-110249500D01*
X105031378Y-110249500D01*
X105031370Y-110249500D01*
X105031347Y-110249501D01*
X104978756Y-110252295D01*
X104978755Y-110252295D01*
X104748878Y-110296754D01*
X104748876Y-110296754D01*
X104748874Y-110296755D01*
X104674933Y-110324659D01*
X104529810Y-110379425D01*
X104327868Y-110497929D01*
X104327861Y-110497934D01*
X104148858Y-110648856D01*
X104148856Y-110648858D01*
X103997934Y-110827861D01*
X103997929Y-110827868D01*
X103879425Y-111029810D01*
X103796753Y-111248880D01*
X103796240Y-111251532D01*
X103795712Y-111252552D01*
X103795317Y-111253950D01*
X103795032Y-111253869D01*
X103764175Y-111313609D01*
X103703639Y-111348497D01*
X103633851Y-111345117D01*
X103576968Y-111304544D01*
X103551051Y-111239659D01*
X103550499Y-111227989D01*
X103550499Y-107702128D01*
X103544091Y-107642517D01*
X103543189Y-107640099D01*
X103493797Y-107507671D01*
X103493793Y-107507664D01*
X103407547Y-107392455D01*
X103407544Y-107392452D01*
X103292335Y-107306206D01*
X103292328Y-107306202D01*
X103157482Y-107255908D01*
X103157483Y-107255908D01*
X103097883Y-107249501D01*
X103097881Y-107249500D01*
X103097873Y-107249500D01*
X103097864Y-107249500D01*
X99502129Y-107249500D01*
X99502123Y-107249501D01*
X99442516Y-107255908D01*
X99307671Y-107306202D01*
X99307664Y-107306206D01*
X99192455Y-107392452D01*
X99192452Y-107392455D01*
X99106206Y-107507664D01*
X99106202Y-107507671D01*
X99055908Y-107642517D01*
X99051825Y-107680500D01*
X99049501Y-107702123D01*
X99049500Y-107702135D01*
X96500500Y-107702135D01*
X96500500Y-75624500D01*
X96520185Y-75557461D01*
X96572989Y-75511706D01*
X96624500Y-75500500D01*
X114375041Y-75500500D01*
X114442080Y-75520185D01*
G37*
%TD.AperFunction*%
%TD*%
M02*
