M48
; DRILL file {KiCad 9.0.5} date 2026-01-27T18:20:29+0900
; FORMAT={-:-/ absolute / metric / decimal}
; #@! TF.CreationDate,2026-01-27T18:20:29+09:00
; #@! TF.GenerationSoftware,Kicad,Pcbnew,9.0.5
; #@! TF.FileFunction,Plated,1,2,PTH
FMAT,2
METRIC
; #@! TA.AperFunction,Plated,PTH,ViaDrill
T1C0.300
; #@! TA.AperFunction,Plated,PTH,ComponentDrill
T2C0.800
; #@! TA.AperFunction,Plated,PTH,ComponentDrill
T3C1.000
%
G90
G05
T1
X156.0Y-106.5
X157.609Y-124.151
T2
X122.3Y-76.1
X122.3Y-78.64
X122.3Y-81.18
X122.3Y-83.72
X122.3Y-86.26
X122.3Y-88.8
X122.3Y-91.34
X122.3Y-93.88
X122.3Y-96.42
X122.3Y-98.96
X122.3Y-101.5
X122.3Y-104.04
X122.3Y-106.58
X122.3Y-109.12
X122.3Y-111.66
X122.3Y-114.2
X122.3Y-116.74
X122.3Y-119.28
X122.3Y-121.82
X147.696Y-119.277
X147.696Y-121.817
X147.7Y-76.1
X147.7Y-78.64
X147.7Y-81.18
X147.7Y-83.72
X147.7Y-86.26
X147.7Y-88.8
X147.7Y-91.34
X147.7Y-93.88
X147.7Y-96.42
X147.7Y-98.96
X147.7Y-101.5
X147.7Y-104.04
X147.7Y-106.58
X147.7Y-109.12
X147.7Y-111.66
X147.7Y-114.2
X147.7Y-116.74
T3
X102.235Y-91.5
X104.775Y-91.5
X107.315Y-91.5
X115.8Y-76.72
X115.8Y-79.26
X115.8Y-81.8
X115.8Y-84.34
X115.8Y-86.88
X115.8Y-89.42
X115.8Y-91.96
X115.8Y-94.5
X115.8Y-97.04
X115.8Y-99.58
X115.8Y-102.12
X115.8Y-104.66
X115.8Y-107.2
X115.8Y-109.74
X115.8Y-112.28
X115.8Y-114.82
X115.8Y-117.36
X115.8Y-119.9
X115.8Y-122.44
X153.6Y-76.88
X153.6Y-79.42
X153.6Y-81.96
X153.6Y-84.5
X153.6Y-87.04
X153.6Y-89.58
X153.6Y-92.12
X153.6Y-94.66
X153.6Y-97.2
X153.6Y-99.74
X153.6Y-102.28
X153.6Y-104.82
X153.6Y-107.36
X153.6Y-109.9
X153.6Y-112.44
X153.6Y-114.98
X153.6Y-117.52
X153.6Y-120.06
X153.6Y-122.6
X162.1Y-77.04
X162.1Y-79.58
X162.1Y-82.12
X162.1Y-84.66
X162.1Y-87.2
X162.1Y-89.74
X162.1Y-94.54
X162.1Y-97.08
X162.1Y-99.62
X162.1Y-102.16
X162.1Y-104.7
X162.1Y-107.24
X162.1Y-112.04
X162.1Y-114.58
X162.1Y-117.12
X162.1Y-119.66
X162.1Y-122.2
X162.1Y-124.74
T3
G00X100.3Y-109.5
M15
G01X102.3Y-109.5
M16
G05
G00X100.3Y-115.5
M15
G01X102.3Y-115.5
M16
G05
G00X106.0Y-113.5
M15
G01X106.0Y-111.5
M16
G05
M30
